<?xml version="1.0" standalone="no"?>
<!DOCTYPE svg PUBLIC "-//W3C//DTD SVG 1.1//EN" "http://www.w3.org/Graphics/SVG/1.1/DTD/svg11.dtd" >
<svg xmlns="http://www.w3.org/2000/svg" xmlns:xlink="http://www.w3.org/1999/xlink" version="1.1">
<metadata>
Created by FontForge 20170731 at Sun Nov 26 13:23:42 2017
 By Aleksey,,,
Copyright (C) 2006, 2007 Hoefler &#38; Frere-Jones. http://www.typography.com
</metadata>
<defs>
<font id="SVN-GothamRoundedBold" horiz-adv-x="675" >
  <font-face 
    font-family="SVN-Gotham Rounded"
    font-weight="700"
    font-stretch="normal"
    units-per-em="1000"
    panose-1="0 0 0 0 0 0 0 0 0 0"
    ascent="800"
    descent="-200"
    x-height="536"
    cap-height="706"
    bbox="-60 -297 1195 1150"
    underline-thickness="50"
    underline-position="-150"
    unicode-range="U+0020-FB04"
  />
<missing-glyph horiz-adv-x="500" 
d="M0 800h500v-1000h-500v1000zM250 360l179 390h-358zM222 300l-172 376v-752zM278 300l172 -376v752zM71 -150h358l-179 390z" />
    <glyph glyph-name=".notdef" horiz-adv-x="500" 
d="M0 800h500v-1000h-500v1000zM250 360l179 390h-358zM222 300l-172 376v-752zM278 300l172 -376v752zM71 -150h358l-179 390z" />
    <glyph glyph-name=".null" horiz-adv-x="0" 
 />
    <glyph glyph-name="nonmarkingreturn" horiz-adv-x="300" 
 />
    <glyph glyph-name="space" unicode=" " horiz-adv-x="300" 
 />
    <glyph glyph-name="exclam" unicode="!" horiz-adv-x="324" 
d="M73 652q-2 22 9 36.5t31 14.5h98q20 0 31 -14.5t9 -36.5l-43 -376q-2 -20 -14.5 -32t-31.5 -12t-31.5 12t-14.5 32zM75 81q0 36 24.5 60.5t62.5 24.5t62.5 -24.5t24.5 -60.5v-2q0 -36 -24.5 -60.5t-62.5 -24.5t-62.5 24.5t-24.5 60.5v2z" />
    <glyph glyph-name="quotedbl" unicode="&#x22;" horiz-adv-x="520" 
d="M307 635q2 29 20.5 49t49.5 20h48q17 0 28 -11t11 -29q0 -11 -3 -21l-80 -231q-6 -17 -16.5 -27t-27.5 -10q-18 0 -30.5 13t-11.5 33zM71 635q2 29 20.5 49t49.5 20h48q17 0 28 -11t11 -29q0 -11 -3 -21l-80 -231q-6 -17 -16.5 -27t-27.5 -10q-18 0 -30.5 13t-11.5 33z
" />
    <glyph glyph-name="numbersign" unicode="#" horiz-adv-x="700" 
d="M116 150h-23q-26 0 -45 19t-19 45t19 45t45 19h45l25 148h-35q-26 0 -45 19t-19 45t19 45t45 19h57l17 99q4 24 22 38.5t42 14.5q15 0 27.5 -6.5t21.5 -17t13 -24t2 -27.5l-13 -77h135l17 99q4 24 22 38.5t42 14.5q15 0 27.5 -6.5t21.5 -17t13 -24t2 -27.5l-13 -77h23
q26 0 45 -19t19 -45t-19 -45t-45 -19h-45l-25 -148h35q26 0 45 -19t19 -45t-19 -45t-45 -19h-57l-18 -103q-4 -23 -22 -38t-42 -15q-14 0 -27 6.5t-22 17t-13.5 24t-1.5 27.5l14 81h-135l-18 -103q-4 -20 -20.5 -36.5t-43.5 -16.5q-29 0 -49.5 21.5t-14.5 53.5zM405 278
l25 148h-135l-25 -148h135z" />
    <glyph glyph-name="dollar" unicode="$" horiz-adv-x="646" 
d="M280 712q0 22 15 37t37 15t37 -15t15 -37v-14q81 -12 145 -48q14 -8 25 -22.5t11 -37.5q0 -29 -19.5 -48t-48.5 -19q-19 0 -35 9q-21 11 -42 20t-41 14v-152q114 -31 165.5 -81t51.5 -134q0 -42 -15.5 -76t-43.5 -59.5t-67 -41.5t-86 -21v-53q0 -22 -15 -37t-37 -15
t-37 15t-15 37v54q-54 7 -103 25t-94 45q-16 10 -25 25t-9 35q0 29 20 48.5t49 19.5q20 0 39 -13q32 -20 62.5 -34t65.5 -22v159q-108 29 -161.5 76.5t-53.5 136.5q0 41 15 75t42.5 59.5t66.5 41.5t86 21v12zM450 191q0 25 -14.5 42.5t-56.5 31.5v-139q71 11 71 65zM216 512
q0 -23 14 -40t55 -32v135q-36 -5 -52.5 -22t-16.5 -41z" />
    <glyph glyph-name="percent" unicode="%" horiz-adv-x="860" 
d="M214 350q-38 0 -69 14t-53.5 38t-34.5 56t-12 69v2q0 37 12.5 69.5t35 57t54 38.5t69.5 14t69 -14t53.5 -38t34.5 -56t12 -69v-2q0 -37 -12.5 -69.5t-35 -57t-54 -38.5t-69.5 -14zM157 41q0 18 11 32l447 612q15 21 41 21q20 0 33.5 -13.5t13.5 -33.5q0 -18 -11 -32
l-447 -612q-15 -21 -41 -21q-20 0 -33.5 13.5t-13.5 33.5zM644 -8q-38 0 -69 14t-53.5 38t-34.5 56t-12 69v2q0 37 12.5 69.5t35 57t54 38.5t69.5 14t69 -14t53.5 -38t34.5 -56t12 -69v-2q0 -37 -12.5 -69.5t-35 -57t-54 -38.5t-69.5 -14zM216 441q32 0 48 26t16 60v2
q0 35 -18 61.5t-48 26.5q-32 0 -48 -25.5t-16 -60.5v-2q0 -35 18 -61.5t48 -26.5zM646 83q32 0 48 26t16 60v2q0 35 -18 61.5t-48 26.5q-32 0 -48 -25.5t-16 -60.5v-2q0 -35 18 -61.5t48 -26.5z" />
    <glyph glyph-name="ampersand" unicode="&#x26;" horiz-adv-x="696" 
d="M587 -10q-16 0 -27.5 5t-23.5 17l-59 59q-43 -37 -94 -59t-114 -22q-50 0 -93 14t-74.5 40.5t-49.5 63.5t-18 84v2q0 67 35 114.5t101 77.5q-26 36 -37.5 70t-11.5 70v2q0 36 14 69t41 58.5t66.5 41t90.5 15.5q45 0 81 -13.5t62 -37.5t40 -56t14 -69v-2q0 -36 -10.5 -64
t-30 -50t-46.5 -39t-59 -30l92 -91q11 17 23 36t23 40q5 11 19.5 23t37.5 12q26 0 45 -19t19 -45q0 -17 -9 -32q-15 -26 -31.5 -52.5t-35.5 -52.5l64 -63q11 -11 17 -22.5t6 -27.5q0 -29 -19 -48t-48 -19zM303 432q46 17 69.5 38t23.5 55v2q0 30 -18.5 47.5t-47.5 17.5
q-31 0 -49.5 -19.5t-18.5 -51.5v-2q0 -23 9.5 -42.5t31.5 -44.5zM287 116q52 0 102 42l-134 135q-35 -19 -50.5 -43t-15.5 -50v-2q0 -37 27.5 -59.5t70.5 -22.5z" />
    <glyph glyph-name="quotesingle" unicode="'" horiz-adv-x="286" 
d="M71 635q2 29 20.5 49t49.5 20h48q17 0 29 -11t12 -29q0 -11 -3 -21l-80 -231q-6 -17 -17 -27t-29 -10q-19 0 -31 13t-11 33z" />
    <glyph glyph-name="parenleft" unicode="(" horiz-adv-x="445" 
d="M344 -133q-13 0 -22.5 3t-13.5 5q-125 75 -187 174.5t-62 237.5t62 237.5t187 174.5q4 2 13.5 5t22.5 3q11 0 21.5 -5.5t18.5 -14t13 -19.5t5 -23q0 -18 -7 -30t-18 -20q-87 -65 -127 -137t-40 -171q0 -50 9.5 -92t30 -79t52 -70.5t75.5 -66.5q11 -8 18 -20t7 -30
q0 -12 -5 -23t-13 -19.5t-18.5 -14t-21.5 -5.5z" />
    <glyph glyph-name="parenright" unicode=")" horiz-adv-x="445" 
d="M101 -133q-11 0 -21.5 5.5t-18.5 14t-13 19.5t-5 23q0 18 7 30t18 20q87 65 127 137t40 171q0 50 -10 92t-30 79t-52 70.5t-75 66.5q-11 8 -18 20t-7 30q0 12 5 23t13 19.5t18.5 14t21.5 5.5q13 0 22.5 -3t13.5 -5q125 -75 187 -174.5t62 -237.5t-62 -237.5t-187 -174.5
q-4 -2 -13.5 -5t-22.5 -3z" />
    <glyph glyph-name="asterisk" unicode="*" horiz-adv-x="430" 
d="M190 492l-68 -52q-15 -12 -29 -12q-16 0 -27 11.5t-11 27.5q0 14 8 23t19 13l81 34l-81 34q-11 5 -19 14t-8 23q0 16 11.5 27t27.5 11q13 0 28 -12l68 -52l-11 81q-2 19 8 32t28 13t28 -12.5t8 -31.5l-11 -82l68 52q15 12 29 12q16 0 27 -11.5t11 -27.5q0 -14 -8 -22.5
t-19 -13.5l-81 -34l81 -34q11 -5 19 -14t8 -23q0 -16 -11.5 -27t-27.5 -11q-13 0 -28 12l-68 52l11 -81q2 -19 -8 -32t-28 -13t-28 12.5t-8 31.5z" />
    <glyph glyph-name="plus" unicode="+" horiz-adv-x="640" 
d="M249 283h-118q-29 0 -49 20t-20 49t20 49t49 20h118v115q0 29 21 50t50 21t50 -21t21 -50v-115h118q29 0 49 -20t20 -49t-20 -49t-49 -20h-118v-115q0 -29 -21 -50t-50 -21t-50 21t-21 50v115z" />
    <glyph glyph-name="comma" unicode="," horiz-adv-x="286" 
d="M19 -128q0 14 8.5 22t21.5 11q38 9 58.5 34t18.5 61q-26 7 -48 28.5t-22 53.5v2q0 35 22.5 58.5t60.5 23.5q42 0 65.5 -30t23.5 -82v-4q0 -55 -15.5 -95.5t-43.5 -68.5q-23 -23 -53.5 -35.5t-58.5 -12.5q-20 0 -29 10t-9 24z" />
    <glyph glyph-name="hyphen" unicode="-" horiz-adv-x="408" 
d="M117 237q-30 0 -51.5 21.5t-21.5 51.5t21.5 51.5t51.5 21.5h174q30 0 51.5 -21.5t21.5 -51.5t-21.5 -51.5t-51.5 -21.5h-174z" />
    <glyph glyph-name="period" unicode="." horiz-adv-x="286" 
d="M56 81q0 36 24.5 60.5t62.5 24.5t62.5 -24.5t24.5 -60.5v-2q0 -36 -24.5 -60.5t-62.5 -24.5t-62.5 24.5t-24.5 60.5v2z" />
    <glyph glyph-name="slash" unicode="/" horiz-adv-x="530" 
d="M3 -77q0 8 2.5 16t4.5 13l391 817q17 35 53 35q24 0 41.5 -17t17.5 -40q0 -8 -2.5 -16t-4.5 -13l-391 -817q-17 -35 -53 -35q-24 0 -41.5 17t-17.5 40z" />
    <glyph glyph-name="zero" unicode="0" horiz-adv-x="730" 
d="M364 -12q-71 0 -128 27.5t-97.5 76t-62.5 114t-22 142.5v2q0 76 22.5 142t63.5 115t98.5 77t127.5 28q69 0 126.5 -27.5t98 -76t63 -114.5t22.5 -142v-2q0 -76 -22.5 -142t-63.5 -115t-98.5 -77t-127.5 -28zM366 127q35 0 63 16.5t48 46t30.5 70t10.5 88.5v2
q0 48 -11 88.5t-31.5 70.5t-49 47t-62.5 17q-35 0 -63 -16.5t-47.5 -46t-30.5 -70t-11 -88.5v-2q0 -48 11 -89t31 -70.5t48.5 -46.5t63.5 -17z" />
    <glyph glyph-name="one" unicode="1" horiz-adv-x="422" 
d="M178 554l-54 -14q-6 -2 -13.5 -3t-13.5 -1q-27 0 -47 19.5t-20 46.5q0 23 14 41t37 25l99 29q22 6 39 9.5t33 3.5h2q32 0 54 -22t22 -54v-564q0 -32 -22 -54t-54 -22t-54 22t-22 54v484z" />
    <glyph glyph-name="two" unicode="2" horiz-adv-x="623" 
d="M43 73q0 46 40 77l199 163q33 27 56 48.5t37.5 40.5t21 38t6.5 41q0 45 -26 68t-68 23q-33 0 -59 -14.5t-55 -46.5q-8 -8 -21 -15t-31 -7q-29 0 -49.5 20.5t-20.5 49.5q0 27 18 48q42 49 95 76t133 27q54 0 98.5 -15.5t76 -43.5t49 -68t17.5 -89v-2q0 -44 -11.5 -78.5
t-34 -65t-57.5 -61t-81 -66.5l-114 -88h244q28 0 47.5 -19.5t19.5 -47.5t-19.5 -47t-47.5 -19h-380q-36 0 -59.5 19t-23.5 54z" />
    <glyph glyph-name="three" unicode="3" horiz-adv-x="621" 
d="M311 -12q-75 0 -132 21.5t-100 58.5q-11 9 -18.5 23.5t-7.5 31.5q0 30 22 52t52 22q17 0 28.5 -5.5t20.5 -13.5q30 -26 62.5 -39t74.5 -13q45 0 72 23t27 62v2q0 43 -35.5 66t-101.5 23h-24q-27 0 -46.5 19.5t-19.5 46.5q0 16 7.5 30.5t25.5 32.5l136 137h-215
q-27 0 -46.5 19.5t-19.5 46.5t19.5 46.5t46.5 19.5h341q34 0 56 -18t22 -50q0 -29 -12.5 -47.5t-33.5 -38.5l-137 -131q36 -6 69.5 -19t60 -36t42.5 -57.5t16 -83.5v-2q0 -50 -17.5 -91.5t-50 -72.5t-79.5 -48t-105 -17z" />
    <glyph glyph-name="four" unicode="4" horiz-adv-x="689" 
d="M398 151h-288q-31 0 -53 20t-22 51q0 24 9.5 44t26.5 40l304 353q22 26 42 39t54 13q31 0 52.5 -21t21.5 -52v-362h37q26 0 44.5 -18.5t18.5 -44.5t-18.5 -44t-44.5 -18h-37v-84q0 -31 -21.5 -52t-52.5 -21t-52 21t-21 52v84zM398 276v218l-186 -218h186z" />
    <glyph glyph-name="five" unicode="5" horiz-adv-x="630" 
d="M310 -12q-73 0 -125.5 18t-94.5 48q-14 10 -22.5 24.5t-8.5 34.5q0 30 21.5 52t51.5 22q14 0 23.5 -3.5t18.5 -10.5q32 -23 64 -34t69 -11q49 0 81 24.5t32 72.5v2q0 45 -34.5 70t-89.5 25q-22 0 -38.5 -3t-29 -6t-21.5 -6t-17 -3q-17 0 -32 7t-38 24q-31 22 -28 62
l14 237q2 28 21 47t47 19h304q28 0 48 -20t20 -48t-20 -47.5t-48 -19.5h-236l-8 -121q21 5 42 8.5t50 3.5q52 0 96.5 -13t77.5 -40t52 -69.5t19 -101.5v-2q0 -56 -19 -100.5t-53.5 -76t-82.5 -48.5t-106 -17z" />
    <glyph glyph-name="six" unicode="6" horiz-adv-x="662" 
d="M339 -12q-69 0 -117 19t-85 56q-38 38 -60.5 99.5t-22.5 165.5v2q0 81 18.5 151t56.5 121t96 80.5t136 29.5q54 0 95.5 -11.5t73.5 -30.5q18 -11 29 -27t11 -39q0 -30 -21.5 -50.5t-51.5 -20.5q-21 0 -38 11q-24 14 -47.5 21t-55.5 7q-33 0 -57.5 -12.5t-42 -34
t-27.5 -51.5t-14 -64q26 17 59.5 31t85.5 14t97 -14.5t78 -42.5t52 -69.5t19 -96.5v-2q0 -54 -20.5 -98.5t-56 -76.5t-84.5 -49.5t-106 -17.5zM333 120q57 0 88.5 29t31.5 74v2q0 45 -32.5 73.5t-89.5 28.5t-88.5 -28t-31.5 -73v-2q0 -45 32.5 -74.5t89.5 -29.5z" />
    <glyph glyph-name="seven" unicode="7" horiz-adv-x="619" 
d="M123 63q0 10 4 23.5t10 24.5l260 456h-268q-28 0 -47.5 19t-19.5 47t19.5 47.5t47.5 19.5h380q32 0 51 -18t19 -51q0 -17 -6 -37t-16 -38l-281 -510q-15 -28 -33 -40t-41 -12q-31 0 -55 18t-24 51z" />
    <glyph glyph-name="eight" unicode="8" horiz-adv-x="630" 
d="M315 -10q-58 0 -107.5 14.5t-85.5 41t-56.5 63.5t-20.5 83v2q0 64 28 103.5t85 65.5q-42 25 -65.5 60.5t-23.5 92.5v2q0 40 17.5 75t50 61t77.5 41t101 15q55 0 100.5 -15t78 -40.5t50 -61t17.5 -75.5v-2q0 -57 -23.5 -92.5t-65.5 -60.5q53 -28 83 -65.5t30 -99.5v-2
q0 -49 -20.5 -87t-56.5 -64.5t-85.5 -40.5t-107.5 -14zM315 414q46 0 73 24t27 61v2q0 32 -26 57t-74 25t-74 -24.5t-26 -56.5v-2q0 -37 27 -61.5t73 -24.5zM315 117q57 0 89 25t32 62v2q0 42 -33.5 64t-87.5 22t-87.5 -22t-33.5 -64v-2q0 -36 32 -61.5t89 -25.5z" />
    <glyph glyph-name="nine" unicode="9" horiz-adv-x="662" 
d="M302 -12q-60 0 -103 13t-82 37q-16 10 -26 26t-10 37q0 30 21.5 50t51.5 20q11 0 21 -3.5t19 -8.5q27 -16 53 -23.5t59 -7.5q65 0 99.5 44t42.5 115q-26 -22 -61 -35t-81 -13q-57 0 -103 15.5t-79 44.5t-50.5 71t-17.5 95v2q0 53 19.5 98t54.5 77.5t84.5 51t108.5 18.5
q70 0 116 -18t86 -58q19 -19 34 -43t26 -56t17 -72.5t6 -92.5v-2q0 -85 -20 -155.5t-58.5 -120.5t-95.5 -78t-132 -28zM331 367q57 0 88.5 29.5t31.5 74.5v2q0 48 -32.5 77.5t-90.5 29.5q-57 0 -88 -29t-31 -77v-2q0 -48 32.5 -76.5t89.5 -28.5z" />
    <glyph glyph-name="colon" unicode=":" horiz-adv-x="296" 
d="M61 457q0 36 24.5 60.5t62.5 24.5t62.5 -24.5t24.5 -60.5v-2q0 -36 -24.5 -60.5t-62.5 -24.5t-62.5 24.5t-24.5 60.5v2zM61 81q0 36 24.5 60.5t62.5 24.5t62.5 -24.5t24.5 -60.5v-2q0 -36 -24.5 -60.5t-62.5 -24.5t-62.5 24.5t-24.5 60.5v2z" />
    <glyph glyph-name="semicolon" unicode=";" horiz-adv-x="296" 
d="M61 457q0 36 24.5 60.5t62.5 24.5t62.5 -24.5t24.5 -60.5v-2q0 -36 -24.5 -60.5t-62.5 -24.5t-62.5 24.5t-24.5 60.5v2zM24 -128q0 14 8.5 22t21.5 11q38 9 58.5 34t18.5 61q-26 7 -48 28.5t-22 53.5v2q0 35 22.5 58.5t60.5 23.5q42 0 65.5 -30t23.5 -82v-4
q0 -55 -15.5 -95.5t-43.5 -68.5q-23 -23 -53.5 -35.5t-58.5 -12.5q-20 0 -29 10t-9 24z" />
    <glyph glyph-name="less" unicode="&#x3c;" horiz-adv-x="640" 
d="M492 93q-8 0 -16 2.5t-16 6.5l-337 160q-29 14 -45 35t-16 50v10q0 29 16 50t45 35l337 160q17 10 37 10q24 1 42.5 -17.5t18.5 -45.5q0 -42 -42 -61l-302 -135l302 -135q42 -19 42 -63q0 -28 -19 -45.5t-47 -16.5z" />
    <glyph glyph-name="equal" unicode="=" horiz-adv-x="640" 
d="M136 413q-29 0 -49 20t-20 49t20 49t49 20h368q29 0 49 -20t20 -49t-20 -49t-49 -20h-368zM136 153q-29 0 -49 20t-20 49t20 49t49 20h368q29 0 49 -20t20 -49t-20 -49t-49 -20h-368z" />
    <glyph glyph-name="greater" unicode="&#x3e;" horiz-adv-x="640" 
d="M148 611q8 0 16 -2.5t16 -6.5l337 -160q29 -14 45 -35t16 -50v-10q0 -29 -16 -50t-45 -35l-337 -160q-17 -10 -37 -10q-24 -1 -42.5 17.5t-18.5 45.5q0 42 42 61l302 135l-302 135q-42 19 -42 63q0 28 19 45.5t47 16.5z" />
    <glyph glyph-name="question" unicode="?" horiz-adv-x="544" 
d="M245 232q-22 0 -36.5 14.5t-17.5 34.5l-10 68q-4 25 9 41t37 19q66 8 96.5 29t30.5 58v2q0 34 -23.5 52.5t-68.5 18.5q-64 0 -116 -40q-9 -7 -20.5 -11.5t-24.5 -4.5q-29 0 -49.5 20.5t-20.5 49.5q0 14 6 28.5t20 25.5q40 33 91 52.5t117 19.5q54 0 98.5 -13.5t76.5 -40
t49.5 -65t17.5 -88.5v-2q0 -48 -15.5 -82t-42 -58t-62.5 -38.5t-77 -22.5l-3 -18q-3 -20 -17.5 -34.5t-36.5 -14.5h-8zM158 81q0 36 24.5 60.5t62.5 24.5t62.5 -24.5t24.5 -60.5v-2q0 -36 -24.5 -60.5t-62.5 -24.5t-62.5 24.5t-24.5 60.5v2z" />
    <glyph glyph-name="at" unicode="@" horiz-adv-x="980" 
d="M499 -162q-96 0 -177.5 34.5t-141.5 94t-93.5 138.5t-33.5 169t34 169.5t93 139t139 94.5t172 35t171.5 -33t138.5 -88t92.5 -126.5t33.5 -148.5q0 -63 -15.5 -110t-42.5 -78.5t-63.5 -47t-77.5 -15.5q-61 0 -97.5 19t-55.5 41q-26 -23 -62.5 -41.5t-85.5 -18.5
q-38 0 -71.5 13.5t-58.5 38.5t-39 60.5t-14 80.5q0 53 18.5 99t49.5 79.5t71.5 53t84.5 19.5q52 0 84.5 -19.5t53.5 -48.5v1q10 60 63 60q26 0 45 -20t13 -53l-39 -223q-2 -8 -2.5 -16.5t-0.5 -14.5q0 -27 19 -45t54 -18q27 0 50 13t40 39t27 64t10 88q0 69 -30 133.5
t-82.5 114t-125 79t-156.5 29.5q-85 0 -157.5 -31.5t-125.5 -85.5t-83 -126.5t-30 -154.5q0 -83 30 -155t83.5 -125.5t127.5 -84.5t163 -31q71 0 126.5 15.5t109.5 46.5q4 3 11 3q8 0 13 -6t5 -14q0 -6 -3 -10t-7 -6q-57 -32 -118.5 -50.5t-136.5 -18.5zM462 168
q24 0 45.5 11t38 30.5t26 45.5t9.5 57q0 43 -25.5 68.5t-67.5 25.5q-24 0 -46 -11t-38.5 -29.5t-26 -44.5t-9.5 -56q0 -48 26 -72.5t68 -24.5z" />
    <glyph glyph-name="A" unicode="A" horiz-adv-x="766" 
d="M36 66q0 8 2.5 16.5t6.5 16.5l244 551q13 29 35.5 45t54.5 16h9q32 0 54 -16t35 -45l244 -551q8 -19 8 -31q0 -31 -21 -52.5t-52 -21.5q-27 0 -45 14.5t-29 38.5l-47 110h-308l-49 -115q-10 -23 -28.5 -35.5t-42.5 -12.5q-30 0 -50.5 21t-20.5 51zM478 293l-97 231
l-97 -231h194z" />
    <glyph glyph-name="B" unicode="B" horiz-adv-x="722" 
d="M84 623q0 32 22.5 54.5t54.5 22.5h248q121 0 183 -62q48 -48 48 -119v-2q0 -59 -27 -95t-65 -56q61 -23 96 -62.5t35 -109.5v-2q0 -48 -18.5 -84t-53 -60t-83 -36t-107.5 -12h-256q-32 0 -54.5 22.5t-22.5 54.5v546zM376 417q51 0 81 17.5t30 56.5v2q0 35 -26 53.5
t-75 18.5h-152v-148h142zM417 135q51 0 80 18.5t29 57.5v2q0 35 -27 55.5t-87 20.5h-178v-154h183z" />
    <glyph glyph-name="C" unicode="C" horiz-adv-x="738" 
d="M412 -12q-77 0 -143 28t-114 76.5t-75 114.5t-27 141v2q0 75 27 140.5t75 115t115 78t148 28.5q79 0 134 -19.5t100 -51.5q12 -9 21 -25t9 -36q0 -32 -22 -53.5t-54 -21.5q-16 0 -27 5t-19 10q-32 24 -66.5 37t-76.5 13q-44 0 -81.5 -17t-64.5 -47t-42 -69.5t-15 -84.5
v-2q0 -45 15 -85t41.5 -70t64 -47.5t82.5 -17.5q49 0 84 14.5t68 40.5q20 17 46 17q29 0 50.5 -21t21.5 -50q0 -18 -7.5 -32t-18.5 -23q-47 -41 -106 -64.5t-143 -23.5z" />
    <glyph glyph-name="D" unicode="D" horiz-adv-x="782" 
d="M84 623q0 32 22.5 54.5t54.5 22.5h196q82 0 150.5 -26.5t118 -73.5t76.5 -110.5t27 -137.5v-2q0 -74 -27 -138t-76.5 -111t-118 -74t-150.5 -27h-196q-32 0 -54.5 22.5t-22.5 54.5v546zM357 139q47 0 86 15t66.5 43t43 66t15.5 85v2q0 46 -15.5 85t-43 67t-66.5 43.5
t-86 15.5h-119v-422h119z" />
    <glyph glyph-name="E" unicode="E" horiz-adv-x="670" 
d="M161 0q-32 0 -54.5 22.5t-22.5 54.5v546q0 32 22.5 54.5t54.5 22.5h388q29 0 49 -20t20 -49t-20 -48.5t-49 -19.5h-312v-142h267q29 0 49 -20t20 -49t-20 -48.5t-49 -19.5h-267v-147h317q29 0 49 -20t20 -49t-20 -48.5t-49 -19.5h-393z" />
    <glyph glyph-name="F" unicode="F" horiz-adv-x="656" 
d="M84 623q0 32 22.5 54.5t54.5 22.5h392q29 0 49.5 -20.5t20.5 -49.5t-20.5 -49.5t-49.5 -20.5h-315v-149h270q29 0 49.5 -20.5t20.5 -49.5t-20.5 -49.5t-49.5 -20.5h-270v-200q0 -32 -22.5 -54.5t-54.5 -22.5t-54.5 22.5t-22.5 54.5v552z" />
    <glyph glyph-name="G" unicode="G" horiz-adv-x="784" 
d="M421 -12q-82 0 -149.5 27t-116 75t-75.5 114t-27 144v2q0 75 27.5 140.5t76.5 115t116 78t147 28.5t135.5 -17.5t103.5 -50.5q11 -8 21.5 -23.5t10.5 -38.5q0 -32 -22 -54t-54 -22q-17 0 -28 5t-19 11q-32 23 -67 35.5t-86 12.5q-42 0 -78.5 -17.5t-64 -47t-43 -69
t-15.5 -84.5v-2q0 -48 15.5 -88.5t44 -70.5t67 -46.5t85.5 -16.5q86 0 145 42v100h-104q-28 0 -47.5 19t-19.5 47t19.5 47.5t47.5 19.5h176q32 0 54.5 -22.5t22.5 -54.5v-170q0 -67 -54 -98q-43 -26 -104.5 -48t-140.5 -22z" />
    <glyph glyph-name="H" unicode="H" horiz-adv-x="760" 
d="M84 629q0 32 22.5 54.5t54.5 22.5t54.5 -22.5t22.5 -54.5v-206h284v206q0 32 22.5 54.5t54.5 22.5t54.5 -22.5t22.5 -54.5v-558q0 -32 -22.5 -54.5t-54.5 -22.5t-54.5 22.5t-22.5 54.5v210h-284v-210q0 -32 -22.5 -54.5t-54.5 -22.5t-54.5 22.5t-22.5 54.5v558z" />
    <glyph glyph-name="I" unicode="I" horiz-adv-x="336" 
d="M91 629q0 32 22.5 54.5t54.5 22.5t54.5 -22.5t22.5 -54.5v-558q0 -32 -22.5 -54.5t-54.5 -22.5t-54.5 22.5t-22.5 54.5v558z" />
    <glyph glyph-name="J" unicode="J" horiz-adv-x="564" 
d="M243 -10q-60 0 -106 17.5t-79 43.5q-12 9 -20.5 25t-8.5 34q0 31 21 52.5t52 21.5q14 0 24.5 -4t21.5 -12q23 -17 45 -26t48 -9q45 0 70.5 27.5t25.5 88.5v380q0 32 22.5 54.5t54.5 22.5t54.5 -22.5t22.5 -54.5v-387q0 -63 -17 -109t-49 -78t-78.5 -48.5t-103.5 -16.5z
" />
    <glyph glyph-name="K" unicode="K" horiz-adv-x="712" 
d="M84 629q0 32 22.5 54.5t54.5 22.5t54.5 -22.5t22.5 -54.5v-235l284 282q14 14 29.5 22t35.5 8q32 0 51.5 -21t19.5 -50q0 -18 -7.5 -32t-20.5 -26l-197 -184l215 -270q9 -11 15 -24t6 -30q0 -32 -22 -53.5t-56 -21.5q-23 0 -37.5 10t-27.5 27l-200 262l-88 -82v-140
q0 -32 -22.5 -54.5t-54.5 -22.5t-54.5 22.5t-22.5 54.5v558z" />
    <glyph glyph-name="L" unicode="L" horiz-adv-x="619" 
d="M84 629q0 32 22.5 54.5t54.5 22.5t54.5 -22.5t22.5 -54.5v-489h285q29 0 49.5 -20.5t20.5 -49.5t-20.5 -49.5t-49.5 -20.5h-362q-32 0 -54.5 22.5t-22.5 54.5v552z" />
    <glyph glyph-name="M" unicode="M" horiz-adv-x="868" 
d="M84 627q0 32 22.5 54.5t54.5 22.5h17q25 0 42 -11.5t28 -28.5l186 -303l187 304q24 39 69 39h17q32 0 54.5 -22.5t22.5 -54.5v-556q0 -32 -22.5 -54.5t-54.5 -22.5t-54 22.5t-22 54.5v349l-135 -208q-12 -18 -27.5 -28.5t-36.5 -10.5t-36.5 10.5t-27.5 28.5l-133 205
v-348q0 -32 -22 -53.5t-54 -21.5t-53.5 21.5t-21.5 53.5v558z" />
    <glyph glyph-name="N" unicode="N" horiz-adv-x="790" 
d="M84 627q0 32 22.5 54.5t54.5 22.5h16q28 0 46 -12.5t34 -32.5l297 -390v361q0 32 22 54t54 22t54 -22t22 -54v-557q0 -32 -22.5 -54.5t-54.5 -22.5h-5q-28 0 -46 12.5t-34 32.5l-308 404v-375q0 -32 -22 -54t-54 -22t-54 22t-22 54v557z" />
    <glyph glyph-name="O" unicode="O" horiz-adv-x="850" 
d="M424 -12q-81 0 -149 28.5t-117.5 77t-77 114t-27.5 140.5v2q0 75 28 140.5t77.5 115t118 78t149.5 28.5t149 -28.5t117.5 -77t77 -114t27.5 -140.5v-2q0 -75 -28 -140.5t-77.5 -115t-118 -78t-149.5 -28.5zM426 130q46 0 85 17t66.5 47t43 69.5t15.5 84.5v2
q0 45 -15.5 85t-44 70t-67.5 47.5t-85 17.5q-47 0 -85.5 -17t-66 -47t-43 -69.5t-15.5 -84.5v-2q0 -45 15.5 -85t44 -70t67 -47.5t85.5 -17.5z" />
    <glyph glyph-name="P" unicode="P" horiz-adv-x="668" 
d="M84 623q0 32 22.5 54.5t54.5 22.5h209q63 0 112.5 -17.5t84 -49.5t53 -76.5t18.5 -98.5v-2q0 -61 -22 -107t-60.5 -77t-90 -46.5t-110.5 -15.5h-117v-139q0 -32 -22.5 -54.5t-54.5 -22.5t-54.5 22.5t-22.5 54.5v552zM360 347q58 0 90 30.5t32 75.5v2q0 52 -33.5 79
t-91.5 27h-119v-214h122z" />
    <glyph glyph-name="Q" unicode="Q" horiz-adv-x="850" 
d="M424 -12q-81 0 -149 28.5t-117.5 77t-77 114t-27.5 140.5v2q0 75 28 140.5t77.5 115t118 78t149.5 28.5t149 -28.5t117.5 -77t77 -114t27.5 -140.5v-2q0 -57 -16.5 -106.5t-45.5 -94.5l30 -25q12 -11 20 -25t8 -33q0 -30 -21 -51.5t-51 -21.5q-16 0 -29 6t-22 15l-38 34
q-92 -60 -208 -60zM445 211q-12 11 -20 25t-8 33q0 30 21 51.5t51 21.5q29 0 51 -21l77 -69q19 42 19 96v2q0 45 -15.5 85t-44 70t-67.5 47.5t-85 17.5q-47 0 -85.5 -17t-66 -47t-43 -69.5t-15.5 -84.5v-2q0 -45 15.5 -85t44 -70t67 -47.5t85.5 -17.5q54 0 92 19z" />
    <glyph glyph-name="R" unicode="R" horiz-adv-x="723" 
d="M84 623q0 32 22.5 54.5t54.5 22.5h243q133 0 204 -71q60 -60 60 -160v-2q0 -84 -38 -135.5t-102 -77.5l107 -130q11 -14 18 -27.5t7 -31.5q0 -32 -22.5 -51.5t-50.5 -19.5q-26 0 -44 11.5t-32 28.5l-150 190h-123v-153q0 -32 -22.5 -54.5t-54.5 -22.5t-54.5 22.5
t-22.5 54.5v552zM394 360q57 0 87.5 27t30.5 72v2q0 51 -32 75.5t-89 24.5h-153v-201h156z" />
    <glyph glyph-name="S" unicode="S" horiz-adv-x="640" 
d="M333 -10q-69 0 -136 21t-127 63q-13 9 -21 24.5t-8 33.5q0 30 21 50.5t51 20.5q15 0 25.5 -4.5t18.5 -9.5q40 -29 84 -46t95 -17q48 0 74.5 17.5t26.5 48.5v2q0 15 -5.5 26.5t-21 22t-43 20t-71.5 20.5q-53 13 -96 28.5t-73 39.5t-46.5 59t-16.5 87v2q0 48 18 86.5
t50.5 66.5t77.5 43t99 15q64 0 119 -16t103 -46q13 -8 23.5 -23t10.5 -38q0 -30 -21 -50.5t-51 -20.5q-19 0 -39 11q-77 47 -147 47q-45 0 -67.5 -17.5t-22.5 -43.5v-2q0 -18 6.5 -30t23.5 -21.5t46.5 -19t74.5 -21.5q53 -14 94.5 -31.5t70 -42t43 -57.5t14.5 -79v-2
q0 -52 -19 -92.5t-53 -68t-81 -42t-104 -14.5z" />
    <glyph glyph-name="T" unicode="T" horiz-adv-x="648" 
d="M247 558h-148q-29 0 -50 21t-21 50t21 50t50 21h450q29 0 50 -21t21 -50t-21 -50t-50 -21h-148v-487q0 -32 -22.5 -54.5t-54.5 -22.5t-54.5 22.5t-22.5 54.5v487z" />
    <glyph glyph-name="U" unicode="U" horiz-adv-x="756" 
d="M376 -11q-141 0 -222 78t-81 233v329q0 32 22.5 54.5t54.5 22.5t54.5 -22.5t22.5 -54.5v-325q0 -87 39.5 -130t111.5 -43t111.5 41.5t39.5 126.5v330q0 32 22.5 54.5t54.5 22.5t54.5 -22.5t22.5 -54.5v-324q0 -80 -21.5 -139t-61.5 -98.5t-97 -59t-127 -19.5z" />
    <glyph glyph-name="V" unicode="V" horiz-adv-x="726" 
d="M358 -11q-62 0 -87 61l-227 543q-4 9 -6.5 18t-2.5 19q0 32 22.5 54t54.5 22q30 0 49.5 -15.5t28.5 -38.5l175 -453l177 458q8 19 27 34t47 15q32 0 54 -21t22 -53q0 -9 -2.5 -18t-5.5 -16l-229 -548q-25 -61 -87 -61h-10z" />
    <glyph glyph-name="W" unicode="W" horiz-adv-x="1098" 
d="M40 602q-2 7 -4 14.5t-2 14.5q0 32 23.5 53.5t55.5 21.5q27 0 47 -15.5t28 -39.5l139 -429l140 425q9 27 29 44t49 17h12q29 0 49 -16.5t29 -44.5l140 -425l139 429q8 23 26.5 39t47.5 16q32 0 54 -21t22 -53q0 -7 -2 -15t-4 -15l-196 -550q-11 -29 -31.5 -46t-48.5 -17
h-16q-28 0 -48 16.5t-31 46.5l-138 401l-138 -401q-11 -30 -31 -46.5t-48 -16.5h-16q-28 0 -48.5 17t-31.5 46z" />
    <glyph glyph-name="X" unicode="X" horiz-adv-x="710" 
d="M46 65q0 17 6 31t17 28l189 232l-178 217q-9 11 -16 25.5t-7 31.5q0 32 21.5 54t54.5 22q25 0 41 -9.5t30 -28.5l153 -204l152 200q16 20 32.5 31t42.5 11t48 -19t22 -52q0 -17 -6 -31t-17 -28l-178 -218l188 -231q9 -11 16 -25.5t7 -31.5q0 -32 -21.5 -54t-54.5 -22
q-25 0 -41 9.5t-30 28.5l-164 215l-162 -211q-16 -20 -32.5 -31t-42.5 -11t-48 19t-22 52z" />
    <glyph glyph-name="Y" unicode="Y" horiz-adv-x="688" 
d="M267 270l-226 307q-8 11 -13.5 24.5t-5.5 30.5q0 31 22.5 52.5t54.5 21.5q26 0 44 -13t32 -34l170 -245l173 247q14 21 32 33.5t42 12.5q35 0 55 -21.5t20 -53.5q0 -16 -6 -29.5t-14 -24.5l-226 -305v-202q0 -32 -22.5 -54.5t-54.5 -22.5t-54.5 22.5t-22.5 54.5v199z" />
    <glyph glyph-name="Z" unicode="Z" horiz-adv-x="708" 
d="M125 0q-28 0 -48 20t-20 48v3q0 40 28 72l363 422h-311q-28 0 -48 19.5t-20 47.5t20 48t48 20h447q28 0 48 -20t20 -48v-3q0 -38 -28 -72l-363 -422h323q28 0 48 -20t20 -48t-20 -47.5t-48 -19.5h-459z" />
    <glyph glyph-name="bracketleft" unicode="[" horiz-adv-x="465" 
d="M83 626q0 31 21.5 52.5t52.5 21.5h195q25 0 42.5 -17.5t17.5 -42.5t-17.5 -42t-42.5 -17h-123v-592h123q25 0 42.5 -17t17.5 -42t-17.5 -42.5t-42.5 -17.5h-195q-31 0 -52.5 21.5t-21.5 52.5v682z" />
    <glyph glyph-name="backslash" unicode="\" horiz-adv-x="530" 
d="M527 -77q0 -23 -17.5 -40t-41.5 -17q-36 0 -53 35l-391 817q-2 5 -4.5 13t-2.5 16q0 23 17.5 40t41.5 17q36 0 53 -35l391 -817q2 -5 4.5 -13t2.5 -16z" />
    <glyph glyph-name="bracketright" unicode="]" horiz-adv-x="465" 
d="M382 -56q0 -31 -21.5 -52.5t-52.5 -21.5h-195q-25 0 -42.5 17.5t-17.5 42.5t17.5 42t42.5 17h123v592h-123q-25 0 -42.5 17t-17.5 42t17.5 42.5t42.5 17.5h195q31 0 52.5 -21.5t21.5 -52.5v-682z" />
    <glyph glyph-name="asciicircum" unicode="^" horiz-adv-x="500" 
d="M198 544q-26 -34 -44.5 -45t-43.5 -11q-14 0 -24 6.5t-10 17.5q0 16 14 36l79 111q15 21 32.5 32t43.5 11h9q26 0 43.5 -11t32.5 -32l79 -111q14 -20 14 -36q0 -11 -10 -17.5t-24 -6.5q-27 0 -45 11t-44 45l-51 66z" />
    <glyph glyph-name="underscore" unicode="_" horiz-adv-x="600" 
d="M-2 -160q-24 0 -41 17t-17 41t17 41t41 17h604q24 0 41 -17t17 -41t-17 -41t-41 -17h-604z" />
    <glyph glyph-name="grave" unicode="`" horiz-adv-x="500" 
d="M296 589q-26 0 -45.5 6.5t-41.5 26.5l-62 58q-9 8 -14.5 16.5t-5.5 19.5q0 9 8 17t20.5 14.5t27.5 10.5t29 4q19 0 33 -9t24 -25l55 -86q4 -6 7 -13t3 -14q0 -12 -10.5 -19t-27.5 -7z" />
    <glyph glyph-name="a" unicode="a" horiz-adv-x="592" 
d="M220 -10q-38 0 -71.5 10.5t-58.5 31.5t-39.5 51.5t-14.5 70.5v2q0 43 16 75.5t44.5 53.5t68 31.5t87.5 10.5q42 0 72 -6t59 -16v9q0 98 -115 98q-32 0 -57.5 -4t-47.5 -11q-11 -4 -22 -4q-26 0 -44.5 18t-18.5 44q0 20 11.5 36t29.5 23q36 14 76.5 21t94.5 7
q63 0 107.5 -15.5t73.5 -44.5q30 -30 44 -73.5t14 -97.5v-244q0 -31 -21.5 -52t-52.5 -21q-33 0 -53 19.5t-20 43.5v1q-28 -31 -66.5 -49.5t-95.5 -18.5zM266 95q54 0 86.5 26t32.5 68v27q-20 9 -44.5 14.5t-52.5 5.5q-49 0 -77 -19t-28 -55v-2q0 -31 23 -48t60 -17z" />
    <glyph glyph-name="b" unicode="b" 
d="M68 660q0 32 22 54t54 22t54 -22t22 -54v-201q28 38 67.5 62.5t99.5 24.5q47 0 91 -18t78 -53.5t54.5 -87t20.5 -118.5v-2q0 -67 -20.5 -118.5t-54 -87t-77.5 -53.5t-92 -18q-61 0 -100.5 24t-66.5 56v-1q0 -31 -22 -53t-54 -22t-54 22t-22 54v590zM348 119
q27 0 50.5 10.5t41.5 30t28.5 46.5t10.5 61v2q0 33 -10.5 60.5t-28.5 47t-41.5 30t-50.5 10.5t-50.5 -10.5t-41 -30t-28 -47t-10.5 -60.5v-2q0 -33 10.5 -60.5t28 -47t41 -30t50.5 -10.5z" />
    <glyph glyph-name="c" unicode="c" horiz-adv-x="571" 
d="M321 -12q-60 0 -111.5 22t-88.5 59.5t-58 88t-21 107.5v2q0 57 21 108t58 89t88.5 60t113.5 22q61 0 105 -15.5t78 -44.5q8 -6 16 -19t8 -33q0 -29 -20 -48.5t-49 -19.5q-15 0 -26 5t-18 10q-20 16 -42.5 25t-52.5 9q-29 0 -52.5 -11.5t-41 -31.5t-27 -46.5t-9.5 -56.5
v-2q0 -31 9.5 -58t27.5 -47t43 -31.5t56 -11.5q30 0 54 10t46 27q6 5 16.5 9.5t24.5 4.5q27 0 45.5 -19t18.5 -46q0 -15 -6 -27t-16 -21q-34 -31 -79 -50t-111 -19z" />
    <glyph glyph-name="d" unicode="d" 
d="M607 70q0 -32 -22 -54t-54 -22t-54 22t-22 54v7q-28 -38 -67.5 -62.5t-99.5 -24.5q-47 0 -91 18t-78 53.5t-54.5 87t-20.5 118.5v2q0 67 20.5 118.5t54 87t77.5 53.5t92 18q61 0 100.5 -24t66.5 -56v194q0 32 22 54t54 22t54 -22t22 -54v-590zM327 417q-27 0 -50.5 -10.5
t-41.5 -30t-28.5 -46.5t-10.5 -61v-2q0 -33 10.5 -60.5t28.5 -47t41.5 -30t50.5 -10.5t50.5 10.5t41 30t28 47t10.5 60.5v2q0 33 -10.5 60.5t-28 47t-41 30t-50.5 10.5z" />
    <glyph glyph-name="e" unicode="e" horiz-adv-x="613" 
d="M420 310q-7 51 -36 82.5t-77 31.5t-77.5 -31t-38.5 -83h229zM508 53q-35 -30 -80.5 -47.5t-105.5 -17.5t-111.5 20t-89 57t-58.5 87.5t-21 112.5v2q0 57 19.5 108t54.5 89t83.5 60t107.5 22q67 0 116 -24.5t80.5 -62.5t46.5 -83.5t15 -87.5q0 -33 -20.5 -53t-50.5 -20
h-301q11 -52 45.5 -78.5t85.5 -26.5q32 0 58.5 9.5t49.5 26.5q8 6 16.5 9t20.5 3q26 0 42.5 -17t16.5 -43q0 -15 -6 -26t-14 -19z" />
    <glyph glyph-name="f" unicode="f" horiz-adv-x="382" 
d="M94 406h-6q-26 0 -44.5 18t-18.5 44t18.5 44.5t44.5 18.5h6v34q0 87 43 130q42 42 123 42q18 0 33.5 -1t28.5 -3q20 -3 36 -19t16 -42t-18 -44.5t-44 -18.5h-13q-55 0 -55 -58v-21h66q26 0 44.5 -18t18.5 -44t-18.5 -44t-44.5 -18h-64v-336q0 -32 -22 -54t-54 -22t-54 22
t-22 54v336z" />
    <glyph glyph-name="g" unicode="g" 
d="M308 -162q-54 0 -101 9t-95 28q-20 8 -31.5 23t-11.5 36q0 26 18 44t44 18q12 0 25 -5q33 -15 69 -23.5t79 -8.5q78 0 115.5 37t37.5 109v26q-34 -42 -74 -64.5t-101 -22.5q-47 0 -90 16.5t-76 48.5t-52.5 78.5t-19.5 106.5v2q0 60 20 106.5t53 78.5t76 48.5t89 16.5
q62 0 102 -23t71 -57v1q0 31 22 53t54 22t54 -22t22 -54v-345q0 -143 -68 -211q-38 -38 -95.5 -55t-135.5 -17zM326 170q28 0 52 9t41.5 25.5t27.5 39.5t10 50v2q0 27 -10 50t-27.5 39.5t-41.5 25.5t-52 9t-51.5 -9t-41 -25.5t-27.5 -39.5t-10 -50v-2q0 -57 36.5 -90.5
t93.5 -33.5z" />
    <glyph glyph-name="h" unicode="h" horiz-adv-x="623" 
d="M68 660q0 32 22 54t54 22t54 -22t22 -54v-200q26 34 63 60t94 26q88 0 135 -52.5t47 -146.5v-277q0 -32 -22 -54t-54 -22t-54 22t-22 54v229q0 54 -23.5 81.5t-68.5 27.5t-70 -27.5t-25 -81.5v-229q0 -32 -22 -54t-54 -22t-54 22t-22 54v590z" />
    <glyph glyph-name="i" unicode="i" horiz-adv-x="302" 
d="M66 671q0 32 24.5 51.5t59.5 19.5q38 0 62.5 -19.5t24.5 -51.5v-2q0 -33 -24.5 -52.5t-62.5 -19.5q-35 0 -59.5 19.5t-24.5 52.5v2zM75 466q0 32 22 54t54 22t54 -22t22 -54v-396q0 -32 -22 -54t-54 -22t-54 22t-22 54v396z" />
    <glyph glyph-name="j" unicode="j" horiz-adv-x="302" 
d="M66 664q0 33 24.5 52t60.5 19t60.5 -19t24.5 -52v-2q0 -33 -24.5 -52.5t-60.5 -19.5t-60.5 19.5t-24.5 52.5v2zM63 -163q-37 0 -61 15t-24 47q0 28 17.5 44.5t41.5 16.5h1q17 0 27 11.5t10 38.5v456q0 32 22 54t54 22t54 -22t22 -54v-457q0 -90 -43.5 -131t-118.5 -41h-2
z" />
    <glyph glyph-name="k" unicode="k" horiz-adv-x="588" 
d="M68 660q0 32 22 54t54 22t54 -22t22 -54v-332l190 180q17 16 32 25t35 9q31 0 49 -21t18 -47q0 -20 -9.5 -35.5t-25.5 -30.5l-120 -103l143 -193q19 -25 19 -49q0 -31 -21 -50t-50 -19q-23 0 -37.5 8t-28.5 27l-133 183l-61 -55v-87q0 -32 -22 -54t-54 -22t-54 22t-22 54
v590z" />
    <glyph glyph-name="l" unicode="l" horiz-adv-x="302" 
d="M75 660q0 32 22 54t54 22t54 -22t22 -54v-590q0 -32 -22 -54t-54 -22t-54 22t-22 54v590z" />
    <glyph glyph-name="m" unicode="m" horiz-adv-x="950" 
d="M68 466q0 32 22 54t54 22t54 -22t22 -54v-6q13 17 28.5 32.5t34.5 27.5t42.5 19t52.5 7q108 0 151 -85q35 42 78 63.5t98 21.5q85 0 133 -50t48 -147v-279q0 -32 -22 -54t-54 -22t-54 22t-22 54v229q0 54 -23 81.5t-66 27.5t-67.5 -27.5t-24.5 -81.5v-229q0 -32 -22 -54
t-54 -22t-54 22t-22 54v229q0 54 -23 81.5t-66 27.5t-67.5 -27.5t-24.5 -81.5v-229q0 -32 -22 -54t-54 -22t-54 22t-22 54v396z" />
    <glyph glyph-name="n" unicode="n" horiz-adv-x="623" 
d="M68 466q0 32 22 54t54 22t54 -22t22 -54v-6q26 34 63 60t94 26q88 0 135 -52.5t47 -146.5v-277q0 -32 -22 -54t-54 -22t-54 22t-22 54v229q0 54 -23.5 81.5t-68.5 27.5t-70 -27.5t-25 -81.5v-229q0 -32 -22 -54t-54 -22t-54 22t-22 54v396z" />
    <glyph glyph-name="o" unicode="o" horiz-adv-x="664" 
d="M331 -12q-62 0 -115 21.5t-91.5 59t-60.5 88t-22 108.5v2q0 58 22 108.5t61 88.5t92 60t116 22q62 0 115 -21.5t91.5 -59t60.5 -88t22 -108.5v-2q0 -58 -22 -108.5t-61 -88.5t-92 -60t-116 -22zM333 119q33 0 58.5 11.5t43.5 31.5t27.5 46.5t9.5 56.5v2q0 30 -10 56.5
t-29 47t-45 32.5t-57 12q-33 0 -58.5 -11.5t-43.5 -31.5t-27.5 -46.5t-9.5 -56.5v-2q0 -30 10 -56.5t29 -47t44.5 -32.5t57.5 -12z" />
    <glyph glyph-name="p" unicode="p" 
d="M68 466q0 32 22 54t54 22t54 -22t22 -54v-7q28 38 67.5 62.5t99.5 24.5q47 0 91 -18t78 -53.5t54.5 -87t20.5 -118.5v-2q0 -67 -20.5 -118.5t-54 -87t-77.5 -53.5t-92 -18q-61 0 -100.5 24t-66.5 56v-160q0 -32 -22 -54t-54 -22t-54 22t-22 54v556zM348 119
q27 0 50.5 10.5t41.5 30t28.5 46.5t10.5 61v2q0 33 -10.5 60.5t-28.5 47t-41.5 30t-50.5 10.5t-50.5 -10.5t-41 -30t-28 -47t-10.5 -60.5v-2q0 -33 10.5 -60.5t28 -47t41 -30t50.5 -10.5z" />
    <glyph glyph-name="q" unicode="q" 
d="M607 -90q0 -32 -22 -54t-54 -22t-54 22t-22 54v167q-28 -38 -67.5 -62.5t-99.5 -24.5q-47 0 -91 18t-78 53.5t-54.5 87t-20.5 118.5v2q0 67 20.5 118.5t54 87t77.5 53.5t92 18q61 0 100.5 -24t66.5 -56v1q0 31 22 53t54 22t54 -22t22 -54v-556zM327 417
q-27 0 -50.5 -10.5t-41.5 -30t-28.5 -46.5t-10.5 -61v-2q0 -33 10.5 -60.5t28.5 -47t41.5 -30t50.5 -10.5t50.5 10.5t41 30t28 47t10.5 60.5v2q0 33 -10.5 60.5t-28 47t-41 30t-50.5 10.5z" />
    <glyph glyph-name="r" unicode="r" horiz-adv-x="418" 
d="M68 466q0 32 22 54t54 22t54 -22t22 -54v-24q17 39 43 69.5t60 30.5q35 0 54.5 -21t19.5 -53q0 -30 -17 -48t-40 -23q-58 -14 -89 -59t-31 -126v-142q0 -32 -22 -54t-54 -22t-54 22t-22 54v396z" />
    <glyph glyph-name="s" unicode="s" horiz-adv-x="502" 
d="M256 -10q-51 0 -102 14.5t-100 46.5q-12 8 -20.5 21t-8.5 31q0 26 17 43t43 17q16 0 30 -8q38 -24 75.5 -36t69.5 -12q33 0 48.5 11t15.5 29v2q0 12 -9 20.5t-24.5 15.5t-35.5 13t-42 13q-28 8 -56.5 19.5t-51.5 30t-37.5 45.5t-14.5 66v2q0 41 15.5 72.5t42 53.5t62 33
t76.5 11q42 0 84.5 -10.5t81.5 -30.5q36 -17 36 -57q0 -26 -17.5 -43t-43.5 -17q-15 0 -28 7q-32 16 -62 25t-54 9q-28 0 -42 -10.5t-14 -26.5v-2q0 -11 9 -19.5t24 -16t34.5 -14.5t41.5 -14q28 -9 57 -21t52 -30.5t38 -44.5t15 -63v-2q0 -45 -15.5 -77.5t-43.5 -53.5
t-65.5 -31.5t-80.5 -10.5z" />
    <glyph glyph-name="t" unicode="t" horiz-adv-x="415" 
d="M249 -9q-35 0 -63.5 7.5t-49 26.5t-32 49.5t-11.5 77.5v254h-5q-27 0 -46 19t-19 46t19 46t46 19h5v67q0 32 22 54t54 22t54 -22t22 -54v-67h67q27 0 46 -19t19 -46t-19 -46t-46 -19h-67v-229q0 -52 49 -52q4 0 10 0.5t8 0.5q26 0 44.5 -18.5t18.5 -44.5
q0 -20 -11.5 -35.5t-27.5 -21.5q-21 -8 -41.5 -11.5t-45.5 -3.5z" />
    <glyph glyph-name="u" unicode="u" horiz-adv-x="623" 
d="M555 70q0 -32 -22 -54t-54 -22t-54 22t-22 54v6q-26 -34 -63 -60t-94 -26q-88 0 -135 52.5t-47 146.5v277q0 32 22 54t54 22t54 -22t22 -54v-229q0 -54 23.5 -81.5t68.5 -27.5t70 27.5t25 81.5v229q0 32 22 54t54 22t54 -22t22 -54v-396z" />
    <glyph glyph-name="v" unicode="v" horiz-adv-x="588" 
d="M384 55q-13 -29 -34 -47.5t-52 -18.5h-8q-31 0 -52 18t-34 48l-164 379q-3 8 -5.5 17t-2.5 20q0 27 21.5 49t52.5 22t48.5 -15.5t25.5 -38.5l115 -311l117 313q8 20 24.5 36t46.5 16t51.5 -20.5t21.5 -51.5q0 -10 -3 -20.5t-5 -15.5z" />
    <glyph glyph-name="w" unicode="w" horiz-adv-x="849" 
d="M251 -10q-28 0 -50 16.5t-34 51.5l-131 378q-2 7 -4.5 17t-2.5 20q0 26 19.5 47.5t53.5 21.5q29 0 47.5 -16.5t26.5 -42.5l82 -272l84 271q8 27 28.5 44t49.5 17h9q29 0 49.5 -17t28.5 -44l85 -272l84 274q8 24 25.5 41t47.5 17q32 0 51.5 -20.5t19.5 -49.5q0 -19 -5 -31
l-135 -383q-12 -35 -34 -51.5t-50 -16.5h-5q-28 0 -49.5 16t-32.5 49l-85 270l-86 -270q-11 -33 -32.5 -49t-49.5 -16h-5z" />
    <glyph glyph-name="x" unicode="x" horiz-adv-x="574" 
d="M40 58q0 16 5.5 28.5t15.5 23.5l137 162l-125 144q-25 28 -25 58q0 32 20.5 51t49.5 19q23 0 39.5 -10t31.5 -29l99 -132l101 132q14 17 30 28t36 11q30 0 50.5 -18.5t20.5 -47.5q0 -16 -6 -28.5t-15 -23.5l-130 -152l134 -154q25 -28 25 -58q0 -32 -20.5 -51t-49.5 -19
q-23 0 -39.5 10t-31.5 29l-108 142l-108 -142q-14 -17 -30 -28t-36 -11q-30 0 -50.5 18.5t-20.5 47.5z" />
    <glyph glyph-name="y" unicode="y" horiz-adv-x="586" 
d="M179 -163q-26 0 -45 3.5t-38 10.5q-17 6 -32.5 20.5t-15.5 42.5t18.5 45t41.5 17q16 0 25 -4q10 -3 17 -4.5t15 -1.5q20 0 31.5 6t22.5 26l5 12l-183 424q-3 8 -5.5 17.5t-2.5 17.5q0 32 21.5 52.5t53.5 20.5q29 0 46 -15t27 -42l116 -312l112 311q9 24 26.5 41t46.5 17
t50.5 -20t21.5 -50q0 -9 -2.5 -20t-4.5 -16l-187 -449q-17 -41 -34.5 -69.5t-38.5 -46.5t-47.5 -26t-60.5 -8z" />
    <glyph glyph-name="z" unicode="z" horiz-adv-x="563" 
d="M118 0q-32 0 -53 17t-21 44v3q0 22 8 38t26 36l249 275h-212q-26 0 -44 17.5t-18 43.5t18 44t44 18h333q32 0 53 -17t21 -44v-3q0 -22 -8 -38t-26 -36l-250 -275h222q26 0 44 -18t18 -44t-18 -43.5t-44 -17.5h-342z" />
    <glyph glyph-name="braceleft" unicode="{" horiz-adv-x="490" 
d="M376 -133q-56 13 -93 31t-59.5 41.5t-32 52.5t-9.5 65q0 6 0.5 15t1 19t1 19.5t0.5 15.5q0 54 -20.5 76t-60.5 25q-29 2 -45.5 18t-16.5 42t16.5 42t45.5 18q40 3 60.5 25t20.5 76q0 6 -0.5 15.5t-1 19.5t-1 19t-0.5 15q0 36 9.5 65t32 52.5t59.5 41.5t93 31
q29 7 49.5 -8.5t20.5 -43.5q0 -23 -12.5 -35t-23.5 -16q-29 -10 -46 -20.5t-27 -23.5t-13 -29t-3 -36q0 -15 1.5 -36.5t1.5 -37.5q0 -55 -26.5 -86t-77.5 -48q51 -17 77.5 -48t26.5 -86q0 -16 -1.5 -37.5t-1.5 -36.5q0 -20 3 -36t13 -29t27 -23.5t46 -20.5q11 -4 23.5 -16
t12.5 -35q0 -28 -20.5 -43.5t-49.5 -8.5z" />
    <glyph glyph-name="bar" unicode="|" horiz-adv-x="350" 
d="M115 744q0 25 17.5 42.5t42.5 17.5t42.5 -17.5t17.5 -42.5v-818q0 -25 -17.5 -42.5t-42.5 -17.5t-42.5 17.5t-17.5 42.5v818z" />
    <glyph glyph-name="braceright" unicode="}" horiz-adv-x="490" 
d="M114 707q55 -13 92.5 -31t60 -41.5t32 -52.5t9.5 -65q0 -6 -0.5 -15t-1 -19t-1 -19.5t-0.5 -15.5q0 -54 20.5 -76t60.5 -25q29 -2 45.5 -18t16.5 -42t-16.5 -42t-45.5 -18q-40 -3 -60.5 -25t-20.5 -76q0 -6 0.5 -15.5t1 -19.5t1 -19t0.5 -15q0 -36 -9.5 -65t-32 -52.5
t-60 -41.5t-92.5 -31q-29 -7 -49.5 8.5t-20.5 43.5q0 23 12.5 35t23.5 16q28 10 45.5 21t27.5 23.5t13 28.5t3 36q0 15 -1.5 36.5t-1.5 37.5q0 55 26.5 86t77.5 48q-51 17 -77.5 48t-26.5 86q0 16 1.5 37.5t1.5 36.5q0 20 -3 36t-13 28.5t-27.5 23.5t-45.5 21
q-11 4 -23.5 16t-12.5 35q0 28 20.5 43.5t49.5 8.5z" />
    <glyph glyph-name="asciitilde" unicode="~" horiz-adv-x="510" 
d="M140 244q-6 -10 -15.5 -16.5t-23.5 -6.5q-18 0 -31.5 12.5t-13.5 28.5q0 5 1.5 13t3.5 14q17 45 41.5 71.5t70.5 26.5q23 0 44.5 -6t40.5 -13.5t35 -13.5t30 -6q18 0 28 7t19 22q6 10 15.5 16.5t23.5 6.5q18 0 31.5 -12.5t13.5 -28.5q0 -5 -1.5 -13t-3.5 -14
q-17 -45 -41.5 -71.5t-70.5 -26.5q-23 0 -44.5 6t-40.5 13.5t-35.5 13.5t-29.5 6q-18 0 -28 -7t-19 -22z" />
    <glyph glyph-name="uni00A0" unicode="&#xa0;" horiz-adv-x="300" 
 />
    <glyph glyph-name="exclamdown" unicode="&#xa1;" horiz-adv-x="324" 
d="M251 48q2 -22 -9 -36.5t-31 -14.5h-98q-20 0 -31 14.5t-9 36.5l43 376q2 20 14.5 32t31.5 12t31.5 -12t14.5 -32zM249 619q0 -36 -24.5 -60.5t-62.5 -24.5t-62.5 24.5t-24.5 60.5v2q0 36 24.5 60.5t62.5 24.5t62.5 -24.5t24.5 -60.5v-2z" />
    <glyph glyph-name="cent" unicode="&#xa2;" horiz-adv-x="581" 
d="M227 92q-40 14 -73 39.5t-57 59.5t-37 75.5t-13 86.5v2q0 58 21 108.5t58.5 88.5t88.5 60t112 22h6l7 36q4 18 17 30t34 12q23 0 38.5 -18t10.5 -44l-7 -32q23 -8 43.5 -20t37.5 -26q8 -7 15 -19.5t7 -30.5q0 -28 -19.5 -47.5t-47.5 -19.5q-13 0 -23.5 4.5t-17.5 9.5
q-5 4 -11.5 8t-13.5 8l-55 -277q46 6 84 36q7 5 16 9t24 4q25 0 43 -18.5t18 -44.5q0 -28 -20 -46q-34 -31 -79.5 -51t-105.5 -21l-9 -46q-4 -18 -17 -30t-34 -12q-23 0 -38.5 18t-10.5 44zM194 355q0 -42 16.5 -76t47.5 -53l54 276q-26 -2 -47.5 -14t-37.5 -31.5t-24.5 -45
t-8.5 -54.5v-2z" />
    <glyph glyph-name="sterling" unicode="&#xa3;" horiz-adv-x="644" 
d="M54 56q0 19 11 34.5t31 22.5l40 13v141h-18q-26 0 -45 18.5t-19 44.5t19 45t45 19h18v81q0 54 15.5 98t44.5 73q31 31 75 47.5t102 16.5q67 0 113 -21t79 -55q11 -11 17.5 -23.5t6.5 -31.5q0 -32 -22 -53.5t-54 -21.5q-20 0 -33.5 7.5t-21.5 15.5q-20 20 -39 30t-44 10
q-35 0 -57 -22q-12 -12 -19 -31t-7 -43v-77h170q26 0 45 -19t19 -45t-19 -44.5t-45 -18.5h-170v-134h243q28 0 47.5 -19.5t19.5 -47.5t-19.5 -47t-47.5 -19h-419q-28 0 -45 16.5t-17 39.5z" />
    <glyph glyph-name="yen" unicode="&#xa5;" horiz-adv-x="686" 
d="M417 200h136q23 0 38.5 -15.5t15.5 -38.5t-15.5 -38.5t-38.5 -15.5h-136v-24q0 -31 -21.5 -52.5t-52.5 -21.5t-52.5 21.5t-21.5 52.5v24h-136q-23 0 -38.5 15.5t-15.5 38.5t15.5 38.5t38.5 15.5h136v62h-136q-23 0 -38.5 15.5t-15.5 38.5t15.5 38.5t38.5 15.5h94
l-159 211q-19 25 -19 52q0 29 21 51t55 22q24 0 41.5 -11.5t30.5 -31.5l147 -218l148 216q11 17 28 31t43 14q30 0 52 -19t22 -53q0 -16 -5.5 -29t-13.5 -24l-161 -211h96q23 0 38.5 -15.5t15.5 -38.5t-15.5 -38.5t-38.5 -15.5h-136v-62z" />
    <glyph glyph-name="section" unicode="&#xa7;" horiz-adv-x="632" 
d="M325 -10q-66 0 -115 17.5t-91 50.5q-8 7 -14.5 18.5t-6.5 27.5q0 25 17 42t42 17q24 0 36 -12q32 -26 62.5 -38t65.5 -12q32 0 49 10t17 26v2q0 9 -5 16t-17 13t-33.5 12.5t-54.5 13.5q-118 26 -170 59.5t-52 89.5v2q0 51 26.5 77t62.5 40q-22 17 -32 41t-10 50v2
q0 72 54 113.5t151 41.5q66 0 115 -17.5t91 -50.5q8 -7 14.5 -18.5t6.5 -27.5q0 -25 -17 -42t-42 -17q-24 0 -36 12q-32 26 -62.5 38t-65.5 12q-66 0 -66 -36v-2q0 -8 4 -14.5t15.5 -13t33 -13t57.5 -14.5q59 -13 101 -27t69 -31.5t39.5 -39.5t12.5 -51v-2
q0 -50 -26.5 -76.5t-62.5 -40.5q20 -16 31 -40.5t11 -50.5v-2q0 -72 -54 -113.5t-151 -41.5zM389 289q23 0 39 11.5t16 32.5v2q0 20 -24.5 32.5t-76.5 25.5q-39 10 -61.5 14t-38.5 4q-23 0 -39 -11.5t-16 -32.5v-2q0 -20 24.5 -32.5t76.5 -25.5q39 -10 61.5 -14t38.5 -4z
" />
    <glyph glyph-name="dieresis" unicode="&#xa8;" horiz-adv-x="500" 
d="M357 737q32 0 55.5 -20.5t23.5 -52.5v-2q0 -32 -23.5 -52.5t-55.5 -20.5t-55.5 20.5t-23.5 52.5v2q0 32 23.5 52.5t55.5 20.5zM143 737q32 0 55.5 -20.5t23.5 -52.5v-2q0 -32 -23.5 -52.5t-55.5 -20.5t-55.5 20.5t-23.5 52.5v2q0 32 23.5 52.5t55.5 20.5z" />
    <glyph glyph-name="copyright" unicode="&#xa9;" horiz-adv-x="830" 
d="M414 -12q-76 0 -142 28.5t-114.5 77.5t-76.5 114.5t-28 139.5v2q0 73 28 139t77 115.5t115 78.5t143 29q76 0 142 -28.5t114.5 -77.5t76.5 -114.5t28 -139.5v-2q0 -74 -28 -139.5t-77 -115t-115.5 -78.5t-142.5 -29zM414 28q69 0 127.5 25.5t101.5 69t67.5 102.5
t24.5 125v2q0 66 -24.5 124.5t-67 102t-101 68.5t-126.5 25q-69 0 -127.5 -25.5t-101.5 -69t-67.5 -102.5t-24.5 -125v-2q0 -66 24 -124.5t67 -102t101.5 -68.5t126.5 -25zM419 156q-42 0 -78.5 15.5t-62.5 42t-41 62.5t-15 77v2q0 40 14.5 76.5t41 63.5t63.5 43t81 16
q46 0 76 -11t54 -29q8 -6 13.5 -15t5.5 -21q0 -18 -12.5 -30.5t-29.5 -12.5q-14 0 -28 11q-16 12 -36 20t-43 8q-24 0 -44 -9.5t-35 -25.5t-23 -37.5t-8 -45.5v-2q0 -24 8 -45.5t22.5 -37.5t35 -25.5t44.5 -9.5q26 0 46 8.5t39 24.5q5 4 11 7t15 3q17 0 29 -12t12 -29
q0 -10 -4 -17t-9 -12q-28 -25 -60.5 -39t-81.5 -14z" />
    <glyph glyph-name="ordfeminine" unicode="&#xaa;" horiz-adv-x="390" 
d="M153 399q-42 0 -71.5 22.5t-29.5 67.5v2q0 48 32.5 71t86.5 23q22 0 39 -3.5t33 -8.5v5q0 54 -64 54q-17 0 -28.5 -2t-22.5 -5q-9 -3 -17 -3q-14 0 -24 10t-10 24q0 25 22 32q20 8 41.5 11.5t50.5 3.5q67 0 100 -33q17 -17 24.5 -41t7.5 -53v-136q0 -17 -12 -28.5
t-29 -11.5q-16 0 -28 10t-12 26v1q-15 -17 -36.5 -27.5t-52.5 -10.5zM76 277q-14 0 -23.5 9.5t-9.5 23.5t9.5 23.5t23.5 9.5h224q14 0 23.5 -9.5t9.5 -23.5t-9.5 -23.5t-23.5 -9.5h-224zM178 457q29 0 47.5 14.5t18.5 37.5v15q-24 11 -54 11q-26 0 -41.5 -10t-15.5 -30v-2
q0 -17 12.5 -26.5t32.5 -9.5z" />
    <glyph glyph-name="guillemotleft" unicode="&#xab;" horiz-adv-x="645" 
d="M516 41q-17 0 -30.5 7.5t-21.5 18.5l-125 160q-8 10 -12.5 19.5t-4.5 21.5t4.5 21.5t12.5 19.5l121 155q10 13 25 21.5t32 8.5q26 0 43 -18.5t17 -44.5q0 -11 -5 -22t-12 -19l-97 -121l100 -125q15 -20 15 -40q0 -26 -18 -44.5t-44 -18.5zM244 41q-17 0 -30.5 7.5
t-21.5 18.5l-125 160q-8 10 -12.5 19.5t-4.5 21.5t4.5 21.5t12.5 19.5l121 155q10 13 25 21.5t32 8.5q26 0 43 -18.5t17 -44.5q0 -11 -5 -22t-12 -19l-97 -121l100 -125q15 -20 15 -40q0 -26 -18 -44.5t-44 -18.5z" />
    <glyph glyph-name="registered" unicode="&#xae;" horiz-adv-x="368" 
d="M184 360q-37 0 -68.5 14t-55 37.5t-37 55t-13.5 67.5v1q0 36 13.5 67.5t37 55.5t55.5 38t68 14q37 0 68.5 -14t55 -37.5t37 -55t13.5 -67.5v-1q0 -36 -13.5 -67.5t-37 -55.5t-55.5 -38t-68 -14zM184 379q33 0 61 12.5t48.5 33.5t32.5 49.5t12 60.5v1q0 31 -11.5 59.5
t-32.5 49.5t-49 33.5t-61 12.5t-61 -12.5t-48.5 -33.5t-32.5 -49.5t-12 -60.5v-1q0 -32 11.5 -60t32.5 -49t49 -33.5t61 -12.5zM108 604q0 11 7.5 18.5t18.5 7.5h62q35 0 56 -15.5t21 -47.5q0 -39 -34 -55l23 -27q7 -7 7 -18t-7.5 -18t-18.5 -7q-13 0 -20 10l-39 49h-24v-33
q0 -11 -7.5 -18.5t-18.5 -7.5t-18.5 7.5t-7.5 18.5v136zM193 542q28 0 28 22t-28 22h-33v-44h33z" />
    <glyph glyph-name="macron" unicode="&#xaf;" horiz-adv-x="500" 
d="M117 600q-22 0 -37.5 15t-15.5 37t15.5 37.5t37.5 15.5h266q22 0 37.5 -15.5t15.5 -37.5t-15.5 -37t-37.5 -15h-266z" />
    <glyph glyph-name="degree" unicode="&#xb0;" horiz-adv-x="480" 
d="M240 368q-35 0 -66 13.5t-55 36.5t-38 53.5t-14 64.5v2q0 34 14 64.5t38 53.5t55 36.5t66 13.5q34 0 65.5 -13.5t55.5 -36.5t38 -53.5t14 -64.5v-2q0 -34 -14 -64.5t-38 -53.5t-55.5 -36.5t-65.5 -13.5zM240 443q20 0 37 7.5t29 20t19 29.5t7 36v2q0 19 -7 36t-19 29.5
t-29 20t-37 7.5t-37 -7.5t-29 -20t-19 -29.5t-7 -36v-2q0 -19 7 -36t19 -29.5t29 -20t37 -7.5z" />
    <glyph glyph-name="plusminus" unicode="&#xb1;" horiz-adv-x="640" 
d="M253 380l-120 -1q-27 0 -46.5 19.5t-19.5 46.5t19.5 46.5t46.5 19.5l120 -1l-1 115q0 29 19.5 48.5t48.5 19.5t48.5 -19.5t19.5 -48.5l-1 -115l120 1q27 0 46.5 -19.5t19.5 -46.5t-19.5 -46.5t-46.5 -19.5l-120 1l1 -115q0 -29 -19.5 -48.5t-48.5 -19.5t-48.5 19.5
t-19.5 48.5zM130 0q-26 0 -44.5 18.5t-18.5 44.5t18.5 44.5t44.5 18.5h380q26 0 44.5 -18.5t18.5 -44.5t-18.5 -44.5t-44.5 -18.5h-380z" />
    <glyph glyph-name="acute" unicode="&#xb4;" horiz-adv-x="500" 
d="M204 589q-17 0 -27.5 7t-10.5 19q0 7 3 14t7 13l55 86q10 16 24 25t33 9q14 0 29 -4t27.5 -10.5t20.5 -14.5t8 -17q0 -11 -5.5 -19.5t-14.5 -16.5l-62 -58q-22 -20 -41.5 -26.5t-45.5 -6.5z" />
    <glyph glyph-name="paragraph" unicode="&#xb6;" horiz-adv-x="590" 
d="M352 230h-24q-63 0 -116.5 14.5t-93 44t-61.5 73t-22 101.5v2q0 55 20 98.5t56.5 74t87 46.5t112.5 16h118q32 0 54.5 -22.5t22.5 -54.5v-552q0 -32 -22.5 -54.5t-54.5 -22.5t-54.5 22.5t-22.5 54.5v159z" />
    <glyph glyph-name="periodcentered" unicode="&#xb7;" horiz-adv-x="286" 
d="M56 311q0 36 25.5 60.5t61.5 24.5t61.5 -24.5t25.5 -60.5v-2q0 -36 -25.5 -60.5t-61.5 -24.5t-61.5 24.5t-25.5 60.5v2z" />
    <glyph glyph-name="cedilla" unicode="&#xb8;" horiz-adv-x="500" 
d="M260 -135q-7 -17 -17 -24.5t-27 -7.5q-11 0 -25.5 4.5t-28 12t-23 17t-9.5 18.5q0 7 2.5 14t6.5 12l68 99h112z" />
    <glyph glyph-name="ordmasculine" unicode="&#xba;" horiz-adv-x="390" 
d="M194 398q-33 0 -61 12t-48.5 32.5t-32 48t-11.5 59.5v2q0 32 12 60t32.5 48.5t49 32.5t61.5 12t61 -12t48.5 -32.5t32 -48.5t11.5 -59v-2q0 -32 -12 -60t-32.5 -48.5t-49 -32.5t-61.5 -12zM78 277q-14 0 -23.5 9.5t-9.5 23.5t9.5 23.5t23.5 9.5h234q14 0 23.5 -9.5
t9.5 -23.5t-9.5 -23.5t-23.5 -9.5h-234zM196 470q33 0 52 24t19 56v2q0 32 -20 56.5t-53 24.5t-52 -24t-19 -56v-2q0 -32 20 -56.5t53 -24.5z" />
    <glyph glyph-name="guillemotright" unicode="&#xbb;" horiz-adv-x="645" 
d="M401 494q17 0 30.5 -7.5t21.5 -18.5l125 -160q8 -10 12.5 -19.5t4.5 -21.5t-4.5 -21.5t-12.5 -19.5l-121 -155q-10 -13 -25 -21.5t-32 -8.5q-26 0 -43 18.5t-17 44.5q0 11 5 22t12 19l97 121l-100 125q-15 19 -15 40q0 26 18 44.5t44 18.5zM129 494q17 0 30.5 -7.5
t21.5 -18.5l125 -160q8 -10 12.5 -19.5t4.5 -21.5t-4.5 -21.5t-12.5 -19.5l-121 -155q-10 -13 -25 -21.5t-32 -8.5q-26 0 -43 18.5t-17 44.5q0 11 5 22t12 19l97 121l-100 125q-15 19 -15 40q0 26 18 44.5t44 18.5z" />
    <glyph glyph-name="questiondown" unicode="&#xbf;" horiz-adv-x="544" 
d="M299 468q22 0 36.5 -14.5t17.5 -34.5l10 -68q4 -25 -9 -41t-37 -19q-66 -8 -96.5 -29t-30.5 -58v-2q0 -34 23.5 -52.5t68.5 -18.5q64 0 116 40q9 7 20.5 11.5t24.5 4.5q29 0 49.5 -20.5t20.5 -49.5q0 -14 -6 -28.5t-20 -25.5q-40 -33 -91 -52.5t-117 -19.5
q-54 0 -98.5 13.5t-76.5 40t-49.5 65t-17.5 88.5v2q0 48 15.5 82t42 58t62.5 38.5t77 22.5l3 18q3 20 17.5 34.5t36.5 14.5h8zM386 619q0 -36 -24.5 -60.5t-62.5 -24.5t-62.5 24.5t-24.5 60.5v2q0 36 24.5 60.5t62.5 24.5t62.5 -24.5t24.5 -60.5v-2z" />
    <glyph glyph-name="Agrave" unicode="&#xc0;" horiz-adv-x="766" 
d="M36 66q0 8 2.5 16.5t6.5 16.5l244 551q13 29 35.5 45t54.5 16h9q32 0 54 -16t35 -45l244 -551q8 -19 8 -31q0 -31 -21 -52.5t-52 -21.5q-27 0 -45 14.5t-29 38.5l-47 110h-308l-49 -115q-10 -23 -28.5 -35.5t-42.5 -12.5q-30 0 -50.5 21t-20.5 51zM478 293l-97 231
l-97 -231h194zM409 759q-26 0 -45.5 6.5t-41.5 26.5l-62 58q-9 8 -14.5 16.5t-5.5 19.5q0 9 8 17t20.5 14.5t27.5 10.5t29 4q19 0 33 -9t24 -25l55 -86q4 -6 7 -13t3 -14q0 -12 -10.5 -19t-27.5 -7z" />
    <glyph glyph-name="Aacute" unicode="&#xc1;" horiz-adv-x="766" 
d="M36 66q0 8 2.5 16.5t6.5 16.5l244 551q13 29 35.5 45t54.5 16h9q32 0 54 -16t35 -45l244 -551q8 -19 8 -31q0 -31 -21 -52.5t-52 -21.5q-27 0 -45 14.5t-29 38.5l-47 110h-308l-49 -115q-10 -23 -28.5 -35.5t-42.5 -12.5q-30 0 -50.5 21t-20.5 51zM478 293l-97 231
l-97 -231h194zM355 759q-17 0 -27.5 7t-10.5 19q0 7 3 14t7 13l55 86q10 16 24 25t33 9q14 0 29 -4t27.5 -10.5t20.5 -14.5t8 -17q0 -11 -5.5 -19.5t-14.5 -16.5l-62 -58q-22 -20 -41.5 -26.5t-45.5 -6.5z" />
    <glyph glyph-name="Acircumflex" unicode="&#xc2;" horiz-adv-x="766" 
d="M36 66q0 8 2.5 16.5t6.5 16.5l244 551q13 29 35.5 45t54.5 16h9q32 0 54 -16t35 -45l244 -551q8 -19 8 -31q0 -31 -21 -52.5t-52 -21.5q-27 0 -45 14.5t-29 38.5l-47 110h-308l-49 -115q-10 -23 -28.5 -35.5t-42.5 -12.5q-30 0 -50.5 21t-20.5 51zM478 293l-97 231
l-97 -231h194zM334 792q-25 -20 -45.5 -26.5t-46.5 -6.5q-14 0 -23.5 6t-9.5 18q0 7 5 14.5t10 14.5l63 81q13 16 29 25t42 9h48q26 0 42 -9t29 -25l63 -81q5 -7 10 -14.5t5 -14.5q0 -12 -10.5 -18t-24.5 -6q-26 0 -46.5 6.5t-45.5 26.5l-47 39z" />
    <glyph glyph-name="Atilde" unicode="&#xc3;" horiz-adv-x="766" 
d="M36 66q0 8 2.5 16.5t6.5 16.5l244 551q13 29 35.5 45t54.5 16h9q32 0 54 -16t35 -45l244 -551q8 -19 8 -31q0 -31 -21 -52.5t-52 -21.5q-27 0 -45 14.5t-29 38.5l-47 110h-308l-49 -115q-10 -23 -28.5 -35.5t-42.5 -12.5q-30 0 -50.5 21t-20.5 51zM478 293l-97 231
l-97 -231h194zM310 791q-8 -10 -15.5 -17.5t-27.5 -6.5q-17 2 -28.5 15.5t-10.5 33.5q2 6 2 10q20 49 43 68t57 18q16 -1 35.5 -8.5t33.5 -14.5q4 -2 9.5 -5t9.5 -5q2 -1 3.5 -1t3.5 -1l14 -4q5 1 9.5 4t8.5 11l2 6q8 9 17 15.5t27 5.5q20 -3 30.5 -15.5t10.5 -30.5
q0 -3 -2 -11t-4 -12v-2q-17 -45 -40.5 -61t-61.5 -14q-17 1 -36 9t-36 17q-2 1 -3.5 1t-3.5 1l-4 2q-6 0 -7 3l-1 1q-12 5 -16 5q-6 0 -9.5 -2t-6.5 -10z" />
    <glyph glyph-name="Adieresis" unicode="&#xc4;" horiz-adv-x="766" 
d="M36 66q0 8 2.5 16.5t6.5 16.5l244 551q13 29 35.5 45t54.5 16h9q32 0 54 -16t35 -45l244 -551q8 -19 8 -31q0 -31 -21 -52.5t-52 -21.5q-27 0 -45 14.5t-29 38.5l-47 110h-308l-49 -115q-10 -23 -28.5 -35.5t-42.5 -12.5q-30 0 -50.5 21t-20.5 51zM478 293l-97 231
l-97 -231h194zM489 907q32 0 55.5 -20.5t23.5 -52.5v-2q0 -32 -23.5 -52.5t-55.5 -20.5t-55.5 20.5t-23.5 52.5v2q0 32 23.5 52.5t55.5 20.5zM275 907q32 0 55.5 -20.5t23.5 -52.5v-2q0 -32 -23.5 -52.5t-55.5 -20.5t-55.5 20.5t-23.5 52.5v2q0 32 23.5 52.5t55.5 20.5z" />
    <glyph glyph-name="Aring" unicode="&#xc5;" horiz-adv-x="790" 
d="M733 99q8 -19 8 -31q0 -31 -21 -52.5t-52 -21.5q-27 0 -45 14.5t-29 38.5l-47 110h-308l-49 -115q-10 -23 -28.5 -35.5t-42.5 -12.5q-30 0 -50.5 21t-20.5 51q0 8 2.5 16.5t6.5 16.5l260 587q-20 17 -31.5 39.5t-11.5 48.5v2q0 24 10 45t26.5 36.5t38.5 25t46 9.5
t46 -9.5t38.5 -25t26.5 -36.5t10 -45v-2q0 -26 -11.5 -48.5t-31.5 -39.5zM395 713q26 0 44 18t18 43v2q0 25 -18 43t-44 18t-44 -18t-18 -43v-2q0 -25 18 -43t44 -18zM490 293l-97 231l-97 -231h194z" />
    <glyph glyph-name="AE" unicode="&#xc6;" horiz-adv-x="1045" 
d="M33 56q0 11 3.5 23.5t8.5 20.5l313 546q14 25 36 39.5t56 14.5h474q29 0 49 -20t20 -49t-20 -48.5t-49 -19.5h-287v-142h242q29 0 49 -20t20 -49t-20 -48.5t-49 -19.5h-242v-147h292q29 0 49 -20t20 -49t-20 -48.5t-49 -19.5h-368q-32 0 -54.5 22.5t-22.5 54.5v80h-248
l-68 -121q-24 -42 -67 -42q-29 0 -48.5 17.5t-19.5 44.5zM484 293v274h-17l-154 -274h171z" />
    <glyph glyph-name="Ccedilla" unicode="&#xc7;" horiz-adv-x="738" 
d="M661 76q-45 -38 -96.5 -60.5t-126.5 -26.5l-50 -124q-7 -17 -17 -24.5t-27 -7.5q-11 0 -25.5 4.5t-28 12t-23 17t-9.5 18.5q0 7 2.5 14t6.5 12l59 87q-60 13 -110.5 45t-86.5 78.5t-56 104t-20 122.5v2q0 75 27 140.5t75 115t115 78t148 28.5q79 0 134 -19.5t100 -51.5
q12 -9 21 -25t9 -36q0 -32 -22 -53.5t-54 -21.5q-16 0 -27 5t-19 10q-32 24 -66.5 37t-76.5 13q-44 0 -81.5 -17t-64.5 -47t-42 -69.5t-15 -84.5v-2q0 -45 15 -85t41.5 -70t64 -47.5t82.5 -17.5q49 0 84 14.5t68 40.5q20 17 46 17q29 0 50.5 -21t21.5 -50q0 -18 -7.5 -32
t-18.5 -23z" />
    <glyph glyph-name="Egrave" unicode="&#xc8;" horiz-adv-x="670" 
d="M161 0q-32 0 -54.5 22.5t-22.5 54.5v546q0 32 22.5 54.5t54.5 22.5h388q29 0 49 -20t20 -49t-20 -48.5t-49 -19.5h-312v-142h267q29 0 49 -20t20 -49t-20 -48.5t-49 -19.5h-267v-147h317q29 0 49 -20t20 -49t-20 -48.5t-49 -19.5h-393zM376 749q-26 0 -45.5 6.5
t-41.5 26.5l-62 58q-9 8 -14.5 16.5t-5.5 19.5q0 9 8 17t20.5 14.5t27.5 10.5t29 4q19 0 33 -9t24 -25l55 -86q4 -6 7 -13t3 -14q0 -12 -10.5 -19t-27.5 -7z" />
    <glyph glyph-name="Eacute" unicode="&#xc9;" horiz-adv-x="670" 
d="M161 0q-32 0 -54.5 22.5t-22.5 54.5v546q0 32 22.5 54.5t54.5 22.5h388q29 0 49 -20t20 -49t-20 -48.5t-49 -19.5h-312v-142h267q29 0 49 -20t20 -49t-20 -48.5t-49 -19.5h-267v-147h317q29 0 49 -20t20 -49t-20 -48.5t-49 -19.5h-393zM331 749q-17 0 -27.5 7t-10.5 19
q0 7 3 14t7 13l55 86q10 16 24 25t33 9q14 0 29 -4t27.5 -10.5t20.5 -14.5t8 -17q0 -11 -5.5 -19.5t-14.5 -16.5l-62 -58q-22 -20 -41.5 -26.5t-45.5 -6.5z" />
    <glyph glyph-name="Ecircumflex" unicode="&#xca;" horiz-adv-x="670" 
d="M161 0q-32 0 -54.5 22.5t-22.5 54.5v546q0 32 22.5 54.5t54.5 22.5h388q29 0 49 -20t20 -49t-20 -48.5t-49 -19.5h-312v-142h267q29 0 49 -20t20 -49t-20 -48.5t-49 -19.5h-267v-147h317q29 0 49 -20t20 -49t-20 -48.5t-49 -19.5h-393zM297 782q-25 -20 -45.5 -26.5
t-46.5 -6.5q-14 0 -23.5 6t-9.5 18q0 7 5 14.5t10 14.5l63 81q13 16 29 25t42 9h48q26 0 42 -9t29 -25l63 -81q5 -7 10 -14.5t5 -14.5q0 -12 -10.5 -18t-24.5 -6q-26 0 -46.5 6.5t-45.5 26.5l-47 39z" />
    <glyph glyph-name="Edieresis" unicode="&#xcb;" horiz-adv-x="670" 
d="M161 0q-32 0 -54.5 22.5t-22.5 54.5v546q0 32 22.5 54.5t54.5 22.5h388q29 0 49 -20t20 -49t-20 -48.5t-49 -19.5h-312v-142h267q29 0 49 -20t20 -49t-20 -48.5t-49 -19.5h-267v-147h317q29 0 49 -20t20 -49t-20 -48.5t-49 -19.5h-393zM457 897q32 0 55.5 -20.5
t23.5 -52.5v-2q0 -32 -23.5 -52.5t-55.5 -20.5t-55.5 20.5t-23.5 52.5v2q0 32 23.5 52.5t55.5 20.5zM243 897q32 0 55.5 -20.5t23.5 -52.5v-2q0 -32 -23.5 -52.5t-55.5 -20.5t-55.5 20.5t-23.5 52.5v2q0 32 23.5 52.5t55.5 20.5z" />
    <glyph glyph-name="Igrave" unicode="&#xcc;" horiz-adv-x="336" 
d="M91 629q0 32 22.5 54.5t54.5 22.5t54.5 -22.5t22.5 -54.5v-558q0 -32 -22.5 -54.5t-54.5 -22.5t-54.5 22.5t-22.5 54.5v558zM199 749q-26 0 -45.5 6.5t-41.5 26.5l-62 58q-9 8 -14.5 16.5t-5.5 19.5q0 9 8 17t20.5 14.5t27.5 10.5t29 4q19 0 33 -9t24 -25l55 -86
q4 -6 7 -13t3 -14q0 -12 -10.5 -19t-27.5 -7z" />
    <glyph glyph-name="Iacute" unicode="&#xcd;" horiz-adv-x="336" 
d="M91 629q0 32 22.5 54.5t54.5 22.5t54.5 -22.5t22.5 -54.5v-558q0 -32 -22.5 -54.5t-54.5 -22.5t-54.5 22.5t-22.5 54.5v558zM133 749q-17 0 -27.5 7t-10.5 19q0 7 3 14t7 13l55 86q10 16 24 25t33 9q14 0 29 -4t27.5 -10.5t20.5 -14.5t8 -17q0 -11 -5.5 -19.5
t-14.5 -16.5l-62 -58q-22 -20 -41.5 -26.5t-45.5 -6.5z" />
    <glyph glyph-name="Icircumflex" unicode="&#xce;" horiz-adv-x="336" 
d="M91 629q0 32 22.5 54.5t54.5 22.5t54.5 -22.5t22.5 -54.5v-558q0 -32 -22.5 -54.5t-54.5 -22.5t-54.5 22.5t-22.5 54.5v558zM120 782q-25 -20 -45.5 -26.5t-46.5 -6.5q-14 0 -23.5 6t-9.5 18q0 7 5 14.5t10 14.5l63 81q13 16 29 25t42 9h48q26 0 42 -9t29 -25l63 -81
q5 -7 10 -14.5t5 -14.5q0 -12 -10.5 -18t-24.5 -6q-26 0 -46.5 6.5t-45.5 26.5l-47 39z" />
    <glyph glyph-name="Idieresis" unicode="&#xcf;" horiz-adv-x="336" 
d="M91 629q0 32 22.5 54.5t54.5 22.5t54.5 -22.5t22.5 -54.5v-558q0 -32 -22.5 -54.5t-54.5 -22.5t-54.5 22.5t-22.5 54.5v558zM275 897q32 0 55.5 -20.5t23.5 -52.5v-2q0 -32 -23.5 -52.5t-55.5 -20.5t-55.5 20.5t-23.5 52.5v2q0 32 23.5 52.5t55.5 20.5zM61 897
q32 0 55.5 -20.5t23.5 -52.5v-2q0 -32 -23.5 -52.5t-55.5 -20.5t-55.5 20.5t-23.5 52.5v2q0 32 23.5 52.5t55.5 20.5z" />
    <glyph glyph-name="Eth" unicode="&#xd0;" horiz-adv-x="812" 
d="M114 420v203q0 32 22.5 54.5t54.5 22.5h196q82 0 150.5 -26.5t118 -73.5t76.5 -110.5t27 -137.5v-2q0 -74 -27 -138t-76.5 -111t-118 -74t-150.5 -27h-196q-32 0 -54.5 22.5t-22.5 54.5v207h-13q-29 0 -48.5 19.5t-19.5 48.5t19.5 48.5t48.5 19.5h13zM266 420h90
q29 0 48.5 -19.5t19.5 -48.5t-19.5 -48.5t-48.5 -19.5h-90v-145h121q47 0 86 15t66.5 43t43 66t15.5 85v2q0 46 -15.5 85t-43 67t-66.5 43.5t-86 15.5h-121v-141z" />
    <glyph glyph-name="Ntilde" unicode="&#xd1;" horiz-adv-x="790" 
d="M84 627q0 32 22.5 54.5t54.5 22.5h16q28 0 46 -12.5t34 -32.5l297 -390v361q0 32 22 54t54 22t54 -22t22 -54v-557q0 -32 -22.5 -54.5t-54.5 -22.5h-5q-28 0 -46 12.5t-34 32.5l-308 404v-375q0 -32 -22 -54t-54 -22t-54 22t-22 54v557zM285 765q-6 -10 -15.5 -16.5
t-23.5 -6.5q-18 0 -31.5 12.5t-13.5 28.5q0 5 1.5 13t3.5 14q17 45 41.5 71.5t70.5 26.5q23 0 44.5 -6t40.5 -13.5t35 -13.5t30 -6q18 0 28 7t19 22q6 10 15.5 16.5t23.5 6.5q18 0 31.5 -12.5t13.5 -28.5q0 -5 -1.5 -13t-3.5 -14q-17 -45 -41.5 -71.5t-70.5 -26.5
q-23 0 -44.5 6t-40.5 13.5t-35.5 13.5t-29.5 6q-18 0 -28 -7t-19 -22z" />
    <glyph glyph-name="Ograve" unicode="&#xd2;" horiz-adv-x="850" 
d="M424 -12q-81 0 -149 28.5t-117.5 77t-77 114t-27.5 140.5v2q0 75 28 140.5t77.5 115t118 78t149.5 28.5t149 -28.5t117.5 -77t77 -114t27.5 -140.5v-2q0 -75 -28 -140.5t-77.5 -115t-118 -78t-149.5 -28.5zM426 130q46 0 85 17t66.5 47t43 69.5t15.5 84.5v2
q0 45 -15.5 85t-44 70t-67.5 47.5t-85 17.5q-47 0 -85.5 -17t-66 -47t-43 -69.5t-15.5 -84.5v-2q0 -45 15.5 -85t44 -70t67 -47.5t85.5 -17.5zM469 759q-26 0 -45.5 6.5t-41.5 26.5l-62 58q-9 8 -14.5 16.5t-5.5 19.5q0 9 8 17t20.5 14.5t27.5 10.5t29 4q19 0 33 -9t24 -25
l55 -86q4 -6 7 -13t3 -14q0 -12 -10.5 -19t-27.5 -7z" />
    <glyph glyph-name="Oacute" unicode="&#xd3;" horiz-adv-x="850" 
d="M424 -12q-81 0 -149 28.5t-117.5 77t-77 114t-27.5 140.5v2q0 75 28 140.5t77.5 115t118 78t149.5 28.5t149 -28.5t117.5 -77t77 -114t27.5 -140.5v-2q0 -75 -28 -140.5t-77.5 -115t-118 -78t-149.5 -28.5zM426 130q46 0 85 17t66.5 47t43 69.5t15.5 84.5v2
q0 45 -15.5 85t-44 70t-67.5 47.5t-85 17.5q-47 0 -85.5 -17t-66 -47t-43 -69.5t-15.5 -84.5v-2q0 -45 15.5 -85t44 -70t67 -47.5t85.5 -17.5zM421 759q-17 0 -27.5 7t-10.5 19q0 7 3 14t7 13l55 86q10 16 24 25t33 9q14 0 29 -4t27.5 -10.5t20.5 -14.5t8 -17
q0 -11 -5.5 -19.5t-14.5 -16.5l-62 -58q-22 -20 -41.5 -26.5t-45.5 -6.5z" />
    <glyph glyph-name="Ocircumflex" unicode="&#xd4;" horiz-adv-x="850" 
d="M424 -12q-81 0 -149 28.5t-117.5 77t-77 114t-27.5 140.5v2q0 75 28 140.5t77.5 115t118 78t149.5 28.5t149 -28.5t117.5 -77t77 -114t27.5 -140.5v-2q0 -75 -28 -140.5t-77.5 -115t-118 -78t-149.5 -28.5zM426 130q46 0 85 17t66.5 47t43 69.5t15.5 84.5v2
q0 45 -15.5 85t-44 70t-67.5 47.5t-85 17.5q-47 0 -85.5 -17t-66 -47t-43 -69.5t-15.5 -84.5v-2q0 -45 15.5 -85t44 -70t67 -47.5t85.5 -17.5zM388 792q-25 -20 -45.5 -26.5t-46.5 -6.5q-14 0 -23.5 6t-9.5 18q0 7 5 14.5t10 14.5l63 81q13 16 29 25t42 9h48q26 0 42 -9
t29 -25l63 -81q5 -7 10 -14.5t5 -14.5q0 -12 -10.5 -18t-24.5 -6q-26 0 -46.5 6.5t-45.5 26.5l-47 39z" />
    <glyph glyph-name="Otilde" unicode="&#xd5;" horiz-adv-x="850" 
d="M424 -12q-81 0 -149 28.5t-117.5 77t-77 114t-27.5 140.5v2q0 75 28 140.5t77.5 115t118 78t149.5 28.5t149 -28.5t117.5 -77t77 -114t27.5 -140.5v-2q0 -75 -28 -140.5t-77.5 -115t-118 -78t-149.5 -28.5zM426 130q46 0 85 17t66.5 47t43 69.5t15.5 84.5v2
q0 45 -15.5 85t-44 70t-67.5 47.5t-85 17.5q-47 0 -85.5 -17t-66 -47t-43 -69.5t-15.5 -84.5v-2q0 -45 15.5 -85t44 -70t67 -47.5t85.5 -17.5zM366 791q-8 -10 -15.5 -17.5t-27.5 -6.5q-17 2 -28.5 15.5t-10.5 33.5q2 6 2 10q20 49 43 68t57 18q16 -1 35.5 -8.5t33.5 -14.5
q4 -2 9.5 -5t9.5 -5q2 -1 3.5 -1t3.5 -1l14 -4q5 1 9.5 4t8.5 11l2 6q8 9 17 15.5t27 5.5q20 -3 30.5 -15.5t10.5 -30.5q0 -3 -2 -11t-4 -12v-2q-17 -45 -40.5 -61t-61.5 -14q-17 1 -36 9t-36 17q-2 1 -3.5 1t-3.5 1l-4 2q-6 0 -7 3l-1 1q-12 5 -16 5q-6 0 -9.5 -2t-6.5 -10
z" />
    <glyph glyph-name="Odieresis" unicode="&#xd6;" horiz-adv-x="850" 
d="M424 -12q-81 0 -149 28.5t-117.5 77t-77 114t-27.5 140.5v2q0 75 28 140.5t77.5 115t118 78t149.5 28.5t149 -28.5t117.5 -77t77 -114t27.5 -140.5v-2q0 -75 -28 -140.5t-77.5 -115t-118 -78t-149.5 -28.5zM426 130q46 0 85 17t66.5 47t43 69.5t15.5 84.5v2
q0 45 -15.5 85t-44 70t-67.5 47.5t-85 17.5q-47 0 -85.5 -17t-66 -47t-43 -69.5t-15.5 -84.5v-2q0 -45 15.5 -85t44 -70t67 -47.5t85.5 -17.5zM532 907q32 0 55.5 -20.5t23.5 -52.5v-2q0 -32 -23.5 -52.5t-55.5 -20.5t-55.5 20.5t-23.5 52.5v2q0 32 23.5 52.5t55.5 20.5z
M318 907q32 0 55.5 -20.5t23.5 -52.5v-2q0 -32 -23.5 -52.5t-55.5 -20.5t-55.5 20.5t-23.5 52.5v2q0 32 23.5 52.5t55.5 20.5z" />
    <glyph glyph-name="multiply" unicode="&#xd7;" horiz-adv-x="640" 
d="M410 353l116 -112q20 -20 20 -48t-19.5 -47.5t-47.5 -19.5t-48 20l-112 116l-112 -115q-21 -21 -48 -21t-46 19t-19 46q0 14 6 26.5t16 22.5l114 111l-116 112q-20 20 -20 48t19.5 47.5t47.5 19.5t48 -20l112 -116l112 115q21 21 48 21t46 -19t19 -46q0 -14 -6 -26.5
t-16 -22.5z" />
    <glyph glyph-name="Oslash" unicode="&#xd8;" horiz-adv-x="850" 
d="M424 -12q-63 0 -116 16.5t-98 45.5l-40 -40q-8 -8 -20 -14.5t-26 -6.5q-23 0 -38 14.5t-15 33.5q0 15 7 27t15 20l38 39q-38 46 -58 103.5t-20 121.5v2q0 75 28 140.5t77.5 115t118 78t149.5 28.5q61 0 114.5 -16.5t98.5 -45.5l41 40q8 8 20 14.5t26 6.5q23 0 38 -14.5
t15 -33.5q0 -15 -7 -27t-15 -20l-38 -40q37 -46 57.5 -103t20.5 -121v-2q0 -75 -28 -140.5t-77.5 -115t-118 -78t-149.5 -28.5zM211 350q0 -64 29 -114l296 305q-24 15 -52 23.5t-60 8.5q-47 0 -86 -17.5t-67.5 -47.5t-44 -70.5t-15.5 -85.5v-2zM426 127q47 0 86 17.5
t67.5 47.5t44 70.5t15.5 85.5v2q0 61 -29 114l-297 -306q49 -31 113 -31z" />
    <glyph glyph-name="Ugrave" unicode="&#xd9;" horiz-adv-x="756" 
d="M376 -11q-141 0 -222 78t-81 233v329q0 32 22.5 54.5t54.5 22.5t54.5 -22.5t22.5 -54.5v-325q0 -87 39.5 -130t111.5 -43t111.5 41.5t39.5 126.5v330q0 32 22.5 54.5t54.5 22.5t54.5 -22.5t22.5 -54.5v-324q0 -80 -21.5 -139t-61.5 -98.5t-97 -59t-127 -19.5zM401 749
q-26 0 -45.5 6.5t-41.5 26.5l-62 58q-9 8 -14.5 16.5t-5.5 19.5q0 9 8 17t20.5 14.5t27.5 10.5t29 4q19 0 33 -9t24 -25l55 -86q4 -6 7 -13t3 -14q0 -12 -10.5 -19t-27.5 -7z" />
    <glyph glyph-name="Uacute" unicode="&#xda;" horiz-adv-x="756" 
d="M376 -11q-141 0 -222 78t-81 233v329q0 32 22.5 54.5t54.5 22.5t54.5 -22.5t22.5 -54.5v-325q0 -87 39.5 -130t111.5 -43t111.5 41.5t39.5 126.5v330q0 32 22.5 54.5t54.5 22.5t54.5 -22.5t22.5 -54.5v-324q0 -80 -21.5 -139t-61.5 -98.5t-97 -59t-127 -19.5zM374 749
q-17 0 -27.5 7t-10.5 19q0 7 3 14t7 13l55 86q10 16 24 25t33 9q14 0 29 -4t27.5 -10.5t20.5 -14.5t8 -17q0 -11 -5.5 -19.5t-14.5 -16.5l-62 -58q-22 -20 -41.5 -26.5t-45.5 -6.5z" />
    <glyph glyph-name="Ucircumflex" unicode="&#xdb;" horiz-adv-x="756" 
d="M376 -11q-141 0 -222 78t-81 233v329q0 32 22.5 54.5t54.5 22.5t54.5 -22.5t22.5 -54.5v-325q0 -87 39.5 -130t111.5 -43t111.5 41.5t39.5 126.5v330q0 32 22.5 54.5t54.5 22.5t54.5 -22.5t22.5 -54.5v-324q0 -80 -21.5 -139t-61.5 -98.5t-97 -59t-127 -19.5zM330 782
q-25 -20 -45.5 -26.5t-46.5 -6.5q-14 0 -23.5 6t-9.5 18q0 7 5 14.5t10 14.5l63 81q13 16 29 25t42 9h48q26 0 42 -9t29 -25l63 -81q5 -7 10 -14.5t5 -14.5q0 -12 -10.5 -18t-24.5 -6q-26 0 -46.5 6.5t-45.5 26.5l-47 39z" />
    <glyph glyph-name="Udieresis" unicode="&#xdc;" horiz-adv-x="756" 
d="M376 -11q-141 0 -222 78t-81 233v329q0 32 22.5 54.5t54.5 22.5t54.5 -22.5t22.5 -54.5v-325q0 -87 39.5 -130t111.5 -43t111.5 41.5t39.5 126.5v330q0 32 22.5 54.5t54.5 22.5t54.5 -22.5t22.5 -54.5v-324q0 -80 -21.5 -139t-61.5 -98.5t-97 -59t-127 -19.5zM485 897
q32 0 55.5 -20.5t23.5 -52.5v-2q0 -32 -23.5 -52.5t-55.5 -20.5t-55.5 20.5t-23.5 52.5v2q0 32 23.5 52.5t55.5 20.5zM271 897q32 0 55.5 -20.5t23.5 -52.5v-2q0 -32 -23.5 -52.5t-55.5 -20.5t-55.5 20.5t-23.5 52.5v2q0 32 23.5 52.5t55.5 20.5z" />
    <glyph glyph-name="Yacute" unicode="&#xdd;" horiz-adv-x="688" 
d="M267 270l-226 307q-8 11 -13.5 24.5t-5.5 30.5q0 31 22.5 52.5t54.5 21.5q26 0 44 -13t32 -34l170 -245l173 247q14 21 32 33.5t42 12.5q35 0 55 -21.5t20 -53.5q0 -16 -6 -29.5t-14 -24.5l-226 -305v-202q0 -32 -22.5 -54.5t-54.5 -22.5t-54.5 22.5t-22.5 54.5v199z
M333 749q-17 0 -27.5 7t-10.5 19q0 7 3 14t7 13l55 86q10 16 24 25t33 9q14 0 29 -4t27.5 -10.5t20.5 -14.5t8 -17q0 -11 -5.5 -19.5t-14.5 -16.5l-62 -58q-22 -20 -41.5 -26.5t-45.5 -6.5z" />
    <glyph glyph-name="Thorn" unicode="&#xde;" horiz-adv-x="673" 
d="M84 629q0 32 22.5 54.5t54.5 22.5t54.5 -22.5t22.5 -54.5v-31h132q63 0 112.5 -17.5t84 -49.5t53 -76.5t18.5 -98.5v-2q0 -61 -22 -107t-60.5 -77t-90 -46.5t-110.5 -15.5h-117v-37q0 -32 -22.5 -54.5t-54.5 -22.5t-54.5 22.5t-22.5 54.5v558zM360 245q58 0 90 30.5
t32 75.5v2q0 52 -33.5 79t-91.5 27h-119v-214h122z" />
    <glyph glyph-name="germandbls" unicode="&#xdf;" horiz-adv-x="620" 
d="M293 58q0 23 14.5 38.5t38.5 21.5q39 10 60 30.5t21 55.5v2q0 32 -22 52.5t-60 34.5q-20 8 -36 22.5t-16 43.5q0 22 8.5 36.5t20.5 23.5q29 22 47 47.5t18 60.5v2q0 38 -21.5 59t-58.5 21q-39 0 -63.5 -27t-24.5 -73v-440q0 -32 -22 -53.5t-54 -21.5t-53.5 21.5
t-21.5 53.5v434q0 55 17.5 98.5t49.5 73.5t77.5 46t101.5 16q54 0 95.5 -15t70 -41t43 -61.5t14.5 -76.5v-2q0 -32 -7 -56.5t-19.5 -44t-29 -34.5t-35.5 -28q25 -11 48.5 -26.5t42 -37t29.5 -49.5t11 -64v-2q0 -50 -19.5 -87.5t-50 -63t-69 -38.5t-75.5 -13q-33 0 -51.5 17
t-18.5 44z" />
    <glyph glyph-name="agrave" unicode="&#xe0;" horiz-adv-x="592" 
d="M220 -10q-38 0 -71.5 10.5t-58.5 31.5t-39.5 51.5t-14.5 70.5v2q0 43 16 75.5t44.5 53.5t68 31.5t87.5 10.5q42 0 72 -6t59 -16v9q0 98 -115 98q-32 0 -57.5 -4t-47.5 -11q-11 -4 -22 -4q-26 0 -44.5 18t-18.5 44q0 20 11.5 36t29.5 23q36 14 76.5 21t94.5 7
q63 0 107.5 -15.5t73.5 -44.5q30 -30 44 -73.5t14 -97.5v-244q0 -31 -21.5 -52t-52.5 -21q-33 0 -53 19.5t-20 43.5v1q-28 -31 -66.5 -49.5t-95.5 -18.5zM266 95q54 0 86.5 26t32.5 68v27q-20 9 -44.5 14.5t-52.5 5.5q-49 0 -77 -19t-28 -55v-2q0 -31 23 -48t60 -17z
M352 589q-26 0 -45.5 6.5t-41.5 26.5l-62 58q-9 8 -14.5 16.5t-5.5 19.5q0 9 8 17t20.5 14.5t27.5 10.5t29 4q19 0 33 -9t24 -25l55 -86q4 -6 7 -13t3 -14q0 -12 -10.5 -19t-27.5 -7z" />
    <glyph glyph-name="aacute" unicode="&#xe1;" horiz-adv-x="592" 
d="M220 -10q-38 0 -71.5 10.5t-58.5 31.5t-39.5 51.5t-14.5 70.5v2q0 43 16 75.5t44.5 53.5t68 31.5t87.5 10.5q42 0 72 -6t59 -16v9q0 98 -115 98q-32 0 -57.5 -4t-47.5 -11q-11 -4 -22 -4q-26 0 -44.5 18t-18.5 44q0 20 11.5 36t29.5 23q36 14 76.5 21t94.5 7
q63 0 107.5 -15.5t73.5 -44.5q30 -30 44 -73.5t14 -97.5v-244q0 -31 -21.5 -52t-52.5 -21q-33 0 -53 19.5t-20 43.5v1q-28 -31 -66.5 -49.5t-95.5 -18.5zM266 95q54 0 86.5 26t32.5 68v27q-20 9 -44.5 14.5t-52.5 5.5q-49 0 -77 -19t-28 -55v-2q0 -31 23 -48t60 -17z
M297 589q-17 0 -27.5 7t-10.5 19q0 7 3 14t7 13l55 86q10 16 24 25t33 9q14 0 29 -4t27.5 -10.5t20.5 -14.5t8 -17q0 -11 -5.5 -19.5t-14.5 -16.5l-62 -58q-22 -20 -41.5 -26.5t-45.5 -6.5z" />
    <glyph glyph-name="acircumflex" unicode="&#xe2;" horiz-adv-x="592" 
d="M220 -10q-38 0 -71.5 10.5t-58.5 31.5t-39.5 51.5t-14.5 70.5v2q0 43 16 75.5t44.5 53.5t68 31.5t87.5 10.5q42 0 72 -6t59 -16v9q0 98 -115 98q-32 0 -57.5 -4t-47.5 -11q-11 -4 -22 -4q-26 0 -44.5 18t-18.5 44q0 20 11.5 36t29.5 23q36 14 76.5 21t94.5 7
q63 0 107.5 -15.5t73.5 -44.5q30 -30 44 -73.5t14 -97.5v-244q0 -31 -21.5 -52t-52.5 -21q-33 0 -53 19.5t-20 43.5v1q-28 -31 -66.5 -49.5t-95.5 -18.5zM260 622q-25 -20 -45.5 -26.5t-46.5 -6.5q-14 0 -23.5 6t-9.5 18q0 7 5 14.5t10 14.5l63 81q13 16 29 25t42 9h48
q26 0 42 -9t29 -25l63 -81q5 -7 10 -14.5t5 -14.5q0 -12 -10.5 -18t-24.5 -6q-26 0 -46.5 6.5t-45.5 26.5l-47 39zM266 95q54 0 86.5 26t32.5 68v27q-20 9 -44.5 14.5t-52.5 5.5q-49 0 -77 -19t-28 -55v-2q0 -31 23 -48t60 -17z" />
    <glyph glyph-name="atilde" unicode="&#xe3;" horiz-adv-x="592" 
d="M220 -10q-38 0 -71.5 10.5t-58.5 31.5t-39.5 51.5t-14.5 70.5v2q0 43 16 75.5t44.5 53.5t68 31.5t87.5 10.5q42 0 72 -6t59 -16v9q0 98 -115 98q-32 0 -57.5 -4t-47.5 -11q-11 -4 -22 -4q-26 0 -44.5 18t-18.5 44q0 20 11.5 36t29.5 23q36 14 76.5 21t94.5 7
q63 0 107.5 -15.5t73.5 -44.5q30 -30 44 -73.5t14 -97.5v-244q0 -31 -21.5 -52t-52.5 -21q-33 0 -53 19.5t-20 43.5v1q-28 -31 -66.5 -49.5t-95.5 -18.5zM266 95q54 0 86.5 26t32.5 68v27q-20 9 -44.5 14.5t-52.5 5.5q-49 0 -77 -19t-28 -55v-2q0 -31 23 -48t60 -17z
M237 624q-8 -10 -15.5 -17.5t-27.5 -6.5q-17 2 -28.5 15.5t-10.5 33.5q2 6 2 10q20 49 43 68t57 18q16 -1 35.5 -8.5t33.5 -14.5q4 -2 9.5 -5t9.5 -5q2 -1 3.5 -1t3.5 -1l14 -4q5 1 9.5 4t8.5 11l2 6q8 9 17 15.5t27 5.5q20 -3 30.5 -15.5t10.5 -30.5q0 -3 -2 -11t-4 -12v-2
q-17 -45 -40.5 -61t-61.5 -14q-17 1 -36 9t-36 17q-2 1 -3.5 1t-3.5 1l-4 2q-6 0 -7 3l-1 1q-12 5 -16 5q-6 0 -9.5 -2t-6.5 -10z" />
    <glyph glyph-name="adieresis" unicode="&#xe4;" horiz-adv-x="592" 
d="M220 -10q-38 0 -71.5 10.5t-58.5 31.5t-39.5 51.5t-14.5 70.5v2q0 43 16 75.5t44.5 53.5t68 31.5t87.5 10.5q42 0 72 -6t59 -16v9q0 98 -115 98q-32 0 -57.5 -4t-47.5 -11q-11 -4 -22 -4q-26 0 -44.5 18t-18.5 44q0 20 11.5 36t29.5 23q36 14 76.5 21t94.5 7
q63 0 107.5 -15.5t73.5 -44.5q30 -30 44 -73.5t14 -97.5v-244q0 -31 -21.5 -52t-52.5 -21q-33 0 -53 19.5t-20 43.5v1q-28 -31 -66.5 -49.5t-95.5 -18.5zM266 95q54 0 86.5 26t32.5 68v27q-20 9 -44.5 14.5t-52.5 5.5q-49 0 -77 -19t-28 -55v-2q0 -31 23 -48t60 -17z
M405 737q32 0 55.5 -20.5t23.5 -52.5v-2q0 -32 -23.5 -52.5t-55.5 -20.5t-55.5 20.5t-23.5 52.5v2q0 32 23.5 52.5t55.5 20.5zM191 737q32 0 55.5 -20.5t23.5 -52.5v-2q0 -32 -23.5 -52.5t-55.5 -20.5t-55.5 20.5t-23.5 52.5v2q0 32 23.5 52.5t55.5 20.5z" />
    <glyph glyph-name="aring" unicode="&#xe5;" horiz-adv-x="592" 
d="M220 -10q-38 0 -71.5 10.5t-58.5 31.5t-39.5 51.5t-14.5 70.5v2q0 43 16 75.5t44.5 53.5t68 31.5t87.5 10.5q42 0 72 -6t59 -16v9q0 98 -115 98q-32 0 -57.5 -4t-47.5 -11q-11 -4 -22 -4q-26 0 -44.5 18t-18.5 44q0 20 11.5 36t29.5 23q36 14 76.5 21t94.5 7
q63 0 107.5 -15.5t73.5 -44.5q30 -30 44 -73.5t14 -97.5v-244q0 -31 -21.5 -52t-52.5 -21q-33 0 -53 19.5t-20 43.5v1q-28 -31 -66.5 -49.5t-95.5 -18.5zM298 593q-24 0 -46 9.5t-38.5 25t-26.5 36.5t-10 45v2q0 24 10 45t26.5 36.5t38.5 25t46 9.5t46 -9.5t38.5 -25
t26.5 -36.5t10 -45v-2q0 -24 -10 -45t-26.5 -36.5t-38.5 -25t-46 -9.5zM266 95q54 0 86.5 26t32.5 68v27q-20 9 -44.5 14.5t-52.5 5.5q-49 0 -77 -19t-28 -55v-2q0 -31 23 -48t60 -17zM298 648q26 0 44 18t18 43v2q0 25 -18 43t-44 18t-44 -18t-18 -43v-2q0 -25 18 -43
t44 -18z" />
    <glyph glyph-name="ae" unicode="&#xe6;" horiz-adv-x="951" 
d="M758 310q-7 51 -36 82.5t-77 31.5t-77.5 -31t-38.5 -83h229zM266 97q34 0 68.5 12.5t68.5 38.5q-7 16 -12 33t-7 36q-20 8 -44.5 13.5t-51.5 5.5q-49 0 -77 -19t-28 -55v-2q0 -29 24 -46t59 -17zM846 53q-35 -30 -80.5 -47.5t-105.5 -17.5q-63 0 -114.5 21.5t-89.5 59.5
q-46 -34 -100 -56.5t-118 -22.5q-44 0 -81 11t-64 32t-42 51.5t-15 69.5v2q0 43 16 75.5t44.5 53.5t68 31.5t87.5 10.5q42 0 72 -6t59 -16v9q0 98 -115 98q-32 0 -57.5 -4t-47.5 -11q-11 -4 -22 -4q-26 0 -44.5 18t-18.5 44q0 20 11.5 36t29.5 23q36 14 76.5 21t94.5 7
q66 0 110.5 -17.5t71.5 -50.5q33 34 77.5 53t99.5 19q65 0 113 -24.5t79.5 -62.5t46.5 -83.5t15 -87.5q0 -33 -20.5 -53t-50.5 -20h-301q11 -52 45.5 -78.5t85.5 -26.5q32 0 58.5 9.5t49.5 26.5q8 6 16.5 9t20.5 3q26 0 42.5 -17t16.5 -43q0 -15 -6 -26t-14 -19z" />
    <glyph glyph-name="ccedilla" unicode="&#xe7;" horiz-adv-x="571" 
d="M511 57q-31 -28 -69.5 -46t-95.5 -22l-50 -124q-7 -17 -17 -24.5t-27 -7.5q-11 0 -25.5 4.5t-28 12t-23 17t-9.5 18.5q0 7 2.5 14t6.5 12l61 89q-44 13 -79.5 38.5t-61 60t-39.5 77t-14 89.5v2q0 57 21 108t58 89t88.5 60t113.5 22q61 0 105 -15.5t78 -44.5q8 -6 16 -19
t8 -33q0 -29 -20 -48.5t-49 -19.5q-15 0 -26 5t-18 10q-20 16 -42.5 25t-52.5 9q-29 0 -52.5 -11.5t-41 -31.5t-27 -46.5t-9.5 -56.5v-2q0 -31 9.5 -58t27.5 -47t43 -31.5t56 -11.5q30 0 54 10t46 27q6 5 16.5 9.5t24.5 4.5q27 0 45.5 -19t18.5 -46q0 -15 -6 -27t-16 -21z
" />
    <glyph glyph-name="egrave" unicode="&#xe8;" horiz-adv-x="613" 
d="M420 310q-7 51 -36 82.5t-77 31.5t-77.5 -31t-38.5 -83h229zM508 53q-35 -30 -80.5 -47.5t-105.5 -17.5t-111.5 20t-89 57t-58.5 87.5t-21 112.5v2q0 57 19.5 108t54.5 89t83.5 60t107.5 22q67 0 116 -24.5t80.5 -62.5t46.5 -83.5t15 -87.5q0 -33 -20.5 -53t-50.5 -20
h-301q11 -52 45.5 -78.5t85.5 -26.5q32 0 58.5 9.5t49.5 26.5q8 6 16.5 9t20.5 3q26 0 42.5 -17t16.5 -43q0 -15 -6 -26t-14 -19zM362 589q-26 0 -45.5 6.5t-41.5 26.5l-62 58q-9 8 -14.5 16.5t-5.5 19.5q0 9 8 17t20.5 14.5t27.5 10.5t29 4q19 0 33 -9t24 -25l55 -86
q4 -6 7 -13t3 -14q0 -12 -10.5 -19t-27.5 -7z" />
    <glyph glyph-name="eacute" unicode="&#xe9;" horiz-adv-x="613" 
d="M420 310q-7 51 -36 82.5t-77 31.5t-77.5 -31t-38.5 -83h229zM508 53q-35 -30 -80.5 -47.5t-105.5 -17.5t-111.5 20t-89 57t-58.5 87.5t-21 112.5v2q0 57 19.5 108t54.5 89t83.5 60t107.5 22q67 0 116 -24.5t80.5 -62.5t46.5 -83.5t15 -87.5q0 -33 -20.5 -53t-50.5 -20
h-301q11 -52 45.5 -78.5t85.5 -26.5q32 0 58.5 9.5t49.5 26.5q8 6 16.5 9t20.5 3q26 0 42.5 -17t16.5 -43q0 -15 -6 -26t-14 -19zM297 589q-17 0 -27.5 7t-10.5 19q0 7 3 14t7 13l55 86q10 16 24 25t33 9q14 0 29 -4t27.5 -10.5t20.5 -14.5t8 -17q0 -11 -5.5 -19.5
t-14.5 -16.5l-62 -58q-22 -20 -41.5 -26.5t-45.5 -6.5z" />
    <glyph glyph-name="ecircumflex" unicode="&#xea;" horiz-adv-x="613" 
d="M420 310q-7 51 -36 82.5t-77 31.5t-77.5 -31t-38.5 -83h229zM508 53q-35 -30 -80.5 -47.5t-105.5 -17.5t-111.5 20t-89 57t-58.5 87.5t-21 112.5v2q0 57 19.5 108t54.5 89t83.5 60t107.5 22q67 0 116 -24.5t80.5 -62.5t46.5 -83.5t15 -87.5q0 -33 -20.5 -53t-50.5 -20
h-301q11 -52 45.5 -78.5t85.5 -26.5q32 0 58.5 9.5t49.5 26.5q8 6 16.5 9t20.5 3q26 0 42.5 -17t16.5 -43q0 -15 -6 -26t-14 -19zM270 622q-25 -20 -45.5 -26.5t-46.5 -6.5q-14 0 -23.5 6t-9.5 18q0 7 5 14.5t10 14.5l63 81q13 16 29 25t42 9h48q26 0 42 -9t29 -25l63 -81
q5 -7 10 -14.5t5 -14.5q0 -12 -10.5 -18t-24.5 -6q-26 0 -46.5 6.5t-45.5 26.5l-47 39z" />
    <glyph glyph-name="edieresis" unicode="&#xeb;" horiz-adv-x="613" 
d="M420 310q-7 51 -36 82.5t-77 31.5t-77.5 -31t-38.5 -83h229zM508 53q-35 -30 -80.5 -47.5t-105.5 -17.5t-111.5 20t-89 57t-58.5 87.5t-21 112.5v2q0 57 19.5 108t54.5 89t83.5 60t107.5 22q67 0 116 -24.5t80.5 -62.5t46.5 -83.5t15 -87.5q0 -33 -20.5 -53t-50.5 -20
h-301q11 -52 45.5 -78.5t85.5 -26.5q32 0 58.5 9.5t49.5 26.5q8 6 16.5 9t20.5 3q26 0 42.5 -17t16.5 -43q0 -15 -6 -26t-14 -19zM410 737q32 0 55.5 -20.5t23.5 -52.5v-2q0 -32 -23.5 -52.5t-55.5 -20.5t-55.5 20.5t-23.5 52.5v2q0 32 23.5 52.5t55.5 20.5zM196 737
q32 0 55.5 -20.5t23.5 -52.5v-2q0 -32 -23.5 -52.5t-55.5 -20.5t-55.5 20.5t-23.5 52.5v2q0 32 23.5 52.5t55.5 20.5z" />
    <glyph glyph-name="igrave" unicode="&#xec;" horiz-adv-x="302" 
d="M75 466q0 32 22 54t54 22t54 -22t22 -54v-396q0 -32 -22 -54t-54 -22t-54 22t-22 54v396zM181 589q-26 0 -45.5 6.5t-41.5 26.5l-62 58q-9 8 -14.5 16.5t-5.5 19.5q0 9 8 17t20.5 14.5t27.5 10.5t29 4q19 0 33 -9t24 -25l55 -86q4 -6 7 -13t3 -14q0 -12 -10.5 -19
t-27.5 -7z" />
    <glyph glyph-name="iacute" unicode="&#xed;" horiz-adv-x="302" 
d="M75 466q0 32 22 54t54 22t54 -22t22 -54v-396q0 -32 -22 -54t-54 -22t-54 22t-22 54v396zM121 589q-17 0 -27.5 7t-10.5 19q0 7 3 14t7 13l55 86q10 16 24 25t33 9q14 0 29 -4t27.5 -10.5t20.5 -14.5t8 -17q0 -11 -5.5 -19.5t-14.5 -16.5l-62 -58q-22 -20 -41.5 -26.5
t-45.5 -6.5z" />
    <glyph glyph-name="icircumflex" unicode="&#xee;" horiz-adv-x="302" 
d="M75 466q0 32 22 54t54 22t54 -22t22 -54v-396q0 -32 -22 -54t-54 -22t-54 22t-22 54v396zM103 622q-25 -20 -45.5 -26.5t-46.5 -6.5q-14 0 -23.5 6t-9.5 18q0 7 5 14.5t10 14.5l63 81q13 16 29 25t42 9h48q26 0 42 -9t29 -25l63 -81q5 -7 10 -14.5t5 -14.5
q0 -12 -10.5 -18t-24.5 -6q-26 0 -46.5 6.5t-45.5 26.5l-47 39z" />
    <glyph glyph-name="idieresis" unicode="&#xef;" horiz-adv-x="302" 
d="M75 466q0 32 22 54t54 22t54 -22t22 -54v-396q0 -32 -22 -54t-54 -22t-54 22t-22 54v396zM258 737q32 0 55.5 -20.5t23.5 -52.5v-2q0 -32 -23.5 -52.5t-55.5 -20.5t-55.5 20.5t-23.5 52.5v2q0 32 23.5 52.5t55.5 20.5zM44 737q32 0 55.5 -20.5t23.5 -52.5v-2
q0 -32 -23.5 -52.5t-55.5 -20.5t-55.5 20.5t-23.5 52.5v2q0 32 23.5 52.5t55.5 20.5z" />
    <glyph glyph-name="eth" unicode="&#xf0;" horiz-adv-x="648" 
d="M307 570l-102 -42q-9 -4 -19 -4q-19 0 -32 13t-13 32q0 17 9 27.5t23 15.5l81 33q-5 15 -5 26q0 29 19.5 48.5t48.5 19.5q20 0 34 -9t25 -24l6 -9l88 36q9 4 19 4q19 0 32 -13t13 -32q0 -17 -9 -27.5t-23 -15.5l-67 -27l81 -115q47 -67 67.5 -123.5t20.5 -120.5
q0 -56 -19 -106t-56 -87.5t-90 -59.5t-120 -22q-60 0 -111 20.5t-87.5 56t-57.5 83.5t-21 103q0 52 17 95.5t47.5 74.5t72.5 48t92 17q35 0 63 -7.5t60 -24.5zM456 248q0 27 -9.5 50.5t-26.5 41.5t-42 28t-55 10t-55 -10t-42 -27.5t-26.5 -41t-9.5 -51.5q0 -27 9.5 -51
t27.5 -42t42.5 -28.5t54.5 -10.5q63 0 97.5 37.5t34.5 94.5z" />
    <glyph glyph-name="ntilde" unicode="&#xf1;" horiz-adv-x="623" 
d="M68 466q0 32 22 54t54 22t54 -22t22 -54v-6q26 34 63 60t94 26q88 0 135 -52.5t47 -146.5v-277q0 -32 -22 -54t-54 -22t-54 22t-22 54v229q0 54 -23.5 81.5t-68.5 27.5t-70 -27.5t-25 -81.5v-229q0 -32 -22 -54t-54 -22t-54 22t-22 54v396zM203 605q-6 -10 -15.5 -16.5
t-23.5 -6.5q-18 0 -31.5 12.5t-13.5 28.5q0 5 1.5 13t3.5 14q17 45 41.5 71.5t70.5 26.5q23 0 44.5 -6t40.5 -13.5t35 -13.5t30 -6q18 0 28 7t19 22q6 10 15.5 16.5t23.5 6.5q18 0 31.5 -12.5t13.5 -28.5q0 -5 -1.5 -13t-3.5 -14q-17 -45 -41.5 -71.5t-70.5 -26.5
q-23 0 -44.5 6t-40.5 13.5t-35.5 13.5t-29.5 6q-18 0 -28 -7t-19 -22z" />
    <glyph glyph-name="ograve" unicode="&#xf2;" horiz-adv-x="664" 
d="M331 -12q-62 0 -115 21.5t-91.5 59t-60.5 88t-22 108.5v2q0 58 22 108.5t61 88.5t92 60t116 22q62 0 115 -21.5t91.5 -59t60.5 -88t22 -108.5v-2q0 -58 -22 -108.5t-61 -88.5t-92 -60t-116 -22zM333 119q33 0 58.5 11.5t43.5 31.5t27.5 46.5t9.5 56.5v2q0 30 -10 56.5
t-29 47t-45 32.5t-57 12q-33 0 -58.5 -11.5t-43.5 -31.5t-27.5 -46.5t-9.5 -56.5v-2q0 -30 10 -56.5t29 -47t44.5 -32.5t57.5 -12zM375 589q-26 0 -45.5 6.5t-41.5 26.5l-62 58q-9 8 -14.5 16.5t-5.5 19.5q0 9 8 17t20.5 14.5t27.5 10.5t29 4q19 0 33 -9t24 -25l55 -86
q4 -6 7 -13t3 -14q0 -12 -10.5 -19t-27.5 -7z" />
    <glyph glyph-name="oacute" unicode="&#xf3;" horiz-adv-x="664" 
d="M331 -12q-62 0 -115 21.5t-91.5 59t-60.5 88t-22 108.5v2q0 58 22 108.5t61 88.5t92 60t116 22q62 0 115 -21.5t91.5 -59t60.5 -88t22 -108.5v-2q0 -58 -22 -108.5t-61 -88.5t-92 -60t-116 -22zM333 119q33 0 58.5 11.5t43.5 31.5t27.5 46.5t9.5 56.5v2q0 30 -10 56.5
t-29 47t-45 32.5t-57 12q-33 0 -58.5 -11.5t-43.5 -31.5t-27.5 -46.5t-9.5 -56.5v-2q0 -30 10 -56.5t29 -47t44.5 -32.5t57.5 -12zM331 589q-17 0 -27.5 7t-10.5 19q0 7 3 14t7 13l55 86q10 16 24 25t33 9q14 0 29 -4t27.5 -10.5t20.5 -14.5t8 -17q0 -11 -5.5 -19.5
t-14.5 -16.5l-62 -58q-22 -20 -41.5 -26.5t-45.5 -6.5z" />
    <glyph glyph-name="ocircumflex" unicode="&#xf4;" horiz-adv-x="664" 
d="M331 -12q-62 0 -115 21.5t-91.5 59t-60.5 88t-22 108.5v2q0 58 22 108.5t61 88.5t92 60t116 22q62 0 115 -21.5t91.5 -59t60.5 -88t22 -108.5v-2q0 -58 -22 -108.5t-61 -88.5t-92 -60t-116 -22zM333 119q33 0 58.5 11.5t43.5 31.5t27.5 46.5t9.5 56.5v2q0 30 -10 56.5
t-29 47t-45 32.5t-57 12q-33 0 -58.5 -11.5t-43.5 -31.5t-27.5 -46.5t-9.5 -56.5v-2q0 -30 10 -56.5t29 -47t44.5 -32.5t57.5 -12zM288 622q-25 -20 -45.5 -26.5t-46.5 -6.5q-14 0 -23.5 6t-9.5 18q0 7 5 14.5t10 14.5l63 81q13 16 29 25t42 9h48q26 0 42 -9t29 -25l63 -81
q5 -7 10 -14.5t5 -14.5q0 -12 -10.5 -18t-24.5 -6q-26 0 -46.5 6.5t-45.5 26.5l-47 39z" />
    <glyph glyph-name="otilde" unicode="&#xf5;" horiz-adv-x="664" 
d="M331 -12q-62 0 -115 21.5t-91.5 59t-60.5 88t-22 108.5v2q0 58 22 108.5t61 88.5t92 60t116 22q62 0 115 -21.5t91.5 -59t60.5 -88t22 -108.5v-2q0 -58 -22 -108.5t-61 -88.5t-92 -60t-116 -22zM333 119q33 0 58.5 11.5t43.5 31.5t27.5 46.5t9.5 56.5v2q0 30 -10 56.5
t-29 47t-45 32.5t-57 12q-33 0 -58.5 -11.5t-43.5 -31.5t-27.5 -46.5t-9.5 -56.5v-2q0 -30 10 -56.5t29 -47t44.5 -32.5t57.5 -12zM273 624q-8 -10 -15.5 -17.5t-27.5 -6.5q-17 2 -28.5 15.5t-10.5 33.5q2 6 2 10q20 49 43 68t57 18q16 -1 35.5 -8.5t33.5 -14.5q4 -2 9.5 -5
t9.5 -5q2 -1 3.5 -1t3.5 -1l14 -4q5 1 9.5 4t8.5 11l2 6q8 9 17 15.5t27 5.5q20 -3 30.5 -15.5t10.5 -30.5q0 -3 -2 -11t-4 -12v-2q-17 -45 -40.5 -61t-61.5 -14q-17 1 -36 9t-36 17q-2 1 -3.5 1t-3.5 1l-4 2q-6 0 -7 3l-1 1q-12 5 -16 5q-6 0 -9.5 -2t-6.5 -10z" />
    <glyph glyph-name="odieresis" unicode="&#xf6;" horiz-adv-x="664" 
d="M331 -12q-62 0 -115 21.5t-91.5 59t-60.5 88t-22 108.5v2q0 58 22 108.5t61 88.5t92 60t116 22q62 0 115 -21.5t91.5 -59t60.5 -88t22 -108.5v-2q0 -58 -22 -108.5t-61 -88.5t-92 -60t-116 -22zM333 119q33 0 58.5 11.5t43.5 31.5t27.5 46.5t9.5 56.5v2q0 30 -10 56.5
t-29 47t-45 32.5t-57 12q-33 0 -58.5 -11.5t-43.5 -31.5t-27.5 -46.5t-9.5 -56.5v-2q0 -30 10 -56.5t29 -47t44.5 -32.5t57.5 -12zM439 737q32 0 55.5 -20.5t23.5 -52.5v-2q0 -32 -23.5 -52.5t-55.5 -20.5t-55.5 20.5t-23.5 52.5v2q0 32 23.5 52.5t55.5 20.5zM225 737
q32 0 55.5 -20.5t23.5 -52.5v-2q0 -32 -23.5 -52.5t-55.5 -20.5t-55.5 20.5t-23.5 52.5v2q0 32 23.5 52.5t55.5 20.5z" />
    <glyph glyph-name="divide" unicode="&#xf7;" horiz-adv-x="640" 
d="M126 288q-26 0 -45 19t-19 45t19 45t45 19h388q26 0 45 -19t19 -45t-19 -45t-45 -19h-388zM320 215q34 0 58 -22.5t24 -55.5t-24 -55.5t-58 -22.5t-58 22.5t-24 55.5t24 55.5t58 22.5zM320 645q34 0 58 -22.5t24 -55.5t-24 -55.5t-58 -22.5t-58 22.5t-24 55.5t24 55.5
t58 22.5z" />
    <glyph glyph-name="oslash" unicode="&#xf8;" horiz-adv-x="664" 
d="M331 -12q-45 0 -85 11.5t-74 32.5l-23 -23q-10 -10 -21 -16t-25 -6q-19 0 -33 13t-14 31q0 16 6.5 27t15.5 20l20 20q-27 35 -41.5 77t-14.5 90v2q0 58 22 108.5t61 88.5t92 60t116 22q45 0 85 -12t74 -32l23 23q10 10 21 16t25 6q19 0 33 -13t14 -31q0 -16 -6.5 -27
t-15.5 -20l-20 -21q26 -35 41 -76.5t15 -89.5v-2q0 -58 -22 -108.5t-61 -88.5t-92 -60t-116 -22zM333 115q34 0 60.5 12t45 32.5t28 48t9.5 57.5v2q0 17 -3.5 33t-9.5 31l-197 -200q29 -16 67 -16zM188 267q0 -38 13 -64l197 199q-32 17 -67 17q-34 0 -60.5 -12t-45 -32.5
t-28 -48t-9.5 -57.5v-2z" />
    <glyph glyph-name="ugrave" unicode="&#xf9;" horiz-adv-x="623" 
d="M555 70q0 -32 -22 -54t-54 -22t-54 22t-22 54v6q-26 -34 -63 -60t-94 -26q-88 0 -135 52.5t-47 146.5v277q0 32 22 54t54 22t54 -22t22 -54v-229q0 -54 23.5 -81.5t68.5 -27.5t70 27.5t25 81.5v229q0 32 22 54t54 22t54 -22t22 -54v-396zM329 589q-26 0 -45.5 6.5
t-41.5 26.5l-62 58q-9 8 -14.5 16.5t-5.5 19.5q0 9 8 17t20.5 14.5t27.5 10.5t29 4q19 0 33 -9t24 -25l55 -86q4 -6 7 -13t3 -14q0 -12 -10.5 -19t-27.5 -7z" />
    <glyph glyph-name="uacute" unicode="&#xfa;" horiz-adv-x="623" 
d="M555 70q0 -32 -22 -54t-54 -22t-54 22t-22 54v6q-26 -34 -63 -60t-94 -26q-88 0 -135 52.5t-47 146.5v277q0 32 22 54t54 22t54 -22t22 -54v-229q0 -54 23.5 -81.5t68.5 -27.5t70 27.5t25 81.5v229q0 32 22 54t54 22t54 -22t22 -54v-396zM298 589q-17 0 -27.5 7t-10.5 19
q0 7 3 14t7 13l55 86q10 16 24 25t33 9q14 0 29 -4t27.5 -10.5t20.5 -14.5t8 -17q0 -11 -5.5 -19.5t-14.5 -16.5l-62 -58q-22 -20 -41.5 -26.5t-45.5 -6.5z" />
    <glyph glyph-name="ucircumflex" unicode="&#xfb;" horiz-adv-x="623" 
d="M555 70q0 -32 -22 -54t-54 -22t-54 22t-22 54v6q-26 -34 -63 -60t-94 -26q-88 0 -135 52.5t-47 146.5v277q0 32 22 54t54 22t54 -22t22 -54v-229q0 -54 23.5 -81.5t68.5 -27.5t70 27.5t25 81.5v229q0 32 22 54t54 22t54 -22t22 -54v-396zM261 622q-25 -20 -45.5 -26.5
t-46.5 -6.5q-14 0 -23.5 6t-9.5 18q0 7 5 14.5t10 14.5l63 81q13 16 29 25t42 9h48q26 0 42 -9t29 -25l63 -81q5 -7 10 -14.5t5 -14.5q0 -12 -10.5 -18t-24.5 -6q-26 0 -46.5 6.5t-45.5 26.5l-47 39z" />
    <glyph glyph-name="udieresis" unicode="&#xfc;" horiz-adv-x="623" 
d="M555 70q0 -32 -22 -54t-54 -22t-54 22t-22 54v6q-26 -34 -63 -60t-94 -26q-88 0 -135 52.5t-47 146.5v277q0 32 22 54t54 22t54 -22t22 -54v-229q0 -54 23.5 -81.5t68.5 -27.5t70 27.5t25 81.5v229q0 32 22 54t54 22t54 -22t22 -54v-396zM416 737q32 0 55.5 -20.5
t23.5 -52.5v-2q0 -32 -23.5 -52.5t-55.5 -20.5t-55.5 20.5t-23.5 52.5v2q0 32 23.5 52.5t55.5 20.5zM202 737q32 0 55.5 -20.5t23.5 -52.5v-2q0 -32 -23.5 -52.5t-55.5 -20.5t-55.5 20.5t-23.5 52.5v2q0 32 23.5 52.5t55.5 20.5z" />
    <glyph glyph-name="yacute" unicode="&#xfd;" horiz-adv-x="586" 
d="M179 -163q-26 0 -45 3.5t-38 10.5q-17 6 -32.5 20.5t-15.5 42.5t18.5 45t41.5 17q16 0 25 -4q10 -3 17 -4.5t15 -1.5q20 0 31.5 6t22.5 26l5 12l-183 424q-3 8 -5.5 17.5t-2.5 17.5q0 32 21.5 52.5t53.5 20.5q29 0 46 -15t27 -42l116 -312l112 311q9 24 26.5 41t46.5 17
t50.5 -20t21.5 -50q0 -9 -2.5 -20t-4.5 -16l-187 -449q-17 -41 -34.5 -69.5t-38.5 -46.5t-47.5 -26t-60.5 -8zM286 589q-17 0 -27.5 7t-10.5 19q0 7 3 14t7 13l55 86q10 16 24 25t33 9q14 0 29 -4t27.5 -10.5t20.5 -14.5t8 -17q0 -11 -5.5 -19.5t-14.5 -16.5l-62 -58
q-22 -20 -41.5 -26.5t-45.5 -6.5z" />
    <glyph glyph-name="thorn" unicode="&#xfe;" 
d="M68 660q0 32 22 54t54 22t54 -22t22 -54v-201q28 38 67.5 62.5t99.5 24.5q47 0 91 -18t78 -53.5t54.5 -87t20.5 -118.5v-2q0 -67 -20.5 -118.5t-54 -87t-77.5 -53.5t-92 -18q-61 0 -100.5 24t-66.5 56v-160q0 -32 -22 -54t-54 -22t-54 22t-22 54v750zM348 119
q27 0 50.5 10.5t41.5 30t28.5 46.5t10.5 61v2q0 33 -10.5 60.5t-28.5 47t-41.5 30t-50.5 10.5t-50.5 -10.5t-41 -30t-28 -47t-10.5 -60.5v-2q0 -33 10.5 -60.5t28 -47t41 -30t50.5 -10.5z" />
    <glyph glyph-name="ydieresis" unicode="&#xff;" horiz-adv-x="586" 
d="M179 -163q-26 0 -45 3.5t-38 10.5q-17 6 -32.5 20.5t-15.5 42.5t18.5 45t41.5 17q16 0 25 -4q10 -3 17 -4.5t15 -1.5q20 0 31.5 6t22.5 26l5 12l-183 424q-3 8 -5.5 17.5t-2.5 17.5q0 32 21.5 52.5t53.5 20.5q29 0 46 -15t27 -42l116 -312l112 311q9 24 26.5 41t46.5 17
t50.5 -20t21.5 -50q0 -9 -2.5 -20t-4.5 -16l-187 -449q-17 -41 -34.5 -69.5t-38.5 -46.5t-47.5 -26t-60.5 -8zM400 737q32 0 55.5 -20.5t23.5 -52.5v-2q0 -32 -23.5 -52.5t-55.5 -20.5t-55.5 20.5t-23.5 52.5v2q0 32 23.5 52.5t55.5 20.5zM186 737q32 0 55.5 -20.5
t23.5 -52.5v-2q0 -32 -23.5 -52.5t-55.5 -20.5t-55.5 20.5t-23.5 52.5v2q0 32 23.5 52.5t55.5 20.5z" />
    <glyph glyph-name="Amacron" unicode="&#x100;" horiz-adv-x="766" 
d="M36 66q0 8 2.5 16.5t6.5 16.5l244 551q13 29 35.5 45t54.5 16h9q32 0 54 -16t35 -45l244 -551q8 -19 8 -31q0 -31 -21 -52.5t-52 -21.5q-27 0 -45 14.5t-29 38.5l-47 110h-308l-49 -115q-10 -23 -28.5 -35.5t-42.5 -12.5q-30 0 -50.5 21t-20.5 51zM478 293l-97 231
l-97 -231h194zM249 770q-22 0 -37.5 15t-15.5 37t15.5 37.5t37.5 15.5h266q22 0 37.5 -15.5t15.5 -37.5t-15.5 -37t-37.5 -15h-266z" />
    <glyph glyph-name="amacron" unicode="&#x101;" horiz-adv-x="592" 
d="M220 -10q-38 0 -71.5 10.5t-58.5 31.5t-39.5 51.5t-14.5 70.5v2q0 43 16 75.5t44.5 53.5t68 31.5t87.5 10.5q42 0 72 -6t59 -16v9q0 98 -115 98q-32 0 -57.5 -4t-47.5 -11q-11 -4 -22 -4q-26 0 -44.5 18t-18.5 44q0 20 11.5 36t29.5 23q36 14 76.5 21t94.5 7
q63 0 107.5 -15.5t73.5 -44.5q30 -30 44 -73.5t14 -97.5v-244q0 -31 -21.5 -52t-52.5 -21q-33 0 -53 19.5t-20 43.5v1q-28 -31 -66.5 -49.5t-95.5 -18.5zM165 600q-22 0 -37.5 15t-15.5 37t15.5 37.5t37.5 15.5h266q22 0 37.5 -15.5t15.5 -37.5t-15.5 -37t-37.5 -15h-266z
M266 95q54 0 86.5 26t32.5 68v27q-20 9 -44.5 14.5t-52.5 5.5q-49 0 -77 -19t-28 -55v-2q0 -31 23 -48t60 -17z" />
    <glyph glyph-name="Abreve" unicode="&#x102;" horiz-adv-x="766" 
d="M36 66q0 8 2.5 16.5t6.5 16.5l244 551q13 29 35.5 45t54.5 16h9q32 0 54 -16t35 -45l244 -551q8 -19 8 -31q0 -31 -21 -52.5t-52 -21.5q-27 0 -45 14.5t-29 38.5l-47 110h-308l-49 -115q-10 -23 -28.5 -35.5t-42.5 -12.5q-30 0 -50.5 21t-20.5 51zM478 293l-97 231
l-97 -231h194zM382 759q-70 0 -107.5 26t-51.5 64q-2 7 -3.5 13.5t-0.5 14.5q2 22 17.5 35t37.5 11q18 -2 27.5 -10.5t14.5 -19.5q8 -17 22 -25t44 -8t44.5 7.5t21.5 24.5q5 11 14.5 20t26.5 11q22 3 38 -10t18 -35q1 -8 -0.5 -14.5t-3.5 -14.5q-13 -38 -51 -64t-108 -26z
" />
    <glyph glyph-name="abreve" unicode="&#x103;" horiz-adv-x="592" 
d="M220 -10q-38 0 -71.5 10.5t-58.5 31.5t-39.5 51.5t-14.5 70.5v2q0 43 16 75.5t44.5 53.5t68 31.5t87.5 10.5q42 0 72 -6t59 -16v9q0 98 -115 98q-32 0 -57.5 -4t-47.5 -11q-11 -4 -22 -4q-26 0 -44.5 18t-18.5 44q0 20 11.5 36t29.5 23q36 14 76.5 21t94.5 7
q63 0 107.5 -15.5t73.5 -44.5q30 -30 44 -73.5t14 -97.5v-244q0 -31 -21.5 -52t-52.5 -21q-33 0 -53 19.5t-20 43.5v1q-28 -31 -66.5 -49.5t-95.5 -18.5zM266 95q54 0 86.5 26t32.5 68v27q-20 9 -44.5 14.5t-52.5 5.5q-49 0 -77 -19t-28 -55v-2q0 -31 23 -48t60 -17z
M323 589q-70 0 -107.5 26t-51.5 64q-2 7 -3.5 13.5t-0.5 14.5q2 22 17.5 35t37.5 11q18 -2 27.5 -10.5t14.5 -19.5q8 -17 22 -25t44 -8t44.5 7.5t21.5 24.5q5 11 14.5 20t26.5 11q22 3 38 -10t18 -35q1 -8 -0.5 -14.5t-3.5 -14.5q-13 -38 -51 -64t-108 -26z" />
    <glyph glyph-name="Aogonek" unicode="&#x104;" horiz-adv-x="790" 
d="M48 66q0 8 2.5 16.5t6.5 16.5l244 551q13 29 35.5 45t54.5 16h9q32 0 54 -16t35 -45l244 -551q8 -19 8 -31q0 -18 -6.5 -31t-20.5 -28q-19 -20 -26.5 -35.5t-7.5 -29.5q0 -17 10 -25.5t30 -13.5q36 -9 36 -36q0 -36 -48 -36q-63 0 -100 22t-37 65q0 23 11 44.5t29 43.5
l-64 149h-308l-49 -115q-10 -23 -28.5 -35.5t-42.5 -12.5q-30 0 -50.5 21t-20.5 51zM490 293l-97 231l-97 -231h194z" />
    <glyph glyph-name="aogonek" unicode="&#x105;" horiz-adv-x="592" 
d="M354 -85q0 24 11.5 47t37.5 50q-21 18 -21 45v1q-28 -31 -66.5 -49.5t-95.5 -18.5q-38 0 -71.5 10.5t-58.5 31.5t-39.5 51.5t-14.5 70.5v2q0 43 16 75.5t44.5 53.5t68 31.5t87.5 10.5q42 0 72 -6t59 -16v9q0 98 -115 98q-32 0 -57.5 -4t-47.5 -11q-11 -4 -22 -4
q-26 0 -44.5 18t-18.5 44q0 20 11.5 36t29.5 23q36 14 76.5 21t94.5 7q63 0 107.5 -15.5t73.5 -44.5q30 -30 44 -73.5t14 -97.5v-244q0 -18 -6.5 -30.5t-21.5 -27.5q-21 -21 -29 -37t-8 -30q0 -15 9 -23.5t29 -13.5q36 -9 36 -36q0 -36 -48 -36q-63 0 -99.5 21.5t-36.5 60.5
zM266 95q54 0 86.5 26t32.5 68v27q-20 9 -44.5 14.5t-52.5 5.5q-49 0 -77 -19t-28 -55v-2q0 -31 23 -48t60 -17z" />
    <glyph glyph-name="Cacute" unicode="&#x106;" horiz-adv-x="738" 
d="M412 -12q-77 0 -143 28t-114 76.5t-75 114.5t-27 141v2q0 75 27 140.5t75 115t115 78t148 28.5q79 0 134 -19.5t100 -51.5q12 -9 21 -25t9 -36q0 -32 -22 -53.5t-54 -21.5q-16 0 -27 5t-19 10q-32 24 -66.5 37t-76.5 13q-44 0 -81.5 -17t-64.5 -47t-42 -69.5t-15 -84.5
v-2q0 -45 15 -85t41.5 -70t64 -47.5t82.5 -17.5q49 0 84 14.5t68 40.5q20 17 46 17q29 0 50.5 -21t21.5 -50q0 -18 -7.5 -32t-18.5 -23q-47 -41 -106 -64.5t-143 -23.5zM401 759q-17 0 -27.5 7t-10.5 19q0 7 3 14t7 13l55 86q10 16 24 25t33 9q14 0 29 -4t27.5 -10.5
t20.5 -14.5t8 -17q0 -11 -5.5 -19.5t-14.5 -16.5l-62 -58q-22 -20 -41.5 -26.5t-45.5 -6.5z" />
    <glyph glyph-name="cacute" unicode="&#x107;" horiz-adv-x="571" 
d="M321 -12q-60 0 -111.5 22t-88.5 59.5t-58 88t-21 107.5v2q0 57 21 108t58 89t88.5 60t113.5 22q61 0 105 -15.5t78 -44.5q8 -6 16 -19t8 -33q0 -29 -20 -48.5t-49 -19.5q-15 0 -26 5t-18 10q-20 16 -42.5 25t-52.5 9q-29 0 -52.5 -11.5t-41 -31.5t-27 -46.5t-9.5 -56.5
v-2q0 -31 9.5 -58t27.5 -47t43 -31.5t56 -11.5q30 0 54 10t46 27q6 5 16.5 9.5t24.5 4.5q27 0 45.5 -19t18.5 -46q0 -15 -6 -27t-16 -21q-34 -31 -79 -50t-111 -19zM313 589q-17 0 -27.5 7t-10.5 19q0 7 3 14t7 13l55 86q10 16 24 25t33 9q14 0 29 -4t27.5 -10.5t20.5 -14.5
t8 -17q0 -11 -5.5 -19.5t-14.5 -16.5l-62 -58q-22 -20 -41.5 -26.5t-45.5 -6.5z" />
    <glyph glyph-name="Cdotaccent" unicode="&#x10a;" horiz-adv-x="738" 
d="M412 -12q-77 0 -143 28t-114 76.5t-75 114.5t-27 141v2q0 75 27 140.5t75 115t115 78t148 28.5q79 0 134 -19.5t100 -51.5q12 -9 21 -25t9 -36q0 -32 -22 -53.5t-54 -21.5q-16 0 -27 5t-19 10q-32 24 -66.5 37t-76.5 13q-44 0 -81.5 -17t-64.5 -47t-42 -69.5t-15 -84.5
v-2q0 -45 15 -85t41.5 -70t64 -47.5t82.5 -17.5q49 0 84 14.5t68 40.5q20 17 46 17q29 0 50.5 -21t21.5 -50q0 -18 -7.5 -32t-18.5 -23q-47 -41 -106 -64.5t-143 -23.5zM486 832q0 -33 -24 -53t-57 -20t-57 20t-24 53v2q0 33 24 53t57 20t57 -20t24 -53v-2z" />
    <glyph glyph-name="cdotaccent" unicode="&#x10b;" horiz-adv-x="571" 
d="M321 -12q-60 0 -111.5 22t-88.5 59.5t-58 88t-21 107.5v2q0 57 21 108t58 89t88.5 60t113.5 22q61 0 105 -15.5t78 -44.5q8 -6 16 -19t8 -33q0 -29 -20 -48.5t-49 -19.5q-15 0 -26 5t-18 10q-20 16 -42.5 25t-52.5 9q-29 0 -52.5 -11.5t-41 -31.5t-27 -46.5t-9.5 -56.5
v-2q0 -31 9.5 -58t27.5 -47t43 -31.5t56 -11.5q30 0 54 10t46 27q6 5 16.5 9.5t24.5 4.5q27 0 45.5 -19t18.5 -46q0 -15 -6 -27t-16 -21q-34 -31 -79 -50t-111 -19zM398 662q0 -33 -24 -53t-57 -20t-57 20t-24 53v2q0 33 24 53t57 20t57 -20t24 -53v-2z" />
    <glyph glyph-name="Ccaron" unicode="&#x10c;" horiz-adv-x="738" 
d="M412 -12q-77 0 -143 28t-114 76.5t-75 114.5t-27 141v2q0 75 27 140.5t75 115t115 78t148 28.5q79 0 134 -19.5t100 -51.5q12 -9 21 -25t9 -36q0 -32 -22 -53.5t-54 -21.5q-16 0 -27 5t-19 10q-32 24 -66.5 37t-76.5 13q-44 0 -81.5 -17t-64.5 -47t-42 -69.5t-15 -84.5
v-2q0 -45 15 -85t41.5 -70t64 -47.5t82.5 -17.5q49 0 84 14.5t68 40.5q20 17 46 17q29 0 50.5 -21t21.5 -50q0 -18 -7.5 -32t-18.5 -23q-47 -41 -106 -64.5t-143 -23.5zM453 895q25 20 45.5 26.5t46.5 6.5q14 0 23.5 -6t9.5 -18q0 -7 -5 -14.5t-10 -14.5l-63 -81
q-13 -16 -29 -25t-42 -9h-48q-26 0 -42 9t-29 25l-63 81q-5 7 -10 14.5t-5 14.5q0 12 10.5 18t24.5 6q26 0 46.5 -6.5t45.5 -26.5l47 -39z" />
    <glyph glyph-name="ccaron" unicode="&#x10d;" horiz-adv-x="571" 
d="M321 -12q-60 0 -111.5 22t-88.5 59.5t-58 88t-21 107.5v2q0 57 21 108t58 89t88.5 60t113.5 22q61 0 105 -15.5t78 -44.5q8 -6 16 -19t8 -33q0 -29 -20 -48.5t-49 -19.5q-15 0 -26 5t-18 10q-20 16 -42.5 25t-52.5 9q-29 0 -52.5 -11.5t-41 -31.5t-27 -46.5t-9.5 -56.5
v-2q0 -31 9.5 -58t27.5 -47t43 -31.5t56 -11.5q30 0 54 10t46 27q6 5 16.5 9.5t24.5 4.5q27 0 45.5 -19t18.5 -46q0 -15 -6 -27t-16 -21q-34 -31 -79 -50t-111 -19zM365 725q25 20 45.5 26.5t46.5 6.5q14 0 23.5 -6t9.5 -18q0 -7 -5 -14.5t-10 -14.5l-63 -81
q-13 -16 -29 -25t-42 -9h-48q-26 0 -42 9t-29 25l-63 81q-5 7 -10 14.5t-5 14.5q0 12 10.5 18t24.5 6q26 0 46.5 -6.5t45.5 -26.5l47 -39z" />
    <glyph glyph-name="Dcaron" unicode="&#x10e;" horiz-adv-x="782" 
d="M84 623q0 32 22.5 54.5t54.5 22.5h196q82 0 150.5 -26.5t118 -73.5t76.5 -110.5t27 -137.5v-2q0 -74 -27 -138t-76.5 -111t-118 -74t-150.5 -27h-196q-32 0 -54.5 22.5t-22.5 54.5v546zM357 139q47 0 86 15t66.5 43t43 66t15.5 85v2q0 46 -15.5 85t-43 67t-66.5 43.5
t-86 15.5h-119v-422h119zM426 885q25 20 45.5 26.5t46.5 6.5q14 0 23.5 -6t9.5 -18q0 -7 -5 -14.5t-10 -14.5l-63 -81q-13 -16 -29 -25t-42 -9h-48q-26 0 -42 9t-29 25l-63 81q-5 7 -10 14.5t-5 14.5q0 12 10.5 18t24.5 6q26 0 46.5 -6.5t45.5 -26.5l47 -39z" />
    <glyph glyph-name="dcaron" unicode="&#x10f;" 
d="M607 70q0 -32 -22 -54t-54 -22t-54 22t-22 54v7q-28 -38 -67.5 -62.5t-99.5 -24.5q-47 0 -91 18t-78 53.5t-54.5 87t-20.5 118.5v2q0 67 20.5 118.5t54 87t77.5 53.5t92 18q61 0 100.5 -24t66.5 -56v194q0 32 22 54t54 22t54 -22t22 -54v-590zM327 417q-27 0 -50.5 -10.5
t-41.5 -30t-28.5 -46.5t-10.5 -61v-2q0 -33 10.5 -60.5t28.5 -47t41.5 -30t50.5 -10.5t50.5 10.5t41 30t28 47t10.5 60.5v2q0 33 -10.5 60.5t-28 47t-41 30t-50.5 10.5zM657 685q0 21 14 36t37 15h20q16 0 26.5 -8t10.5 -25q0 -12 -4 -23l-38 -132q-8 -27 -35 -27
q-14 0 -22.5 9.5t-8.5 24.5v130z" />
    <glyph glyph-name="Dcroat" unicode="&#x110;" horiz-adv-x="812" 
d="M95 286q-23 0 -39 16t-16 39q0 24 16 41t39 17h19v224q0 32 22.5 54.5t54.5 22.5h196q82 0 150.5 -26.5t118 -73.5t76.5 -110.5t27 -137.5v-2q0 -74 -27 -138t-76.5 -111t-118 -74t-150.5 -27h-196q-32 0 -54.5 22.5t-22.5 54.5v209h-19zM266 399h90q23 0 39.5 -17
t16.5 -41q0 -23 -16.5 -39t-39.5 -16h-90v-147h121q47 0 86 15t66.5 43t43 66t15.5 85v2q0 46 -15.5 85t-43 67t-66.5 43.5t-86 15.5h-121v-162z" />
    <glyph glyph-name="dcroat" unicode="&#x111;" 
d="M371 567q-22 0 -37.5 15.5t-15.5 37.5q0 23 15.5 38.5t37.5 15.5h86v4q6 25 26.5 41.5t47.5 16.5t47.5 -16.5t26.5 -41.5v-4h13q22 0 37.5 -15.5t15.5 -38.5q0 -22 -15.5 -37.5t-37.5 -15.5h-11v-497q0 -32 -22 -54t-54 -22t-54 22t-22 54v7q-28 -38 -67.5 -62.5
t-99.5 -24.5q-47 0 -91 18t-78 53.5t-54.5 87t-20.5 118.5v2q0 67 20.5 118.5t54 87t77.5 53.5t92 18q61 0 100.5 -24t66.5 -56v101h-84zM327 417q-27 0 -50.5 -10.5t-41.5 -30t-28.5 -46.5t-10.5 -61v-2q0 -33 10.5 -60.5t28.5 -47t41.5 -30t50.5 -10.5t50.5 10.5t41 30
t28 47t10.5 60.5v2q0 33 -10.5 60.5t-28 47t-41 30t-50.5 10.5z" />
    <glyph glyph-name="Emacron" unicode="&#x112;" horiz-adv-x="670" 
d="M161 0q-32 0 -54.5 22.5t-22.5 54.5v546q0 32 22.5 54.5t54.5 22.5h388q29 0 49 -20t20 -49t-20 -48.5t-49 -19.5h-312v-142h267q29 0 49 -20t20 -49t-20 -48.5t-49 -19.5h-267v-147h317q29 0 49 -20t20 -49t-20 -48.5t-49 -19.5h-393zM217 760q-22 0 -37.5 15t-15.5 37
t15.5 37.5t37.5 15.5h266q22 0 37.5 -15.5t15.5 -37.5t-15.5 -37t-37.5 -15h-266z" />
    <glyph glyph-name="emacron" unicode="&#x113;" horiz-adv-x="613" 
d="M420 310q-7 51 -36 82.5t-77 31.5t-77.5 -31t-38.5 -83h229zM508 53q-35 -30 -80.5 -47.5t-105.5 -17.5t-111.5 20t-89 57t-58.5 87.5t-21 112.5v2q0 57 19.5 108t54.5 89t83.5 60t107.5 22q67 0 116 -24.5t80.5 -62.5t46.5 -83.5t15 -87.5q0 -33 -20.5 -53t-50.5 -20
h-301q11 -52 45.5 -78.5t85.5 -26.5q32 0 58.5 9.5t49.5 26.5q8 6 16.5 9t20.5 3q26 0 42.5 -17t16.5 -43q0 -15 -6 -26t-14 -19zM170 600q-22 0 -37.5 15t-15.5 37t15.5 37.5t37.5 15.5h266q22 0 37.5 -15.5t15.5 -37.5t-15.5 -37t-37.5 -15h-266z" />
    <glyph glyph-name="Ebreve" unicode="&#x114;" horiz-adv-x="670" 
d="M161 0q-32 0 -54.5 22.5t-22.5 54.5v546q0 32 22.5 54.5t54.5 22.5h388q29 0 49 -20t20 -49t-20 -48.5t-49 -19.5h-312v-142h267q29 0 49 -20t20 -49t-20 -48.5t-49 -19.5h-267v-147h317q29 0 49 -20t20 -49t-20 -48.5t-49 -19.5h-393zM350 753q-60 0 -102 22.5t-65 62.5
q-7 13 -7 28q0 22 15 37t37 15q18 0 28.5 -8t16.5 -18q11 -18 29 -29t48 -11t48 11t29 29q6 10 16.5 18t28.5 8q22 0 37 -15t15 -37q0 -15 -7 -28q-23 -40 -65 -62.5t-102 -22.5z" />
    <glyph glyph-name="ebreve" unicode="&#x115;" horiz-adv-x="613" 
d="M420 310q-7 51 -36 82.5t-77 31.5t-77.5 -31t-38.5 -83h229zM508 53q-35 -30 -80.5 -47.5t-105.5 -17.5t-111.5 20t-89 57t-58.5 87.5t-21 112.5v2q0 57 19.5 108t54.5 89t83.5 60t107.5 22q67 0 116 -24.5t80.5 -62.5t46.5 -83.5t15 -87.5q0 -33 -20.5 -53t-50.5 -20
h-301q11 -52 45.5 -78.5t85.5 -26.5q32 0 58.5 9.5t49.5 26.5q8 6 16.5 9t20.5 3q26 0 42.5 -17t16.5 -43q0 -15 -6 -26t-14 -19zM303 593q-60 0 -102 22.5t-65 62.5q-7 13 -7 28q0 22 15 37t37 15q18 0 28.5 -8t16.5 -18q11 -18 29 -29t48 -11t48 11t29 29q6 10 16.5 18
t28.5 8q22 0 37 -15t15 -37q0 -15 -7 -28q-23 -40 -65 -62.5t-102 -22.5z" />
    <glyph glyph-name="Edotaccent" unicode="&#x116;" horiz-adv-x="670" 
d="M161 0q-32 0 -54.5 22.5t-22.5 54.5v546q0 32 22.5 54.5t54.5 22.5h388q29 0 49 -20t20 -49t-20 -48.5t-49 -19.5h-312v-142h267q29 0 49 -20t20 -49t-20 -48.5t-49 -19.5h-267v-147h317q29 0 49 -20t20 -49t-20 -48.5t-49 -19.5h-393zM431 822q0 -33 -24 -53t-57 -20
t-57 20t-24 53v2q0 33 24 53t57 20t57 -20t24 -53v-2z" />
    <glyph glyph-name="edotaccent" unicode="&#x117;" horiz-adv-x="613" 
d="M420 310q-7 51 -36 82.5t-77 31.5t-77.5 -31t-38.5 -83h229zM508 53q-35 -30 -80.5 -47.5t-105.5 -17.5t-111.5 20t-89 57t-58.5 87.5t-21 112.5v2q0 57 19.5 108t54.5 89t83.5 60t107.5 22q67 0 116 -24.5t80.5 -62.5t46.5 -83.5t15 -87.5q0 -33 -20.5 -53t-50.5 -20
h-301q11 -52 45.5 -78.5t85.5 -26.5q32 0 58.5 9.5t49.5 26.5q8 6 16.5 9t20.5 3q26 0 42.5 -17t16.5 -43q0 -15 -6 -26t-14 -19zM384 662q0 -33 -24 -53t-57 -20t-57 20t-24 53v2q0 33 24 53t57 20t57 -20t24 -53v-2z" />
    <glyph glyph-name="Eogonek" unicode="&#x118;" horiz-adv-x="670" 
d="M161 0q-32 0 -54.5 22.5t-22.5 54.5v546q0 32 22.5 54.5t54.5 22.5h388q29 0 49 -20t20 -49t-20 -48.5t-49 -19.5h-312v-142h267q29 0 49 -20t20 -49t-20 -48.5t-49 -19.5h-267v-147h317q29 0 49 -19.5t20 -45.5q0 -23 -9.5 -36.5t-28.5 -31.5q-33 -30 -33 -60
q0 -17 10 -25.5t30 -13.5q36 -9 36 -36q0 -36 -48 -36q-63 0 -100 22t-37 65q0 22 9 41t25 39h-316z" />
    <glyph glyph-name="eogonek" unicode="&#x119;" horiz-adv-x="613" 
d="M565 288q0 -33 -20.5 -53t-50.5 -20h-301q11 -52 45.5 -78.5t85.5 -26.5q32 0 58.5 9.5t49.5 26.5q8 6 16.5 9t20.5 3q26 0 42.5 -17t16.5 -43q0 -15 -6 -26t-14 -19t-14 -13t-10.5 -9.5l-9 -9t-10.5 -11.5q-17 -18 -23.5 -32.5t-6.5 -28.5q0 -20 10 -29.5t30 -14.5
q36 -9 36 -36q0 -36 -48 -36q-63 0 -100 22t-37 65q0 17 8.5 34.5t23.5 35.5q-9 -1 -17.5 -1.5t-17.5 -0.5q-60 0 -111.5 20t-89 57t-58.5 87.5t-21 112.5v2q0 57 19.5 108t54.5 89t83.5 60t107.5 22q67 0 116 -24.5t80.5 -62.5t46.5 -83.5t15 -87.5zM420 310
q-7 51 -36 82.5t-77 31.5t-77.5 -31t-38.5 -83h229z" />
    <glyph glyph-name="Ecaron" unicode="&#x11a;" horiz-adv-x="670" 
d="M161 0q-32 0 -54.5 22.5t-22.5 54.5v546q0 32 22.5 54.5t54.5 22.5h388q29 0 49 -20t20 -49t-20 -48.5t-49 -19.5h-312v-142h267q29 0 49 -20t20 -49t-20 -48.5t-49 -19.5h-267v-147h317q29 0 49 -20t20 -49t-20 -48.5t-49 -19.5h-393zM398 885q25 20 45.5 26.5t46.5 6.5
q14 0 23.5 -6t9.5 -18q0 -7 -5 -14.5t-10 -14.5l-63 -81q-13 -16 -29 -25t-42 -9h-48q-26 0 -42 9t-29 25l-63 81q-5 7 -10 14.5t-5 14.5q0 12 10.5 18t24.5 6q26 0 46.5 -6.5t45.5 -26.5l47 -39z" />
    <glyph glyph-name="ecaron" unicode="&#x11b;" horiz-adv-x="613" 
d="M420 310q-7 51 -36 82.5t-77 31.5t-77.5 -31t-38.5 -83h229zM508 53q-35 -30 -80.5 -47.5t-105.5 -17.5t-111.5 20t-89 57t-58.5 87.5t-21 112.5v2q0 57 19.5 108t54.5 89t83.5 60t107.5 22q67 0 116 -24.5t80.5 -62.5t46.5 -83.5t15 -87.5q0 -33 -20.5 -53t-50.5 -20
h-301q11 -52 45.5 -78.5t85.5 -26.5q32 0 58.5 9.5t49.5 26.5q8 6 16.5 9t20.5 3q26 0 42.5 -17t16.5 -43q0 -15 -6 -26t-14 -19zM351 725q25 20 45.5 26.5t46.5 6.5q14 0 23.5 -6t9.5 -18q0 -7 -5 -14.5t-10 -14.5l-63 -81q-13 -16 -29 -25t-42 -9h-48q-26 0 -42 9t-29 25
l-63 81q-5 7 -10 14.5t-5 14.5q0 12 10.5 18t24.5 6q26 0 46.5 -6.5t45.5 -26.5l47 -39z" />
    <glyph glyph-name="Gbreve" unicode="&#x11e;" horiz-adv-x="784" 
d="M421 -12q-82 0 -149.5 27t-116 75t-75.5 114t-27 144v2q0 75 27.5 140.5t76.5 115t116 78t147 28.5t135.5 -17.5t103.5 -50.5q11 -8 21.5 -23.5t10.5 -38.5q0 -32 -22 -54t-54 -22q-17 0 -28 5t-19 11q-32 23 -67 35.5t-86 12.5q-42 0 -78.5 -17.5t-64 -47t-43 -69
t-15.5 -84.5v-2q0 -48 15.5 -88.5t44 -70.5t67 -46.5t85.5 -16.5q86 0 145 42v100h-104q-28 0 -47.5 19t-19.5 47t19.5 47.5t47.5 19.5h176q32 0 54.5 -22.5t22.5 -54.5v-170q0 -67 -54 -98q-43 -26 -104.5 -48t-140.5 -22zM412 763q-60 0 -102 22.5t-65 62.5q-7 13 -7 28
q0 22 15 37t37 15q18 0 28.5 -8t16.5 -18q11 -18 29 -29t48 -11t48 11t29 29q6 10 16.5 18t28.5 8q22 0 37 -15t15 -37q0 -15 -7 -28q-23 -40 -65 -62.5t-102 -22.5z" />
    <glyph glyph-name="gbreve" unicode="&#x11f;" 
d="M308 -162q-54 0 -101 9t-95 28q-20 8 -31.5 23t-11.5 36q0 26 18 44t44 18q12 0 25 -5q33 -15 69 -23.5t79 -8.5q78 0 115.5 37t37.5 109v26q-34 -42 -74 -64.5t-101 -22.5q-47 0 -90 16.5t-76 48.5t-52.5 78.5t-19.5 106.5v2q0 60 20 106.5t53 78.5t76 48.5t89 16.5
q62 0 102 -23t71 -57v1q0 31 22 53t54 22t54 -22t22 -54v-345q0 -143 -68 -211q-38 -38 -95.5 -55t-135.5 -17zM326 170q28 0 52 9t41.5 25.5t27.5 39.5t10 50v2q0 27 -10 50t-27.5 39.5t-41.5 25.5t-52 9t-51.5 -9t-41 -25.5t-27.5 -39.5t-10 -50v-2q0 -57 36.5 -90.5
t93.5 -33.5zM325 593q-60 0 -102 22.5t-65 62.5q-7 13 -7 28q0 22 15 37t37 15q18 0 28.5 -8t16.5 -18q11 -18 29 -29t48 -11t48 11t29 29q6 10 16.5 18t28.5 8q22 0 37 -15t15 -37q0 -15 -7 -28q-23 -40 -65 -62.5t-102 -22.5z" />
    <glyph glyph-name="Gdotaccent" unicode="&#x120;" horiz-adv-x="784" 
d="M421 -12q-82 0 -149.5 27t-116 75t-75.5 114t-27 144v2q0 75 27.5 140.5t76.5 115t116 78t147 28.5t135.5 -17.5t103.5 -50.5q11 -8 21.5 -23.5t10.5 -38.5q0 -32 -22 -54t-54 -22q-17 0 -28 5t-19 11q-32 23 -67 35.5t-86 12.5q-42 0 -78.5 -17.5t-64 -47t-43 -69
t-15.5 -84.5v-2q0 -48 15.5 -88.5t44 -70.5t67 -46.5t85.5 -16.5q86 0 145 42v100h-104q-28 0 -47.5 19t-19.5 47t19.5 47.5t47.5 19.5h176q32 0 54.5 -22.5t22.5 -54.5v-170q0 -67 -54 -98q-43 -26 -104.5 -48t-140.5 -22zM493 832q0 -33 -24 -53t-57 -20t-57 20t-24 53v2
q0 33 24 53t57 20t57 -20t24 -53v-2z" />
    <glyph glyph-name="gdotaccent" unicode="&#x121;" 
d="M308 -162q-54 0 -101 9t-95 28q-20 8 -31.5 23t-11.5 36q0 26 18 44t44 18q12 0 25 -5q33 -15 69 -23.5t79 -8.5q78 0 115.5 37t37.5 109v26q-34 -42 -74 -64.5t-101 -22.5q-47 0 -90 16.5t-76 48.5t-52.5 78.5t-19.5 106.5v2q0 60 20 106.5t53 78.5t76 48.5t89 16.5
q62 0 102 -23t71 -57v1q0 31 22 53t54 22t54 -22t22 -54v-345q0 -143 -68 -211q-38 -38 -95.5 -55t-135.5 -17zM326 170q28 0 52 9t41.5 25.5t27.5 39.5t10 50v2q0 27 -10 50t-27.5 39.5t-41.5 25.5t-52 9t-51.5 -9t-41 -25.5t-27.5 -39.5t-10 -50v-2q0 -57 36.5 -90.5
t93.5 -33.5zM406 662q0 -33 -24 -53t-57 -20t-57 20t-24 53v2q0 33 24 53t57 20t57 -20t24 -53v-2z" />
    <glyph glyph-name="Gcommaaccent" unicode="&#x122;" horiz-adv-x="784" 
d="M421 -12q-82 0 -149.5 27t-116 75t-75.5 114t-27 144v2q0 75 27.5 140.5t76.5 115t116 78t147 28.5t135.5 -17.5t103.5 -50.5q11 -8 21.5 -23.5t10.5 -38.5q0 -32 -22 -54t-54 -22q-17 0 -28 5t-19 11q-32 23 -67 35.5t-86 12.5q-42 0 -78.5 -17.5t-64 -47t-43 -69
t-15.5 -84.5v-2q0 -48 15.5 -88.5t44 -70.5t67 -46.5t85.5 -16.5q86 0 145 42v100h-104q-28 0 -47.5 19t-19.5 47t19.5 47.5t47.5 19.5h176q32 0 54.5 -22.5t22.5 -54.5v-170q0 -67 -54 -98q-43 -26 -104.5 -48t-140.5 -22zM417 -179q-26 5 -44.5 19.5t-18.5 40.5v1
q0 26 19.5 43t52.5 17q35 0 55.5 -22.5t20.5 -59.5v-3q0 -77 -51 -119q-19 -17 -45 -26t-51 -9q-17 0 -24.5 7.5t-7.5 17.5q0 20 25 24q70 15 69 69z" />
    <glyph glyph-name="gcommaaccent" unicode="&#x123;" 
d="M308 -162q-54 0 -101 9t-95 28q-20 8 -31.5 23t-11.5 36q0 26 18 44t44 18q12 0 25 -5q33 -15 69 -23.5t79 -8.5q78 0 115.5 37t37.5 109v26q-34 -42 -74 -64.5t-101 -22.5q-47 0 -90 16.5t-76 48.5t-52.5 78.5t-19.5 106.5v2q0 60 20 106.5t53 78.5t76 48.5t89 16.5
q62 0 102 -23t71 -57v1q0 31 22 53t54 22t54 -22t22 -54v-345q0 -143 -68 -211q-38 -38 -95.5 -55t-135.5 -17zM326 170q28 0 52 9t41.5 25.5t27.5 39.5t10 50v2q0 27 -10 50t-27.5 39.5t-41.5 25.5t-52 9t-51.5 -9t-41 -25.5t-27.5 -39.5t-10 -50v-2q0 -57 36.5 -90.5
t93.5 -33.5zM334 710q26 -5 44.5 -19.5t18.5 -40.5v-1q0 -26 -19.5 -43t-52.5 -17q-35 0 -55.5 22.5t-20.5 59.5v3q0 77 51 119q19 17 45 26t51 9q17 0 24.5 -7.5t7.5 -17.5q0 -20 -25 -24q-71 -15 -69 -69z" />
    <glyph glyph-name="Hbar" unicode="&#x126;" horiz-adv-x="760" 
d="M84 512h-23q-22 0 -37.5 15t-15.5 37t15.5 37.5t37.5 15.5h23v12q0 32 22.5 54.5t54.5 22.5t54.5 -22.5t22.5 -54.5v-12h284v12q0 32 22.5 54.5t54.5 22.5t54.5 -22.5t22.5 -54.5v-12h21q22 0 37.5 -15.5t15.5 -37.5t-15.5 -37t-37.5 -15h-21v-441q0 -32 -22.5 -54.5
t-54.5 -22.5t-54.5 22.5t-22.5 54.5v210h-284v-210q0 -32 -22.5 -54.5t-54.5 -22.5t-54.5 22.5t-22.5 54.5v441zM522 423v89h-284v-89h284z" />
    <glyph glyph-name="hbar" unicode="&#x127;" horiz-adv-x="623" 
d="M68 594h-32q-17 0 -29.5 12.5t-12.5 29.5t12.5 29.5t29.5 12.5h34q6 25 26.5 41.5t47.5 16.5t47.5 -16.5t26.5 -41.5h121q17 0 29.5 -12.5t12.5 -29.5t-12.5 -29.5t-29.5 -12.5h-119v-134q26 34 63 60t94 26q88 0 135 -52.5t47 -146.5v-277q0 -32 -22 -54t-54 -22t-54 22
t-22 54v229q0 54 -23.5 81.5t-68.5 27.5t-70 -27.5t-25 -81.5v-229q0 -32 -22 -54t-54 -22t-54 22t-22 54v524z" />
    <glyph glyph-name="Itilde" unicode="&#x128;" horiz-adv-x="336" 
d="M91 791q-8 -10 -15.5 -17.5t-27.5 -6.5q-17 2 -28.5 15.5t-10.5 33.5q2 6 2 10q20 49 43 68t57 18q16 -1 35.5 -8.5t33.5 -14.5q4 -2 9.5 -5t9.5 -5q2 -1 3.5 -1t3.5 -1l14 -4q5 1 9.5 4t8.5 11l2 6q8 9 17 15.5t27 5.5q20 -3 30.5 -15.5t10.5 -30.5q0 -3 -2 -11t-4 -12
v-2q-17 -45 -40.5 -61t-61.5 -14q-17 1 -36 9t-36 17q-2 1 -3.5 1t-3.5 1l-4 2q-6 0 -7 3l-1 1q-12 5 -16 5q-6 0 -9.5 -2t-6.5 -10zM91 629q0 32 22.5 54.5t54.5 22.5t54.5 -22.5t22.5 -54.5v-558q0 -32 -22.5 -54.5t-54.5 -22.5t-54.5 22.5t-22.5 54.5v558z" />
    <glyph glyph-name="itilde" unicode="&#x129;" horiz-adv-x="302" 
d="M75 466q0 32 22 54t54 22t54 -22t22 -54v-396q0 -32 -22 -54t-54 -22t-54 22t-22 54v396zM78 624q-8 -10 -15.5 -17.5t-27.5 -6.5q-17 2 -28.5 15.5t-10.5 33.5q2 6 2 10q20 49 43 68t57 18q16 -1 35.5 -8.5t33.5 -14.5q4 -2 9.5 -5t9.5 -5q2 -1 3.5 -1t3.5 -1l14 -4
q5 1 9.5 4t8.5 11l2 6q8 9 17 15.5t27 5.5q20 -3 30.5 -15.5t10.5 -30.5q0 -3 -2 -11t-4 -12v-2q-17 -45 -40.5 -61t-61.5 -14q-17 1 -36 9t-36 17q-2 1 -3.5 1t-3.5 1l-4 2q-6 0 -7 3l-1 1q-12 5 -16 5q-6 0 -9.5 -2t-6.5 -10z" />
    <glyph glyph-name="Imacron" unicode="&#x12a;" horiz-adv-x="336" 
d="M91 629q0 32 22.5 54.5t54.5 22.5t54.5 -22.5t22.5 -54.5v-558q0 -32 -22.5 -54.5t-54.5 -22.5t-54.5 22.5t-22.5 54.5v558zM35 760q-22 0 -37.5 15t-15.5 37t15.5 37.5t37.5 15.5h266q22 0 37.5 -15.5t15.5 -37.5t-15.5 -37t-37.5 -15h-266z" />
    <glyph glyph-name="imacron" unicode="&#x12b;" horiz-adv-x="302" 
d="M75 466q0 32 22 54t54 22t54 -22t22 -54v-396q0 -32 -22 -54t-54 -22t-54 22t-22 54v396zM18 600q-22 0 -37.5 15t-15.5 37t15.5 37.5t37.5 15.5h266q22 0 37.5 -15.5t15.5 -37.5t-15.5 -37t-37.5 -15h-266z" />
    <glyph glyph-name="Ibreve" unicode="&#x12c;" horiz-adv-x="336" 
d="M91 629q0 32 22.5 54.5t54.5 22.5t54.5 -22.5t22.5 -54.5v-558q0 -32 -22.5 -54.5t-54.5 -22.5t-54.5 22.5t-22.5 54.5v558zM168 753q-60 0 -102 22.5t-65 62.5q-7 13 -7 28q0 22 15 37t37 15q18 0 28.5 -8t16.5 -18q11 -18 29 -29t48 -11t48 11t29 29q6 10 16.5 18
t28.5 8q22 0 37 -15t15 -37q0 -15 -7 -28q-23 -40 -65 -62.5t-102 -22.5z" />
    <glyph glyph-name="ibreve" unicode="&#x12d;" horiz-adv-x="302" 
d="M75 466q0 32 22 54t54 22t54 -22t22 -54v-396q0 -32 -22 -54t-54 -22t-54 22t-22 54v396zM151 593q-60 0 -102 22.5t-65 62.5q-7 13 -7 28q0 22 15 37t37 15q18 0 28.5 -8t16.5 -18q11 -18 29 -29t48 -11t48 11t29 29q6 10 16.5 18t28.5 8q22 0 37 -15t15 -37
q0 -15 -7 -28q-23 -40 -65 -62.5t-102 -22.5z" />
    <glyph glyph-name="Iogonek" unicode="&#x12e;" horiz-adv-x="336" 
d="M73 -80q0 23 10.5 45t33.5 48q-26 24 -26 58v558q0 32 22.5 54.5t54.5 22.5t54.5 -22.5t22.5 -54.5v-558q0 -17 -6.5 -30.5t-21.5 -30.5q-20 -23 -27.5 -37.5t-7.5 -28.5q0 -17 10 -25.5t30 -13.5q36 -9 36 -36q0 -36 -48 -36q-63 0 -100 22t-37 65z" />
    <glyph glyph-name="iogonek" unicode="&#x12f;" horiz-adv-x="302" 
d="M227 67q0 -18 -6.5 -30.5t-21.5 -27.5q-21 -21 -29 -37t-8 -30q0 -15 9 -23.5t29 -13.5q36 -9 36 -36q0 -36 -48 -36q-63 0 -99.5 21.5t-36.5 60.5q0 28 14.5 52.5t35.5 44.5q-27 22 -27 58v396q0 32 22 54t54 22t54 -22t22 -54v-399zM66 664q0 33 24.5 52t60.5 19
t60.5 -19t24.5 -52v-2q0 -33 -24.5 -52.5t-60.5 -19.5t-60.5 19.5t-24.5 52.5v2z" />
    <glyph glyph-name="Idotaccent" unicode="&#x130;" horiz-adv-x="336" 
d="M91 629q0 32 22.5 54.5t54.5 22.5t54.5 -22.5t22.5 -54.5v-558q0 -32 -22.5 -54.5t-54.5 -22.5t-54.5 22.5t-22.5 54.5v558zM249 822q0 -33 -24 -53t-57 -20t-57 20t-24 53v2q0 33 24 53t57 20t57 -20t24 -53v-2z" />
    <glyph glyph-name="dotlessi" unicode="&#x131;" horiz-adv-x="302" 
d="M75 466q0 32 22 54t54 22t54 -22t22 -54v-396q0 -32 -22 -54t-54 -22t-54 22t-22 54v396z" />
    <glyph glyph-name="Kcommaaccent" unicode="&#x136;" horiz-adv-x="712" 
d="M84 629q0 32 22.5 54.5t54.5 22.5t54.5 -22.5t22.5 -54.5v-235l284 282q14 14 29.5 22t35.5 8q32 0 51.5 -21t19.5 -50q0 -18 -7.5 -32t-20.5 -26l-197 -184l215 -270q9 -11 15 -24t6 -30q0 -32 -22 -53.5t-56 -21.5q-23 0 -37.5 10t-27.5 27l-200 262l-88 -82v-140
q0 -32 -22.5 -54.5t-54.5 -22.5t-54.5 22.5t-22.5 54.5v558zM371 -169q-26 5 -44.5 19.5t-18.5 40.5v1q0 26 19.5 43t52.5 17q35 0 55.5 -22.5t20.5 -59.5v-3q0 -77 -51 -119q-19 -17 -45 -26t-51 -9q-17 0 -24.5 7.5t-7.5 17.5q0 20 25 24q70 15 69 69z" />
    <glyph glyph-name="kcommaaccent" unicode="&#x137;" horiz-adv-x="588" 
d="M68 660q0 32 22 54t54 22t54 -22t22 -54v-332l190 180q17 16 32 25t35 9q31 0 49 -21t18 -47q0 -20 -9.5 -35.5t-25.5 -30.5l-120 -103l143 -193q19 -25 19 -49q0 -31 -21 -50t-50 -19q-23 0 -37.5 8t-28.5 27l-133 183l-61 -55v-87q0 -32 -22 -54t-54 -22t-54 22t-22 54
v590zM312 -174q-26 5 -44.5 19.5t-18.5 40.5v1q0 26 19.5 43t52.5 17q35 0 55.5 -22.5t20.5 -59.5v-3q0 -77 -51 -119q-19 -17 -45 -26t-51 -9q-17 0 -24.5 7.5t-7.5 17.5q0 20 25 24q70 15 69 69z" />
    <glyph glyph-name="Lacute" unicode="&#x139;" horiz-adv-x="619" 
d="M84 629q0 32 22.5 54.5t54.5 22.5t54.5 -22.5t22.5 -54.5v-489h285q29 0 49.5 -20.5t20.5 -49.5t-20.5 -49.5t-49.5 -20.5h-362q-32 0 -54.5 22.5t-22.5 54.5v552zM181 749q-17 0 -27.5 7t-10.5 19q0 7 3 14t7 13l55 86q10 16 24 25t33 9q14 0 29 -4t27.5 -10.5
t20.5 -14.5t8 -17q0 -11 -5.5 -19.5t-14.5 -16.5l-62 -58q-22 -20 -41.5 -26.5t-45.5 -6.5z" />
    <glyph glyph-name="lacute" unicode="&#x13a;" horiz-adv-x="302" 
d="M75 660q0 32 22 54t54 22t54 -22t22 -54v-590q0 -32 -22 -54t-54 -22t-54 22t-22 54v590zM147 764q-17 0 -27.5 7t-10.5 19q0 7 3 14t7 13l55 86q10 16 24 25t33 9q14 0 29 -4t27.5 -10.5t20.5 -14.5t8 -17q0 -11 -5.5 -19.5t-14.5 -16.5l-62 -58q-22 -20 -41.5 -26.5
t-45.5 -6.5z" />
    <glyph glyph-name="Lcommaaccent" unicode="&#x13b;" horiz-adv-x="619" 
d="M84 629q0 32 22.5 54.5t54.5 22.5t54.5 -22.5t22.5 -54.5v-489h285q29 0 49.5 -20.5t20.5 -49.5t-20.5 -49.5t-49.5 -20.5h-362q-32 0 -54.5 22.5t-22.5 54.5v552zM340 -174q-26 5 -44.5 19.5t-18.5 40.5v1q0 26 19.5 43t52.5 17q35 0 55.5 -22.5t20.5 -59.5v-3
q0 -77 -51 -119q-19 -17 -45 -26t-51 -9q-17 0 -24.5 7.5t-7.5 17.5q0 20 25 24q70 15 69 69z" />
    <glyph glyph-name="lcommaaccent" unicode="&#x13c;" horiz-adv-x="302" 
d="M75 660q0 32 22 54t54 22t54 -22t22 -54v-590q0 -32 -22 -54t-54 -22t-54 22t-22 54v590zM156 -174q-26 5 -44.5 19.5t-18.5 40.5v1q0 26 19.5 43t52.5 17q35 0 55.5 -22.5t20.5 -59.5v-3q0 -77 -51 -119q-19 -17 -45 -26t-51 -9q-17 0 -24.5 7.5t-7.5 17.5q0 20 25 24
q70 15 69 69z" />
    <glyph glyph-name="Lcaron" unicode="&#x13d;" horiz-adv-x="619" 
d="M84 629q0 32 22.5 54.5t54.5 22.5t54.5 -22.5t22.5 -54.5v-489h285q29 0 49.5 -20.5t20.5 -49.5t-20.5 -49.5t-49.5 -20.5h-362q-32 0 -54.5 22.5t-22.5 54.5v552zM316 650q0 21 14 36t37 15h20q16 0 26.5 -8t10.5 -25q0 -12 -4 -23l-38 -132q-8 -27 -35 -27
q-14 0 -22.5 9.5t-8.5 24.5v130z" />
    <glyph glyph-name="lcaron" unicode="&#x13e;" horiz-adv-x="302" 
d="M75 660q0 32 22 54t54 22t54 -22t22 -54v-590q0 -32 -22 -54t-54 -22t-54 22t-22 54v590zM277 685q0 21 14 36t37 15h20q16 0 26.5 -8t10.5 -25q0 -12 -4 -23l-38 -132q-8 -27 -35 -27q-14 0 -22.5 9.5t-8.5 24.5v130z" />
    <glyph glyph-name="Ldot" unicode="&#x13f;" horiz-adv-x="619" 
d="M84 629q0 32 22.5 54.5t54.5 22.5t54.5 -22.5t22.5 -54.5v-489h285q29 0 49.5 -20.5t20.5 -49.5t-20.5 -49.5t-49.5 -20.5h-362q-32 0 -54.5 22.5t-22.5 54.5v552zM564 382q0 -33 -24 -53t-57 -20t-57 20t-24 53v2q0 33 24 53t57 20t57 -20t24 -53v-2z" />
    <glyph glyph-name="ldot" unicode="&#x140;" horiz-adv-x="392" 
d="M410 374q0 -26 -17.5 -44.5t-45.5 -18.5t-45.5 18.5t-17.5 44.5v9q0 26 17.5 44.5t45.5 18.5t45.5 -18.5t17.5 -44.5v-9zM75 660q0 32 22 54t54 22t54 -22t22 -54v-590q0 -32 -22 -54t-54 -22t-54 22t-22 54v590z" />
    <glyph glyph-name="Lslash" unicode="&#x141;" horiz-adv-x="649" 
d="M266 307v-167h287q29 0 49.5 -20.5t20.5 -49.5t-20.5 -49.5t-49.5 -20.5h-362q-32 0 -54.5 22.5t-22.5 54.5v186q-5 -1 -8 -1h-5q-29 0 -48.5 20t-19.5 49q0 25 14 42t35 23l32 9v224q0 32 22 54.5t54 22.5t54 -22.5t22 -54.5v-178l108 32q6 2 12.5 2.5t9.5 0.5
q29 0 48.5 -20t19.5 -49q0 -25 -14 -42t-35 -23z" />
    <glyph glyph-name="lslash" unicode="&#x142;" horiz-adv-x="362" 
d="M256 324v-254q0 -32 -21.5 -54t-53.5 -22t-53.5 22t-21.5 54v209q-5 -1 -10 -1h-7q-29 0 -48.5 20t-19.5 49q0 25 14 42t35 23l36 10v238q0 32 21.5 54t53.5 22t53.5 -22t21.5 -54v-193q5 2 10 2h7q29 0 48.5 -20t19.5 -49q0 -25 -14 -42t-35 -23z" />
    <glyph glyph-name="Nacute" unicode="&#x143;" horiz-adv-x="790" 
d="M84 627q0 32 22.5 54.5t54.5 22.5h16q28 0 46 -12.5t34 -32.5l297 -390v361q0 32 22 54t54 22t54 -22t22 -54v-557q0 -32 -22.5 -54.5t-54.5 -22.5h-5q-28 0 -46 12.5t-34 32.5l-308 404v-375q0 -32 -22 -54t-54 -22t-54 22t-22 54v557zM391 749q-17 0 -27.5 7t-10.5 19
q0 7 3 14t7 13l55 86q10 16 24 25t33 9q14 0 29 -4t27.5 -10.5t20.5 -14.5t8 -17q0 -11 -5.5 -19.5t-14.5 -16.5l-62 -58q-22 -20 -41.5 -26.5t-45.5 -6.5z" />
    <glyph glyph-name="nacute" unicode="&#x144;" horiz-adv-x="623" 
d="M68 466q0 32 22 54t54 22t54 -22t22 -54v-6q26 34 63 60t94 26q88 0 135 -52.5t47 -146.5v-277q0 -32 -22 -54t-54 -22t-54 22t-22 54v229q0 54 -23.5 81.5t-68.5 27.5t-70 -27.5t-25 -81.5v-229q0 -32 -22 -54t-54 -22t-54 22t-22 54v396zM309 589q-17 0 -27.5 7
t-10.5 19q0 7 3 14t7 13l55 86q10 16 24 25t33 9q14 0 29 -4t27.5 -10.5t20.5 -14.5t8 -17q0 -11 -5.5 -19.5t-14.5 -16.5l-62 -58q-22 -20 -41.5 -26.5t-45.5 -6.5z" />
    <glyph glyph-name="Ncommaaccent" unicode="&#x145;" horiz-adv-x="790" 
d="M84 627q0 32 22.5 54.5t54.5 22.5h16q28 0 46 -12.5t34 -32.5l297 -390v361q0 32 22 54t54 22t54 -22t22 -54v-557q0 -32 -22.5 -54.5t-54.5 -22.5h-5q-28 0 -46 12.5t-34 32.5l-308 404v-375q0 -32 -22 -54t-54 -22t-54 22t-22 54v557zM400 -169q-26 5 -44.5 19.5
t-18.5 40.5v1q0 26 19.5 43t52.5 17q35 0 55.5 -22.5t20.5 -59.5v-3q0 -77 -51 -119q-19 -17 -45 -26t-51 -9q-17 0 -24.5 7.5t-7.5 17.5q0 20 25 24q70 15 69 69z" />
    <glyph glyph-name="ncommaaccent" unicode="&#x146;" horiz-adv-x="623" 
d="M68 466q0 32 22 54t54 22t54 -22t22 -54v-6q26 34 63 60t94 26q88 0 135 -52.5t47 -146.5v-277q0 -32 -22 -54t-54 -22t-54 22t-22 54v229q0 54 -23.5 81.5t-68.5 27.5t-70 -27.5t-25 -81.5v-229q0 -32 -22 -54t-54 -22t-54 22t-22 54v396zM318 -174q-26 5 -44.5 19.5
t-18.5 40.5v1q0 26 19.5 43t52.5 17q35 0 55.5 -22.5t20.5 -59.5v-3q0 -77 -51 -119q-19 -17 -45 -26t-51 -9q-17 0 -24.5 7.5t-7.5 17.5q0 20 25 24q70 15 69 69z" />
    <glyph glyph-name="Ncaron" unicode="&#x147;" horiz-adv-x="790" 
d="M84 627q0 32 22.5 54.5t54.5 22.5h16q28 0 46 -12.5t34 -32.5l297 -390v361q0 32 22 54t54 22t54 -22t22 -54v-557q0 -32 -22.5 -54.5t-54.5 -22.5h-5q-28 0 -46 12.5t-34 32.5l-308 404v-375q0 -32 -22 -54t-54 -22t-54 22t-22 54v557zM443 885q25 20 45.5 26.5
t46.5 6.5q14 0 23.5 -6t9.5 -18q0 -7 -5 -14.5t-10 -14.5l-63 -81q-13 -16 -29 -25t-42 -9h-48q-26 0 -42 9t-29 25l-63 81q-5 7 -10 14.5t-5 14.5q0 12 10.5 18t24.5 6q26 0 46.5 -6.5t45.5 -26.5l47 -39z" />
    <glyph glyph-name="ncaron" unicode="&#x148;" horiz-adv-x="623" 
d="M68 466q0 32 22 54t54 22t54 -22t22 -54v-6q26 34 63 60t94 26q88 0 135 -52.5t47 -146.5v-277q0 -32 -22 -54t-54 -22t-54 22t-22 54v229q0 54 -23.5 81.5t-68.5 27.5t-70 -27.5t-25 -81.5v-229q0 -32 -22 -54t-54 -22t-54 22t-22 54v396zM361 725q25 20 45.5 26.5
t46.5 6.5q14 0 23.5 -6t9.5 -18q0 -7 -5 -14.5t-10 -14.5l-63 -81q-13 -16 -29 -25t-42 -9h-48q-26 0 -42 9t-29 25l-63 81q-5 7 -10 14.5t-5 14.5q0 12 10.5 18t24.5 6q26 0 46.5 -6.5t45.5 -26.5l47 -39z" />
    <glyph glyph-name="Omacron" unicode="&#x14c;" horiz-adv-x="850" 
d="M424 -12q-81 0 -149 28.5t-117.5 77t-77 114t-27.5 140.5v2q0 75 28 140.5t77.5 115t118 78t149.5 28.5t149 -28.5t117.5 -77t77 -114t27.5 -140.5v-2q0 -75 -28 -140.5t-77.5 -115t-118 -78t-149.5 -28.5zM426 130q46 0 85 17t66.5 47t43 69.5t15.5 84.5v2
q0 45 -15.5 85t-44 70t-67.5 47.5t-85 17.5q-47 0 -85.5 -17t-66 -47t-43 -69.5t-15.5 -84.5v-2q0 -45 15.5 -85t44 -70t67 -47.5t85.5 -17.5zM292 770q-22 0 -37.5 15t-15.5 37t15.5 37.5t37.5 15.5h266q22 0 37.5 -15.5t15.5 -37.5t-15.5 -37t-37.5 -15h-266z" />
    <glyph glyph-name="omacron" unicode="&#x14d;" horiz-adv-x="664" 
d="M331 -12q-62 0 -115 21.5t-91.5 59t-60.5 88t-22 108.5v2q0 58 22 108.5t61 88.5t92 60t116 22q62 0 115 -21.5t91.5 -59t60.5 -88t22 -108.5v-2q0 -58 -22 -108.5t-61 -88.5t-92 -60t-116 -22zM333 119q33 0 58.5 11.5t43.5 31.5t27.5 46.5t9.5 56.5v2q0 30 -10 56.5
t-29 47t-45 32.5t-57 12q-33 0 -58.5 -11.5t-43.5 -31.5t-27.5 -46.5t-9.5 -56.5v-2q0 -30 10 -56.5t29 -47t44.5 -32.5t57.5 -12zM199 600q-22 0 -37.5 15t-15.5 37t15.5 37.5t37.5 15.5h266q22 0 37.5 -15.5t15.5 -37.5t-15.5 -37t-37.5 -15h-266z" />
    <glyph glyph-name="Obreve" unicode="&#x14e;" horiz-adv-x="850" 
d="M424 -12q-81 0 -149 28.5t-117.5 77t-77 114t-27.5 140.5v2q0 75 28 140.5t77.5 115t118 78t149.5 28.5t149 -28.5t117.5 -77t77 -114t27.5 -140.5v-2q0 -75 -28 -140.5t-77.5 -115t-118 -78t-149.5 -28.5zM426 130q46 0 85 17t66.5 47t43 69.5t15.5 84.5v2
q0 45 -15.5 85t-44 70t-67.5 47.5t-85 17.5q-47 0 -85.5 -17t-66 -47t-43 -69.5t-15.5 -84.5v-2q0 -45 15.5 -85t44 -70t67 -47.5t85.5 -17.5zM425 763q-60 0 -102 22.5t-65 62.5q-7 13 -7 28q0 22 15 37t37 15q18 0 28.5 -8t16.5 -18q11 -18 29 -29t48 -11t48 11t29 29
q6 10 16.5 18t28.5 8q22 0 37 -15t15 -37q0 -15 -7 -28q-23 -40 -65 -62.5t-102 -22.5z" />
    <glyph glyph-name="obreve" unicode="&#x14f;" horiz-adv-x="664" 
d="M331 -12q-62 0 -115 21.5t-91.5 59t-60.5 88t-22 108.5v2q0 58 22 108.5t61 88.5t92 60t116 22q62 0 115 -21.5t91.5 -59t60.5 -88t22 -108.5v-2q0 -58 -22 -108.5t-61 -88.5t-92 -60t-116 -22zM333 119q33 0 58.5 11.5t43.5 31.5t27.5 46.5t9.5 56.5v2q0 30 -10 56.5
t-29 47t-45 32.5t-57 12q-33 0 -58.5 -11.5t-43.5 -31.5t-27.5 -46.5t-9.5 -56.5v-2q0 -30 10 -56.5t29 -47t44.5 -32.5t57.5 -12zM332 593q-60 0 -102 22.5t-65 62.5q-7 13 -7 28q0 22 15 37t37 15q18 0 28.5 -8t16.5 -18q11 -18 29 -29t48 -11t48 11t29 29q6 10 16.5 18
t28.5 8q22 0 37 -15t15 -37q0 -15 -7 -28q-23 -40 -65 -62.5t-102 -22.5z" />
    <glyph glyph-name="Ohungarumlaut" unicode="&#x150;" horiz-adv-x="850" 
d="M424 -12q-81 0 -149 28.5t-117.5 77t-77 114t-27.5 140.5v2q0 75 28 140.5t77.5 115t118 78t149.5 28.5t149 -28.5t117.5 -77t77 -114t27.5 -140.5v-2q0 -75 -28 -140.5t-77.5 -115t-118 -78t-149.5 -28.5zM426 130q46 0 85 17t66.5 47t43 69.5t15.5 84.5v2
q0 45 -15.5 85t-44 70t-67.5 47.5t-85 17.5q-47 0 -85.5 -17t-66 -47t-43 -69.5t-15.5 -84.5v-2q0 -45 15.5 -85t44 -70t67 -47.5t85.5 -17.5zM511 759q-36 0 -36 26q0 7 3 14t7 13l55 86q10 16 22.5 25t31.5 9q14 0 29 -4t27 -10.5t20 -14.5t8 -17q0 -11 -5.5 -19.5
t-14.5 -16.5l-62 -58q-22 -20 -40.5 -26.5t-44.5 -6.5zM315 759q-36 0 -36 26q0 7 3 14t7 13l55 86q10 16 22.5 25t31.5 9q14 0 29 -4t27 -10.5t20 -14.5t8 -17q0 -11 -5.5 -19.5t-14.5 -16.5l-62 -58q-22 -20 -40.5 -26.5t-44.5 -6.5z" />
    <glyph glyph-name="ohungarumlaut" unicode="&#x151;" horiz-adv-x="664" 
d="M331 -12q-62 0 -115 21.5t-91.5 59t-60.5 88t-22 108.5v2q0 58 22 108.5t61 88.5t92 60t116 22q62 0 115 -21.5t91.5 -59t60.5 -88t22 -108.5v-2q0 -58 -22 -108.5t-61 -88.5t-92 -60t-116 -22zM333 119q33 0 58.5 11.5t43.5 31.5t27.5 46.5t9.5 56.5v2q0 30 -10 56.5
t-29 47t-45 32.5t-57 12q-33 0 -58.5 -11.5t-43.5 -31.5t-27.5 -46.5t-9.5 -56.5v-2q0 -30 10 -56.5t29 -47t44.5 -32.5t57.5 -12zM418 589q-36 0 -36 26q0 7 3 14t7 13l55 86q10 16 22.5 25t31.5 9q14 0 29 -4t27 -10.5t20 -14.5t8 -17q0 -11 -5.5 -19.5t-14.5 -16.5
l-62 -58q-22 -20 -40.5 -26.5t-44.5 -6.5zM222 589q-36 0 -36 26q0 7 3 14t7 13l55 86q10 16 22.5 25t31.5 9q14 0 29 -4t27 -10.5t20 -14.5t8 -17q0 -11 -5.5 -19.5t-14.5 -16.5l-62 -58q-22 -20 -40.5 -26.5t-44.5 -6.5z" />
    <glyph glyph-name="OE" unicode="&#x152;" horiz-adv-x="1075" 
d="M425 0q-83 0 -151 26.5t-117.5 73.5t-76.5 110.5t-27 137.5v2q0 74 27 138t76.5 111t117.5 74t151 27h529q29 0 49 -20t20 -49t-20 -48.5t-49 -19.5h-287v-142h242q29 0 49 -20t20 -49t-20 -48.5t-49 -19.5h-242v-147h292q29 0 49 -20t20 -49t-20 -48.5t-49 -19.5h-534z
M514 139v422h-89q-47 0 -86 -15t-67 -43t-43 -66.5t-15 -84.5v-2q0 -47 15 -85.5t43 -66.5t67 -43.5t86 -15.5h89z" />
    <glyph glyph-name="oe" unicode="&#x153;" horiz-adv-x="1033" 
d="M840 310q-7 51 -36 82.5t-77 31.5t-77.5 -31t-38.5 -83h229zM328 119q31 0 56 11.5t42.5 31.5t26.5 46.5t9 56.5v2q0 30 -10 56.5t-28 47t-43 32.5t-55 12q-32 0 -56.5 -12t-42 -32t-26.5 -46.5t-9 -55.5v-2q0 -30 10 -56.5t28 -47t43 -32.5t55 -12zM928 53
q-35 -30 -80.5 -47.5t-105.5 -17.5q-66 0 -121 24t-93 67q-37 -42 -90 -66.5t-116 -24.5q-57 0 -108 21.5t-89.5 59t-60.5 88t-22 108.5v2q0 58 22.5 108.5t61 88.5t90.5 60t112 22q63 0 114.5 -23.5t87.5 -65.5q35 42 85.5 65.5t111.5 23.5q67 0 116 -24.5t80.5 -62.5
t46.5 -83.5t15 -87.5q0 -33 -20.5 -53t-50.5 -20h-301q11 -52 45.5 -78.5t85.5 -26.5q32 0 58.5 9.5t49.5 26.5q8 6 16.5 9t20.5 3q26 0 42.5 -17t16.5 -43q0 -15 -6 -26t-14 -19z" />
    <glyph glyph-name="Racute" unicode="&#x154;" horiz-adv-x="723" 
d="M84 623q0 32 22.5 54.5t54.5 22.5h243q133 0 204 -71q60 -60 60 -160v-2q0 -84 -38 -135.5t-102 -77.5l107 -130q11 -14 18 -27.5t7 -31.5q0 -32 -22.5 -51.5t-50.5 -19.5q-26 0 -44 11.5t-32 28.5l-150 190h-123v-153q0 -32 -22.5 -54.5t-54.5 -22.5t-54.5 22.5
t-22.5 54.5v552zM394 360q57 0 87.5 27t30.5 72v2q0 51 -32 75.5t-89 24.5h-153v-201h156zM372 749q-17 0 -27.5 7t-10.5 19q0 7 3 14t7 13l55 86q10 16 24 25t33 9q14 0 29 -4t27.5 -10.5t20.5 -14.5t8 -17q0 -11 -5.5 -19.5t-14.5 -16.5l-62 -58q-22 -20 -41.5 -26.5
t-45.5 -6.5z" />
    <glyph glyph-name="racute" unicode="&#x155;" horiz-adv-x="418" 
d="M68 466q0 32 22 54t54 22t54 -22t22 -54v-24q17 39 43 69.5t60 30.5q35 0 54.5 -21t19.5 -53q0 -30 -17 -48t-40 -23q-58 -14 -89 -59t-31 -126v-142q0 -32 -22 -54t-54 -22t-54 22t-22 54v396zM225 589q-17 0 -27.5 7t-10.5 19q0 7 3 14t7 13l55 86q10 16 24 25t33 9
q14 0 29 -4t27.5 -10.5t20.5 -14.5t8 -17q0 -11 -5.5 -19.5t-14.5 -16.5l-62 -58q-22 -20 -41.5 -26.5t-45.5 -6.5z" />
    <glyph glyph-name="Rcommaaccent" unicode="&#x156;" horiz-adv-x="723" 
d="M84 623q0 32 22.5 54.5t54.5 22.5h243q133 0 204 -71q60 -60 60 -160v-2q0 -84 -38 -135.5t-102 -77.5l107 -130q11 -14 18 -27.5t7 -31.5q0 -32 -22.5 -51.5t-50.5 -19.5q-26 0 -44 11.5t-32 28.5l-150 190h-123v-153q0 -32 -22.5 -54.5t-54.5 -22.5t-54.5 22.5
t-22.5 54.5v552zM394 360q57 0 87.5 27t30.5 72v2q0 51 -32 75.5t-89 24.5h-153v-201h156zM381 -169q-26 5 -44.5 19.5t-18.5 40.5v1q0 26 19.5 43t52.5 17q35 0 55.5 -22.5t20.5 -59.5v-3q0 -77 -51 -119q-19 -17 -45 -26t-51 -9q-17 0 -24.5 7.5t-7.5 17.5q0 20 25 24
q70 15 69 69z" />
    <glyph glyph-name="rcommaaccent" unicode="&#x157;" horiz-adv-x="418" 
d="M68 466q0 32 22 54t54 22t54 -22t22 -54v-24q17 39 43 69.5t60 30.5q35 0 54.5 -21t19.5 -53q0 -30 -17 -48t-40 -23q-58 -14 -89 -59t-31 -126v-142q0 -32 -22 -54t-54 -22t-54 22t-22 54v396zM140 -174q-26 5 -44.5 19.5t-18.5 40.5v1q0 26 19.5 43t52.5 17
q35 0 55.5 -22.5t20.5 -59.5v-3q0 -77 -51 -119q-19 -17 -45 -26t-51 -9q-17 0 -24.5 7.5t-7.5 17.5q0 20 25 24q70 15 69 69z" />
    <glyph glyph-name="Rcaron" unicode="&#x158;" horiz-adv-x="723" 
d="M84 623q0 32 22.5 54.5t54.5 22.5h243q133 0 204 -71q60 -60 60 -160v-2q0 -84 -38 -135.5t-102 -77.5l107 -130q11 -14 18 -27.5t7 -31.5q0 -32 -22.5 -51.5t-50.5 -19.5q-26 0 -44 11.5t-32 28.5l-150 190h-123v-153q0 -32 -22.5 -54.5t-54.5 -22.5t-54.5 22.5
t-22.5 54.5v552zM394 360q57 0 87.5 27t30.5 72v2q0 51 -32 75.5t-89 24.5h-153v-201h156zM424 885q25 20 45.5 26.5t46.5 6.5q14 0 23.5 -6t9.5 -18q0 -7 -5 -14.5t-10 -14.5l-63 -81q-13 -16 -29 -25t-42 -9h-48q-26 0 -42 9t-29 25l-63 81q-5 7 -10 14.5t-5 14.5
q0 12 10.5 18t24.5 6q26 0 46.5 -6.5t45.5 -26.5l47 -39z" />
    <glyph glyph-name="rcaron" unicode="&#x159;" horiz-adv-x="418" 
d="M68 466q0 32 22 54t54 22t54 -22t22 -54v-24q17 39 43 69.5t60 30.5q35 0 54.5 -21t19.5 -53q0 -30 -17 -48t-40 -23q-58 -14 -89 -59t-31 -126v-142q0 -32 -22 -54t-54 -22t-54 22t-22 54v396zM277 725q25 20 45.5 26.5t46.5 6.5q14 0 23.5 -6t9.5 -18q0 -7 -5 -14.5
t-10 -14.5l-63 -81q-13 -16 -29 -25t-42 -9h-48q-26 0 -42 9t-29 25l-63 81q-5 7 -10 14.5t-5 14.5q0 12 10.5 18t24.5 6q26 0 46.5 -6.5t45.5 -26.5l47 -39z" />
    <glyph glyph-name="Sacute" unicode="&#x15a;" horiz-adv-x="640" 
d="M333 -10q-69 0 -136 21t-127 63q-13 9 -21 24.5t-8 33.5q0 30 21 50.5t51 20.5q15 0 25.5 -4.5t18.5 -9.5q40 -29 84 -46t95 -17q48 0 74.5 17.5t26.5 48.5v2q0 15 -5.5 26.5t-21 22t-43 20t-71.5 20.5q-53 13 -96 28.5t-73 39.5t-46.5 59t-16.5 87v2q0 48 18 86.5
t50.5 66.5t77.5 43t99 15q64 0 119 -16t103 -46q13 -8 23.5 -23t10.5 -38q0 -30 -21 -50.5t-51 -20.5q-19 0 -39 11q-77 47 -147 47q-45 0 -67.5 -17.5t-22.5 -43.5v-2q0 -18 6.5 -30t23.5 -21.5t46.5 -19t74.5 -21.5q53 -14 94.5 -31.5t70 -42t43 -57.5t14.5 -79v-2
q0 -52 -19 -92.5t-53 -68t-81 -42t-104 -14.5zM320 759q-17 0 -27.5 7t-10.5 19q0 7 3 14t7 13l55 86q10 16 24 25t33 9q14 0 29 -4t27.5 -10.5t20.5 -14.5t8 -17q0 -11 -5.5 -19.5t-14.5 -16.5l-62 -58q-22 -20 -41.5 -26.5t-45.5 -6.5z" />
    <glyph glyph-name="sacute" unicode="&#x15b;" horiz-adv-x="502" 
d="M256 -10q-51 0 -102 14.5t-100 46.5q-12 8 -20.5 21t-8.5 31q0 26 17 43t43 17q16 0 30 -8q38 -24 75.5 -36t69.5 -12q33 0 48.5 11t15.5 29v2q0 12 -9 20.5t-24.5 15.5t-35.5 13t-42 13q-28 8 -56.5 19.5t-51.5 30t-37.5 45.5t-14.5 66v2q0 41 15.5 72.5t42 53.5t62 33
t76.5 11q42 0 84.5 -10.5t81.5 -30.5q36 -17 36 -57q0 -26 -17.5 -43t-43.5 -17q-15 0 -28 7q-32 16 -62 25t-54 9q-28 0 -42 -10.5t-14 -26.5v-2q0 -11 9 -19.5t24 -16t34.5 -14.5t41.5 -14q28 -9 57 -21t52 -30.5t38 -44.5t15 -63v-2q0 -45 -15.5 -77.5t-43.5 -53.5
t-65.5 -31.5t-80.5 -10.5zM250 589q-17 0 -27.5 7t-10.5 19q0 7 3 14t7 13l55 86q10 16 24 25t33 9q14 0 29 -4t27.5 -10.5t20.5 -14.5t8 -17q0 -11 -5.5 -19.5t-14.5 -16.5l-62 -58q-22 -20 -41.5 -26.5t-45.5 -6.5z" />
    <glyph glyph-name="Scedilla" unicode="&#x15e;" horiz-adv-x="640" 
d="M590 207q0 -94 -57.5 -148t-150.5 -66l-52 -128q-7 -17 -17 -24.5t-27 -7.5q-11 0 -25.5 4.5t-28 12t-23 17t-9.5 18.5q0 7 2.5 14t6.5 12l58 84q-54 8 -103 27.5t-94 51.5q-13 9 -21 24.5t-8 33.5q0 30 21 50.5t51 20.5q15 0 25.5 -4.5t18.5 -9.5q40 -29 84 -46t95 -17
q48 0 74.5 17.5t26.5 48.5v2q0 15 -5.5 26.5t-21 22t-43 20t-71.5 20.5q-53 13 -96 28.5t-73 39.5t-46.5 59t-16.5 87v2q0 48 18 86.5t50.5 66.5t77.5 43t99 15q64 0 119 -16t103 -46q13 -8 23.5 -23t10.5 -38q0 -30 -21 -50.5t-51 -20.5q-19 0 -39 11q-77 47 -147 47
q-45 0 -67.5 -17.5t-22.5 -43.5v-2q0 -18 6.5 -30t23.5 -21.5t46.5 -19t74.5 -21.5q53 -14 94.5 -31.5t70 -42t43 -57.5t14.5 -79v-2z" />
    <glyph glyph-name="scedilla" unicode="&#x15f;" horiz-adv-x="502" 
d="M461 163q0 -77 -44.5 -118.5t-113.5 -51.5l-52 -128q-7 -17 -17 -24.5t-27 -7.5q-11 0 -25.5 4.5t-28 12t-23 17t-9.5 18.5q0 7 2.5 14t6.5 12l58 86q-69 12 -134 54q-12 8 -20.5 21t-8.5 31q0 26 17 43t43 17q16 0 30 -8q38 -24 75.5 -36t69.5 -12q33 0 48.5 11t15.5 29
v2q0 12 -9 20.5t-24.5 15.5t-35.5 13t-42 13q-28 8 -56.5 19.5t-51.5 30t-37.5 45.5t-14.5 66v2q0 41 15.5 72.5t42 53.5t62 33t76.5 11q42 0 84.5 -10.5t81.5 -30.5q36 -17 36 -57q0 -26 -17.5 -43t-43.5 -17q-15 0 -28 7q-32 16 -62 25t-54 9q-28 0 -42 -10.5t-14 -26.5
v-2q0 -11 9 -19.5t24 -16t34.5 -14.5t41.5 -14q28 -9 57 -21t52 -30.5t38 -44.5t15 -63v-2z" />
    <glyph glyph-name="Scaron" unicode="&#x160;" horiz-adv-x="640" 
d="M333 -10q-69 0 -136 21t-127 63q-13 9 -21 24.5t-8 33.5q0 30 21 50.5t51 20.5q15 0 25.5 -4.5t18.5 -9.5q40 -29 84 -46t95 -17q48 0 74.5 17.5t26.5 48.5v2q0 15 -5.5 26.5t-21 22t-43 20t-71.5 20.5q-53 13 -96 28.5t-73 39.5t-46.5 59t-16.5 87v2q0 48 18 86.5
t50.5 66.5t77.5 43t99 15q64 0 119 -16t103 -46q13 -8 23.5 -23t10.5 -38q0 -30 -21 -50.5t-51 -20.5q-19 0 -39 11q-77 47 -147 47q-45 0 -67.5 -17.5t-22.5 -43.5v-2q0 -18 6.5 -30t23.5 -21.5t46.5 -19t74.5 -21.5q53 -14 94.5 -31.5t70 -42t43 -57.5t14.5 -79v-2
q0 -52 -19 -92.5t-53 -68t-81 -42t-104 -14.5zM372 895q25 20 45.5 26.5t46.5 6.5q14 0 23.5 -6t9.5 -18q0 -7 -5 -14.5t-10 -14.5l-63 -81q-13 -16 -29 -25t-42 -9h-48q-26 0 -42 9t-29 25l-63 81q-5 7 -10 14.5t-5 14.5q0 12 10.5 18t24.5 6q26 0 46.5 -6.5t45.5 -26.5
l47 -39z" />
    <glyph glyph-name="scaron" unicode="&#x161;" horiz-adv-x="502" 
d="M256 -10q-51 0 -102 14.5t-100 46.5q-12 8 -20.5 21t-8.5 31q0 26 17 43t43 17q16 0 30 -8q38 -24 75.5 -36t69.5 -12q33 0 48.5 11t15.5 29v2q0 12 -9 20.5t-24.5 15.5t-35.5 13t-42 13q-28 8 -56.5 19.5t-51.5 30t-37.5 45.5t-14.5 66v2q0 41 15.5 72.5t42 53.5t62 33
t76.5 11q42 0 84.5 -10.5t81.5 -30.5q36 -17 36 -57q0 -26 -17.5 -43t-43.5 -17q-15 0 -28 7q-32 16 -62 25t-54 9q-28 0 -42 -10.5t-14 -26.5v-2q0 -11 9 -19.5t24 -16t34.5 -14.5t41.5 -14q28 -9 57 -21t52 -30.5t38 -44.5t15 -63v-2q0 -45 -15.5 -77.5t-43.5 -53.5
t-65.5 -31.5t-80.5 -10.5zM302 725q25 20 45.5 26.5t46.5 6.5q14 0 23.5 -6t9.5 -18q0 -7 -5 -14.5t-10 -14.5l-63 -81q-13 -16 -29 -25t-42 -9h-48q-26 0 -42 9t-29 25l-63 81q-5 7 -10 14.5t-5 14.5q0 12 10.5 18t24.5 6q26 0 46.5 -6.5t45.5 -26.5l47 -39z" />
    <glyph glyph-name="Tcommaaccent" unicode="&#x162;" horiz-adv-x="648" 
d="M247 558h-148q-29 0 -50 21t-21 50t21 50t50 21h450q29 0 50 -21t21 -50t-21 -50t-50 -21h-148v-487q0 -32 -22.5 -54.5t-54.5 -22.5t-54.5 22.5t-22.5 54.5v487zM329 -174q-26 5 -44.5 19.5t-18.5 40.5v1q0 26 19.5 43t52.5 17q35 0 55.5 -22.5t20.5 -59.5v-3
q0 -77 -51 -119q-19 -17 -45 -26t-51 -9q-17 0 -24.5 7.5t-7.5 17.5q0 20 25 24q70 15 69 69z" />
    <glyph glyph-name="tcommaaccent" unicode="&#x163;" horiz-adv-x="415" 
d="M249 -9q-35 0 -63.5 7.5t-49 26.5t-32 49.5t-11.5 77.5v254h-5q-27 0 -46 19t-19 46t19 46t46 19h5v67q0 32 22 54t54 22t54 -22t22 -54v-67h67q27 0 46 -19t19 -46t-19 -46t-46 -19h-67v-229q0 -52 49 -52q4 0 10 0.5t8 0.5q26 0 44.5 -18.5t18.5 -44.5
q0 -20 -11.5 -35.5t-27.5 -21.5q-21 -8 -41.5 -11.5t-45.5 -3.5zM227 -174q-26 5 -44.5 19.5t-18.5 40.5v1q0 26 19.5 43t52.5 17q35 0 55.5 -22.5t20.5 -59.5v-3q0 -77 -51 -119q-19 -17 -45 -26t-51 -9q-17 0 -24.5 7.5t-7.5 17.5q0 20 25 24q70 15 69 69z" />
    <glyph glyph-name="Tcaron" unicode="&#x164;" horiz-adv-x="648" 
d="M247 558h-148q-29 0 -50 21t-21 50t21 50t50 21h450q29 0 50 -21t21 -50t-21 -50t-50 -21h-148v-487q0 -32 -22.5 -54.5t-54.5 -22.5t-54.5 22.5t-22.5 54.5v487zM372 885q25 20 45.5 26.5t46.5 6.5q14 0 23.5 -6t9.5 -18q0 -7 -5 -14.5t-10 -14.5l-63 -81
q-13 -16 -29 -25t-42 -9h-48q-26 0 -42 9t-29 25l-63 81q-5 7 -10 14.5t-5 14.5q0 12 10.5 18t24.5 6q26 0 46.5 -6.5t45.5 -26.5l47 -39z" />
    <glyph glyph-name="tcaron" unicode="&#x165;" horiz-adv-x="415" 
d="M249 -9q-35 0 -63.5 7.5t-49 26.5t-32 49.5t-11.5 77.5v254h-5q-27 0 -46 19t-19 46t19 46t46 19h5v67q0 32 22 54t54 22t54 -22t22 -54v-67h67q27 0 46 -19t19 -46t-19 -46t-46 -19h-67v-229q0 -52 49 -52q4 0 10 0.5t8 0.5q26 0 44.5 -18.5t18.5 -44.5
q0 -20 -11.5 -35.5t-27.5 -21.5q-21 -8 -41.5 -11.5t-45.5 -3.5zM311 750q0 21 14 36t37 15h20q16 0 26.5 -8t10.5 -25q0 -12 -4 -23l-38 -132q-8 -27 -35 -27q-14 0 -22.5 9.5t-8.5 24.5v130z" />
    <glyph glyph-name="Utilde" unicode="&#x168;" horiz-adv-x="756" 
d="M305 791q-8 -10 -15.5 -17.5t-27.5 -6.5q-17 2 -28.5 15.5t-10.5 33.5q2 6 2 10q20 49 43 68t57 18q16 -1 35.5 -8.5t33.5 -14.5q4 -2 9.5 -5t9.5 -5q2 -1 3.5 -1t3.5 -1l14 -4q5 1 9.5 4t8.5 11l2 6q8 9 17 15.5t27 5.5q20 -3 30.5 -15.5t10.5 -30.5q0 -3 -2 -11t-4 -12
v-2q-17 -45 -40.5 -61t-61.5 -14q-17 1 -36 9t-36 17q-2 1 -3.5 1t-3.5 1l-4 2q-6 0 -7 3l-1 1q-12 5 -16 5q-6 0 -9.5 -2t-6.5 -10zM376 -11q-141 0 -222 78t-81 233v329q0 32 22.5 54.5t54.5 22.5t54.5 -22.5t22.5 -54.5v-325q0 -87 39.5 -130t111.5 -43t111.5 41.5
t39.5 126.5v330q0 32 22.5 54.5t54.5 22.5t54.5 -22.5t22.5 -54.5v-324q0 -80 -21.5 -139t-61.5 -98.5t-97 -59t-127 -19.5z" />
    <glyph glyph-name="utilde" unicode="&#x169;" horiz-adv-x="623" 
d="M235 624q-8 -10 -15.5 -17.5t-27.5 -6.5q-17 2 -28.5 15.5t-10.5 33.5q2 6 2 10q20 49 43 68t57 18q16 -1 35.5 -8.5t33.5 -14.5q4 -2 9.5 -5t9.5 -5q2 -1 3.5 -1t3.5 -1l14 -4q5 1 9.5 4t8.5 11l2 6q8 9 17 15.5t27 5.5q20 -3 30.5 -15.5t10.5 -30.5q0 -3 -2 -11t-4 -12
v-2q-17 -45 -40.5 -61t-61.5 -14q-17 1 -36 9t-36 17q-2 1 -3.5 1t-3.5 1l-4 2q-6 0 -7 3l-1 1q-12 5 -16 5q-6 0 -9.5 -2t-6.5 -10zM555 70q0 -32 -22 -54t-54 -22t-54 22t-22 54v6q-26 -34 -63 -60t-94 -26q-88 0 -135 52.5t-47 146.5v277q0 32 22 54t54 22t54 -22t22 -54
v-229q0 -54 23.5 -81.5t68.5 -27.5t70 27.5t25 81.5v229q0 32 22 54t54 22t54 -22t22 -54v-396z" />
    <glyph glyph-name="Umacron" unicode="&#x16a;" horiz-adv-x="756" 
d="M376 -11q-141 0 -222 78t-81 233v329q0 32 22.5 54.5t54.5 22.5t54.5 -22.5t22.5 -54.5v-325q0 -87 39.5 -130t111.5 -43t111.5 41.5t39.5 126.5v330q0 32 22.5 54.5t54.5 22.5t54.5 -22.5t22.5 -54.5v-324q0 -80 -21.5 -139t-61.5 -98.5t-97 -59t-127 -19.5zM245 760
q-22 0 -37.5 15t-15.5 37t15.5 37.5t37.5 15.5h266q22 0 37.5 -15.5t15.5 -37.5t-15.5 -37t-37.5 -15h-266z" />
    <glyph glyph-name="umacron" unicode="&#x16b;" horiz-adv-x="623" 
d="M555 70q0 -32 -22 -54t-54 -22t-54 22t-22 54v6q-26 -34 -63 -60t-94 -26q-88 0 -135 52.5t-47 146.5v277q0 32 22 54t54 22t54 -22t22 -54v-229q0 -54 23.5 -81.5t68.5 -27.5t70 27.5t25 81.5v229q0 32 22 54t54 22t54 -22t22 -54v-396zM176 600q-22 0 -37.5 15
t-15.5 37t15.5 37.5t37.5 15.5h266q22 0 37.5 -15.5t15.5 -37.5t-15.5 -37t-37.5 -15h-266z" />
    <glyph glyph-name="Ubreve" unicode="&#x16c;" horiz-adv-x="756" 
d="M376 -11q-141 0 -222 78t-81 233v329q0 32 22.5 54.5t54.5 22.5t54.5 -22.5t22.5 -54.5v-325q0 -87 39.5 -130t111.5 -43t111.5 41.5t39.5 126.5v330q0 32 22.5 54.5t54.5 22.5t54.5 -22.5t22.5 -54.5v-324q0 -80 -21.5 -139t-61.5 -98.5t-97 -59t-127 -19.5zM378 748
q-60 0 -102 22.5t-65 62.5q-7 13 -7 28q0 22 15 37t37 15q18 0 28.5 -8t16.5 -18q11 -18 29 -29t48 -11t48 11t29 29q6 10 16.5 18t28.5 8q22 0 37 -15t15 -37q0 -15 -7 -28q-23 -40 -65 -62.5t-102 -22.5z" />
    <glyph glyph-name="ubreve" unicode="&#x16d;" horiz-adv-x="623" 
d="M555 70q0 -32 -22 -54t-54 -22t-54 22t-22 54v6q-26 -34 -63 -60t-94 -26q-88 0 -135 52.5t-47 146.5v277q0 32 22 54t54 22t54 -22t22 -54v-229q0 -54 23.5 -81.5t68.5 -27.5t70 27.5t25 81.5v229q0 32 22 54t54 22t54 -22t22 -54v-396zM309 593q-60 0 -102 22.5
t-65 62.5q-7 13 -7 28q0 22 15 37t37 15q18 0 28.5 -8t16.5 -18q11 -18 29 -29t48 -11t48 11t29 29q6 10 16.5 18t28.5 8q22 0 37 -15t15 -37q0 -15 -7 -28q-23 -40 -65 -62.5t-102 -22.5z" />
    <glyph glyph-name="Uring" unicode="&#x16e;" horiz-adv-x="756" 
d="M376 -11q-141 0 -222 78t-81 233v329q0 32 22.5 54.5t54.5 22.5t54.5 -22.5t22.5 -54.5v-325q0 -87 39.5 -130t111.5 -43t111.5 41.5t39.5 126.5v330q0 32 22.5 54.5t54.5 22.5t54.5 -22.5t22.5 -54.5v-324q0 -80 -21.5 -139t-61.5 -98.5t-97 -59t-127 -19.5zM378 738
q-24 0 -46 9.5t-38.5 25t-26.5 36.5t-10 45v2q0 24 10 45t26.5 36.5t38.5 25t46 9.5t46 -9.5t38.5 -25t26.5 -36.5t10 -45v-2q0 -24 -10 -45t-26.5 -36.5t-38.5 -25t-46 -9.5zM378 793q26 0 44 18t18 43v2q0 25 -18 43t-44 18t-44 -18t-18 -43v-2q0 -25 18 -43t44 -18z" />
    <glyph glyph-name="uring" unicode="&#x16f;" horiz-adv-x="623" 
d="M555 70q0 -32 -22 -54t-54 -22t-54 22t-22 54v6q-26 -34 -63 -60t-94 -26q-88 0 -135 52.5t-47 146.5v277q0 32 22 54t54 22t54 -22t22 -54v-229q0 -54 23.5 -81.5t68.5 -27.5t70 27.5t25 81.5v229q0 32 22 54t54 22t54 -22t22 -54v-396zM309 593q-24 0 -46 9.5t-38.5 25
t-26.5 36.5t-10 45v2q0 24 10 45t26.5 36.5t38.5 25t46 9.5t46 -9.5t38.5 -25t26.5 -36.5t10 -45v-2q0 -24 -10 -45t-26.5 -36.5t-38.5 -25t-46 -9.5zM309 648q26 0 44 18t18 43v2q0 25 -18 43t-44 18t-44 -18t-18 -43v-2q0 -25 18 -43t44 -18z" />
    <glyph glyph-name="Uhungarumlaut" unicode="&#x170;" horiz-adv-x="756" 
d="M376 -11q-141 0 -222 78t-81 233v329q0 32 22.5 54.5t54.5 22.5t54.5 -22.5t22.5 -54.5v-325q0 -87 39.5 -130t111.5 -43t111.5 41.5t39.5 126.5v330q0 32 22.5 54.5t54.5 22.5t54.5 -22.5t22.5 -54.5v-324q0 -80 -21.5 -139t-61.5 -98.5t-97 -59t-127 -19.5zM464 749
q-36 0 -36 26q0 7 3 14t7 13l55 86q10 16 22.5 25t31.5 9q14 0 29 -4t27 -10.5t20 -14.5t8 -17q0 -11 -5.5 -19.5t-14.5 -16.5l-62 -58q-22 -20 -40.5 -26.5t-44.5 -6.5zM268 749q-36 0 -36 26q0 7 3 14t7 13l55 86q10 16 22.5 25t31.5 9q14 0 29 -4t27 -10.5t20 -14.5
t8 -17q0 -11 -5.5 -19.5t-14.5 -16.5l-62 -58q-22 -20 -40.5 -26.5t-44.5 -6.5z" />
    <glyph glyph-name="uhungarumlaut" unicode="&#x171;" horiz-adv-x="623" 
d="M555 70q0 -32 -22 -54t-54 -22t-54 22t-22 54v6q-26 -34 -63 -60t-94 -26q-88 0 -135 52.5t-47 146.5v277q0 32 22 54t54 22t54 -22t22 -54v-229q0 -54 23.5 -81.5t68.5 -27.5t70 27.5t25 81.5v229q0 32 22 54t54 22t54 -22t22 -54v-396zM395 589q-36 0 -36 26q0 7 3 14
t7 13l55 86q10 16 22.5 25t31.5 9q14 0 29 -4t27 -10.5t20 -14.5t8 -17q0 -11 -5.5 -19.5t-14.5 -16.5l-62 -58q-22 -20 -40.5 -26.5t-44.5 -6.5zM199 589q-36 0 -36 26q0 7 3 14t7 13l55 86q10 16 22.5 25t31.5 9q14 0 29 -4t27 -10.5t20 -14.5t8 -17q0 -11 -5.5 -19.5
t-14.5 -16.5l-62 -58q-22 -20 -40.5 -26.5t-44.5 -6.5z" />
    <glyph glyph-name="Uogonek" unicode="&#x172;" horiz-adv-x="756" 
d="M288 -80q0 20 7.5 37.5t20.5 35.5q-115 15 -179 91.5t-64 215.5v329q0 32 22.5 54.5t54.5 22.5t54.5 -22.5t22.5 -54.5v-325q0 -87 39.5 -130t111.5 -43t111.5 41.5t39.5 126.5v330q0 32 22.5 54.5t54.5 22.5t54.5 -22.5t22.5 -54.5v-324q0 -74 -18.5 -130.5t-53.5 -95.5
t-85 -61t-112 -27q-10 -14 -13.5 -25t-3.5 -22q0 -17 10 -25.5t30 -13.5q36 -9 36 -36q0 -36 -48 -36q-63 0 -100 22t-37 65z" />
    <glyph glyph-name="uogonek" unicode="&#x173;" horiz-adv-x="623" 
d="M555 67q0 -18 -6.5 -30.5t-21.5 -27.5q-21 -21 -29 -37t-8 -30q0 -15 9 -23.5t29 -13.5q36 -9 36 -36q0 -36 -48 -36q-63 0 -99.5 21.5t-36.5 60.5q0 28 14.5 52.5t35.5 44.5q-27 22 -27 58v6q-26 -34 -63 -60t-94 -26q-88 0 -135 52.5t-47 146.5v277q0 32 22 54t54 22
t54 -22t22 -54v-229q0 -54 23.5 -81.5t68.5 -27.5t70 27.5t25 81.5v229q0 32 22 54t54 22t54 -22t22 -54v-399z" />
    <glyph glyph-name="Wcircumflex" unicode="&#x174;" horiz-adv-x="1098" 
d="M40 602q-2 7 -4 14.5t-2 14.5q0 32 23.5 53.5t55.5 21.5q27 0 47 -15.5t28 -39.5l139 -429l140 425q9 27 29 44t49 17h12q29 0 49 -16.5t29 -44.5l140 -425l139 429q8 23 26.5 39t47.5 16q32 0 54 -21t22 -53q0 -7 -2 -15t-4 -15l-196 -550q-11 -29 -31.5 -46t-48.5 -17
h-16q-28 0 -48 16.5t-31 46.5l-138 401l-138 -401q-11 -30 -31 -46.5t-48 -16.5h-16q-28 0 -48.5 17t-31.5 46zM501 782q-25 -20 -45.5 -26.5t-46.5 -6.5q-14 0 -23.5 6t-9.5 18q0 7 5 14.5t10 14.5l63 81q13 16 29 25t42 9h48q26 0 42 -9t29 -25l63 -81q5 -7 10 -14.5
t5 -14.5q0 -12 -10.5 -18t-24.5 -6q-26 0 -46.5 6.5t-45.5 26.5l-47 39z" />
    <glyph glyph-name="wcircumflex" unicode="&#x175;" horiz-adv-x="849" 
d="M251 -10q-28 0 -50 16.5t-34 51.5l-131 378q-2 7 -4.5 17t-2.5 20q0 26 19.5 47.5t53.5 21.5q29 0 47.5 -16.5t26.5 -42.5l82 -272l84 271q8 27 28.5 44t49.5 17h9q29 0 49.5 -17t28.5 -44l85 -272l84 274q8 24 25.5 41t47.5 17q32 0 51.5 -20.5t19.5 -49.5q0 -19 -5 -31
l-135 -383q-12 -35 -34 -51.5t-50 -16.5h-5q-28 0 -49.5 16t-32.5 49l-85 270l-86 -270q-11 -33 -32.5 -49t-49.5 -16h-5zM376 622q-25 -20 -45.5 -26.5t-46.5 -6.5q-14 0 -23.5 6t-9.5 18q0 7 5 14.5t10 14.5l63 81q13 16 29 25t42 9h48q26 0 42 -9t29 -25l63 -81
q5 -7 10 -14.5t5 -14.5q0 -12 -10.5 -18t-24.5 -6q-26 0 -46.5 6.5t-45.5 26.5l-47 39z" />
    <glyph glyph-name="Ycircumflex" unicode="&#x176;" horiz-adv-x="688" 
d="M267 270l-226 307q-8 11 -13.5 24.5t-5.5 30.5q0 31 22.5 52.5t54.5 21.5q26 0 44 -13t32 -34l170 -245l173 247q14 21 32 33.5t42 12.5q35 0 55 -21.5t20 -53.5q0 -16 -6 -29.5t-14 -24.5l-226 -305v-202q0 -32 -22.5 -54.5t-54.5 -22.5t-54.5 22.5t-22.5 54.5v199z
M296 782q-25 -20 -45.5 -26.5t-46.5 -6.5q-14 0 -23.5 6t-9.5 18q0 7 5 14.5t10 14.5l63 81q13 16 29 25t42 9h48q26 0 42 -9t29 -25l63 -81q5 -7 10 -14.5t5 -14.5q0 -12 -10.5 -18t-24.5 -6q-26 0 -46.5 6.5t-45.5 26.5l-47 39z" />
    <glyph glyph-name="ycircumflex" unicode="&#x177;" horiz-adv-x="586" 
d="M179 -163q-26 0 -45 3.5t-38 10.5q-17 6 -32.5 20.5t-15.5 42.5t18.5 45t41.5 17q16 0 25 -4q10 -3 17 -4.5t15 -1.5q20 0 31.5 6t22.5 26l5 12l-183 424q-3 8 -5.5 17.5t-2.5 17.5q0 32 21.5 52.5t53.5 20.5q29 0 46 -15t27 -42l116 -312l112 311q9 24 26.5 41t46.5 17
t50.5 -20t21.5 -50q0 -9 -2.5 -20t-4.5 -16l-187 -449q-17 -41 -34.5 -69.5t-38.5 -46.5t-47.5 -26t-60.5 -8zM245 622q-25 -20 -45.5 -26.5t-46.5 -6.5q-14 0 -23.5 6t-9.5 18q0 7 5 14.5t10 14.5l63 81q13 16 29 25t42 9h48q26 0 42 -9t29 -25l63 -81q5 -7 10 -14.5
t5 -14.5q0 -12 -10.5 -18t-24.5 -6q-26 0 -46.5 6.5t-45.5 26.5l-47 39z" />
    <glyph glyph-name="Ydieresis" unicode="&#x178;" horiz-adv-x="688" 
d="M267 270l-226 307q-8 11 -13.5 24.5t-5.5 30.5q0 31 22.5 52.5t54.5 21.5q26 0 44 -13t32 -34l170 -245l173 247q14 21 32 33.5t42 12.5q35 0 55 -21.5t20 -53.5q0 -16 -6 -29.5t-14 -24.5l-226 -305v-202q0 -32 -22.5 -54.5t-54.5 -22.5t-54.5 22.5t-22.5 54.5v199z
M451 897q32 0 55.5 -20.5t23.5 -52.5v-2q0 -32 -23.5 -52.5t-55.5 -20.5t-55.5 20.5t-23.5 52.5v2q0 32 23.5 52.5t55.5 20.5zM237 897q32 0 55.5 -20.5t23.5 -52.5v-2q0 -32 -23.5 -52.5t-55.5 -20.5t-55.5 20.5t-23.5 52.5v2q0 32 23.5 52.5t55.5 20.5z" />
    <glyph glyph-name="Zacute" unicode="&#x179;" horiz-adv-x="708" 
d="M125 0q-28 0 -48 20t-20 48v3q0 40 28 72l363 422h-311q-28 0 -48 19.5t-20 47.5t20 48t48 20h447q28 0 48 -20t20 -48v-3q0 -38 -28 -72l-363 -422h323q28 0 48 -20t20 -48t-20 -47.5t-48 -19.5h-459zM356 749q-17 0 -27.5 7t-10.5 19q0 7 3 14t7 13l55 86q10 16 24 25
t33 9q14 0 29 -4t27.5 -10.5t20.5 -14.5t8 -17q0 -11 -5.5 -19.5t-14.5 -16.5l-62 -58q-22 -20 -41.5 -26.5t-45.5 -6.5z" />
    <glyph glyph-name="zacute" unicode="&#x17a;" horiz-adv-x="563" 
d="M118 0q-32 0 -53 17t-21 44v3q0 22 8 38t26 36l249 275h-212q-26 0 -44 17.5t-18 43.5t18 44t44 18h333q32 0 53 -17t21 -44v-3q0 -22 -8 -38t-26 -36l-250 -275h222q26 0 44 -18t18 -44t-18 -43.5t-44 -17.5h-342zM279 589q-17 0 -27.5 7t-10.5 19q0 7 3 14t7 13l55 86
q10 16 24 25t33 9q14 0 29 -4t27.5 -10.5t20.5 -14.5t8 -17q0 -11 -5.5 -19.5t-14.5 -16.5l-62 -58q-22 -20 -41.5 -26.5t-45.5 -6.5z" />
    <glyph glyph-name="Zdotaccent" unicode="&#x17b;" horiz-adv-x="708" 
d="M125 0q-28 0 -48 20t-20 48v3q0 40 28 72l363 422h-311q-28 0 -48 19.5t-20 47.5t20 48t48 20h447q28 0 48 -20t20 -48v-3q0 -38 -28 -72l-363 -422h323q28 0 48 -20t20 -48t-20 -47.5t-48 -19.5h-459zM441 822q0 -33 -24 -53t-57 -20t-57 20t-24 53v2q0 33 24 53t57 20
t57 -20t24 -53v-2z" />
    <glyph glyph-name="zdotaccent" unicode="&#x17c;" horiz-adv-x="563" 
d="M118 0q-32 0 -53 17t-21 44v3q0 22 8 38t26 36l249 275h-212q-26 0 -44 17.5t-18 43.5t18 44t44 18h333q32 0 53 -17t21 -44v-3q0 -22 -8 -38t-26 -36l-250 -275h222q26 0 44 -18t18 -44t-18 -43.5t-44 -17.5h-342zM364 662q0 -33 -24 -53t-57 -20t-57 20t-24 53v2
q0 33 24 53t57 20t57 -20t24 -53v-2z" />
    <glyph glyph-name="Zcaron" unicode="&#x17d;" horiz-adv-x="708" 
d="M125 0q-28 0 -48 20t-20 48v3q0 40 28 72l363 422h-311q-28 0 -48 19.5t-20 47.5t20 48t48 20h447q28 0 48 -20t20 -48v-3q0 -38 -28 -72l-363 -422h323q28 0 48 -20t20 -48t-20 -47.5t-48 -19.5h-459zM408 885q25 20 45.5 26.5t46.5 6.5q14 0 23.5 -6t9.5 -18
q0 -7 -5 -14.5t-10 -14.5l-63 -81q-13 -16 -29 -25t-42 -9h-48q-26 0 -42 9t-29 25l-63 81q-5 7 -10 14.5t-5 14.5q0 12 10.5 18t24.5 6q26 0 46.5 -6.5t45.5 -26.5l47 -39z" />
    <glyph glyph-name="zcaron" unicode="&#x17e;" horiz-adv-x="563" 
d="M118 0q-32 0 -53 17t-21 44v3q0 22 8 38t26 36l249 275h-212q-26 0 -44 17.5t-18 43.5t18 44t44 18h333q32 0 53 -17t21 -44v-3q0 -22 -8 -38t-26 -36l-250 -275h222q26 0 44 -18t18 -44t-18 -43.5t-44 -17.5h-342zM331 725q25 20 45.5 26.5t46.5 6.5q14 0 23.5 -6
t9.5 -18q0 -7 -5 -14.5t-10 -14.5l-63 -81q-13 -16 -29 -25t-42 -9h-48q-26 0 -42 9t-29 25l-63 81q-5 7 -10 14.5t-5 14.5q0 12 10.5 18t24.5 6q26 0 46.5 -6.5t45.5 -26.5l47 -39z" />
    <glyph glyph-name="florin" unicode="&#x192;" horiz-adv-x="536" 
d="M111 -8q-36 0 -56 17t-20 46q0 24 16 42t42 21q24 3 37 17t18 43l28 166h-10q-26 0 -44.5 18t-18.5 44t18.5 44.5t44.5 18.5h32l14 76q7 38 20.5 68t36 51t55 32t77.5 11q13 0 25 -0.5t23 -1.5q23 -2 40 -19.5t17 -43.5t-18.5 -44.5t-44.5 -18.5h-11q-33 0 -51 -16.5
t-24 -51.5l-7 -42h58q26 0 44.5 -18.5t18.5 -44.5t-18.5 -44t-44.5 -18h-80l-33 -190q-16 -89 -61.5 -125.5t-122.5 -36.5z" />
    <glyph glyph-name="Ohorn" unicode="&#x1a0;" horiz-adv-x="850" 
d="M424 -12q-81 0 -149 28.5t-117.5 77t-77 114t-27.5 140.5v2q0 75 28 140.5t77.5 115t118 78t149.5 28.5q20 0 40 -2t40 -6q9 0 25.5 -0.5t33.5 -0.5t29.5 -0.5t13.5 -0.5q21 1 31.5 5t15 10.5t5 16.5t0.5 22q0 27 14.5 41t48.5 14q59 0 59 -56q0 -60 -22 -93.5t-79 -44.5
q55 -51 85.5 -118.5t30.5 -146.5v-2q0 -75 -28 -140.5t-77.5 -115t-118 -78t-149.5 -28.5zM426 130q46 0 85 17t66.5 47t43 69.5t15.5 84.5v2q0 45 -15.5 85t-44 70t-67.5 47.5t-85 17.5q-47 0 -85.5 -17t-66 -47t-43 -69.5t-15.5 -84.5v-2q0 -45 15.5 -85t44 -70t67 -47.5
t85.5 -17.5z" />
    <glyph glyph-name="ohorn" unicode="&#x1a1;" horiz-adv-x="664" 
d="M331 -12q-62 0 -115 21.5t-91.5 59t-60.5 88t-22 108.5v2q0 58 22 108.5t61 88.5t92 60t116 22q32 0 62 -6q6 0 17.5 -0.5t23 -0.5t20 -0.5t9.5 -0.5q21 1 31.5 5t15 10.5t5 16.5t0.5 22q0 27 14.5 41t48.5 14q59 0 59 -56q0 -57 -19.5 -90t-70.5 -46q35 -37 54 -84.5
t19 -101.5v-2q0 -58 -22 -108.5t-61 -88.5t-92 -60t-116 -22zM333 119q33 0 58.5 11.5t43.5 31.5t27.5 46.5t9.5 56.5v2q0 30 -10 56.5t-29 47t-45 32.5t-57 12q-33 0 -58.5 -11.5t-43.5 -31.5t-27.5 -46.5t-9.5 -56.5v-2q0 -30 10 -56.5t29 -47t44.5 -32.5t57.5 -12z" />
    <glyph glyph-name="Uhorn" unicode="&#x1af;" horiz-adv-x="756" 
d="M376 -11q-141 0 -222 78t-81 233v329q0 32 22.5 54.5t54.5 22.5t54.5 -22.5t22.5 -54.5v-325q0 -87 39.5 -130t111.5 -43t111.5 41.5t39.5 126.5v330q0 32 22.5 54.5t54.5 22.5q11 0 22 -3q15 1 23 5.5t11.5 11t3.5 16v20.5q0 27 14.5 41t48.5 14q59 0 59 -56
q0 -60 -22.5 -94.5t-82.5 -44.5v-311q0 -80 -21.5 -139t-61.5 -98.5t-97 -59t-127 -19.5z" />
    <glyph glyph-name="uhorn" unicode="&#x1b0;" horiz-adv-x="623" 
d="M662 591q0 -60 -23 -94.5t-84 -44.5v-382q0 -32 -22 -54t-54 -22t-54 22t-22 54v6q-26 -34 -63 -60t-94 -26q-88 0 -135 52.5t-47 146.5v277q0 32 22 54t54 22t54 -22t22 -54v-229q0 -54 23.5 -81.5t68.5 -27.5t70 27.5t25 81.5v229q0 32 22 54t54 22q13 0 22 -4
q16 2 24 6.5t11.5 11t3.5 16v20.5q0 27 14.5 41t48.5 14q59 0 59 -56z" />
    <glyph glyph-name="Aringacute" unicode="&#x1fa;" horiz-adv-x="790" 
d="M733 99q8 -19 8 -31q0 -31 -21 -52.5t-52 -21.5q-27 0 -45 14.5t-29 38.5l-47 110h-308l-49 -115q-10 -23 -28.5 -35.5t-42.5 -12.5q-30 0 -50.5 21t-20.5 51q0 8 2.5 16.5t6.5 16.5l260 587q-20 17 -31.5 39.5t-11.5 48.5v2q0 24 10 45t26.5 36.5t38.5 25t46 9.5
t46 -9.5t38.5 -25t26.5 -36.5t10 -45v-2q0 -26 -11.5 -48.5t-31.5 -39.5zM395 713q26 0 44 18t18 43v2q0 25 -18 43t-44 18t-44 -18t-18 -43v-2q0 -25 18 -43t44 -18zM490 293l-97 231l-97 -231h194zM391 914q-17 0 -27.5 7t-10.5 19q0 7 3 14t7 13l55 86q10 16 24 25t33 9
q14 0 29 -4t27.5 -10.5t20.5 -14.5t8 -17q0 -11 -5.5 -19.5t-14.5 -16.5l-62 -58q-22 -20 -41.5 -26.5t-45.5 -6.5z" />
    <glyph glyph-name="aringacute" unicode="&#x1fb;" horiz-adv-x="592" 
d="M220 -10q-38 0 -71.5 10.5t-58.5 31.5t-39.5 51.5t-14.5 70.5v2q0 43 16 75.5t44.5 53.5t68 31.5t87.5 10.5q42 0 72 -6t59 -16v9q0 98 -115 98q-32 0 -57.5 -4t-47.5 -11q-11 -4 -22 -4q-26 0 -44.5 18t-18.5 44q0 20 11.5 36t29.5 23q36 14 76.5 21t94.5 7
q63 0 107.5 -15.5t73.5 -44.5q30 -30 44 -73.5t14 -97.5v-244q0 -31 -21.5 -52t-52.5 -21q-33 0 -53 19.5t-20 43.5v1q-28 -31 -66.5 -49.5t-95.5 -18.5zM298 593q-24 0 -46 9.5t-38.5 25t-26.5 36.5t-10 45v2q0 24 10 45t26.5 36.5t38.5 25t46 9.5t46 -9.5t38.5 -25
t26.5 -36.5t10 -45v-2q0 -24 -10 -45t-26.5 -36.5t-38.5 -25t-46 -9.5zM266 95q54 0 86.5 26t32.5 68v27q-20 9 -44.5 14.5t-52.5 5.5q-49 0 -77 -19t-28 -55v-2q0 -31 23 -48t60 -17zM294 855q-17 0 -27.5 7t-10.5 19q0 7 3 14t7 13l55 86q10 16 24 25t33 9q14 0 29 -4
t27.5 -10.5t20.5 -14.5t8 -17q0 -11 -5.5 -19.5t-14.5 -16.5l-62 -58q-22 -20 -41.5 -26.5t-45.5 -6.5zM298 648q26 0 44 18t18 43v2q0 25 -18 43t-44 18t-44 -18t-18 -43v-2q0 -25 18 -43t44 -18z" />
    <glyph glyph-name="AEacute" unicode="&#x1fc;" horiz-adv-x="1045" 
d="M33 56q0 11 3.5 23.5t8.5 20.5l313 546q14 25 36 39.5t56 14.5h474q29 0 49 -20t20 -49t-20 -48.5t-49 -19.5h-287v-142h242q29 0 49 -20t20 -49t-20 -48.5t-49 -19.5h-242v-147h292q29 0 49 -20t20 -49t-20 -48.5t-49 -19.5h-368q-32 0 -54.5 22.5t-22.5 54.5v80h-248
l-68 -121q-24 -42 -67 -42q-29 0 -48.5 17.5t-19.5 44.5zM484 293v274h-17l-154 -274h171zM612 749q-17 0 -27.5 7t-10.5 19q0 7 3 14t7 13l55 86q10 16 24 25t33 9q14 0 29 -4t27.5 -10.5t20.5 -14.5t8 -17q0 -11 -5.5 -19.5t-14.5 -16.5l-62 -58q-22 -20 -41.5 -26.5
t-45.5 -6.5z" />
    <glyph glyph-name="aeacute" unicode="&#x1fd;" horiz-adv-x="951" 
d="M758 310q-7 51 -36 82.5t-77 31.5t-77.5 -31t-38.5 -83h229zM266 97q34 0 68.5 12.5t68.5 38.5q-7 16 -12 33t-7 36q-20 8 -44.5 13.5t-51.5 5.5q-49 0 -77 -19t-28 -55v-2q0 -29 24 -46t59 -17zM846 53q-35 -30 -80.5 -47.5t-105.5 -17.5q-63 0 -114.5 21.5t-89.5 59.5
q-46 -34 -100 -56.5t-118 -22.5q-44 0 -81 11t-64 32t-42 51.5t-15 69.5v2q0 43 16 75.5t44.5 53.5t68 31.5t87.5 10.5q42 0 72 -6t59 -16v9q0 98 -115 98q-32 0 -57.5 -4t-47.5 -11q-11 -4 -22 -4q-26 0 -44.5 18t-18.5 44q0 20 11.5 36t29.5 23q36 14 76.5 21t94.5 7
q66 0 110.5 -17.5t71.5 -50.5q33 34 77.5 53t99.5 19q65 0 113 -24.5t79.5 -62.5t46.5 -83.5t15 -87.5q0 -33 -20.5 -53t-50.5 -20h-301q11 -52 45.5 -78.5t85.5 -26.5q32 0 58.5 9.5t49.5 26.5q8 6 16.5 9t20.5 3q26 0 42.5 -17t16.5 -43q0 -15 -6 -26t-14 -19zM465 589
q-17 0 -27.5 7t-10.5 19q0 7 3 14t7 13l55 86q10 16 24 25t33 9q14 0 29 -4t27.5 -10.5t20.5 -14.5t8 -17q0 -11 -5.5 -19.5t-14.5 -16.5l-62 -58q-22 -20 -41.5 -26.5t-45.5 -6.5z" />
    <glyph glyph-name="Oslashacute" unicode="&#x1fe;" horiz-adv-x="850" 
d="M424 -12q-63 0 -116 16.5t-98 45.5l-40 -40q-8 -8 -20 -14.5t-26 -6.5q-23 0 -38 14.5t-15 33.5q0 15 7 27t15 20l38 39q-38 46 -58 103.5t-20 121.5v2q0 75 28 140.5t77.5 115t118 78t149.5 28.5q61 0 114.5 -16.5t98.5 -45.5l41 40q8 8 20 14.5t26 6.5q23 0 38 -14.5
t15 -33.5q0 -15 -7 -27t-15 -20l-38 -40q37 -46 57.5 -103t20.5 -121v-2q0 -75 -28 -140.5t-77.5 -115t-118 -78t-149.5 -28.5zM211 350q0 -64 29 -114l296 305q-24 15 -52 23.5t-60 8.5q-47 0 -86 -17.5t-67.5 -47.5t-44 -70.5t-15.5 -85.5v-2zM426 127q47 0 86 17.5
t67.5 47.5t44 70.5t15.5 85.5v2q0 61 -29 114l-297 -306q49 -31 113 -31zM421 759q-17 0 -27.5 7t-10.5 19q0 7 3 14t7 13l55 86q10 16 24 25t33 9q14 0 29 -4t27.5 -10.5t20.5 -14.5t8 -17q0 -11 -5.5 -19.5t-14.5 -16.5l-62 -58q-22 -20 -41.5 -26.5t-45.5 -6.5z" />
    <glyph glyph-name="oslashacute" unicode="&#x1ff;" horiz-adv-x="664" 
d="M331 -12q-45 0 -85 11.5t-74 32.5l-23 -23q-10 -10 -21 -16t-25 -6q-19 0 -33 13t-14 31q0 16 6.5 27t15.5 20l20 20q-27 35 -41.5 77t-14.5 90v2q0 58 22 108.5t61 88.5t92 60t116 22q45 0 85 -12t74 -32l23 23q10 10 21 16t25 6q19 0 33 -13t14 -31q0 -16 -6.5 -27
t-15.5 -20l-20 -21q26 -35 41 -76.5t15 -89.5v-2q0 -58 -22 -108.5t-61 -88.5t-92 -60t-116 -22zM328 589q-17 0 -27.5 7t-10.5 19q0 7 3 14t7 13l55 86q10 16 24 25t33 9q14 0 29 -4t27.5 -10.5t20.5 -14.5t8 -17q0 -11 -5.5 -19.5t-14.5 -16.5l-62 -58
q-22 -20 -41.5 -26.5t-45.5 -6.5zM333 115q34 0 60.5 12t45 32.5t28 48t9.5 57.5v2q0 17 -3.5 33t-9.5 31l-197 -200q29 -16 67 -16zM188 267q0 -38 13 -64l197 199q-32 17 -67 17q-34 0 -60.5 -12t-45 -32.5t-28 -48t-9.5 -57.5v-2z" />
    <glyph glyph-name="Scommaaccent" unicode="&#x218;" horiz-adv-x="640" 
d="M333 -10q-69 0 -136 21t-127 63q-13 9 -21 24.5t-8 33.5q0 30 21 50.5t51 20.5q15 0 25.5 -4.5t18.5 -9.5q40 -29 84 -46t95 -17q48 0 74.5 17.5t26.5 48.5v2q0 15 -5.5 26.5t-21 22t-43 20t-71.5 20.5q-53 13 -96 28.5t-73 39.5t-46.5 59t-16.5 87v2q0 48 18 86.5
t50.5 66.5t77.5 43t99 15q64 0 119 -16t103 -46q13 -8 23.5 -23t10.5 -38q0 -30 -21 -50.5t-51 -20.5q-19 0 -39 11q-77 47 -147 47q-45 0 -67.5 -17.5t-22.5 -43.5v-2q0 -18 6.5 -30t23.5 -21.5t46.5 -19t74.5 -21.5q53 -14 94.5 -31.5t70 -42t43 -57.5t14.5 -79v-2
q0 -52 -19 -92.5t-53 -68t-81 -42t-104 -14.5zM329 -179q-26 5 -44.5 19.5t-18.5 40.5v1q0 26 19.5 43t52.5 17q35 0 55.5 -22.5t20.5 -59.5v-3q0 -77 -51 -119q-19 -17 -45 -26t-51 -9q-17 0 -24.5 7.5t-7.5 17.5q0 20 25 24q70 15 69 69z" />
    <glyph glyph-name="scommaaccent" unicode="&#x219;" horiz-adv-x="502" 
d="M256 -10q-51 0 -102 14.5t-100 46.5q-12 8 -20.5 21t-8.5 31q0 26 17 43t43 17q16 0 30 -8q38 -24 75.5 -36t69.5 -12q33 0 48.5 11t15.5 29v2q0 12 -9 20.5t-24.5 15.5t-35.5 13t-42 13q-28 8 -56.5 19.5t-51.5 30t-37.5 45.5t-14.5 66v2q0 41 15.5 72.5t42 53.5t62 33
t76.5 11q42 0 84.5 -10.5t81.5 -30.5q36 -17 36 -57q0 -26 -17.5 -43t-43.5 -17q-15 0 -28 7q-32 16 -62 25t-54 9q-28 0 -42 -10.5t-14 -26.5v-2q0 -11 9 -19.5t24 -16t34.5 -14.5t41.5 -14q28 -9 57 -21t52 -30.5t38 -44.5t15 -63v-2q0 -45 -15.5 -77.5t-43.5 -53.5
t-65.5 -31.5t-80.5 -10.5zM259 -174q-26 5 -44.5 19.5t-18.5 40.5v1q0 26 19.5 43t52.5 17q35 0 55.5 -22.5t20.5 -59.5v-3q0 -77 -51 -119q-19 -17 -45 -26t-51 -9q-17 0 -24.5 7.5t-7.5 17.5q0 20 25 24q70 15 69 69z" />
    <glyph glyph-name="schwa" unicode="&#x259;" horiz-adv-x="613" 
d="M193 226q7 -51 36 -82.5t77 -31.5t77.5 31t38.5 83h-229zM105 483q35 30 80.5 47.5t105.5 17.5t111.5 -20t89 -57t58.5 -88t21 -112v-2q0 -57 -19.5 -108t-54.5 -89t-84 -60t-107 -22q-68 0 -116.5 24.5t-80 62.5t-46.5 83.5t-15 87.5q0 33 20.5 53t50.5 20h301
q-11 52 -45.5 78.5t-85.5 26.5q-32 0 -58.5 -9.5t-49.5 -26.5q-8 -6 -16.5 -9t-20.5 -3q-26 0 -42.5 17t-16.5 43q0 15 6 26t14 19z" />
    <glyph glyph-name="circumflex" unicode="&#x2c6;" horiz-adv-x="500" 
d="M202 622q-25 -20 -45.5 -26.5t-46.5 -6.5q-14 0 -23.5 6t-9.5 18q0 7 5 14.5t10 14.5l63 81q13 16 29 25t42 9h48q26 0 42 -9t29 -25l63 -81q5 -7 10 -14.5t5 -14.5q0 -12 -10.5 -18t-24.5 -6q-26 0 -46.5 6.5t-45.5 26.5l-47 39z" />
    <glyph glyph-name="caron" unicode="&#x2c7;" horiz-adv-x="500" 
d="M298 725q25 20 45.5 26.5t46.5 6.5q14 0 23.5 -6t9.5 -18q0 -7 -5 -14.5t-10 -14.5l-63 -81q-13 -16 -29 -25t-42 -9h-48q-26 0 -42 9t-29 25l-63 81q-5 7 -10 14.5t-5 14.5q0 12 10.5 18t24.5 6q26 0 46.5 -6.5t45.5 -26.5l47 -39z" />
    <glyph glyph-name="breve" unicode="&#x2d8;" horiz-adv-x="500" 
d="M250 593q-60 0 -102 22.5t-65 62.5q-7 13 -7 28q0 22 15 37t37 15q18 0 28.5 -8t16.5 -18q11 -18 29 -29t48 -11t48 11t29 29q6 10 16.5 18t28.5 8q22 0 37 -15t15 -37q0 -15 -7 -28q-23 -40 -65 -62.5t-102 -22.5z" />
    <glyph glyph-name="dotaccent" unicode="&#x2d9;" horiz-adv-x="500" 
d="M331 662q0 -33 -24 -53t-57 -20t-57 20t-24 53v2q0 33 24 53t57 20t57 -20t24 -53v-2z" />
    <glyph glyph-name="ring" unicode="&#x2da;" horiz-adv-x="500" 
d="M250 593q-24 0 -46 9.5t-38.5 25t-26.5 36.5t-10 45v2q0 24 10 45t26.5 36.5t38.5 25t46 9.5t46 -9.5t38.5 -25t26.5 -36.5t10 -45v-2q0 -24 -10 -45t-26.5 -36.5t-38.5 -25t-46 -9.5zM250 648q26 0 44 18t18 43v2q0 25 -18 43t-44 18t-44 -18t-18 -43v-2q0 -25 18 -43
t44 -18z" />
    <glyph glyph-name="ogonek" unicode="&#x2db;" horiz-adv-x="500" 
d="M177 -80q0 24 11.5 45.5t30.5 44.5h101q-19 -20 -26.5 -36t-7.5 -30q0 -17 10 -25.5t30 -13.5q36 -9 36 -36q0 -36 -48 -36q-63 0 -100 22t-37 65z" />
    <glyph glyph-name="tilde" unicode="&#x2dc;" horiz-adv-x="500" 
d="M135 605q-6 -10 -15.5 -16.5t-23.5 -6.5q-18 0 -31.5 12.5t-13.5 28.5q0 5 1.5 13t3.5 14q17 45 41.5 71.5t70.5 26.5q23 0 44.5 -6t40.5 -13.5t35 -13.5t30 -6q18 0 28 7t19 22q6 10 15.5 16.5t23.5 6.5q18 0 31.5 -12.5t13.5 -28.5q0 -5 -1.5 -13t-3.5 -14
q-17 -45 -41.5 -71.5t-70.5 -26.5q-23 0 -44.5 6t-40.5 13.5t-35.5 13.5t-29.5 6q-18 0 -28 -7t-19 -22z" />
    <glyph glyph-name="hungarumlaut" unicode="&#x2dd;" horiz-adv-x="500" 
d="M287 589q-36 0 -36 26q0 7 3 14t7 13l55 86q10 16 22.5 25t31.5 9q14 0 29 -4t27 -10.5t20 -14.5t8 -17q0 -11 -5.5 -19.5t-14.5 -16.5l-62 -58q-22 -20 -40.5 -26.5t-44.5 -6.5zM91 589q-36 0 -36 26q0 7 3 14t7 13l55 86q10 16 22.5 25t31.5 9q14 0 29 -4t27 -10.5
t20 -14.5t8 -17q0 -11 -5.5 -19.5t-14.5 -16.5l-62 -58q-22 -20 -40.5 -26.5t-44.5 -6.5z" />
    <glyph glyph-name="commaaccent" unicode="&#x326;" horiz-adv-x="500" 
d="M240 -174q-26 5 -44.5 19.5t-18.5 40.5v1q0 26 19.5 43t52.5 17q35 0 55.5 -22.5t20.5 -59.5v-3q0 -77 -51 -119q-19 -17 -45 -26t-51 -9q-17 0 -24.5 7.5t-7.5 17.5q0 20 25 24q70 15 69 69z" />
    <glyph glyph-name="Wgrave" unicode="&#x1e80;" horiz-adv-x="1098" 
d="M40 602q-2 7 -4 14.5t-2 14.5q0 32 23.5 53.5t55.5 21.5q27 0 47 -15.5t28 -39.5l139 -429l140 425q9 27 29 44t49 17h12q29 0 49 -16.5t29 -44.5l140 -425l139 429q8 23 26.5 39t47.5 16q32 0 54 -21t22 -53q0 -7 -2 -15t-4 -15l-196 -550q-11 -29 -31.5 -46t-48.5 -17
h-16q-28 0 -48 16.5t-31 46.5l-138 401l-138 -401q-11 -30 -31 -46.5t-48 -16.5h-16q-28 0 -48.5 17t-31.5 46zM553 749q-26 0 -45.5 6.5t-41.5 26.5l-62 58q-9 8 -14.5 16.5t-5.5 19.5q0 9 8 17t20.5 14.5t27.5 10.5t29 4q19 0 33 -9t24 -25l55 -86q4 -6 7 -13t3 -14
q0 -12 -10.5 -19t-27.5 -7z" />
    <glyph glyph-name="wgrave" unicode="&#x1e81;" horiz-adv-x="849" 
d="M251 -10q-28 0 -50 16.5t-34 51.5l-131 378q-2 7 -4.5 17t-2.5 20q0 26 19.5 47.5t53.5 21.5q29 0 47.5 -16.5t26.5 -42.5l82 -272l84 271q8 27 28.5 44t49.5 17h9q29 0 49.5 -17t28.5 -44l85 -272l84 274q8 24 25.5 41t47.5 17q32 0 51.5 -20.5t19.5 -49.5q0 -19 -5 -31
l-135 -383q-12 -35 -34 -51.5t-50 -16.5h-5q-28 0 -49.5 16t-32.5 49l-85 270l-86 -270q-11 -33 -32.5 -49t-49.5 -16h-5zM428 589q-26 0 -45.5 6.5t-41.5 26.5l-62 58q-9 8 -14.5 16.5t-5.5 19.5q0 9 8 17t20.5 14.5t27.5 10.5t29 4q19 0 33 -9t24 -25l55 -86q4 -6 7 -13
t3 -14q0 -12 -10.5 -19t-27.5 -7z" />
    <glyph glyph-name="Wacute" unicode="&#x1e82;" horiz-adv-x="1098" 
d="M40 602q-2 7 -4 14.5t-2 14.5q0 32 23.5 53.5t55.5 21.5q27 0 47 -15.5t28 -39.5l139 -429l140 425q9 27 29 44t49 17h12q29 0 49 -16.5t29 -44.5l140 -425l139 429q8 23 26.5 39t47.5 16q32 0 54 -21t22 -53q0 -7 -2 -15t-4 -15l-196 -550q-11 -29 -31.5 -46t-48.5 -17
h-16q-28 0 -48 16.5t-31 46.5l-138 401l-138 -401q-11 -30 -31 -46.5t-48 -16.5h-16q-28 0 -48.5 17t-31.5 46zM545 749q-17 0 -27.5 7t-10.5 19q0 7 3 14t7 13l55 86q10 16 24 25t33 9q14 0 29 -4t27.5 -10.5t20.5 -14.5t8 -17q0 -11 -5.5 -19.5t-14.5 -16.5l-62 -58
q-22 -20 -41.5 -26.5t-45.5 -6.5z" />
    <glyph glyph-name="wacute" unicode="&#x1e83;" horiz-adv-x="849" 
d="M251 -10q-28 0 -50 16.5t-34 51.5l-131 378q-2 7 -4.5 17t-2.5 20q0 26 19.5 47.5t53.5 21.5q29 0 47.5 -16.5t26.5 -42.5l82 -272l84 271q8 27 28.5 44t49.5 17h9q29 0 49.5 -17t28.5 -44l85 -272l84 274q8 24 25.5 41t47.5 17q32 0 51.5 -20.5t19.5 -49.5q0 -19 -5 -31
l-135 -383q-12 -35 -34 -51.5t-50 -16.5h-5q-28 0 -49.5 16t-32.5 49l-85 270l-86 -270q-11 -33 -32.5 -49t-49.5 -16h-5zM420 589q-17 0 -27.5 7t-10.5 19q0 7 3 14t7 13l55 86q10 16 24 25t33 9q14 0 29 -4t27.5 -10.5t20.5 -14.5t8 -17q0 -11 -5.5 -19.5t-14.5 -16.5
l-62 -58q-22 -20 -41.5 -26.5t-45.5 -6.5z" />
    <glyph glyph-name="Wdieresis" unicode="&#x1e84;" horiz-adv-x="1098" 
d="M40 602q-2 7 -4 14.5t-2 14.5q0 32 23.5 53.5t55.5 21.5q27 0 47 -15.5t28 -39.5l139 -429l140 425q9 27 29 44t49 17h12q29 0 49 -16.5t29 -44.5l140 -425l139 429q8 23 26.5 39t47.5 16q32 0 54 -21t22 -53q0 -7 -2 -15t-4 -15l-196 -550q-11 -29 -31.5 -46t-48.5 -17
h-16q-28 0 -48 16.5t-31 46.5l-138 401l-138 -401q-11 -30 -31 -46.5t-48 -16.5h-16q-28 0 -48.5 17t-31.5 46zM656 897q32 0 55.5 -20.5t23.5 -52.5v-2q0 -32 -23.5 -52.5t-55.5 -20.5t-55.5 20.5t-23.5 52.5v2q0 32 23.5 52.5t55.5 20.5zM442 897q32 0 55.5 -20.5
t23.5 -52.5v-2q0 -32 -23.5 -52.5t-55.5 -20.5t-55.5 20.5t-23.5 52.5v2q0 32 23.5 52.5t55.5 20.5z" />
    <glyph glyph-name="wdieresis" unicode="&#x1e85;" horiz-adv-x="849" 
d="M251 -10q-28 0 -50 16.5t-34 51.5l-131 378q-2 7 -4.5 17t-2.5 20q0 26 19.5 47.5t53.5 21.5q29 0 47.5 -16.5t26.5 -42.5l82 -272l84 271q8 27 28.5 44t49.5 17h9q29 0 49.5 -17t28.5 -44l85 -272l84 274q8 24 25.5 41t47.5 17q32 0 51.5 -20.5t19.5 -49.5q0 -19 -5 -31
l-135 -383q-12 -35 -34 -51.5t-50 -16.5h-5q-28 0 -49.5 16t-32.5 49l-85 270l-86 -270q-11 -33 -32.5 -49t-49.5 -16h-5zM531 737q32 0 55.5 -20.5t23.5 -52.5v-2q0 -32 -23.5 -52.5t-55.5 -20.5t-55.5 20.5t-23.5 52.5v2q0 32 23.5 52.5t55.5 20.5zM317 737
q32 0 55.5 -20.5t23.5 -52.5v-2q0 -32 -23.5 -52.5t-55.5 -20.5t-55.5 20.5t-23.5 52.5v2q0 32 23.5 52.5t55.5 20.5z" />
    <glyph glyph-name="uni1EA0" unicode="&#x1ea0;" horiz-adv-x="766" 
d="M299 -160q0 32 23.5 50.5t57.5 18.5q36 0 60 -18.5t24 -50.5v-1q0 -32 -24 -51t-60 -19q-34 0 -57.5 19t-23.5 51v1zM36 66q0 8 2.5 16.5t6.5 16.5l244 551q13 29 35.5 45t54.5 16h9q32 0 54 -16t35 -45l244 -551q8 -19 8 -31q0 -31 -21 -52.5t-52 -21.5q-27 0 -45 14.5
t-29 38.5l-47 110h-308l-49 -115q-10 -23 -28.5 -35.5t-42.5 -12.5q-30 0 -50.5 21t-20.5 51zM478 293l-97 231l-97 -231h194z" />
    <glyph glyph-name="uni1EA1" unicode="&#x1ea1;" horiz-adv-x="592" 
d="M194 -160q0 32 23.5 50.5t57.5 18.5q36 0 60 -18.5t24 -50.5v-1q0 -32 -24 -51t-60 -19q-34 0 -57.5 19t-23.5 51v1zM220 -10q-38 0 -71.5 10.5t-58.5 31.5t-39.5 51.5t-14.5 70.5v2q0 43 16 75.5t44.5 53.5t68 31.5t87.5 10.5q42 0 72 -6t59 -16v9q0 98 -115 98
q-32 0 -57.5 -4t-47.5 -11q-11 -4 -22 -4q-26 0 -44.5 18t-18.5 44q0 20 11.5 36t29.5 23q36 14 76.5 21t94.5 7q63 0 107.5 -15.5t73.5 -44.5q30 -30 44 -73.5t14 -97.5v-244q0 -31 -21.5 -52t-52.5 -21q-33 0 -53 19.5t-20 43.5v1q-28 -31 -66.5 -49.5t-95.5 -18.5z
M266 95q54 0 86.5 26t32.5 68v27q-20 9 -44.5 14.5t-52.5 5.5q-49 0 -77 -19t-28 -55v-2q0 -31 23 -48t60 -17z" />
    <glyph glyph-name="uni1EA2" unicode="&#x1ea2;" horiz-adv-x="766" 
d="M387 759q-36 0 -41 31q-2 10 -2 16q-1 5 -0.5 11.5t0.5 9.5q0 13 9 22.5t26 12.5q34 3 34 16q0 5 -3.5 11t-15.5 6q-14 0 -20 -7.5t-11 -12.5h1q-15 -14 -28 -15q-6 -1 -15.5 -1t-19 3.5t-16.5 12t-8 25.5q-1 12 4.5 20.5t7.5 10.5q22 20 47 27t60 7q60 0 87 -25t27 -62
q0 -32 -20.5 -53t-55.5 -29v-8q-6 -29 -45 -29h-2zM36 66q0 8 2.5 16.5t6.5 16.5l244 551q13 29 35.5 45t54.5 16h9q32 0 54 -16t35 -45l244 -551q8 -19 8 -31q0 -31 -21 -52.5t-52 -21.5q-27 0 -45 14.5t-29 38.5l-47 110h-308l-49 -115q-10 -23 -28.5 -35.5t-42.5 -12.5
q-30 0 -50.5 21t-20.5 51zM478 293l-97 231l-97 -231h194z" />
    <glyph glyph-name="uni1EA3" unicode="&#x1ea3;" horiz-adv-x="592" 
d="M321 589q-36 0 -41 31q-2 10 -2 16q-1 5 -0.5 11.5t0.5 9.5q0 13 9 22.5t26 12.5q34 3 34 16q0 5 -3.5 11t-15.5 6q-14 0 -20 -7.5t-11 -12.5h1q-15 -14 -28 -15q-6 -1 -15.5 -1t-19 3.5t-16.5 12t-8 25.5q-1 12 4.5 20.5t7.5 10.5q22 20 47 27t60 7q60 0 87 -25t27 -62
q0 -32 -20.5 -53t-55.5 -29v-8q-6 -29 -45 -29h-2zM220 -10q-38 0 -71.5 10.5t-58.5 31.5t-39.5 51.5t-14.5 70.5v2q0 43 16 75.5t44.5 53.5t68 31.5t87.5 10.5q42 0 72 -6t59 -16v9q0 98 -115 98q-32 0 -57.5 -4t-47.5 -11q-11 -4 -22 -4q-26 0 -44.5 18t-18.5 44
q0 20 11.5 36t29.5 23q36 14 76.5 21t94.5 7q63 0 107.5 -15.5t73.5 -44.5q30 -30 44 -73.5t14 -97.5v-244q0 -31 -21.5 -52t-52.5 -21q-33 0 -53 19.5t-20 43.5v1q-28 -31 -66.5 -49.5t-95.5 -18.5zM266 95q54 0 86.5 26t32.5 68v27q-20 9 -44.5 14.5t-52.5 5.5
q-49 0 -77 -19t-28 -55v-2q0 -31 23 -48t60 -17z" />
    <glyph glyph-name="uni1EA4" unicode="&#x1ea4;" horiz-adv-x="766" 
d="M542 897q-17 0 -27.5 7t-10.5 19q0 7 3 14t7 13l55 86q10 16 24 25t33 9q14 0 29 -4t27.5 -10.5t20.5 -14.5t8 -17q0 -11 -5.5 -19.5t-14.5 -16.5l-62 -58q-22 -20 -41.5 -26.5t-45.5 -6.5zM36 66q0 8 2.5 16.5t6.5 16.5l244 551q13 29 35.5 45t54.5 16h9q32 0 54 -16
t35 -45l244 -551q8 -19 8 -31q0 -31 -21 -52.5t-52 -21.5q-27 0 -45 14.5t-29 38.5l-47 110h-308l-49 -115q-10 -23 -28.5 -35.5t-42.5 -12.5q-30 0 -50.5 21t-20.5 51zM478 293l-97 231l-97 -231h194zM334 792q-25 -20 -45.5 -26.5t-46.5 -6.5q-14 0 -23.5 6t-9.5 18
q0 7 5 14.5t10 14.5l63 81q13 16 29 25t42 9h48q26 0 42 -9t29 -25l63 -81q5 -7 10 -14.5t5 -14.5q0 -12 -10.5 -18t-24.5 -6q-26 0 -46.5 6.5t-45.5 26.5l-47 39z" />
    <glyph glyph-name="uni1EA5" unicode="&#x1ea5;" horiz-adv-x="592" 
d="M468 727q-17 0 -27.5 7t-10.5 19q0 7 3 14t7 13l55 86q10 16 24 25t33 9q14 0 29 -4t27.5 -10.5t20.5 -14.5t8 -17q0 -11 -5.5 -19.5t-14.5 -16.5l-62 -58q-22 -20 -41.5 -26.5t-45.5 -6.5zM220 -10q-38 0 -71.5 10.5t-58.5 31.5t-39.5 51.5t-14.5 70.5v2q0 43 16 75.5
t44.5 53.5t68 31.5t87.5 10.5q42 0 72 -6t59 -16v9q0 98 -115 98q-32 0 -57.5 -4t-47.5 -11q-11 -4 -22 -4q-26 0 -44.5 18t-18.5 44q0 20 11.5 36t29.5 23q36 14 76.5 21t94.5 7q63 0 107.5 -15.5t73.5 -44.5q30 -30 44 -73.5t14 -97.5v-244q0 -31 -21.5 -52t-52.5 -21
q-33 0 -53 19.5t-20 43.5v1q-28 -31 -66.5 -49.5t-95.5 -18.5zM260 622q-25 -20 -45.5 -26.5t-46.5 -6.5q-14 0 -23.5 6t-9.5 18q0 7 5 14.5t10 14.5l63 81q13 16 29 25t42 9h48q26 0 42 -9t29 -25l63 -81q5 -7 10 -14.5t5 -14.5q0 -12 -10.5 -18t-24.5 -6q-26 0 -46.5 6.5
t-45.5 26.5l-47 39zM266 95q54 0 86.5 26t32.5 68v27q-20 9 -44.5 14.5t-52.5 5.5q-49 0 -77 -19t-28 -55v-2q0 -31 23 -48t60 -17z" />
    <glyph glyph-name="uni1EA6" unicode="&#x1ea6;" horiz-adv-x="766" 
d="M589 897q-26 0 -45.5 6.5t-41.5 26.5l-62 58q-9 8 -14.5 16.5t-5.5 19.5q0 9 8 17t20.5 14.5t27.5 10.5t29 4q19 0 33 -9t24 -25l55 -86q4 -6 7 -13t3 -14q0 -12 -10.5 -19t-27.5 -7zM36 66q0 8 2.5 16.5t6.5 16.5l244 551q13 29 35.5 45t54.5 16h9q32 0 54 -16t35 -45
l244 -551q8 -19 8 -31q0 -31 -21 -52.5t-52 -21.5q-27 0 -45 14.5t-29 38.5l-47 110h-308l-49 -115q-10 -23 -28.5 -35.5t-42.5 -12.5q-30 0 -50.5 21t-20.5 51zM478 293l-97 231l-97 -231h194zM334 792q-25 -20 -45.5 -26.5t-46.5 -6.5q-14 0 -23.5 6t-9.5 18q0 7 5 14.5
t10 14.5l63 81q13 16 29 25t42 9h48q26 0 42 -9t29 -25l63 -81q5 -7 10 -14.5t5 -14.5q0 -12 -10.5 -18t-24.5 -6q-26 0 -46.5 6.5t-45.5 26.5l-47 39z" />
    <glyph glyph-name="uni1EA7" unicode="&#x1ea7;" horiz-adv-x="592" 
d="M515 727q-26 0 -45.5 6.5t-41.5 26.5l-62 58q-9 8 -14.5 16.5t-5.5 19.5q0 9 8 17t20.5 14.5t27.5 10.5t29 4q19 0 33 -9t24 -25l55 -86q4 -6 7 -13t3 -14q0 -12 -10.5 -19t-27.5 -7zM220 -10q-38 0 -71.5 10.5t-58.5 31.5t-39.5 51.5t-14.5 70.5v2q0 43 16 75.5
t44.5 53.5t68 31.5t87.5 10.5q42 0 72 -6t59 -16v9q0 98 -115 98q-32 0 -57.5 -4t-47.5 -11q-11 -4 -22 -4q-26 0 -44.5 18t-18.5 44q0 20 11.5 36t29.5 23q36 14 76.5 21t94.5 7q63 0 107.5 -15.5t73.5 -44.5q30 -30 44 -73.5t14 -97.5v-244q0 -31 -21.5 -52t-52.5 -21
q-33 0 -53 19.5t-20 43.5v1q-28 -31 -66.5 -49.5t-95.5 -18.5zM260 622q-25 -20 -45.5 -26.5t-46.5 -6.5q-14 0 -23.5 6t-9.5 18q0 7 5 14.5t10 14.5l63 81q13 16 29 25t42 9h48q26 0 42 -9t29 -25l63 -81q5 -7 10 -14.5t5 -14.5q0 -12 -10.5 -18t-24.5 -6q-26 0 -46.5 6.5
t-45.5 26.5l-47 39zM266 95q54 0 86.5 26t32.5 68v27q-20 9 -44.5 14.5t-52.5 5.5q-49 0 -77 -19t-28 -55v-2q0 -31 23 -48t60 -17z" />
    <glyph glyph-name="uni1EA8" unicode="&#x1ea8;" horiz-adv-x="766" 
d="M549 897q-36 0 -41 31q-2 10 -2 16q-1 5 -0.5 11.5t0.5 9.5q0 13 9 22.5t26 12.5q34 3 34 16q0 5 -3.5 11t-15.5 6q-14 0 -20 -7.5t-11 -12.5h1q-15 -14 -28 -15q-6 -1 -15.5 -1t-19 3.5t-16.5 12t-8 25.5q-1 12 4.5 20.5t7.5 10.5q22 20 47 27t60 7q60 0 87 -25t27 -62
q0 -32 -20.5 -53t-55.5 -29v-8q-6 -29 -45 -29h-2zM36 66q0 8 2.5 16.5t6.5 16.5l244 551q13 29 35.5 45t54.5 16h9q32 0 54 -16t35 -45l244 -551q8 -19 8 -31q0 -31 -21 -52.5t-52 -21.5q-27 0 -45 14.5t-29 38.5l-47 110h-308l-49 -115q-10 -23 -28.5 -35.5t-42.5 -12.5
q-30 0 -50.5 21t-20.5 51zM478 293l-97 231l-97 -231h194zM334 792q-25 -20 -45.5 -26.5t-46.5 -6.5q-14 0 -23.5 6t-9.5 18q0 7 5 14.5t10 14.5l63 81q13 16 29 25t42 9h48q26 0 42 -9t29 -25l63 -81q5 -7 10 -14.5t5 -14.5q0 -12 -10.5 -18t-24.5 -6q-26 0 -46.5 6.5
t-45.5 26.5l-47 39z" />
    <glyph glyph-name="uni1EA9" unicode="&#x1ea9;" horiz-adv-x="592" 
d="M475 727q-36 0 -41 31q-2 10 -2 16q-1 5 -0.5 11.5t0.5 9.5q0 13 9 22.5t26 12.5q34 3 34 16q0 5 -3.5 11t-15.5 6q-14 0 -20 -7.5t-11 -12.5h1q-15 -14 -28 -15q-6 -1 -15.5 -1t-19 3.5t-16.5 12t-8 25.5q-1 12 4.5 20.5t7.5 10.5q22 20 47 27t60 7q60 0 87 -25t27 -62
q0 -32 -20.5 -53t-55.5 -29v-8q-6 -29 -45 -29h-2zM220 -10q-38 0 -71.5 10.5t-58.5 31.5t-39.5 51.5t-14.5 70.5v2q0 43 16 75.5t44.5 53.5t68 31.5t87.5 10.5q42 0 72 -6t59 -16v9q0 98 -115 98q-32 0 -57.5 -4t-47.5 -11q-11 -4 -22 -4q-26 0 -44.5 18t-18.5 44
q0 20 11.5 36t29.5 23q36 14 76.5 21t94.5 7q63 0 107.5 -15.5t73.5 -44.5q30 -30 44 -73.5t14 -97.5v-244q0 -31 -21.5 -52t-52.5 -21q-33 0 -53 19.5t-20 43.5v1q-28 -31 -66.5 -49.5t-95.5 -18.5zM260 622q-25 -20 -45.5 -26.5t-46.5 -6.5q-14 0 -23.5 6t-9.5 18
q0 7 5 14.5t10 14.5l63 81q13 16 29 25t42 9h48q26 0 42 -9t29 -25l63 -81q5 -7 10 -14.5t5 -14.5q0 -12 -10.5 -18t-24.5 -6q-26 0 -46.5 6.5t-45.5 26.5l-47 39zM266 95q54 0 86.5 26t32.5 68v27q-20 9 -44.5 14.5t-52.5 5.5q-49 0 -77 -19t-28 -55v-2q0 -31 23 -48
t60 -17z" />
    <glyph glyph-name="uni1EAA" unicode="&#x1eaa;" horiz-adv-x="766" 
d="M311 982q-8 -10 -15.5 -17.5t-27.5 -6.5q-17 2 -28.5 15.5t-10.5 33.5q2 6 2 10q20 49 43 68t57 18q16 -1 35.5 -8.5t33.5 -14.5q4 -2 9.5 -5t9.5 -5q2 -1 3.5 -1t3.5 -1l14 -4q5 1 9.5 4t8.5 11l2 6q8 9 17 15.5t27 5.5q20 -3 30.5 -15.5t10.5 -30.5q0 -3 -2 -11t-4 -12
v-2q-17 -45 -40.5 -61t-61.5 -14q-17 1 -36 9t-36 17q-2 1 -3.5 1t-3.5 1l-4 2q-6 0 -7 3l-1 1q-12 5 -16 5q-6 0 -9.5 -2t-6.5 -10zM36 66q0 8 2.5 16.5t6.5 16.5l244 551q13 29 35.5 45t54.5 16h9q32 0 54 -16t35 -45l244 -551q8 -19 8 -31q0 -31 -21 -52.5t-52 -21.5
q-27 0 -45 14.5t-29 38.5l-47 110h-308l-49 -115q-10 -23 -28.5 -35.5t-42.5 -12.5q-30 0 -50.5 21t-20.5 51zM478 293l-97 231l-97 -231h194zM334 792q-25 -20 -45.5 -26.5t-46.5 -6.5q-14 0 -23.5 6t-9.5 18q0 7 5 14.5t10 14.5l63 81q13 16 29 25t42 9h48q26 0 42 -9
t29 -25l63 -81q5 -7 10 -14.5t5 -14.5q0 -12 -10.5 -18t-24.5 -6q-26 0 -46.5 6.5t-45.5 26.5l-47 39z" />
    <glyph glyph-name="uni1EAB" unicode="&#x1eab;" horiz-adv-x="592" 
d="M237 812q-8 -10 -15.5 -17.5t-27.5 -6.5q-17 2 -28.5 15.5t-10.5 33.5q2 6 2 10q20 49 43 68t57 18q16 -1 35.5 -8.5t33.5 -14.5q4 -2 9.5 -5t9.5 -5q2 -1 3.5 -1t3.5 -1l14 -4q5 1 9.5 4t8.5 11l2 6q8 9 17 15.5t27 5.5q20 -3 30.5 -15.5t10.5 -30.5q0 -3 -2 -11t-4 -12
v-2q-17 -45 -40.5 -61t-61.5 -14q-17 1 -36 9t-36 17q-2 1 -3.5 1t-3.5 1l-4 2q-6 0 -7 3l-1 1q-12 5 -16 5q-6 0 -9.5 -2t-6.5 -10zM220 -10q-38 0 -71.5 10.5t-58.5 31.5t-39.5 51.5t-14.5 70.5v2q0 43 16 75.5t44.5 53.5t68 31.5t87.5 10.5q42 0 72 -6t59 -16v9
q0 98 -115 98q-32 0 -57.5 -4t-47.5 -11q-11 -4 -22 -4q-26 0 -44.5 18t-18.5 44q0 20 11.5 36t29.5 23q36 14 76.5 21t94.5 7q63 0 107.5 -15.5t73.5 -44.5q30 -30 44 -73.5t14 -97.5v-244q0 -31 -21.5 -52t-52.5 -21q-33 0 -53 19.5t-20 43.5v1q-28 -31 -66.5 -49.5
t-95.5 -18.5zM260 622q-25 -20 -45.5 -26.5t-46.5 -6.5q-14 0 -23.5 6t-9.5 18q0 7 5 14.5t10 14.5l63 81q13 16 29 25t42 9h48q26 0 42 -9t29 -25l63 -81q5 -7 10 -14.5t5 -14.5q0 -12 -10.5 -18t-24.5 -6q-26 0 -46.5 6.5t-45.5 26.5l-47 39zM266 95q54 0 86.5 26t32.5 68
v27q-20 9 -44.5 14.5t-52.5 5.5q-49 0 -77 -19t-28 -55v-2q0 -31 23 -48t60 -17z" />
    <glyph glyph-name="uni1EAC" unicode="&#x1eac;" horiz-adv-x="766" 
d="M299 -160q0 32 23.5 50.5t57.5 18.5q36 0 60 -18.5t24 -50.5v-1q0 -32 -24 -51t-60 -19q-34 0 -57.5 19t-23.5 51v1zM36 66q0 8 2.5 16.5t6.5 16.5l244 551q13 29 35.5 45t54.5 16h9q32 0 54 -16t35 -45l244 -551q8 -19 8 -31q0 -31 -21 -52.5t-52 -21.5q-27 0 -45 14.5
t-29 38.5l-47 110h-308l-49 -115q-10 -23 -28.5 -35.5t-42.5 -12.5q-30 0 -50.5 21t-20.5 51zM478 293l-97 231l-97 -231h194zM334 792q-25 -20 -45.5 -26.5t-46.5 -6.5q-14 0 -23.5 6t-9.5 18q0 7 5 14.5t10 14.5l63 81q13 16 29 25t42 9h48q26 0 42 -9t29 -25l63 -81
q5 -7 10 -14.5t5 -14.5q0 -12 -10.5 -18t-24.5 -6q-26 0 -46.5 6.5t-45.5 26.5l-47 39z" />
    <glyph glyph-name="uni1EAD" unicode="&#x1ead;" horiz-adv-x="592" 
d="M194 -160q0 32 23.5 50.5t57.5 18.5q36 0 60 -18.5t24 -50.5v-1q0 -32 -24 -51t-60 -19q-34 0 -57.5 19t-23.5 51v1zM220 -10q-38 0 -71.5 10.5t-58.5 31.5t-39.5 51.5t-14.5 70.5v2q0 43 16 75.5t44.5 53.5t68 31.5t87.5 10.5q42 0 72 -6t59 -16v9q0 98 -115 98
q-32 0 -57.5 -4t-47.5 -11q-11 -4 -22 -4q-26 0 -44.5 18t-18.5 44q0 20 11.5 36t29.5 23q36 14 76.5 21t94.5 7q63 0 107.5 -15.5t73.5 -44.5q30 -30 44 -73.5t14 -97.5v-244q0 -31 -21.5 -52t-52.5 -21q-33 0 -53 19.5t-20 43.5v1q-28 -31 -66.5 -49.5t-95.5 -18.5z
M260 622q-25 -20 -45.5 -26.5t-46.5 -6.5q-14 0 -23.5 6t-9.5 18q0 7 5 14.5t10 14.5l63 81q13 16 29 25t42 9h48q26 0 42 -9t29 -25l63 -81q5 -7 10 -14.5t5 -14.5q0 -12 -10.5 -18t-24.5 -6q-26 0 -46.5 6.5t-45.5 26.5l-47 39zM266 95q54 0 86.5 26t32.5 68v27
q-20 9 -44.5 14.5t-52.5 5.5q-49 0 -77 -19t-28 -55v-2q0 -31 23 -48t60 -17z" />
    <glyph glyph-name="uni1EAE" unicode="&#x1eae;" horiz-adv-x="766" 
d="M372 944q-17 0 -27.5 7t-10.5 19q0 7 3 14t7 13l55 86q10 16 24 25t33 9q14 0 29 -4t27.5 -10.5t20.5 -14.5t8 -17q0 -11 -5.5 -19.5t-14.5 -16.5l-62 -58q-22 -20 -41.5 -26.5t-45.5 -6.5zM36 66q0 8 2.5 16.5t6.5 16.5l244 551q13 29 35.5 45t54.5 16h9q32 0 54 -16
t35 -45l244 -551q8 -19 8 -31q0 -31 -21 -52.5t-52 -21.5q-27 0 -45 14.5t-29 38.5l-47 110h-308l-49 -115q-10 -23 -28.5 -35.5t-42.5 -12.5q-30 0 -50.5 21t-20.5 51zM478 293l-97 231l-97 -231h194zM382 759q-70 0 -107.5 26t-51.5 64q-2 7 -3.5 13.5t-0.5 14.5
q2 22 17.5 35t37.5 11q18 -2 27.5 -10.5t14.5 -19.5q8 -17 22 -25t44 -8t44.5 7.5t21.5 24.5q5 11 14.5 20t26.5 11q22 3 38 -10t18 -35q1 -8 -0.5 -14.5t-3.5 -14.5q-13 -38 -51 -64t-108 -26z" />
    <glyph glyph-name="uni1EAF" unicode="&#x1eaf;" horiz-adv-x="592" 
d="M313 774q-17 0 -27.5 7t-10.5 19q0 7 3 14t7 13l55 86q10 16 24 25t33 9q14 0 29 -4t27.5 -10.5t20.5 -14.5t8 -17q0 -11 -5.5 -19.5t-14.5 -16.5l-62 -58q-22 -20 -41.5 -26.5t-45.5 -6.5zM220 -10q-38 0 -71.5 10.5t-58.5 31.5t-39.5 51.5t-14.5 70.5v2q0 43 16 75.5
t44.5 53.5t68 31.5t87.5 10.5q42 0 72 -6t59 -16v9q0 98 -115 98q-32 0 -57.5 -4t-47.5 -11q-11 -4 -22 -4q-26 0 -44.5 18t-18.5 44q0 20 11.5 36t29.5 23q36 14 76.5 21t94.5 7q63 0 107.5 -15.5t73.5 -44.5q30 -30 44 -73.5t14 -97.5v-244q0 -31 -21.5 -52t-52.5 -21
q-33 0 -53 19.5t-20 43.5v1q-28 -31 -66.5 -49.5t-95.5 -18.5zM266 95q54 0 86.5 26t32.5 68v27q-20 9 -44.5 14.5t-52.5 5.5q-49 0 -77 -19t-28 -55v-2q0 -31 23 -48t60 -17zM323 589q-70 0 -107.5 26t-51.5 64q-2 7 -3.5 13.5t-0.5 14.5q2 22 17.5 35t37.5 11
q18 -2 27.5 -10.5t14.5 -19.5q8 -17 22 -25t44 -8t44.5 7.5t21.5 24.5q5 11 14.5 20t26.5 11q22 3 38 -10t18 -35q1 -8 -0.5 -14.5t-3.5 -14.5q-13 -38 -51 -64t-108 -26z" />
    <glyph glyph-name="uni1EB0" unicode="&#x1eb0;" horiz-adv-x="766" 
d="M402 944q-26 0 -45.5 6.5t-41.5 26.5l-62 58q-9 8 -14.5 16.5t-5.5 19.5q0 9 8 17t20.5 14.5t27.5 10.5t29 4q19 0 33 -9t24 -25l55 -86q4 -6 7 -13t3 -14q0 -12 -10.5 -19t-27.5 -7zM36 66q0 8 2.5 16.5t6.5 16.5l244 551q13 29 35.5 45t54.5 16h9q32 0 54 -16t35 -45
l244 -551q8 -19 8 -31q0 -31 -21 -52.5t-52 -21.5q-27 0 -45 14.5t-29 38.5l-47 110h-308l-49 -115q-10 -23 -28.5 -35.5t-42.5 -12.5q-30 0 -50.5 21t-20.5 51zM478 293l-97 231l-97 -231h194zM382 759q-70 0 -107.5 26t-51.5 64q-2 7 -3.5 13.5t-0.5 14.5q2 22 17.5 35
t37.5 11q18 -2 27.5 -10.5t14.5 -19.5q8 -17 22 -25t44 -8t44.5 7.5t21.5 24.5q5 11 14.5 20t26.5 11q22 3 38 -10t18 -35q1 -8 -0.5 -14.5t-3.5 -14.5q-13 -38 -51 -64t-108 -26z" />
    <glyph glyph-name="uni1EB1" unicode="&#x1eb1;" horiz-adv-x="592" 
d="M343 774q-26 0 -45.5 6.5t-41.5 26.5l-62 58q-9 8 -14.5 16.5t-5.5 19.5q0 9 8 17t20.5 14.5t27.5 10.5t29 4q19 0 33 -9t24 -25l55 -86q4 -6 7 -13t3 -14q0 -12 -10.5 -19t-27.5 -7zM220 -10q-38 0 -71.5 10.5t-58.5 31.5t-39.5 51.5t-14.5 70.5v2q0 43 16 75.5
t44.5 53.5t68 31.5t87.5 10.5q42 0 72 -6t59 -16v9q0 98 -115 98q-32 0 -57.5 -4t-47.5 -11q-11 -4 -22 -4q-26 0 -44.5 18t-18.5 44q0 20 11.5 36t29.5 23q36 14 76.5 21t94.5 7q63 0 107.5 -15.5t73.5 -44.5q30 -30 44 -73.5t14 -97.5v-244q0 -31 -21.5 -52t-52.5 -21
q-33 0 -53 19.5t-20 43.5v1q-28 -31 -66.5 -49.5t-95.5 -18.5zM266 95q54 0 86.5 26t32.5 68v27q-20 9 -44.5 14.5t-52.5 5.5q-49 0 -77 -19t-28 -55v-2q0 -31 23 -48t60 -17zM323 589q-70 0 -107.5 26t-51.5 64q-2 7 -3.5 13.5t-0.5 14.5q2 22 17.5 35t37.5 11
q18 -2 27.5 -10.5t14.5 -19.5q8 -17 22 -25t44 -8t44.5 7.5t21.5 24.5q5 11 14.5 20t26.5 11q22 3 38 -10t18 -35q1 -8 -0.5 -14.5t-3.5 -14.5q-13 -38 -51 -64t-108 -26z" />
    <glyph glyph-name="uni1EB2" unicode="&#x1eb2;" horiz-adv-x="766" 
d="M381 944q-36 0 -41 31q-2 10 -2 16q-1 5 -0.5 11.5t0.5 9.5q0 13 9 22.5t26 12.5q34 3 34 16q0 5 -3.5 11t-15.5 6q-14 0 -20 -7.5t-11 -12.5h1q-15 -14 -28 -15q-6 -1 -15.5 -1t-19 3.5t-16.5 12t-8 25.5q-1 12 4.5 20.5t7.5 10.5q22 20 47 27t60 7q60 0 87 -25t27 -62
q0 -32 -20.5 -53t-55.5 -29v-8q-6 -29 -45 -29h-2zM36 66q0 8 2.5 16.5t6.5 16.5l244 551q13 29 35.5 45t54.5 16h9q32 0 54 -16t35 -45l244 -551q8 -19 8 -31q0 -31 -21 -52.5t-52 -21.5q-27 0 -45 14.5t-29 38.5l-47 110h-308l-49 -115q-10 -23 -28.5 -35.5t-42.5 -12.5
q-30 0 -50.5 21t-20.5 51zM478 293l-97 231l-97 -231h194zM382 759q-70 0 -107.5 26t-51.5 64q-2 7 -3.5 13.5t-0.5 14.5q2 22 17.5 35t37.5 11q18 -2 27.5 -10.5t14.5 -19.5q8 -17 22 -25t44 -8t44.5 7.5t21.5 24.5q5 11 14.5 20t26.5 11q22 3 38 -10t18 -35
q1 -8 -0.5 -14.5t-3.5 -14.5q-13 -38 -51 -64t-108 -26z" />
    <glyph glyph-name="uni1EB3" unicode="&#x1eb3;" horiz-adv-x="592" 
d="M322 774q-36 0 -41 31q-2 10 -2 16q-1 5 -0.5 11.5t0.5 9.5q0 13 9 22.5t26 12.5q34 3 34 16q0 5 -3.5 11t-15.5 6q-14 0 -20 -7.5t-11 -12.5h1q-15 -14 -28 -15q-6 -1 -15.5 -1t-19 3.5t-16.5 12t-8 25.5q-1 12 4.5 20.5t7.5 10.5q22 20 47 27t60 7q60 0 87 -25t27 -62
q0 -32 -20.5 -53t-55.5 -29v-8q-6 -29 -45 -29h-2zM220 -10q-38 0 -71.5 10.5t-58.5 31.5t-39.5 51.5t-14.5 70.5v2q0 43 16 75.5t44.5 53.5t68 31.5t87.5 10.5q42 0 72 -6t59 -16v9q0 98 -115 98q-32 0 -57.5 -4t-47.5 -11q-11 -4 -22 -4q-26 0 -44.5 18t-18.5 44
q0 20 11.5 36t29.5 23q36 14 76.5 21t94.5 7q63 0 107.5 -15.5t73.5 -44.5q30 -30 44 -73.5t14 -97.5v-244q0 -31 -21.5 -52t-52.5 -21q-33 0 -53 19.5t-20 43.5v1q-28 -31 -66.5 -49.5t-95.5 -18.5zM266 95q54 0 86.5 26t32.5 68v27q-20 9 -44.5 14.5t-52.5 5.5
q-49 0 -77 -19t-28 -55v-2q0 -31 23 -48t60 -17zM323 589q-70 0 -107.5 26t-51.5 64q-2 7 -3.5 13.5t-0.5 14.5q2 22 17.5 35t37.5 11q18 -2 27.5 -10.5t14.5 -19.5q8 -17 22 -25t44 -8t44.5 7.5t21.5 24.5q5 11 14.5 20t26.5 11q22 3 38 -10t18 -35q1 -8 -0.5 -14.5
t-3.5 -14.5q-13 -38 -51 -64t-108 -26z" />
    <glyph glyph-name="uni1EB4" unicode="&#x1eb4;" horiz-adv-x="766" 
d="M311 969q-8 -10 -15.5 -17.5t-27.5 -6.5q-17 2 -28.5 15.5t-10.5 33.5q2 6 2 10q20 49 43 68t57 18q16 -1 35.5 -8.5t33.5 -14.5q4 -2 9.5 -5t9.5 -5q2 -1 3.5 -1t3.5 -1l14 -4q5 1 9.5 4t8.5 11l2 6q8 9 17 15.5t27 5.5q20 -3 30.5 -15.5t10.5 -30.5q0 -3 -2 -11t-4 -12
v-2q-17 -45 -40.5 -61t-61.5 -14q-17 1 -36 9t-36 17q-2 1 -3.5 1t-3.5 1l-4 2q-6 0 -7 3l-1 1q-12 5 -16 5q-6 0 -9.5 -2t-6.5 -10zM36 66q0 8 2.5 16.5t6.5 16.5l244 551q13 29 35.5 45t54.5 16h9q32 0 54 -16t35 -45l244 -551q8 -19 8 -31q0 -31 -21 -52.5t-52 -21.5
q-27 0 -45 14.5t-29 38.5l-47 110h-308l-49 -115q-10 -23 -28.5 -35.5t-42.5 -12.5q-30 0 -50.5 21t-20.5 51zM478 293l-97 231l-97 -231h194zM382 759q-70 0 -107.5 26t-51.5 64q-2 7 -3.5 13.5t-0.5 14.5q2 22 17.5 35t37.5 11q18 -2 27.5 -10.5t14.5 -19.5q8 -17 22 -25
t44 -8t44.5 7.5t21.5 24.5q5 11 14.5 20t26.5 11q22 3 38 -10t18 -35q1 -8 -0.5 -14.5t-3.5 -14.5q-13 -38 -51 -64t-108 -26z" />
    <glyph glyph-name="uni1EB5" unicode="&#x1eb5;" horiz-adv-x="592" 
d="M252 799q-8 -10 -15.5 -17.5t-27.5 -6.5q-17 2 -28.5 15.5t-10.5 33.5q2 6 2 10q20 49 43 68t57 18q16 -1 35.5 -8.5t33.5 -14.5q4 -2 9.5 -5t9.5 -5q2 -1 3.5 -1t3.5 -1l14 -4q5 1 9.5 4t8.5 11l2 6q8 9 17 15.5t27 5.5q20 -3 30.5 -15.5t10.5 -30.5q0 -3 -2 -11t-4 -12
v-2q-17 -45 -40.5 -61t-61.5 -14q-17 1 -36 9t-36 17q-2 1 -3.5 1t-3.5 1l-4 2q-6 0 -7 3l-1 1q-12 5 -16 5q-6 0 -9.5 -2t-6.5 -10zM220 -10q-38 0 -71.5 10.5t-58.5 31.5t-39.5 51.5t-14.5 70.5v2q0 43 16 75.5t44.5 53.5t68 31.5t87.5 10.5q42 0 72 -6t59 -16v9
q0 98 -115 98q-32 0 -57.5 -4t-47.5 -11q-11 -4 -22 -4q-26 0 -44.5 18t-18.5 44q0 20 11.5 36t29.5 23q36 14 76.5 21t94.5 7q63 0 107.5 -15.5t73.5 -44.5q30 -30 44 -73.5t14 -97.5v-244q0 -31 -21.5 -52t-52.5 -21q-33 0 -53 19.5t-20 43.5v1q-28 -31 -66.5 -49.5
t-95.5 -18.5zM266 95q54 0 86.5 26t32.5 68v27q-20 9 -44.5 14.5t-52.5 5.5q-49 0 -77 -19t-28 -55v-2q0 -31 23 -48t60 -17zM323 589q-70 0 -107.5 26t-51.5 64q-2 7 -3.5 13.5t-0.5 14.5q2 22 17.5 35t37.5 11q18 -2 27.5 -10.5t14.5 -19.5q8 -17 22 -25t44 -8t44.5 7.5
t21.5 24.5q5 11 14.5 20t26.5 11q22 3 38 -10t18 -35q1 -8 -0.5 -14.5t-3.5 -14.5q-13 -38 -51 -64t-108 -26z" />
    <glyph glyph-name="uni1EB6" unicode="&#x1eb6;" horiz-adv-x="766" 
d="M299 -160q0 32 23.5 50.5t57.5 18.5q36 0 60 -18.5t24 -50.5v-1q0 -32 -24 -51t-60 -19q-34 0 -57.5 19t-23.5 51v1zM36 66q0 8 2.5 16.5t6.5 16.5l244 551q13 29 35.5 45t54.5 16h9q32 0 54 -16t35 -45l244 -551q8 -19 8 -31q0 -31 -21 -52.5t-52 -21.5q-27 0 -45 14.5
t-29 38.5l-47 110h-308l-49 -115q-10 -23 -28.5 -35.5t-42.5 -12.5q-30 0 -50.5 21t-20.5 51zM478 293l-97 231l-97 -231h194zM382 759q-70 0 -107.5 26t-51.5 64q-2 7 -3.5 13.5t-0.5 14.5q2 22 17.5 35t37.5 11q18 -2 27.5 -10.5t14.5 -19.5q8 -17 22 -25t44 -8t44.5 7.5
t21.5 24.5q5 11 14.5 20t26.5 11q22 3 38 -10t18 -35q1 -8 -0.5 -14.5t-3.5 -14.5q-13 -38 -51 -64t-108 -26z" />
    <glyph glyph-name="uni1EB7" unicode="&#x1eb7;" horiz-adv-x="592" 
d="M194 -160q0 32 23.5 50.5t57.5 18.5q36 0 60 -18.5t24 -50.5v-1q0 -32 -24 -51t-60 -19q-34 0 -57.5 19t-23.5 51v1zM220 -10q-38 0 -71.5 10.5t-58.5 31.5t-39.5 51.5t-14.5 70.5v2q0 43 16 75.5t44.5 53.5t68 31.5t87.5 10.5q42 0 72 -6t59 -16v9q0 98 -115 98
q-32 0 -57.5 -4t-47.5 -11q-11 -4 -22 -4q-26 0 -44.5 18t-18.5 44q0 20 11.5 36t29.5 23q36 14 76.5 21t94.5 7q63 0 107.5 -15.5t73.5 -44.5q30 -30 44 -73.5t14 -97.5v-244q0 -31 -21.5 -52t-52.5 -21q-33 0 -53 19.5t-20 43.5v1q-28 -31 -66.5 -49.5t-95.5 -18.5z
M266 95q54 0 86.5 26t32.5 68v27q-20 9 -44.5 14.5t-52.5 5.5q-49 0 -77 -19t-28 -55v-2q0 -31 23 -48t60 -17zM323 589q-70 0 -107.5 26t-51.5 64q-2 7 -3.5 13.5t-0.5 14.5q2 22 17.5 35t37.5 11q18 -2 27.5 -10.5t14.5 -19.5q8 -17 22 -25t44 -8t44.5 7.5t21.5 24.5
q5 11 14.5 20t26.5 11q22 3 38 -10t18 -35q1 -8 -0.5 -14.5t-3.5 -14.5q-13 -38 -51 -64t-108 -26z" />
    <glyph glyph-name="uni1EB8" unicode="&#x1eb8;" horiz-adv-x="670" 
d="M258 -160q0 32 23.5 50.5t57.5 18.5q36 0 60 -18.5t24 -50.5v-1q0 -32 -24 -51t-60 -19q-34 0 -57.5 19t-23.5 51v1zM161 0q-32 0 -54.5 22.5t-22.5 54.5v546q0 32 22.5 54.5t54.5 22.5h388q29 0 49 -20t20 -49t-20 -48.5t-49 -19.5h-312v-142h267q29 0 49 -20t20 -49
t-20 -48.5t-49 -19.5h-267v-147h317q29 0 49 -20t20 -49t-20 -48.5t-49 -19.5h-393z" />
    <glyph glyph-name="uni1EB9" unicode="&#x1eb9;" horiz-adv-x="613" 
d="M222 -160q0 32 23.5 50.5t57.5 18.5q36 0 60 -18.5t24 -50.5v-1q0 -32 -24 -51t-60 -19q-34 0 -57.5 19t-23.5 51v1zM420 310q-7 51 -36 82.5t-77 31.5t-77.5 -31t-38.5 -83h229zM508 53q-35 -30 -80.5 -47.5t-105.5 -17.5t-111.5 20t-89 57t-58.5 87.5t-21 112.5v2
q0 57 19.5 108t54.5 89t83.5 60t107.5 22q67 0 116 -24.5t80.5 -62.5t46.5 -83.5t15 -87.5q0 -33 -20.5 -53t-50.5 -20h-301q11 -52 45.5 -78.5t85.5 -26.5q32 0 58.5 9.5t49.5 26.5q8 6 16.5 9t20.5 3q26 0 42.5 -17t16.5 -43q0 -15 -6 -26t-14 -19z" />
    <glyph glyph-name="uni1EBA" unicode="&#x1eba;" horiz-adv-x="670" 
d="M359 759q-36 0 -41 31q-2 10 -2 16q-1 5 -0.5 11.5t0.5 9.5q0 13 9 22.5t26 12.5q34 3 34 16q0 5 -3.5 11t-15.5 6q-14 0 -20 -7.5t-11 -12.5h1q-15 -14 -28 -15q-6 -1 -15.5 -1t-19 3.5t-16.5 12t-8 25.5q-1 12 4.5 20.5t7.5 10.5q22 20 47 27t60 7q60 0 87 -25t27 -62
q0 -32 -20.5 -53t-55.5 -29v-8q-6 -29 -45 -29h-2zM161 0q-32 0 -54.5 22.5t-22.5 54.5v546q0 32 22.5 54.5t54.5 22.5h388q29 0 49 -20t20 -49t-20 -48.5t-49 -19.5h-312v-142h267q29 0 49 -20t20 -49t-20 -48.5t-49 -19.5h-267v-147h317q29 0 49 -20t20 -49t-20 -48.5
t-49 -19.5h-393z" />
    <glyph glyph-name="uni1EBB" unicode="&#x1ebb;" horiz-adv-x="613" 
d="M329 589q-36 0 -41 31q-2 10 -2 16q-1 5 -0.5 11.5t0.5 9.5q0 13 9 22.5t26 12.5q34 3 34 16q0 5 -3.5 11t-15.5 6q-14 0 -20 -7.5t-11 -12.5h1q-15 -14 -28 -15q-6 -1 -15.5 -1t-19 3.5t-16.5 12t-8 25.5q-1 12 4.5 20.5t7.5 10.5q22 20 47 27t60 7q60 0 87 -25t27 -62
q0 -32 -20.5 -53t-55.5 -29v-8q-6 -29 -45 -29h-2zM420 310q-7 51 -36 82.5t-77 31.5t-77.5 -31t-38.5 -83h229zM508 53q-35 -30 -80.5 -47.5t-105.5 -17.5t-111.5 20t-89 57t-58.5 87.5t-21 112.5v2q0 57 19.5 108t54.5 89t83.5 60t107.5 22q67 0 116 -24.5t80.5 -62.5
t46.5 -83.5t15 -87.5q0 -33 -20.5 -53t-50.5 -20h-301q11 -52 45.5 -78.5t85.5 -26.5q32 0 58.5 9.5t49.5 26.5q8 6 16.5 9t20.5 3q26 0 42.5 -17t16.5 -43q0 -15 -6 -26t-14 -19z" />
    <glyph glyph-name="uni1EBC" unicode="&#x1ebc;" horiz-adv-x="670" 
d="M275 791q-8 -10 -15.5 -17.5t-27.5 -6.5q-17 2 -28.5 15.5t-10.5 33.5q2 6 2 10q20 49 43 68t57 18q16 -1 35.5 -8.5t33.5 -14.5q4 -2 9.5 -5t9.5 -5q2 -1 3.5 -1t3.5 -1l14 -4q5 1 9.5 4t8.5 11l2 6q8 9 17 15.5t27 5.5q20 -3 30.5 -15.5t10.5 -30.5q0 -3 -2 -11t-4 -12
v-2q-17 -45 -40.5 -61t-61.5 -14q-17 1 -36 9t-36 17q-2 1 -3.5 1t-3.5 1l-4 2q-6 0 -7 3l-1 1q-12 5 -16 5q-6 0 -9.5 -2t-6.5 -10zM161 0q-32 0 -54.5 22.5t-22.5 54.5v546q0 32 22.5 54.5t54.5 22.5h388q29 0 49 -20t20 -49t-20 -48.5t-49 -19.5h-312v-142h267
q29 0 49 -20t20 -49t-20 -48.5t-49 -19.5h-267v-147h317q29 0 49 -20t20 -49t-20 -48.5t-49 -19.5h-393z" />
    <glyph glyph-name="uni1EBD" unicode="&#x1ebd;" horiz-adv-x="613" 
d="M256 624q-8 -10 -15.5 -17.5t-27.5 -6.5q-17 2 -28.5 15.5t-10.5 33.5q2 6 2 10q20 49 43 68t57 18q16 -1 35.5 -8.5t33.5 -14.5q4 -2 9.5 -5t9.5 -5q2 -1 3.5 -1t3.5 -1l14 -4q5 1 9.5 4t8.5 11l2 6q8 9 17 15.5t27 5.5q20 -3 30.5 -15.5t10.5 -30.5q0 -3 -2 -11t-4 -12
v-2q-17 -45 -40.5 -61t-61.5 -14q-17 1 -36 9t-36 17q-2 1 -3.5 1t-3.5 1l-4 2q-6 0 -7 3l-1 1q-12 5 -16 5q-6 0 -9.5 -2t-6.5 -10zM420 310q-7 51 -36 82.5t-77 31.5t-77.5 -31t-38.5 -83h229zM508 53q-35 -30 -80.5 -47.5t-105.5 -17.5t-111.5 20t-89 57t-58.5 87.5
t-21 112.5v2q0 57 19.5 108t54.5 89t83.5 60t107.5 22q67 0 116 -24.5t80.5 -62.5t46.5 -83.5t15 -87.5q0 -33 -20.5 -53t-50.5 -20h-301q11 -52 45.5 -78.5t85.5 -26.5q32 0 58.5 9.5t49.5 26.5q8 6 16.5 9t20.5 3q26 0 42.5 -17t16.5 -43q0 -15 -6 -26t-14 -19z" />
    <glyph glyph-name="uni1EBE" unicode="&#x1ebe;" horiz-adv-x="670" 
d="M505 887q-17 0 -27.5 7t-10.5 19q0 7 3 14t7 13l55 86q10 16 24 25t33 9q14 0 29 -4t27.5 -10.5t20.5 -14.5t8 -17q0 -11 -5.5 -19.5t-14.5 -16.5l-62 -58q-22 -20 -41.5 -26.5t-45.5 -6.5zM161 0q-32 0 -54.5 22.5t-22.5 54.5v546q0 32 22.5 54.5t54.5 22.5h388
q29 0 49 -20t20 -49t-20 -48.5t-49 -19.5h-312v-142h267q29 0 49 -20t20 -49t-20 -48.5t-49 -19.5h-267v-147h317q29 0 49 -20t20 -49t-20 -48.5t-49 -19.5h-393zM297 782q-25 -20 -45.5 -26.5t-46.5 -6.5q-14 0 -23.5 6t-9.5 18q0 7 5 14.5t10 14.5l63 81q13 16 29 25t42 9
h48q26 0 42 -9t29 -25l63 -81q5 -7 10 -14.5t5 -14.5q0 -12 -10.5 -18t-24.5 -6q-26 0 -46.5 6.5t-45.5 26.5l-47 39z" />
    <glyph glyph-name="uni1EBF" unicode="&#x1ebf;" horiz-adv-x="613" 
d="M478 727q-17 0 -27.5 7t-10.5 19q0 7 3 14t7 13l55 86q10 16 24 25t33 9q14 0 29 -4t27.5 -10.5t20.5 -14.5t8 -17q0 -11 -5.5 -19.5t-14.5 -16.5l-62 -58q-22 -20 -41.5 -26.5t-45.5 -6.5zM420 310q-7 51 -36 82.5t-77 31.5t-77.5 -31t-38.5 -83h229zM508 53
q-35 -30 -80.5 -47.5t-105.5 -17.5t-111.5 20t-89 57t-58.5 87.5t-21 112.5v2q0 57 19.5 108t54.5 89t83.5 60t107.5 22q67 0 116 -24.5t80.5 -62.5t46.5 -83.5t15 -87.5q0 -33 -20.5 -53t-50.5 -20h-301q11 -52 45.5 -78.5t85.5 -26.5q32 0 58.5 9.5t49.5 26.5q8 6 16.5 9
t20.5 3q26 0 42.5 -17t16.5 -43q0 -15 -6 -26t-14 -19zM270 622q-25 -20 -45.5 -26.5t-46.5 -6.5q-14 0 -23.5 6t-9.5 18q0 7 5 14.5t10 14.5l63 81q13 16 29 25t42 9h48q26 0 42 -9t29 -25l63 -81q5 -7 10 -14.5t5 -14.5q0 -12 -10.5 -18t-24.5 -6q-26 0 -46.5 6.5
t-45.5 26.5l-47 39z" />
    <glyph glyph-name="uni1EC0" unicode="&#x1ec0;" horiz-adv-x="670" 
d="M552 887q-26 0 -45.5 6.5t-41.5 26.5l-62 58q-9 8 -14.5 16.5t-5.5 19.5q0 9 8 17t20.5 14.5t27.5 10.5t29 4q19 0 33 -9t24 -25l55 -86q4 -6 7 -13t3 -14q0 -12 -10.5 -19t-27.5 -7zM161 0q-32 0 -54.5 22.5t-22.5 54.5v546q0 32 22.5 54.5t54.5 22.5h388q29 0 49 -20
t20 -49t-20 -48.5t-49 -19.5h-312v-142h267q29 0 49 -20t20 -49t-20 -48.5t-49 -19.5h-267v-147h317q29 0 49 -20t20 -49t-20 -48.5t-49 -19.5h-393zM297 782q-25 -20 -45.5 -26.5t-46.5 -6.5q-14 0 -23.5 6t-9.5 18q0 7 5 14.5t10 14.5l63 81q13 16 29 25t42 9h48
q26 0 42 -9t29 -25l63 -81q5 -7 10 -14.5t5 -14.5q0 -12 -10.5 -18t-24.5 -6q-26 0 -46.5 6.5t-45.5 26.5l-47 39z" />
    <glyph glyph-name="uni1EC1" unicode="&#x1ec1;" horiz-adv-x="613" 
d="M525 727q-26 0 -45.5 6.5t-41.5 26.5l-62 58q-9 8 -14.5 16.5t-5.5 19.5q0 9 8 17t20.5 14.5t27.5 10.5t29 4q19 0 33 -9t24 -25l55 -86q4 -6 7 -13t3 -14q0 -12 -10.5 -19t-27.5 -7zM420 310q-7 51 -36 82.5t-77 31.5t-77.5 -31t-38.5 -83h229zM508 53
q-35 -30 -80.5 -47.5t-105.5 -17.5t-111.5 20t-89 57t-58.5 87.5t-21 112.5v2q0 57 19.5 108t54.5 89t83.5 60t107.5 22q67 0 116 -24.5t80.5 -62.5t46.5 -83.5t15 -87.5q0 -33 -20.5 -53t-50.5 -20h-301q11 -52 45.5 -78.5t85.5 -26.5q32 0 58.5 9.5t49.5 26.5q8 6 16.5 9
t20.5 3q26 0 42.5 -17t16.5 -43q0 -15 -6 -26t-14 -19zM270 622q-25 -20 -45.5 -26.5t-46.5 -6.5q-14 0 -23.5 6t-9.5 18q0 7 5 14.5t10 14.5l63 81q13 16 29 25t42 9h48q26 0 42 -9t29 -25l63 -81q5 -7 10 -14.5t5 -14.5q0 -12 -10.5 -18t-24.5 -6q-26 0 -46.5 6.5
t-45.5 26.5l-47 39z" />
    <glyph glyph-name="uni1EC2" unicode="&#x1ec2;" horiz-adv-x="670" 
d="M512 887q-36 0 -41 31q-2 10 -2 16q-1 5 -0.5 11.5t0.5 9.5q0 13 9 22.5t26 12.5q34 3 34 16q0 5 -3.5 11t-15.5 6q-14 0 -20 -7.5t-11 -12.5h1q-15 -14 -28 -15q-6 -1 -15.5 -1t-19 3.5t-16.5 12t-8 25.5q-1 12 4.5 20.5t7.5 10.5q22 20 47 27t60 7q60 0 87 -25t27 -62
q0 -32 -20.5 -53t-55.5 -29v-8q-6 -29 -45 -29h-2zM161 0q-32 0 -54.5 22.5t-22.5 54.5v546q0 32 22.5 54.5t54.5 22.5h388q29 0 49 -20t20 -49t-20 -48.5t-49 -19.5h-312v-142h267q29 0 49 -20t20 -49t-20 -48.5t-49 -19.5h-267v-147h317q29 0 49 -20t20 -49t-20 -48.5
t-49 -19.5h-393zM297 782q-25 -20 -45.5 -26.5t-46.5 -6.5q-14 0 -23.5 6t-9.5 18q0 7 5 14.5t10 14.5l63 81q13 16 29 25t42 9h48q26 0 42 -9t29 -25l63 -81q5 -7 10 -14.5t5 -14.5q0 -12 -10.5 -18t-24.5 -6q-26 0 -46.5 6.5t-45.5 26.5l-47 39z" />
    <glyph glyph-name="uni1EC3" unicode="&#x1ec3;" horiz-adv-x="613" 
d="M485 727q-36 0 -41 31q-2 10 -2 16q-1 5 -0.5 11.5t0.5 9.5q0 13 9 22.5t26 12.5q34 3 34 16q0 5 -3.5 11t-15.5 6q-14 0 -20 -7.5t-11 -12.5h1q-15 -14 -28 -15q-6 -1 -15.5 -1t-19 3.5t-16.5 12t-8 25.5q-1 12 4.5 20.5t7.5 10.5q22 20 47 27t60 7q60 0 87 -25t27 -62
q0 -32 -20.5 -53t-55.5 -29v-8q-6 -29 -45 -29h-2zM420 310q-7 51 -36 82.5t-77 31.5t-77.5 -31t-38.5 -83h229zM508 53q-35 -30 -80.5 -47.5t-105.5 -17.5t-111.5 20t-89 57t-58.5 87.5t-21 112.5v2q0 57 19.5 108t54.5 89t83.5 60t107.5 22q67 0 116 -24.5t80.5 -62.5
t46.5 -83.5t15 -87.5q0 -33 -20.5 -53t-50.5 -20h-301q11 -52 45.5 -78.5t85.5 -26.5q32 0 58.5 9.5t49.5 26.5q8 6 16.5 9t20.5 3q26 0 42.5 -17t16.5 -43q0 -15 -6 -26t-14 -19zM270 622q-25 -20 -45.5 -26.5t-46.5 -6.5q-14 0 -23.5 6t-9.5 18q0 7 5 14.5t10 14.5l63 81
q13 16 29 25t42 9h48q26 0 42 -9t29 -25l63 -81q5 -7 10 -14.5t5 -14.5q0 -12 -10.5 -18t-24.5 -6q-26 0 -46.5 6.5t-45.5 26.5l-47 39z" />
    <glyph glyph-name="uni1EC4" unicode="&#x1ec4;" horiz-adv-x="670" 
d="M274 972q-8 -10 -15.5 -17.5t-27.5 -6.5q-17 2 -28.5 15.5t-10.5 33.5q2 6 2 10q20 49 43 68t57 18q16 -1 35.5 -8.5t33.5 -14.5q4 -2 9.5 -5t9.5 -5q2 -1 3.5 -1t3.5 -1l14 -4q5 1 9.5 4t8.5 11l2 6q8 9 17 15.5t27 5.5q20 -3 30.5 -15.5t10.5 -30.5q0 -3 -2 -11t-4 -12
v-2q-17 -45 -40.5 -61t-61.5 -14q-17 1 -36 9t-36 17q-2 1 -3.5 1t-3.5 1l-4 2q-6 0 -7 3l-1 1q-12 5 -16 5q-6 0 -9.5 -2t-6.5 -10zM161 0q-32 0 -54.5 22.5t-22.5 54.5v546q0 32 22.5 54.5t54.5 22.5h388q29 0 49 -20t20 -49t-20 -48.5t-49 -19.5h-312v-142h267
q29 0 49 -20t20 -49t-20 -48.5t-49 -19.5h-267v-147h317q29 0 49 -20t20 -49t-20 -48.5t-49 -19.5h-393zM297 782q-25 -20 -45.5 -26.5t-46.5 -6.5q-14 0 -23.5 6t-9.5 18q0 7 5 14.5t10 14.5l63 81q13 16 29 25t42 9h48q26 0 42 -9t29 -25l63 -81q5 -7 10 -14.5t5 -14.5
q0 -12 -10.5 -18t-24.5 -6q-26 0 -46.5 6.5t-45.5 26.5l-47 39z" />
    <glyph glyph-name="uni1EC5" unicode="&#x1ec5;" horiz-adv-x="613" 
d="M247 812q-8 -10 -15.5 -17.5t-27.5 -6.5q-17 2 -28.5 15.5t-10.5 33.5q2 6 2 10q20 49 43 68t57 18q16 -1 35.5 -8.5t33.5 -14.5q4 -2 9.5 -5t9.5 -5q2 -1 3.5 -1t3.5 -1l14 -4q5 1 9.5 4t8.5 11l2 6q8 9 17 15.5t27 5.5q20 -3 30.5 -15.5t10.5 -30.5q0 -3 -2 -11t-4 -12
v-2q-17 -45 -40.5 -61t-61.5 -14q-17 1 -36 9t-36 17q-2 1 -3.5 1t-3.5 1l-4 2q-6 0 -7 3l-1 1q-12 5 -16 5q-6 0 -9.5 -2t-6.5 -10zM420 310q-7 51 -36 82.5t-77 31.5t-77.5 -31t-38.5 -83h229zM508 53q-35 -30 -80.5 -47.5t-105.5 -17.5t-111.5 20t-89 57t-58.5 87.5
t-21 112.5v2q0 57 19.5 108t54.5 89t83.5 60t107.5 22q67 0 116 -24.5t80.5 -62.5t46.5 -83.5t15 -87.5q0 -33 -20.5 -53t-50.5 -20h-301q11 -52 45.5 -78.5t85.5 -26.5q32 0 58.5 9.5t49.5 26.5q8 6 16.5 9t20.5 3q26 0 42.5 -17t16.5 -43q0 -15 -6 -26t-14 -19zM270 622
q-25 -20 -45.5 -26.5t-46.5 -6.5q-14 0 -23.5 6t-9.5 18q0 7 5 14.5t10 14.5l63 81q13 16 29 25t42 9h48q26 0 42 -9t29 -25l63 -81q5 -7 10 -14.5t5 -14.5q0 -12 -10.5 -18t-24.5 -6q-26 0 -46.5 6.5t-45.5 26.5l-47 39z" />
    <glyph glyph-name="uni1EC6" unicode="&#x1ec6;" horiz-adv-x="670" 
d="M258 -160q0 32 23.5 50.5t57.5 18.5q36 0 60 -18.5t24 -50.5v-1q0 -32 -24 -51t-60 -19q-34 0 -57.5 19t-23.5 51v1zM161 0q-32 0 -54.5 22.5t-22.5 54.5v546q0 32 22.5 54.5t54.5 22.5h388q29 0 49 -20t20 -49t-20 -48.5t-49 -19.5h-312v-142h267q29 0 49 -20t20 -49
t-20 -48.5t-49 -19.5h-267v-147h317q29 0 49 -20t20 -49t-20 -48.5t-49 -19.5h-393zM297 782q-25 -20 -45.5 -26.5t-46.5 -6.5q-14 0 -23.5 6t-9.5 18q0 7 5 14.5t10 14.5l63 81q13 16 29 25t42 9h48q26 0 42 -9t29 -25l63 -81q5 -7 10 -14.5t5 -14.5q0 -12 -10.5 -18
t-24.5 -6q-26 0 -46.5 6.5t-45.5 26.5l-47 39z" />
    <glyph glyph-name="uni1EC7" unicode="&#x1ec7;" horiz-adv-x="613" 
d="M222 -160q0 32 23.5 50.5t57.5 18.5q36 0 60 -18.5t24 -50.5v-1q0 -32 -24 -51t-60 -19q-34 0 -57.5 19t-23.5 51v1zM420 310q-7 51 -36 82.5t-77 31.5t-77.5 -31t-38.5 -83h229zM508 53q-35 -30 -80.5 -47.5t-105.5 -17.5t-111.5 20t-89 57t-58.5 87.5t-21 112.5v2
q0 57 19.5 108t54.5 89t83.5 60t107.5 22q67 0 116 -24.5t80.5 -62.5t46.5 -83.5t15 -87.5q0 -33 -20.5 -53t-50.5 -20h-301q11 -52 45.5 -78.5t85.5 -26.5q32 0 58.5 9.5t49.5 26.5q8 6 16.5 9t20.5 3q26 0 42.5 -17t16.5 -43q0 -15 -6 -26t-14 -19zM270 622
q-25 -20 -45.5 -26.5t-46.5 -6.5q-14 0 -23.5 6t-9.5 18q0 7 5 14.5t10 14.5l63 81q13 16 29 25t42 9h48q26 0 42 -9t29 -25l63 -81q5 -7 10 -14.5t5 -14.5q0 -12 -10.5 -18t-24.5 -6q-26 0 -46.5 6.5t-45.5 26.5l-47 39z" />
    <glyph glyph-name="uni1EC8" unicode="&#x1ec8;" horiz-adv-x="336" 
d="M170 759q-36 0 -41 31q-2 10 -2 16q-1 5 -0.5 11.5t0.5 9.5q0 13 9 22.5t26 12.5q34 3 34 16q0 5 -3.5 11t-15.5 6q-14 0 -20 -7.5t-11 -12.5h1q-15 -14 -28 -15q-6 -1 -15.5 -1t-19 3.5t-16.5 12t-8 25.5q-1 12 4.5 20.5t7.5 10.5q22 20 47 27t60 7q60 0 87 -25t27 -62
q0 -32 -20.5 -53t-55.5 -29v-8q-6 -29 -45 -29h-2zM91 629q0 32 22.5 54.5t54.5 22.5t54.5 -22.5t22.5 -54.5v-558q0 -32 -22.5 -54.5t-54.5 -22.5t-54.5 22.5t-22.5 54.5v558z" />
    <glyph glyph-name="uni1EC9" unicode="&#x1ec9;" horiz-adv-x="302" 
d="M75 466q0 32 22 54t54 22t54 -22t22 -54v-396q0 -32 -22 -54t-54 -22t-54 22t-22 54v396zM153 589q-36 0 -41 31q-2 10 -2 16q-1 5 -0.5 11.5t0.5 9.5q0 13 9 22.5t26 12.5q34 3 34 16q0 5 -3.5 11t-15.5 6q-14 0 -20 -7.5t-11 -12.5h1q-15 -14 -28 -15q-6 -1 -15.5 -1
t-19 3.5t-16.5 12t-8 25.5q-1 12 4.5 20.5t7.5 10.5q22 20 47 27t60 7q60 0 87 -25t27 -62q0 -32 -20.5 -53t-55.5 -29v-8q-6 -29 -45 -29h-2z" />
    <glyph glyph-name="uni1ECA" unicode="&#x1eca;" horiz-adv-x="336" 
d="M86 -160q0 32 23.5 50.5t57.5 18.5q36 0 60 -18.5t24 -50.5v-1q0 -32 -24 -51t-60 -19q-34 0 -57.5 19t-23.5 51v1zM91 629q0 32 22.5 54.5t54.5 22.5t54.5 -22.5t22.5 -54.5v-558q0 -32 -22.5 -54.5t-54.5 -22.5t-54.5 22.5t-22.5 54.5v558z" />
    <glyph glyph-name="uni1ECB" unicode="&#x1ecb;" horiz-adv-x="302" 
d="M69 -160q0 32 23.5 50.5t57.5 18.5q36 0 60 -18.5t24 -50.5v-1q0 -32 -24 -51t-60 -19q-34 0 -57.5 19t-23.5 51v1zM66 671q0 32 24.5 51.5t59.5 19.5q38 0 62.5 -19.5t24.5 -51.5v-2q0 -33 -24.5 -52.5t-62.5 -19.5q-35 0 -59.5 19.5t-24.5 52.5v2zM75 466q0 32 22 54
t54 22t54 -22t22 -54v-396q0 -32 -22 -54t-54 -22t-54 22t-22 54v396z" />
    <glyph glyph-name="uni1ECC" unicode="&#x1ecc;" horiz-adv-x="850" 
d="M344 -160q0 32 23.5 50.5t57.5 18.5q36 0 60 -18.5t24 -50.5v-1q0 -32 -24 -51t-60 -19q-34 0 -57.5 19t-23.5 51v1zM424 -12q-81 0 -149 28.5t-117.5 77t-77 114t-27.5 140.5v2q0 75 28 140.5t77.5 115t118 78t149.5 28.5t149 -28.5t117.5 -77t77 -114t27.5 -140.5v-2
q0 -75 -28 -140.5t-77.5 -115t-118 -78t-149.5 -28.5zM426 130q46 0 85 17t66.5 47t43 69.5t15.5 84.5v2q0 45 -15.5 85t-44 70t-67.5 47.5t-85 17.5q-47 0 -85.5 -17t-66 -47t-43 -69.5t-15.5 -84.5v-2q0 -45 15.5 -85t44 -70t67 -47.5t85.5 -17.5z" />
    <glyph glyph-name="uni1ECD" unicode="&#x1ecd;" horiz-adv-x="664" 
d="M251 -160q0 32 23.5 50.5t57.5 18.5q36 0 60 -18.5t24 -50.5v-1q0 -32 -24 -51t-60 -19q-34 0 -57.5 19t-23.5 51v1zM331 -12q-62 0 -115 21.5t-91.5 59t-60.5 88t-22 108.5v2q0 58 22 108.5t61 88.5t92 60t116 22q62 0 115 -21.5t91.5 -59t60.5 -88t22 -108.5v-2
q0 -58 -22 -108.5t-61 -88.5t-92 -60t-116 -22zM333 119q33 0 58.5 11.5t43.5 31.5t27.5 46.5t9.5 56.5v2q0 30 -10 56.5t-29 47t-45 32.5t-57 12q-33 0 -58.5 -11.5t-43.5 -31.5t-27.5 -46.5t-9.5 -56.5v-2q0 -30 10 -56.5t29 -47t44.5 -32.5t57.5 -12z" />
    <glyph glyph-name="uni1ECE" unicode="&#x1ece;" horiz-adv-x="850" 
d="M449 759q-36 0 -41 31q-2 10 -2 16q-1 5 -0.5 11.5t0.5 9.5q0 13 9 22.5t26 12.5q34 3 34 16q0 5 -3.5 11t-15.5 6q-14 0 -20 -7.5t-11 -12.5h1q-15 -14 -28 -15q-6 -1 -15.5 -1t-19 3.5t-16.5 12t-8 25.5q-1 12 4.5 20.5t7.5 10.5q22 20 47 27t60 7q60 0 87 -25t27 -62
q0 -32 -20.5 -53t-55.5 -29v-8q-6 -29 -45 -29h-2zM424 -12q-81 0 -149 28.5t-117.5 77t-77 114t-27.5 140.5v2q0 75 28 140.5t77.5 115t118 78t149.5 28.5t149 -28.5t117.5 -77t77 -114t27.5 -140.5v-2q0 -75 -28 -140.5t-77.5 -115t-118 -78t-149.5 -28.5zM426 130
q46 0 85 17t66.5 47t43 69.5t15.5 84.5v2q0 45 -15.5 85t-44 70t-67.5 47.5t-85 17.5q-47 0 -85.5 -17t-66 -47t-43 -69.5t-15.5 -84.5v-2q0 -45 15.5 -85t44 -70t67 -47.5t85.5 -17.5z" />
    <glyph glyph-name="uni1ECF" unicode="&#x1ecf;" horiz-adv-x="664" 
d="M348 589q-36 0 -41 31q-2 10 -2 16q-1 5 -0.5 11.5t0.5 9.5q0 13 9 22.5t26 12.5q34 3 34 16q0 5 -3.5 11t-15.5 6q-14 0 -20 -7.5t-11 -12.5h1q-15 -14 -28 -15q-6 -1 -15.5 -1t-19 3.5t-16.5 12t-8 25.5q-1 12 4.5 20.5t7.5 10.5q22 20 47 27t60 7q60 0 87 -25t27 -62
q0 -32 -20.5 -53t-55.5 -29v-8q-6 -29 -45 -29h-2zM331 -12q-62 0 -115 21.5t-91.5 59t-60.5 88t-22 108.5v2q0 58 22 108.5t61 88.5t92 60t116 22q62 0 115 -21.5t91.5 -59t60.5 -88t22 -108.5v-2q0 -58 -22 -108.5t-61 -88.5t-92 -60t-116 -22zM333 119q33 0 58.5 11.5
t43.5 31.5t27.5 46.5t9.5 56.5v2q0 30 -10 56.5t-29 47t-45 32.5t-57 12q-33 0 -58.5 -11.5t-43.5 -31.5t-27.5 -46.5t-9.5 -56.5v-2q0 -30 10 -56.5t29 -47t44.5 -32.5t57.5 -12z" />
    <glyph glyph-name="uni1ED0" unicode="&#x1ed0;" horiz-adv-x="850" 
d="M596 897q-17 0 -27.5 7t-10.5 19q0 7 3 14t7 13l55 86q10 16 24 25t33 9q14 0 29 -4t27.5 -10.5t20.5 -14.5t8 -17q0 -11 -5.5 -19.5t-14.5 -16.5l-62 -58q-22 -20 -41.5 -26.5t-45.5 -6.5zM424 -12q-81 0 -149 28.5t-117.5 77t-77 114t-27.5 140.5v2q0 75 28 140.5
t77.5 115t118 78t149.5 28.5t149 -28.5t117.5 -77t77 -114t27.5 -140.5v-2q0 -75 -28 -140.5t-77.5 -115t-118 -78t-149.5 -28.5zM426 130q46 0 85 17t66.5 47t43 69.5t15.5 84.5v2q0 45 -15.5 85t-44 70t-67.5 47.5t-85 17.5q-47 0 -85.5 -17t-66 -47t-43 -69.5
t-15.5 -84.5v-2q0 -45 15.5 -85t44 -70t67 -47.5t85.5 -17.5zM388 792q-25 -20 -45.5 -26.5t-46.5 -6.5q-14 0 -23.5 6t-9.5 18q0 7 5 14.5t10 14.5l63 81q13 16 29 25t42 9h48q26 0 42 -9t29 -25l63 -81q5 -7 10 -14.5t5 -14.5q0 -12 -10.5 -18t-24.5 -6q-26 0 -46.5 6.5
t-45.5 26.5l-47 39z" />
    <glyph glyph-name="uni1ED1" unicode="&#x1ed1;" horiz-adv-x="664" 
d="M496 727q-17 0 -27.5 7t-10.5 19q0 7 3 14t7 13l55 86q10 16 24 25t33 9q14 0 29 -4t27.5 -10.5t20.5 -14.5t8 -17q0 -11 -5.5 -19.5t-14.5 -16.5l-62 -58q-22 -20 -41.5 -26.5t-45.5 -6.5zM331 -12q-62 0 -115 21.5t-91.5 59t-60.5 88t-22 108.5v2q0 58 22 108.5
t61 88.5t92 60t116 22q62 0 115 -21.5t91.5 -59t60.5 -88t22 -108.5v-2q0 -58 -22 -108.5t-61 -88.5t-92 -60t-116 -22zM333 119q33 0 58.5 11.5t43.5 31.5t27.5 46.5t9.5 56.5v2q0 30 -10 56.5t-29 47t-45 32.5t-57 12q-33 0 -58.5 -11.5t-43.5 -31.5t-27.5 -46.5
t-9.5 -56.5v-2q0 -30 10 -56.5t29 -47t44.5 -32.5t57.5 -12zM288 622q-25 -20 -45.5 -26.5t-46.5 -6.5q-14 0 -23.5 6t-9.5 18q0 7 5 14.5t10 14.5l63 81q13 16 29 25t42 9h48q26 0 42 -9t29 -25l63 -81q5 -7 10 -14.5t5 -14.5q0 -12 -10.5 -18t-24.5 -6q-26 0 -46.5 6.5
t-45.5 26.5l-47 39z" />
    <glyph glyph-name="uni1ED2" unicode="&#x1ed2;" horiz-adv-x="850" 
d="M643 897q-26 0 -45.5 6.5t-41.5 26.5l-62 58q-9 8 -14.5 16.5t-5.5 19.5q0 9 8 17t20.5 14.5t27.5 10.5t29 4q19 0 33 -9t24 -25l55 -86q4 -6 7 -13t3 -14q0 -12 -10.5 -19t-27.5 -7zM424 -12q-81 0 -149 28.5t-117.5 77t-77 114t-27.5 140.5v2q0 75 28 140.5t77.5 115
t118 78t149.5 28.5t149 -28.5t117.5 -77t77 -114t27.5 -140.5v-2q0 -75 -28 -140.5t-77.5 -115t-118 -78t-149.5 -28.5zM426 130q46 0 85 17t66.5 47t43 69.5t15.5 84.5v2q0 45 -15.5 85t-44 70t-67.5 47.5t-85 17.5q-47 0 -85.5 -17t-66 -47t-43 -69.5t-15.5 -84.5v-2
q0 -45 15.5 -85t44 -70t67 -47.5t85.5 -17.5zM388 792q-25 -20 -45.5 -26.5t-46.5 -6.5q-14 0 -23.5 6t-9.5 18q0 7 5 14.5t10 14.5l63 81q13 16 29 25t42 9h48q26 0 42 -9t29 -25l63 -81q5 -7 10 -14.5t5 -14.5q0 -12 -10.5 -18t-24.5 -6q-26 0 -46.5 6.5t-45.5 26.5
l-47 39z" />
    <glyph glyph-name="uni1ED3" unicode="&#x1ed3;" horiz-adv-x="664" 
d="M543 727q-26 0 -45.5 6.5t-41.5 26.5l-62 58q-9 8 -14.5 16.5t-5.5 19.5q0 9 8 17t20.5 14.5t27.5 10.5t29 4q19 0 33 -9t24 -25l55 -86q4 -6 7 -13t3 -14q0 -12 -10.5 -19t-27.5 -7zM331 -12q-62 0 -115 21.5t-91.5 59t-60.5 88t-22 108.5v2q0 58 22 108.5t61 88.5
t92 60t116 22q62 0 115 -21.5t91.5 -59t60.5 -88t22 -108.5v-2q0 -58 -22 -108.5t-61 -88.5t-92 -60t-116 -22zM333 119q33 0 58.5 11.5t43.5 31.5t27.5 46.5t9.5 56.5v2q0 30 -10 56.5t-29 47t-45 32.5t-57 12q-33 0 -58.5 -11.5t-43.5 -31.5t-27.5 -46.5t-9.5 -56.5v-2
q0 -30 10 -56.5t29 -47t44.5 -32.5t57.5 -12zM288 622q-25 -20 -45.5 -26.5t-46.5 -6.5q-14 0 -23.5 6t-9.5 18q0 7 5 14.5t10 14.5l63 81q13 16 29 25t42 9h48q26 0 42 -9t29 -25l63 -81q5 -7 10 -14.5t5 -14.5q0 -12 -10.5 -18t-24.5 -6q-26 0 -46.5 6.5t-45.5 26.5
l-47 39z" />
    <glyph glyph-name="uni1ED4" unicode="&#x1ed4;" horiz-adv-x="850" 
d="M603 897q-36 0 -41 31q-2 10 -2 16q-1 5 -0.5 11.5t0.5 9.5q0 13 9 22.5t26 12.5q34 3 34 16q0 5 -3.5 11t-15.5 6q-14 0 -20 -7.5t-11 -12.5h1q-15 -14 -28 -15q-6 -1 -15.5 -1t-19 3.5t-16.5 12t-8 25.5q-1 12 4.5 20.5t7.5 10.5q22 20 47 27t60 7q60 0 87 -25t27 -62
q0 -32 -20.5 -53t-55.5 -29v-8q-6 -29 -45 -29h-2zM424 -12q-81 0 -149 28.5t-117.5 77t-77 114t-27.5 140.5v2q0 75 28 140.5t77.5 115t118 78t149.5 28.5t149 -28.5t117.5 -77t77 -114t27.5 -140.5v-2q0 -75 -28 -140.5t-77.5 -115t-118 -78t-149.5 -28.5zM426 130
q46 0 85 17t66.5 47t43 69.5t15.5 84.5v2q0 45 -15.5 85t-44 70t-67.5 47.5t-85 17.5q-47 0 -85.5 -17t-66 -47t-43 -69.5t-15.5 -84.5v-2q0 -45 15.5 -85t44 -70t67 -47.5t85.5 -17.5zM388 792q-25 -20 -45.5 -26.5t-46.5 -6.5q-14 0 -23.5 6t-9.5 18q0 7 5 14.5t10 14.5
l63 81q13 16 29 25t42 9h48q26 0 42 -9t29 -25l63 -81q5 -7 10 -14.5t5 -14.5q0 -12 -10.5 -18t-24.5 -6q-26 0 -46.5 6.5t-45.5 26.5l-47 39z" />
    <glyph glyph-name="uni1ED5" unicode="&#x1ed5;" horiz-adv-x="664" 
d="M503 727q-36 0 -41 31q-2 10 -2 16q-1 5 -0.5 11.5t0.5 9.5q0 13 9 22.5t26 12.5q34 3 34 16q0 5 -3.5 11t-15.5 6q-14 0 -20 -7.5t-11 -12.5h1q-15 -14 -28 -15q-6 -1 -15.5 -1t-19 3.5t-16.5 12t-8 25.5q-1 12 4.5 20.5t7.5 10.5q22 20 47 27t60 7q60 0 87 -25t27 -62
q0 -32 -20.5 -53t-55.5 -29v-8q-6 -29 -45 -29h-2zM331 -12q-62 0 -115 21.5t-91.5 59t-60.5 88t-22 108.5v2q0 58 22 108.5t61 88.5t92 60t116 22q62 0 115 -21.5t91.5 -59t60.5 -88t22 -108.5v-2q0 -58 -22 -108.5t-61 -88.5t-92 -60t-116 -22zM333 119q33 0 58.5 11.5
t43.5 31.5t27.5 46.5t9.5 56.5v2q0 30 -10 56.5t-29 47t-45 32.5t-57 12q-33 0 -58.5 -11.5t-43.5 -31.5t-27.5 -46.5t-9.5 -56.5v-2q0 -30 10 -56.5t29 -47t44.5 -32.5t57.5 -12zM288 622q-25 -20 -45.5 -26.5t-46.5 -6.5q-14 0 -23.5 6t-9.5 18q0 7 5 14.5t10 14.5l63 81
q13 16 29 25t42 9h48q26 0 42 -9t29 -25l63 -81q5 -7 10 -14.5t5 -14.5q0 -12 -10.5 -18t-24.5 -6q-26 0 -46.5 6.5t-45.5 26.5l-47 39z" />
    <glyph glyph-name="uni1ED6" unicode="&#x1ed6;" horiz-adv-x="850" 
d="M365 982q-8 -10 -15.5 -17.5t-27.5 -6.5q-17 2 -28.5 15.5t-10.5 33.5q2 6 2 10q20 49 43 68t57 18q16 -1 35.5 -8.5t33.5 -14.5q4 -2 9.5 -5t9.5 -5q2 -1 3.5 -1t3.5 -1l14 -4q5 1 9.5 4t8.5 11l2 6q8 9 17 15.5t27 5.5q20 -3 30.5 -15.5t10.5 -30.5q0 -3 -2 -11t-4 -12
v-2q-17 -45 -40.5 -61t-61.5 -14q-17 1 -36 9t-36 17q-2 1 -3.5 1t-3.5 1l-4 2q-6 0 -7 3l-1 1q-12 5 -16 5q-6 0 -9.5 -2t-6.5 -10zM424 -12q-81 0 -149 28.5t-117.5 77t-77 114t-27.5 140.5v2q0 75 28 140.5t77.5 115t118 78t149.5 28.5t149 -28.5t117.5 -77t77 -114
t27.5 -140.5v-2q0 -75 -28 -140.5t-77.5 -115t-118 -78t-149.5 -28.5zM426 130q46 0 85 17t66.5 47t43 69.5t15.5 84.5v2q0 45 -15.5 85t-44 70t-67.5 47.5t-85 17.5q-47 0 -85.5 -17t-66 -47t-43 -69.5t-15.5 -84.5v-2q0 -45 15.5 -85t44 -70t67 -47.5t85.5 -17.5zM388 792
q-25 -20 -45.5 -26.5t-46.5 -6.5q-14 0 -23.5 6t-9.5 18q0 7 5 14.5t10 14.5l63 81q13 16 29 25t42 9h48q26 0 42 -9t29 -25l63 -81q5 -7 10 -14.5t5 -14.5q0 -12 -10.5 -18t-24.5 -6q-26 0 -46.5 6.5t-45.5 26.5l-47 39z" />
    </font>
</defs>
</svg>
