<?xml version="1.0" standalone="no"?>
<!DOCTYPE svg PUBLIC "-//W3C//DTD SVG 1.1//EN" "http://www.w3.org/Graphics/SVG/1.1/DTD/svg11.dtd" >
<svg xmlns="http://www.w3.org/2000/svg" xmlns:xlink="http://www.w3.org/1999/xlink" version="1.1">
<metadata>
Created by FontForge 20170731 at Sun Nov 26 13:24:18 2017
 By Aleksey,,,
Copyright (C) 2006, 2007 Hoefler &#38; Frere-Jones. http://www.typography.com
</metadata>
<defs>
<font id="SVN-GothamRoundedLight" horiz-adv-x="660" >
  <font-face 
    font-family="SVN-Gotham Rounded Light"
    font-weight="300"
    font-stretch="normal"
    units-per-em="1000"
    panose-1="0 0 0 0 0 0 0 0 0 0"
    ascent="800"
    descent="-200"
    x-height="510"
    cap-height="704"
    bbox="-53 -224 1145 1081"
    underline-thickness="50"
    underline-position="-150"
    unicode-range="U+0020-FB04"
  />
<missing-glyph horiz-adv-x="500" 
d="M0 800h500v-1000h-500v1000zM250 360l179 390h-358zM222 300l-172 376v-752zM278 300l172 -376v752zM71 -150h358l-179 390z" />
    <glyph glyph-name=".notdef" horiz-adv-x="500" 
d="M0 800h500v-1000h-500v1000zM250 360l179 390h-358zM222 300l-172 376v-752zM278 300l172 -376v752zM71 -150h358l-179 390z" />
    <glyph glyph-name=".null" horiz-adv-x="0" 
 />
    <glyph glyph-name="nonmarkingreturn" horiz-adv-x="300" 
 />
    <glyph glyph-name="space" unicode=" " horiz-adv-x="300" 
 />
    <glyph glyph-name="exclam" unicode="!" horiz-adv-x="252" 
d="M95 678q0 25 25 25h12q25 0 25 -25l-16 -483q0 -6 -4.5 -10.5t-10.5 -4.5t-10.5 4.5t-4.5 10.5zM93 56q0 14 9.5 23.5t23.5 9.5t23.5 -9.5t9.5 -23.5v-27q0 -14 -9.5 -23.5t-23.5 -9.5t-23.5 9.5t-9.5 23.5v27z" />
    <glyph glyph-name="quotedbl" unicode="&#x22;" horiz-adv-x="410" 
d="M280 676q5 26 28 26h19q16 0 16 -17q0 -9 -5 -24l-57 -201q-6 -18 -17 -18q-7 0 -11.5 4t-2.5 15zM100 676q5 26 28 26h19q16 0 16 -17q0 -9 -5 -24l-57 -201q-6 -18 -17 -18q-7 0 -11.5 4t-2.5 15z" />
    <glyph glyph-name="numbersign" unicode="#" horiz-adv-x="700" 
d="M170 187h-101q-10 0 -17 6.5t-7 16.5t7 17t17 7h109l41 236h-110q-10 0 -17 6.5t-7 16.5t7 17t17 7h118l28 165q3 22 25 22q13 0 18.5 -9t3.5 -20l-27 -158h207l28 165q3 22 25 22q13 0 18.5 -9t3.5 -20l-27 -158h100q10 0 17 -6.5t7 -16.5t-7 -17t-17 -7h-108l-41 -236
h109q10 0 17 -6.5t7 -16.5t-7 -17t-17 -7h-117l-29 -169q-3 -22 -25 -22q-13 0 -18.5 9t-3.5 20l28 162h-207l-29 -169q-3 -22 -25 -22q-13 0 -18.5 9t-3.5 20zM433 234l41 236h-207l-41 -236h207z" />
    <glyph glyph-name="dollar" unicode="$" horiz-adv-x="632" 
d="M297 738q0 10 7 17t17 7t17 -7t7 -17v-40q54 -5 95 -22.5t83 -47.5q7 -5 10.5 -10t3.5 -13q0 -11 -7.5 -18t-18.5 -7q-5 0 -9 1t-9 6q-37 29 -73.5 44.5t-76.5 20.5v-280q114 -24 165 -69t51 -118q0 -39 -16 -72.5t-44.5 -58t-68 -39t-85.5 -15.5v-78q0 -10 -7 -17
t-17 -7t-17 7t-7 17v79q-66 5 -120 28.5t-105 68.5q-11 9 -11 21q0 10 7.5 17.5t17.5 7.5q7 0 11.5 -2.5t6.5 -4.5q42 -39 88.5 -62t106.5 -29v285q-113 24 -162.5 68.5t-49.5 119.5q0 37 15.5 70t43.5 57t66.5 38.5t84.5 15.5v38zM508 181q0 26 -7.5 47t-26.5 38
t-50.5 30.5t-80.5 24.5v-276q37 1 67.5 11.5t52.5 28.5t33.5 42.5t11.5 53.5zM138 523q0 -26 7 -46.5t25 -37.5t49.5 -31t79.5 -26v273q-36 -1 -66 -11.5t-51 -28.5t-32.5 -41.5t-11.5 -50.5z" />
    <glyph glyph-name="percent" unicode="%" horiz-adv-x="824" 
d="M208 350q-35 0 -63 14.5t-48 39t-31 56.5t-11 67v2q0 35 11 67.5t31.5 57t49 39.5t63.5 15q34 0 62.5 -14.5t48.5 -39.5t31 -57t11 -66v-2q0 -35 -11 -67.5t-31.5 -57.5t-49 -39.5t-63.5 -14.5zM146 17q0 9 4 13l487 663q8 11 19 11q9 0 15.5 -6t6.5 -15t-4 -13
l-487 -663q-8 -11 -19 -11q-9 0 -15.5 6t-6.5 15zM614 -8q-35 0 -63 14.5t-48 39t-31 56.5t-11 67v2q0 35 11 67.5t31.5 57t49 39.5t63.5 15q34 0 62.5 -14.5t48.5 -39.5t31 -57t11 -66v-2q0 -35 -11 -67.5t-31.5 -57.5t-49 -39.5t-63.5 -14.5zM210 393q22 0 40.5 10.5
t32 28.5t21 42.5t7.5 52.5v2q0 29 -8 54t-22.5 43t-33 28.5t-39.5 10.5q-22 0 -40.5 -10.5t-32 -29t-21 -43t-7.5 -51.5v-2q0 -30 8 -55t22.5 -43t33 -28t39.5 -10zM616 35q22 0 40.5 10.5t32 28.5t21 42.5t7.5 52.5v2q0 29 -8 54t-22.5 43t-33 28.5t-39.5 10.5
q-22 0 -40.5 -10.5t-32 -29t-21 -43t-7.5 -51.5v-2q0 -30 8 -55t22.5 -43t33 -28t39.5 -10z" />
    <glyph glyph-name="ampersand" unicode="&#x26;" horiz-adv-x="696" 
d="M629 -9q-8 0 -13.5 3.5t-10.5 8.5l-104 108q-51 -58 -108 -89.5t-129 -31.5q-46 0 -85.5 14.5t-68 40t-45 61t-16.5 78.5v2q0 72 47 122.5t134 82.5q-40 44 -59 80t-19 80v2q0 34 13 63t36 50.5t55.5 33.5t70.5 12q34 0 63.5 -12t51 -32.5t34 -48.5t12.5 -59v-2
q0 -66 -45.5 -109.5t-126.5 -71.5l184 -189q47 67 84 154q2 4 7 9.5t16 5.5q25 0 25 -25q0 -7 -3 -13q-22 -48 -45.5 -89.5t-49.5 -76.5l109 -112q6 -6 9 -11t3 -13q0 -11 -7.5 -18.5t-18.5 -7.5zM285 409q151 48 151 147v2q0 24 -8.5 44t-23 34.5t-35 23t-44.5 8.5
q-54 0 -87.5 -32.5t-33.5 -80.5v-2q0 -17 4 -32t13.5 -31.5t25 -36t38.5 -44.5zM265 35q60 0 109 29.5t94 80.5l-207 214q-84 -29 -122 -74.5t-38 -96.5v-2q0 -32 12 -59.5t34 -48t52 -32t66 -11.5z" />
    <glyph glyph-name="quotesingle" unicode="'" horiz-adv-x="230" 
d="M100 676q5 26 28 26h19q16 0 16 -17q0 -9 -5 -24l-57 -201q-6 -18 -17 -18q-7 0 -11.5 4t-2.5 15z" />
    <glyph glyph-name="parenleft" unicode="(" horiz-adv-x="430" 
d="M351 -139q-4 0 -7 1t-5 2q-129 75 -198.5 181t-69.5 242t69.5 242t198.5 181q2 1 5 2t7 1q19 0 19 -19q0 -12 -11 -18q-115 -72 -175.5 -168t-60.5 -221t60.5 -221t175.5 -168q11 -6 11 -18q0 -19 -19 -19z" />
    <glyph glyph-name="parenright" unicode=")" horiz-adv-x="430" 
d="M79 -139q-19 0 -19 19q0 12 11 18q115 72 175.5 168t60.5 221t-60.5 221t-175.5 168q-11 6 -11 18q0 19 19 19q4 0 7 -1t5 -2q129 -75 198.5 -181t69.5 -242t-69.5 -242t-198.5 -181q-2 -1 -5 -2t-7 -1z" />
    <glyph glyph-name="asterisk" unicode="*" horiz-adv-x="430" 
d="M203 533l-91 -62q-9 -6 -16 -6q-8 0 -14 6.5t-6 14.5q0 7 4.5 12t9.5 7l103 49l-103 49q-14 8 -14 19q0 8 6 14t14 7q5 0 8 -1.5t8 -4.5l91 -62l-8 109q-1 9 5 15.5t15 6.5t15 -6.5t5 -15.5l-8 -109l91 62q9 6 16 6q8 0 14 -6.5t6 -14.5t-4.5 -12.5t-9.5 -6.5l-103 -49
l103 -49q5 -2 9.5 -6.5t4.5 -12.5t-6 -14.5t-14 -6.5q-7 0 -16 6l-91 62l8 -109q1 -9 -5 -15.5t-15 -6.5t-15 6.5t-5 15.5z" />
    <glyph glyph-name="plus" unicode="+" horiz-adv-x="620" 
d="M285 328h-197q-10 0 -17 7t-7 17t7 17t17 7h197v194q0 25 25 25t25 -25v-194h197q10 0 17 -7t7 -17t-7 -17t-17 -7h-197v-194q0 -25 -25 -25t-25 25v194z" />
    <glyph glyph-name="comma" unicode="," horiz-adv-x="230" 
d="M54 -90q0 8 8 13q27 15 38 33t9 44q-11 3 -19 11.5t-8 23.5v21q0 14 9.5 23.5t23.5 9.5t23.5 -9.5t9.5 -23.5v-25q0 -42 -6.5 -66t-20.5 -38t-29.5 -23t-22.5 -9q-5 0 -10 3.5t-5 11.5z" />
    <glyph glyph-name="hyphen" unicode="-" horiz-adv-x="408" 
d="M94 269q-11 0 -19.5 8.5t-8.5 19.5t8.5 19.5t19.5 8.5h220q11 0 19.5 -8.5t8.5 -19.5t-8.5 -19.5t-19.5 -8.5h-220z" />
    <glyph glyph-name="period" unicode="." horiz-adv-x="230" 
d="M82 56q0 14 9.5 23.5t23.5 9.5t23.5 -9.5t9.5 -23.5v-27q0 -14 -9.5 -23.5t-23.5 -9.5t-23.5 9.5t-9.5 23.5v27z" />
    <glyph glyph-name="slash" unicode="/" horiz-adv-x="500" 
d="M-6 -111q0 7 3 13l452 886q8 14 21 14q9 0 15 -6t6 -15q0 -7 -3 -13l-452 -886q-8 -14 -21 -14q-9 0 -15 6t-6 15z" />
    <glyph glyph-name="zero" unicode="0" horiz-adv-x="710" 
d="M354 -12q-67 0 -120.5 29t-91 78.5t-57.5 115t-20 137.5v2q0 72 20.5 138t58.5 115.5t91.5 79t120.5 29.5t120.5 -29t91 -78.5t57.5 -115t20 -137.5v-2q0 -72 -20.5 -138t-58.5 -115.5t-91.5 -79t-120.5 -29.5zM356 35q54 0 97.5 26t74 69.5t47 100t16.5 117.5v2
q0 61 -16.5 118t-47.5 100.5t-75 70t-98 26.5t-97.5 -26t-74 -69.5t-47 -100t-16.5 -117.5v-2q0 -61 16.5 -117.5t47.5 -100.5t75 -70.5t98 -26.5z" />
    <glyph glyph-name="one" unicode="1" horiz-adv-x="335" 
d="M179 653l-114 -39q-8 -3 -13 -3q-9 0 -15.5 6.5t-6.5 15.5t5.5 14t13.5 8l122 45q8 3 16 5t16 2h2q12 0 18.5 -7.5t6.5 -17.5v-660q0 -11 -7 -18.5t-18 -7.5t-18.5 7.5t-7.5 18.5v631z" />
    <glyph glyph-name="two" unicode="2" horiz-adv-x="590" 
d="M44 24q0 11 12 22l253 229q43 39 73 71t48 60t26 54t8 54q0 34 -13 62t-34.5 47.5t-50.5 30t-60 10.5q-64 0 -109 -30t-87 -87q-8 -11 -20 -11q-10 0 -17 6.5t-7 16.5q0 9 4 13q22 32 46 57.5t52.5 43.5t63.5 27.5t79 9.5q45 0 83 -14.5t65.5 -40.5t43.5 -61t16 -76v-2
q0 -36 -10 -67.5t-31.5 -63t-54.5 -65.5t-79 -76l-214 -194h375q25 0 25 -25t-25 -25h-436q-25 0 -25 24z" />
    <glyph glyph-name="three" unicode="3" horiz-adv-x="610" 
d="M311 -12q-82 0 -144.5 32.5t-104.5 83.5q-2 3 -4.5 8t-2.5 10q0 11 7.5 18.5t18.5 7.5q7 0 12.5 -3t8.5 -7q42 -51 93 -77t117 -26q35 0 66.5 11.5t55 31.5t37.5 48.5t14 63.5v2q0 37 -16.5 65t-45.5 47.5t-69 29.5t-87 10h-25q-10 0 -17 6.5t-7 16.5q0 8 9 19l230 265
h-346q-25 0 -25 24q0 25 25 25h398q10 0 16.5 -6t6.5 -16q0 -11 -9 -21l-232 -265q50 -3 95 -16.5t79 -37.5t54 -60t20 -84v-2q0 -46 -18.5 -83.5t-50 -64.5t-73 -41.5t-86.5 -14.5z" />
    <glyph glyph-name="four" unicode="4" horiz-adv-x="664" 
d="M445 171h-371q-12 0 -19.5 7.5t-7.5 19.5q0 10 8 21l386 477q5 6 10.5 9.5t14.5 3.5q13 0 21 -8t8 -21v-464h95q9 0 16 -7t7 -16t-7 -15.5t-16 -6.5h-95v-150q0 -25 -25 -25t-25 25v150zM445 216v414l-334 -414h334z" />
    <glyph glyph-name="five" unicode="5" horiz-adv-x="605" 
d="M302 -12q-33 0 -65.5 8t-62.5 21.5t-56 31.5t-47 39q-11 11 -11 23q0 9 7 16.5t18 7.5q13 0 22 -9q45 -42 94 -66.5t103 -24.5q42 0 76.5 13.5t59 37t38.5 55.5t14 70v2q0 37 -14 67.5t-39.5 52.5t-61 34t-77.5 12q-34 0 -60 -6t-45 -13.5t-31.5 -13.5t-18.5 -6
q-9 0 -16 2.5t-13 6.5q-14 10 -13 35l17 288q1 14 8.5 21t18.5 7h347q25 0 25 -25t-25 -25h-326l-17 -262q34 17 70 27.5t85 10.5q51 0 94.5 -15.5t76 -43t51 -66.5t18.5 -86v-2q0 -48 -18.5 -89.5t-51 -71.5t-77.5 -47t-97 -17z" />
    <glyph glyph-name="six" unicode="6" horiz-adv-x="642" 
d="M331 -12q-54 0 -100 19t-78 51q-22 22 -38.5 47t-28 57t-17 73.5t-5.5 95.5v2q0 79 20 148t57 120.5t90 81t118 29.5q57 0 101 -18t86 -51q11 -9 11 -21q0 -11 -7.5 -18.5t-18.5 -7.5q-9 0 -16 6q-38 31 -76 47t-84 16q-53 0 -96.5 -26.5t-73.5 -74.5t-45.5 -115
t-13.5 -147q15 25 35 48.5t46.5 41.5t60.5 29t77 11q48 0 91.5 -15.5t76.5 -43.5t53 -67t20 -86v-2q0 -50 -19 -92t-52 -72.5t-77.5 -48t-96.5 -17.5zM335 35q42 0 76.5 14.5t59 39t38 57.5t13.5 70v2q0 36 -14 66.5t-39.5 53t-60 35.5t-76.5 13q-43 0 -79 -15t-61.5 -39.5
t-40 -55.5t-14.5 -63v-2q0 -38 15 -70t41.5 -55.5t63 -37t78.5 -13.5z" />
    <glyph glyph-name="seven" unicode="7" horiz-adv-x="587" 
d="M169 20q0 8 4 15l301 615h-385q-25 0 -25 25t25 25h422q25 0 25 -23q0 -5 -2 -10l-4 -10l-310 -643q-3 -7 -9.5 -12.5t-15.5 -5.5q-11 0 -18.5 6.5t-7.5 17.5z" />
    <glyph glyph-name="eight" unicode="8" horiz-adv-x="630" 
d="M315 -10q-55 0 -102.5 14.5t-82.5 40.5t-55 62t-20 80v2q0 31 12 57.5t32.5 48.5t49 39t61.5 28q-26 10 -49.5 25t-41.5 35.5t-29 46t-11 56.5v2q0 40 20 74t53 58t75.5 37.5t87.5 13.5t87.5 -13.5t75.5 -37.5t53 -58t20 -74v-2q0 -31 -11 -56.5t-29 -46t-41.5 -35.5
t-49.5 -25q33 -11 61.5 -28t49 -39t32.5 -48.5t12 -57.5v-2q0 -44 -20 -80t-55 -62t-82.5 -40.5t-102.5 -14.5zM315 381q37 0 70 10.5t58 29.5t39.5 45.5t14.5 58.5v2q0 30 -14 55t-38.5 43t-58 28t-71.5 10t-71.5 -10t-58 -28t-38.5 -43t-14 -55v-2q0 -32 14.5 -58.5
t39.5 -45.5t58 -29.5t70 -10.5zM315 37q48 0 86.5 12t65 32.5t40.5 47t14 56.5v2q0 33 -16 60.5t-44 47.5t-65.5 31t-80.5 11t-80.5 -11t-65.5 -31t-44 -47.5t-16 -60.5v-2q0 -30 14 -56.5t40.5 -47t65 -32.5t86.5 -12z" />
    <glyph glyph-name="nine" unicode="9" horiz-adv-x="642" 
d="M293 -12q-63 0 -111 22.5t-88 54.5q-11 9 -11 21q0 11 7 18.5t18 7.5q12 0 19 -7q42 -35 82 -52.5t85 -17.5q53 0 97 27t75 75t47 114t13 145q-15 -27 -35.5 -51.5t-47.5 -43t-60.5 -29.5t-74.5 -11q-53 0 -97.5 16.5t-76.5 45.5t-50 68t-18 84v2q0 48 18 91t50.5 75
t77.5 50.5t100 18.5q57 0 101.5 -19.5t76.5 -51.5q20 -20 36.5 -45.5t28 -58.5t17.5 -75t6 -94v-2q0 -83 -21.5 -152t-60 -119.5t-90.5 -78.5t-113 -28zM310 307q45 0 81 15.5t61.5 40.5t39 57t13.5 65v2q0 37 -15 69.5t-41 56.5t-63 38t-80 14t-77.5 -15.5t-58.5 -41
t-37 -59.5t-13 -70v-2q0 -37 14 -68t39.5 -53.5t60 -35.5t76.5 -13z" />
    <glyph glyph-name="colon" unicode=":" horiz-adv-x="240" 
d="M87 481q0 14 9.5 23.5t23.5 9.5t23.5 -9.5t9.5 -23.5v-27q0 -14 -9.5 -23.5t-23.5 -9.5t-23.5 9.5t-9.5 23.5v27zM87 56q0 14 9.5 23.5t23.5 9.5t23.5 -9.5t9.5 -23.5v-27q0 -14 -9.5 -23.5t-23.5 -9.5t-23.5 9.5t-9.5 23.5v27z" />
    <glyph glyph-name="semicolon" unicode=";" horiz-adv-x="240" 
d="M87 481q0 14 9.5 23.5t23.5 9.5t23.5 -9.5t9.5 -23.5v-27q0 -14 -9.5 -23.5t-23.5 -9.5t-23.5 9.5t-9.5 23.5v27zM59 -90q0 8 8 13q27 15 38 33t9 44q-11 3 -19 11.5t-8 23.5v21q0 14 9.5 23.5t23.5 9.5t23.5 -9.5t9.5 -23.5v-25q0 -42 -6.5 -66t-20.5 -38t-29.5 -23
t-22.5 -9q-5 0 -10 3.5t-5 11.5z" />
    <glyph glyph-name="less" unicode="&#x3c;" horiz-adv-x="620" 
d="M509 104q-8 0 -15 4l-416 216q-18 10 -18 27v2q0 16 18 27l416 216q7 4 15 4q10 0 16 -7t6 -17q0 -8 -4.5 -13.5t-11.5 -9.5l-391 -200l391 -202q7 -4 11.5 -9.5t4.5 -13.5q0 -10 -6 -17t-16 -7z" />
    <glyph glyph-name="equal" unicode="=" horiz-adv-x="620" 
d="M105 439q-11 0 -18.5 7t-7.5 18t7.5 18.5t18.5 7.5h410q11 0 18.5 -7.5t7.5 -18.5t-7.5 -18t-18.5 -7h-410zM105 214q-11 0 -18.5 7t-7.5 18t7.5 18.5t18.5 7.5h410q11 0 18.5 -7.5t7.5 -18.5t-7.5 -18t-18.5 -7h-410z" />
    <glyph glyph-name="greater" unicode="&#x3e;" horiz-adv-x="620" 
d="M111 600q8 0 15 -4l416 -216q18 -11 18 -27v-2q0 -17 -18 -27l-416 -216q-7 -4 -15 -4q-10 0 -16 7t-6 17q0 8 4.5 13.5t11.5 9.5l391 200l-391 202q-7 4 -11.5 9.5t-4.5 13.5q0 10 6 17t16 7z" />
    <glyph glyph-name="question" unicode="?" horiz-adv-x="534" 
d="M244 179q-6 0 -10.5 4.5t-5.5 13.5l-11 129q-1 10 5.5 17t17.5 8q84 5 136.5 45.5t52.5 113.5v2q0 31 -11.5 58.5t-33 48t-52.5 32.5t-69 12q-57 0 -101.5 -24.5t-81.5 -66.5q-7 -10 -20 -10q-10 0 -16.5 6t-6.5 16q0 9 6 17q40 48 93 78t129 30q49 0 89.5 -15.5
t68.5 -42t43.5 -62t15.5 -75.5v-2q0 -47 -17 -82.5t-45.5 -61t-67.5 -40.5t-82 -20l-8 -111q-2 -18 -16 -18h-2zM212 56q0 14 9.5 23.5t23.5 9.5t23.5 -9.5t9.5 -23.5v-27q0 -14 -9.5 -23.5t-23.5 -9.5t-23.5 9.5t-9.5 23.5v27z" />
    <glyph glyph-name="at" unicode="@" horiz-adv-x="980" 
d="M499 -162q-96 0 -177.5 34.5t-141.5 94t-93.5 138.5t-33.5 169t34 169.5t93 139t139 94.5t172 35t171.5 -32t138.5 -86.5t92.5 -126.5t33.5 -151q0 -64 -16.5 -110t-42.5 -75.5t-58.5 -43.5t-64.5 -14q-54 0 -88.5 25t-47.5 68q-30 -38 -71 -65.5t-100 -27.5
q-36 0 -68.5 13t-56.5 36.5t-38 56t-14 72.5q0 54 20.5 99.5t54 78.5t75 52t83.5 19q30 0 54 -8t42 -20.5t31 -28.5t22 -32l11 59q4 24 25 24q12 0 18.5 -9.5t4.5 -21.5l-34 -194q-9 -53 -9 -72q0 -43 23.5 -65.5t66.5 -22.5q26 0 52 12t46.5 37t33 64.5t12.5 93.5
q0 69 -30.5 134.5t-84.5 116.5t-127.5 82t-159.5 31q-87 0 -161 -32t-128 -87.5t-84.5 -129t-30.5 -157.5t30.5 -157.5t85 -128.5t130.5 -86.5t166 -31.5q74 0 130.5 16t112.5 48q6 2 10 2q5 0 9 -4.5t4 -9.5t-2.5 -8t-4.5 -5q-57 -33 -120 -52t-139 -19zM446 120
q35 0 67.5 16.5t57.5 43.5t40 61.5t15 71.5q0 30 -10 55t-27.5 44t-42 29.5t-52.5 10.5q-34 0 -66.5 -15t-58 -41.5t-41 -62.5t-15.5 -78q0 -64 36.5 -99.5t96.5 -35.5z" />
    <glyph glyph-name="A" unicode="A" horiz-adv-x="790" 
d="M56 18q0 9 4 16l299 648q5 11 13 18t22 7h2q14 0 22 -7t13 -18l298 -646q4 -7 4 -16q0 -10 -7 -17t-18 -7q-9 0 -15.5 6t-10.5 14l-82 180h-413l-82 -181q-7 -19 -25 -19q-10 0 -17 6.5t-7 15.5zM578 243l-184 405l-185 -405h369z" />
    <glyph glyph-name="B" unicode="B" horiz-adv-x="722" 
d="M104 674q0 11 7.5 18.5t18.5 7.5h263q60 0 106.5 -16.5t75.5 -45.5q45 -45 45 -110v-2q0 -36 -10.5 -63t-27.5 -47t-38.5 -33.5t-42.5 -22.5q31 -8 60 -22t50.5 -34t34.5 -47.5t13 -63.5v-2q0 -44 -18 -79.5t-51 -60t-79 -38t-103 -13.5h-278q-11 0 -18.5 7.5t-7.5 18.5
v648zM387 377q39 0 72 9.5t57 27.5t37.5 45t13.5 62v2q0 58 -45 93.5t-130 35.5h-236v-275h231zM410 48q90 0 143 38.5t53 104.5v2q0 66 -54 101t-159 35h-237v-281h254z" />
    <glyph glyph-name="C" unicode="C" horiz-adv-x="738" 
d="M421 -12q-75 0 -139 28t-110.5 76.5t-72.5 114.5t-26 141v2q0 74 26.5 140t73 115.5t110.5 78t140 28.5q44 0 80 -7t66.5 -20t57.5 -31t53 -40q4 -4 7 -9t3 -12q0 -11 -8 -18.5t-19 -7.5t-18 7q-44 40 -96.5 65.5t-126.5 25.5q-63 0 -117 -24t-93.5 -66.5t-62 -99.5
t-22.5 -123v-2q0 -66 23 -123.5t62.5 -100t93.5 -67t117 -24.5q72 0 125 24.5t103 72.5q8 8 18 8t17.5 -7.5t7.5 -17.5t-8 -18q-54 -50 -115.5 -79.5t-149.5 -29.5z" />
    <glyph glyph-name="D" unicode="D" horiz-adv-x="782" 
d="M104 674q0 11 7.5 18.5t18.5 7.5h207q82 0 150.5 -26.5t118 -73.5t76.5 -110.5t27 -137.5v-2q0 -74 -27 -138t-76.5 -111t-118 -74t-150.5 -27h-207q-11 0 -18.5 7.5t-7.5 18.5v648zM337 48q73 0 132 23.5t100 64t63.5 95t22.5 117.5v2q0 62 -22.5 117t-63.5 96t-100 65
t-132 24h-181v-604h181z" />
    <glyph glyph-name="E" unicode="E" horiz-adv-x="670" 
d="M130 0q-11 0 -18.5 7.5t-7.5 18.5v648q0 11 7.5 18.5t18.5 7.5h452q10 0 17 -7t7 -17t-7 -17t-17 -7h-426v-275h381q10 0 17 -7t7 -17t-7 -17t-17 -7h-381v-281h431q10 0 17 -7t7 -17t-7 -17t-17 -7h-457z" />
    <glyph glyph-name="F" unicode="F" horiz-adv-x="656" 
d="M104 674q0 11 7.5 18.5t18.5 7.5h447q10 0 17 -7t7 -17t-7 -17t-17 -7h-421v-287h376q10 0 17 -7t7 -17t-7 -17t-17 -7h-376v-295q0 -11 -7.5 -18.5t-18.5 -7.5t-18.5 7.5t-7.5 18.5v652z" />
    <glyph glyph-name="G" unicode="G" horiz-adv-x="784" 
d="M425 -12q-83 0 -148.5 28.5t-110.5 77.5t-69 114.5t-24 139.5v2q0 71 24.5 136.5t70 115.5t109.5 80t142 30q79 0 134.5 -20.5t104.5 -57.5q10 -7 10 -21q0 -11 -7.5 -18.5t-18.5 -7.5q-9 0 -16 7q-21 16 -42.5 29t-46.5 22.5t-55 14.5t-66 5q-64 0 -117 -25t-91.5 -68
t-59.5 -100t-21 -120v-2q0 -68 20.5 -126t59.5 -100t94.5 -66t125.5 -24q33 0 65 6.5t60.5 17.5t53.5 25.5t44 30.5v201h-218q-10 0 -17 7t-7 17t7 17t17 7h242q11 0 18.5 -7.5t7.5 -18.5v-229q0 -15 -18 -30q-51 -38 -115 -64t-142 -26z" />
    <glyph glyph-name="H" unicode="H" horiz-adv-x="760" 
d="M104 678q0 11 7.5 18.5t18.5 7.5t18.5 -7.5t7.5 -18.5v-302h448v302q0 11 7.5 18.5t18.5 7.5t18.5 -7.5t7.5 -18.5v-656q0 -11 -7.5 -18.5t-18.5 -7.5t-18.5 7.5t-7.5 18.5v306h-448v-306q0 -11 -7.5 -18.5t-18.5 -7.5t-18.5 7.5t-7.5 18.5v656z" />
    <glyph glyph-name="I" unicode="I" horiz-adv-x="274" 
d="M111 678q0 11 7.5 18.5t18.5 7.5t18.5 -7.5t7.5 -18.5v-656q0 -11 -7.5 -18.5t-18.5 -7.5t-18.5 7.5t-7.5 18.5v656z" />
    <glyph glyph-name="J" unicode="J" horiz-adv-x="549" 
d="M249 -10q-73 0 -122 32t-81 83q-4 5 -4 14q0 11 7.5 18.5t18.5 7.5q8 0 13.5 -4t7.5 -8q31 -48 68.5 -72t94.5 -24q32 0 60 12t48.5 35.5t32 58.5t11.5 81v454q0 11 7.5 18.5t18.5 7.5t18.5 -7.5t7.5 -18.5v-450q0 -61 -17.5 -107t-46.5 -75q-28 -28 -64.5 -42t-78.5 -14
z" />
    <glyph glyph-name="K" unicode="K" horiz-adv-x="715" 
d="M104 678q0 11 7.5 18.5t18.5 7.5t18.5 -7.5t7.5 -18.5v-438l442 456q8 8 18 8t18 -8t8 -18t-8 -18l-267 -269l285 -349q4 -5 6 -9t2 -10q0 -11 -8 -19t-19 -8q-7 0 -12 3t-8 7l-283 348l-174 -176v-156q0 -11 -7.5 -18.5t-18.5 -7.5t-18.5 7.5t-7.5 18.5v656z" />
    <glyph glyph-name="L" unicode="L" horiz-adv-x="619" 
d="M104 678q0 11 7.5 18.5t18.5 7.5t18.5 -7.5t7.5 -18.5v-630h391q10 0 17 -7t7 -17t-7 -17t-17 -7h-417q-11 0 -18.5 7.5t-7.5 18.5v652z" />
    <glyph glyph-name="M" unicode="M" horiz-adv-x="868" 
d="M104 677q0 11 7.5 18.5t18.5 7.5h5q14 0 26 -15l273 -402l273 402q10 15 26 15h5q11 0 18.5 -7.5t7.5 -18.5v-655q0 -11 -7.5 -18.5t-18.5 -7.5t-18.5 7.5t-7.5 18.5v586l-257 -374q-9 -13 -22 -13t-22 13l-257 374v-587q0 -25 -25 -25t-25 25v656z" />
    <glyph glyph-name="N" unicode="N" horiz-adv-x="790" 
d="M104 677q0 11 7.5 18.5t18.5 7.5h8q14 0 26 -15l472 -599v590q0 25 25 25t25 -25v-660q0 -9 -6 -15.5t-15 -6.5h-4q-14 0 -26 17l-481 610v-603q0 -25 -25 -25t-25 25v656z" />
    <glyph glyph-name="O" unicode="O" horiz-adv-x="850" 
d="M424 -12q-80 0 -144.5 29.5t-110.5 79t-71 114.5t-25 137v2q0 72 25.5 137.5t71.5 115.5t111 79.5t145 29.5q79 0 144 -29.5t111 -79t71 -114.5t25 -137v-2q0 -72 -25.5 -137.5t-71.5 -115.5t-111.5 -79.5t-144.5 -29.5zM426 35q65 0 119.5 24.5t94 67t61.5 99.5t22 122
v2q0 65 -22.5 122.5t-62 100t-94.5 67.5t-120 25t-119.5 -24.5t-94 -67t-61.5 -99.5t-22 -122v-2q0 -65 22.5 -122.5t62 -100t94.5 -67.5t120 -25z" />
    <glyph glyph-name="P" unicode="P" horiz-adv-x="668" 
d="M104 674q0 11 7.5 18.5t18.5 7.5h228q58 0 105.5 -14.5t82 -42t53.5 -67t19 -90.5v-2q0 -56 -22 -97.5t-59.5 -69.5t-87 -42t-104.5 -14h-189v-239q0 -11 -7.5 -18.5t-18.5 -7.5t-18.5 7.5t-7.5 18.5v652zM348 309q49 0 89 12t68.5 34.5t44.5 54.5t16 71v2
q0 42 -15.5 73.5t-43.5 52.5t-67 32t-86 11h-198v-343h192z" />
    <glyph glyph-name="Q" unicode="Q" horiz-adv-x="850" 
d="M424 -12q-80 0 -144.5 29.5t-110.5 79t-71 114.5t-25 137v2q0 72 25.5 137.5t71.5 115.5t111 79.5t145 29.5q79 0 144 -29.5t111 -79t71 -114.5t25 -137v-2q0 -70 -23.5 -133t-68.5 -114l80 -67q6 -5 9 -10t3 -13q0 -11 -8 -19t-19 -8q-12 0 -22 10l-79 72
q-45 -38 -101.5 -59t-123.5 -21zM495 201q-12 10 -12 23q0 11 8 19t19 8q12 0 22 -10l115 -105q36 42 56 95.5t20 116.5v2q0 65 -22.5 122.5t-62 100t-94.5 67.5t-120 25t-119.5 -24.5t-94 -67t-61.5 -99.5t-22 -122v-2q0 -65 22.5 -122.5t62 -100t94.5 -67.5t120 -25
q108 0 186 66z" />
    <glyph glyph-name="R" unicode="R" horiz-adv-x="723" 
d="M104 674q0 11 7.5 18.5t18.5 7.5h268q66 0 115.5 -18.5t81.5 -50.5q25 -25 39 -58.5t14 -71.5v-2q0 -44 -15.5 -78.5t-43 -59.5t-65 -40.5t-81.5 -21.5l199 -258q8 -11 8 -18q0 -11 -8 -19t-19 -8q-12 0 -23 14l-215 280h-229v-268q0 -11 -7.5 -18.5t-18.5 -7.5
t-18.5 7.5t-7.5 18.5v652zM392 337q44 0 81.5 11t64.5 31.5t42.5 50t15.5 67.5v2q0 72 -52 112.5t-149 40.5h-239v-315h236z" />
    <glyph glyph-name="S" unicode="S" horiz-adv-x="640" 
d="M341 -10q-79 0 -142.5 24.5t-123.5 73.5q-4 3 -7 8t-3 12q0 11 7.5 18.5t18.5 7.5q9 0 17 -6q52 -48 108 -69.5t128 -21.5q39 0 72 10.5t56 29t36 44t13 55.5v2q0 28 -8.5 50t-31 40t-60.5 32.5t-98 26.5q-63 13 -108 30.5t-73.5 41t-41.5 54.5t-13 71v2q0 39 17 72.5
t47 58.5t71 39t90 14q71 0 123 -18t100 -54q4 -3 7.5 -8t3.5 -13q0 -11 -7.5 -18.5t-18.5 -7.5q-10 0 -17 6q-46 35 -92.5 50.5t-100.5 15.5q-39 0 -70.5 -10.5t-54 -28.5t-34.5 -42t-12 -51v-2q0 -28 8.5 -50.5t31 -41t62.5 -33.5t102 -28q122 -25 176 -70.5t54 -122.5v-2
q0 -42 -17.5 -77.5t-48 -60.5t-73 -39t-93.5 -14z" />
    <glyph glyph-name="T" unicode="T" horiz-adv-x="648" 
d="M298 652h-224q-10 0 -17 7t-7 17t7 17t17 7h500q10 0 17 -7t7 -17t-7 -17t-17 -7h-224v-630q0 -11 -7.5 -18.5t-18.5 -7.5t-18.5 7.5t-7.5 18.5v630z" />
    <glyph glyph-name="U" unicode="U" horiz-adv-x="760" 
d="M380 -11q-63 0 -115.5 19.5t-91 58t-59.5 94.5t-21 130v387q0 11 7.5 18.5t18.5 7.5t18.5 -7.5t7.5 -18.5v-382q0 -126 62.5 -193t174.5 -67q106 0 169.5 64t63.5 191v387q0 11 7.5 18.5t18.5 7.5t18.5 -7.5t7.5 -18.5v-381q0 -75 -21 -132.5t-59 -96.5t-90.5 -59
t-116.5 -20z" />
    <glyph glyph-name="V" unicode="V" horiz-adv-x="750" 
d="M374 -7q-12 0 -19 6t-12 17l-285 652q-2 6 -2 11q0 9 7.5 17t18.5 8q10 0 16.5 -6t10.5 -15l267 -627l268 628q4 8 10.5 14t15.5 6q11 0 18 -7.5t7 -16.5q0 -4 -2 -10l-286 -654q-5 -11 -12 -17t-19 -6h-2z" />
    <glyph glyph-name="W" unicode="W" horiz-adv-x="1102" 
d="M63 664q-3 7 -3 13q0 11 8 19t19 8t18 -7.5t10 -16.5l213 -603l199 607q3 8 8.5 14t16.5 6h2q10 0 16 -6t9 -14l199 -607l214 606q7 21 25 21q10 0 18 -8t8 -18q0 -5 -4 -14l-234 -649q-4 -10 -10 -16.5t-17 -6.5h-2q-11 0 -17.5 6.5t-9.5 16.5l-198 588l-198 -588
q-3 -10 -9.5 -16.5t-17.5 -6.5h-2q-19 0 -27 23z" />
    <glyph glyph-name="X" unicode="X" horiz-adv-x="722" 
d="M73 20q0 9 7 17l250 320l-238 303q-4 5 -6.5 10t-2.5 10q0 9 7.5 16.5t17.5 7.5q8 0 12.5 -3.5t9.5 -9.5l232 -299l229 296q5 7 11 11.5t14 4.5q10 0 16.5 -7t6.5 -17q0 -9 -7 -17l-239 -305l247 -318q9 -11 9 -20t-7.5 -16.5t-17.5 -7.5q-8 0 -12.5 3.5t-9.5 9.5
l-242 314l-239 -311q-5 -7 -11 -11.5t-14 -4.5q-10 0 -16.5 7t-6.5 17z" />
    <glyph glyph-name="Y" unicode="Y" horiz-adv-x="716" 
d="M332 277l-273 385q-5 8 -5 16q0 11 8 18.5t19 7.5q13 0 24 -15l254 -365l255 365q5 6 10 10.5t13 4.5q10 0 18 -7.5t8 -17.5q0 -5 -2.5 -10t-5.5 -10l-271 -381v-256q0 -11 -7.5 -18.5t-18.5 -7.5t-18.5 7.5t-7.5 18.5v255z" />
    <glyph glyph-name="Z" unicode="Z" horiz-adv-x="688" 
d="M96 0q-10 0 -17.5 7t-7.5 15v1q0 12 9 22l467 608h-442q-10 0 -17 6.5t-7 16.5t7 17t17 7h488q10 0 17.5 -7t7.5 -15v-1q0 -12 -9 -22l-467 -608h459q10 0 17 -6.5t7 -16.5t-7 -17t-17 -7h-505z" />
    <glyph glyph-name="bracketleft" unicode="[" horiz-adv-x="430" 
d="M98 674q0 11 7.5 18.5t18.5 7.5h232q19 0 19 -19t-19 -19h-212v-754h212q19 0 19 -19t-19 -19h-232q-11 0 -18.5 7.5t-7.5 18.5v778z" />
    <glyph glyph-name="backslash" unicode="\" horiz-adv-x="500" 
d="M506 -111q0 -9 -6 -15t-15 -6q-13 0 -21 14l-452 886q-3 6 -3 13q0 9 6 15t15 6q13 0 21 -14l452 -886q3 -6 3 -13z" />
    <glyph glyph-name="bracketright" unicode="]" horiz-adv-x="430" 
d="M332 -104q0 -11 -7.5 -18.5t-18.5 -7.5h-232q-19 0 -19 19t19 19h212v754h-212q-19 0 -19 19t19 19h232q11 0 18.5 -7.5t7.5 -18.5v-778z" />
    <glyph glyph-name="asciicircum" unicode="^" horiz-adv-x="500" 
d="M129 503q-6 -8 -15 -11t-20 -3q-7 0 -10.5 3.5t-3.5 7.5q0 5 5 13l133 176q7 8 13 13t15 5h8q9 0 15 -5t13 -13l133 -176q5 -8 5 -13q0 -4 -3.5 -7.5t-11.5 -3.5q-12 0 -21 3t-15 11l-120 157z" />
    <glyph glyph-name="underscore" unicode="_" horiz-adv-x="600" 
d="M-2 -160q-9 0 -15.5 6.5t-6.5 15.5t6.5 15.5t15.5 6.5h604q9 0 15.5 -6.5t6.5 -15.5t-6.5 -15.5t-15.5 -6.5h-604z" />
    <glyph glyph-name="grave" unicode="`" horiz-adv-x="500" 
d="M286 592q-10 0 -16.5 2.5t-15.5 10.5l-80 77q-11 11 -11 18q0 8 14 15.5t28 7.5q16 0 28 -18l62 -93q4 -5 4 -11q0 -9 -13 -9z" />
    <glyph glyph-name="a" unicode="a" horiz-adv-x="574" 
d="M248 -12q-36 0 -71 10t-63 30t-45.5 50t-17.5 70v2q0 40 16.5 71t45.5 52t70 32t91 11q54 0 93 -6t76 -16v22q0 78 -44.5 117t-123.5 39q-42 0 -77.5 -9.5t-67.5 -24.5q-6 -3 -11 -3q-9 0 -16 7t-7 16t5 14.5t9 7.5q39 17 79 27.5t89 10.5q105 0 161 -56q52 -52 52 -144
v-297q0 -25 -24 -25t-24 25v64q-13 -18 -31.5 -35.5t-42.5 -31t-54.5 -22t-66.5 -8.5zM251 34q39 0 74 11.5t61.5 32t42 49.5t15.5 64v58q-32 8 -75 15.5t-98 7.5q-81 0 -124.5 -32.5t-43.5 -86.5v-2q0 -28 12 -49.5t32.5 -36.5t47.5 -23t56 -8z" />
    <glyph glyph-name="b" unicode="b" 
d="M93 709q0 25 24 25q25 0 25 -25v-313q16 25 36.5 48t46.5 40t57.5 27.5t69.5 10.5q46 0 90.5 -18t79.5 -52t56.5 -83.5t21.5 -111.5v-2q0 -62 -21.5 -111.5t-56.5 -84t-79.5 -53t-90.5 -18.5q-38 0 -69.5 10t-57.5 27t-46.5 39t-36.5 46v-89q0 -25 -24 -25q-25 0 -25 25
v688zM347 35q42 0 78.5 15t63.5 43t42.5 68.5t15.5 91.5v2q0 50 -16 91t-43.5 69.5t-64 44t-76.5 15.5t-77.5 -16t-66.5 -45t-46.5 -69t-17.5 -89v-2q0 -49 17.5 -89.5t46.5 -69t66.5 -44.5t77.5 -16z" />
    <glyph glyph-name="c" unicode="c" horiz-adv-x="571" 
d="M318 -12q-55 0 -102.5 21.5t-82.5 57.5t-55 84t-20 102v2q0 54 20 102t55 85t82.5 58.5t102.5 21.5q66 0 112 -24.5t80 -56.5q7 -7 7 -18q0 -25 -25 -25q-11 0 -17 6q-31 29 -68.5 50.5t-89.5 21.5q-44 0 -81.5 -17t-65 -46.5t-43.5 -69.5t-16 -86v-2q0 -47 16.5 -87
t45 -70t66.5 -47t82 -17q51 0 90 21t70 52q8 8 16 8q9 0 16.5 -7.5t7.5 -16.5t-6 -15q-38 -39 -84.5 -63.5t-112.5 -24.5z" />
    <glyph glyph-name="d" unicode="d" 
d="M567 21q0 -25 -24 -25q-25 0 -25 25v93q-17 -25 -37.5 -48t-46 -40t-57 -27.5t-69.5 -10.5q-46 0 -90.5 18t-79.5 52t-56.5 83.5t-21.5 111.5v2q0 62 21.5 111.5t56.5 84t79.5 53t90.5 18.5q38 0 69.5 -10t57.5 -27t46.5 -39t36.5 -46v309q0 25 24 25q25 0 25 -25v-688z
M313 475q-42 0 -78.5 -15t-63.5 -43t-42.5 -68.5t-15.5 -91.5v-2q0 -50 16 -91t43.5 -69.5t63.5 -44t77 -15.5q40 0 77.5 16t66.5 45t46.5 69t17.5 89v2q0 49 -17.5 89.5t-46.5 69t-66.5 44.5t-77.5 16z" />
    <glyph glyph-name="e" unicode="e" horiz-adv-x="584" 
d="M481 279q-3 39 -15.5 74.5t-35 63t-55.5 44t-77 16.5q-38 0 -71 -15t-58 -41.5t-40.5 -63t-18.5 -78.5h371zM507 71q-38 -38 -84 -60.5t-115 -22.5q-50 0 -95.5 19t-80 54t-54.5 84t-20 109v2q0 55 18.5 103.5t51 84.5t76.5 57t96 21q54 0 97 -20.5t73.5 -56.5t47 -84
t16.5 -103q0 -9 -7.5 -16t-16.5 -7h-400q3 -48 20.5 -85t45 -63t62.5 -39.5t72 -13.5q55 0 94.5 20t70.5 50q7 7 16 7q10 0 17 -6.5t7 -16.5q0 -9 -8 -17z" />
    <glyph glyph-name="f" unicode="f" horiz-adv-x="362" 
d="M123 465h-55q-10 0 -16.5 6.5t-6.5 16.5q0 9 7 15.5t16 6.5h55v50q0 88 45 133q40 40 107 40q19 0 33.5 -2t27.5 -5q19 -5 19 -23q0 -11 -8.5 -17t-19.5 -4q-12 2 -25 4t-27 2q-103 0 -103 -129v-49h159q10 0 16.5 -6.5t6.5 -16.5q0 -9 -7 -15.5t-16 -6.5h-159v-444
q0 -25 -24 -25q-25 0 -25 25v444z" />
    <glyph glyph-name="g" unicode="g" 
d="M317 -162q-123 0 -223 70q-11 8 -11 22q0 8 7.5 15.5t17.5 7.5q9 0 14 -4q89 -65 196 -65q43 0 80 12.5t63.5 37.5t41.5 62t15 86v74q-17 -24 -38 -45t-47 -37.5t-58 -26t-70 -9.5q-46 0 -90 17t-78.5 48.5t-55.5 75.5t-21 99v2q0 55 21 100t55.5 76.5t78.5 48.5t90 17
q39 0 71 -9.5t58 -25t47 -36.5t37 -43v81q0 25 24 25q25 0 25 -25v-410q0 -57 -17 -99.5t-48 -73.5q-33 -33 -80.5 -50.5t-104.5 -17.5zM310 85q40 0 78 14t67.5 39.5t47.5 61t18 79.5v2q0 44 -18 80t-47.5 61.5t-67.5 39t-78 13.5q-41 0 -76.5 -13.5t-62.5 -38.5
t-42.5 -60.5t-15.5 -80.5v-2q0 -43 16 -79t43 -61.5t63 -40t75 -14.5z" />
    <glyph glyph-name="h" unicode="h" horiz-adv-x="613" 
d="M93 709q0 25 24 25q25 0 25 -25v-294q26 45 70 76t114 31q48 0 86 -15.5t64.5 -43.5t40 -66.5t13.5 -84.5v-291q0 -25 -24 -25q-25 0 -25 25v282q0 79 -42 126.5t-120 47.5q-38 0 -70 -13.5t-56 -37.5t-37.5 -57.5t-13.5 -73.5v-274q0 -25 -24 -25q-25 0 -25 25v688z" />
    <glyph glyph-name="i" unicode="i" horiz-adv-x="249" 
d="M100 489q0 25 24 25q25 0 25 -25v-468q0 -25 -24 -25q-25 0 -25 25v468zM84 661q0 17 11.5 28.5t28.5 11.5t28.5 -11.5t11.5 -28.5t-11.5 -28.5t-28.5 -11.5t-28.5 11.5t-11.5 28.5z" />
    <glyph glyph-name="j" unicode="j" horiz-adv-x="249" 
d="M40 -163h-13t-11 1q-9 2 -15 7.5t-6 14.5t6.5 15.5t15.5 6.5q6 0 11.5 -0.5t10.5 -0.5q27 0 44 17.5t17 53.5v537q0 25 24 25q25 0 25 -25v-534q0 -60 -29 -89t-80 -29zM84 661q0 17 11.5 28.5t28.5 11.5t28.5 -11.5t11.5 -28.5t-11.5 -28.5t-28.5 -11.5t-28.5 11.5
t-11.5 28.5z" />
    <glyph glyph-name="k" unicode="k" horiz-adv-x="560" 
d="M93 709q0 25 24 25q25 0 25 -25v-526l313 324q7 7 17 7t16.5 -6.5t6.5 -16.5q0 -9 -8 -17l-187 -190l200 -247q7 -7 7 -18q0 -23 -24 -23q-10 0 -21 11l-196 242l-124 -125v-103q0 -25 -24 -25q-25 0 -25 25v688z" />
    <glyph glyph-name="l" unicode="l" horiz-adv-x="249" 
d="M100 709q0 25 24 25q25 0 25 -25v-688q0 -25 -24 -25q-25 0 -25 25v688z" />
    <glyph glyph-name="m" unicode="m" horiz-adv-x="951" 
d="M93 489q0 25 24 25q25 0 25 -25v-70q12 20 27.5 38.5t35.5 33t46.5 23t60.5 8.5t61 -9t48 -24t36.5 -35t26.5 -42q12 21 29 41t39.5 35.5t51 24.5t64.5 9q45 0 81.5 -15.5t62 -43t39 -67t13.5 -87.5v-288q0 -25 -24 -25q-25 0 -25 25v282q0 84 -39.5 129t-111.5 45
q-32 0 -61.5 -12t-51.5 -35t-35 -56.5t-13 -76.5v-276q0 -25 -24 -25q-25 0 -25 25v285q0 81 -40 126t-109 45q-35 0 -64.5 -14t-51.5 -39t-34.5 -58t-12.5 -72v-273q0 -25 -24 -25q-25 0 -25 25v468z" />
    <glyph glyph-name="n" unicode="n" horiz-adv-x="613" 
d="M93 489q0 25 24 25q25 0 25 -25v-74q26 45 70 76t114 31q48 0 86 -15.5t64.5 -43.5t40 -66.5t13.5 -84.5v-291q0 -25 -24 -25q-25 0 -25 25v282q0 79 -42 126.5t-120 47.5q-38 0 -70 -13.5t-56 -37.5t-37.5 -57.5t-13.5 -73.5v-274q0 -25 -24 -25q-25 0 -25 25v468z" />
    <glyph glyph-name="o" unicode="o" horiz-adv-x="640" 
d="M319 -12q-57 0 -104.5 21.5t-82.5 57.5t-54.5 84t-19.5 102v2q0 54 19.5 102t55 85t83.5 58.5t105 21.5t104.5 -21.5t82.5 -57.5t54.5 -84t19.5 -102v-2q0 -54 -19.5 -102t-55 -85t-83.5 -58.5t-105 -21.5zM321 34q45 0 83.5 17.5t66 47t43 69.5t15.5 85v2q0 46 -16 86.5
t-44.5 70.5t-67 47t-82.5 17q-45 0 -83.5 -17.5t-66 -47t-43 -69.5t-15.5 -85v-2q0 -47 16 -87t44.5 -70t67 -47t82.5 -17z" />
    <glyph glyph-name="p" unicode="p" 
d="M93 489q0 25 24 25q25 0 25 -25v-93q16 25 36.5 48t46.5 40t57.5 27.5t69.5 10.5q46 0 90.5 -18t79.5 -52t56.5 -83.5t21.5 -111.5v-2q0 -62 -21.5 -111.5t-56.5 -84t-79.5 -53t-90.5 -18.5q-38 0 -69.5 10t-57.5 27t-46.5 39t-36.5 46v-249q0 -25 -24 -25q-25 0 -25 25
v628zM347 35q42 0 78.5 15t63.5 43t42.5 68.5t15.5 91.5v2q0 50 -16 91t-43.5 69.5t-64 44t-76.5 15.5t-77.5 -16t-66.5 -45t-46.5 -69t-17.5 -89v-2q0 -49 17.5 -89.5t46.5 -69t66.5 -44.5t77.5 -16z" />
    <glyph glyph-name="q" unicode="q" 
d="M567 -139q0 -25 -24 -25q-25 0 -25 25v253q-17 -25 -37.5 -48t-46 -40t-57 -27.5t-69.5 -10.5q-46 0 -90.5 18t-79.5 52t-56.5 83.5t-21.5 111.5v2q0 62 21.5 111.5t56.5 84t79.5 53t90.5 18.5q38 0 69.5 -10t57.5 -27t46.5 -39t36.5 -46v89q0 25 24 25q25 0 25 -25v-628
zM313 475q-42 0 -78.5 -15t-63.5 -43t-42.5 -68.5t-15.5 -91.5v-2q0 -50 16 -91t43.5 -69.5t63.5 -44t77 -15.5q40 0 77.5 16t66.5 45t46.5 69t17.5 89v2q0 49 -17.5 89.5t-46.5 69t-66.5 44.5t-77.5 16z" />
    <glyph glyph-name="r" unicode="r" horiz-adv-x="400" 
d="M93 489q0 25 24 25q25 0 25 -25v-124q16 37 40 65.5t52 48t57 29.5t56 10q11 0 18.5 -8t7.5 -19q0 -25 -26 -27q-41 -4 -78 -21t-65 -48.5t-45 -77.5t-17 -108v-188q0 -25 -24 -25q-25 0 -25 25v468z" />
    <glyph glyph-name="s" unicode="s" horiz-adv-x="497" 
d="M258 -10q-52 0 -105.5 18.5t-92.5 47.5q-3 2 -6 7.5t-3 11.5q0 10 7 17t17 7q8 0 16 -5q80 -58 170 -58q52 0 87.5 26t35.5 71v2q0 22 -11 38t-30 27.5t-43 20t-51 16.5q-32 9 -63 19t-56 25.5t-40.5 38t-15.5 57.5v2q0 31 12.5 56.5t34.5 44.5t53 29.5t68 10.5
q42 0 85 -12.5t80 -33.5q13 -7 13 -22q0 -10 -7 -17t-17 -7q-9 0 -14 4q-68 42 -142 42q-54 0 -85 -25.5t-31 -63.5v-2q0 -21 12 -36t31.5 -26.5t45.5 -20t53 -16.5q31 -9 61 -20t54 -27t38.5 -39t14.5 -57v-2q0 -34 -13.5 -61.5t-37.5 -47t-56 -30t-69 -10.5z" />
    <glyph glyph-name="t" unicode="t" horiz-adv-x="400" 
d="M263 -9q-30 0 -56 8t-45.5 25.5t-30.5 44t-11 62.5v334h-55q-9 0 -16 7t-7 16t7 15.5t16 6.5h55v142q0 25 24 25q25 0 25 -25v-142h160q9 0 16 -7t7 -16t-7 -15.5t-16 -6.5h-160v-329q0 -55 28.5 -77t73.5 -22q26 0 39.5 5t18.5 5q8 0 15 -6.5t7 -15.5q0 -15 -16 -21
q-15 -5 -32.5 -9t-39.5 -4z" />
    <glyph glyph-name="u" unicode="u" horiz-adv-x="613" 
d="M520 21q0 -25 -24 -25q-25 0 -25 25v74q-26 -45 -70 -76t-114 -31q-48 0 -86 15.5t-64.5 43.5t-40 66.5t-13.5 84.5v291q0 25 24 25q25 0 25 -25v-282q0 -79 42 -126.5t120 -47.5q37 0 69.5 13.5t56.5 37.5t37.5 57.5t13.5 73.5v274q0 25 24 25q25 0 25 -25v-468z" />
    <glyph glyph-name="v" unicode="v" horiz-adv-x="582" 
d="M320 14q-5 -10 -11 -15.5t-17 -5.5h-2q-11 0 -17 5.5t-11 15.5l-205 460q-4 9 -4 15q0 11 7.5 18t18.5 7t16.5 -6t9.5 -14l186 -439l189 441q7 18 24 18q25 0 25 -25q0 -6 -3 -13z" />
    <glyph glyph-name="w" unicode="w" horiz-adv-x="861" 
d="M256 -7q-20 0 -27 22l-167 459q-4 9 -4 16q0 10 7.5 17t18.5 7t17 -6t9 -15l148 -431l148 433q7 19 24 19h2q11 0 16.5 -5.5t8.5 -13.5l148 -433l149 433q2 8 7.5 13.5t16.5 5.5t18 -7t7 -16q0 -8 -4 -17l-167 -459q-7 -22 -27 -22h-2q-19 0 -27 23l-145 417l-146 -417
q-8 -23 -27 -23h-2z" />
    <glyph glyph-name="x" unicode="x" horiz-adv-x="570" 
d="M67 19q0 8 6 16l181 225l-172 214q-7 8 -7 17q0 10 7 16.5t17 6.5q13 0 20 -10l167 -210l166 208q10 12 21 12q9 0 15.5 -7t6.5 -16t-6 -16l-173 -214l180 -225q7 -8 7 -17q0 -10 -7 -16.5t-17 -6.5q-13 0 -20 10l-175 221l-174 -219q-11 -12 -21 -12q-9 0 -15.5 7
t-6.5 16z" />
    <glyph glyph-name="y" unicode="y" horiz-adv-x="588" 
d="M155 -163q-26 0 -46.5 4t-40.5 12q-14 5 -14 21q0 10 6.5 16.5t16.5 6.5q7 0 16 -4q12 -5 27 -7.5t38 -2.5q42 0 70 28t53 85l3 7l-228 471q-4 9 -4 15q0 11 7.5 18t18.5 7t16.5 -6t9.5 -14l204 -440l178 442q7 18 24 18q25 0 25 -25q0 -6 -3 -13l-207 -494
q-34 -80 -74.5 -112.5t-95.5 -32.5z" />
    <glyph glyph-name="z" unicode="z" horiz-adv-x="554" 
d="M84 0q-9 0 -16 6t-7 14v1q0 10 9 21l356 424h-336q-9 0 -15.5 6.5t-6.5 15.5t6.5 15.5t15.5 6.5h383q9 0 16 -6t7 -14v-1q0 -11 -9 -21l-356 -424h350q9 0 15.5 -6.5t6.5 -15.5t-6.5 -15.5t-15.5 -6.5h-397z" />
    <glyph glyph-name="braceleft" unicode="{" horiz-adv-x="480" 
d="M406 -139q-63 13 -102.5 31.5t-61.5 43t-29.5 56t-7.5 70.5v79q0 29 -5 52.5t-19 40t-38.5 25.5t-63.5 9q-24 0 -24 19t24 19q39 0 63.5 9t38.5 25.5t19 40t5 52.5v79q0 39 7.5 70.5t29.5 56t61.5 43t102.5 31.5q8 2 14.5 -2.5t6.5 -13.5q0 -11 -12 -16q-54 -14 -86 -29
t-48.5 -35.5t-21.5 -47t-5 -63.5v-75q0 -66 -28 -98t-76 -46q25 -8 44.5 -19t32.5 -27.5t20 -40.5t7 -57v-75q0 -37 5 -63.5t21.5 -47t48.5 -35.5t86 -29q12 -5 12 -16q0 -9 -6.5 -13.5t-14.5 -2.5z" />
    <glyph glyph-name="bar" unicode="|" horiz-adv-x="286" 
d="M121 780q0 9 6.5 15.5t15.5 6.5t15.5 -6.5t6.5 -15.5v-890q0 -9 -6.5 -15.5t-15.5 -6.5t-15.5 6.5t-6.5 15.5v890z" />
    <glyph glyph-name="braceright" unicode="}" horiz-adv-x="480" 
d="M74 713q63 -13 102.5 -31.5t61.5 -43t29.5 -56t7.5 -70.5v-79q0 -29 5 -52.5t19 -40t38.5 -25.5t63.5 -9q24 0 24 -19t-24 -19q-39 0 -63.5 -9t-38.5 -25.5t-19 -40t-5 -52.5v-79q0 -39 -7.5 -70.5t-29.5 -56t-61.5 -43t-102.5 -31.5q-8 -2 -14.5 2.5t-6.5 13.5
q0 11 12 16q54 14 86 29t48.5 35.5t21.5 47t5 63.5v75q0 66 28 98t76 46q-25 8 -44.5 19t-32.5 27.5t-20 40.5t-7 57v75q0 37 -5 63.5t-21.5 47t-48.5 35.5t-86 29q-12 5 -12 16q0 9 6.5 13.5t14.5 2.5z" />
    <glyph glyph-name="asciitilde" unicode="~" horiz-adv-x="460" 
d="M121 254q-2 -5 -6 -9.5t-12 -4.5q-18 0 -18 17q0 4 2 12q14 45 33 60t46 15q14 0 31 -6.5t34 -14t33.5 -14t29.5 -6.5q17 0 26.5 9t18.5 29q2 5 6.5 9.5t11.5 4.5q18 0 18 -17q0 -4 -2 -12q-14 -45 -33 -60t-46 -15q-14 0 -31 6.5t-34 14t-33.5 14t-29.5 6.5
q-17 0 -26.5 -9t-18.5 -29z" />
    <glyph glyph-name="uni00A0" unicode="&#xa0;" horiz-adv-x="300" 
 />
    <glyph glyph-name="exclamdown" unicode="&#xa1;" horiz-adv-x="252" 
d="M157 22q0 -25 -25 -25h-12q-25 0 -25 25l16 483q0 6 4.5 10.5t10.5 4.5t10.5 -4.5t4.5 -10.5zM159 644q0 -14 -9.5 -23.5t-23.5 -9.5t-23.5 9.5t-9.5 23.5v27q0 14 9.5 23.5t23.5 9.5t23.5 -9.5t9.5 -23.5v-27z" />
    <glyph glyph-name="cent" unicode="&#xa2;" horiz-adv-x="581" 
d="M236 103q-39 13 -71 38t-55 58t-35.5 72.5t-12.5 81.5v2q0 54 20 102t55 85t82.5 58.5t102.5 21.5h15l13 68q2 8 8 14t16 6q12 0 19.5 -8.5t4.5 -22.5l-13 -64q42 -10 72.5 -30.5t56.5 -44.5q9 -9 9 -20q0 -25 -24 -25q-11 0 -19 8q-23 22 -49 40t-58 26l-84 -432
q18 -3 36 -3q48 0 87.5 20t72.5 53q9 9 19 9q9 0 15.5 -7t6.5 -16t-7 -16q-37 -39 -84 -64t-113 -25h-19.5t-19.5 2l-16 -80q-2 -8 -8 -14t-16 -6q-12 0 -19.5 8.5t-4.5 22.5zM115 355q0 -72 36.5 -127t96.5 -79l82 427h-9q-44 0 -81.5 -17t-65 -46.5t-43.5 -69.5t-16 -86
v-2z" />
    <glyph glyph-name="sterling" unicode="&#xa3;" horiz-adv-x="644" 
d="M66 13q0 11 12 14l78 18v260h-66q-10 0 -17 7t-7 17t7 17t17 7h66v118q0 116 65 181q28 28 66 43t84 15q73 0 120 -27t80 -66q7 -8 7 -19q0 -24 -25 -24q-11 0 -20 9q-31 35 -67 57.5t-96 22.5q-70 0 -113 -43q-50 -50 -50 -148v-119h278q10 0 17 -7t7 -17t-7 -17t-17 -7
h-278v-258h354q10 0 17 -7t7 -17t-7 -16.5t-17 -6.5h-482q-13 0 -13 13z" />
    <glyph glyph-name="yen" unicode="&#xa5;" horiz-adv-x="686" 
d="M368 170h194q9 0 16 -6.5t7 -16.5q0 -9 -7 -15.5t-16 -6.5h-194v-104q0 -25 -25 -25t-25 25v104h-194q-9 0 -16 6.5t-7 15.5q0 10 7 16.5t16 6.5h194v98h-194q-9 0 -16 6.5t-7 15.5t7 16t16 7h176l-241 348q-6 9 -6 18q0 11 7.5 18t18.5 7q14 0 24 -16l241 -361l243 363
q9 14 24 14q10 0 16.5 -7t6.5 -17q0 -9 -7 -19l-242 -348h177q9 0 16 -7t7 -16t-7 -15.5t-16 -6.5h-194v-98z" />
    <glyph glyph-name="section" unicode="&#xa7;" horiz-adv-x="632" 
d="M329 -10q-63 0 -118.5 23t-95.5 59q-9 9 -9 20t8 18.5t19 7.5t20 -9q32 -30 79 -50t102 -20q60 0 88 22.5t28 54.5v2q0 31 -40.5 56.5t-142.5 49.5q-56 13 -94.5 27.5t-62.5 31t-34.5 36.5t-10.5 44v2q0 45 39.5 75t108.5 38q-39 17 -62.5 43.5t-23.5 61.5v2
q0 57 47.5 91t128.5 34q63 0 118.5 -23t95.5 -59q9 -9 9 -20t-8 -18.5t-19 -7.5q-10 0 -20 9q-32 30 -79 50t-102 20q-60 0 -88 -22.5t-28 -54.5v-2q0 -32 40.5 -57t142.5 -49q56 -14 94.5 -28t62.5 -30.5t34.5 -36t10.5 -44.5v-2q0 -45 -39.5 -75t-108.5 -38
q39 -17 62.5 -43.5t23.5 -61.5v-2q0 -57 -47.5 -91t-128.5 -34zM386 253q29 0 53 6.5t41 17.5t26 25t9 29v2q0 14 -7 26.5t-24.5 24.5t-48 23.5t-77.5 23.5q-36 9 -63.5 12.5t-48.5 3.5q-29 0 -53 -6.5t-41 -17.5t-26 -25t-9 -29v-2q0 -14 7 -26.5t24.5 -24.5t48 -23.5
t77.5 -23.5q35 -9 63 -12.5t49 -3.5z" />
    <glyph glyph-name="dieresis" unicode="&#xa8;" horiz-adv-x="500" 
d="M332 679q15 0 25 -9.5t10 -24.5v-20q0 -15 -10 -24.5t-25 -9.5t-25 9.5t-10 24.5v20q0 15 10 24.5t25 9.5zM168 679q15 0 25 -9.5t10 -24.5v-20q0 -15 -10 -24.5t-25 -9.5t-25 9.5t-10 24.5v20q0 15 10 24.5t25 9.5z" />
    <glyph glyph-name="copyright" unicode="&#xa9;" horiz-adv-x="830" 
d="M414 -12q-76 0 -142 28.5t-114.5 77.5t-76.5 114.5t-28 139.5v2q0 73 28 139t77 115.5t115 78.5t143 29q76 0 142 -28.5t114.5 -77.5t76.5 -114.5t28 -139.5v-2q0 -74 -28 -139.5t-77 -115t-115.5 -78.5t-142.5 -29zM414 16q71 0 132 26.5t105.5 72t70 106t25.5 129.5v2
q0 69 -25 129.5t-69.5 105.5t-105 71t-131.5 26t-132 -26.5t-105.5 -72t-70 -106t-25.5 -129.5v-2q0 -69 25 -129.5t69.5 -105.5t105 -71t131.5 -26zM419 166q-39 0 -72 15t-57.5 40.5t-38.5 59.5t-14 73v2q0 38 14 72.5t39 60.5t58 41t72 15q45 0 75 -14.5t54 -35.5
q9 -8 9 -18q0 -9 -6.5 -15t-15.5 -6q-8 0 -16 7q-20 17 -44.5 29.5t-56.5 12.5q-30 0 -55 -11.5t-43.5 -32t-29 -47.5t-10.5 -57v-2q0 -30 11 -57.5t29.5 -47.5t44 -32t54.5 -12q34 0 58.5 11.5t47.5 32.5q5 5 14 5q8 0 14 -6t6 -14q0 -11 -7 -15q-28 -24 -58.5 -39
t-75.5 -15z" />
    <glyph glyph-name="ordfeminine" unicode="&#xaa;" horiz-adv-x="390" 
d="M174 411q-20 0 -39.5 5.5t-35 17t-25 28t-9.5 39.5v2q0 45 34.5 69t89.5 24q27 0 46.5 -3t36.5 -8v5q0 38 -22.5 57.5t-60.5 19.5q-21 0 -40.5 -5.5t-34.5 -12.5q-6 -3 -11 -3q-18 0 -18 18q0 12 12 17q23 11 45 16.5t49 5.5q58 0 90 -32q28 -28 28 -80v-160
q0 -18 -19 -18q-18 0 -18 18v27q-17 -22 -41.5 -34.5t-56.5 -12.5zM176 447q19 0 36.5 5.5t30.5 15.5t21 24.5t8 31.5v27q-17 5 -37 8t-48 3q-38 0 -60 -16t-22 -41v-2q0 -27 21 -41.5t50 -14.5zM78 293q-8 0 -14 6t-6 14t6 14t14 6h220q8 0 14 -6t6 -14t-6 -14t-14 -6h-220
z" />
    <glyph glyph-name="guillemotleft" unicode="&#xab;" horiz-adv-x="515" 
d="M425 43q-11 0 -19 11l-137 179q-10 13 -10 22t10 22l137 179q8 11 19 11q9 0 15.5 -6t6.5 -15q0 -10 -6 -17l-126 -173l126 -175q6 -9 6 -17q-1 -9 -7 -15t-15 -6zM221 43q-11 0 -19 11l-137 179q-10 13 -10 22t10 22l137 179q8 11 19 11q9 0 15.5 -6t6.5 -15
q0 -10 -6 -17l-126 -173l126 -175q6 -8 6 -17t-6.5 -15t-15.5 -6z" />
    <glyph glyph-name="registered" unicode="&#xae;" horiz-adv-x="416" 
d="M208 360q-37 0 -68.5 14t-55 37.5t-37 55t-13.5 67.5v1q0 36 13.5 67.5t37 55.5t55.5 38t68 14q37 0 68.5 -14t55 -37.5t37 -55t13.5 -67.5v-1q0 -36 -13.5 -67.5t-37 -55.5t-55.5 -38t-68 -14zM208 379q33 0 61 12.5t48.5 33.5t32.5 49.5t12 60.5v1q0 31 -11.5 59.5
t-32.5 49.5t-49 33.5t-61 12.5t-61 -12.5t-48.5 -33.5t-32.5 -49.5t-12 -60.5v-1q0 -32 11.5 -60t32.5 -49t49 -33.5t61 -12.5zM143 612q0 14 14 14h64q27 0 46 -14t19 -40q0 -20 -11.5 -34t-30.5 -20l38 -45q5 -7 5 -12q0 -13 -13 -13q-8 0 -14 8l-49 59h-40v-53
q0 -14 -14 -14t-14 14v150zM218 538q19 0 29 9t10 23q0 16 -10.5 23.5t-28.5 7.5h-47v-63h47z" />
    <glyph glyph-name="macron" unicode="&#xaf;" horiz-adv-x="500" 
d="M118 621q-10 0 -17 7t-7 17t7 17t17 7h264q10 0 17 -7t7 -17t-7 -17t-17 -7h-264z" />
    <glyph glyph-name="degree" unicode="&#xb0;" horiz-adv-x="450" 
d="M225 412q-30 0 -57 12t-48 32t-33.5 46.5t-12.5 55.5v2q0 29 12.5 55.5t33.5 46.5t48 32t57 12t57 -12t48 -32t33.5 -46.5t12.5 -55.5v-2q0 -29 -12.5 -55.5t-33.5 -46.5t-48 -32t-57 -12zM225 456q22 0 40.5 8.5t32 22.5t21 32.5t7.5 38.5v2q0 20 -7.5 38.5t-21 32.5
t-32 22.5t-40.5 8.5t-40.5 -8.5t-32 -22.5t-21 -32.5t-7.5 -38.5v-2q0 -20 7.5 -38.5t21 -32.5t32 -22.5t40.5 -8.5z" />
    <glyph glyph-name="plusminus" unicode="&#xb1;" horiz-adv-x="620" 
d="M285 358h-187q-10 0 -17 7t-7 17t7 17t17 7h187v182q0 25 25 25t25 -25v-182h187q10 0 17 -7t7 -17t-7 -17t-17 -7h-187v-182q0 -25 -25 -25t-25 25v182zM98 0q-10 0 -17 7t-7 17t7 17t17 7h424q10 0 17 -7t7 -17t-7 -17t-17 -7h-424z" />
    <glyph glyph-name="acute" unicode="&#xb4;" horiz-adv-x="500" 
d="M214 592q-13 0 -13 9q0 6 4 11l62 93q12 18 28 18q14 0 28 -7.5t14 -15.5q0 -7 -11 -18l-80 -77q-9 -8 -15.5 -10.5t-16.5 -2.5z" />
    <glyph glyph-name="paragraph" unicode="&#xb6;" horiz-adv-x="480" 
d="M333 277h-6q-58 0 -108 14t-87 41t-58 66t-21 90v2q0 49 19 88t53.5 66t82 41.5t104.5 14.5h47q11 0 19 -8t8 -19v-651q0 -11 -7.5 -18.5t-18.5 -7.5t-19 7.5t-8 18.5v255z" />
    <glyph glyph-name="periodcentered" unicode="&#xb7;" horiz-adv-x="230" 
d="M82 311q0 14 9.5 23.5t23.5 9.5t23.5 -9.5t9.5 -23.5v-27q0 -14 -9.5 -23.5t-23.5 -9.5t-23.5 9.5t-9.5 23.5v27z" />
    <glyph glyph-name="cedilla" unicode="&#xb8;" horiz-adv-x="500" 
d="M230 -122q-5 -9 -10 -14.5t-16 -5.5q-12 0 -23 8t-11 16q0 5 5 15l77 113h43z" />
    <glyph glyph-name="ordmasculine" unicode="&#xba;" horiz-adv-x="390" 
d="M194 411q-32 0 -58 11.5t-45 31.5t-29.5 46.5t-10.5 55.5v2q0 30 11 56.5t30 46.5t45.5 32t58.5 12q31 0 57.5 -11.5t45.5 -31.5t29.5 -46.5t10.5 -55.5v-2q0 -30 -11 -56.5t-30 -46.5t-46 -32t-58 -12zM67 293q-8 0 -14 6t-6 14t6 14t14 6h256q8 0 14 -6t6 -14t-6 -14
t-14 -6h-256zM196 450q22 0 40.5 8.5t32 22.5t20.5 33.5t7 41.5v2q0 22 -8 42t-21.5 34.5t-32 23t-40.5 8.5q-23 0 -41 -8.5t-31.5 -22.5t-20.5 -33.5t-7 -41.5v-2q0 -23 8 -42.5t21.5 -34t32 -23t40.5 -8.5z" />
    <glyph glyph-name="guillemotright" unicode="&#xbb;" horiz-adv-x="515" 
d="M294 467q11 0 19 -11l137 -179q10 -13 10 -22t-10 -22l-137 -179q-8 -11 -19 -11q-9 0 -15.5 6t-6.5 15t6 17l126 173l-126 175q-6 7 -6 17q0 9 6.5 15t15.5 6zM90 467q11 0 19 -11l137 -179q10 -13 10 -22t-10 -22l-137 -179q-8 -11 -19 -11q-9 0 -15.5 6t-6.5 15t6 17
l126 173l-126 175q-3 5 -5 8.5t-1 8.5q1 9 7 15t15 6z" />
    <glyph glyph-name="questiondown" unicode="&#xbf;" horiz-adv-x="534" 
d="M290 521q14 0 16 -18l11 -129q1 -10 -5.5 -17t-17.5 -8q-84 -5 -136.5 -45.5t-52.5 -113.5v-2q0 -31 11.5 -58.5t33 -48t52.5 -32.5t69 -12q57 0 101.5 24.5t81.5 66.5q7 10 20 10q10 0 16.5 -6t6.5 -16t-6 -17q-40 -48 -93 -78t-129 -30q-50 0 -90 15.5t-68 42t-43.5 62
t-15.5 75.5v2q0 46 17 82t45.5 61.5t67 40.5t82.5 20l8 111q1 9 5.5 13.5t10.5 4.5h2zM322 644q0 -14 -9.5 -23.5t-23.5 -9.5t-23.5 9.5t-9.5 23.5v27q0 14 9.5 23.5t23.5 9.5t23.5 -9.5t9.5 -23.5v-27z" />
    <glyph glyph-name="Agrave" unicode="&#xc0;" horiz-adv-x="790" 
d="M56 18q0 9 4 16l299 648q5 11 13 18t22 7h2q14 0 22 -7t13 -18l298 -646q4 -7 4 -16q0 -10 -7 -17t-18 -7q-9 0 -15.5 6t-10.5 14l-82 180h-413l-82 -181q-7 -19 -25 -19q-10 0 -17 6.5t-7 15.5zM578 243l-184 405l-185 -405h369zM407 772q-10 0 -16.5 2.5t-15.5 10.5
l-80 77q-11 11 -11 18q0 8 14 15.5t28 7.5q16 0 28 -18l62 -93q4 -5 4 -11q0 -9 -13 -9z" />
    <glyph glyph-name="Aacute" unicode="&#xc1;" horiz-adv-x="790" 
d="M56 18q0 9 4 16l299 648q5 11 13 18t22 7h2q14 0 22 -7t13 -18l298 -646q4 -7 4 -16q0 -10 -7 -17t-18 -7q-9 0 -15.5 6t-10.5 14l-82 180h-413l-82 -181q-7 -19 -25 -19q-10 0 -17 6.5t-7 15.5zM578 243l-184 405l-185 -405h369zM379 772q-13 0 -13 9q0 6 4 11l62 93
q12 18 28 18q14 0 28 -7.5t14 -15.5q0 -7 -11 -18l-80 -77q-9 -8 -15.5 -10.5t-16.5 -2.5z" />
    <glyph glyph-name="Acircumflex" unicode="&#xc2;" horiz-adv-x="790" 
d="M56 18q0 9 4 16l299 648q5 11 13 18t22 7h2q14 0 22 -7t13 -18l298 -646q4 -7 4 -16q0 -10 -7 -17t-18 -7q-9 0 -15.5 6t-10.5 14l-82 180h-413l-82 -181q-7 -19 -25 -19q-10 0 -17 6.5t-7 15.5zM578 243l-184 405l-185 -405h369zM330 785q-9 -8 -15.5 -10.5t-16.5 -2.5
q-13 0 -13 10q0 5 5 12l72 88q7 8 13 13t15 5h8q9 0 15 -5t13 -13l72 -88q5 -7 5 -12q0 -10 -14 -10q-10 0 -17 2.5t-16 10.5l-63 58z" />
    <glyph glyph-name="Atilde" unicode="&#xc3;" horiz-adv-x="790" 
d="M56 18q0 9 4 16l299 648q5 11 13 18t22 7h2q14 0 22 -7t13 -18l298 -646q4 -7 4 -16q0 -10 -7 -17t-18 -7q-9 0 -15.5 6t-10.5 14l-82 180h-413l-82 -181q-7 -19 -25 -19q-10 0 -17 6.5t-7 15.5zM578 243l-184 405l-185 -405h369zM328 791q-4 -5 -7.5 -8.5t-8.5 -2.5
q-16 1 -18 17q1 1 1 7q14 30 28 44t36 13q12 -1 26 -6.5t28 -12.5l10 -5q10 -7 20 -8q22 0 33 23q3 3 7.5 7t9.5 4q18 -2 18 -19q-1 -1 -1 -2t-0.5 -1.5t-0.5 -1.5q-22 -59 -67 -58q-12 1 -26 6t-26 13q-2 0 -5.5 2.5t-4.5 3.5q-5 2 -10 4.5t-11 2.5q-9 0 -16.5 -4.5
t-14.5 -17.5zM329 792q0 -1 -1 -1z" />
    <glyph glyph-name="Adieresis" unicode="&#xc4;" horiz-adv-x="790" 
d="M56 18q0 9 4 16l299 648q5 11 13 18t22 7h2q14 0 22 -7t13 -18l298 -646q4 -7 4 -16q0 -10 -7 -17t-18 -7q-9 0 -15.5 6t-10.5 14l-82 180h-413l-82 -181q-7 -19 -25 -19q-10 0 -17 6.5t-7 15.5zM578 243l-184 405l-185 -405h369zM476 859q15 0 25 -9.5t10 -24.5v-20
q0 -15 -10 -24.5t-25 -9.5t-25 9.5t-10 24.5v20q0 15 10 24.5t25 9.5zM312 859q15 0 25 -9.5t10 -24.5v-20q0 -15 -10 -24.5t-25 -9.5t-25 9.5t-10 24.5v20q0 15 10 24.5t25 9.5z" />
    <glyph glyph-name="Aring" unicode="&#xc5;" horiz-adv-x="790" 
d="M731 32q2 -6 2 -11q0 -9 -7.5 -17t-18.5 -8q-9 0 -15 6t-10 14l-82 180h-413l-82 -181q-7 -19 -24 -19q-11 0 -18 7.5t-7 16.5q0 2 2 10l299 648q-26 11 -43 33.5t-17 51.5v2q0 19 8 36t21.5 29.5t31 20t37.5 7.5q19 0 37 -7.5t31.5 -20t21.5 -29.5t8 -36v-2
q0 -29 -17 -51.5t-43 -33.5zM395 702q25 0 43.5 18t18.5 43v2q0 25 -18 43t-44 18t-44 -18t-18 -43v-2q0 -25 18.5 -43t43.5 -18zM578 243l-184 405l-185 -405h369z" />
    <glyph glyph-name="AE" unicode="&#xc6;" horiz-adv-x="1045" 
d="M35 19q0 6 5 14l394 651q5 8 10.5 12t15.5 4h497q10 0 17 -7t7 -17t-7 -17t-17 -7h-411v-275h366q10 0 17 -7t7 -17t-7 -17t-17 -7h-366v-281h416q10 0 17 -7t7 -17t-7 -17t-17 -7h-442q-11 0 -18.5 7.5t-7.5 18.5v170h-300l-113 -188q-7 -13 -22 -13q-10 0 -17 7t-7 17z
M494 243v410h-26l-246 -410h272z" />
    <glyph glyph-name="Ccedilla" unicode="&#xc7;" horiz-adv-x="738" 
d="M686 97q-52 -48 -111 -77.5t-141 -31.5l-54 -110q-5 -9 -10 -14.5t-16 -5.5q-12 0 -23 8t-11 16q0 5 5 15l63 93q-69 6 -126.5 36t-99.5 78t-65.5 110.5t-23.5 133.5v2q0 74 26.5 140t73 115.5t110.5 78t140 28.5q44 0 80 -7t66.5 -20t57.5 -31t53 -40q4 -4 7 -9t3 -12
q0 -11 -8 -18.5t-19 -7.5t-18 7q-44 40 -96.5 65.5t-126.5 25.5q-63 0 -117 -24t-93.5 -66.5t-62 -99.5t-22.5 -123v-2q0 -66 23 -123.5t62.5 -100t93.5 -67t117 -24.5q72 0 125 24.5t103 72.5q8 8 18 8t17.5 -7.5t7.5 -17.5t-8 -18z" />
    <glyph glyph-name="Egrave" unicode="&#xc8;" horiz-adv-x="670" 
d="M130 0q-11 0 -18.5 7.5t-7.5 18.5v648q0 11 7.5 18.5t18.5 7.5h452q10 0 17 -7t7 -17t-7 -17t-17 -7h-426v-275h381q10 0 17 -7t7 -17t-7 -17t-17 -7h-381v-281h431q10 0 17 -7t7 -17t-7 -17t-17 -7h-457zM375 762q-10 0 -16.5 2.5t-15.5 10.5l-80 77q-11 11 -11 18
q0 8 14 15.5t28 7.5q16 0 28 -18l62 -93q4 -5 4 -11q0 -9 -13 -9z" />
    <glyph glyph-name="Eacute" unicode="&#xc9;" horiz-adv-x="670" 
d="M130 0q-11 0 -18.5 7.5t-7.5 18.5v648q0 11 7.5 18.5t18.5 7.5h452q10 0 17 -7t7 -17t-7 -17t-17 -7h-426v-275h381q10 0 17 -7t7 -17t-7 -17t-17 -7h-381v-281h431q10 0 17 -7t7 -17t-7 -17t-17 -7h-457zM335 762q-13 0 -13 9q0 6 4 11l62 93q12 18 28 18q14 0 28 -7.5
t14 -15.5q0 -7 -11 -18l-80 -77q-9 -8 -15.5 -10.5t-16.5 -2.5z" />
    <glyph glyph-name="Ecircumflex" unicode="&#xca;" horiz-adv-x="670" 
d="M130 0q-11 0 -18.5 7.5t-7.5 18.5v648q0 11 7.5 18.5t18.5 7.5h452q10 0 17 -7t7 -17t-7 -17t-17 -7h-426v-275h381q10 0 17 -7t7 -17t-7 -17t-17 -7h-381v-281h431q10 0 17 -7t7 -17t-7 -17t-17 -7h-457zM286 775q-9 -8 -15.5 -10.5t-16.5 -2.5q-13 0 -13 10q0 5 5 12
l72 88q7 8 13 13t15 5h8q9 0 15 -5t13 -13l72 -88q5 -7 5 -12q0 -10 -14 -10q-10 0 -17 2.5t-16 10.5l-63 58z" />
    <glyph glyph-name="Edieresis" unicode="&#xcb;" horiz-adv-x="670" 
d="M130 0q-11 0 -18.5 7.5t-7.5 18.5v648q0 11 7.5 18.5t18.5 7.5h452q10 0 17 -7t7 -17t-7 -17t-17 -7h-426v-275h381q10 0 17 -7t7 -17t-7 -17t-17 -7h-381v-281h431q10 0 17 -7t7 -17t-7 -17t-17 -7h-457zM437 849q15 0 25 -9.5t10 -24.5v-20q0 -15 -10 -24.5t-25 -9.5
t-25 9.5t-10 24.5v20q0 15 10 24.5t25 9.5zM273 849q15 0 25 -9.5t10 -24.5v-20q0 -15 -10 -24.5t-25 -9.5t-25 9.5t-10 24.5v20q0 15 10 24.5t25 9.5z" />
    <glyph glyph-name="Igrave" unicode="&#xcc;" horiz-adv-x="274" 
d="M111 678q0 11 7.5 18.5t18.5 7.5t18.5 -7.5t7.5 -18.5v-656q0 -11 -7.5 -18.5t-18.5 -7.5t-18.5 7.5t-7.5 18.5v656zM161 762q-10 0 -16.5 2.5t-15.5 10.5l-80 77q-11 11 -11 18q0 8 14 15.5t28 7.5q16 0 28 -18l62 -93q4 -5 4 -11q0 -9 -13 -9z" />
    <glyph glyph-name="Iacute" unicode="&#xcd;" horiz-adv-x="274" 
d="M111 678q0 11 7.5 18.5t18.5 7.5t18.5 -7.5t7.5 -18.5v-656q0 -11 -7.5 -18.5t-18.5 -7.5t-18.5 7.5t-7.5 18.5v656zM115 762q-13 0 -13 9q0 6 4 11l62 93q12 18 28 18q14 0 28 -7.5t14 -15.5q0 -7 -11 -18l-80 -77q-9 -8 -15.5 -10.5t-16.5 -2.5z" />
    <glyph glyph-name="Icircumflex" unicode="&#xce;" horiz-adv-x="274" 
d="M111 678q0 11 7.5 18.5t18.5 7.5t18.5 -7.5t7.5 -18.5v-656q0 -11 -7.5 -18.5t-18.5 -7.5t-18.5 7.5t-7.5 18.5v656zM73 775q-9 -8 -15.5 -10.5t-16.5 -2.5q-13 0 -13 10q0 5 5 12l72 88q7 8 13 13t15 5h8q9 0 15 -5t13 -13l72 -88q5 -7 5 -12q0 -10 -14 -10
q-10 0 -17 2.5t-16 10.5l-63 58z" />
    <glyph glyph-name="Idieresis" unicode="&#xcf;" horiz-adv-x="274" 
d="M111 678q0 11 7.5 18.5t18.5 7.5t18.5 -7.5t7.5 -18.5v-656q0 -11 -7.5 -18.5t-18.5 -7.5t-18.5 7.5t-7.5 18.5v656zM219 849q15 0 25 -9.5t10 -24.5v-20q0 -15 -10 -24.5t-25 -9.5t-25 9.5t-10 24.5v20q0 15 10 24.5t25 9.5zM55 849q15 0 25 -9.5t10 -24.5v-20
q0 -15 -10 -24.5t-25 -9.5t-25 9.5t-10 24.5v20q0 15 10 24.5t25 9.5z" />
    <glyph glyph-name="Eth" unicode="&#xd0;" horiz-adv-x="812" 
d="M134 376v298q0 11 7.5 18.5t18.5 7.5h207q82 0 150.5 -26.5t118 -73.5t76.5 -110.5t27 -137.5v-2q0 -74 -27 -138t-76.5 -111t-118 -74t-150.5 -27h-207q-11 0 -18.5 7.5t-7.5 18.5v302h-55q-10 0 -17 7t-7 17t7 17t17 7h55zM186 376h212q10 0 17 -7t7 -17t-7 -17t-17 -7
h-212v-280h181q73 0 132 23.5t100 64t63.5 95t22.5 117.5v2q0 62 -22.5 117t-63.5 96t-100 65t-132 24h-181v-276z" />
    <glyph glyph-name="Ntilde" unicode="&#xd1;" horiz-adv-x="790" 
d="M104 677q0 11 7.5 18.5t18.5 7.5h8q14 0 26 -15l472 -599v590q0 25 25 25t25 -25v-660q0 -9 -6 -15.5t-15 -6.5h-4q-14 0 -26 17l-481 610v-603q0 -25 -25 -25t-25 25v656zM289 768q-2 -5 -6 -9.5t-12 -4.5q-18 0 -18 17q0 4 2 12q14 45 33 60t46 15q14 0 31 -6.5t34 -14
t33.5 -14t29.5 -6.5q17 0 26.5 9t18.5 29q2 5 6.5 9.5t11.5 4.5q18 0 18 -17q0 -4 -2 -12q-14 -45 -33 -60t-46 -15q-14 0 -31 6.5t-34 14t-33.5 14t-29.5 6.5q-17 0 -26.5 -9t-18.5 -29z" />
    <glyph glyph-name="Ograve" unicode="&#xd2;" horiz-adv-x="850" 
d="M424 -12q-80 0 -144.5 29.5t-110.5 79t-71 114.5t-25 137v2q0 72 25.5 137.5t71.5 115.5t111 79.5t145 29.5q79 0 144 -29.5t111 -79t71 -114.5t25 -137v-2q0 -72 -25.5 -137.5t-71.5 -115.5t-111.5 -79.5t-144.5 -29.5zM426 35q65 0 119.5 24.5t94 67t61.5 99.5t22 122
v2q0 65 -22.5 122.5t-62 100t-94.5 67.5t-120 25t-119.5 -24.5t-94 -67t-61.5 -99.5t-22 -122v-2q0 -65 22.5 -122.5t62 -100t94.5 -67.5t120 -25zM474 772q-10 0 -16.5 2.5t-15.5 10.5l-80 77q-11 11 -11 18q0 8 14 15.5t28 7.5q16 0 28 -18l62 -93q4 -5 4 -11q0 -9 -13 -9
z" />
    <glyph glyph-name="Oacute" unicode="&#xd3;" horiz-adv-x="850" 
d="M424 -12q-80 0 -144.5 29.5t-110.5 79t-71 114.5t-25 137v2q0 72 25.5 137.5t71.5 115.5t111 79.5t145 29.5q79 0 144 -29.5t111 -79t71 -114.5t25 -137v-2q0 -72 -25.5 -137.5t-71.5 -115.5t-111.5 -79.5t-144.5 -29.5zM426 35q65 0 119.5 24.5t94 67t61.5 99.5t22 122
v2q0 65 -22.5 122.5t-62 100t-94.5 67.5t-120 25t-119.5 -24.5t-94 -67t-61.5 -99.5t-22 -122v-2q0 -65 22.5 -122.5t62 -100t94.5 -67.5t120 -25zM424 772q-13 0 -13 9q0 6 4 11l62 93q12 18 28 18q14 0 28 -7.5t14 -15.5q0 -7 -11 -18l-80 -77q-9 -8 -15.5 -10.5
t-16.5 -2.5z" />
    <glyph glyph-name="Ocircumflex" unicode="&#xd4;" horiz-adv-x="850" 
d="M424 -12q-80 0 -144.5 29.5t-110.5 79t-71 114.5t-25 137v2q0 72 25.5 137.5t71.5 115.5t111 79.5t145 29.5q79 0 144 -29.5t111 -79t71 -114.5t25 -137v-2q0 -72 -25.5 -137.5t-71.5 -115.5t-111.5 -79.5t-144.5 -29.5zM426 35q65 0 119.5 24.5t94 67t61.5 99.5t22 122
v2q0 65 -22.5 122.5t-62 100t-94.5 67.5t-120 25t-119.5 -24.5t-94 -67t-61.5 -99.5t-22 -122v-2q0 -65 22.5 -122.5t62 -100t94.5 -67.5t120 -25zM362 785q-9 -8 -15.5 -10.5t-16.5 -2.5q-13 0 -13 10q0 5 5 12l72 88q7 8 13 13t15 5h8q9 0 15 -5t13 -13l72 -88q5 -7 5 -12
q0 -10 -14 -10q-10 0 -17 2.5t-16 10.5l-63 58z" />
    <glyph glyph-name="Otilde" unicode="&#xd5;" horiz-adv-x="850" 
d="M424 -12q-80 0 -144.5 29.5t-110.5 79t-71 114.5t-25 137v2q0 72 25.5 137.5t71.5 115.5t111 79.5t145 29.5q79 0 144 -29.5t111 -79t71 -114.5t25 -137v-2q0 -72 -25.5 -137.5t-71.5 -115.5t-111.5 -79.5t-144.5 -29.5zM426 35q65 0 119.5 24.5t94 67t61.5 99.5t22 122
v2q0 65 -22.5 122.5t-62 100t-94.5 67.5t-120 25t-119.5 -24.5t-94 -67t-61.5 -99.5t-22 -122v-2q0 -65 22.5 -122.5t62 -100t94.5 -67.5t120 -25zM361 791q-4 -5 -7.5 -8.5t-8.5 -2.5q-16 1 -18 17q1 1 1 7q14 30 28 44t36 13q12 -1 26 -6.5t28 -12.5l10 -5q10 -7 20 -8
q22 0 33 23q3 3 7.5 7t9.5 4q18 -2 18 -19q-1 -1 -1 -2t-0.5 -1.5t-0.5 -1.5q-22 -59 -67 -58q-12 1 -26 6t-26 13q-2 0 -5.5 2.5t-4.5 3.5q-5 2 -10 4.5t-11 2.5q-9 0 -16.5 -4.5t-14.5 -17.5zM362 792q0 -1 -1 -1z" />
    <glyph glyph-name="Odieresis" unicode="&#xd6;" horiz-adv-x="850" 
d="M424 -12q-80 0 -144.5 29.5t-110.5 79t-71 114.5t-25 137v2q0 72 25.5 137.5t71.5 115.5t111 79.5t145 29.5q79 0 144 -29.5t111 -79t71 -114.5t25 -137v-2q0 -72 -25.5 -137.5t-71.5 -115.5t-111.5 -79.5t-144.5 -29.5zM426 35q65 0 119.5 24.5t94 67t61.5 99.5t22 122
v2q0 65 -22.5 122.5t-62 100t-94.5 67.5t-120 25t-119.5 -24.5t-94 -67t-61.5 -99.5t-22 -122v-2q0 -65 22.5 -122.5t62 -100t94.5 -67.5t120 -25zM507 859q15 0 25 -9.5t10 -24.5v-20q0 -15 -10 -24.5t-25 -9.5t-25 9.5t-10 24.5v20q0 15 10 24.5t25 9.5zM343 859
q15 0 25 -9.5t10 -24.5v-20q0 -15 -10 -24.5t-25 -9.5t-25 9.5t-10 24.5v20q0 15 10 24.5t25 9.5z" />
    <glyph glyph-name="multiply" unicode="&#xd7;" horiz-adv-x="620" 
d="M343 353l168 -166q9 -9 9 -20q0 -25 -25 -25q-11 0 -20 9l-166 168l-167 -169q-8 -8 -18 -8t-17 7t-7 17t8 18l169 167l-168 166q-9 9 -9 20q0 25 25 25q11 0 20 -9l166 -168l167 169q8 8 18 8t17 -7t7 -17t-8 -18z" />
    <glyph glyph-name="Oslash" unicode="&#xd8;" horiz-adv-x="850" 
d="M424 -12q-69 0 -126 22t-102 60l-67 -71q-8 -8 -18 -8q-9 0 -15 6t-6 15q0 10 6 16l68 73q-45 51 -68 114t-23 133v2q0 72 25.5 137.5t71.5 115.5t111 79.5t145 29.5q69 0 126 -22.5t102 -60.5l67 72q8 8 18 8q9 0 15 -6t6 -15q0 -10 -6 -16l-69 -74q45 -49 68.5 -112.5
t23.5 -133.5v-2q0 -72 -25.5 -137.5t-71.5 -115.5t-111.5 -79.5t-144.5 -29.5zM127 350q0 -61 19.5 -114.5t54.5 -95.5l419 450q-38 35 -88 55t-108 20q-65 0 -119.5 -24.5t-94 -67t-61.5 -99.5t-22 -122v-2zM426 35q65 0 119.5 24.5t94 67t61.5 99.5t22 122v2
q0 60 -19.5 113.5t-54.5 95.5l-420 -449q39 -35 89 -55t108 -20z" />
    <glyph glyph-name="Ugrave" unicode="&#xd9;" horiz-adv-x="760" 
d="M380 -11q-63 0 -115.5 19.5t-91 58t-59.5 94.5t-21 130v387q0 11 7.5 18.5t18.5 7.5t18.5 -7.5t7.5 -18.5v-382q0 -126 62.5 -193t174.5 -67q106 0 169.5 64t63.5 191v387q0 11 7.5 18.5t18.5 7.5t18.5 -7.5t7.5 -18.5v-381q0 -75 -21 -132.5t-59 -96.5t-90.5 -59
t-116.5 -20zM416 762q-10 0 -16.5 2.5t-15.5 10.5l-80 77q-11 11 -11 18q0 8 14 15.5t28 7.5q16 0 28 -18l62 -93q4 -5 4 -11q0 -9 -13 -9z" />
    <glyph glyph-name="Uacute" unicode="&#xda;" horiz-adv-x="760" 
d="M380 -11q-63 0 -115.5 19.5t-91 58t-59.5 94.5t-21 130v387q0 11 7.5 18.5t18.5 7.5t18.5 -7.5t7.5 -18.5v-382q0 -126 62.5 -193t174.5 -67q106 0 169.5 64t63.5 191v387q0 11 7.5 18.5t18.5 7.5t18.5 -7.5t7.5 -18.5v-381q0 -75 -21 -132.5t-59 -96.5t-90.5 -59
t-116.5 -20zM379 762q-13 0 -13 9q0 6 4 11l62 93q12 18 28 18q14 0 28 -7.5t14 -15.5q0 -7 -11 -18l-80 -77q-9 -8 -15.5 -10.5t-16.5 -2.5z" />
    <glyph glyph-name="Ucircumflex" unicode="&#xdb;" horiz-adv-x="760" 
d="M380 -11q-63 0 -115.5 19.5t-91 58t-59.5 94.5t-21 130v387q0 11 7.5 18.5t18.5 7.5t18.5 -7.5t7.5 -18.5v-382q0 -126 62.5 -193t174.5 -67q106 0 169.5 64t63.5 191v387q0 11 7.5 18.5t18.5 7.5t18.5 -7.5t7.5 -18.5v-381q0 -75 -21 -132.5t-59 -96.5t-90.5 -59
t-116.5 -20zM316 775q-9 -8 -15.5 -10.5t-16.5 -2.5q-13 0 -13 10q0 5 5 12l72 88q7 8 13 13t15 5h8q9 0 15 -5t13 -13l72 -88q5 -7 5 -12q0 -10 -14 -10q-10 0 -17 2.5t-16 10.5l-63 58z" />
    <glyph glyph-name="Udieresis" unicode="&#xdc;" horiz-adv-x="760" 
d="M380 -11q-63 0 -115.5 19.5t-91 58t-59.5 94.5t-21 130v387q0 11 7.5 18.5t18.5 7.5t18.5 -7.5t7.5 -18.5v-382q0 -126 62.5 -193t174.5 -67q106 0 169.5 64t63.5 191v387q0 11 7.5 18.5t18.5 7.5t18.5 -7.5t7.5 -18.5v-381q0 -75 -21 -132.5t-59 -96.5t-90.5 -59
t-116.5 -20zM462 849q15 0 25 -9.5t10 -24.5v-20q0 -15 -10 -24.5t-25 -9.5t-25 9.5t-10 24.5v20q0 15 10 24.5t25 9.5zM298 849q15 0 25 -9.5t10 -24.5v-20q0 -15 -10 -24.5t-25 -9.5t-25 9.5t-10 24.5v20q0 15 10 24.5t25 9.5z" />
    <glyph glyph-name="Yacute" unicode="&#xdd;" horiz-adv-x="716" 
d="M332 277l-273 385q-5 8 -5 16q0 11 8 18.5t19 7.5q13 0 24 -15l254 -365l255 365q5 6 10 10.5t13 4.5q10 0 18 -7.5t8 -17.5q0 -5 -2.5 -10t-5.5 -10l-271 -381v-256q0 -11 -7.5 -18.5t-18.5 -7.5t-18.5 7.5t-7.5 18.5v255zM357 762q-13 0 -13 9q0 6 4 11l62 93
q12 18 28 18q14 0 28 -7.5t14 -15.5q0 -7 -11 -18l-80 -77q-9 -8 -15.5 -10.5t-16.5 -2.5z" />
    <glyph glyph-name="Thorn" unicode="&#xde;" horiz-adv-x="673" 
d="M104 678q0 11 7.5 18.5t18.5 7.5t18.5 -7.5t7.5 -18.5v-105h202q58 0 105.5 -14.5t82 -42t53.5 -67t19 -90.5v-2q0 -55 -22 -97t-59.5 -70t-87 -42.5t-104.5 -14.5h-189v-111q0 -11 -7.5 -18.5t-18.5 -7.5t-18.5 7.5t-7.5 18.5v656zM348 181q49 0 89 12.5t68.5 35
t44.5 54.5t16 71v2q0 42 -15.5 73.5t-43.5 52.5t-67 32t-86 11h-198v-344h192z" />
    <glyph glyph-name="germandbls" unicode="&#xdf;" horiz-adv-x="620" 
d="M285 20q0 9 6.5 15t14.5 7q43 2 79 11.5t62.5 27.5t41.5 44t15 62v2q0 34 -15.5 60t-41.5 44.5t-61.5 29.5t-75.5 16q-25 3 -25 24q0 10 6 16t14 9q32 11 60 26.5t49 36.5t33 47.5t12 59.5v2q0 28 -11 52.5t-30.5 41.5t-47 27t-60.5 10q-36 0 -67 -13.5t-53.5 -38
t-35 -60t-12.5 -79.5v-480q0 -24 -25 -24q-24 0 -24 24v480q0 52 15.5 95.5t44 75t69 49t91.5 17.5q45 0 81.5 -13.5t63 -37t40.5 -55.5t14 -69v-2q0 -36 -13.5 -66.5t-35.5 -54.5t-50.5 -41.5t-57.5 -27.5q39 -7 75.5 -20.5t64.5 -35.5t45 -52.5t17 -70.5v-2
q0 -47 -19 -81.5t-52.5 -58.5t-79.5 -36.5t-100 -14.5q-8 0 -14.5 6.5t-6.5 15.5z" />
    <glyph glyph-name="agrave" unicode="&#xe0;" horiz-adv-x="574" 
d="M248 -12q-36 0 -71 10t-63 30t-45.5 50t-17.5 70v2q0 40 16.5 71t45.5 52t70 32t91 11q54 0 93 -6t76 -16v22q0 78 -44.5 117t-123.5 39q-42 0 -77.5 -9.5t-67.5 -24.5q-6 -3 -11 -3q-9 0 -16 7t-7 16t5 14.5t9 7.5q39 17 79 27.5t89 10.5q105 0 161 -56q52 -52 52 -144
v-297q0 -25 -24 -25t-24 25v64q-13 -18 -31.5 -35.5t-42.5 -31t-54.5 -22t-66.5 -8.5zM251 34q39 0 74 11.5t61.5 32t42 49.5t15.5 64v58q-32 8 -75 15.5t-98 7.5q-81 0 -124.5 -32.5t-43.5 -86.5v-2q0 -28 12 -49.5t32.5 -36.5t47.5 -23t56 -8zM334 592q-10 0 -16.5 2.5
t-15.5 10.5l-80 77q-11 11 -11 18q0 8 14 15.5t28 7.5q16 0 28 -18l62 -93q4 -5 4 -11q0 -9 -13 -9z" />
    <glyph glyph-name="aacute" unicode="&#xe1;" horiz-adv-x="574" 
d="M248 -12q-36 0 -71 10t-63 30t-45.5 50t-17.5 70v2q0 40 16.5 71t45.5 52t70 32t91 11q54 0 93 -6t76 -16v22q0 78 -44.5 117t-123.5 39q-42 0 -77.5 -9.5t-67.5 -24.5q-6 -3 -11 -3q-9 0 -16 7t-7 16t5 14.5t9 7.5q39 17 79 27.5t89 10.5q105 0 161 -56q52 -52 52 -144
v-297q0 -25 -24 -25t-24 25v64q-13 -18 -31.5 -35.5t-42.5 -31t-54.5 -22t-66.5 -8.5zM251 34q39 0 74 11.5t61.5 32t42 49.5t15.5 64v58q-32 8 -75 15.5t-98 7.5q-81 0 -124.5 -32.5t-43.5 -86.5v-2q0 -28 12 -49.5t32.5 -36.5t47.5 -23t56 -8zM300 592q-13 0 -13 9
q0 6 4 11l62 93q12 18 28 18q14 0 28 -7.5t14 -15.5q0 -7 -11 -18l-80 -77q-9 -8 -15.5 -10.5t-16.5 -2.5z" />
    <glyph glyph-name="acircumflex" unicode="&#xe2;" horiz-adv-x="574" 
d="M248 -12q-36 0 -71 10t-63 30t-45.5 50t-17.5 70v2q0 40 16.5 71t45.5 52t70 32t91 11q54 0 93 -6t76 -16v22q0 78 -44.5 117t-123.5 39q-42 0 -77.5 -9.5t-67.5 -24.5q-6 -3 -11 -3q-9 0 -16 7t-7 16t5 14.5t9 7.5q39 17 79 27.5t89 10.5q105 0 161 -56q52 -52 52 -144
v-297q0 -25 -24 -25t-24 25v64q-13 -18 -31.5 -35.5t-42.5 -31t-54.5 -22t-66.5 -8.5zM251 34q39 0 74 11.5t61.5 32t42 49.5t15.5 64v58q-32 8 -75 15.5t-98 7.5q-81 0 -124.5 -32.5t-43.5 -86.5v-2q0 -28 12 -49.5t32.5 -36.5t47.5 -23t56 -8zM239 605q-9 -8 -15.5 -10.5
t-16.5 -2.5q-13 0 -13 10q0 5 5 12l72 88q7 8 13 13t15 5h8q9 0 15 -5t13 -13l72 -88q5 -7 5 -12q0 -10 -14 -10q-10 0 -17 2.5t-16 10.5l-63 58z" />
    <glyph glyph-name="atilde" unicode="&#xe3;" horiz-adv-x="574" 
d="M248 -12q-36 0 -71 10t-63 30t-45.5 50t-17.5 70v2q0 40 16.5 71t45.5 52t70 32t91 11q54 0 93 -6t76 -16v22q0 78 -44.5 117t-123.5 39q-42 0 -77.5 -9.5t-67.5 -24.5q-6 -3 -11 -3q-9 0 -16 7t-7 16t5 14.5t9 7.5q39 17 79 27.5t89 10.5q105 0 161 -56q52 -52 52 -144
v-297q0 -25 -24 -25t-24 25v64q-13 -18 -31.5 -35.5t-42.5 -31t-54.5 -22t-66.5 -8.5zM251 34q39 0 74 11.5t61.5 32t42 49.5t15.5 64v58q-32 8 -75 15.5t-98 7.5q-81 0 -124.5 -32.5t-43.5 -86.5v-2q0 -28 12 -49.5t32.5 -36.5t47.5 -23t56 -8zM239 614q-4 -5 -7.5 -8.5
t-8.5 -2.5q-16 1 -18 17q1 1 1 7q14 30 28 44t36 13q12 -1 26 -6.5t28 -12.5l10 -5q10 -7 20 -8q22 0 33 23q3 3 7.5 7t9.5 4q18 -2 18 -19q-1 -1 -1 -2t-0.5 -1.5t-0.5 -1.5q-22 -59 -67 -58q-12 1 -26 6t-26 13q-2 0 -5.5 2.5t-4.5 3.5q-5 2 -10 4.5t-11 2.5
q-9 0 -16.5 -4.5t-14.5 -17.5zM240 615q0 -1 -1 -1z" />
    <glyph glyph-name="adieresis" unicode="&#xe4;" horiz-adv-x="574" 
d="M248 -12q-36 0 -71 10t-63 30t-45.5 50t-17.5 70v2q0 40 16.5 71t45.5 52t70 32t91 11q54 0 93 -6t76 -16v22q0 78 -44.5 117t-123.5 39q-42 0 -77.5 -9.5t-67.5 -24.5q-6 -3 -11 -3q-9 0 -16 7t-7 16t5 14.5t9 7.5q39 17 79 27.5t89 10.5q105 0 161 -56q52 -52 52 -144
v-297q0 -25 -24 -25t-24 25v64q-13 -18 -31.5 -35.5t-42.5 -31t-54.5 -22t-66.5 -8.5zM251 34q39 0 74 11.5t61.5 32t42 49.5t15.5 64v58q-32 8 -75 15.5t-98 7.5q-81 0 -124.5 -32.5t-43.5 -86.5v-2q0 -28 12 -49.5t32.5 -36.5t47.5 -23t56 -8zM369 679q15 0 25 -9.5
t10 -24.5v-20q0 -15 -10 -24.5t-25 -9.5t-25 9.5t-10 24.5v20q0 15 10 24.5t25 9.5zM205 679q15 0 25 -9.5t10 -24.5v-20q0 -15 -10 -24.5t-25 -9.5t-25 9.5t-10 24.5v20q0 15 10 24.5t25 9.5z" />
    <glyph glyph-name="aring" unicode="&#xe5;" horiz-adv-x="574" 
d="M248 -12q-36 0 -71 10t-63 30t-45.5 50t-17.5 70v2q0 40 16.5 71t45.5 52t70 32t91 11q54 0 93 -6t76 -16v22q0 78 -44.5 117t-123.5 39q-42 0 -77.5 -9.5t-67.5 -24.5q-6 -3 -11 -3q-9 0 -16 7t-7 16t5 14.5t9 7.5q39 17 79 27.5t89 10.5q105 0 161 -56q52 -52 52 -144
v-297q0 -25 -24 -25t-24 25v64q-13 -18 -31.5 -35.5t-42.5 -31t-54.5 -22t-66.5 -8.5zM251 34q39 0 74 11.5t61.5 32t42 49.5t15.5 64v58q-32 8 -75 15.5t-98 7.5q-81 0 -124.5 -32.5t-43.5 -86.5v-2q0 -28 12 -49.5t32.5 -36.5t47.5 -23t56 -8zM287 593q-20 0 -37.5 7.5
t-31 20t-21.5 29.5t-8 36v2q0 19 8 36t21.5 29.5t31 20t37.5 7.5q19 0 37 -7.5t31.5 -20t21.5 -29.5t8 -36v-2q0 -19 -8 -36t-21.5 -29.5t-31.5 -20t-37 -7.5zM287 625q25 0 43.5 18t18.5 43v2q0 25 -18 43t-44 18t-44 -18t-18 -43v-2q0 -25 18.5 -43t43.5 -18z" />
    <glyph glyph-name="ae" unicode="&#xe6;" horiz-adv-x="954" 
d="M851 279q-3 39 -15.5 74.5t-35 63t-55.5 44t-77 16.5q-38 0 -71 -15t-58 -41.5t-40.5 -63t-18.5 -78.5h371zM246 34q66 0 116.5 30.5t87.5 76.5q-10 25 -15.5 52t-6.5 57q-32 8 -72.5 15t-89.5 7q-79 0 -121 -32.5t-42 -86.5v-2q0 -28 11.5 -49.5t31 -36.5t45.5 -23
t55 -8zM877 71q-38 -38 -84 -60.5t-115 -22.5q-63 0 -117.5 29t-88.5 83q-40 -46 -96.5 -79t-132.5 -33q-35 0 -69.5 10t-61.5 30t-44 50t-17 70v2q0 40 16 71t45 52t69 32t88 11q51 0 87 -6t73 -16v22q0 78 -41.5 117t-119.5 39q-38 0 -71.5 -9t-66.5 -25q-6 -3 -11 -3
q-9 0 -16 7t-7 16t5 14.5t9 7.5q39 18 77.5 28t83.5 10q76 0 126 -32t67 -96q30 60 83.5 96t122.5 36q54 0 97 -20.5t73.5 -56.5t47 -84t16.5 -103q0 -9 -7.5 -16t-16.5 -7h-400q3 -48 20.5 -85t45 -63t62.5 -39.5t72 -13.5q55 0 94.5 20t70.5 50q7 7 16 7q10 0 17 -6.5
t7 -16.5q0 -9 -8 -17z" />
    <glyph glyph-name="ccedilla" unicode="&#xe7;" horiz-adv-x="571" 
d="M515 76q-37 -38 -81 -61.5t-104 -26.5l-54 -110q-5 -9 -10 -14.5t-16 -5.5q-12 0 -23 8t-11 16q0 5 5 15l63 93q-49 6 -90.5 29.5t-71.5 59t-47 80.5t-17 94v2q0 54 20 102t55 85t82.5 58.5t102.5 21.5q66 0 112 -24.5t80 -56.5q7 -7 7 -18q0 -25 -25 -25q-11 0 -17 6
q-31 29 -68.5 50.5t-89.5 21.5q-44 0 -81.5 -17t-65 -46.5t-43.5 -69.5t-16 -86v-2q0 -47 16.5 -87t45 -70t66.5 -47t82 -17q51 0 90 21t70 52q8 8 16 8q9 0 16.5 -7.5t7.5 -16.5t-6 -15z" />
    <glyph glyph-name="egrave" unicode="&#xe8;" horiz-adv-x="584" 
d="M481 279q-3 39 -15.5 74.5t-35 63t-55.5 44t-77 16.5q-38 0 -71 -15t-58 -41.5t-40.5 -63t-18.5 -78.5h371zM507 71q-38 -38 -84 -60.5t-115 -22.5q-50 0 -95.5 19t-80 54t-54.5 84t-20 109v2q0 55 18.5 103.5t51 84.5t76.5 57t96 21q54 0 97 -20.5t73.5 -56.5t47 -84
t16.5 -103q0 -9 -7.5 -16t-16.5 -7h-400q3 -48 20.5 -85t45 -63t62.5 -39.5t72 -13.5q55 0 94.5 20t70.5 50q7 7 16 7q10 0 17 -6.5t7 -16.5q0 -9 -8 -17zM347 592q-10 0 -16.5 2.5t-15.5 10.5l-80 77q-11 11 -11 18q0 8 14 15.5t28 7.5q16 0 28 -18l62 -93q4 -5 4 -11
q0 -9 -13 -9z" />
    <glyph glyph-name="eacute" unicode="&#xe9;" horiz-adv-x="584" 
d="M481 279q-3 39 -15.5 74.5t-35 63t-55.5 44t-77 16.5q-38 0 -71 -15t-58 -41.5t-40.5 -63t-18.5 -78.5h371zM507 71q-38 -38 -84 -60.5t-115 -22.5q-50 0 -95.5 19t-80 54t-54.5 84t-20 109v2q0 55 18.5 103.5t51 84.5t76.5 57t96 21q54 0 97 -20.5t73.5 -56.5t47 -84
t16.5 -103q0 -9 -7.5 -16t-16.5 -7h-400q3 -48 20.5 -85t45 -63t62.5 -39.5t72 -13.5q55 0 94.5 20t70.5 50q7 7 16 7q10 0 17 -6.5t7 -16.5q0 -9 -8 -17zM305 592q-13 0 -13 9q0 6 4 11l62 93q12 18 28 18q14 0 28 -7.5t14 -15.5q0 -7 -11 -18l-80 -77q-9 -8 -15.5 -10.5
t-16.5 -2.5z" />
    <glyph glyph-name="ecircumflex" unicode="&#xea;" horiz-adv-x="584" 
d="M481 279q-3 39 -15.5 74.5t-35 63t-55.5 44t-77 16.5q-38 0 -71 -15t-58 -41.5t-40.5 -63t-18.5 -78.5h371zM507 71q-38 -38 -84 -60.5t-115 -22.5q-50 0 -95.5 19t-80 54t-54.5 84t-20 109v2q0 55 18.5 103.5t51 84.5t76.5 57t96 21q54 0 97 -20.5t73.5 -56.5t47 -84
t16.5 -103q0 -9 -7.5 -16t-16.5 -7h-400q3 -48 20.5 -85t45 -63t62.5 -39.5t72 -13.5q55 0 94.5 20t70.5 50q7 7 16 7q10 0 17 -6.5t7 -16.5q0 -9 -8 -17zM246 605q-9 -8 -15.5 -10.5t-16.5 -2.5q-13 0 -13 10q0 5 5 12l72 88q7 8 13 13t15 5h8q9 0 15 -5t13 -13l72 -88
q5 -7 5 -12q0 -10 -14 -10q-10 0 -17 2.5t-16 10.5l-63 58z" />
    <glyph glyph-name="edieresis" unicode="&#xeb;" horiz-adv-x="584" 
d="M481 279q-3 39 -15.5 74.5t-35 63t-55.5 44t-77 16.5q-38 0 -71 -15t-58 -41.5t-40.5 -63t-18.5 -78.5h371zM507 71q-38 -38 -84 -60.5t-115 -22.5q-50 0 -95.5 19t-80 54t-54.5 84t-20 109v2q0 55 18.5 103.5t51 84.5t76.5 57t96 21q54 0 97 -20.5t73.5 -56.5t47 -84
t16.5 -103q0 -9 -7.5 -16t-16.5 -7h-400q3 -48 20.5 -85t45 -63t62.5 -39.5t72 -13.5q55 0 94.5 20t70.5 50q7 7 16 7q10 0 17 -6.5t7 -16.5q0 -9 -8 -17zM382 679q15 0 25 -9.5t10 -24.5v-20q0 -15 -10 -24.5t-25 -9.5t-25 9.5t-10 24.5v20q0 15 10 24.5t25 9.5zM218 679
q15 0 25 -9.5t10 -24.5v-20q0 -15 -10 -24.5t-25 -9.5t-25 9.5t-10 24.5v20q0 15 10 24.5t25 9.5z" />
    <glyph glyph-name="igrave" unicode="&#xec;" horiz-adv-x="249" 
d="M100 489q0 25 24 25q25 0 25 -25v-468q0 -25 -24 -25q-25 0 -25 25v468zM151 592q-10 0 -16.5 2.5t-15.5 10.5l-80 77q-11 11 -11 18q0 8 14 15.5t28 7.5q16 0 28 -18l62 -93q4 -5 4 -11q0 -9 -13 -9z" />
    <glyph glyph-name="iacute" unicode="&#xed;" horiz-adv-x="249" 
d="M100 489q0 25 24 25q25 0 25 -25v-468q0 -25 -24 -25q-25 0 -25 25v468zM100 592q-13 0 -13 9q0 6 4 11l62 93q12 18 28 18q14 0 28 -7.5t14 -15.5q0 -7 -11 -18l-80 -77q-9 -8 -15.5 -10.5t-16.5 -2.5z" />
    <glyph glyph-name="icircumflex" unicode="&#xee;" horiz-adv-x="249" 
d="M100 489q0 25 24 25q25 0 25 -25v-468q0 -25 -24 -25q-25 0 -25 25v468zM60 605q-9 -8 -15.5 -10.5t-16.5 -2.5q-13 0 -13 10q0 5 5 12l72 88q7 8 13 13t15 5h8q9 0 15 -5t13 -13l72 -88q5 -7 5 -12q0 -10 -14 -10q-10 0 -17 2.5t-16 10.5l-63 58z" />
    <glyph glyph-name="idieresis" unicode="&#xef;" horiz-adv-x="249" 
d="M100 489q0 25 24 25q25 0 25 -25v-468q0 -25 -24 -25q-25 0 -25 25v468zM206 679q15 0 25 -9.5t10 -24.5v-20q0 -15 -10 -24.5t-25 -9.5t-25 9.5t-10 24.5v20q0 15 10 24.5t25 9.5zM42 679q15 0 25 -9.5t10 -24.5v-20q0 -15 -10 -24.5t-25 -9.5t-25 9.5t-10 24.5v20
q0 15 10 24.5t25 9.5z" />
    <glyph glyph-name="eth" unicode="&#xf0;" horiz-adv-x="628" 
d="M328 631l-122 -62q-6 -3 -12 -3q-9 0 -15.5 7t-6.5 16q0 12 14 20l117 57l-18 26q-6 7 -6 18q0 10 7 17t18 7q8 0 13.5 -4t9.5 -9l21 -32l86 44q6 3 12 3q9 0 15.5 -7t6.5 -16q0 -12 -14 -20l-81 -40l108 -161q20 -29 36 -57.5t27.5 -58t17.5 -61t6 -67.5
q0 -52 -18.5 -99t-52 -83t-81.5 -57t-107 -21q-54 0 -100 20.5t-79.5 55.5t-52.5 81.5t-19 98.5q0 54 20 99t53 76.5t76.5 49t90.5 17.5q61 0 102.5 -18.5t74.5 -44.5zM515 243q0 40 -16 76.5t-44.5 63.5t-67 43t-83.5 16t-80.5 -15.5t-60.5 -42.5t-38.5 -64t-13.5 -79
q0 -40 15 -77.5t42 -66t64.5 -46t81.5 -17.5q45 0 82 17t63.5 46t41 66.5t14.5 79.5z" />
    <glyph glyph-name="ntilde" unicode="&#xf1;" horiz-adv-x="613" 
d="M93 489q0 25 24 25q25 0 25 -25v-74q26 45 70 76t114 31q48 0 86 -15.5t64.5 -43.5t40 -66.5t13.5 -84.5v-291q0 -25 -24 -25q-25 0 -25 25v282q0 79 -42 126.5t-120 47.5q-38 0 -70 -13.5t-56 -37.5t-37.5 -57.5t-13.5 -73.5v-274q0 -25 -24 -25q-25 0 -25 25v468z
M205 598q-2 -5 -6 -9.5t-12 -4.5q-18 0 -18 17q0 4 2 12q14 45 33 60t46 15q14 0 31 -6.5t34 -14t33.5 -14t29.5 -6.5q17 0 26.5 9t18.5 29q2 5 6.5 9.5t11.5 4.5q18 0 18 -17q0 -4 -2 -12q-14 -45 -33 -60t-46 -15q-14 0 -31 6.5t-34 14t-33.5 14t-29.5 6.5q-17 0 -26.5 -9
t-18.5 -29z" />
    <glyph glyph-name="ograve" unicode="&#xf2;" horiz-adv-x="640" 
d="M319 -12q-57 0 -104.5 21.5t-82.5 57.5t-54.5 84t-19.5 102v2q0 54 19.5 102t55 85t83.5 58.5t105 21.5t104.5 -21.5t82.5 -57.5t54.5 -84t19.5 -102v-2q0 -54 -19.5 -102t-55 -85t-83.5 -58.5t-105 -21.5zM321 34q45 0 83.5 17.5t66 47t43 69.5t15.5 85v2q0 46 -16 86.5
t-44.5 70.5t-67 47t-82.5 17q-45 0 -83.5 -17.5t-66 -47t-43 -69.5t-15.5 -85v-2q0 -47 16 -87t44.5 -70t67 -47t82.5 -17zM366 592q-10 0 -16.5 2.5t-15.5 10.5l-80 77q-11 11 -11 18q0 8 14 15.5t28 7.5q16 0 28 -18l62 -93q4 -5 4 -11q0 -9 -13 -9z" />
    <glyph glyph-name="oacute" unicode="&#xf3;" horiz-adv-x="640" 
d="M319 -12q-57 0 -104.5 21.5t-82.5 57.5t-54.5 84t-19.5 102v2q0 54 19.5 102t55 85t83.5 58.5t105 21.5t104.5 -21.5t82.5 -57.5t54.5 -84t19.5 -102v-2q0 -54 -19.5 -102t-55 -85t-83.5 -58.5t-105 -21.5zM321 34q45 0 83.5 17.5t66 47t43 69.5t15.5 85v2q0 46 -16 86.5
t-44.5 70.5t-67 47t-82.5 17q-45 0 -83.5 -17.5t-66 -47t-43 -69.5t-15.5 -85v-2q0 -47 16 -87t44.5 -70t67 -47t82.5 -17zM322 592q-13 0 -13 9q0 6 4 11l62 93q12 18 28 18q14 0 28 -7.5t14 -15.5q0 -7 -11 -18l-80 -77q-9 -8 -15.5 -10.5t-16.5 -2.5z" />
    <glyph glyph-name="ocircumflex" unicode="&#xf4;" horiz-adv-x="640" 
d="M319 -12q-57 0 -104.5 21.5t-82.5 57.5t-54.5 84t-19.5 102v2q0 54 19.5 102t55 85t83.5 58.5t105 21.5t104.5 -21.5t82.5 -57.5t54.5 -84t19.5 -102v-2q0 -54 -19.5 -102t-55 -85t-83.5 -58.5t-105 -21.5zM321 34q45 0 83.5 17.5t66 47t43 69.5t15.5 85v2q0 46 -16 86.5
t-44.5 70.5t-67 47t-82.5 17q-45 0 -83.5 -17.5t-66 -47t-43 -69.5t-15.5 -85v-2q0 -47 16 -87t44.5 -70t67 -47t82.5 -17zM258 605q-9 -8 -15.5 -10.5t-16.5 -2.5q-13 0 -13 10q0 5 5 12l72 88q7 8 13 13t15 5h8q9 0 15 -5t13 -13l72 -88q5 -7 5 -12q0 -10 -14 -10
q-10 0 -17 2.5t-16 10.5l-63 58z" />
    <glyph glyph-name="otilde" unicode="&#xf5;" horiz-adv-x="640" 
d="M319 -12q-57 0 -104.5 21.5t-82.5 57.5t-54.5 84t-19.5 102v2q0 54 19.5 102t55 85t83.5 58.5t105 21.5t104.5 -21.5t82.5 -57.5t54.5 -84t19.5 -102v-2q0 -54 -19.5 -102t-55 -85t-83.5 -58.5t-105 -21.5zM321 34q45 0 83.5 17.5t66 47t43 69.5t15.5 85v2q0 46 -16 86.5
t-44.5 70.5t-67 47t-82.5 17q-45 0 -83.5 -17.5t-66 -47t-43 -69.5t-15.5 -85v-2q0 -47 16 -87t44.5 -70t67 -47t82.5 -17zM268 614q-4 -5 -7.5 -8.5t-8.5 -2.5q-16 1 -18 17q1 1 1 7q14 30 28 44t36 13q12 -1 26 -6.5t28 -12.5l10 -5q10 -7 20 -8q22 0 33 23q3 3 7.5 7
t9.5 4q18 -2 18 -19q-1 -1 -1 -2t-0.5 -1.5t-0.5 -1.5q-22 -59 -67 -58q-12 1 -26 6t-26 13q-2 0 -5.5 2.5t-4.5 3.5q-5 2 -10 4.5t-11 2.5q-9 0 -16.5 -4.5t-14.5 -17.5zM269 615q0 -1 -1 -1z" />
    <glyph glyph-name="odieresis" unicode="&#xf6;" horiz-adv-x="640" 
d="M319 -12q-57 0 -104.5 21.5t-82.5 57.5t-54.5 84t-19.5 102v2q0 54 19.5 102t55 85t83.5 58.5t105 21.5t104.5 -21.5t82.5 -57.5t54.5 -84t19.5 -102v-2q0 -54 -19.5 -102t-55 -85t-83.5 -58.5t-105 -21.5zM321 34q45 0 83.5 17.5t66 47t43 69.5t15.5 85v2q0 46 -16 86.5
t-44.5 70.5t-67 47t-82.5 17q-45 0 -83.5 -17.5t-66 -47t-43 -69.5t-15.5 -85v-2q0 -47 16 -87t44.5 -70t67 -47t82.5 -17zM402 679q15 0 25 -9.5t10 -24.5v-20q0 -15 -10 -24.5t-25 -9.5t-25 9.5t-10 24.5v20q0 15 10 24.5t25 9.5zM238 679q15 0 25 -9.5t10 -24.5v-20
q0 -15 -10 -24.5t-25 -9.5t-25 9.5t-10 24.5v20q0 15 10 24.5t25 9.5z" />
    <glyph glyph-name="divide" unicode="&#xf7;" horiz-adv-x="620" 
d="M88 328q-10 0 -17 7t-7 17t7 17t17 7h444q10 0 17 -7t7 -17t-7 -17t-17 -7h-444zM310 593q17 0 28.5 -11.5t11.5 -28.5v-17q0 -17 -11.5 -28.5t-28.5 -11.5t-28.5 11.5t-11.5 28.5v17q0 17 11.5 28.5t28.5 11.5zM310 208q17 0 28.5 -11.5t11.5 -28.5v-17
q0 -17 -11.5 -28.5t-28.5 -11.5t-28.5 11.5t-11.5 28.5v17q0 17 11.5 28.5t28.5 11.5z" />
    <glyph glyph-name="oslash" unicode="&#xf8;" horiz-adv-x="640" 
d="M319 -12q-49 0 -91.5 16t-75.5 44l-48 -49q-8 -8 -18 -8q-8 0 -14 5.5t-6 13.5q0 9 6 15l50 52q-30 36 -47 80.5t-17 95.5v2q0 54 19.5 102t55 85t83.5 58.5t105 21.5q49 0 91.5 -16t75.5 -45l48 52q8 8 18 8q8 0 14 -5.5t6 -13.5q0 -9 -6 -15l-51 -54q31 -35 48 -80
t17 -96v-2q0 -54 -19.5 -102t-55 -85t-83.5 -58.5t-105 -21.5zM321 34q45 0 83.5 17.5t66 47t43 69.5t15.5 85v2q0 81 -48 141l-297 -310q28 -25 62.5 -38.5t74.5 -13.5zM111 255q0 -82 47 -141l298 309q-28 25 -62.5 39t-74.5 14q-45 0 -83.5 -17.5t-66 -47t-43 -69.5
t-15.5 -85v-2z" />
    <glyph glyph-name="ugrave" unicode="&#xf9;" horiz-adv-x="613" 
d="M520 21q0 -25 -24 -25q-25 0 -25 25v74q-26 -45 -70 -76t-114 -31q-48 0 -86 15.5t-64.5 43.5t-40 66.5t-13.5 84.5v291q0 25 24 25q25 0 25 -25v-282q0 -79 42 -126.5t120 -47.5q37 0 69.5 13.5t56.5 37.5t37.5 57.5t13.5 73.5v274q0 25 24 25q25 0 25 -25v-468z
M325 592q-10 0 -16.5 2.5t-15.5 10.5l-80 77q-11 11 -11 18q0 8 14 15.5t28 7.5q16 0 28 -18l62 -93q4 -5 4 -11q0 -9 -13 -9z" />
    <glyph glyph-name="uacute" unicode="&#xfa;" horiz-adv-x="613" 
d="M520 21q0 -25 -24 -25q-25 0 -25 25v74q-26 -45 -70 -76t-114 -31q-48 0 -86 15.5t-64.5 43.5t-40 66.5t-13.5 84.5v291q0 25 24 25q25 0 25 -25v-282q0 -79 42 -126.5t120 -47.5q37 0 69.5 13.5t56.5 37.5t37.5 57.5t13.5 73.5v274q0 25 24 25q25 0 25 -25v-468z
M299 592q-13 0 -13 9q0 6 4 11l62 93q12 18 28 18q14 0 28 -7.5t14 -15.5q0 -7 -11 -18l-80 -77q-9 -8 -15.5 -10.5t-16.5 -2.5z" />
    <glyph glyph-name="ucircumflex" unicode="&#xfb;" horiz-adv-x="613" 
d="M520 21q0 -25 -24 -25q-25 0 -25 25v74q-26 -45 -70 -76t-114 -31q-48 0 -86 15.5t-64.5 43.5t-40 66.5t-13.5 84.5v291q0 25 24 25q25 0 25 -25v-282q0 -79 42 -126.5t120 -47.5q37 0 69.5 13.5t56.5 37.5t37.5 57.5t13.5 73.5v274q0 25 24 25q25 0 25 -25v-468z
M237 605q-9 -8 -15.5 -10.5t-16.5 -2.5q-13 0 -13 10q0 5 5 12l72 88q7 8 13 13t15 5h8q9 0 15 -5t13 -13l72 -88q5 -7 5 -12q0 -10 -14 -10q-10 0 -17 2.5t-16 10.5l-63 58z" />
    <glyph glyph-name="udieresis" unicode="&#xfc;" horiz-adv-x="613" 
d="M520 21q0 -25 -24 -25q-25 0 -25 25v74q-26 -45 -70 -76t-114 -31q-48 0 -86 15.5t-64.5 43.5t-40 66.5t-13.5 84.5v291q0 25 24 25q25 0 25 -25v-282q0 -79 42 -126.5t120 -47.5q37 0 69.5 13.5t56.5 37.5t37.5 57.5t13.5 73.5v274q0 25 24 25q25 0 25 -25v-468z
M383 679q15 0 25 -9.5t10 -24.5v-20q0 -15 -10 -24.5t-25 -9.5t-25 9.5t-10 24.5v20q0 15 10 24.5t25 9.5zM219 679q15 0 25 -9.5t10 -24.5v-20q0 -15 -10 -24.5t-25 -9.5t-25 9.5t-10 24.5v20q0 15 10 24.5t25 9.5z" />
    <glyph glyph-name="yacute" unicode="&#xfd;" horiz-adv-x="588" 
d="M155 -163q-26 0 -46.5 4t-40.5 12q-14 5 -14 21q0 10 6.5 16.5t16.5 6.5q7 0 16 -4q12 -5 27 -7.5t38 -2.5q42 0 70 28t53 85l3 7l-228 471q-4 9 -4 15q0 11 7.5 18t18.5 7t16.5 -6t9.5 -14l204 -440l178 442q7 18 24 18q25 0 25 -25q0 -6 -3 -13l-207 -494
q-34 -80 -74.5 -112.5t-95.5 -32.5zM286 592q-13 0 -13 9q0 6 4 11l62 93q12 18 28 18q14 0 28 -7.5t14 -15.5q0 -7 -11 -18l-80 -77q-9 -8 -15.5 -10.5t-16.5 -2.5z" />
    <glyph glyph-name="thorn" unicode="&#xfe;" 
d="M93 709q0 25 24 25q25 0 25 -25v-313q16 25 36.5 48t46.5 40t57.5 27.5t69.5 10.5q46 0 90.5 -18t79.5 -52t56.5 -83.5t21.5 -111.5v-2q0 -62 -21.5 -111.5t-56.5 -84t-79.5 -53t-90.5 -18.5q-38 0 -69.5 10t-57.5 27t-46.5 39t-36.5 46v-249q0 -25 -24 -25q-25 0 -25 25
v848zM347 35q42 0 78.5 15t63.5 43t42.5 68.5t15.5 91.5v2q0 50 -16 91t-43.5 69.5t-64 44t-76.5 15.5t-77.5 -16t-66.5 -45t-46.5 -69t-17.5 -89v-2q0 -49 17.5 -89.5t46.5 -69t66.5 -44.5t77.5 -16z" />
    <glyph glyph-name="ydieresis" unicode="&#xff;" horiz-adv-x="588" 
d="M155 -163q-26 0 -46.5 4t-40.5 12q-14 5 -14 21q0 10 6.5 16.5t16.5 6.5q7 0 16 -4q12 -5 27 -7.5t38 -2.5q42 0 70 28t53 85l3 7l-228 471q-4 9 -4 15q0 11 7.5 18t18.5 7t16.5 -6t9.5 -14l204 -440l178 442q7 18 24 18q25 0 25 -25q0 -6 -3 -13l-207 -494
q-34 -80 -74.5 -112.5t-95.5 -32.5zM380 679q15 0 25 -9.5t10 -24.5v-20q0 -15 -10 -24.5t-25 -9.5t-25 9.5t-10 24.5v20q0 15 10 24.5t25 9.5zM216 679q15 0 25 -9.5t10 -24.5v-20q0 -15 -10 -24.5t-25 -9.5t-25 9.5t-10 24.5v20q0 15 10 24.5t25 9.5z" />
    <glyph glyph-name="Amacron" unicode="&#x100;" horiz-adv-x="790" 
d="M56 18q0 9 4 16l299 648q5 11 13 18t22 7h2q14 0 22 -7t13 -18l298 -646q4 -7 4 -16q0 -10 -7 -17t-18 -7q-9 0 -15.5 6t-10.5 14l-82 180h-413l-82 -181q-7 -19 -25 -19q-10 0 -17 6.5t-7 15.5zM578 243l-184 405l-185 -405h369zM262 801q-10 0 -17 7t-7 17t7 17t17 7
h264q10 0 17 -7t7 -17t-7 -17t-17 -7h-264z" />
    <glyph glyph-name="amacron" unicode="&#x101;" horiz-adv-x="574" 
d="M248 -12q-36 0 -71 10t-63 30t-45.5 50t-17.5 70v2q0 40 16.5 71t45.5 52t70 32t91 11q54 0 93 -6t76 -16v22q0 78 -44.5 117t-123.5 39q-42 0 -77.5 -9.5t-67.5 -24.5q-6 -3 -11 -3q-9 0 -16 7t-7 16t5 14.5t9 7.5q39 17 79 27.5t89 10.5q105 0 161 -56q52 -52 52 -144
v-297q0 -25 -24 -25t-24 25v64q-13 -18 -31.5 -35.5t-42.5 -31t-54.5 -22t-66.5 -8.5zM251 34q39 0 74 11.5t61.5 32t42 49.5t15.5 64v58q-32 8 -75 15.5t-98 7.5q-81 0 -124.5 -32.5t-43.5 -86.5v-2q0 -28 12 -49.5t32.5 -36.5t47.5 -23t56 -8zM155 621q-10 0 -17 7t-7 17
t7 17t17 7h264q10 0 17 -7t7 -17t-7 -17t-17 -7h-264z" />
    <glyph glyph-name="Abreve" unicode="&#x102;" horiz-adv-x="790" 
d="M56 18q0 9 4 16l299 648q5 11 13 18t22 7h2q14 0 22 -7t13 -18l298 -646q4 -7 4 -16q0 -10 -7 -17t-18 -7q-9 0 -15.5 6t-10.5 14l-82 180h-413l-82 -181q-7 -19 -25 -19q-10 0 -17 6.5t-7 15.5zM578 243l-184 405l-185 -405h369zM394 772q-32 0 -56.5 14t-38.5 38
q-4 8 -7.5 19t-3.5 16q0 23 20 23q8 0 13 -5.5t7 -11.5q6 -18 22 -31.5t44 -13.5q26 0 42.5 13.5t23.5 31.5q2 6 7.5 11.5t13.5 5.5q20 0 20 -23q0 -5 -3.5 -16t-7.5 -19q-14 -24 -39 -38t-57 -14z" />
    <glyph glyph-name="abreve" unicode="&#x103;" horiz-adv-x="574" 
d="M248 -12q-36 0 -71 10t-63 30t-45.5 50t-17.5 70v2q0 40 16.5 71t45.5 52t70 32t91 11q54 0 93 -6t76 -16v22q0 78 -44.5 117t-123.5 39q-42 0 -77.5 -9.5t-67.5 -24.5q-6 -3 -11 -3q-9 0 -16 7t-7 16t5 14.5t9 7.5q39 17 79 27.5t89 10.5q105 0 161 -56q52 -52 52 -144
v-297q0 -25 -24 -25t-24 25v64q-13 -18 -31.5 -35.5t-42.5 -31t-54.5 -22t-66.5 -8.5zM251 34q39 0 74 11.5t61.5 32t42 49.5t15.5 64v58q-32 8 -75 15.5t-98 7.5q-81 0 -124.5 -32.5t-43.5 -86.5v-2q0 -28 12 -49.5t32.5 -36.5t47.5 -23t56 -8zM317 592q-32 0 -56.5 14
t-38.5 38q-4 8 -7.5 19t-3.5 16q0 23 20 23q8 0 13 -5.5t7 -11.5q6 -18 22 -31.5t44 -13.5q26 0 42.5 13.5t23.5 31.5q2 6 7.5 11.5t13.5 5.5q20 0 20 -23q0 -5 -3.5 -16t-7.5 -19q-14 -24 -39 -38t-57 -14z" />
    <glyph glyph-name="Aogonek" unicode="&#x104;" horiz-adv-x="790" 
d="M56 18q0 9 4 16l299 648q5 11 13 18t22 7h2q14 0 22 -7t13 -18l301 -652q4 -7 4 -16q0 -5 -2 -10t-10 -11q-26 -21 -37 -37t-11 -35q0 -21 14.5 -31t38.5 -15q16 -3 21.5 -7.5t5.5 -12.5q0 -18 -20 -18q-7 0 -25 2.5t-37 10.5t-33.5 23.5t-14.5 41.5t15.5 47.5t44.5 44.5
l-86 189h-413l-82 -181q-7 -19 -25 -19q-10 0 -17 6.5t-7 15.5zM578 243l-184 405l-185 -405h369z" />
    <glyph glyph-name="aogonek" unicode="&#x105;" horiz-adv-x="574" 
d="M381 -85q0 26 16 48.5t46 45.5v76q-13 -18 -31.5 -35.5t-42.5 -31t-54.5 -22t-66.5 -8.5t-71 10t-63 30t-45.5 50t-17.5 70v2q0 40 16.5 71t45.5 52t70 32t91 11q54 0 93 -6t76 -16v22q0 78 -44.5 117t-123.5 39q-42 0 -77.5 -9.5t-67.5 -24.5q-6 -3 -11 -3q-9 0 -16 7
t-7 16t5 14.5t9 7.5q39 17 79 27.5t89 10.5q105 0 161 -56q52 -52 52 -144v-301q0 -8 -3 -13.5t-11 -12.5q-23 -20 -34.5 -35t-11.5 -35q0 -21 14.5 -31t38.5 -15q16 -3 21.5 -7.5t5.5 -12.5q0 -18 -20 -18q-7 0 -25 2.5t-37 10.5t-33.5 23.5t-14.5 41.5zM251 34
q39 0 74 11.5t61.5 32t42 49.5t15.5 64v58q-32 8 -75 15.5t-98 7.5q-81 0 -124.5 -32.5t-43.5 -86.5v-2q0 -28 12 -49.5t32.5 -36.5t47.5 -23t56 -8z" />
    <glyph glyph-name="Cacute" unicode="&#x106;" horiz-adv-x="738" 
d="M421 -12q-75 0 -139 28t-110.5 76.5t-72.5 114.5t-26 141v2q0 74 26.5 140t73 115.5t110.5 78t140 28.5q44 0 80 -7t66.5 -20t57.5 -31t53 -40q4 -4 7 -9t3 -12q0 -11 -8 -18.5t-19 -7.5t-18 7q-44 40 -96.5 65.5t-126.5 25.5q-63 0 -117 -24t-93.5 -66.5t-62 -99.5
t-22.5 -123v-2q0 -66 23 -123.5t62.5 -100t93.5 -67t117 -24.5q72 0 125 24.5t103 72.5q8 8 18 8t17.5 -7.5t7.5 -17.5t-8 -18q-54 -50 -115.5 -79.5t-149.5 -29.5zM417 772q-13 0 -13 9q0 6 4 11l62 93q12 18 28 18q14 0 28 -7.5t14 -15.5q0 -7 -11 -18l-80 -77
q-9 -8 -15.5 -10.5t-16.5 -2.5z" />
    <glyph glyph-name="cacute" unicode="&#x107;" horiz-adv-x="571" 
d="M318 -12q-55 0 -102.5 21.5t-82.5 57.5t-55 84t-20 102v2q0 54 20 102t55 85t82.5 58.5t102.5 21.5q66 0 112 -24.5t80 -56.5q7 -7 7 -18q0 -25 -25 -25q-11 0 -17 6q-31 29 -68.5 50.5t-89.5 21.5q-44 0 -81.5 -17t-65 -46.5t-43.5 -69.5t-16 -86v-2q0 -47 16.5 -87
t45 -70t66.5 -47t82 -17q51 0 90 21t70 52q8 8 16 8q9 0 16.5 -7.5t7.5 -16.5t-6 -15q-38 -39 -84.5 -63.5t-112.5 -24.5zM312 592q-13 0 -13 9q0 6 4 11l62 93q12 18 28 18q14 0 28 -7.5t14 -15.5q0 -7 -11 -18l-80 -77q-9 -8 -15.5 -10.5t-16.5 -2.5z" />
    <glyph glyph-name="Cdotaccent" unicode="&#x10a;" horiz-adv-x="738" 
d="M421 -12q-75 0 -139 28t-110.5 76.5t-72.5 114.5t-26 141v2q0 74 26.5 140t73 115.5t110.5 78t140 28.5q44 0 80 -7t66.5 -20t57.5 -31t53 -40q4 -4 7 -9t3 -12q0 -11 -8 -18.5t-19 -7.5t-18 7q-44 40 -96.5 65.5t-126.5 25.5q-63 0 -117 -24t-93.5 -66.5t-62 -99.5
t-22.5 -123v-2q0 -66 23 -123.5t62.5 -100t93.5 -67t117 -24.5q72 0 125 24.5t103 72.5q8 8 18 8t17.5 -7.5t7.5 -17.5t-8 -18q-54 -50 -115.5 -79.5t-149.5 -29.5zM454 806q0 -16 -10 -25.5t-26 -9.5t-26 9.5t-10 25.5v19q0 16 10 25.5t26 9.5t26 -9.5t10 -25.5v-19z" />
    <glyph glyph-name="cdotaccent" unicode="&#x10b;" horiz-adv-x="571" 
d="M318 -12q-55 0 -102.5 21.5t-82.5 57.5t-55 84t-20 102v2q0 54 20 102t55 85t82.5 58.5t102.5 21.5q66 0 112 -24.5t80 -56.5q7 -7 7 -18q0 -25 -25 -25q-11 0 -17 6q-31 29 -68.5 50.5t-89.5 21.5q-44 0 -81.5 -17t-65 -46.5t-43.5 -69.5t-16 -86v-2q0 -47 16.5 -87
t45 -70t66.5 -47t82 -17q51 0 90 21t70 52q8 8 16 8q9 0 16.5 -7.5t7.5 -16.5t-6 -15q-38 -39 -84.5 -63.5t-112.5 -24.5zM349 626q0 -16 -10 -25.5t-26 -9.5t-26 9.5t-10 25.5v19q0 16 10 25.5t26 9.5t26 -9.5t10 -25.5v-19z" />
    <glyph glyph-name="Ccaron" unicode="&#x10c;" horiz-adv-x="738" 
d="M421 -12q-75 0 -139 28t-110.5 76.5t-72.5 114.5t-26 141v2q0 74 26.5 140t73 115.5t110.5 78t140 28.5q44 0 80 -7t66.5 -20t57.5 -31t53 -40q4 -4 7 -9t3 -12q0 -11 -8 -18.5t-19 -7.5t-18 7q-44 40 -96.5 65.5t-126.5 25.5q-63 0 -117 -24t-93.5 -66.5t-62 -99.5
t-22.5 -123v-2q0 -66 23 -123.5t62.5 -100t93.5 -67t117 -24.5q72 0 125 24.5t103 72.5q8 8 18 8t17.5 -7.5t7.5 -17.5t-8 -18q-54 -50 -115.5 -79.5t-149.5 -29.5zM482 887q9 8 15.5 10.5t16.5 2.5q13 0 13 -10q0 -5 -5 -12l-72 -88q-7 -8 -13 -13t-15 -5h-8q-9 0 -15 5
t-13 13l-72 88q-5 7 -5 12q0 10 14 10q10 0 17 -2.5t16 -10.5l63 -58z" />
    <glyph glyph-name="ccaron" unicode="&#x10d;" horiz-adv-x="571" 
d="M318 -12q-55 0 -102.5 21.5t-82.5 57.5t-55 84t-20 102v2q0 54 20 102t55 85t82.5 58.5t102.5 21.5q66 0 112 -24.5t80 -56.5q7 -7 7 -18q0 -25 -25 -25q-11 0 -17 6q-31 29 -68.5 50.5t-89.5 21.5q-44 0 -81.5 -17t-65 -46.5t-43.5 -69.5t-16 -86v-2q0 -47 16.5 -87
t45 -70t66.5 -47t82 -17q51 0 90 21t70 52q8 8 16 8q9 0 16.5 -7.5t7.5 -16.5t-6 -15q-38 -39 -84.5 -63.5t-112.5 -24.5zM377 707q9 8 15.5 10.5t16.5 2.5q13 0 13 -10q0 -5 -5 -12l-72 -88q-7 -8 -13 -13t-15 -5h-8q-9 0 -15 5t-13 13l-72 88q-5 7 -5 12q0 10 14 10
q10 0 17 -2.5t16 -10.5l63 -58z" />
    <glyph glyph-name="Dcaron" unicode="&#x10e;" horiz-adv-x="782" 
d="M104 674q0 11 7.5 18.5t18.5 7.5h207q82 0 150.5 -26.5t118 -73.5t76.5 -110.5t27 -137.5v-2q0 -74 -27 -138t-76.5 -111t-118 -74t-150.5 -27h-207q-11 0 -18.5 7.5t-7.5 18.5v648zM337 48q73 0 132 23.5t100 64t63.5 95t22.5 117.5v2q0 62 -22.5 117t-63.5 96t-100 65
t-132 24h-181v-604h181zM439 877q9 8 15.5 10.5t16.5 2.5q13 0 13 -10q0 -5 -5 -12l-72 -88q-7 -8 -13 -13t-15 -5h-8q-9 0 -15 5t-13 13l-72 88q-5 7 -5 12q0 10 14 10q10 0 17 -2.5t16 -10.5l63 -58z" />
    <glyph glyph-name="dcaron" unicode="&#x10f;" 
d="M567 21q0 -25 -24 -25q-25 0 -25 25v93q-17 -25 -37.5 -48t-46 -40t-57 -27.5t-69.5 -10.5q-46 0 -90.5 18t-79.5 52t-56.5 83.5t-21.5 111.5v2q0 62 21.5 111.5t56.5 84t79.5 53t90.5 18.5q38 0 69.5 -10t57.5 -27t46.5 -39t36.5 -46v309q0 25 24 25q25 0 25 -25v-688z
M313 475q-42 0 -78.5 -15t-63.5 -43t-42.5 -68.5t-15.5 -91.5v-2q0 -50 16 -91t43.5 -69.5t63.5 -44t77 -15.5q40 0 77.5 16t66.5 45t46.5 69t17.5 89v2q0 49 -17.5 89.5t-46.5 69t-66.5 44.5t-77.5 16zM649 708q5 26 28 26h13q17 0 17 -17q0 -5 -2 -11t-4 -13l-33 -97
q-6 -18 -17 -18q-7 0 -11.5 4t-2.5 15z" />
    <glyph glyph-name="Dcroat" unicode="&#x110;" horiz-adv-x="812" 
d="M134 360v314q0 11 7.5 18.5t18.5 7.5h207q82 0 150.5 -26.5t118 -73.5t76.5 -110.5t27 -137.5v-2q0 -74 -27 -138t-76.5 -111t-118 -74t-150.5 -27h-207q-11 0 -18.5 7.5t-7.5 18.5v290h-57q-9 0 -15.5 6.5t-6.5 15.5t6.5 15.5t15.5 6.5h57zM186 360h167q9 0 15.5 -6.5
t6.5 -15.5t-6.5 -15.5t-15.5 -6.5h-167v-268h181q73 0 132 23.5t100 64t63.5 95t22.5 117.5v2q0 62 -22.5 117t-63.5 96t-100 65t-132 24h-181v-292z" />
    <glyph glyph-name="dcroat" unicode="&#x111;" 
d="M567 663h52q9 0 15.5 -6.5t6.5 -15.5t-6.5 -15.5t-15.5 -6.5h-52v-598q0 -25 -24 -25q-25 0 -25 25v93q-17 -25 -37.5 -48t-46 -40t-57 -27.5t-69.5 -10.5q-46 0 -90.5 18t-79.5 52t-56.5 83.5t-21.5 111.5v2q0 62 21.5 111.5t56.5 84t79.5 53t90.5 18.5q38 0 69.5 -10
t57.5 -27t46.5 -39t36.5 -46v219h-167q-9 0 -15.5 6.5t-6.5 15.5t6.5 15.5t15.5 6.5h167v46q0 25 24 25q25 0 25 -25v-46zM313 475q-42 0 -78.5 -15t-63.5 -43t-42.5 -68.5t-15.5 -91.5v-2q0 -50 16 -91t43.5 -69.5t63.5 -44t77 -15.5q40 0 77.5 16t66.5 45t46.5 69t17.5 89
v2q0 49 -17.5 89.5t-46.5 69t-66.5 44.5t-77.5 16z" />
    <glyph glyph-name="Emacron" unicode="&#x112;" horiz-adv-x="670" 
d="M130 0q-11 0 -18.5 7.5t-7.5 18.5v648q0 11 7.5 18.5t18.5 7.5h452q10 0 17 -7t7 -17t-7 -17t-17 -7h-426v-275h381q10 0 17 -7t7 -17t-7 -17t-17 -7h-381v-281h431q10 0 17 -7t7 -17t-7 -17t-17 -7h-457zM223 791q-10 0 -17 7t-7 17t7 17t17 7h264q10 0 17 -7t7 -17
t-7 -17t-17 -7h-264z" />
    <glyph glyph-name="emacron" unicode="&#x113;" horiz-adv-x="584" 
d="M481 279q-3 39 -15.5 74.5t-35 63t-55.5 44t-77 16.5q-38 0 -71 -15t-58 -41.5t-40.5 -63t-18.5 -78.5h371zM507 71q-38 -38 -84 -60.5t-115 -22.5q-50 0 -95.5 19t-80 54t-54.5 84t-20 109v2q0 55 18.5 103.5t51 84.5t76.5 57t96 21q54 0 97 -20.5t73.5 -56.5t47 -84
t16.5 -103q0 -9 -7.5 -16t-16.5 -7h-400q3 -48 20.5 -85t45 -63t62.5 -39.5t72 -13.5q55 0 94.5 20t70.5 50q7 7 16 7q10 0 17 -6.5t7 -16.5q0 -9 -8 -17zM168 621q-10 0 -17 7t-7 17t7 17t17 7h264q10 0 17 -7t7 -17t-7 -17t-17 -7h-264z" />
    <glyph glyph-name="Ebreve" unicode="&#x114;" horiz-adv-x="670" 
d="M130 0q-11 0 -18.5 7.5t-7.5 18.5v648q0 11 7.5 18.5t18.5 7.5h452q10 0 17 -7t7 -17t-7 -17t-17 -7h-426v-275h381q10 0 17 -7t7 -17t-7 -17t-17 -7h-381v-281h431q10 0 17 -7t7 -17t-7 -17t-17 -7h-457zM355 763q-40 0 -70.5 17t-48.5 51q-5 8 -8 19t-3 19q0 22 19 22
q9 0 13.5 -4.5t7.5 -12.5q10 -26 31 -43t59 -17t59 17t31 43q3 8 7.5 12.5t13.5 4.5q19 0 19 -22q0 -8 -3 -19t-8 -19q-18 -34 -48.5 -51t-70.5 -17z" />
    <glyph glyph-name="ebreve" unicode="&#x115;" horiz-adv-x="584" 
d="M481 279q-3 39 -15.5 74.5t-35 63t-55.5 44t-77 16.5q-38 0 -71 -15t-58 -41.5t-40.5 -63t-18.5 -78.5h371zM507 71q-38 -38 -84 -60.5t-115 -22.5q-50 0 -95.5 19t-80 54t-54.5 84t-20 109v2q0 55 18.5 103.5t51 84.5t76.5 57t96 21q54 0 97 -20.5t73.5 -56.5t47 -84
t16.5 -103q0 -9 -7.5 -16t-16.5 -7h-400q3 -48 20.5 -85t45 -63t62.5 -39.5t72 -13.5q55 0 94.5 20t70.5 50q7 7 16 7q10 0 17 -6.5t7 -16.5q0 -9 -8 -17zM300 593q-40 0 -70.5 17t-48.5 51q-5 8 -8 19t-3 19q0 22 19 22q9 0 13.5 -4.5t7.5 -12.5q10 -26 31 -43t59 -17
t59 17t31 43q3 8 7.5 12.5t13.5 4.5q19 0 19 -22q0 -8 -3 -19t-8 -19q-18 -34 -48.5 -51t-70.5 -17z" />
    <glyph glyph-name="Edotaccent" unicode="&#x116;" horiz-adv-x="670" 
d="M130 0q-11 0 -18.5 7.5t-7.5 18.5v648q0 11 7.5 18.5t18.5 7.5h452q10 0 17 -7t7 -17t-7 -17t-17 -7h-426v-275h381q10 0 17 -7t7 -17t-7 -17t-17 -7h-381v-281h431q10 0 17 -7t7 -17t-7 -17t-17 -7h-457zM391 796q0 -16 -10 -25.5t-26 -9.5t-26 9.5t-10 25.5v19
q0 16 10 25.5t26 9.5t26 -9.5t10 -25.5v-19z" />
    <glyph glyph-name="edotaccent" unicode="&#x117;" horiz-adv-x="584" 
d="M481 279q-3 39 -15.5 74.5t-35 63t-55.5 44t-77 16.5q-38 0 -71 -15t-58 -41.5t-40.5 -63t-18.5 -78.5h371zM507 71q-38 -38 -84 -60.5t-115 -22.5q-50 0 -95.5 19t-80 54t-54.5 84t-20 109v2q0 55 18.5 103.5t51 84.5t76.5 57t96 21q54 0 97 -20.5t73.5 -56.5t47 -84
t16.5 -103q0 -9 -7.5 -16t-16.5 -7h-400q3 -48 20.5 -85t45 -63t62.5 -39.5t72 -13.5q55 0 94.5 20t70.5 50q7 7 16 7q10 0 17 -6.5t7 -16.5q0 -9 -8 -17zM336 626q0 -16 -10 -25.5t-26 -9.5t-26 9.5t-10 25.5v19q0 16 10 25.5t26 9.5t26 -9.5t10 -25.5v-19z" />
    <glyph glyph-name="Eogonek" unicode="&#x118;" horiz-adv-x="670" 
d="M130 0q-11 0 -18.5 7.5t-7.5 18.5v648q0 11 7.5 18.5t18.5 7.5h452q10 0 17 -7t7 -17t-7 -17t-17 -7h-426v-275h381q10 0 17 -7t7 -17t-7 -17t-17 -7h-381v-281h429q26 0 26 -21q0 -9 -4.5 -15t-11.5 -11q-34 -26 -49 -43t-15 -38t14 -30.5t38 -14.5q16 -3 21.5 -7.5
t5.5 -12.5q0 -18 -20 -18q-7 0 -25 2t-37 10t-33.5 23.5t-14.5 41.5q0 23 15 44t42 42h-407z" />
    <glyph glyph-name="eogonek" unicode="&#x119;" horiz-adv-x="584" 
d="M534 258q0 -9 -7.5 -16t-16.5 -7h-400q3 -48 20.5 -85t45 -63t62.5 -39.5t72 -13.5q55 0 94.5 20t70.5 50q7 7 16 7q10 0 17 -6.5t7 -16.5q0 -9 -8 -17q-10 -10 -18 -16.5t-21 -17.5q-24 -20 -39 -35.5t-23.5 -28t-12 -24t-3.5 -22.5q0 -26 15 -36.5t39 -15.5
q16 -3 21.5 -7.5t5.5 -12.5q0 -18 -20 -18q-17 0 -36 4t-35.5 14t-27.5 25.5t-11 39.5q0 21 9.5 39t28.5 37q-17 -4 -34 -6t-37 -2q-50 0 -95.5 19t-80 54t-54.5 84t-20 109v2q0 55 18.5 103.5t51 84.5t76.5 57t96 21q54 0 97 -20.5t73.5 -56.5t47 -84t16.5 -103zM481 279
q-3 39 -15.5 74.5t-35 63t-55.5 44t-77 16.5q-38 0 -71 -15t-58 -41.5t-40.5 -63t-18.5 -78.5h371z" />
    <glyph glyph-name="Ecaron" unicode="&#x11a;" horiz-adv-x="670" 
d="M130 0q-11 0 -18.5 7.5t-7.5 18.5v648q0 11 7.5 18.5t18.5 7.5h452q10 0 17 -7t7 -17t-7 -17t-17 -7h-426v-275h381q10 0 17 -7t7 -17t-7 -17t-17 -7h-381v-281h431q10 0 17 -7t7 -17t-7 -17t-17 -7h-457zM419 877q9 8 15.5 10.5t16.5 2.5q13 0 13 -10q0 -5 -5 -12
l-72 -88q-7 -8 -13 -13t-15 -5h-8q-9 0 -15 5t-13 13l-72 88q-5 7 -5 12q0 10 14 10q10 0 17 -2.5t16 -10.5l63 -58z" />
    <glyph glyph-name="ecaron" unicode="&#x11b;" horiz-adv-x="584" 
d="M481 279q-3 39 -15.5 74.5t-35 63t-55.5 44t-77 16.5q-38 0 -71 -15t-58 -41.5t-40.5 -63t-18.5 -78.5h371zM507 71q-38 -38 -84 -60.5t-115 -22.5q-50 0 -95.5 19t-80 54t-54.5 84t-20 109v2q0 55 18.5 103.5t51 84.5t76.5 57t96 21q54 0 97 -20.5t73.5 -56.5t47 -84
t16.5 -103q0 -9 -7.5 -16t-16.5 -7h-400q3 -48 20.5 -85t45 -63t62.5 -39.5t72 -13.5q55 0 94.5 20t70.5 50q7 7 16 7q10 0 17 -6.5t7 -16.5q0 -9 -8 -17zM364 707q9 8 15.5 10.5t16.5 2.5q13 0 13 -10q0 -5 -5 -12l-72 -88q-7 -8 -13 -13t-15 -5h-8q-9 0 -15 5t-13 13
l-72 88q-5 7 -5 12q0 10 14 10q10 0 17 -2.5t16 -10.5l63 -58z" />
    <glyph glyph-name="Gbreve" unicode="&#x11e;" horiz-adv-x="784" 
d="M425 -12q-83 0 -148.5 28.5t-110.5 77.5t-69 114.5t-24 139.5v2q0 71 24.5 136.5t70 115.5t109.5 80t142 30q79 0 134.5 -20.5t104.5 -57.5q10 -7 10 -21q0 -11 -7.5 -18.5t-18.5 -7.5q-9 0 -16 7q-21 16 -42.5 29t-46.5 22.5t-55 14.5t-66 5q-64 0 -117 -25t-91.5 -68
t-59.5 -100t-21 -120v-2q0 -68 20.5 -126t59.5 -100t94.5 -66t125.5 -24q33 0 65 6.5t60.5 17.5t53.5 25.5t44 30.5v201h-218q-10 0 -17 7t-7 17t7 17t17 7h242q11 0 18.5 -7.5t7.5 -18.5v-229q0 -15 -18 -30q-51 -38 -115 -64t-142 -26zM412 773q-40 0 -70.5 17t-48.5 51
q-5 8 -8 19t-3 19q0 22 19 22q9 0 13.5 -4.5t7.5 -12.5q10 -26 31 -43t59 -17t59 17t31 43q3 8 7.5 12.5t13.5 4.5q19 0 19 -22q0 -8 -3 -19t-8 -19q-18 -34 -48.5 -51t-70.5 -17z" />
    <glyph glyph-name="gbreve" unicode="&#x11f;" 
d="M317 -162q-123 0 -223 70q-11 8 -11 22q0 8 7.5 15.5t17.5 7.5q9 0 14 -4q89 -65 196 -65q43 0 80 12.5t63.5 37.5t41.5 62t15 86v74q-17 -24 -38 -45t-47 -37.5t-58 -26t-70 -9.5q-46 0 -90 17t-78.5 48.5t-55.5 75.5t-21 99v2q0 55 21 100t55.5 76.5t78.5 48.5t90 17
q39 0 71 -9.5t58 -25t47 -36.5t37 -43v81q0 25 24 25q25 0 25 -25v-410q0 -57 -17 -99.5t-48 -73.5q-33 -33 -80.5 -50.5t-104.5 -17.5zM310 85q40 0 78 14t67.5 39.5t47.5 61t18 79.5v2q0 44 -18 80t-47.5 61.5t-67.5 39t-78 13.5q-41 0 -76.5 -13.5t-62.5 -38.5
t-42.5 -60.5t-15.5 -80.5v-2q0 -43 16 -79t43 -61.5t63 -40t75 -14.5zM330 593q-40 0 -70.5 17t-48.5 51q-5 8 -8 19t-3 19q0 22 19 22q9 0 13.5 -4.5t7.5 -12.5q10 -26 31 -43t59 -17t59 17t31 43q3 8 7.5 12.5t13.5 4.5q19 0 19 -22q0 -8 -3 -19t-8 -19q-18 -34 -48.5 -51
t-70.5 -17z" />
    <glyph glyph-name="Gdotaccent" unicode="&#x120;" horiz-adv-x="784" 
d="M425 -12q-83 0 -148.5 28.5t-110.5 77.5t-69 114.5t-24 139.5v2q0 71 24.5 136.5t70 115.5t109.5 80t142 30q79 0 134.5 -20.5t104.5 -57.5q10 -7 10 -21q0 -11 -7.5 -18.5t-18.5 -7.5q-9 0 -16 7q-21 16 -42.5 29t-46.5 22.5t-55 14.5t-66 5q-64 0 -117 -25t-91.5 -68
t-59.5 -100t-21 -120v-2q0 -68 20.5 -126t59.5 -100t94.5 -66t125.5 -24q33 0 65 6.5t60.5 17.5t53.5 25.5t44 30.5v201h-218q-10 0 -17 7t-7 17t7 17t17 7h242q11 0 18.5 -7.5t7.5 -18.5v-229q0 -15 -18 -30q-51 -38 -115 -64t-142 -26zM448 806q0 -16 -10 -25.5t-26 -9.5
t-26 9.5t-10 25.5v19q0 16 10 25.5t26 9.5t26 -9.5t10 -25.5v-19z" />
    <glyph glyph-name="gdotaccent" unicode="&#x121;" 
d="M317 -162q-123 0 -223 70q-11 8 -11 22q0 8 7.5 15.5t17.5 7.5q9 0 14 -4q89 -65 196 -65q43 0 80 12.5t63.5 37.5t41.5 62t15 86v74q-17 -24 -38 -45t-47 -37.5t-58 -26t-70 -9.5q-46 0 -90 17t-78.5 48.5t-55.5 75.5t-21 99v2q0 55 21 100t55.5 76.5t78.5 48.5t90 17
q39 0 71 -9.5t58 -25t47 -36.5t37 -43v81q0 25 24 25q25 0 25 -25v-410q0 -57 -17 -99.5t-48 -73.5q-33 -33 -80.5 -50.5t-104.5 -17.5zM310 85q40 0 78 14t67.5 39.5t47.5 61t18 79.5v2q0 44 -18 80t-47.5 61.5t-67.5 39t-78 13.5q-41 0 -76.5 -13.5t-62.5 -38.5
t-42.5 -60.5t-15.5 -80.5v-2q0 -43 16 -79t43 -61.5t63 -40t75 -14.5zM366 626q0 -16 -10 -25.5t-26 -9.5t-26 9.5t-10 25.5v19q0 16 10 25.5t26 9.5t26 -9.5t10 -25.5v-19z" />
    <glyph glyph-name="Gcommaaccent" unicode="&#x122;" horiz-adv-x="784" 
d="M425 -12q-83 0 -148.5 28.5t-110.5 77.5t-69 114.5t-24 139.5v2q0 71 24.5 136.5t70 115.5t109.5 80t142 30q79 0 134.5 -20.5t104.5 -57.5q10 -7 10 -21q0 -11 -7.5 -18.5t-18.5 -7.5q-9 0 -16 7q-21 16 -42.5 29t-46.5 22.5t-55 14.5t-66 5q-64 0 -117 -25t-91.5 -68
t-59.5 -100t-21 -120v-2q0 -68 20.5 -126t59.5 -100t94.5 -66t125.5 -24q33 0 65 6.5t60.5 17.5t53.5 25.5t44 30.5v201h-218q-10 0 -17 7t-7 17t7 17t17 7h242q11 0 18.5 -7.5t7.5 -18.5v-229q0 -15 -18 -30q-51 -38 -115 -64t-142 -26zM407 -147q-14 3 -23 11.5t-9 23.5v6
q0 15 10.5 25.5t25.5 10.5t25.5 -10.5t10.5 -29.5v-6q0 -31 -5 -48.5t-19 -31.5q-13 -13 -33 -20.5t-31 -7.5q-13 0 -13 11q0 10 13 14q27 8 37.5 19t10.5 33z" />
    <glyph glyph-name="gcommaaccent" unicode="&#x123;" 
d="M317 -162q-123 0 -223 70q-11 8 -11 22q0 8 7.5 15.5t17.5 7.5q9 0 14 -4q89 -65 196 -65q43 0 80 12.5t63.5 37.5t41.5 62t15 86v74q-17 -24 -38 -45t-47 -37.5t-58 -26t-70 -9.5q-46 0 -90 17t-78.5 48.5t-55.5 75.5t-21 99v2q0 55 21 100t55.5 76.5t78.5 48.5t90 17
q39 0 71 -9.5t58 -25t47 -36.5t37 -43v81q0 25 24 25q25 0 25 -25v-410q0 -57 -17 -99.5t-48 -73.5q-33 -33 -80.5 -50.5t-104.5 -17.5zM310 85q40 0 78 14t67.5 39.5t47.5 61t18 79.5v2q0 44 -18 80t-47.5 61.5t-67.5 39t-78 13.5q-41 0 -76.5 -13.5t-62.5 -38.5
t-42.5 -60.5t-15.5 -80.5v-2q0 -43 16 -79t43 -61.5t63 -40t75 -14.5zM334 668q14 -3 23 -11.5t9 -23.5v-6q0 -15 -10.5 -25.5t-25.5 -10.5t-25.5 10.5t-10.5 29.5v6q0 31 5 48.5t19 31.5q13 13 33 20.5t31 7.5q13 0 13 -11q0 -10 -13 -14q-27 -8 -37.5 -19t-10.5 -33z" />
    <glyph glyph-name="Hbar" unicode="&#x126;" horiz-adv-x="820" 
d="M134 510h-57q-9 0 -15.5 6.5t-6.5 15.5t6.5 15.5t15.5 6.5h57v124q0 11 7.5 18.5t18.5 7.5t18.5 -7.5t7.5 -18.5v-124h448v124q0 11 7.5 18.5t18.5 7.5t18.5 -7.5t7.5 -18.5v-124h57q9 0 15.5 -6.5t6.5 -15.5t-6.5 -15.5t-15.5 -6.5h-57v-488q0 -11 -7.5 -18.5
t-18.5 -7.5t-18.5 7.5t-7.5 18.5v306h-448v-306q0 -11 -7.5 -18.5t-18.5 -7.5t-18.5 7.5t-7.5 18.5v488zM634 376v134h-448v-134h448z" />
    <glyph glyph-name="hbar" unicode="&#x127;" horiz-adv-x="613" 
d="M93 619h-52q-9 0 -15.5 6.5t-6.5 15.5t6.5 15.5t15.5 6.5h52v46q0 25 24 25q25 0 25 -25v-46h167q9 0 15.5 -6.5t6.5 -15.5t-6.5 -15.5t-15.5 -6.5h-167v-204q26 45 70 76t114 31q48 0 86 -15.5t64.5 -43.5t40 -66.5t13.5 -84.5v-291q0 -25 -24 -25q-25 0 -25 25v282
q0 79 -42 126.5t-120 47.5q-38 0 -70 -13.5t-56 -37.5t-37.5 -57.5t-13.5 -73.5v-274q0 -25 -24 -25q-25 0 -25 25v598z" />
    <glyph glyph-name="Itilde" unicode="&#x128;" horiz-adv-x="274" 
d="M62 791q-4 -5 -7.5 -8.5t-8.5 -2.5q-16 1 -18 17q1 1 1 7q14 30 28 44t36 13q12 -1 26 -6.5t28 -12.5l10 -5q10 -7 20 -8q22 0 33 23q3 3 7.5 7t9.5 4q18 -2 18 -19q-1 -1 -1 -2t-0.5 -1.5t-0.5 -1.5q-22 -59 -67 -58q-12 1 -26 6t-26 13q-2 0 -5.5 2.5t-4.5 3.5
q-5 2 -10 4.5t-11 2.5q-9 0 -16.5 -4.5t-14.5 -17.5zM63 792q0 -1 -1 -1zM111 678q0 11 7.5 18.5t18.5 7.5t18.5 -7.5t7.5 -18.5v-656q0 -11 -7.5 -18.5t-18.5 -7.5t-18.5 7.5t-7.5 18.5v656z" />
    <glyph glyph-name="itilde" unicode="&#x129;" horiz-adv-x="249" 
d="M100 489q0 25 24 25q25 0 25 -25v-468q0 -25 -24 -25q-25 0 -25 25v468zM49 614q-4 -5 -7.5 -8.5t-8.5 -2.5q-16 1 -18 17q1 1 1 7q14 30 28 44t36 13q12 -1 26 -6.5t28 -12.5l10 -5q10 -7 20 -8q22 0 33 23q3 3 7.5 7t9.5 4q18 -2 18 -19q-1 -1 -1 -2t-0.5 -1.5
t-0.5 -1.5q-22 -59 -67 -58q-12 1 -26 6t-26 13q-2 0 -5.5 2.5t-4.5 3.5q-5 2 -10 4.5t-11 2.5q-9 0 -16.5 -4.5t-14.5 -17.5zM50 615q0 -1 -1 -1z" />
    <glyph glyph-name="Imacron" unicode="&#x12a;" horiz-adv-x="274" 
d="M111 678q0 11 7.5 18.5t18.5 7.5t18.5 -7.5t7.5 -18.5v-656q0 -11 -7.5 -18.5t-18.5 -7.5t-18.5 7.5t-7.5 18.5v656zM5 791q-10 0 -17 7t-7 17t7 17t17 7h264q10 0 17 -7t7 -17t-7 -17t-17 -7h-264z" />
    <glyph glyph-name="imacron" unicode="&#x12b;" horiz-adv-x="249" 
d="M100 489q0 25 24 25q25 0 25 -25v-468q0 -25 -24 -25q-25 0 -25 25v468zM-8 621q-10 0 -17 7t-7 17t7 17t17 7h264q10 0 17 -7t7 -17t-7 -17t-17 -7h-264z" />
    <glyph glyph-name="Ibreve" unicode="&#x12c;" horiz-adv-x="274" 
d="M111 678q0 11 7.5 18.5t18.5 7.5t18.5 -7.5t7.5 -18.5v-656q0 -11 -7.5 -18.5t-18.5 -7.5t-18.5 7.5t-7.5 18.5v656zM137 763q-40 0 -70.5 17t-48.5 51q-5 8 -8 19t-3 19q0 22 19 22q9 0 13.5 -4.5t7.5 -12.5q10 -26 31 -43t59 -17t59 17t31 43q3 8 7.5 12.5t13.5 4.5
q19 0 19 -22q0 -8 -3 -19t-8 -19q-18 -34 -48.5 -51t-70.5 -17z" />
    <glyph glyph-name="ibreve" unicode="&#x12d;" horiz-adv-x="249" 
d="M100 489q0 25 24 25q25 0 25 -25v-468q0 -25 -24 -25q-25 0 -25 25v468zM124 593q-40 0 -70.5 17t-48.5 51q-5 8 -8 19t-3 19q0 22 19 22q9 0 13.5 -4.5t7.5 -12.5q10 -26 31 -43t59 -17t59 17t31 43q3 8 7.5 12.5t13.5 4.5q19 0 19 -22q0 -8 -3 -19t-8 -19
q-18 -34 -48.5 -51t-70.5 -17z" />
    <glyph glyph-name="Iogonek" unicode="&#x12e;" horiz-adv-x="274" 
d="M53 -85q0 26 14.5 47t43.5 44v672q0 11 7.5 18.5t18.5 7.5t18.5 -7.5t7.5 -18.5v-661q0 -15 -13 -25q-26 -22 -36.5 -36.5t-10.5 -34.5q0 -21 14.5 -31t38.5 -15q16 -3 21.5 -7.5t5.5 -12.5q0 -18 -20 -18q-7 0 -25 2.5t-37 10.5t-33.5 23.5t-14.5 41.5z" />
    <glyph glyph-name="iogonek" unicode="&#x12f;" horiz-adv-x="249" 
d="M149 17q0 -8 -3 -13.5t-11 -12.5q-23 -20 -34.5 -35t-11.5 -35q0 -21 14.5 -31t38.5 -15q16 -3 21.5 -7.5t5.5 -12.5q0 -18 -20 -18q-7 0 -25 2.5t-37 10.5t-33.5 23.5t-14.5 41.5t15.5 48t45.5 45v481q0 25 24 25q25 0 25 -25v-472zM94 685q0 13 8.5 21.5t21.5 8.5
t22 -8.5t9 -21.5v-17q0 -13 -9 -21.5t-22 -8.5t-21.5 8.5t-8.5 21.5v17z" />
    <glyph glyph-name="Idotaccent" unicode="&#x130;" horiz-adv-x="274" 
d="M111 678q0 11 7.5 18.5t18.5 7.5t18.5 -7.5t7.5 -18.5v-656q0 -11 -7.5 -18.5t-18.5 -7.5t-18.5 7.5t-7.5 18.5v656zM173 796q0 -16 -10 -25.5t-26 -9.5t-26 9.5t-10 25.5v19q0 16 10 25.5t26 9.5t26 -9.5t10 -25.5v-19z" />
    <glyph glyph-name="dotlessi" unicode="&#x131;" horiz-adv-x="249" 
d="M100 489q0 25 24 25q25 0 25 -25v-468q0 -25 -24 -25q-25 0 -25 25v468z" />
    <glyph glyph-name="Kcommaaccent" unicode="&#x136;" horiz-adv-x="715" 
d="M104 678q0 11 7.5 18.5t18.5 7.5t18.5 -7.5t7.5 -18.5v-438l442 456q8 8 18 8t18 -8t8 -18t-8 -18l-267 -269l285 -349q4 -5 6 -9t2 -10q0 -11 -8 -19t-19 -8q-7 0 -12 3t-8 7l-283 348l-174 -176v-156q0 -11 -7.5 -18.5t-18.5 -7.5t-18.5 7.5t-7.5 18.5v656zM357 -142
q-14 3 -23 11.5t-9 23.5v6q0 15 10.5 25.5t25.5 10.5t25.5 -10.5t10.5 -29.5v-6q0 -31 -5 -48.5t-19 -31.5q-13 -13 -33 -20.5t-31 -7.5q-13 0 -13 11q0 10 13 14q27 8 37.5 19t10.5 33z" />
    <glyph glyph-name="kcommaaccent" unicode="&#x137;" horiz-adv-x="560" 
d="M93 709q0 25 24 25q25 0 25 -25v-526l313 324q7 7 17 7t16.5 -6.5t6.5 -16.5q0 -9 -8 -17l-187 -190l200 -247q7 -7 7 -18q0 -23 -24 -23q-10 0 -21 11l-196 242l-124 -125v-103q0 -25 -24 -25q-25 0 -25 25v688zM292 -147q-14 3 -23 11.5t-9 23.5v6q0 15 10.5 25.5
t25.5 10.5t25.5 -10.5t10.5 -29.5v-6q0 -31 -5 -48.5t-19 -31.5q-13 -13 -33 -20.5t-31 -7.5q-13 0 -13 11q0 10 13 14q27 8 37.5 19t10.5 33z" />
    <glyph glyph-name="Lacute" unicode="&#x139;" horiz-adv-x="619" 
d="M104 678q0 11 7.5 18.5t18.5 7.5t18.5 -7.5t7.5 -18.5v-630h391q10 0 17 -7t7 -17t-7 -17t-17 -7h-417q-11 0 -18.5 7.5t-7.5 18.5v652zM141 762q-13 0 -13 9q0 6 4 11l62 93q12 18 28 18q14 0 28 -7.5t14 -15.5q0 -7 -11 -18l-80 -77q-9 -8 -15.5 -10.5t-16.5 -2.5z" />
    <glyph glyph-name="lacute" unicode="&#x13a;" horiz-adv-x="249" 
d="M100 709q0 25 24 25q25 0 25 -25v-688q0 -25 -24 -25q-25 0 -25 25v688zM126 785q-13 0 -13 9q0 6 4 11l62 93q12 18 28 18q14 0 28 -7.5t14 -15.5q0 -7 -11 -18l-80 -77q-9 -8 -15.5 -10.5t-16.5 -2.5z" />
    <glyph glyph-name="Lcommaaccent" unicode="&#x13b;" horiz-adv-x="619" 
d="M104 678q0 11 7.5 18.5t18.5 7.5t18.5 -7.5t7.5 -18.5v-630h391q10 0 17 -7t7 -17t-7 -17t-17 -7h-417q-11 0 -18.5 7.5t-7.5 18.5v652zM326 -147q-14 3 -23 11.5t-9 23.5v6q0 15 10.5 25.5t25.5 10.5t25.5 -10.5t10.5 -29.5v-6q0 -31 -5 -48.5t-19 -31.5
q-13 -13 -33 -20.5t-31 -7.5q-13 0 -13 11q0 10 13 14q27 8 37.5 19t10.5 33z" />
    <glyph glyph-name="lcommaaccent" unicode="&#x13c;" horiz-adv-x="249" 
d="M100 709q0 25 24 25q25 0 25 -25v-688q0 -25 -24 -25q-25 0 -25 25v688zM119 -147q-14 3 -23 11.5t-9 23.5v6q0 15 10.5 25.5t25.5 10.5t25.5 -10.5t10.5 -29.5v-6q0 -31 -5 -48.5t-19 -31.5q-13 -13 -33 -20.5t-31 -7.5q-13 0 -13 11q0 10 13 14q27 8 37.5 19t10.5 33z
" />
    <glyph glyph-name="Lcaron" unicode="&#x13d;" horiz-adv-x="619" 
d="M104 678q0 11 7.5 18.5t18.5 7.5t18.5 -7.5t7.5 -18.5v-630h391q10 0 17 -7t7 -17t-7 -17t-17 -7h-417q-11 0 -18.5 7.5t-7.5 18.5v652zM266 677q5 26 28 26h13q17 0 17 -17q0 -5 -2 -11t-4 -13l-33 -97q-6 -18 -17 -18q-7 0 -11.5 4t-2.5 15z" />
    <glyph glyph-name="lcaron" unicode="&#x13e;" horiz-adv-x="249" 
d="M100 709q0 25 24 25q25 0 25 -25v-688q0 -25 -24 -25q-25 0 -25 25v688zM233 707q5 26 28 26h13q17 0 17 -17q0 -5 -2 -11t-4 -13l-33 -97q-6 -18 -17 -18q-7 0 -11.5 4t-2.5 15z" />
    <glyph glyph-name="Ldot" unicode="&#x13f;" horiz-adv-x="619" 
d="M104 678q0 11 7.5 18.5t18.5 7.5t18.5 -7.5t7.5 -18.5v-630h391q10 0 17 -7t7 -17t-7 -17t-17 -7h-417q-11 0 -18.5 7.5t-7.5 18.5v652zM493 353q0 -16 -10 -25.5t-26 -9.5t-26 9.5t-10 25.5v19q0 16 10 25.5t26 9.5t26 -9.5t10 -25.5v-19z" />
    <glyph glyph-name="ldot" unicode="&#x140;" horiz-adv-x="309" 
d="M316 357q0 -15 -10.5 -25.5t-25.5 -10.5t-25.5 10.5t-10.5 25.5v17q0 15 10.5 25.5t25.5 10.5t25.5 -10.5t10.5 -25.5v-17zM100 709q0 25 24 25q25 0 25 -25v-688q0 -25 -24 -25q-25 0 -25 25v688z" />
    <glyph glyph-name="Lslash" unicode="&#x141;" horiz-adv-x="649" 
d="M185 331v-283h392q10 0 17 -7t7 -17t-7 -17t-17 -7h-417q-11 0 -18.5 7.5t-7.5 18.5v290l-42 -13q-3 -1 -7.5 -2t-7.5 -1q-10 0 -16 6.5t-6 16.5q0 17 17 22l62 19v314q0 11 7.5 18.5t18.5 7.5t18 -7.5t7 -18.5v-299l192 60q3 1 7.5 2t7.5 1q10 0 16 -6.5t6 -16.5
q0 -17 -17 -22z" />
    <glyph glyph-name="lslash" unicode="&#x142;" horiz-adv-x="309" 
d="M179 351v-330q0 -25 -24 -25q-25 0 -25 25v315l-43 -13q-3 -1 -7.5 -2t-7.5 -1q-10 0 -16 6.5t-6 16.5q0 17 17 22l8 2t9 3q14 4 46 15v324q0 25 24 25q25 0 25 -25v-309l43 13q3 1 7.5 2t7.5 1q10 0 16 -6.5t6 -16.5q0 -17 -17 -22z" />
    <glyph glyph-name="Nacute" unicode="&#x143;" horiz-adv-x="790" 
d="M104 677q0 11 7.5 18.5t18.5 7.5h8q14 0 26 -15l472 -599v590q0 25 25 25t25 -25v-660q0 -9 -6 -15.5t-15 -6.5h-4q-14 0 -26 17l-481 610v-603q0 -25 -25 -25t-25 25v656zM394 762q-13 0 -13 9q0 6 4 11l62 93q12 18 28 18q14 0 28 -7.5t14 -15.5q0 -7 -11 -18l-80 -77
q-9 -8 -15.5 -10.5t-16.5 -2.5z" />
    <glyph glyph-name="nacute" unicode="&#x144;" horiz-adv-x="613" 
d="M93 489q0 25 24 25q25 0 25 -25v-74q26 45 70 76t114 31q48 0 86 -15.5t64.5 -43.5t40 -66.5t13.5 -84.5v-291q0 -25 -24 -25q-25 0 -25 25v282q0 79 -42 126.5t-120 47.5q-38 0 -70 -13.5t-56 -37.5t-37.5 -57.5t-13.5 -73.5v-274q0 -25 -24 -25q-25 0 -25 25v468z
M310 592q-13 0 -13 9q0 6 4 11l62 93q12 18 28 18q14 0 28 -7.5t14 -15.5q0 -7 -11 -18l-80 -77q-9 -8 -15.5 -10.5t-16.5 -2.5z" />
    <glyph glyph-name="Ncommaaccent" unicode="&#x145;" horiz-adv-x="790" 
d="M104 677q0 11 7.5 18.5t18.5 7.5h8q14 0 26 -15l472 -599v590q0 25 25 25t25 -25v-660q0 -9 -6 -15.5t-15 -6.5h-4q-14 0 -26 17l-481 610v-603q0 -25 -25 -25t-25 25v656zM390 -142q-14 3 -23 11.5t-9 23.5v6q0 15 10.5 25.5t25.5 10.5t25.5 -10.5t10.5 -29.5v-6
q0 -31 -5 -48.5t-19 -31.5q-13 -13 -33 -20.5t-31 -7.5q-13 0 -13 11q0 10 13 14q27 8 37.5 19t10.5 33z" />
    <glyph glyph-name="ncommaaccent" unicode="&#x146;" horiz-adv-x="613" 
d="M93 489q0 25 24 25q25 0 25 -25v-74q26 45 70 76t114 31q48 0 86 -15.5t64.5 -43.5t40 -66.5t13.5 -84.5v-291q0 -25 -24 -25q-25 0 -25 25v282q0 79 -42 126.5t-120 47.5q-38 0 -70 -13.5t-56 -37.5t-37.5 -57.5t-13.5 -73.5v-274q0 -25 -24 -25q-25 0 -25 25v468z
M306 -147q-14 3 -23 11.5t-9 23.5v6q0 15 10.5 25.5t25.5 10.5t25.5 -10.5t10.5 -29.5v-6q0 -31 -5 -48.5t-19 -31.5q-13 -13 -33 -20.5t-31 -7.5q-13 0 -13 11q0 10 13 14q27 8 37.5 19t10.5 33z" />
    <glyph glyph-name="Ncaron" unicode="&#x147;" horiz-adv-x="790" 
d="M104 677q0 11 7.5 18.5t18.5 7.5h8q14 0 26 -15l472 -599v590q0 25 25 25t25 -25v-660q0 -9 -6 -15.5t-15 -6.5h-4q-14 0 -26 17l-481 610v-603q0 -25 -25 -25t-25 25v656zM459 877q9 8 15.5 10.5t16.5 2.5q13 0 13 -10q0 -5 -5 -12l-72 -88q-7 -8 -13 -13t-15 -5h-8
q-9 0 -15 5t-13 13l-72 88q-5 7 -5 12q0 10 14 10q10 0 17 -2.5t16 -10.5l63 -58z" />
    <glyph glyph-name="ncaron" unicode="&#x148;" horiz-adv-x="613" 
d="M93 489q0 25 24 25q25 0 25 -25v-74q26 45 70 76t114 31q48 0 86 -15.5t64.5 -43.5t40 -66.5t13.5 -84.5v-291q0 -25 -24 -25q-25 0 -25 25v282q0 79 -42 126.5t-120 47.5q-38 0 -70 -13.5t-56 -37.5t-37.5 -57.5t-13.5 -73.5v-274q0 -25 -24 -25q-25 0 -25 25v468z
M375 707q9 8 15.5 10.5t16.5 2.5q13 0 13 -10q0 -5 -5 -12l-72 -88q-7 -8 -13 -13t-15 -5h-8q-9 0 -15 5t-13 13l-72 88q-5 7 -5 12q0 10 14 10q10 0 17 -2.5t16 -10.5l63 -58z" />
    <glyph glyph-name="Omacron" unicode="&#x14c;" horiz-adv-x="850" 
d="M424 -12q-80 0 -144.5 29.5t-110.5 79t-71 114.5t-25 137v2q0 72 25.5 137.5t71.5 115.5t111 79.5t145 29.5q79 0 144 -29.5t111 -79t71 -114.5t25 -137v-2q0 -72 -25.5 -137.5t-71.5 -115.5t-111.5 -79.5t-144.5 -29.5zM426 35q65 0 119.5 24.5t94 67t61.5 99.5t22 122
v2q0 65 -22.5 122.5t-62 100t-94.5 67.5t-120 25t-119.5 -24.5t-94 -67t-61.5 -99.5t-22 -122v-2q0 -65 22.5 -122.5t62 -100t94.5 -67.5t120 -25zM293 801q-10 0 -17 7t-7 17t7 17t17 7h264q10 0 17 -7t7 -17t-7 -17t-17 -7h-264z" />
    <glyph glyph-name="omacron" unicode="&#x14d;" horiz-adv-x="640" 
d="M319 -12q-57 0 -104.5 21.5t-82.5 57.5t-54.5 84t-19.5 102v2q0 54 19.5 102t55 85t83.5 58.5t105 21.5t104.5 -21.5t82.5 -57.5t54.5 -84t19.5 -102v-2q0 -54 -19.5 -102t-55 -85t-83.5 -58.5t-105 -21.5zM321 34q45 0 83.5 17.5t66 47t43 69.5t15.5 85v2q0 46 -16 86.5
t-44.5 70.5t-67 47t-82.5 17q-45 0 -83.5 -17.5t-66 -47t-43 -69.5t-15.5 -85v-2q0 -47 16 -87t44.5 -70t67 -47t82.5 -17zM188 621q-10 0 -17 7t-7 17t7 17t17 7h264q10 0 17 -7t7 -17t-7 -17t-17 -7h-264z" />
    <glyph glyph-name="Obreve" unicode="&#x14e;" horiz-adv-x="850" 
d="M424 -12q-80 0 -144.5 29.5t-110.5 79t-71 114.5t-25 137v2q0 72 25.5 137.5t71.5 115.5t111 79.5t145 29.5q79 0 144 -29.5t111 -79t71 -114.5t25 -137v-2q0 -72 -25.5 -137.5t-71.5 -115.5t-111.5 -79.5t-144.5 -29.5zM426 35q65 0 119.5 24.5t94 67t61.5 99.5t22 122
v2q0 65 -22.5 122.5t-62 100t-94.5 67.5t-120 25t-119.5 -24.5t-94 -67t-61.5 -99.5t-22 -122v-2q0 -65 22.5 -122.5t62 -100t94.5 -67.5t120 -25zM425 773q-40 0 -70.5 17t-48.5 51q-5 8 -8 19t-3 19q0 22 19 22q9 0 13.5 -4.5t7.5 -12.5q10 -26 31 -43t59 -17t59 17t31 43
q3 8 7.5 12.5t13.5 4.5q19 0 19 -22q0 -8 -3 -19t-8 -19q-18 -34 -48.5 -51t-70.5 -17z" />
    <glyph glyph-name="obreve" unicode="&#x14f;" horiz-adv-x="640" 
d="M319 -12q-57 0 -104.5 21.5t-82.5 57.5t-54.5 84t-19.5 102v2q0 54 19.5 102t55 85t83.5 58.5t105 21.5t104.5 -21.5t82.5 -57.5t54.5 -84t19.5 -102v-2q0 -54 -19.5 -102t-55 -85t-83.5 -58.5t-105 -21.5zM321 34q45 0 83.5 17.5t66 47t43 69.5t15.5 85v2q0 46 -16 86.5
t-44.5 70.5t-67 47t-82.5 17q-45 0 -83.5 -17.5t-66 -47t-43 -69.5t-15.5 -85v-2q0 -47 16 -87t44.5 -70t67 -47t82.5 -17zM320 593q-40 0 -70.5 17t-48.5 51q-5 8 -8 19t-3 19q0 22 19 22q9 0 13.5 -4.5t7.5 -12.5q10 -26 31 -43t59 -17t59 17t31 43q3 8 7.5 12.5t13.5 4.5
q19 0 19 -22q0 -8 -3 -19t-8 -19q-18 -34 -48.5 -51t-70.5 -17z" />
    <glyph glyph-name="Ohungarumlaut" unicode="&#x150;" horiz-adv-x="850" 
d="M424 -12q-80 0 -144.5 29.5t-110.5 79t-71 114.5t-25 137v2q0 72 25.5 137.5t71.5 115.5t111 79.5t145 29.5q79 0 144 -29.5t111 -79t71 -114.5t25 -137v-2q0 -72 -25.5 -137.5t-71.5 -115.5t-111.5 -79.5t-144.5 -29.5zM426 35q65 0 119.5 24.5t94 67t61.5 99.5t22 122
v2q0 65 -22.5 122.5t-62 100t-94.5 67.5t-120 25t-119.5 -24.5t-94 -67t-61.5 -99.5t-22 -122v-2q0 -65 22.5 -122.5t62 -100t94.5 -67.5t120 -25zM487 772q-13 0 -13 9q0 6 4 11l63 94q11 17 27 17q14 0 26.5 -7t12.5 -15q0 -7 -10 -17l-78 -79q-9 -8 -15.5 -10.5
t-16.5 -2.5zM335 772q-13 0 -13 9q0 6 4 11l63 94q11 17 27 17q14 0 26.5 -7t12.5 -15q0 -7 -10 -17l-78 -79q-9 -8 -15.5 -10.5t-16.5 -2.5z" />
    <glyph glyph-name="ohungarumlaut" unicode="&#x151;" horiz-adv-x="640" 
d="M319 -12q-57 0 -104.5 21.5t-82.5 57.5t-54.5 84t-19.5 102v2q0 54 19.5 102t55 85t83.5 58.5t105 21.5t104.5 -21.5t82.5 -57.5t54.5 -84t19.5 -102v-2q0 -54 -19.5 -102t-55 -85t-83.5 -58.5t-105 -21.5zM321 34q45 0 83.5 17.5t66 47t43 69.5t15.5 85v2q0 46 -16 86.5
t-44.5 70.5t-67 47t-82.5 17q-45 0 -83.5 -17.5t-66 -47t-43 -69.5t-15.5 -85v-2q0 -47 16 -87t44.5 -70t67 -47t82.5 -17zM382 592q-13 0 -13 9q0 6 4 11l63 94q11 17 27 17q14 0 26.5 -7t12.5 -15q0 -7 -10 -17l-78 -79q-9 -8 -15.5 -10.5t-16.5 -2.5zM230 592
q-13 0 -13 9q0 6 4 11l63 94q11 17 27 17q14 0 26.5 -7t12.5 -15q0 -7 -10 -17l-78 -79q-9 -8 -15.5 -10.5t-16.5 -2.5z" />
    <glyph glyph-name="OE" unicode="&#x152;" horiz-adv-x="1152" 
d="M445 0q-83 0 -151 26.5t-117.5 73t-76.5 110t-27 138.5v2q0 74 27 138t76.5 111t117.5 74t151 27h619q10 0 17 -7t7 -17t-7 -17t-17 -7h-411v-275h366q10 0 17 -7t7 -17t-7 -17t-17 -7h-366v-281h416q10 0 17 -7t7 -17t-7 -17t-17 -7h-624zM601 48v604h-156
q-73 0 -132 -23.5t-100 -64t-63.5 -95t-22.5 -117.5v-2q0 -62 22.5 -117t63.5 -96t100 -65t132 -24h156z" />
    <glyph glyph-name="oe" unicode="&#x153;" horiz-adv-x="1055" 
d="M952 279q-3 39 -15.5 74.5t-35 63t-55.5 44t-77 16.5q-38 0 -71 -15t-58 -41.5t-40.5 -63t-18.5 -78.5h371zM321 34q45 0 83.5 17.5t66 47t43 69.5t15.5 85v2q0 46 -16 86.5t-44.5 70.5t-67 47t-82.5 17q-45 0 -83.5 -17.5t-66 -47t-43 -69.5t-15.5 -85v-2q0 -47 16 -87
t44.5 -70t67 -47t82.5 -17zM978 71q-38 -38 -84 -60.5t-113 -22.5q-75 0 -136 42t-91 115q-15 -34 -38.5 -63t-53.5 -50t-66.5 -32.5t-77.5 -11.5q-56 0 -103.5 21.5t-82.5 57.5t-54.5 84t-19.5 102v2q0 54 20 102t55 85t83 58.5t104 21.5q41 0 77 -11.5t66 -32.5t53 -49.5
t38 -62.5q28 70 85.5 113t132.5 43q53 0 96 -20.5t73.5 -56.5t47 -84t16.5 -103q0 -9 -7.5 -16t-16.5 -7h-400q3 -48 20.5 -85t45 -63t62.5 -39.5t72 -13.5q55 0 94.5 20t70.5 50q7 7 16 7q10 0 17 -6.5t7 -16.5q0 -9 -8 -17z" />
    <glyph glyph-name="Racute" unicode="&#x154;" horiz-adv-x="723" 
d="M104 674q0 11 7.5 18.5t18.5 7.5h268q66 0 115.5 -18.5t81.5 -50.5q25 -25 39 -58.5t14 -71.5v-2q0 -44 -15.5 -78.5t-43 -59.5t-65 -40.5t-81.5 -21.5l199 -258q8 -11 8 -18q0 -11 -8 -19t-19 -8q-12 0 -23 14l-215 280h-229v-268q0 -11 -7.5 -18.5t-18.5 -7.5
t-18.5 7.5t-7.5 18.5v652zM392 337q44 0 81.5 11t64.5 31.5t42.5 50t15.5 67.5v2q0 72 -52 112.5t-149 40.5h-239v-315h236zM350 762q-13 0 -13 9q0 6 4 11l62 93q12 18 28 18q14 0 28 -7.5t14 -15.5q0 -7 -11 -18l-80 -77q-9 -8 -15.5 -10.5t-16.5 -2.5z" />
    <glyph glyph-name="racute" unicode="&#x155;" horiz-adv-x="400" 
d="M93 489q0 25 24 25q25 0 25 -25v-124q16 37 40 65.5t52 48t57 29.5t56 10q11 0 18.5 -8t7.5 -19q0 -25 -26 -27q-41 -4 -78 -21t-65 -48.5t-45 -77.5t-17 -108v-188q0 -25 -24 -25q-25 0 -25 25v468zM210 592q-13 0 -13 9q0 6 4 11l62 93q12 18 28 18q14 0 28 -7.5
t14 -15.5q0 -7 -11 -18l-80 -77q-9 -8 -15.5 -10.5t-16.5 -2.5z" />
    <glyph glyph-name="Rcommaaccent" unicode="&#x156;" horiz-adv-x="723" 
d="M104 674q0 11 7.5 18.5t18.5 7.5h268q66 0 115.5 -18.5t81.5 -50.5q25 -25 39 -58.5t14 -71.5v-2q0 -44 -15.5 -78.5t-43 -59.5t-65 -40.5t-81.5 -21.5l199 -258q8 -11 8 -18q0 -11 -8 -19t-19 -8q-12 0 -23 14l-215 280h-229v-268q0 -11 -7.5 -18.5t-18.5 -7.5
t-18.5 7.5t-7.5 18.5v652zM392 337q44 0 81.5 11t64.5 31.5t42.5 50t15.5 67.5v2q0 72 -52 112.5t-149 40.5h-239v-315h236zM346 -142q-14 3 -23 11.5t-9 23.5v6q0 15 10.5 25.5t25.5 10.5t25.5 -10.5t10.5 -29.5v-6q0 -31 -5 -48.5t-19 -31.5q-13 -13 -33 -20.5t-31 -7.5
q-13 0 -13 11q0 10 13 14q27 8 37.5 19t10.5 33z" />
    <glyph glyph-name="rcommaaccent" unicode="&#x157;" horiz-adv-x="400" 
d="M93 489q0 25 24 25q25 0 25 -25v-124q16 37 40 65.5t52 48t57 29.5t56 10q11 0 18.5 -8t7.5 -19q0 -25 -26 -27q-41 -4 -78 -21t-65 -48.5t-45 -77.5t-17 -108v-188q0 -25 -24 -25q-25 0 -25 25v468zM121 -147q-14 3 -23 11.5t-9 23.5v6q0 15 10.5 25.5t25.5 10.5
t25.5 -10.5t10.5 -29.5v-6q0 -31 -5 -48.5t-19 -31.5q-13 -13 -33 -20.5t-31 -7.5q-13 0 -13 11q0 10 13 14q27 8 37.5 19t10.5 33z" />
    <glyph glyph-name="Rcaron" unicode="&#x158;" horiz-adv-x="723" 
d="M104 674q0 11 7.5 18.5t18.5 7.5h268q66 0 115.5 -18.5t81.5 -50.5q25 -25 39 -58.5t14 -71.5v-2q0 -44 -15.5 -78.5t-43 -59.5t-65 -40.5t-81.5 -21.5l199 -258q8 -11 8 -18q0 -11 -8 -19t-19 -8q-12 0 -23 14l-215 280h-229v-268q0 -11 -7.5 -18.5t-18.5 -7.5
t-18.5 7.5t-7.5 18.5v652zM392 337q44 0 81.5 11t64.5 31.5t42.5 50t15.5 67.5v2q0 72 -52 112.5t-149 40.5h-239v-315h236zM415 877q9 8 15.5 10.5t16.5 2.5q13 0 13 -10q0 -5 -5 -12l-72 -88q-7 -8 -13 -13t-15 -5h-8q-9 0 -15 5t-13 13l-72 88q-5 7 -5 12q0 10 14 10
q10 0 17 -2.5t16 -10.5l63 -58z" />
    <glyph glyph-name="rcaron" unicode="&#x159;" horiz-adv-x="400" 
d="M93 489q0 25 24 25q25 0 25 -25v-124q16 37 40 65.5t52 48t57 29.5t56 10q11 0 18.5 -8t7.5 -19q0 -25 -26 -27q-41 -4 -78 -21t-65 -48.5t-45 -77.5t-17 -108v-188q0 -25 -24 -25q-25 0 -25 25v468zM275 707q9 8 15.5 10.5t16.5 2.5q13 0 13 -10q0 -5 -5 -12l-72 -88
q-7 -8 -13 -13t-15 -5h-8q-9 0 -15 5t-13 13l-72 88q-5 7 -5 12q0 10 14 10q10 0 17 -2.5t16 -10.5l63 -58z" />
    <glyph glyph-name="Sacute" unicode="&#x15a;" horiz-adv-x="640" 
d="M341 -10q-79 0 -142.5 24.5t-123.5 73.5q-4 3 -7 8t-3 12q0 11 7.5 18.5t18.5 7.5q9 0 17 -6q52 -48 108 -69.5t128 -21.5q39 0 72 10.5t56 29t36 44t13 55.5v2q0 28 -8.5 50t-31 40t-60.5 32.5t-98 26.5q-63 13 -108 30.5t-73.5 41t-41.5 54.5t-13 71v2q0 39 17 72.5
t47 58.5t71 39t90 14q71 0 123 -18t100 -54q4 -3 7.5 -8t3.5 -13q0 -11 -7.5 -18.5t-18.5 -7.5q-10 0 -17 6q-46 35 -92.5 50.5t-100.5 15.5q-39 0 -70.5 -10.5t-54 -28.5t-34.5 -42t-12 -51v-2q0 -28 8.5 -50.5t31 -41t62.5 -33.5t102 -28q122 -25 176 -70.5t54 -122.5v-2
q0 -42 -17.5 -77.5t-48 -60.5t-73 -39t-93.5 -14zM327 772q-13 0 -13 9q0 6 4 11l62 93q12 18 28 18q14 0 28 -7.5t14 -15.5q0 -7 -11 -18l-80 -77q-9 -8 -15.5 -10.5t-16.5 -2.5z" />
    <glyph glyph-name="sacute" unicode="&#x15b;" horiz-adv-x="497" 
d="M258 -10q-52 0 -105.5 18.5t-92.5 47.5q-3 2 -6 7.5t-3 11.5q0 10 7 17t17 7q8 0 16 -5q80 -58 170 -58q52 0 87.5 26t35.5 71v2q0 22 -11 38t-30 27.5t-43 20t-51 16.5q-32 9 -63 19t-56 25.5t-40.5 38t-15.5 57.5v2q0 31 12.5 56.5t34.5 44.5t53 29.5t68 10.5
q42 0 85 -12.5t80 -33.5q13 -7 13 -22q0 -10 -7 -17t-17 -7q-9 0 -14 4q-68 42 -142 42q-54 0 -85 -25.5t-31 -63.5v-2q0 -21 12 -36t31.5 -26.5t45.5 -20t53 -16.5q31 -9 61 -20t54 -27t38.5 -39t14.5 -57v-2q0 -34 -13.5 -61.5t-37.5 -47t-56 -30t-69 -10.5zM251 592
q-13 0 -13 9q0 6 4 11l62 93q12 18 28 18q14 0 28 -7.5t14 -15.5q0 -7 -11 -18l-80 -77q-9 -8 -15.5 -10.5t-16.5 -2.5z" />
    <glyph glyph-name="Scedilla" unicode="&#x15e;" horiz-adv-x="640" 
d="M573 181q0 -41 -16 -75t-45 -59t-68.5 -39.5t-87.5 -16.5l-55 -113q-5 -9 -10 -14.5t-16 -5.5q-12 0 -23 8t-11 16q0 5 5 15l64 94q-69 5 -125 28.5t-110 68.5q-4 3 -7 8t-3 12q0 11 7.5 18.5t18.5 7.5q9 0 17 -6q52 -48 108 -69.5t128 -21.5q39 0 72 10.5t56 29t36 44
t13 55.5v2q0 28 -8.5 50t-31 40t-60.5 32.5t-98 26.5q-63 13 -108 30.5t-73.5 41t-41.5 54.5t-13 71v2q0 39 17 72.5t47 58.5t71 39t90 14q71 0 123 -18t100 -54q4 -3 7.5 -8t3.5 -13q0 -11 -7.5 -18.5t-18.5 -7.5q-10 0 -17 6q-46 35 -92.5 50.5t-100.5 15.5
q-39 0 -70.5 -10.5t-54 -28.5t-34.5 -42t-12 -51v-2q0 -28 8.5 -50.5t31 -41t62.5 -33.5t102 -28q122 -25 176 -70.5t54 -122.5v-2z" />
    <glyph glyph-name="scedilla" unicode="&#x15f;" horiz-adv-x="497" 
d="M434 139q0 -33 -13 -60t-35.5 -46.5t-53 -30.5t-65.5 -12l-55 -112q-5 -9 -10 -14.5t-16 -5.5q-12 0 -23 8t-11 16q0 5 5 15l65 96q-45 5 -87.5 21.5t-74.5 41.5q-3 2 -6 7.5t-3 11.5q0 10 7 17t17 7q8 0 16 -5q80 -58 170 -58q52 0 87.5 26t35.5 71v2q0 22 -11 38
t-30 27.5t-43 20t-51 16.5q-32 9 -63 19t-56 25.5t-40.5 38t-15.5 57.5v2q0 31 12.5 56.5t34.5 44.5t53 29.5t68 10.5q42 0 85 -12.5t80 -33.5q13 -7 13 -22q0 -10 -7 -17t-17 -7q-9 0 -14 4q-68 42 -142 42q-54 0 -85 -25.5t-31 -63.5v-2q0 -21 12 -36t31.5 -26.5t45.5 -20
t53 -16.5q31 -9 61 -20t54 -27t38.5 -39t14.5 -57v-2z" />
    <glyph glyph-name="Scaron" unicode="&#x160;" horiz-adv-x="640" 
d="M341 -10q-79 0 -142.5 24.5t-123.5 73.5q-4 3 -7 8t-3 12q0 11 7.5 18.5t18.5 7.5q9 0 17 -6q52 -48 108 -69.5t128 -21.5q39 0 72 10.5t56 29t36 44t13 55.5v2q0 28 -8.5 50t-31 40t-60.5 32.5t-98 26.5q-63 13 -108 30.5t-73.5 41t-41.5 54.5t-13 71v2q0 39 17 72.5
t47 58.5t71 39t90 14q71 0 123 -18t100 -54q4 -3 7.5 -8t3.5 -13q0 -11 -7.5 -18.5t-18.5 -7.5q-10 0 -17 6q-46 35 -92.5 50.5t-100.5 15.5q-39 0 -70.5 -10.5t-54 -28.5t-34.5 -42t-12 -51v-2q0 -28 8.5 -50.5t31 -41t62.5 -33.5t102 -28q122 -25 176 -70.5t54 -122.5v-2
q0 -42 -17.5 -77.5t-48 -60.5t-73 -39t-93.5 -14zM392 887q9 8 15.5 10.5t16.5 2.5q13 0 13 -10q0 -5 -5 -12l-72 -88q-7 -8 -13 -13t-15 -5h-8q-9 0 -15 5t-13 13l-72 88q-5 7 -5 12q0 10 14 10q10 0 17 -2.5t16 -10.5l63 -58z" />
    <glyph glyph-name="scaron" unicode="&#x161;" horiz-adv-x="497" 
d="M258 -10q-52 0 -105.5 18.5t-92.5 47.5q-3 2 -6 7.5t-3 11.5q0 10 7 17t17 7q8 0 16 -5q80 -58 170 -58q52 0 87.5 26t35.5 71v2q0 22 -11 38t-30 27.5t-43 20t-51 16.5q-32 9 -63 19t-56 25.5t-40.5 38t-15.5 57.5v2q0 31 12.5 56.5t34.5 44.5t53 29.5t68 10.5
q42 0 85 -12.5t80 -33.5q13 -7 13 -22q0 -10 -7 -17t-17 -7q-9 0 -14 4q-68 42 -142 42q-54 0 -85 -25.5t-31 -63.5v-2q0 -21 12 -36t31.5 -26.5t45.5 -20t53 -16.5q31 -9 61 -20t54 -27t38.5 -39t14.5 -57v-2q0 -34 -13.5 -61.5t-37.5 -47t-56 -30t-69 -10.5zM316 707
q9 8 15.5 10.5t16.5 2.5q13 0 13 -10q0 -5 -5 -12l-72 -88q-7 -8 -13 -13t-15 -5h-8q-9 0 -15 5t-13 13l-72 88q-5 7 -5 12q0 10 14 10q10 0 17 -2.5t16 -10.5l63 -58z" />
    <glyph glyph-name="Tcommaaccent" unicode="&#x162;" horiz-adv-x="648" 
d="M298 652h-224q-10 0 -17 7t-7 17t7 17t17 7h500q10 0 17 -7t7 -17t-7 -17t-17 -7h-224v-630q0 -11 -7.5 -18.5t-18.5 -7.5t-18.5 7.5t-7.5 18.5v630zM319 -147q-14 3 -23 11.5t-9 23.5v6q0 15 10.5 25.5t25.5 10.5t25.5 -10.5t10.5 -29.5v-6q0 -31 -5 -48.5t-19 -31.5
q-13 -13 -33 -20.5t-31 -7.5q-13 0 -13 11q0 10 13 14q27 8 37.5 19t10.5 33z" />
    <glyph glyph-name="tcommaaccent" unicode="&#x163;" horiz-adv-x="400" 
d="M263 -9q-30 0 -56 8t-45.5 25.5t-30.5 44t-11 62.5v334h-55q-9 0 -16 7t-7 16t7 15.5t16 6.5h55v142q0 25 24 25q25 0 25 -25v-142h160q9 0 16 -7t7 -16t-7 -15.5t-16 -6.5h-160v-329q0 -55 28.5 -77t73.5 -22q26 0 39.5 5t18.5 5q8 0 15 -6.5t7 -15.5q0 -15 -16 -21
q-15 -5 -32.5 -9t-39.5 -4zM221 -147q-14 3 -23 11.5t-9 23.5v6q0 15 10.5 25.5t25.5 10.5t25.5 -10.5t10.5 -29.5v-6q0 -31 -5 -48.5t-19 -31.5q-13 -13 -33 -20.5t-31 -7.5q-13 0 -13 11q0 10 13 14q27 8 37.5 19t10.5 33z" />
    <glyph glyph-name="Tcaron" unicode="&#x164;" horiz-adv-x="648" 
d="M298 652h-224q-10 0 -17 7t-7 17t7 17t17 7h500q10 0 17 -7t7 -17t-7 -17t-17 -7h-224v-630q0 -11 -7.5 -18.5t-18.5 -7.5t-18.5 7.5t-7.5 18.5v630zM388 877q9 8 15.5 10.5t16.5 2.5q13 0 13 -10q0 -5 -5 -12l-72 -88q-7 -8 -13 -13t-15 -5h-8q-9 0 -15 5t-13 13l-72 88
q-5 7 -5 12q0 10 14 10q10 0 17 -2.5t16 -10.5l63 -58z" />
    <glyph glyph-name="tcaron" unicode="&#x165;" horiz-adv-x="400" 
d="M263 -9q-30 0 -56 8t-45.5 25.5t-30.5 44t-11 62.5v334h-55q-9 0 -16 7t-7 16t7 15.5t16 6.5h55v142q0 25 24 25q25 0 25 -25v-142h160q9 0 16 -7t7 -16t-7 -15.5t-16 -6.5h-160v-329q0 -55 28.5 -77t73.5 -22q26 0 39.5 5t18.5 5q8 0 15 -6.5t7 -15.5q0 -15 -16 -21
q-15 -5 -32.5 -9t-39.5 -4zM302 706q5 26 28 26h13q17 0 17 -17q0 -5 -2 -11t-4 -13l-33 -97q-6 -18 -17 -18q-7 0 -11.5 4t-2.5 15z" />
    <glyph glyph-name="Utilde" unicode="&#x168;" horiz-adv-x="760" 
d="M317 791q-4 -5 -7.5 -8.5t-8.5 -2.5q-16 1 -18 17q1 1 1 7q14 30 28 44t36 13q12 -1 26 -6.5t28 -12.5l10 -5q10 -7 20 -8q22 0 33 23q3 3 7.5 7t9.5 4q18 -2 18 -19q-1 -1 -1 -2t-0.5 -1.5t-0.5 -1.5q-22 -59 -67 -58q-12 1 -26 6t-26 13q-2 0 -5.5 2.5t-4.5 3.5
q-5 2 -10 4.5t-11 2.5q-9 0 -16.5 -4.5t-14.5 -17.5zM318 792q0 -1 -1 -1zM380 -11q-63 0 -115.5 19.5t-91 58t-59.5 94.5t-21 130v387q0 11 7.5 18.5t18.5 7.5t18.5 -7.5t7.5 -18.5v-382q0 -126 62.5 -193t174.5 -67q106 0 169.5 64t63.5 191v387q0 11 7.5 18.5t18.5 7.5
t18.5 -7.5t7.5 -18.5v-381q0 -75 -21 -132.5t-59 -96.5t-90.5 -59t-116.5 -20z" />
    <glyph glyph-name="utilde" unicode="&#x169;" horiz-adv-x="613" 
d="M232 614q-4 -5 -7.5 -8.5t-8.5 -2.5q-16 1 -18 17q1 1 1 7q14 30 28 44t36 13q12 -1 26 -6.5t28 -12.5l10 -5q10 -7 20 -8q22 0 33 23q3 3 7.5 7t9.5 4q18 -2 18 -19q-1 -1 -1 -2t-0.5 -1.5t-0.5 -1.5q-22 -59 -67 -58q-12 1 -26 6t-26 13q-2 0 -5.5 2.5t-4.5 3.5
q-5 2 -10 4.5t-11 2.5q-9 0 -16.5 -4.5t-14.5 -17.5zM233 615q0 -1 -1 -1zM520 21q0 -25 -24 -25q-25 0 -25 25v74q-26 -45 -70 -76t-114 -31q-48 0 -86 15.5t-64.5 43.5t-40 66.5t-13.5 84.5v291q0 25 24 25q25 0 25 -25v-282q0 -79 42 -126.5t120 -47.5q37 0 69.5 13.5
t56.5 37.5t37.5 57.5t13.5 73.5v274q0 25 24 25q25 0 25 -25v-468z" />
    <glyph glyph-name="Umacron" unicode="&#x16a;" horiz-adv-x="760" 
d="M380 -11q-63 0 -115.5 19.5t-91 58t-59.5 94.5t-21 130v387q0 11 7.5 18.5t18.5 7.5t18.5 -7.5t7.5 -18.5v-382q0 -126 62.5 -193t174.5 -67q106 0 169.5 64t63.5 191v387q0 11 7.5 18.5t18.5 7.5t18.5 -7.5t7.5 -18.5v-381q0 -75 -21 -132.5t-59 -96.5t-90.5 -59
t-116.5 -20zM248 791q-10 0 -17 7t-7 17t7 17t17 7h264q10 0 17 -7t7 -17t-7 -17t-17 -7h-264z" />
    <glyph glyph-name="umacron" unicode="&#x16b;" horiz-adv-x="613" 
d="M520 21q0 -25 -24 -25q-25 0 -25 25v74q-26 -45 -70 -76t-114 -31q-48 0 -86 15.5t-64.5 43.5t-40 66.5t-13.5 84.5v291q0 25 24 25q25 0 25 -25v-282q0 -79 42 -126.5t120 -47.5q37 0 69.5 13.5t56.5 37.5t37.5 57.5t13.5 73.5v274q0 25 24 25q25 0 25 -25v-468z
M169 621q-10 0 -17 7t-7 17t7 17t17 7h264q10 0 17 -7t7 -17t-7 -17t-17 -7h-264z" />
    <glyph glyph-name="Ubreve" unicode="&#x16c;" horiz-adv-x="760" 
d="M380 -11q-63 0 -115.5 19.5t-91 58t-59.5 94.5t-21 130v387q0 11 7.5 18.5t18.5 7.5t18.5 -7.5t7.5 -18.5v-382q0 -126 62.5 -193t174.5 -67q106 0 169.5 64t63.5 191v387q0 11 7.5 18.5t18.5 7.5t18.5 -7.5t7.5 -18.5v-381q0 -75 -21 -132.5t-59 -96.5t-90.5 -59
t-116.5 -20zM380 763q-40 0 -70.5 17t-48.5 51q-5 8 -8 19t-3 19q0 22 19 22q9 0 13.5 -4.5t7.5 -12.5q10 -26 31 -43t59 -17t59 17t31 43q3 8 7.5 12.5t13.5 4.5q19 0 19 -22q0 -8 -3 -19t-8 -19q-18 -34 -48.5 -51t-70.5 -17z" />
    <glyph glyph-name="ubreve" unicode="&#x16d;" horiz-adv-x="613" 
d="M520 21q0 -25 -24 -25q-25 0 -25 25v74q-26 -45 -70 -76t-114 -31q-48 0 -86 15.5t-64.5 43.5t-40 66.5t-13.5 84.5v291q0 25 24 25q25 0 25 -25v-282q0 -79 42 -126.5t120 -47.5q37 0 69.5 13.5t56.5 37.5t37.5 57.5t13.5 73.5v274q0 25 24 25q25 0 25 -25v-468z
M301 593q-40 0 -70.5 17t-48.5 51q-5 8 -8 19t-3 19q0 22 19 22q9 0 13.5 -4.5t7.5 -12.5q10 -26 31 -43t59 -17t59 17t31 43q3 8 7.5 12.5t13.5 4.5q19 0 19 -22q0 -8 -3 -19t-8 -19q-18 -34 -48.5 -51t-70.5 -17z" />
    <glyph glyph-name="Uring" unicode="&#x16e;" horiz-adv-x="760" 
d="M380 -11q-63 0 -115.5 19.5t-91 58t-59.5 94.5t-21 130v387q0 11 7.5 18.5t18.5 7.5t18.5 -7.5t7.5 -18.5v-382q0 -126 62.5 -193t174.5 -67q106 0 169.5 64t63.5 191v387q0 11 7.5 18.5t18.5 7.5t18.5 -7.5t7.5 -18.5v-381q0 -75 -21 -132.5t-59 -96.5t-90.5 -59
t-116.5 -20zM380 753q-20 0 -37.5 7.5t-31 20t-21.5 29.5t-8 36v2q0 19 8 36t21.5 29.5t31 20t37.5 7.5q19 0 37 -7.5t31.5 -20t21.5 -29.5t8 -36v-2q0 -19 -8 -36t-21.5 -29.5t-31.5 -20t-37 -7.5zM380 785q25 0 43.5 18t18.5 43v2q0 25 -18 43t-44 18t-44 -18t-18 -43v-2
q0 -25 18.5 -43t43.5 -18z" />
    <glyph glyph-name="uring" unicode="&#x16f;" horiz-adv-x="613" 
d="M520 21q0 -25 -24 -25q-25 0 -25 25v74q-26 -45 -70 -76t-114 -31q-48 0 -86 15.5t-64.5 43.5t-40 66.5t-13.5 84.5v291q0 25 24 25q25 0 25 -25v-282q0 -79 42 -126.5t120 -47.5q37 0 69.5 13.5t56.5 37.5t37.5 57.5t13.5 73.5v274q0 25 24 25q25 0 25 -25v-468z
M301 588q-20 0 -37.5 7.5t-31 20t-21.5 29.5t-8 36v2q0 19 8 36t21.5 29.5t31 20t37.5 7.5q19 0 37 -7.5t31.5 -20t21.5 -29.5t8 -36v-2q0 -19 -8 -36t-21.5 -29.5t-31.5 -20t-37 -7.5zM301 620q25 0 43.5 18t18.5 43v2q0 25 -18 43t-44 18t-44 -18t-18 -43v-2
q0 -25 18.5 -43t43.5 -18z" />
    <glyph glyph-name="Uhungarumlaut" unicode="&#x170;" horiz-adv-x="760" 
d="M380 -11q-63 0 -115.5 19.5t-91 58t-59.5 94.5t-21 130v387q0 11 7.5 18.5t18.5 7.5t18.5 -7.5t7.5 -18.5v-382q0 -126 62.5 -193t174.5 -67q106 0 169.5 64t63.5 191v387q0 11 7.5 18.5t18.5 7.5t18.5 -7.5t7.5 -18.5v-381q0 -75 -21 -132.5t-59 -96.5t-90.5 -59
t-116.5 -20zM442 762q-13 0 -13 9q0 6 4 11l63 94q11 17 27 17q14 0 26.5 -7t12.5 -15q0 -7 -10 -17l-78 -79q-9 -8 -15.5 -10.5t-16.5 -2.5zM290 762q-13 0 -13 9q0 6 4 11l63 94q11 17 27 17q14 0 26.5 -7t12.5 -15q0 -7 -10 -17l-78 -79q-9 -8 -15.5 -10.5t-16.5 -2.5z
" />
    <glyph glyph-name="uhungarumlaut" unicode="&#x171;" horiz-adv-x="613" 
d="M520 21q0 -25 -24 -25q-25 0 -25 25v74q-26 -45 -70 -76t-114 -31q-48 0 -86 15.5t-64.5 43.5t-40 66.5t-13.5 84.5v291q0 25 24 25q25 0 25 -25v-282q0 -79 42 -126.5t120 -47.5q37 0 69.5 13.5t56.5 37.5t37.5 57.5t13.5 73.5v274q0 25 24 25q25 0 25 -25v-468z
M363 592q-13 0 -13 9q0 6 4 11l63 94q11 17 27 17q14 0 26.5 -7t12.5 -15q0 -7 -10 -17l-78 -79q-9 -8 -15.5 -10.5t-16.5 -2.5zM211 592q-13 0 -13 9q0 6 4 11l63 94q11 17 27 17q14 0 26.5 -7t12.5 -15q0 -7 -10 -17l-78 -79q-9 -8 -15.5 -10.5t-16.5 -2.5z" />
    <glyph glyph-name="Uogonek" unicode="&#x172;" horiz-adv-x="760" 
d="M311 -85q0 21 10 39t30 37q-57 4 -104.5 25.5t-81.5 59.5t-53 92t-19 123v387q0 11 7.5 18.5t18.5 7.5t18.5 -7.5t7.5 -18.5v-382q0 -126 62.5 -193t174.5 -67q106 0 169.5 64t63.5 191v387q0 11 7.5 18.5t18.5 7.5t18.5 -7.5t7.5 -18.5v-381q0 -72 -19 -127.5t-53.5 -94
t-83 -60t-106.5 -25.5q-23 -20 -33.5 -35t-10.5 -34q0 -21 14.5 -31t38.5 -15q16 -3 21.5 -7.5t5.5 -12.5q0 -18 -20 -18q-7 0 -25 2.5t-37 10.5t-33.5 23.5t-14.5 41.5z" />
    <glyph glyph-name="uogonek" unicode="&#x173;" horiz-adv-x="613" 
d="M520 17q0 -8 -3 -13.5t-11 -12.5q-23 -20 -34.5 -35t-11.5 -35q0 -21 14.5 -31t38.5 -15q16 -3 21.5 -7.5t5.5 -12.5q0 -18 -20 -18q-7 0 -25 2.5t-37 10.5t-33.5 23.5t-14.5 41.5t15.5 48t45.5 45v87q-26 -45 -70 -76t-114 -31q-48 0 -86 15.5t-64.5 43.5t-40 66.5
t-13.5 84.5v291q0 25 24 25q25 0 25 -25v-282q0 -79 42 -126.5t120 -47.5q37 0 69.5 13.5t56.5 37.5t37.5 57.5t13.5 73.5v274q0 25 24 25q25 0 25 -25v-472z" />
    <glyph glyph-name="Wcircumflex" unicode="&#x174;" horiz-adv-x="1102" 
d="M63 664q-3 7 -3 13q0 11 8 19t19 8t18 -7.5t10 -16.5l213 -603l199 607q3 8 8.5 14t16.5 6h2q10 0 16 -6t9 -14l199 -607l214 606q7 21 25 21q10 0 18 -8t8 -18q0 -5 -4 -14l-234 -649q-4 -10 -10 -16.5t-17 -6.5h-2q-11 0 -17.5 6.5t-9.5 16.5l-198 588l-198 -588
q-3 -10 -9.5 -16.5t-17.5 -6.5h-2q-19 0 -27 23zM487 775q-9 -8 -15.5 -10.5t-16.5 -2.5q-13 0 -13 10q0 5 5 12l72 88q7 8 13 13t15 5h8q9 0 15 -5t13 -13l72 -88q5 -7 5 -12q0 -10 -14 -10q-10 0 -17 2.5t-16 10.5l-63 58z" />
    <glyph glyph-name="wcircumflex" unicode="&#x175;" horiz-adv-x="861" 
d="M256 -7q-20 0 -27 22l-167 459q-4 9 -4 16q0 10 7.5 17t18.5 7t17 -6t9 -15l148 -431l148 433q7 19 24 19h2q11 0 16.5 -5.5t8.5 -13.5l148 -433l149 433q2 8 7.5 13.5t16.5 5.5t18 -7t7 -16q0 -8 -4 -17l-167 -459q-7 -22 -27 -22h-2q-19 0 -27 23l-145 417l-146 -417
q-8 -23 -27 -23h-2zM366 605q-9 -8 -15.5 -10.5t-16.5 -2.5q-13 0 -13 10q0 5 5 12l72 88q7 8 13 13t15 5h8q9 0 15 -5t13 -13l72 -88q5 -7 5 -12q0 -10 -14 -10q-10 0 -17 2.5t-16 10.5l-63 58z" />
    <glyph glyph-name="Ycircumflex" unicode="&#x176;" horiz-adv-x="716" 
d="M332 277l-273 385q-5 8 -5 16q0 11 8 18.5t19 7.5q13 0 24 -15l254 -365l255 365q5 6 10 10.5t13 4.5q10 0 18 -7.5t8 -17.5q0 -5 -2.5 -10t-5.5 -10l-271 -381v-256q0 -11 -7.5 -18.5t-18.5 -7.5t-18.5 7.5t-7.5 18.5v255zM294 775q-9 -8 -15.5 -10.5t-16.5 -2.5
q-13 0 -13 10q0 5 5 12l72 88q7 8 13 13t15 5h8q9 0 15 -5t13 -13l72 -88q5 -7 5 -12q0 -10 -14 -10q-10 0 -17 2.5t-16 10.5l-63 58z" />
    <glyph glyph-name="ycircumflex" unicode="&#x177;" horiz-adv-x="588" 
d="M155 -163q-26 0 -46.5 4t-40.5 12q-14 5 -14 21q0 10 6.5 16.5t16.5 6.5q7 0 16 -4q12 -5 27 -7.5t38 -2.5q42 0 70 28t53 85l3 7l-228 471q-4 9 -4 15q0 11 7.5 18t18.5 7t16.5 -6t9.5 -14l204 -440l178 442q7 18 24 18q25 0 25 -25q0 -6 -3 -13l-207 -494
q-34 -80 -74.5 -112.5t-95.5 -32.5zM234 605q-9 -8 -15.5 -10.5t-16.5 -2.5q-13 0 -13 10q0 5 5 12l72 88q7 8 13 13t15 5h8q9 0 15 -5t13 -13l72 -88q5 -7 5 -12q0 -10 -14 -10q-10 0 -17 2.5t-16 10.5l-63 58z" />
    <glyph glyph-name="Ydieresis" unicode="&#x178;" horiz-adv-x="716" 
d="M332 277l-273 385q-5 8 -5 16q0 11 8 18.5t19 7.5q13 0 24 -15l254 -365l255 365q5 6 10 10.5t13 4.5q10 0 18 -7.5t8 -17.5q0 -5 -2.5 -10t-5.5 -10l-271 -381v-256q0 -11 -7.5 -18.5t-18.5 -7.5t-18.5 7.5t-7.5 18.5v255zM440 849q15 0 25 -9.5t10 -24.5v-20
q0 -15 -10 -24.5t-25 -9.5t-25 9.5t-10 24.5v20q0 15 10 24.5t25 9.5zM276 849q15 0 25 -9.5t10 -24.5v-20q0 -15 -10 -24.5t-25 -9.5t-25 9.5t-10 24.5v20q0 15 10 24.5t25 9.5z" />
    <glyph glyph-name="Zacute" unicode="&#x179;" horiz-adv-x="688" 
d="M96 0q-10 0 -17.5 7t-7.5 15v1q0 12 9 22l467 608h-442q-10 0 -17 6.5t-7 16.5t7 17t17 7h488q10 0 17.5 -7t7.5 -15v-1q0 -12 -9 -22l-467 -608h459q10 0 17 -6.5t7 -16.5t-7 -17t-17 -7h-505zM352 762q-13 0 -13 9q0 6 4 11l62 93q12 18 28 18q14 0 28 -7.5t14 -15.5
q0 -7 -11 -18l-80 -77q-9 -8 -15.5 -10.5t-16.5 -2.5z" />
    <glyph glyph-name="zacute" unicode="&#x17a;" horiz-adv-x="554" 
d="M84 0q-9 0 -16 6t-7 14v1q0 10 9 21l356 424h-336q-9 0 -15.5 6.5t-6.5 15.5t6.5 15.5t15.5 6.5h383q9 0 16 -6t7 -14v-1q0 -11 -9 -21l-356 -424h350q9 0 15.5 -6.5t6.5 -15.5t-6.5 -15.5t-15.5 -6.5h-397zM281 592q-13 0 -13 9q0 6 4 11l62 93q12 18 28 18
q14 0 28 -7.5t14 -15.5q0 -7 -11 -18l-80 -77q-9 -8 -15.5 -10.5t-16.5 -2.5z" />
    <glyph glyph-name="Zdotaccent" unicode="&#x17b;" horiz-adv-x="688" 
d="M96 0q-10 0 -17.5 7t-7.5 15v1q0 12 9 22l467 608h-442q-10 0 -17 6.5t-7 16.5t7 17t17 7h488q10 0 17.5 -7t7.5 -15v-1q0 -12 -9 -22l-467 -608h459q10 0 17 -6.5t7 -16.5t-7 -17t-17 -7h-505zM389 796q0 -16 -10 -25.5t-26 -9.5t-26 9.5t-10 25.5v19q0 16 10 25.5
t26 9.5t26 -9.5t10 -25.5v-19z" />
    <glyph glyph-name="zdotaccent" unicode="&#x17c;" horiz-adv-x="554" 
d="M84 0q-9 0 -16 6t-7 14v1q0 10 9 21l356 424h-336q-9 0 -15.5 6.5t-6.5 15.5t6.5 15.5t15.5 6.5h383q9 0 16 -6t7 -14v-1q0 -11 -9 -21l-356 -424h350q9 0 15.5 -6.5t6.5 -15.5t-6.5 -15.5t-15.5 -6.5h-397zM318 626q0 -16 -10 -25.5t-26 -9.5t-26 9.5t-10 25.5v19
q0 16 10 25.5t26 9.5t26 -9.5t10 -25.5v-19z" />
    <glyph glyph-name="Zcaron" unicode="&#x17d;" horiz-adv-x="688" 
d="M96 0q-10 0 -17.5 7t-7.5 15v1q0 12 9 22l467 608h-442q-10 0 -17 6.5t-7 16.5t7 17t17 7h488q10 0 17.5 -7t7.5 -15v-1q0 -12 -9 -22l-467 -608h459q10 0 17 -6.5t7 -16.5t-7 -17t-17 -7h-505zM417 877q9 8 15.5 10.5t16.5 2.5q13 0 13 -10q0 -5 -5 -12l-72 -88
q-7 -8 -13 -13t-15 -5h-8q-9 0 -15 5t-13 13l-72 88q-5 7 -5 12q0 10 14 10q10 0 17 -2.5t16 -10.5l63 -58z" />
    <glyph glyph-name="zcaron" unicode="&#x17e;" horiz-adv-x="554" 
d="M84 0q-9 0 -16 6t-7 14v1q0 10 9 21l356 424h-336q-9 0 -15.5 6.5t-6.5 15.5t6.5 15.5t15.5 6.5h383q9 0 16 -6t7 -14v-1q0 -11 -9 -21l-356 -424h350q9 0 15.5 -6.5t6.5 -15.5t-6.5 -15.5t-15.5 -6.5h-397zM346 707q9 8 15.5 10.5t16.5 2.5q13 0 13 -10q0 -5 -5 -12
l-72 -88q-7 -8 -13 -13t-15 -5h-8q-9 0 -15 5t-13 13l-72 88q-5 7 -5 12q0 10 14 10q10 0 17 -2.5t16 -10.5l63 -58z" />
    <glyph glyph-name="florin" unicode="&#x192;" horiz-adv-x="506" 
d="M94 -5q-38 0 -38 22t31 22q67 0 82 82l49 263h-90q-9 0 -16 6.5t-7 15.5q0 10 7 16.5t16 6.5h98l26 136q14 75 48.5 107.5t94.5 32.5q17 0 30.5 -1t28.5 -5q20 -5 20 -23q0 -9 -6.5 -15t-15.5 -6q-5 0 -18.5 3t-33.5 3q-42 0 -63.5 -22.5t-31.5 -76.5l-25 -133h136
q9 0 16 -7t7 -16t-7 -15.5t-16 -6.5h-144l-50 -266q-24 -123 -128 -123z" />
    <glyph glyph-name="Ohorn" unicode="&#x1a0;" horiz-adv-x="850" 
d="M424 -12q-80 0 -144.5 29.5t-110.5 79t-71 114.5t-25 137v2q0 72 25.5 137.5t71.5 115.5t111 79.5t145 29.5q43 0 82 -9h84q22 0 34.5 4.5t17.5 13t6 20.5t1 27v7q0 9 7 16t18 7q10 0 17 -6.5t7 -16.5v-5q0 -52 -19 -78.5t-75 -27.5q40 -24 72 -57.5t54 -74t33.5 -86.5
t11.5 -94v-2q0 -72 -25.5 -137.5t-71.5 -115.5t-111.5 -79.5t-144.5 -29.5zM426 35q65 0 119.5 24.5t94 67t61.5 99.5t22 122v2q0 65 -22.5 122.5t-62 100t-94.5 67.5t-120 25t-119.5 -24.5t-94 -67t-61.5 -99.5t-22 -122v-2q0 -65 22.5 -122.5t62 -100t94.5 -67.5t120 -25z
" />
    <glyph glyph-name="ohorn" unicode="&#x1a1;" horiz-adv-x="640" 
d="M319 -12q-57 0 -104.5 21.5t-82.5 57.5t-54.5 84t-19.5 102v2q0 54 19.5 102t55 85t83.5 58.5t105 21.5q36 0 69 -9h71q22 0 34 5t17 13.5t6 20.5t1 26v7q0 9 7 16t18 7q10 0 17 -6.5t7 -16.5v-5q0 -52 -19 -78t-77 -28q51 -37 80.5 -94t29.5 -123v-2q0 -54 -19.5 -102
t-55 -85t-83.5 -58.5t-105 -21.5zM321 34q45 0 83.5 17.5t66 47t43 69.5t15.5 85v2q0 46 -16 86.5t-44.5 70.5t-67 47t-82.5 17q-45 0 -83.5 -17.5t-66 -47t-43 -69.5t-15.5 -85v-2q0 -47 16 -87t44.5 -70t67 -47t82.5 -17z" />
    <glyph glyph-name="Uhorn" unicode="&#x1af;" horiz-adv-x="760" 
d="M380 -11q-63 0 -115.5 19.5t-91 58t-59.5 94.5t-21 130v387q0 11 7.5 18.5t18.5 7.5t18.5 -7.5t7.5 -18.5v-382q0 -126 62.5 -193t174.5 -67q106 0 169.5 64t63.5 191v387q0 11 7 17q4 6 11 7q6 2 8 2t3.5 -0.5t3.5 -0.5q19 1 30 6t16 13.5t6 20t1 25.5v7q0 9 7 16t18 7
q10 0 17 -6.5t7 -16.5v-5q0 -49 -17 -75.5t-66 -30.5v-367q0 -75 -21 -132.5t-59 -96.5t-90.5 -59t-116.5 -20z" />
    <glyph glyph-name="uhorn" unicode="&#x1b0;" horiz-adv-x="613" 
d="M604 580q0 -50 -17 -76t-67 -30v-453q0 -25 -24 -25q-25 0 -25 25v74q-26 -45 -70 -76t-114 -31q-48 0 -86 15.5t-64.5 43.5t-40 66.5t-13.5 84.5v291q0 25 24 25q25 0 25 -25v-282q0 -79 42 -126.5t120 -47.5q37 0 69.5 13.5t56.5 37.5t37.5 57.5t13.5 73.5v274
q0 7 3 13q3 7 11 10q8 2 10 2t4 -0.5t4 -0.5q19 1 30 6t15.5 13t5.5 19.5t1 26.5v7q0 9 7 16t18 7q10 0 17 -6.5t7 -16.5v-5z" />
    <glyph glyph-name="Aringacute" unicode="&#x1fa;" horiz-adv-x="790" 
d="M731 32q2 -6 2 -11q0 -9 -7.5 -17t-18.5 -8q-9 0 -15 6t-10 14l-82 180h-413l-82 -181q-7 -19 -24 -19q-11 0 -18 7.5t-7 16.5q0 2 2 10l299 648q-26 11 -43 33.5t-17 51.5v2q0 19 8 36t21.5 29.5t31 20t37.5 7.5q19 0 37 -7.5t31.5 -20t21.5 -29.5t8 -36v-2
q0 -29 -17 -51.5t-43 -33.5zM395 702q25 0 43.5 18t18.5 43v2q0 25 -18 43t-44 18t-44 -18t-18 -43v-2q0 -25 18.5 -43t43.5 -18zM578 243l-184 405l-185 -405h369zM395 891q-13 0 -13 9q0 6 4 11l62 93q12 18 28 18q14 0 28 -7.5t14 -15.5q0 -7 -11 -18l-80 -77
q-9 -8 -15.5 -10.5t-16.5 -2.5z" />
    <glyph glyph-name="aringacute" unicode="&#x1fb;" horiz-adv-x="574" 
d="M248 -12q-36 0 -71 10t-63 30t-45.5 50t-17.5 70v2q0 40 16.5 71t45.5 52t70 32t91 11q54 0 93 -6t76 -16v22q0 78 -44.5 117t-123.5 39q-42 0 -77.5 -9.5t-67.5 -24.5q-6 -3 -11 -3q-9 0 -16 7t-7 16t5 14.5t9 7.5q39 17 79 27.5t89 10.5q105 0 161 -56q52 -52 52 -144
v-297q0 -25 -24 -25t-24 25v64q-13 -18 -31.5 -35.5t-42.5 -31t-54.5 -22t-66.5 -8.5zM251 34q39 0 74 11.5t61.5 32t42 49.5t15.5 64v58q-32 8 -75 15.5t-98 7.5q-81 0 -124.5 -32.5t-43.5 -86.5v-2q0 -28 12 -49.5t32.5 -36.5t47.5 -23t56 -8zM287 593q-20 0 -37.5 7.5
t-31 20t-21.5 29.5t-8 36v2q0 19 8 36t21.5 29.5t31 20t37.5 7.5q19 0 37 -7.5t31.5 -20t21.5 -29.5t8 -36v-2q0 -19 -8 -36t-21.5 -29.5t-31.5 -20t-37 -7.5zM287 625q25 0 43.5 18t18.5 43v2q0 25 -18 43t-44 18t-44 -18t-18 -43v-2q0 -25 18.5 -43t43.5 -18zM286 817
q-13 0 -13 9q0 6 4 11l62 93q12 18 28 18q14 0 28 -7.5t14 -15.5q0 -7 -11 -18l-80 -77q-9 -8 -15.5 -10.5t-16.5 -2.5z" />
    <glyph glyph-name="AEacute" unicode="&#x1fc;" horiz-adv-x="1045" 
d="M35 19q0 6 5 14l394 651q5 8 10.5 12t15.5 4h497q10 0 17 -7t7 -17t-7 -17t-17 -7h-411v-275h366q10 0 17 -7t7 -17t-7 -17t-17 -7h-366v-281h416q10 0 17 -7t7 -17t-7 -17t-17 -7h-442q-11 0 -18.5 7.5t-7.5 18.5v170h-300l-113 -188q-7 -13 -22 -13q-10 0 -17 7t-7 17z
M494 243v410h-26l-246 -410h272zM509 762q-13 0 -13 9q0 6 4 11l62 93q12 18 28 18q14 0 28 -7.5t14 -15.5q0 -7 -11 -18l-80 -77q-9 -8 -15.5 -10.5t-16.5 -2.5z" />
    <glyph glyph-name="aeacute" unicode="&#x1fd;" horiz-adv-x="954" 
d="M851 279q-3 39 -15.5 74.5t-35 63t-55.5 44t-77 16.5q-38 0 -71 -15t-58 -41.5t-40.5 -63t-18.5 -78.5h371zM246 34q66 0 116.5 30.5t87.5 76.5q-10 25 -15.5 52t-6.5 57q-32 8 -72.5 15t-89.5 7q-79 0 -121 -32.5t-42 -86.5v-2q0 -28 11.5 -49.5t31 -36.5t45.5 -23
t55 -8zM877 71q-38 -38 -84 -60.5t-115 -22.5q-63 0 -117.5 29t-88.5 83q-40 -46 -96.5 -79t-132.5 -33q-35 0 -69.5 10t-61.5 30t-44 50t-17 70v2q0 40 16 71t45 52t69 32t88 11q51 0 87 -6t73 -16v22q0 78 -41.5 117t-119.5 39q-38 0 -71.5 -9t-66.5 -25q-6 -3 -11 -3
q-9 0 -16 7t-7 16t5 14.5t9 7.5q39 18 77.5 28t83.5 10q76 0 126 -32t67 -96q30 60 83.5 96t122.5 36q54 0 97 -20.5t73.5 -56.5t47 -84t16.5 -103q0 -9 -7.5 -16t-16.5 -7h-400q3 -48 20.5 -85t45 -63t62.5 -39.5t72 -13.5q55 0 94.5 20t70.5 50q7 7 16 7q10 0 17 -6.5
t7 -16.5q0 -9 -8 -17zM476 592q-13 0 -13 9q0 6 4 11l62 93q12 18 28 18q14 0 28 -7.5t14 -15.5q0 -7 -11 -18l-80 -77q-9 -8 -15.5 -10.5t-16.5 -2.5z" />
    <glyph glyph-name="Oslashacute" unicode="&#x1fe;" horiz-adv-x="850" 
d="M424 -12q-69 0 -126 22t-102 60l-67 -71q-8 -8 -18 -8q-9 0 -15 6t-6 15q0 10 6 16l68 73q-45 51 -68 114t-23 133v2q0 72 25.5 137.5t71.5 115.5t111 79.5t145 29.5q69 0 126 -22.5t102 -60.5l67 72q8 8 18 8q9 0 15 -6t6 -15q0 -10 -6 -16l-69 -74q45 -49 68.5 -112.5
t23.5 -133.5v-2q0 -72 -25.5 -137.5t-71.5 -115.5t-111.5 -79.5t-144.5 -29.5zM426 35q65 0 119.5 24.5t94 67t61.5 99.5t22 122v2q0 60 -19.5 113.5t-54.5 95.5l-420 -449q39 -35 89 -55t108 -20zM127 350q0 -61 19.5 -114.5t54.5 -95.5l419 450q-38 35 -88 55t-108 20
q-65 0 -119.5 -24.5t-94 -67t-61.5 -99.5t-22 -122v-2zM424 772q-13 0 -13 9q0 6 4 11l62 93q12 18 28 18q14 0 28 -7.5t14 -15.5q0 -7 -11 -18l-80 -77q-9 -8 -15.5 -10.5t-16.5 -2.5z" />
    <glyph glyph-name="oslashacute" unicode="&#x1ff;" horiz-adv-x="640" 
d="M319 -12q-49 0 -91.5 16t-75.5 44l-48 -49q-8 -8 -18 -8q-8 0 -14 5.5t-6 13.5q0 9 6 15l50 52q-30 36 -47 80.5t-17 95.5v2q0 54 19.5 102t55 85t83.5 58.5t105 21.5q49 0 91.5 -16t75.5 -45l48 52q8 8 18 8q8 0 14 -5.5t6 -13.5q0 -9 -6 -15l-51 -54q31 -35 48 -80
t17 -96v-2q0 -54 -19.5 -102t-55 -85t-83.5 -58.5t-105 -21.5zM321 34q45 0 83.5 17.5t66 47t43 69.5t15.5 85v2q0 81 -48 141l-297 -310q28 -25 62.5 -38.5t74.5 -13.5zM111 255q0 -82 47 -141l298 309q-28 25 -62.5 39t-74.5 14q-45 0 -83.5 -17.5t-66 -47t-43 -69.5
t-15.5 -85v-2zM319 592q-13 0 -13 9q0 6 4 11l62 93q12 18 28 18q14 0 28 -7.5t14 -15.5q0 -7 -11 -18l-80 -77q-9 -8 -15.5 -10.5t-16.5 -2.5z" />
    <glyph glyph-name="Scommaaccent" unicode="&#x218;" horiz-adv-x="640" 
d="M341 -10q-79 0 -142.5 24.5t-123.5 73.5q-4 3 -7 8t-3 12q0 11 7.5 18.5t18.5 7.5q9 0 17 -6q52 -48 108 -69.5t128 -21.5q39 0 72 10.5t56 29t36 44t13 55.5v2q0 28 -8.5 50t-31 40t-60.5 32.5t-98 26.5q-63 13 -108 30.5t-73.5 41t-41.5 54.5t-13 71v2q0 39 17 72.5
t47 58.5t71 39t90 14q71 0 123 -18t100 -54q4 -3 7.5 -8t3.5 -13q0 -11 -7.5 -18.5t-18.5 -7.5q-10 0 -17 6q-46 35 -92.5 50.5t-100.5 15.5q-39 0 -70.5 -10.5t-54 -28.5t-34.5 -42t-12 -51v-2q0 -28 8.5 -50.5t31 -41t62.5 -33.5t102 -28q122 -25 176 -70.5t54 -122.5v-2
q0 -42 -17.5 -77.5t-48 -60.5t-73 -39t-93.5 -14zM323 -147q-14 3 -23 11.5t-9 23.5v6q0 15 10.5 25.5t25.5 10.5t25.5 -10.5t10.5 -29.5v-6q0 -31 -5 -48.5t-19 -31.5q-13 -13 -33 -20.5t-31 -7.5q-13 0 -13 11q0 10 13 14q27 8 37.5 19t10.5 33z" />
    <glyph glyph-name="scommaaccent" unicode="&#x219;" horiz-adv-x="497" 
d="M258 -10q-52 0 -105.5 18.5t-92.5 47.5q-3 2 -6 7.5t-3 11.5q0 10 7 17t17 7q8 0 16 -5q80 -58 170 -58q52 0 87.5 26t35.5 71v2q0 22 -11 38t-30 27.5t-43 20t-51 16.5q-32 9 -63 19t-56 25.5t-40.5 38t-15.5 57.5v2q0 31 12.5 56.5t34.5 44.5t53 29.5t68 10.5
q42 0 85 -12.5t80 -33.5q13 -7 13 -22q0 -10 -7 -17t-17 -7q-9 0 -14 4q-68 42 -142 42q-54 0 -85 -25.5t-31 -63.5v-2q0 -21 12 -36t31.5 -26.5t45.5 -20t53 -16.5q31 -9 61 -20t54 -27t38.5 -39t14.5 -57v-2q0 -34 -13.5 -61.5t-37.5 -47t-56 -30t-69 -10.5zM247 -147
q-14 3 -23 11.5t-9 23.5v6q0 15 10.5 25.5t25.5 10.5t25.5 -10.5t10.5 -29.5v-6q0 -31 -5 -48.5t-19 -31.5q-13 -13 -33 -20.5t-31 -7.5q-13 0 -13 11q0 10 13 14q27 8 37.5 19t10.5 33z" />
    <glyph glyph-name="schwa" unicode="&#x259;" horiz-adv-x="584" 
d="M103 231q3 -39 15.5 -74.5t35 -63t55.5 -44t77 -16.5q38 0 71 15t58 41.5t40.5 63t18.5 78.5h-371zM77 439q38 38 84 60.5t115 22.5q50 0 95.5 -19t80 -54t54.5 -84t20 -109v-2q0 -56 -18.5 -104.5t-51 -84.5t-76.5 -56.5t-96 -20.5q-54 0 -97 20.5t-73.5 56.5t-47 84
t-16.5 103q0 9 7.5 16t16.5 7h400q-3 48 -20.5 85t-45 63t-62.5 39.5t-72 13.5q-55 0 -94.5 -20t-70.5 -50q-7 -7 -16 -7q-10 0 -17 6.5t-7 16.5q0 9 8 17z" />
    <glyph glyph-name="circumflex" unicode="&#x2c6;" horiz-adv-x="500" 
d="M186 605q-9 -8 -15.5 -10.5t-16.5 -2.5q-13 0 -13 10q0 5 5 12l72 88q7 8 13 13t15 5h8q9 0 15 -5t13 -13l72 -88q5 -7 5 -12q0 -10 -14 -10q-10 0 -17 2.5t-16 10.5l-63 58z" />
    <glyph glyph-name="caron" unicode="&#x2c7;" horiz-adv-x="500" 
d="M314 707q9 8 15.5 10.5t16.5 2.5q13 0 13 -10q0 -5 -5 -12l-72 -88q-7 -8 -13 -13t-15 -5h-8q-9 0 -15 5t-13 13l-72 88q-5 7 -5 12q0 10 14 10q10 0 17 -2.5t16 -10.5l63 -58z" />
    <glyph glyph-name="breve" unicode="&#x2d8;" horiz-adv-x="500" 
d="M250 593q-40 0 -70.5 17t-48.5 51q-5 8 -8 19t-3 19q0 22 19 22q9 0 13.5 -4.5t7.5 -12.5q10 -26 31 -43t59 -17t59 17t31 43q3 8 7.5 12.5t13.5 4.5q19 0 19 -22q0 -8 -3 -19t-8 -19q-18 -34 -48.5 -51t-70.5 -17z" />
    <glyph glyph-name="dotaccent" unicode="&#x2d9;" horiz-adv-x="500" 
d="M286 626q0 -16 -10 -25.5t-26 -9.5t-26 9.5t-10 25.5v19q0 16 10 25.5t26 9.5t26 -9.5t10 -25.5v-19z" />
    <glyph glyph-name="ring" unicode="&#x2da;" horiz-adv-x="500" 
d="M250 593q-20 0 -37.5 7.5t-31 20t-21.5 29.5t-8 36v2q0 19 8 36t21.5 29.5t31 20t37.5 7.5q19 0 37 -7.5t31.5 -20t21.5 -29.5t8 -36v-2q0 -19 -8 -36t-21.5 -29.5t-31.5 -20t-37 -7.5zM250 625q25 0 43.5 18t18.5 43v2q0 25 -18 43t-44 18t-44 -18t-18 -43v-2
q0 -25 18.5 -43t43.5 -18z" />
    <glyph glyph-name="ogonek" unicode="&#x2db;" horiz-adv-x="500" 
d="M195 -85q0 29 19 52.5t54 50.5l35 -17q-30 -24 -44 -41.5t-14 -38.5t14.5 -31t38.5 -15q16 -3 21.5 -7.5t5.5 -12.5q0 -18 -20 -18q-7 0 -25 2.5t-37 10.5t-33.5 23.5t-14.5 41.5z" />
    <glyph glyph-name="tilde" unicode="&#x2dc;" horiz-adv-x="500" 
d="M141 598q-2 -5 -6 -9.5t-12 -4.5q-18 0 -18 17q0 4 2 12q14 45 33 60t46 15q14 0 31 -6.5t34 -14t33.5 -14t29.5 -6.5q17 0 26.5 9t18.5 29q2 5 6.5 9.5t11.5 4.5q18 0 18 -17q0 -4 -2 -12q-14 -45 -33 -60t-46 -15q-14 0 -31 6.5t-34 14t-33.5 14t-29.5 6.5
q-17 0 -26.5 -9t-18.5 -29z" />
    <glyph glyph-name="hungarumlaut" unicode="&#x2dd;" horiz-adv-x="500" 
d="M274 592q-13 0 -13 9q0 6 4 11l63 94q11 17 27 17q14 0 26.5 -7t12.5 -15q0 -7 -10 -17l-78 -79q-9 -8 -15.5 -10.5t-16.5 -2.5zM122 592q-13 0 -13 9q0 6 4 11l63 94q11 17 27 17q14 0 26.5 -7t12.5 -15q0 -7 -10 -17l-78 -79q-9 -8 -15.5 -10.5t-16.5 -2.5z" />
    <glyph glyph-name="commaaccent" unicode="&#x326;" horiz-adv-x="500" 
d="M246 -147q-14 3 -23 11.5t-9 23.5v6q0 15 10.5 25.5t25.5 10.5t25.5 -10.5t10.5 -29.5v-6q0 -31 -5 -48.5t-19 -31.5q-13 -13 -33 -20.5t-31 -7.5q-13 0 -13 11q0 10 13 14q27 8 37.5 19t10.5 33z" />
    <glyph glyph-name="Wgrave" unicode="&#x1e80;" horiz-adv-x="1102" 
d="M63 664q-3 7 -3 13q0 11 8 19t19 8t18 -7.5t10 -16.5l213 -603l199 607q3 8 8.5 14t16.5 6h2q10 0 16 -6t9 -14l199 -607l214 606q7 21 25 21q10 0 18 -8t8 -18q0 -5 -4 -14l-234 -649q-4 -10 -10 -16.5t-17 -6.5h-2q-11 0 -17.5 6.5t-9.5 16.5l-198 588l-198 -588
q-3 -10 -9.5 -16.5t-17.5 -6.5h-2q-19 0 -27 23zM552 762q-10 0 -16.5 2.5t-15.5 10.5l-80 77q-11 11 -11 18q0 8 14 15.5t28 7.5q16 0 28 -18l62 -93q4 -5 4 -11q0 -9 -13 -9z" />
    <glyph glyph-name="wgrave" unicode="&#x1e81;" horiz-adv-x="861" 
d="M256 -7q-20 0 -27 22l-167 459q-4 9 -4 16q0 10 7.5 17t18.5 7t17 -6t9 -15l148 -431l148 433q7 19 24 19h2q11 0 16.5 -5.5t8.5 -13.5l148 -433l149 433q2 8 7.5 13.5t16.5 5.5t18 -7t7 -16q0 -8 -4 -17l-167 -459q-7 -22 -27 -22h-2q-19 0 -27 23l-145 417l-146 -417
q-8 -23 -27 -23h-2zM431 592q-10 0 -16.5 2.5t-15.5 10.5l-80 77q-11 11 -11 18q0 8 14 15.5t28 7.5q16 0 28 -18l62 -93q4 -5 4 -11q0 -9 -13 -9z" />
    <glyph glyph-name="Wacute" unicode="&#x1e82;" horiz-adv-x="1102" 
d="M63 664q-3 7 -3 13q0 11 8 19t19 8t18 -7.5t10 -16.5l213 -603l199 607q3 8 8.5 14t16.5 6h2q10 0 16 -6t9 -14l199 -607l214 606q7 21 25 21q10 0 18 -8t8 -18q0 -5 -4 -14l-234 -649q-4 -10 -10 -16.5t-17 -6.5h-2q-11 0 -17.5 6.5t-9.5 16.5l-198 588l-198 -588
q-3 -10 -9.5 -16.5t-17.5 -6.5h-2q-19 0 -27 23zM550 762q-13 0 -13 9q0 6 4 11l62 93q12 18 28 18q14 0 28 -7.5t14 -15.5q0 -7 -11 -18l-80 -77q-9 -8 -15.5 -10.5t-16.5 -2.5z" />
    <glyph glyph-name="wacute" unicode="&#x1e83;" horiz-adv-x="861" 
d="M256 -7q-20 0 -27 22l-167 459q-4 9 -4 16q0 10 7.5 17t18.5 7t17 -6t9 -15l148 -431l148 433q7 19 24 19h2q11 0 16.5 -5.5t8.5 -13.5l148 -433l149 433q2 8 7.5 13.5t16.5 5.5t18 -7t7 -16q0 -8 -4 -17l-167 -459q-7 -22 -27 -22h-2q-19 0 -27 23l-145 417l-146 -417
q-8 -23 -27 -23h-2zM429 592q-13 0 -13 9q0 6 4 11l62 93q12 18 28 18q14 0 28 -7.5t14 -15.5q0 -7 -11 -18l-80 -77q-9 -8 -15.5 -10.5t-16.5 -2.5z" />
    <glyph glyph-name="Wdieresis" unicode="&#x1e84;" horiz-adv-x="1102" 
d="M63 664q-3 7 -3 13q0 11 8 19t19 8t18 -7.5t10 -16.5l213 -603l199 607q3 8 8.5 14t16.5 6h2q10 0 16 -6t9 -14l199 -607l214 606q7 21 25 21q10 0 18 -8t8 -18q0 -5 -4 -14l-234 -649q-4 -10 -10 -16.5t-17 -6.5h-2q-11 0 -17.5 6.5t-9.5 16.5l-198 588l-198 -588
q-3 -10 -9.5 -16.5t-17.5 -6.5h-2q-19 0 -27 23zM633 849q15 0 25 -9.5t10 -24.5v-20q0 -15 -10 -24.5t-25 -9.5t-25 9.5t-10 24.5v20q0 15 10 24.5t25 9.5zM469 849q15 0 25 -9.5t10 -24.5v-20q0 -15 -10 -24.5t-25 -9.5t-25 9.5t-10 24.5v20q0 15 10 24.5t25 9.5z" />
    <glyph glyph-name="wdieresis" unicode="&#x1e85;" horiz-adv-x="861" 
d="M256 -7q-20 0 -27 22l-167 459q-4 9 -4 16q0 10 7.5 17t18.5 7t17 -6t9 -15l148 -431l148 433q7 19 24 19h2q11 0 16.5 -5.5t8.5 -13.5l148 -433l149 433q2 8 7.5 13.5t16.5 5.5t18 -7t7 -16q0 -8 -4 -17l-167 -459q-7 -22 -27 -22h-2q-19 0 -27 23l-145 417l-146 -417
q-8 -23 -27 -23h-2zM512 679q15 0 25 -9.5t10 -24.5v-20q0 -15 -10 -24.5t-25 -9.5t-25 9.5t-10 24.5v20q0 15 10 24.5t25 9.5zM348 679q15 0 25 -9.5t10 -24.5v-20q0 -15 -10 -24.5t-25 -9.5t-25 9.5t-10 24.5v20q0 15 10 24.5t25 9.5z" />
    <glyph glyph-name="uni1EA0" unicode="&#x1ea0;" horiz-adv-x="790" 
d="M355 -131q0 17 11.5 28.5t28.5 11.5t28.5 -11.5t11.5 -28.5t-11.5 -28.5t-28.5 -11.5t-28.5 11.5t-11.5 28.5zM56 18q0 9 4 16l299 648q5 11 13 18t22 7h2q14 0 22 -7t13 -18l298 -646q4 -7 4 -16q0 -10 -7 -17t-18 -7q-9 0 -15.5 6t-10.5 14l-82 180h-413l-82 -181
q-7 -19 -25 -19q-10 0 -17 6.5t-7 15.5zM578 243l-184 405l-185 -405h369z" />
    <glyph glyph-name="uni1EA1" unicode="&#x1ea1;" horiz-adv-x="574" 
d="M232 -131q0 17 11.5 28.5t28.5 11.5t28.5 -11.5t11.5 -28.5t-11.5 -28.5t-28.5 -11.5t-28.5 11.5t-11.5 28.5zM248 -12q-36 0 -71 10t-63 30t-45.5 50t-17.5 70v2q0 40 16.5 71t45.5 52t70 32t91 11q54 0 93 -6t76 -16v22q0 78 -44.5 117t-123.5 39q-42 0 -77.5 -9.5
t-67.5 -24.5q-6 -3 -11 -3q-9 0 -16 7t-7 16t5 14.5t9 7.5q39 17 79 27.5t89 10.5q105 0 161 -56q52 -52 52 -144v-297q0 -25 -24 -25t-24 25v64q-13 -18 -31.5 -35.5t-42.5 -31t-54.5 -22t-66.5 -8.5zM251 34q39 0 74 11.5t61.5 32t42 49.5t15.5 64v58q-32 8 -75 15.5
t-98 7.5q-81 0 -124.5 -32.5t-43.5 -86.5v-2q0 -28 12 -49.5t32.5 -36.5t47.5 -23t56 -8z" />
    <glyph glyph-name="uni1EA2" unicode="&#x1ea2;" horiz-adv-x="790" 
d="M399 772q-16 0 -18 14q-1 7 -1.5 18.5t-1.5 19.5q1 5 5.5 9.5t9.5 6.5q20 2 33 9.5t13 24.5q0 13 -9 22t-26 9q-14 0 -24 -6t-18 -14q-7 -7 -15 -7q-7 0 -13.5 6t-6.5 13q0 13 4 14q16 17 33 26t41 9q40 0 59 -21t19 -51q0 -29 -20 -46t-45 -21v-22q-3 -13 -18 -13h-1z
M56 18q0 9 4 16l299 648q5 11 13 18t22 7h2q14 0 22 -7t13 -18l298 -646q4 -7 4 -16q0 -10 -7 -17t-18 -7q-9 0 -15.5 6t-10.5 14l-82 180h-413l-82 -181q-7 -19 -25 -19q-10 0 -17 6.5t-7 15.5zM578 243l-184 405l-185 -405h369z" />
    <glyph glyph-name="uni1EA3" unicode="&#x1ea3;" horiz-adv-x="574" 
d="M319 592q-16 0 -18 14q-1 7 -1.5 18.5t-1.5 19.5q1 5 5.5 9.5t9.5 6.5q20 2 33 9.5t13 24.5q0 13 -9 22t-26 9q-14 0 -24 -6t-18 -14q-7 -7 -15 -7q-7 0 -13.5 6t-6.5 13q0 13 4 14q16 17 33 26t41 9q40 0 59 -21t19 -51q0 -29 -20 -46t-45 -21v-22q-3 -13 -18 -13h-1z
M248 -12q-36 0 -71 10t-63 30t-45.5 50t-17.5 70v2q0 40 16.5 71t45.5 52t70 32t91 11q54 0 93 -6t76 -16v22q0 78 -44.5 117t-123.5 39q-42 0 -77.5 -9.5t-67.5 -24.5q-6 -3 -11 -3q-9 0 -16 7t-7 16t5 14.5t9 7.5q39 17 79 27.5t89 10.5q105 0 161 -56q52 -52 52 -144
v-297q0 -25 -24 -25t-24 25v64q-13 -18 -31.5 -35.5t-42.5 -31t-54.5 -22t-66.5 -8.5zM251 34q39 0 74 11.5t61.5 32t42 49.5t15.5 64v58q-32 8 -75 15.5t-98 7.5q-81 0 -124.5 -32.5t-43.5 -86.5v-2q0 -28 12 -49.5t32.5 -36.5t47.5 -23t56 -8z" />
    <glyph glyph-name="uni1EA4" unicode="&#x1ea4;" horiz-adv-x="790" 
d="M492 885q-13 0 -13 9q0 6 4 11l62 93q12 18 28 18q14 0 28 -7.5t14 -15.5q0 -7 -11 -18l-80 -77q-9 -8 -15.5 -10.5t-16.5 -2.5zM56 18q0 9 4 16l299 648q5 11 13 18t22 7h2q14 0 22 -7t13 -18l298 -646q4 -7 4 -16q0 -10 -7 -17t-18 -7q-9 0 -15.5 6t-10.5 14l-82 180
h-413l-82 -181q-7 -19 -25 -19q-10 0 -17 6.5t-7 15.5zM578 243l-184 405l-185 -405h369zM330 785q-9 -8 -15.5 -10.5t-16.5 -2.5q-13 0 -13 10q0 5 5 12l72 88q7 8 13 13t15 5h8q9 0 15 -5t13 -13l72 -88q5 -7 5 -12q0 -10 -14 -10q-10 0 -17 2.5t-16 10.5l-63 58z" />
    <glyph glyph-name="uni1EA5" unicode="&#x1ea5;" horiz-adv-x="574" 
d="M401 705q-13 0 -13 9q0 6 4 11l62 93q12 18 28 18q14 0 28 -7.5t14 -15.5q0 -7 -11 -18l-80 -77q-9 -8 -15.5 -10.5t-16.5 -2.5zM248 -12q-36 0 -71 10t-63 30t-45.5 50t-17.5 70v2q0 40 16.5 71t45.5 52t70 32t91 11q54 0 93 -6t76 -16v22q0 78 -44.5 117t-123.5 39
q-42 0 -77.5 -9.5t-67.5 -24.5q-6 -3 -11 -3q-9 0 -16 7t-7 16t5 14.5t9 7.5q39 17 79 27.5t89 10.5q105 0 161 -56q52 -52 52 -144v-297q0 -25 -24 -25t-24 25v64q-13 -18 -31.5 -35.5t-42.5 -31t-54.5 -22t-66.5 -8.5zM251 34q39 0 74 11.5t61.5 32t42 49.5t15.5 64v58
q-32 8 -75 15.5t-98 7.5q-81 0 -124.5 -32.5t-43.5 -86.5v-2q0 -28 12 -49.5t32.5 -36.5t47.5 -23t56 -8zM239 605q-9 -8 -15.5 -10.5t-16.5 -2.5q-13 0 -13 10q0 5 5 12l72 88q7 8 13 13t15 5h8q9 0 15 -5t13 -13l72 -88q5 -7 5 -12q0 -10 -14 -10q-10 0 -17 2.5t-16 10.5
l-63 58z" />
    <glyph glyph-name="uni1EA6" unicode="&#x1ea6;" horiz-adv-x="790" 
d="M526 885q-10 0 -16.5 2.5t-15.5 10.5l-80 77q-11 11 -11 18q0 8 14 15.5t28 7.5q16 0 28 -18l62 -93q4 -5 4 -11q0 -9 -13 -9zM56 18q0 9 4 16l299 648q5 11 13 18t22 7h2q14 0 22 -7t13 -18l298 -646q4 -7 4 -16q0 -10 -7 -17t-18 -7q-9 0 -15.5 6t-10.5 14l-82 180
h-413l-82 -181q-7 -19 -25 -19q-10 0 -17 6.5t-7 15.5zM578 243l-184 405l-185 -405h369zM330 785q-9 -8 -15.5 -10.5t-16.5 -2.5q-13 0 -13 10q0 5 5 12l72 88q7 8 13 13t15 5h8q9 0 15 -5t13 -13l72 -88q5 -7 5 -12q0 -10 -14 -10q-10 0 -17 2.5t-16 10.5l-63 58z" />
    <glyph glyph-name="uni1EA7" unicode="&#x1ea7;" horiz-adv-x="574" 
d="M435 705q-10 0 -16.5 2.5t-15.5 10.5l-80 77q-11 11 -11 18q0 8 14 15.5t28 7.5q16 0 28 -18l62 -93q4 -5 4 -11q0 -9 -13 -9zM248 -12q-36 0 -71 10t-63 30t-45.5 50t-17.5 70v2q0 40 16.5 71t45.5 52t70 32t91 11q54 0 93 -6t76 -16v22q0 78 -44.5 117t-123.5 39
q-42 0 -77.5 -9.5t-67.5 -24.5q-6 -3 -11 -3q-9 0 -16 7t-7 16t5 14.5t9 7.5q39 17 79 27.5t89 10.5q105 0 161 -56q52 -52 52 -144v-297q0 -25 -24 -25t-24 25v64q-13 -18 -31.5 -35.5t-42.5 -31t-54.5 -22t-66.5 -8.5zM251 34q39 0 74 11.5t61.5 32t42 49.5t15.5 64v58
q-32 8 -75 15.5t-98 7.5q-81 0 -124.5 -32.5t-43.5 -86.5v-2q0 -28 12 -49.5t32.5 -36.5t47.5 -23t56 -8zM239 605q-9 -8 -15.5 -10.5t-16.5 -2.5q-13 0 -13 10q0 5 5 12l72 88q7 8 13 13t15 5h8q9 0 15 -5t13 -13l72 -88q5 -7 5 -12q0 -10 -14 -10q-10 0 -17 2.5t-16 10.5
l-63 58z" />
    <glyph glyph-name="uni1EA8" unicode="&#x1ea8;" horiz-adv-x="790" 
d="M495 885q-16 0 -18 14q-1 7 -1.5 18.5t-1.5 19.5q1 5 5.5 9.5t9.5 6.5q20 2 33 9.5t13 24.5q0 13 -9 22t-26 9q-14 0 -24 -6t-18 -14q-7 -7 -15 -7q-7 0 -13.5 6t-6.5 13q0 13 4 14q16 17 33 26t41 9q40 0 59 -21t19 -51q0 -29 -20 -46t-45 -21v-22q-3 -13 -18 -13h-1z
M56 18q0 9 4 16l299 648q5 11 13 18t22 7h2q14 0 22 -7t13 -18l298 -646q4 -7 4 -16q0 -10 -7 -17t-18 -7q-9 0 -15.5 6t-10.5 14l-82 180h-413l-82 -181q-7 -19 -25 -19q-10 0 -17 6.5t-7 15.5zM578 243l-184 405l-185 -405h369zM330 785q-9 -8 -15.5 -10.5t-16.5 -2.5
q-13 0 -13 10q0 5 5 12l72 88q7 8 13 13t15 5h8q9 0 15 -5t13 -13l72 -88q5 -7 5 -12q0 -10 -14 -10q-10 0 -17 2.5t-16 10.5l-63 58z" />
    <glyph glyph-name="uni1EA9" unicode="&#x1ea9;" horiz-adv-x="574" 
d="M404 705q-16 0 -18 14q-1 7 -1.5 18.5t-1.5 19.5q1 5 5.5 9.5t9.5 6.5q20 2 33 9.5t13 24.5q0 13 -9 22t-26 9q-14 0 -24 -6t-18 -14q-7 -7 -15 -7q-7 0 -13.5 6t-6.5 13q0 13 4 14q16 17 33 26t41 9q40 0 59 -21t19 -51q0 -29 -20 -46t-45 -21v-22q-3 -13 -18 -13h-1z
M248 -12q-36 0 -71 10t-63 30t-45.5 50t-17.5 70v2q0 40 16.5 71t45.5 52t70 32t91 11q54 0 93 -6t76 -16v22q0 78 -44.5 117t-123.5 39q-42 0 -77.5 -9.5t-67.5 -24.5q-6 -3 -11 -3q-9 0 -16 7t-7 16t5 14.5t9 7.5q39 17 79 27.5t89 10.5q105 0 161 -56q52 -52 52 -144
v-297q0 -25 -24 -25t-24 25v64q-13 -18 -31.5 -35.5t-42.5 -31t-54.5 -22t-66.5 -8.5zM251 34q39 0 74 11.5t61.5 32t42 49.5t15.5 64v58q-32 8 -75 15.5t-98 7.5q-81 0 -124.5 -32.5t-43.5 -86.5v-2q0 -28 12 -49.5t32.5 -36.5t47.5 -23t56 -8zM239 605q-9 -8 -15.5 -10.5
t-16.5 -2.5q-13 0 -13 10q0 5 5 12l72 88q7 8 13 13t15 5h8q9 0 15 -5t13 -13l72 -88q5 -7 5 -12q0 -10 -14 -10q-10 0 -17 2.5t-16 10.5l-63 58z" />
    <glyph glyph-name="uni1EAA" unicode="&#x1eaa;" horiz-adv-x="790" 
d="M322 951q-4 -5 -7.5 -8.5t-8.5 -2.5q-16 1 -18 17q1 1 1 7q14 30 28 44t36 13q12 -1 26 -6.5t28 -12.5l10 -5q10 -7 20 -8q22 0 33 23q3 3 7.5 7t9.5 4q18 -2 18 -19q-1 -1 -1 -2t-0.5 -1.5t-0.5 -1.5q-22 -59 -67 -58q-12 1 -26 6t-26 13q-2 0 -5.5 2.5t-4.5 3.5
q-5 2 -10 4.5t-11 2.5q-9 0 -16.5 -4.5t-14.5 -17.5zM323 952q0 -1 -1 -1zM56 18q0 9 4 16l299 648q5 11 13 18t22 7h2q14 0 22 -7t13 -18l298 -646q4 -7 4 -16q0 -10 -7 -17t-18 -7q-9 0 -15.5 6t-10.5 14l-82 180h-413l-82 -181q-7 -19 -25 -19q-10 0 -17 6.5t-7 15.5z
M578 243l-184 405l-185 -405h369zM330 785q-9 -8 -15.5 -10.5t-16.5 -2.5q-13 0 -13 10q0 5 5 12l72 88q7 8 13 13t15 5h8q9 0 15 -5t13 -13l72 -88q5 -7 5 -12q0 -10 -14 -10q-10 0 -17 2.5t-16 10.5l-63 58z" />
    <glyph glyph-name="uni1EAB" unicode="&#x1eab;" horiz-adv-x="574" 
d="M231 771q-4 -5 -7.5 -8.5t-8.5 -2.5q-16 1 -18 17q1 1 1 7q14 30 28 44t36 13q12 -1 26 -6.5t28 -12.5l10 -5q10 -7 20 -8q22 0 33 23q3 3 7.5 7t9.5 4q18 -2 18 -19q-1 -1 -1 -2t-0.5 -1.5t-0.5 -1.5q-22 -59 -67 -58q-12 1 -26 6t-26 13q-2 0 -5.5 2.5t-4.5 3.5
q-5 2 -10 4.5t-11 2.5q-9 0 -16.5 -4.5t-14.5 -17.5zM248 -12q-36 0 -71 10t-63 30t-45.5 50t-17.5 70v2q0 40 16.5 71t45.5 52t70 32t91 11q54 0 93 -6t76 -16v22q0 78 -44.5 117t-123.5 39q-42 0 -77.5 -9.5t-67.5 -24.5q-6 -3 -11 -3q-9 0 -16 7t-7 16t5 14.5t9 7.5
q39 17 79 27.5t89 10.5q105 0 161 -56q52 -52 52 -144v-297q0 -25 -24 -25t-24 25v64q-13 -18 -31.5 -35.5t-42.5 -31t-54.5 -22t-66.5 -8.5zM251 34q39 0 74 11.5t61.5 32t42 49.5t15.5 64v58q-32 8 -75 15.5t-98 7.5q-81 0 -124.5 -32.5t-43.5 -86.5v-2q0 -28 12 -49.5
t32.5 -36.5t47.5 -23t56 -8zM239 605q-9 -8 -15.5 -10.5t-16.5 -2.5q-13 0 -13 10q0 5 5 12l72 88q7 8 13 13t15 5h8q9 0 15 -5t13 -13l72 -88q5 -7 5 -12q0 -10 -14 -10q-10 0 -17 2.5t-16 10.5l-63 58z" />
    <glyph glyph-name="uni1EAC" unicode="&#x1eac;" horiz-adv-x="790" 
d="M355 -131q0 17 11.5 28.5t28.5 11.5t28.5 -11.5t11.5 -28.5t-11.5 -28.5t-28.5 -11.5t-28.5 11.5t-11.5 28.5zM56 18q0 9 4 16l299 648q5 11 13 18t22 7h2q14 0 22 -7t13 -18l298 -646q4 -7 4 -16q0 -10 -7 -17t-18 -7q-9 0 -15.5 6t-10.5 14l-82 180h-413l-82 -181
q-7 -19 -25 -19q-10 0 -17 6.5t-7 15.5zM578 243l-184 405l-185 -405h369zM330 785q-9 -8 -15.5 -10.5t-16.5 -2.5q-13 0 -13 10q0 5 5 12l72 88q7 8 13 13t15 5h8q9 0 15 -5t13 -13l72 -88q5 -7 5 -12q0 -10 -14 -10q-10 0 -17 2.5t-16 10.5l-63 58z" />
    <glyph glyph-name="uni1EAD" unicode="&#x1ead;" horiz-adv-x="574" 
d="M232 -131q0 17 11.5 28.5t28.5 11.5t28.5 -11.5t11.5 -28.5t-11.5 -28.5t-28.5 -11.5t-28.5 11.5t-11.5 28.5zM248 -12q-36 0 -71 10t-63 30t-45.5 50t-17.5 70v2q0 40 16.5 71t45.5 52t70 32t91 11q54 0 93 -6t76 -16v22q0 78 -44.5 117t-123.5 39q-42 0 -77.5 -9.5
t-67.5 -24.5q-6 -3 -11 -3q-9 0 -16 7t-7 16t5 14.5t9 7.5q39 17 79 27.5t89 10.5q105 0 161 -56q52 -52 52 -144v-297q0 -25 -24 -25t-24 25v64q-13 -18 -31.5 -35.5t-42.5 -31t-54.5 -22t-66.5 -8.5zM251 34q39 0 74 11.5t61.5 32t42 49.5t15.5 64v58q-32 8 -75 15.5
t-98 7.5q-81 0 -124.5 -32.5t-43.5 -86.5v-2q0 -28 12 -49.5t32.5 -36.5t47.5 -23t56 -8zM239 605q-9 -8 -15.5 -10.5t-16.5 -2.5q-13 0 -13 10q0 5 5 12l72 88q7 8 13 13t15 5h8q9 0 15 -5t13 -13l72 -88q5 -7 5 -12q0 -10 -14 -10q-10 0 -17 2.5t-16 10.5l-63 58z" />
    <glyph glyph-name="uni1EAE" unicode="&#x1eae;" horiz-adv-x="790" 
d="M385 907q-13 0 -13 9q0 6 4 11l62 93q12 18 28 18q14 0 28 -7.5t14 -15.5q0 -7 -11 -18l-80 -77q-9 -8 -15.5 -10.5t-16.5 -2.5zM56 18q0 9 4 16l299 648q5 11 13 18t22 7h2q14 0 22 -7t13 -18l298 -646q4 -7 4 -16q0 -10 -7 -17t-18 -7q-9 0 -15.5 6t-10.5 14l-82 180
h-413l-82 -181q-7 -19 -25 -19q-10 0 -17 6.5t-7 15.5zM578 243l-184 405l-185 -405h369zM394 772q-32 0 -56.5 14t-38.5 38q-4 8 -7.5 19t-3.5 16q0 23 20 23q8 0 13 -5.5t7 -11.5q6 -18 22 -31.5t44 -13.5q26 0 42.5 13.5t23.5 31.5q2 6 7.5 11.5t13.5 5.5q20 0 20 -23
q0 -5 -3.5 -16t-7.5 -19q-14 -24 -39 -38t-57 -14z" />
    <glyph glyph-name="uni1EAF" unicode="&#x1eaf;" horiz-adv-x="574" 
d="M308 727q-13 0 -13 9q0 6 4 11l62 93q12 18 28 18q14 0 28 -7.5t14 -15.5q0 -7 -11 -18l-80 -77q-9 -8 -15.5 -10.5t-16.5 -2.5zM248 -12q-36 0 -71 10t-63 30t-45.5 50t-17.5 70v2q0 40 16.5 71t45.5 52t70 32t91 11q54 0 93 -6t76 -16v22q0 78 -44.5 117t-123.5 39
q-42 0 -77.5 -9.5t-67.5 -24.5q-6 -3 -11 -3q-9 0 -16 7t-7 16t5 14.5t9 7.5q39 17 79 27.5t89 10.5q105 0 161 -56q52 -52 52 -144v-297q0 -25 -24 -25t-24 25v64q-13 -18 -31.5 -35.5t-42.5 -31t-54.5 -22t-66.5 -8.5zM251 34q39 0 74 11.5t61.5 32t42 49.5t15.5 64v58
q-32 8 -75 15.5t-98 7.5q-81 0 -124.5 -32.5t-43.5 -86.5v-2q0 -28 12 -49.5t32.5 -36.5t47.5 -23t56 -8zM317 592q-32 0 -56.5 14t-38.5 38q-4 8 -7.5 19t-3.5 16q0 23 20 23q8 0 13 -5.5t7 -11.5q6 -18 22 -31.5t44 -13.5q26 0 42.5 13.5t23.5 31.5q2 6 7.5 11.5t13.5 5.5
q20 0 20 -23q0 -5 -3.5 -16t-7.5 -19q-14 -24 -39 -38t-57 -14z" />
    <glyph glyph-name="uni1EB0" unicode="&#x1eb0;" horiz-adv-x="790" 
d="M410 907q-10 0 -16.5 2.5t-15.5 10.5l-80 77q-11 11 -11 18q0 8 14 15.5t28 7.5q16 0 28 -18l62 -93q4 -5 4 -11q0 -9 -13 -9zM56 18q0 9 4 16l299 648q5 11 13 18t22 7h2q14 0 22 -7t13 -18l298 -646q4 -7 4 -16q0 -10 -7 -17t-18 -7q-9 0 -15.5 6t-10.5 14l-82 180
h-413l-82 -181q-7 -19 -25 -19q-10 0 -17 6.5t-7 15.5zM578 243l-184 405l-185 -405h369zM394 772q-32 0 -56.5 14t-38.5 38q-4 8 -7.5 19t-3.5 16q0 23 20 23q8 0 13 -5.5t7 -11.5q6 -18 22 -31.5t44 -13.5q26 0 42.5 13.5t23.5 31.5q2 6 7.5 11.5t13.5 5.5q20 0 20 -23
q0 -5 -3.5 -16t-7.5 -19q-14 -24 -39 -38t-57 -14z" />
    <glyph glyph-name="uni1EB1" unicode="&#x1eb1;" horiz-adv-x="574" 
d="M333 727q-10 0 -16.5 2.5t-15.5 10.5l-80 77q-11 11 -11 18q0 8 14 15.5t28 7.5q16 0 28 -18l62 -93q4 -5 4 -11q0 -9 -13 -9zM248 -12q-36 0 -71 10t-63 30t-45.5 50t-17.5 70v2q0 40 16.5 71t45.5 52t70 32t91 11q54 0 93 -6t76 -16v22q0 78 -44.5 117t-123.5 39
q-42 0 -77.5 -9.5t-67.5 -24.5q-6 -3 -11 -3q-9 0 -16 7t-7 16t5 14.5t9 7.5q39 17 79 27.5t89 10.5q105 0 161 -56q52 -52 52 -144v-297q0 -25 -24 -25t-24 25v64q-13 -18 -31.5 -35.5t-42.5 -31t-54.5 -22t-66.5 -8.5zM251 34q39 0 74 11.5t61.5 32t42 49.5t15.5 64v58
q-32 8 -75 15.5t-98 7.5q-81 0 -124.5 -32.5t-43.5 -86.5v-2q0 -28 12 -49.5t32.5 -36.5t47.5 -23t56 -8zM317 592q-32 0 -56.5 14t-38.5 38q-4 8 -7.5 19t-3.5 16q0 23 20 23q8 0 13 -5.5t7 -11.5q6 -18 22 -31.5t44 -13.5q26 0 42.5 13.5t23.5 31.5q2 6 7.5 11.5t13.5 5.5
q20 0 20 -23q0 -5 -3.5 -16t-7.5 -19q-14 -24 -39 -38t-57 -14z" />
    <glyph glyph-name="uni1EB2" unicode="&#x1eb2;" horiz-adv-x="790" 
d="M398 907q-16 0 -18 14q-1 7 -1.5 18.5t-1.5 19.5q1 5 5.5 9.5t9.5 6.5q20 2 33 9.5t13 24.5q0 13 -9 22t-26 9q-14 0 -24 -6t-18 -14q-7 -7 -15 -7q-7 0 -13.5 6t-6.5 13q0 13 4 14q16 17 33 26t41 9q40 0 59 -21t19 -51q0 -29 -20 -46t-45 -21v-22q-3 -13 -18 -13h-1z
M56 18q0 9 4 16l299 648q5 11 13 18t22 7h2q14 0 22 -7t13 -18l298 -646q4 -7 4 -16q0 -10 -7 -17t-18 -7q-9 0 -15.5 6t-10.5 14l-82 180h-413l-82 -181q-7 -19 -25 -19q-10 0 -17 6.5t-7 15.5zM578 243l-184 405l-185 -405h369zM394 772q-32 0 -56.5 14t-38.5 38
q-4 8 -7.5 19t-3.5 16q0 23 20 23q8 0 13 -5.5t7 -11.5q6 -18 22 -31.5t44 -13.5q26 0 42.5 13.5t23.5 31.5q2 6 7.5 11.5t13.5 5.5q20 0 20 -23q0 -5 -3.5 -16t-7.5 -19q-14 -24 -39 -38t-57 -14z" />
    <glyph glyph-name="uni1EB3" unicode="&#x1eb3;" horiz-adv-x="574" 
d="M321 727q-16 0 -18 14q-1 7 -1.5 18.5t-1.5 19.5q1 5 5.5 9.5t9.5 6.5q20 2 33 9.5t13 24.5q0 13 -9 22t-26 9q-14 0 -24 -6t-18 -14q-7 -7 -15 -7q-7 0 -13.5 6t-6.5 13q0 13 4 14q16 17 33 26t41 9q40 0 59 -21t19 -51q0 -29 -20 -46t-45 -21v-22q-3 -13 -18 -13h-1z
M248 -12q-36 0 -71 10t-63 30t-45.5 50t-17.5 70v2q0 40 16.5 71t45.5 52t70 32t91 11q54 0 93 -6t76 -16v22q0 78 -44.5 117t-123.5 39q-42 0 -77.5 -9.5t-67.5 -24.5q-6 -3 -11 -3q-9 0 -16 7t-7 16t5 14.5t9 7.5q39 17 79 27.5t89 10.5q105 0 161 -56q52 -52 52 -144
v-297q0 -25 -24 -25t-24 25v64q-13 -18 -31.5 -35.5t-42.5 -31t-54.5 -22t-66.5 -8.5zM251 34q39 0 74 11.5t61.5 32t42 49.5t15.5 64v58q-32 8 -75 15.5t-98 7.5q-81 0 -124.5 -32.5t-43.5 -86.5v-2q0 -28 12 -49.5t32.5 -36.5t47.5 -23t56 -8zM317 592q-32 0 -56.5 14
t-38.5 38q-4 8 -7.5 19t-3.5 16q0 23 20 23q8 0 13 -5.5t7 -11.5q6 -18 22 -31.5t44 -13.5q26 0 42.5 13.5t23.5 31.5q2 6 7.5 11.5t13.5 5.5q20 0 20 -23q0 -5 -3.5 -16t-7.5 -19q-14 -24 -39 -38t-57 -14z" />
    <glyph glyph-name="uni1EB4" unicode="&#x1eb4;" horiz-adv-x="790" 
d="M321 919q-4 -5 -7.5 -8.5t-8.5 -2.5q-16 1 -18 17q1 1 1 7q14 30 28 44t36 13q12 -1 26 -6.5t28 -12.5l10 -5q10 -7 20 -8q22 0 33 23q3 3 7.5 7t9.5 4q18 -2 18 -19q-1 -1 -1 -2t-0.5 -1.5t-0.5 -1.5q-22 -59 -67 -58q-12 1 -26 6t-26 13q-2 0 -5.5 2.5t-4.5 3.5
q-5 2 -10 4.5t-11 2.5q-9 0 -16.5 -4.5t-14.5 -17.5zM322 920q0 -1 -1 -1zM56 18q0 9 4 16l299 648q5 11 13 18t22 7h2q14 0 22 -7t13 -18l298 -646q4 -7 4 -16q0 -10 -7 -17t-18 -7q-9 0 -15.5 6t-10.5 14l-82 180h-413l-82 -181q-7 -19 -25 -19q-10 0 -17 6.5t-7 15.5z
M578 243l-184 405l-185 -405h369zM394 772q-32 0 -56.5 14t-38.5 38q-4 8 -7.5 19t-3.5 16q0 23 20 23q8 0 13 -5.5t7 -11.5q6 -18 22 -31.5t44 -13.5q26 0 42.5 13.5t23.5 31.5q2 6 7.5 11.5t13.5 5.5q20 0 20 -23q0 -5 -3.5 -16t-7.5 -19q-14 -24 -39 -38t-57 -14z" />
    <glyph glyph-name="uni1EB5" unicode="&#x1eb5;" horiz-adv-x="574" 
d="M244 739q-4 -5 -7.5 -8.5t-8.5 -2.5q-16 1 -18 17q1 1 1 7q14 30 28 44t36 13q12 -1 26 -6.5t28 -12.5l10 -5q10 -7 20 -8q22 0 33 23q3 3 7.5 7t9.5 4q18 -2 18 -19q-1 -1 -1 -2t-0.5 -1.5t-0.5 -1.5q-22 -59 -67 -58q-12 1 -26 6t-26 13q-2 0 -5.5 2.5t-4.5 3.5
q-5 2 -10 4.5t-11 2.5q-9 0 -16.5 -4.5t-14.5 -17.5zM245 740q0 -1 -1 -1zM248 -12q-36 0 -71 10t-63 30t-45.5 50t-17.5 70v2q0 40 16.5 71t45.5 52t70 32t91 11q54 0 93 -6t76 -16v22q0 78 -44.5 117t-123.5 39q-42 0 -77.5 -9.5t-67.5 -24.5q-6 -3 -11 -3q-9 0 -16 7
t-7 16t5 14.5t9 7.5q39 17 79 27.5t89 10.5q105 0 161 -56q52 -52 52 -144v-297q0 -25 -24 -25t-24 25v64q-13 -18 -31.5 -35.5t-42.5 -31t-54.5 -22t-66.5 -8.5zM251 34q39 0 74 11.5t61.5 32t42 49.5t15.5 64v58q-32 8 -75 15.5t-98 7.5q-81 0 -124.5 -32.5t-43.5 -86.5
v-2q0 -28 12 -49.5t32.5 -36.5t47.5 -23t56 -8zM317 592q-32 0 -56.5 14t-38.5 38q-4 8 -7.5 19t-3.5 16q0 23 20 23q8 0 13 -5.5t7 -11.5q6 -18 22 -31.5t44 -13.5q26 0 42.5 13.5t23.5 31.5q2 6 7.5 11.5t13.5 5.5q20 0 20 -23q0 -5 -3.5 -16t-7.5 -19q-14 -24 -39 -38
t-57 -14z" />
    <glyph glyph-name="uni1EB6" unicode="&#x1eb6;" horiz-adv-x="790" 
d="M355 -131q0 17 11.5 28.5t28.5 11.5t28.5 -11.5t11.5 -28.5t-11.5 -28.5t-28.5 -11.5t-28.5 11.5t-11.5 28.5zM56 18q0 9 4 16l299 648q5 11 13 18t22 7h2q14 0 22 -7t13 -18l298 -646q4 -7 4 -16q0 -10 -7 -17t-18 -7q-9 0 -15.5 6t-10.5 14l-82 180h-413l-82 -181
q-7 -19 -25 -19q-10 0 -17 6.5t-7 15.5zM578 243l-184 405l-185 -405h369zM394 772q-32 0 -56.5 14t-38.5 38q-4 8 -7.5 19t-3.5 16q0 23 20 23q8 0 13 -5.5t7 -11.5q6 -18 22 -31.5t44 -13.5q26 0 42.5 13.5t23.5 31.5q2 6 7.5 11.5t13.5 5.5q20 0 20 -23q0 -5 -3.5 -16
t-7.5 -19q-14 -24 -39 -38t-57 -14z" />
    <glyph glyph-name="uni1EB7" unicode="&#x1eb7;" horiz-adv-x="574" 
d="M232 -131q0 17 11.5 28.5t28.5 11.5t28.5 -11.5t11.5 -28.5t-11.5 -28.5t-28.5 -11.5t-28.5 11.5t-11.5 28.5zM248 -12q-36 0 -71 10t-63 30t-45.5 50t-17.5 70v2q0 40 16.5 71t45.5 52t70 32t91 11q54 0 93 -6t76 -16v22q0 78 -44.5 117t-123.5 39q-42 0 -77.5 -9.5
t-67.5 -24.5q-6 -3 -11 -3q-9 0 -16 7t-7 16t5 14.5t9 7.5q39 17 79 27.5t89 10.5q105 0 161 -56q52 -52 52 -144v-297q0 -25 -24 -25t-24 25v64q-13 -18 -31.5 -35.5t-42.5 -31t-54.5 -22t-66.5 -8.5zM251 34q39 0 74 11.5t61.5 32t42 49.5t15.5 64v58q-32 8 -75 15.5
t-98 7.5q-81 0 -124.5 -32.5t-43.5 -86.5v-2q0 -28 12 -49.5t32.5 -36.5t47.5 -23t56 -8zM317 592q-32 0 -56.5 14t-38.5 38q-4 8 -7.5 19t-3.5 16q0 23 20 23q8 0 13 -5.5t7 -11.5q6 -18 22 -31.5t44 -13.5q26 0 42.5 13.5t23.5 31.5q2 6 7.5 11.5t13.5 5.5q20 0 20 -23
q0 -5 -3.5 -16t-7.5 -19q-14 -24 -39 -38t-57 -14z" />
    <glyph glyph-name="uni1EB8" unicode="&#x1eb8;" horiz-adv-x="670" 
d="M306 -131q0 17 11.5 28.5t28.5 11.5t28.5 -11.5t11.5 -28.5t-11.5 -28.5t-28.5 -11.5t-28.5 11.5t-11.5 28.5zM130 0q-11 0 -18.5 7.5t-7.5 18.5v648q0 11 7.5 18.5t18.5 7.5h452q10 0 17 -7t7 -17t-7 -17t-17 -7h-426v-275h381q10 0 17 -7t7 -17t-7 -17t-17 -7h-381
v-281h431q10 0 17 -7t7 -17t-7 -17t-17 -7h-457z" />
    <glyph glyph-name="uni1EB9" unicode="&#x1eb9;" horiz-adv-x="584" 
d="M265 -131q0 17 11.5 28.5t28.5 11.5t28.5 -11.5t11.5 -28.5t-11.5 -28.5t-28.5 -11.5t-28.5 11.5t-11.5 28.5zM481 279q-3 39 -15.5 74.5t-35 63t-55.5 44t-77 16.5q-38 0 -71 -15t-58 -41.5t-40.5 -63t-18.5 -78.5h371zM507 71q-38 -38 -84 -60.5t-115 -22.5
q-50 0 -95.5 19t-80 54t-54.5 84t-20 109v2q0 55 18.5 103.5t51 84.5t76.5 57t96 21q54 0 97 -20.5t73.5 -56.5t47 -84t16.5 -103q0 -9 -7.5 -16t-16.5 -7h-400q3 -48 20.5 -85t45 -63t62.5 -39.5t72 -13.5q55 0 94.5 20t70.5 50q7 7 16 7q10 0 17 -6.5t7 -16.5q0 -9 -8 -17
z" />
    <glyph glyph-name="uni1EBA" unicode="&#x1eba;" horiz-adv-x="670" 
d="M362 772q-16 0 -18 14q-1 7 -1.5 18.5t-1.5 19.5q1 5 5.5 9.5t9.5 6.5q20 2 33 9.5t13 24.5q0 13 -9 22t-26 9q-14 0 -24 -6t-18 -14q-7 -7 -15 -7q-7 0 -13.5 6t-6.5 13q0 13 4 14q16 17 33 26t41 9q40 0 59 -21t19 -51q0 -29 -20 -46t-45 -21v-22q-3 -13 -18 -13h-1z
M130 0q-11 0 -18.5 7.5t-7.5 18.5v648q0 11 7.5 18.5t18.5 7.5h452q10 0 17 -7t7 -17t-7 -17t-17 -7h-426v-275h381q10 0 17 -7t7 -17t-7 -17t-17 -7h-381v-281h431q10 0 17 -7t7 -17t-7 -17t-17 -7h-457z" />
    <glyph glyph-name="uni1EBB" unicode="&#x1ebb;" horiz-adv-x="584" 
d="M318 592q-16 0 -18 14q-1 7 -1.5 18.5t-1.5 19.5q1 5 5.5 9.5t9.5 6.5q20 2 33 9.5t13 24.5q0 13 -9 22t-26 9q-14 0 -24 -6t-18 -14q-7 -7 -15 -7q-7 0 -13.5 6t-6.5 13q0 13 4 14q16 17 33 26t41 9q40 0 59 -21t19 -51q0 -29 -20 -46t-45 -21v-22q-3 -13 -18 -13h-1z
M481 279q-3 39 -15.5 74.5t-35 63t-55.5 44t-77 16.5q-38 0 -71 -15t-58 -41.5t-40.5 -63t-18.5 -78.5h371zM507 71q-38 -38 -84 -60.5t-115 -22.5q-50 0 -95.5 19t-80 54t-54.5 84t-20 109v2q0 55 18.5 103.5t51 84.5t76.5 57t96 21q54 0 97 -20.5t73.5 -56.5t47 -84
t16.5 -103q0 -9 -7.5 -16t-16.5 -7h-400q3 -48 20.5 -85t45 -63t62.5 -39.5t72 -13.5q55 0 94.5 20t70.5 50q7 7 16 7q10 0 17 -6.5t7 -16.5q0 -9 -8 -17z" />
    <glyph glyph-name="uni1EBC" unicode="&#x1ebc;" horiz-adv-x="670" 
d="M282 791q-4 -5 -7.5 -8.5t-8.5 -2.5q-16 1 -18 17q1 1 1 7q14 30 28 44t36 13q12 -1 26 -6.5t28 -12.5l10 -5q10 -7 20 -8q22 0 33 23q3 3 7.5 7t9.5 4q18 -2 18 -19q-1 -1 -1 -2t-0.5 -1.5t-0.5 -1.5q-22 -59 -67 -58q-12 1 -26 6t-26 13q-2 0 -5.5 2.5t-4.5 3.5
q-5 2 -10 4.5t-11 2.5q-9 0 -16.5 -4.5t-14.5 -17.5zM283 792q0 -1 -1 -1zM130 0q-11 0 -18.5 7.5t-7.5 18.5v648q0 11 7.5 18.5t18.5 7.5h452q10 0 17 -7t7 -17t-7 -17t-17 -7h-426v-275h381q10 0 17 -7t7 -17t-7 -17t-17 -7h-381v-281h431q10 0 17 -7t7 -17t-7 -17t-17 -7
h-457z" />
    <glyph glyph-name="uni1EBD" unicode="&#x1ebd;" horiz-adv-x="584" 
d="M252 614q-4 -5 -7.5 -8.5t-8.5 -2.5q-16 1 -18 17q1 1 1 7q14 30 28 44t36 13q12 -1 26 -6.5t28 -12.5l10 -5q10 -7 20 -8q22 0 33 23q3 3 7.5 7t9.5 4q18 -2 18 -19q-1 -1 -1 -2t-0.5 -1.5t-0.5 -1.5q-22 -59 -67 -58q-12 1 -26 6t-26 13q-2 0 -5.5 2.5t-4.5 3.5
q-5 2 -10 4.5t-11 2.5q-9 0 -16.5 -4.5t-14.5 -17.5zM253 615q0 -1 -1 -1zM481 279q-3 39 -15.5 74.5t-35 63t-55.5 44t-77 16.5q-38 0 -71 -15t-58 -41.5t-40.5 -63t-18.5 -78.5h371zM507 71q-38 -38 -84 -60.5t-115 -22.5q-50 0 -95.5 19t-80 54t-54.5 84t-20 109v2
q0 55 18.5 103.5t51 84.5t76.5 57t96 21q54 0 97 -20.5t73.5 -56.5t47 -84t16.5 -103q0 -9 -7.5 -16t-16.5 -7h-400q3 -48 20.5 -85t45 -63t62.5 -39.5t72 -13.5q55 0 94.5 20t70.5 50q7 7 16 7q10 0 17 -6.5t7 -16.5q0 -9 -8 -17z" />
    <glyph glyph-name="uni1EBE" unicode="&#x1ebe;" horiz-adv-x="670" 
d="M448 875q-13 0 -13 9q0 6 4 11l62 93q12 18 28 18q14 0 28 -7.5t14 -15.5q0 -7 -11 -18l-80 -77q-9 -8 -15.5 -10.5t-16.5 -2.5zM130 0q-11 0 -18.5 7.5t-7.5 18.5v648q0 11 7.5 18.5t18.5 7.5h452q10 0 17 -7t7 -17t-7 -17t-17 -7h-426v-275h381q10 0 17 -7t7 -17
t-7 -17t-17 -7h-381v-281h431q10 0 17 -7t7 -17t-7 -17t-17 -7h-457zM286 775q-9 -8 -15.5 -10.5t-16.5 -2.5q-13 0 -13 10q0 5 5 12l72 88q7 8 13 13t15 5h8q9 0 15 -5t13 -13l72 -88q5 -7 5 -12q0 -10 -14 -10q-10 0 -17 2.5t-16 10.5l-63 58z" />
    <glyph glyph-name="uni1EBF" unicode="&#x1ebf;" horiz-adv-x="584" 
d="M408 705q-13 0 -13 9q0 6 4 11l62 93q12 18 28 18q14 0 28 -7.5t14 -15.5q0 -7 -11 -18l-80 -77q-9 -8 -15.5 -10.5t-16.5 -2.5zM481 279q-3 39 -15.5 74.5t-35 63t-55.5 44t-77 16.5q-38 0 -71 -15t-58 -41.5t-40.5 -63t-18.5 -78.5h371zM507 71q-38 -38 -84 -60.5
t-115 -22.5q-50 0 -95.5 19t-80 54t-54.5 84t-20 109v2q0 55 18.5 103.5t51 84.5t76.5 57t96 21q54 0 97 -20.5t73.5 -56.5t47 -84t16.5 -103q0 -9 -7.5 -16t-16.5 -7h-400q3 -48 20.5 -85t45 -63t62.5 -39.5t72 -13.5q55 0 94.5 20t70.5 50q7 7 16 7q10 0 17 -6.5t7 -16.5
q0 -9 -8 -17zM246 605q-9 -8 -15.5 -10.5t-16.5 -2.5q-13 0 -13 10q0 5 5 12l72 88q7 8 13 13t15 5h8q9 0 15 -5t13 -13l72 -88q5 -7 5 -12q0 -10 -14 -10q-10 0 -17 2.5t-16 10.5l-63 58z" />
    <glyph glyph-name="uni1EC0" unicode="&#x1ec0;" horiz-adv-x="670" 
d="M482 875q-10 0 -16.5 2.5t-15.5 10.5l-80 77q-11 11 -11 18q0 8 14 15.5t28 7.5q16 0 28 -18l62 -93q4 -5 4 -11q0 -9 -13 -9zM130 0q-11 0 -18.5 7.5t-7.5 18.5v648q0 11 7.5 18.5t18.5 7.5h452q10 0 17 -7t7 -17t-7 -17t-17 -7h-426v-275h381q10 0 17 -7t7 -17t-7 -17
t-17 -7h-381v-281h431q10 0 17 -7t7 -17t-7 -17t-17 -7h-457zM286 775q-9 -8 -15.5 -10.5t-16.5 -2.5q-13 0 -13 10q0 5 5 12l72 88q7 8 13 13t15 5h8q9 0 15 -5t13 -13l72 -88q5 -7 5 -12q0 -10 -14 -10q-10 0 -17 2.5t-16 10.5l-63 58z" />
    <glyph glyph-name="uni1EC1" unicode="&#x1ec1;" horiz-adv-x="584" 
d="M442 705q-10 0 -16.5 2.5t-15.5 10.5l-80 77q-11 11 -11 18q0 8 14 15.5t28 7.5q16 0 28 -18l62 -93q4 -5 4 -11q0 -9 -13 -9zM481 279q-3 39 -15.5 74.5t-35 63t-55.5 44t-77 16.5q-38 0 -71 -15t-58 -41.5t-40.5 -63t-18.5 -78.5h371zM507 71q-38 -38 -84 -60.5
t-115 -22.5q-50 0 -95.5 19t-80 54t-54.5 84t-20 109v2q0 55 18.5 103.5t51 84.5t76.5 57t96 21q54 0 97 -20.5t73.5 -56.5t47 -84t16.5 -103q0 -9 -7.5 -16t-16.5 -7h-400q3 -48 20.5 -85t45 -63t62.5 -39.5t72 -13.5q55 0 94.5 20t70.5 50q7 7 16 7q10 0 17 -6.5t7 -16.5
q0 -9 -8 -17zM246 605q-9 -8 -15.5 -10.5t-16.5 -2.5q-13 0 -13 10q0 5 5 12l72 88q7 8 13 13t15 5h8q9 0 15 -5t13 -13l72 -88q5 -7 5 -12q0 -10 -14 -10q-10 0 -17 2.5t-16 10.5l-63 58z" />
    <glyph glyph-name="uni1EC2" unicode="&#x1ec2;" horiz-adv-x="670" 
d="M451 875q-16 0 -18 14q-1 7 -1.5 18.5t-1.5 19.5q1 5 5.5 9.5t9.5 6.5q20 2 33 9.5t13 24.5q0 13 -9 22t-26 9q-14 0 -24 -6t-18 -14q-7 -7 -15 -7q-7 0 -13.5 6t-6.5 13q0 13 4 14q16 17 33 26t41 9q40 0 59 -21t19 -51q0 -29 -20 -46t-45 -21v-22q-3 -13 -18 -13h-1z
M130 0q-11 0 -18.5 7.5t-7.5 18.5v648q0 11 7.5 18.5t18.5 7.5h452q10 0 17 -7t7 -17t-7 -17t-17 -7h-426v-275h381q10 0 17 -7t7 -17t-7 -17t-17 -7h-381v-281h431q10 0 17 -7t7 -17t-7 -17t-17 -7h-457zM286 775q-9 -8 -15.5 -10.5t-16.5 -2.5q-13 0 -13 10q0 5 5 12
l72 88q7 8 13 13t15 5h8q9 0 15 -5t13 -13l72 -88q5 -7 5 -12q0 -10 -14 -10q-10 0 -17 2.5t-16 10.5l-63 58z" />
    <glyph glyph-name="uni1EC3" unicode="&#x1ec3;" horiz-adv-x="584" 
d="M411 705q-16 0 -18 14q-1 7 -1.5 18.5t-1.5 19.5q1 5 5.5 9.5t9.5 6.5q20 2 33 9.5t13 24.5q0 13 -9 22t-26 9q-14 0 -24 -6t-18 -14q-7 -7 -15 -7q-7 0 -13.5 6t-6.5 13q0 13 4 14q16 17 33 26t41 9q40 0 59 -21t19 -51q0 -29 -20 -46t-45 -21v-22q-3 -13 -18 -13h-1z
M481 279q-3 39 -15.5 74.5t-35 63t-55.5 44t-77 16.5q-38 0 -71 -15t-58 -41.5t-40.5 -63t-18.5 -78.5h371zM507 71q-38 -38 -84 -60.5t-115 -22.5q-50 0 -95.5 19t-80 54t-54.5 84t-20 109v2q0 55 18.5 103.5t51 84.5t76.5 57t96 21q54 0 97 -20.5t73.5 -56.5t47 -84
t16.5 -103q0 -9 -7.5 -16t-16.5 -7h-400q3 -48 20.5 -85t45 -63t62.5 -39.5t72 -13.5q55 0 94.5 20t70.5 50q7 7 16 7q10 0 17 -6.5t7 -16.5q0 -9 -8 -17zM246 605q-9 -8 -15.5 -10.5t-16.5 -2.5q-13 0 -13 10q0 5 5 12l72 88q7 8 13 13t15 5h8q9 0 15 -5t13 -13l72 -88
q5 -7 5 -12q0 -10 -14 -10q-10 0 -17 2.5t-16 10.5l-63 58z" />
    <glyph glyph-name="uni1EC4" unicode="&#x1ec4;" horiz-adv-x="670" 
d="M278 941q-4 -5 -7.5 -8.5t-8.5 -2.5q-16 1 -18 17q1 1 1 7q14 30 28 44t36 13q12 -1 26 -6.5t28 -12.5l10 -5q10 -7 20 -8q22 0 33 23q3 3 7.5 7t9.5 4q18 -2 18 -19q-1 -1 -1 -2t-0.5 -1.5t-0.5 -1.5q-22 -59 -67 -58q-12 1 -26 6t-26 13q-2 0 -5.5 2.5t-4.5 3.5
q-5 2 -10 4.5t-11 2.5q-9 0 -16.5 -4.5t-14.5 -17.5zM279 942q0 -1 -1 -1zM130 0q-11 0 -18.5 7.5t-7.5 18.5v648q0 11 7.5 18.5t18.5 7.5h452q10 0 17 -7t7 -17t-7 -17t-17 -7h-426v-275h381q10 0 17 -7t7 -17t-7 -17t-17 -7h-381v-281h431q10 0 17 -7t7 -17t-7 -17t-17 -7
h-457zM286 775q-9 -8 -15.5 -10.5t-16.5 -2.5q-13 0 -13 10q0 5 5 12l72 88q7 8 13 13t15 5h8q9 0 15 -5t13 -13l72 -88q5 -7 5 -12q0 -10 -14 -10q-10 0 -17 2.5t-16 10.5l-63 58z" />
    <glyph glyph-name="uni1EC5" unicode="&#x1ec5;" horiz-adv-x="584" 
d="M238 771q-4 -5 -7.5 -8.5t-8.5 -2.5q-16 1 -18 17q1 1 1 7q14 30 28 44t36 13q12 -1 26 -6.5t28 -12.5l10 -5q10 -7 20 -8q22 0 33 23q3 3 7.5 7t9.5 4q18 -2 18 -19q-1 -1 -1 -2t-0.5 -1.5t-0.5 -1.5q-22 -59 -67 -58q-12 1 -26 6t-26 13q-2 0 -5.5 2.5t-4.5 3.5
q-5 2 -10 4.5t-11 2.5q-9 0 -16.5 -4.5t-14.5 -17.5zM481 279q-3 39 -15.5 74.5t-35 63t-55.5 44t-77 16.5q-38 0 -71 -15t-58 -41.5t-40.5 -63t-18.5 -78.5h371zM507 71q-38 -38 -84 -60.5t-115 -22.5q-50 0 -95.5 19t-80 54t-54.5 84t-20 109v2q0 55 18.5 103.5t51 84.5
t76.5 57t96 21q54 0 97 -20.5t73.5 -56.5t47 -84t16.5 -103q0 -9 -7.5 -16t-16.5 -7h-400q3 -48 20.5 -85t45 -63t62.5 -39.5t72 -13.5q55 0 94.5 20t70.5 50q7 7 16 7q10 0 17 -6.5t7 -16.5q0 -9 -8 -17zM246 605q-9 -8 -15.5 -10.5t-16.5 -2.5q-13 0 -13 10q0 5 5 12
l72 88q7 8 13 13t15 5h8q9 0 15 -5t13 -13l72 -88q5 -7 5 -12q0 -10 -14 -10q-10 0 -17 2.5t-16 10.5l-63 58z" />
    <glyph glyph-name="uni1EC6" unicode="&#x1ec6;" horiz-adv-x="670" 
d="M306 -131q0 17 11.5 28.5t28.5 11.5t28.5 -11.5t11.5 -28.5t-11.5 -28.5t-28.5 -11.5t-28.5 11.5t-11.5 28.5zM130 0q-11 0 -18.5 7.5t-7.5 18.5v648q0 11 7.5 18.5t18.5 7.5h452q10 0 17 -7t7 -17t-7 -17t-17 -7h-426v-275h381q10 0 17 -7t7 -17t-7 -17t-17 -7h-381
v-281h431q10 0 17 -7t7 -17t-7 -17t-17 -7h-457zM286 775q-9 -8 -15.5 -10.5t-16.5 -2.5q-13 0 -13 10q0 5 5 12l72 88q7 8 13 13t15 5h8q9 0 15 -5t13 -13l72 -88q5 -7 5 -12q0 -10 -14 -10q-10 0 -17 2.5t-16 10.5l-63 58z" />
    <glyph glyph-name="uni1EC7" unicode="&#x1ec7;" horiz-adv-x="584" 
d="M265 -131q0 17 11.5 28.5t28.5 11.5t28.5 -11.5t11.5 -28.5t-11.5 -28.5t-28.5 -11.5t-28.5 11.5t-11.5 28.5zM481 279q-3 39 -15.5 74.5t-35 63t-55.5 44t-77 16.5q-38 0 -71 -15t-58 -41.5t-40.5 -63t-18.5 -78.5h371zM507 71q-38 -38 -84 -60.5t-115 -22.5
q-50 0 -95.5 19t-80 54t-54.5 84t-20 109v2q0 55 18.5 103.5t51 84.5t76.5 57t96 21q54 0 97 -20.5t73.5 -56.5t47 -84t16.5 -103q0 -9 -7.5 -16t-16.5 -7h-400q3 -48 20.5 -85t45 -63t62.5 -39.5t72 -13.5q55 0 94.5 20t70.5 50q7 7 16 7q10 0 17 -6.5t7 -16.5q0 -9 -8 -17
zM246 605q-9 -8 -15.5 -10.5t-16.5 -2.5q-13 0 -13 10q0 5 5 12l72 88q7 8 13 13t15 5h8q9 0 15 -5t13 -13l72 -88q5 -7 5 -12q0 -10 -14 -10q-10 0 -17 2.5t-16 10.5l-63 58z" />
    <glyph glyph-name="uni1EC8" unicode="&#x1ec8;" horiz-adv-x="274" 
d="M139 772q-16 0 -18 14q-1 7 -1.5 18.5t-1.5 19.5q1 5 5.5 9.5t9.5 6.5q20 2 33 9.5t13 24.5q0 13 -9 22t-26 9q-14 0 -24 -6t-18 -14q-7 -7 -15 -7q-7 0 -13.5 6t-6.5 13q0 13 4 14q16 17 33 26t41 9q40 0 59 -21t19 -51q0 -29 -20 -46t-45 -21v-22q-3 -13 -18 -13h-1z
M111 678q0 11 7.5 18.5t18.5 7.5t18.5 -7.5t7.5 -18.5v-656q0 -11 -7.5 -18.5t-18.5 -7.5t-18.5 7.5t-7.5 18.5v656z" />
    <glyph glyph-name="uni1EC9" unicode="&#x1ec9;" horiz-adv-x="249" 
d="M100 489q0 25 24 25q25 0 25 -25v-468q0 -25 -24 -25q-25 0 -25 25v468zM127 592q-16 0 -18 14q-1 7 -1.5 18.5t-1.5 19.5q1 5 5.5 9.5t9.5 6.5q20 2 33 9.5t13 24.5q0 13 -9 22t-26 9q-14 0 -24 -6t-18 -14q-7 -7 -15 -7q-7 0 -13.5 6t-6.5 13q0 13 4 14q16 17 33 26
t41 9q40 0 59 -21t19 -51q0 -29 -20 -46t-45 -21v-22q-3 -13 -18 -13h-1z" />
    <glyph glyph-name="uni1ECA" unicode="&#x1eca;" horiz-adv-x="274" 
d="M98 -131q0 17 11.5 28.5t28.5 11.5t28.5 -11.5t11.5 -28.5t-11.5 -28.5t-28.5 -11.5t-28.5 11.5t-11.5 28.5zM111 678q0 11 7.5 18.5t18.5 7.5t18.5 -7.5t7.5 -18.5v-656q0 -11 -7.5 -18.5t-18.5 -7.5t-18.5 7.5t-7.5 18.5v656z" />
    <glyph glyph-name="uni1ECB" unicode="&#x1ecb;" horiz-adv-x="249" 
d="M84 -131q0 17 11.5 28.5t28.5 11.5t28.5 -11.5t11.5 -28.5t-11.5 -28.5t-28.5 -11.5t-28.5 11.5t-11.5 28.5zM100 489q0 25 24 25q25 0 25 -25v-468q0 -25 -24 -25q-25 0 -25 25v468zM84 661q0 17 11.5 28.5t28.5 11.5t28.5 -11.5t11.5 -28.5t-11.5 -28.5t-28.5 -11.5
t-28.5 11.5t-11.5 28.5z" />
    <glyph glyph-name="uni1ECC" unicode="&#x1ecc;" horiz-adv-x="850" 
d="M387 -131q0 17 11.5 28.5t28.5 11.5t28.5 -11.5t11.5 -28.5t-11.5 -28.5t-28.5 -11.5t-28.5 11.5t-11.5 28.5zM424 -12q-80 0 -144.5 29.5t-110.5 79t-71 114.5t-25 137v2q0 72 25.5 137.5t71.5 115.5t111 79.5t145 29.5q79 0 144 -29.5t111 -79t71 -114.5t25 -137v-2
q0 -72 -25.5 -137.5t-71.5 -115.5t-111.5 -79.5t-144.5 -29.5zM426 35q65 0 119.5 24.5t94 67t61.5 99.5t22 122v2q0 65 -22.5 122.5t-62 100t-94.5 67.5t-120 25t-119.5 -24.5t-94 -67t-61.5 -99.5t-22 -122v-2q0 -65 22.5 -122.5t62 -100t94.5 -67.5t120 -25z" />
    <glyph glyph-name="uni1ECD" unicode="&#x1ecd;" horiz-adv-x="640" 
d="M282 -131q0 17 11.5 28.5t28.5 11.5t28.5 -11.5t11.5 -28.5t-11.5 -28.5t-28.5 -11.5t-28.5 11.5t-11.5 28.5zM319 -12q-57 0 -104.5 21.5t-82.5 57.5t-54.5 84t-19.5 102v2q0 54 19.5 102t55 85t83.5 58.5t105 21.5t104.5 -21.5t82.5 -57.5t54.5 -84t19.5 -102v-2
q0 -54 -19.5 -102t-55 -85t-83.5 -58.5t-105 -21.5zM321 34q45 0 83.5 17.5t66 47t43 69.5t15.5 85v2q0 46 -16 86.5t-44.5 70.5t-67 47t-82.5 17q-45 0 -83.5 -17.5t-66 -47t-43 -69.5t-15.5 -85v-2q0 -47 16 -87t44.5 -70t67 -47t82.5 -17z" />
    <glyph glyph-name="uni1ECE" unicode="&#x1ece;" horiz-adv-x="850" 
d="M442 772q-16 0 -18 14q-1 7 -1.5 18.5t-1.5 19.5q1 5 5.5 9.5t9.5 6.5q20 2 33 9.5t13 24.5q0 13 -9 22t-26 9q-14 0 -24 -6t-18 -14q-7 -7 -15 -7q-7 0 -13.5 6t-6.5 13q0 13 4 14q16 17 33 26t41 9q40 0 59 -21t19 -51q0 -29 -20 -46t-45 -21v-22q-3 -13 -18 -13h-1z
M424 -12q-80 0 -144.5 29.5t-110.5 79t-71 114.5t-25 137v2q0 72 25.5 137.5t71.5 115.5t111 79.5t145 29.5q79 0 144 -29.5t111 -79t71 -114.5t25 -137v-2q0 -72 -25.5 -137.5t-71.5 -115.5t-111.5 -79.5t-144.5 -29.5zM426 35q65 0 119.5 24.5t94 67t61.5 99.5t22 122v2
q0 65 -22.5 122.5t-62 100t-94.5 67.5t-120 25t-119.5 -24.5t-94 -67t-61.5 -99.5t-22 -122v-2q0 -65 22.5 -122.5t62 -100t94.5 -67.5t120 -25z" />
    <glyph glyph-name="uni1ECF" unicode="&#x1ecf;" horiz-adv-x="640" 
d="M336 592q-16 0 -18 14q-1 7 -1.5 18.5t-1.5 19.5q1 5 5.5 9.5t9.5 6.5q20 2 33 9.5t13 24.5q0 13 -9 22t-26 9q-14 0 -24 -6t-18 -14q-7 -7 -15 -7q-7 0 -13.5 6t-6.5 13q0 13 4 14q16 17 33 26t41 9q40 0 59 -21t19 -51q0 -29 -20 -46t-45 -21v-22q-3 -13 -18 -13h-1z
M319 -12q-57 0 -104.5 21.5t-82.5 57.5t-54.5 84t-19.5 102v2q0 54 19.5 102t55 85t83.5 58.5t105 21.5t104.5 -21.5t82.5 -57.5t54.5 -84t19.5 -102v-2q0 -54 -19.5 -102t-55 -85t-83.5 -58.5t-105 -21.5zM321 34q45 0 83.5 17.5t66 47t43 69.5t15.5 85v2q0 46 -16 86.5
t-44.5 70.5t-67 47t-82.5 17q-45 0 -83.5 -17.5t-66 -47t-43 -69.5t-15.5 -85v-2q0 -47 16 -87t44.5 -70t67 -47t82.5 -17z" />
    <glyph glyph-name="uni1ED0" unicode="&#x1ed0;" horiz-adv-x="850" 
d="M524 885q-13 0 -13 9q0 6 4 11l62 93q12 18 28 18q14 0 28 -7.5t14 -15.5q0 -7 -11 -18l-80 -77q-9 -8 -15.5 -10.5t-16.5 -2.5zM424 -12q-80 0 -144.5 29.5t-110.5 79t-71 114.5t-25 137v2q0 72 25.5 137.5t71.5 115.5t111 79.5t145 29.5q79 0 144 -29.5t111 -79
t71 -114.5t25 -137v-2q0 -72 -25.5 -137.5t-71.5 -115.5t-111.5 -79.5t-144.5 -29.5zM426 35q65 0 119.5 24.5t94 67t61.5 99.5t22 122v2q0 65 -22.5 122.5t-62 100t-94.5 67.5t-120 25t-119.5 -24.5t-94 -67t-61.5 -99.5t-22 -122v-2q0 -65 22.5 -122.5t62 -100t94.5 -67.5
t120 -25zM362 785q-9 -8 -15.5 -10.5t-16.5 -2.5q-13 0 -13 10q0 5 5 12l72 88q7 8 13 13t15 5h8q9 0 15 -5t13 -13l72 -88q5 -7 5 -12q0 -10 -14 -10q-10 0 -17 2.5t-16 10.5l-63 58z" />
    <glyph glyph-name="uni1ED1" unicode="&#x1ed1;" horiz-adv-x="640" 
d="M420 705q-13 0 -13 9q0 6 4 11l62 93q12 18 28 18q14 0 28 -7.5t14 -15.5q0 -7 -11 -18l-80 -77q-9 -8 -15.5 -10.5t-16.5 -2.5zM319 -12q-57 0 -104.5 21.5t-82.5 57.5t-54.5 84t-19.5 102v2q0 54 19.5 102t55 85t83.5 58.5t105 21.5t104.5 -21.5t82.5 -57.5t54.5 -84
t19.5 -102v-2q0 -54 -19.5 -102t-55 -85t-83.5 -58.5t-105 -21.5zM321 34q45 0 83.5 17.5t66 47t43 69.5t15.5 85v2q0 46 -16 86.5t-44.5 70.5t-67 47t-82.5 17q-45 0 -83.5 -17.5t-66 -47t-43 -69.5t-15.5 -85v-2q0 -47 16 -87t44.5 -70t67 -47t82.5 -17zM258 605
q-9 -8 -15.5 -10.5t-16.5 -2.5q-13 0 -13 10q0 5 5 12l72 88q7 8 13 13t15 5h8q9 0 15 -5t13 -13l72 -88q5 -7 5 -12q0 -10 -14 -10q-10 0 -17 2.5t-16 10.5l-63 58z" />
    <glyph glyph-name="uni1ED2" unicode="&#x1ed2;" horiz-adv-x="850" 
d="M558 885q-10 0 -16.5 2.5t-15.5 10.5l-80 77q-11 11 -11 18q0 8 14 15.5t28 7.5q16 0 28 -18l62 -93q4 -5 4 -11q0 -9 -13 -9zM424 -12q-80 0 -144.5 29.5t-110.5 79t-71 114.5t-25 137v2q0 72 25.5 137.5t71.5 115.5t111 79.5t145 29.5q79 0 144 -29.5t111 -79
t71 -114.5t25 -137v-2q0 -72 -25.5 -137.5t-71.5 -115.5t-111.5 -79.5t-144.5 -29.5zM426 35q65 0 119.5 24.5t94 67t61.5 99.5t22 122v2q0 65 -22.5 122.5t-62 100t-94.5 67.5t-120 25t-119.5 -24.5t-94 -67t-61.5 -99.5t-22 -122v-2q0 -65 22.5 -122.5t62 -100t94.5 -67.5
t120 -25zM362 785q-9 -8 -15.5 -10.5t-16.5 -2.5q-13 0 -13 10q0 5 5 12l72 88q7 8 13 13t15 5h8q9 0 15 -5t13 -13l72 -88q5 -7 5 -12q0 -10 -14 -10q-10 0 -17 2.5t-16 10.5l-63 58z" />
    <glyph glyph-name="uni1ED3" unicode="&#x1ed3;" horiz-adv-x="640" 
d="M454 705q-10 0 -16.5 2.5t-15.5 10.5l-80 77q-11 11 -11 18q0 8 14 15.5t28 7.5q16 0 28 -18l62 -93q4 -5 4 -11q0 -9 -13 -9zM319 -12q-57 0 -104.5 21.5t-82.5 57.5t-54.5 84t-19.5 102v2q0 54 19.5 102t55 85t83.5 58.5t105 21.5t104.5 -21.5t82.5 -57.5t54.5 -84
t19.5 -102v-2q0 -54 -19.5 -102t-55 -85t-83.5 -58.5t-105 -21.5zM321 34q45 0 83.5 17.5t66 47t43 69.5t15.5 85v2q0 46 -16 86.5t-44.5 70.5t-67 47t-82.5 17q-45 0 -83.5 -17.5t-66 -47t-43 -69.5t-15.5 -85v-2q0 -47 16 -87t44.5 -70t67 -47t82.5 -17zM258 605
q-9 -8 -15.5 -10.5t-16.5 -2.5q-13 0 -13 10q0 5 5 12l72 88q7 8 13 13t15 5h8q9 0 15 -5t13 -13l72 -88q5 -7 5 -12q0 -10 -14 -10q-10 0 -17 2.5t-16 10.5l-63 58z" />
    <glyph glyph-name="uni1ED4" unicode="&#x1ed4;" horiz-adv-x="850" 
d="M527 885q-16 0 -18 14q-1 7 -1.5 18.5t-1.5 19.5q1 5 5.5 9.5t9.5 6.5q20 2 33 9.5t13 24.5q0 13 -9 22t-26 9q-14 0 -24 -6t-18 -14q-7 -7 -15 -7q-7 0 -13.5 6t-6.5 13q0 13 4 14q16 17 33 26t41 9q40 0 59 -21t19 -51q0 -29 -20 -46t-45 -21v-22q-3 -13 -18 -13h-1z
M424 -12q-80 0 -144.5 29.5t-110.5 79t-71 114.5t-25 137v2q0 72 25.5 137.5t71.5 115.5t111 79.5t145 29.5q79 0 144 -29.5t111 -79t71 -114.5t25 -137v-2q0 -72 -25.5 -137.5t-71.5 -115.5t-111.5 -79.5t-144.5 -29.5zM426 35q65 0 119.5 24.5t94 67t61.5 99.5t22 122v2
q0 65 -22.5 122.5t-62 100t-94.5 67.5t-120 25t-119.5 -24.5t-94 -67t-61.5 -99.5t-22 -122v-2q0 -65 22.5 -122.5t62 -100t94.5 -67.5t120 -25zM362 785q-9 -8 -15.5 -10.5t-16.5 -2.5q-13 0 -13 10q0 5 5 12l72 88q7 8 13 13t15 5h8q9 0 15 -5t13 -13l72 -88q5 -7 5 -12
q0 -10 -14 -10q-10 0 -17 2.5t-16 10.5l-63 58z" />
    <glyph glyph-name="uni1ED5" unicode="&#x1ed5;" horiz-adv-x="640" 
d="M423 705q-16 0 -18 14q-1 7 -1.5 18.5t-1.5 19.5q1 5 5.5 9.5t9.5 6.5q20 2 33 9.5t13 24.5q0 13 -9 22t-26 9q-14 0 -24 -6t-18 -14q-7 -7 -15 -7q-7 0 -13.5 6t-6.5 13q0 13 4 14q16 17 33 26t41 9q40 0 59 -21t19 -51q0 -29 -20 -46t-45 -21v-22q-3 -13 -18 -13h-1z
M319 -12q-57 0 -104.5 21.5t-82.5 57.5t-54.5 84t-19.5 102v2q0 54 19.5 102t55 85t83.5 58.5t105 21.5t104.5 -21.5t82.5 -57.5t54.5 -84t19.5 -102v-2q0 -54 -19.5 -102t-55 -85t-83.5 -58.5t-105 -21.5zM321 34q45 0 83.5 17.5t66 47t43 69.5t15.5 85v2q0 46 -16 86.5
t-44.5 70.5t-67 47t-82.5 17q-45 0 -83.5 -17.5t-66 -47t-43 -69.5t-15.5 -85v-2q0 -47 16 -87t44.5 -70t67 -47t82.5 -17zM258 605q-9 -8 -15.5 -10.5t-16.5 -2.5q-13 0 -13 10q0 5 5 12l72 88q7 8 13 13t15 5h8q9 0 15 -5t13 -13l72 -88q5 -7 5 -12q0 -10 -14 -10
q-10 0 -17 2.5t-16 10.5l-63 58z" />
    <glyph glyph-name="uni1ED6" unicode="&#x1ed6;" horiz-adv-x="850" 
d="M354 951q-4 -5 -7.5 -8.5t-8.5 -2.5q-16 1 -18 17q1 1 1 7q14 30 28 44t36 13q12 -1 26 -6.5t28 -12.5l10 -5q10 -7 20 -8q22 0 33 23q3 3 7.5 7t9.5 4q18 -2 18 -19q-1 -1 -1 -2t-0.5 -1.5t-0.5 -1.5q-22 -59 -67 -58q-12 1 -26 6t-26 13q-2 0 -5.5 2.5t-4.5 3.5
q-5 2 -10 4.5t-11 2.5q-9 0 -16.5 -4.5t-14.5 -17.5zM355 952q0 -1 -1 -1zM424 -12q-80 0 -144.5 29.5t-110.5 79t-71 114.5t-25 137v2q0 72 25.5 137.5t71.5 115.5t111 79.5t145 29.5q79 0 144 -29.5t111 -79t71 -114.5t25 -137v-2q0 -72 -25.5 -137.5t-71.5 -115.5
t-111.5 -79.5t-144.5 -29.5zM426 35q65 0 119.5 24.5t94 67t61.5 99.5t22 122v2q0 65 -22.5 122.5t-62 100t-94.5 67.5t-120 25t-119.5 -24.5t-94 -67t-61.5 -99.5t-22 -122v-2q0 -65 22.5 -122.5t62 -100t94.5 -67.5t120 -25zM362 785q-9 -8 -15.5 -10.5t-16.5 -2.5
q-13 0 -13 10q0 5 5 12l72 88q7 8 13 13t15 5h8q9 0 15 -5t13 -13l72 -88q5 -7 5 -12q0 -10 -14 -10q-10 0 -17 2.5t-16 10.5l-63 58z" />
    <glyph glyph-name="uni1ED7" unicode="&#x1ed7;" horiz-adv-x="640" 
d="M250 771q-4 -5 -7.5 -8.5t-8.5 -2.5q-16 1 -18 17q1 1 1 7q14 30 28 44t36 13q12 -1 26 -6.5t28 -12.5l10 -5q10 -7 20 -8q22 0 33 23q3 3 7.5 7t9.5 4q18 -2 18 -19q-1 -1 -1 -2t-0.5 -1.5t-0.5 -1.5q-22 -59 -67 -58q-12 1 -26 6t-26 13q-2 0 -5.5 2.5t-4.5 3.5
q-5 2 -10 4.5t-11 2.5q-9 0 -16.5 -4.5t-14.5 -17.5zM251 772q0 -1 -1 -1zM319 -12q-57 0 -104.5 21.5t-82.5 57.5t-54.5 84t-19.5 102v2q0 54 19.5 102t55 85t83.5 58.5t105 21.5t104.5 -21.5t82.5 -57.5t54.5 -84t19.5 -102v-2q0 -54 -19.5 -102t-55 -85t-83.5 -58.5
t-105 -21.5zM321 34q45 0 83.5 17.5t66 47t43 69.5t15.5 85v2q0 46 -16 86.5t-44.5 70.5t-67 47t-82.5 17q-45 0 -83.5 -17.5t-66 -47t-43 -69.5t-15.5 -85v-2q0 -47 16 -87t44.5 -70t67 -47t82.5 -17zM258 605q-9 -8 -15.5 -10.5t-16.5 -2.5q-13 0 -13 10q0 5 5 12l72 88
q7 8 13 13t15 5h8q9 0 15 -5t13 -13l72 -88q5 -7 5 -12q0 -10 -14 -10q-10 0 -17 2.5t-16 10.5l-63 58z" />
    <glyph glyph-name="uni1ED8" unicode="&#x1ed8;" horiz-adv-x="850" 
d="M424 -12q-80 0 -144.5 29.5t-110.5 79t-71 114.5t-25 137v2q0 72 25.5 137.5t71.5 115.5t111 79.5t145 29.5q79 0 144 -29.5t111 -79t71 -114.5t25 -137v-2q0 -72 -25.5 -137.5t-71.5 -115.5t-111.5 -79.5t-144.5 -29.5zM426 35q65 0 119.5 24.5t94 67t61.5 99.5t22 122
v2q0 65 -22.5 122.5t-62 100t-94.5 67.5t-120 25t-119.5 -24.5t-94 -67t-61.5 -99.5t-22 -122v-2q0 -65 22.5 -122.5t62 -100t94.5 -67.5t120 -25zM362 785q-9 -8 -15.5 -10.5t-16.5 -2.5q-13 0 -13 10q0 5 5 12l72 88q7 8 13 13t15 5h8q9 0 15 -5t13 -13l72 -88q5 -7 5 -12
q0 -10 -14 -10q-10 0 -17 2.5t-16 10.5l-63 58zM387 -131q0 17 11.5 28.5t28.5 11.5t28.5 -11.5t11.5 -28.5t-11.5 -28.5t-28.5 -11.5t-28.5 11.5t-11.5 28.5z" />
    <glyph glyph-name="uni1ED9" unicode="&#x1ed9;" horiz-adv-x="640" 
d="M282 -131q0 17 11.5 28.5t28.5 11.5t28.5 -11.5t11.5 -28.5t-11.5 -28.5t-28.5 -11.5t-28.5 11.5t-11.5 28.5zM319 -12q-57 0 -104.5 21.5t-82.5 57.5t-54.5 84t-19.5 102v2q0 54 19.5 102t55 85t83.5 58.5t105 21.5t104.5 -21.5t82.5 -57.5t54.5 -84t19.5 -102v-2
q0 -54 -19.5 -102t-55 -85t-83.5 -58.5t-105 -21.5zM321 34q45 0 83.5 17.5t66 47t43 69.5t15.5 85v2q0 46 -16 86.5t-44.5 70.5t-67 47t-82.5 17q-45 0 -83.5 -17.5t-66 -47t-43 -69.5t-15.5 -85v-2q0 -47 16 -87t44.5 -70t67 -47t82.5 -17zM258 605q-9 -8 -15.5 -10.5
t-16.5 -2.5q-13 0 -13 10q0 5 5 12l72 88q7 8 13 13t15 5h8q9 0 15 -5t13 -13l72 -88q5 -7 5 -12q0 -10 -14 -10q-10 0 -17 2.5t-16 10.5l-63 58z" />
    <glyph glyph-name="uni1EDA" unicode="&#x1eda;" horiz-adv-x="850" 
d="M424 772q-13 0 -13 9q0 6 4 11l62 93q12 18 28 18q14 0 28 -7.5t14 -15.5q0 -7 -11 -18l-80 -77q-9 -8 -15.5 -10.5t-16.5 -2.5zM424 -12q-80 0 -144.5 29.5t-110.5 79t-71 114.5t-25 137v2q0 72 25.5 137.5t71.5 115.5t111 79.5t145 29.5q43 0 82 -9h84q22 0 34.5 4.5
t17.5 13t6 20.5t1 27v7q0 9 7 16t18 7q10 0 17 -6.5t7 -16.5v-5q0 -52 -19 -78.5t-75 -27.5q40 -24 72 -57.5t54 -74t33.5 -86.5t11.5 -94v-2q0 -72 -25.5 -137.5t-71.5 -115.5t-111.5 -79.5t-144.5 -29.5zM426 35q65 0 119.5 24.5t94 67t61.5 99.5t22 122v2
q0 65 -22.5 122.5t-62 100t-94.5 67.5t-120 25t-119.5 -24.5t-94 -67t-61.5 -99.5t-22 -122v-2q0 -65 22.5 -122.5t62 -100t94.5 -67.5t120 -25z" />
    <glyph glyph-name="uni1EDB" unicode="&#x1edb;" horiz-adv-x="640" 
d="M322 592q-13 0 -13 9q0 6 4 11l62 93q12 18 28 18q14 0 28 -7.5t14 -15.5q0 -7 -11 -18l-80 -77q-9 -8 -15.5 -10.5t-16.5 -2.5zM319 -12q-57 0 -104.5 21.5t-82.5 57.5t-54.5 84t-19.5 102v2q0 54 19.5 102t55 85t83.5 58.5t105 21.5q36 0 69 -9h71q22 0 34 5t17 13.5
t6 20.5t1 26v7q0 9 7 16t18 7q10 0 17 -6.5t7 -16.5v-5q0 -52 -19 -78t-77 -28q51 -37 80.5 -94t29.5 -123v-2q0 -54 -19.5 -102t-55 -85t-83.5 -58.5t-105 -21.5zM321 34q45 0 83.5 17.5t66 47t43 69.5t15.5 85v2q0 46 -16 86.5t-44.5 70.5t-67 47t-82.5 17
q-45 0 -83.5 -17.5t-66 -47t-43 -69.5t-15.5 -85v-2q0 -47 16 -87t44.5 -70t67 -47t82.5 -17z" />
    <glyph glyph-name="uni1EDC" unicode="&#x1edc;" horiz-adv-x="850" 
d="M474 772q-10 0 -16.5 2.5t-15.5 10.5l-80 77q-11 11 -11 18q0 8 14 15.5t28 7.5q16 0 28 -18l62 -93q4 -5 4 -11q0 -9 -13 -9zM424 -12q-80 0 -144.5 29.5t-110.5 79t-71 114.5t-25 137v2q0 72 25.5 137.5t71.5 115.5t111 79.5t145 29.5q43 0 82 -9h84q22 0 34.5 4.5
t17.5 13t6 20.5t1 27v7q0 9 7 16t18 7q10 0 17 -6.5t7 -16.5v-5q0 -52 -19 -78.5t-75 -27.5q40 -24 72 -57.5t54 -74t33.5 -86.5t11.5 -94v-2q0 -72 -25.5 -137.5t-71.5 -115.5t-111.5 -79.5t-144.5 -29.5zM426 35q65 0 119.5 24.5t94 67t61.5 99.5t22 122v2
q0 65 -22.5 122.5t-62 100t-94.5 67.5t-120 25t-119.5 -24.5t-94 -67t-61.5 -99.5t-22 -122v-2q0 -65 22.5 -122.5t62 -100t94.5 -67.5t120 -25z" />
    <glyph glyph-name="uni1EDD" unicode="&#x1edd;" horiz-adv-x="640" 
d="M366 592q-10 0 -16.5 2.5t-15.5 10.5l-80 77q-11 11 -11 18q0 8 14 15.5t28 7.5q16 0 28 -18l62 -93q4 -5 4 -11q0 -9 -13 -9zM319 -12q-57 0 -104.5 21.5t-82.5 57.5t-54.5 84t-19.5 102v2q0 54 19.5 102t55 85t83.5 58.5t105 21.5q36 0 69 -9h71q22 0 34 5t17 13.5
t6 20.5t1 26v7q0 9 7 16t18 7q10 0 17 -6.5t7 -16.5v-5q0 -52 -19 -78t-77 -28q51 -37 80.5 -94t29.5 -123v-2q0 -54 -19.5 -102t-55 -85t-83.5 -58.5t-105 -21.5zM321 34q45 0 83.5 17.5t66 47t43 69.5t15.5 85v2q0 46 -16 86.5t-44.5 70.5t-67 47t-82.5 17
q-45 0 -83.5 -17.5t-66 -47t-43 -69.5t-15.5 -85v-2q0 -47 16 -87t44.5 -70t67 -47t82.5 -17z" />
    <glyph glyph-name="uni1EDE" unicode="&#x1ede;" horiz-adv-x="850" 
d="M442 772q-16 0 -18 14q-1 7 -1.5 18.5t-1.5 19.5q1 5 5.5 9.5t9.5 6.5q20 2 33 9.5t13 24.5q0 13 -9 22t-26 9q-14 0 -24 -6t-18 -14q-7 -7 -15 -7q-7 0 -13.5 6t-6.5 13q0 13 4 14q16 17 33 26t41 9q40 0 59 -21t19 -51q0 -29 -20 -46t-45 -21v-22q-3 -13 -18 -13h-1z
M424 -12q-80 0 -144.5 29.5t-110.5 79t-71 114.5t-25 137v2q0 72 25.5 137.5t71.5 115.5t111 79.5t145 29.5q43 0 82 -9h84q22 0 34.5 4.5t17.5 13t6 20.5t1 27v7q0 9 7 16t18 7q10 0 17 -6.5t7 -16.5v-5q0 -52 -19 -78.5t-75 -27.5q40 -24 72 -57.5t54 -74t33.5 -86.5
t11.5 -94v-2q0 -72 -25.5 -137.5t-71.5 -115.5t-111.5 -79.5t-144.5 -29.5zM426 35q65 0 119.5 24.5t94 67t61.5 99.5t22 122v2q0 65 -22.5 122.5t-62 100t-94.5 67.5t-120 25t-119.5 -24.5t-94 -67t-61.5 -99.5t-22 -122v-2q0 -65 22.5 -122.5t62 -100t94.5 -67.5t120 -25z
" />
    <glyph glyph-name="uni1EDF" unicode="&#x1edf;" horiz-adv-x="640" 
d="M336 592q-16 0 -18 14q-1 7 -1.5 18.5t-1.5 19.5q1 5 5.5 9.5t9.5 6.5q20 2 33 9.5t13 24.5q0 13 -9 22t-26 9q-14 0 -24 -6t-18 -14q-7 -7 -15 -7q-7 0 -13.5 6t-6.5 13q0 13 4 14q16 17 33 26t41 9q40 0 59 -21t19 -51q0 -29 -20 -46t-45 -21v-22q-3 -13 -18 -13h-1z
M319 -12q-57 0 -104.5 21.5t-82.5 57.5t-54.5 84t-19.5 102v2q0 54 19.5 102t55 85t83.5 58.5t105 21.5q36 0 69 -9h71q22 0 34 5t17 13.5t6 20.5t1 26v7q0 9 7 16t18 7q10 0 17 -6.5t7 -16.5v-5q0 -52 -19 -78t-77 -28q51 -37 80.5 -94t29.5 -123v-2q0 -54 -19.5 -102
t-55 -85t-83.5 -58.5t-105 -21.5zM321 34q45 0 83.5 17.5t66 47t43 69.5t15.5 85v2q0 46 -16 86.5t-44.5 70.5t-67 47t-82.5 17q-45 0 -83.5 -17.5t-66 -47t-43 -69.5t-15.5 -85v-2q0 -47 16 -87t44.5 -70t67 -47t82.5 -17z" />
    <glyph glyph-name="uni1EE0" unicode="&#x1ee0;" horiz-adv-x="850" 
d="M361 791q-4 -5 -7.5 -8.5t-8.5 -2.5q-16 1 -18 17q1 1 1 7q14 30 28 44t36 13q12 -1 26 -6.5t28 -12.5l10 -5q10 -7 20 -8q22 0 33 23q3 3 7.5 7t9.5 4q18 -2 18 -19q-1 -1 -1 -2t-0.5 -1.5t-0.5 -1.5q-22 -59 -67 -58q-12 1 -26 6t-26 13q-2 0 -5.5 2.5t-4.5 3.5
q-5 2 -10 4.5t-11 2.5q-9 0 -16.5 -4.5t-14.5 -17.5zM362 792q0 -1 -1 -1zM424 -12q-80 0 -144.5 29.5t-110.5 79t-71 114.5t-25 137v2q0 72 25.5 137.5t71.5 115.5t111 79.5t145 29.5q43 0 82 -9h84q22 0 34.5 4.5t17.5 13t6 20.5t1 27v7q0 9 7 16t18 7q10 0 17 -6.5
t7 -16.5v-5q0 -52 -19 -78.5t-75 -27.5q40 -24 72 -57.5t54 -74t33.5 -86.5t11.5 -94v-2q0 -72 -25.5 -137.5t-71.5 -115.5t-111.5 -79.5t-144.5 -29.5zM426 35q65 0 119.5 24.5t94 67t61.5 99.5t22 122v2q0 65 -22.5 122.5t-62 100t-94.5 67.5t-120 25t-119.5 -24.5
t-94 -67t-61.5 -99.5t-22 -122v-2q0 -65 22.5 -122.5t62 -100t94.5 -67.5t120 -25z" />
    <glyph glyph-name="uni1EE1" unicode="&#x1ee1;" horiz-adv-x="640" 
d="M268 614q-4 -5 -7.5 -8.5t-8.5 -2.5q-16 1 -18 17q1 1 1 7q14 30 28 44t36 13q12 -1 26 -6.5t28 -12.5l10 -5q10 -7 20 -8q22 0 33 23q3 3 7.5 7t9.5 4q18 -2 18 -19q-1 -1 -1 -2t-0.5 -1.5t-0.5 -1.5q-22 -59 -67 -58q-12 1 -26 6t-26 13q-2 0 -5.5 2.5t-4.5 3.5
q-5 2 -10 4.5t-11 2.5q-9 0 -16.5 -4.5t-14.5 -17.5zM269 615q0 -1 -1 -1zM319 -12q-57 0 -104.5 21.5t-82.5 57.5t-54.5 84t-19.5 102v2q0 54 19.5 102t55 85t83.5 58.5t105 21.5q36 0 69 -9h71q22 0 34 5t17 13.5t6 20.5t1 26v7q0 9 7 16t18 7q10 0 17 -6.5t7 -16.5v-5
q0 -52 -19 -78t-77 -28q51 -37 80.5 -94t29.5 -123v-2q0 -54 -19.5 -102t-55 -85t-83.5 -58.5t-105 -21.5zM321 34q45 0 83.5 17.5t66 47t43 69.5t15.5 85v2q0 46 -16 86.5t-44.5 70.5t-67 47t-82.5 17q-45 0 -83.5 -17.5t-66 -47t-43 -69.5t-15.5 -85v-2q0 -47 16 -87
t44.5 -70t67 -47t82.5 -17z" />
    <glyph glyph-name="uni1EE2" unicode="&#x1ee2;" horiz-adv-x="850" 
d="M387 -131q0 17 11.5 28.5t28.5 11.5t28.5 -11.5t11.5 -28.5t-11.5 -28.5t-28.5 -11.5t-28.5 11.5t-11.5 28.5zM424 -12q-80 0 -144.5 29.5t-110.5 79t-71 114.5t-25 137v2q0 72 25.5 137.5t71.5 115.5t111 79.5t145 29.5q43 0 82 -9h84q22 0 34.5 4.5t17.5 13t6 20.5
t1 27v7q0 9 7 16t18 7q10 0 17 -6.5t7 -16.5v-5q0 -52 -19 -78.5t-75 -27.5q40 -24 72 -57.5t54 -74t33.5 -86.5t11.5 -94v-2q0 -72 -25.5 -137.5t-71.5 -115.5t-111.5 -79.5t-144.5 -29.5zM426 35q65 0 119.5 24.5t94 67t61.5 99.5t22 122v2q0 65 -22.5 122.5t-62 100
t-94.5 67.5t-120 25t-119.5 -24.5t-94 -67t-61.5 -99.5t-22 -122v-2q0 -65 22.5 -122.5t62 -100t94.5 -67.5t120 -25z" />
    <glyph glyph-name="uni1EE3" unicode="&#x1ee3;" horiz-adv-x="640" 
d="M282 -131q0 17 11.5 28.5t28.5 11.5t28.5 -11.5t11.5 -28.5t-11.5 -28.5t-28.5 -11.5t-28.5 11.5t-11.5 28.5zM319 -12q-57 0 -104.5 21.5t-82.5 57.5t-54.5 84t-19.5 102v2q0 54 19.5 102t55 85t83.5 58.5t105 21.5q36 0 69 -9h71q22 0 34 5t17 13.5t6 20.5t1 26v7
q0 9 7 16t18 7q10 0 17 -6.5t7 -16.5v-5q0 -52 -19 -78t-77 -28q51 -37 80.5 -94t29.5 -123v-2q0 -54 -19.5 -102t-55 -85t-83.5 -58.5t-105 -21.5zM321 34q45 0 83.5 17.5t66 47t43 69.5t15.5 85v2q0 46 -16 86.5t-44.5 70.5t-67 47t-82.5 17q-45 0 -83.5 -17.5t-66 -47
t-43 -69.5t-15.5 -85v-2q0 -47 16 -87t44.5 -70t67 -47t82.5 -17z" />
    <glyph glyph-name="uni1EE4" unicode="&#x1ee4;" horiz-adv-x="760" 
d="M380 -11q-63 0 -115.5 19.5t-91 58t-59.5 94.5t-21 130v387q0 11 7.5 18.5t18.5 7.5t18.5 -7.5t7.5 -18.5v-382q0 -126 62.5 -193t174.5 -67q106 0 169.5 64t63.5 191v387q0 11 7.5 18.5t18.5 7.5t18.5 -7.5t7.5 -18.5v-381q0 -75 -21 -132.5t-59 -96.5t-90.5 -59
t-116.5 -20zM333 -131q0 17 11.5 28.5t28.5 11.5t28.5 -11.5t11.5 -28.5t-11.5 -28.5t-28.5 -11.5t-28.5 11.5t-11.5 28.5z" />
    <glyph glyph-name="uni1EE5" unicode="&#x1ee5;" horiz-adv-x="613" 
d="M244 -131q0 17 11.5 28.5t28.5 11.5t28.5 -11.5t11.5 -28.5t-11.5 -28.5t-28.5 -11.5t-28.5 11.5t-11.5 28.5zM520 21q0 -25 -24 -25q-25 0 -25 25v74q-26 -45 -70 -76t-114 -31q-48 0 -86 15.5t-64.5 43.5t-40 66.5t-13.5 84.5v291q0 25 24 25q25 0 25 -25v-282
q0 -79 42 -126.5t120 -47.5q37 0 69.5 13.5t56.5 37.5t37.5 57.5t13.5 73.5v274q0 25 24 25q25 0 25 -25v-468z" />
    <glyph glyph-name="uni1EE6" unicode="&#x1ee6;" horiz-adv-x="760" 
d="M398 772q-16 0 -18 14q-1 7 -1.5 18.5t-1.5 19.5q1 5 5.5 9.5t9.5 6.5q20 2 33 9.5t13 24.5q0 13 -9 22t-26 9q-14 0 -24 -6t-18 -14q-7 -7 -15 -7q-7 0 -13.5 6t-6.5 13q0 13 4 14q16 17 33 26t41 9q40 0 59 -21t19 -51q0 -29 -20 -46t-45 -21v-22q-3 -13 -18 -13h-1z
M380 -11q-63 0 -115.5 19.5t-91 58t-59.5 94.5t-21 130v387q0 11 7.5 18.5t18.5 7.5t18.5 -7.5t7.5 -18.5v-382q0 -126 62.5 -193t174.5 -67q106 0 169.5 64t63.5 191v387q0 11 7.5 18.5t18.5 7.5t18.5 -7.5t7.5 -18.5v-381q0 -75 -21 -132.5t-59 -96.5t-90.5 -59
t-116.5 -20z" />
    <glyph glyph-name="uni1EE7" unicode="&#x1ee7;" horiz-adv-x="613" 
d="M319 592q-16 0 -18 14q-1 7 -1.5 18.5t-1.5 19.5q1 5 5.5 9.5t9.5 6.5q20 2 33 9.5t13 24.5q0 13 -9 22t-26 9q-14 0 -24 -6t-18 -14q-7 -7 -15 -7q-7 0 -13.5 6t-6.5 13q0 13 4 14q16 17 33 26t41 9q40 0 59 -21t19 -51q0 -29 -20 -46t-45 -21v-22q-3 -13 -18 -13h-1z
M520 21q0 -25 -24 -25q-25 0 -25 25v74q-26 -45 -70 -76t-114 -31q-48 0 -86 15.5t-64.5 43.5t-40 66.5t-13.5 84.5v291q0 25 24 25q25 0 25 -25v-282q0 -79 42 -126.5t120 -47.5q37 0 69.5 13.5t56.5 37.5t37.5 57.5t13.5 73.5v274q0 25 24 25q25 0 25 -25v-468z" />
    <glyph glyph-name="uni1EE8" unicode="&#x1ee8;" horiz-adv-x="760" 
d="M379 762q-13 0 -13 9q0 6 4 11l62 93q12 18 28 18q14 0 28 -7.5t14 -15.5q0 -7 -11 -18l-80 -77q-9 -8 -15.5 -10.5t-16.5 -2.5zM380 -11q-63 0 -115.5 19.5t-91 58t-59.5 94.5t-21 130v387q0 11 7.5 18.5t18.5 7.5t18.5 -7.5t7.5 -18.5v-382q0 -126 62.5 -193t174.5 -67
q106 0 169.5 64t63.5 191v387q0 11 7 17q4 6 11 7q6 2 8 2t3.5 -0.5t3.5 -0.5q19 1 30 6t16 13.5t6 20t1 25.5v7q0 9 7 16t18 7q10 0 17 -6.5t7 -16.5v-5q0 -49 -17 -75.5t-66 -30.5v-367q0 -75 -21 -132.5t-59 -96.5t-90.5 -59t-116.5 -20z" />
    <glyph glyph-name="uni1EE9" unicode="&#x1ee9;" horiz-adv-x="613" 
d="M299 592q-13 0 -13 9q0 6 4 11l62 93q12 18 28 18q14 0 28 -7.5t14 -15.5q0 -7 -11 -18l-80 -77q-9 -8 -15.5 -10.5t-16.5 -2.5zM604 580q0 -50 -17 -76t-67 -30v-453q0 -25 -24 -25q-25 0 -25 25v74q-26 -45 -70 -76t-114 -31q-48 0 -86 15.5t-64.5 43.5t-40 66.5
t-13.5 84.5v291q0 25 24 25q25 0 25 -25v-282q0 -79 42 -126.5t120 -47.5q37 0 69.5 13.5t56.5 37.5t37.5 57.5t13.5 73.5v274q0 7 3 13q3 7 11 10q8 2 10 2t4 -0.5t4 -0.5q19 1 30 6t15.5 13t5.5 19.5t1 26.5v7q0 9 7 16t18 7q10 0 17 -6.5t7 -16.5v-5z" />
    <glyph glyph-name="uni1EEA" unicode="&#x1eea;" horiz-adv-x="760" 
d="M416 762q-10 0 -16.5 2.5t-15.5 10.5l-80 77q-11 11 -11 18q0 8 14 15.5t28 7.5q16 0 28 -18l62 -93q4 -5 4 -11q0 -9 -13 -9zM380 -11q-63 0 -115.5 19.5t-91 58t-59.5 94.5t-21 130v387q0 11 7.5 18.5t18.5 7.5t18.5 -7.5t7.5 -18.5v-382q0 -126 62.5 -193t174.5 -67
q106 0 169.5 64t63.5 191v387q0 11 7 17q4 6 11 7q6 2 8 2t3.5 -0.5t3.5 -0.5q19 1 30 6t16 13.5t6 20t1 25.5v7q0 9 7 16t18 7q10 0 17 -6.5t7 -16.5v-5q0 -49 -17 -75.5t-66 -30.5v-367q0 -75 -21 -132.5t-59 -96.5t-90.5 -59t-116.5 -20z" />
    <glyph glyph-name="uni1EEB" unicode="&#x1eeb;" horiz-adv-x="613" 
d="M325 592q-10 0 -16.5 2.5t-15.5 10.5l-80 77q-11 11 -11 18q0 8 14 15.5t28 7.5q16 0 28 -18l62 -93q4 -5 4 -11q0 -9 -13 -9zM604 580q0 -50 -17 -76t-67 -30v-453q0 -25 -24 -25q-25 0 -25 25v74q-26 -45 -70 -76t-114 -31q-48 0 -86 15.5t-64.5 43.5t-40 66.5
t-13.5 84.5v291q0 25 24 25q25 0 25 -25v-282q0 -79 42 -126.5t120 -47.5q37 0 69.5 13.5t56.5 37.5t37.5 57.5t13.5 73.5v274q0 7 3 13q3 7 11 10q8 2 10 2t4 -0.5t4 -0.5q19 1 30 6t15.5 13t5.5 19.5t1 26.5v7q0 9 7 16t18 7q10 0 17 -6.5t7 -16.5v-5z" />
    </font>
</defs>
</svg>
