<svg id="Layer_1" data-name="Layer 1" xmlns="http://www.w3.org/2000/svg" viewBox="0 0 229.85 59.64"><defs><style>.cls-1{fill:#0033a1;}.cls-2{fill:#4dd53e;}</style></defs><title>anhfree - logo</title><path class="cls-1" d="M45.36,7.14Q41.37.93,32,.94q-8.67,0-17.43,6.64Q6.06,14.09,3.05,22.46a14.21,14.21,0,0,0-.93,4.73,5.17,5.17,0,0,0,2.07,4.28A7,7,0,0,0,8.77,33a35.71,35.71,0,0,0,8.17-1q5.37-1.28,7.14-3.35A17.38,17.38,0,0,1,26.4,22.7a20.4,20.4,0,0,1,4.08-5,4.82,4.82,0,0,1,2.37-1.38.86.86,0,0,1,.66.4,1.16,1.16,0,0,1,.32.74q0,1.92-2.8,5.58a44.67,44.67,0,0,1-4.39,4.89,4.21,4.21,0,0,0,1.92,3.8,7.38,7.38,0,0,0,4.24,1.14,31.27,31.27,0,0,0,6.3-.76s2.09-.53,6.16-1.51v.94c-1.48.33-3.69.84-6.65,1.53a31,31,0,0,1-6.7.83,9.93,9.93,0,0,1-4.58-1,5.82,5.82,0,0,1-3.1-3.4,22.63,22.63,0,0,1-6.55,3.23,24.15,24.15,0,0,1-7.29,1.2c-3.18,0-5.68-.78-7.48-2.36S0,27.43,0,24.28a14.64,14.64,0,0,1,2-7.14Q6.16,9.66,15.07,4.93A36.74,36.74,0,0,1,32.5.39Q42,.39,45.85,5.91ZM27.63,25.46A13.48,13.48,0,0,0,31,22c1.36-1.8,2.06-3.15,2.1-4l-.1-.3-.35-.1c-.75,0-1.74,1.15-3,3.35A21.79,21.79,0,0,0,27.63,25.46Z"/><path class="cls-1" d="M54.76,27.73c.53-.17.79.05.79.64a3.52,3.52,0,0,1-.34.88c-.27.6-.41.94-.45,1l.15.29a33.44,33.44,0,0,0,7.29-1.52,29.11,29.11,0,0,1,7.34-1.33c.46,0,.69.17.69.52a8.66,8.66,0,0,1-.59,2,3,3,0,0,1,.51.6c.28.37.49.55.62.55a34,34,0,0,0,5.37-.79v.89a38.35,38.35,0,0,1-6.9,1.13q-1.92,0-1.92-3.3L52,32.41l-.5-.1-.09-.44a15.17,15.17,0,0,1,.54-2.07h-.69c-1.32.46-3.3,1-6,1.67v-.89Z"/><path class="cls-1" d="M87.56,31.47l7.34-2.79a22.12,22.12,0,0,1,7.54-1.59,1.68,1.68,0,0,1,1.23.35,4.37,4.37,0,0,1,.74,1.29,16.61,16.61,0,0,1-1.28,2.79l.14.2L111,30.49v.88a53.06,53.06,0,0,1-9.26,1.48l-1.14-.25-.19-.44a25.91,25.91,0,0,0,1.33-3.64l-.5-.2A51,51,0,0,0,93,30.83a51.3,51.3,0,0,1-8.3,2.51l-.45-.24q.26-.69,2.91-5.67a98.14,98.14,0,0,1-11,3.94v-.88q10.5-3.1,12.37-5,3-4.53,8.91-13.55Q105.44.1,109.78,0a3.22,3.22,0,0,1,1.62,2.86q0,4-5.22,9.06-3.5,3.2-10.54,9.55-6.4,5.82-8.17,9.85Zm22.61-29.6c0-.65-.3-1-.89-1q-2.66,0-9.6,10.68l-7,11.13a67.91,67.91,0,0,0,10.54-9.4Q110.17,5.9,110.17,1.87Z"/><path class="cls-2" d="M122.09,31.77a93.9,93.9,0,0,0,10.24-1.23v.88a41.53,41.53,0,0,1-10.88,1.33q-2.52,3.89-5.14,8.32-3.24,17.19-11.26,18.57l-.79-1.08q0-2.76,4.73-10.05,5.82-9,6.41-10.24c-.07-.26-.51-1.56-1.34-3.89a20.79,20.79,0,0,1-1-3.4l.44.2a16.34,16.34,0,0,0,6.08.8l2.54-4.2q-1.19.39-5.62,2a38.4,38.4,0,0,1-5.66,1.67v-.88q1.72-.45,6.35-2a34.64,34.64,0,0,0,5.72-2.16,52.22,52.22,0,0,0,4.43-7.19q4-7.14,6.15-10.1Q137.1,4,139.57,4a1.72,1.72,0,0,1,1.4.71,2.51,2.51,0,0,1,.57,1.6q0,5.67-5.66,11.87a43.33,43.33,0,0,1-10.25,8.18Q125.2,26.64,122.09,31.77Zm-16.9,26.49a.34.34,0,0,0,.15.3h.2c.49,0,1.35-.58,2.6-1.73a22.52,22.52,0,0,0,2.25-2.36,26.36,26.36,0,0,0,4.8-11.57l-5.39,7.68Q105.2,57.22,105.19,58.26Zm10.91-21L119,32.91a9.85,9.85,0,0,1-2,.14,17.88,17.88,0,0,1-2.33-.15A21.3,21.3,0,0,1,116.1,37.25ZM140.75,6.06a1.56,1.56,0,0,0-.34-.84c-.23-.33-.46-.49-.69-.49q-1.92,0-7.29,9-.15.3-6.21,11.13a27.7,27.7,0,0,0,9.46-7.68Q140.75,11.13,140.75,6.06Z"/><path class="cls-2" d="M140.85,25.76c.39,0,.59.21.59.64a2.84,2.84,0,0,1-.25,1c.27.33,1,.5,2.17.5a5.91,5.91,0,0,0,1.65-.33,9.82,9.82,0,0,1,1.5-.36l.3.09.05.15q-1.92,2.17-1.92,3.15c0,.76.65,1.14,2,1.14a26.05,26.05,0,0,0,5.76-1.14v.89c-1.08.3-2.17.61-3.25.94a13.59,13.59,0,0,1-3.3.49c-2,0-3.05-.89-3.05-2.66a3.28,3.28,0,0,1,.39-1.63,10.82,10.82,0,0,1-3.05-.34,21.11,21.11,0,0,1-8,3.2v-.89a27.48,27.48,0,0,0,7.44-2.85C139.82,26.42,140.16,25.76,140.85,25.76Z"/><path class="cls-2" d="M159.52,30.29c0,1,1.24,1.53,3.74,1.53a44,44,0,0,0,8.62-1.19v.89a60.25,60.25,0,0,1-9.07,1.53c-2.65,0-4.48-.76-5.46-2.27l-4.58.74v-.89l4.33-1a5.32,5.32,0,0,1,2.71-3.4,8.44,8.44,0,0,1,4.29-1.08c1.73,0,2.61.56,2.61,1.67s-1,1.89-2.91,2.51C162.35,29.65,160.93,30,159.52,30.29Zm4-4a5.2,5.2,0,0,0-2.58.94c-1.13.65-1.69,1.31-1.69,2a11.26,11.26,0,0,0,3.28-.69C164.2,28,165,27.37,165,26.74,165,26.45,164.53,26.3,163.54,26.3Z"/><path class="cls-2" d="M178.62,30.29q0,1.53,3.75,1.53A43.94,43.94,0,0,0,191,30.63v.89a60.41,60.41,0,0,1-9.06,1.53q-4,0-5.46-2.27l-4.58.74v-.89l4.33-1a5.29,5.29,0,0,1,2.71-3.4,8.4,8.4,0,0,1,4.28-1.08c1.74,0,2.61.56,2.61,1.67s-1,1.89-2.9,2.51C181.46,29.65,180,30,178.62,30.29Zm4-4a5.2,5.2,0,0,0-2.58.94c-1.13.65-1.69,1.31-1.69,2a11.21,11.21,0,0,0,3.27-.69c1.66-.56,2.49-1.15,2.49-1.78C184.14,26.45,183.64,26.3,182.65,26.3Z"/><path d="M121.4,37.53a.36.36,0,0,1,.12-.28.36.36,0,0,1,.27-.12h2a4.1,4.1,0,0,1,1.51.27,3.56,3.56,0,0,1,1.18.73,3.28,3.28,0,0,1,.76,1.11,3.45,3.45,0,0,1,.27,1.37v0a3.47,3.47,0,0,1-.27,1.38,3.18,3.18,0,0,1-.76,1.11,3.58,3.58,0,0,1-1.18.74,4.1,4.1,0,0,1-1.51.27h-2a.39.39,0,0,1-.39-.4Zm2.43,5.87a3.29,3.29,0,0,0,1.2-.21,2.63,2.63,0,0,0,.92-.58,2.51,2.51,0,0,0,.58-.87,2.94,2.94,0,0,0,.2-1.09v0a3,3,0,0,0-.2-1.08,2.59,2.59,0,0,0-1.5-1.47,3.09,3.09,0,0,0-1.2-.22h-1.64V43.4Z"/><path d="M129.61,44.13a.39.39,0,0,1-.39-.4v-6.2a.36.36,0,0,1,.12-.28.36.36,0,0,1,.27-.12H134a.36.36,0,0,1,.26.11.33.33,0,0,1,.1.25.34.34,0,0,1-.36.36h-4v2.39h3.5a.36.36,0,0,1,.36.36.34.34,0,0,1-.36.36H130v2.45h4a.36.36,0,0,1,.26.11.33.33,0,0,1,.1.25.34.34,0,0,1-.36.36Z"/><path d="M138.32,44.23a3.94,3.94,0,0,1-1.41-.23,4.22,4.22,0,0,1-1.24-.71.32.32,0,0,1-.15-.3.41.41,0,0,1,.11-.28.4.4,0,0,1,.27-.11.32.32,0,0,1,.24.09,3.92,3.92,0,0,0,1,.63,3.11,3.11,0,0,0,1.18.2,1.8,1.8,0,0,0,1.14-.33,1.06,1.06,0,0,0,.42-.86v0a1,1,0,0,0-.08-.43.84.84,0,0,0-.28-.36,2.31,2.31,0,0,0-.55-.29,8.54,8.54,0,0,0-.91-.25,5.66,5.66,0,0,1-1-.3,2.6,2.6,0,0,1-.74-.41,1.56,1.56,0,0,1-.43-.56,1.89,1.89,0,0,1-.14-.75v0a1.8,1.8,0,0,1,.17-.76,2,2,0,0,1,.48-.6,2.24,2.24,0,0,1,.73-.4A2.73,2.73,0,0,1,138,37a4.08,4.08,0,0,1,1.22.17,3.73,3.73,0,0,1,1,.52l.12.13a.41.41,0,0,1,.05.19.38.38,0,0,1-.38.38.39.39,0,0,1-.23-.07,3.24,3.24,0,0,0-.88-.46,2.83,2.83,0,0,0-.93-.15,1.67,1.67,0,0,0-1.09.33,1,1,0,0,0-.4.8v0a1.25,1.25,0,0,0,.08.45,1,1,0,0,0,.29.36,2.22,2.22,0,0,0,.58.3,7.47,7.47,0,0,0,1,.25,4.34,4.34,0,0,1,1.73.72,1.55,1.55,0,0,1,.55,1.26v0a1.82,1.82,0,0,1-.67,1.44,2,2,0,0,1-.76.4A2.93,2.93,0,0,1,138.32,44.23Z"/><path d="M142.39,37.48a.36.36,0,0,1,.12-.28.36.36,0,0,1,.27-.12.38.38,0,0,1,.29.12.39.39,0,0,1,.11.28v6.3a.38.38,0,0,1-.4.4.39.39,0,0,1-.39-.4Z"/><path d="M148.48,44.25A3.65,3.65,0,0,1,147,44a3.16,3.16,0,0,1-1.12-.77,3.28,3.28,0,0,1-.71-1.14,3.88,3.88,0,0,1-.25-1.41v0a3.71,3.71,0,0,1,.26-1.37,3.62,3.62,0,0,1,.71-1.16,3.4,3.4,0,0,1,1.11-.79,3.33,3.33,0,0,1,1.43-.3,4.15,4.15,0,0,1,1.36.2,4.43,4.43,0,0,1,1,.55.49.49,0,0,1,.12.13.41.41,0,0,1,0,.19.42.42,0,0,1-.11.29.41.41,0,0,1-.28.11.4.4,0,0,1-.25-.1,3.53,3.53,0,0,0-.83-.46,3,3,0,0,0-1.11-.18,2.57,2.57,0,0,0-1.07.23,2.74,2.74,0,0,0-.84.62,3.07,3.07,0,0,0-.75,2v0a3.32,3.32,0,0,0,.2,1.16,2.65,2.65,0,0,0,.55.92,2.45,2.45,0,0,0,.87.61,2.81,2.81,0,0,0,1.15.22,3.24,3.24,0,0,0,1.13-.2,3.14,3.14,0,0,0,.89-.5V41.1h-1.88a.33.33,0,0,1-.24-.1.34.34,0,0,1,0-.5.34.34,0,0,1,.24-.11h2.25a.38.38,0,0,1,.28.12.39.39,0,0,1,.11.28v2.13a.55.55,0,0,1-.27.48,4.41,4.41,0,0,1-1.12.6A3.78,3.78,0,0,1,148.48,44.25Z"/><path d="M153.07,37.49a.36.36,0,0,1,.12-.27.34.34,0,0,1,.27-.12h.11a.39.39,0,0,1,.23.06.69.69,0,0,1,.17.17l4.25,5.42V37.47a.39.39,0,0,1,.11-.27.36.36,0,0,1,.28-.12.34.34,0,0,1,.27.12.39.39,0,0,1,.11.27v6.32a.36.36,0,0,1-.1.27.34.34,0,0,1-.26.1h0a.38.38,0,0,1-.22-.06.8.8,0,0,1-.19-.18l-4.34-5.55v5.42a.41.41,0,0,1-.11.28.39.39,0,0,1-.28.11.37.37,0,0,1-.27-.11.41.41,0,0,1-.11-.28Z"/><path d="M164.36,44.13a.37.37,0,0,1-.27-.11.38.38,0,0,1-.12-.29v-6.2a.36.36,0,0,1,.12-.28.34.34,0,0,1,.27-.12h4.35a.36.36,0,0,1,.26.11.33.33,0,0,1,.1.25.34.34,0,0,1-.36.36h-4v2.39h3.5a.36.36,0,0,1,.36.36.34.34,0,0,1-.36.36h-3.5v2.45h4a.36.36,0,0,1,.26.11.33.33,0,0,1,.1.25.34.34,0,0,1-.36.36Z"/><path d="M173.38,44.21a.43.43,0,0,1-.28-.09.55.55,0,0,1-.18-.24l-2.7-6.23a.3.3,0,0,1,0-.18.37.37,0,0,1,.12-.27.36.36,0,0,1,.28-.12.39.39,0,0,1,.26.09.45.45,0,0,1,.15.21l2.42,5.8,2.43-5.82a.55.55,0,0,1,.15-.19.36.36,0,0,1,.24-.09.39.39,0,0,1,.39.38.38.38,0,0,1,0,.16l-2.71,6.26a.76.76,0,0,1-.18.24.41.41,0,0,1-.28.09Z"/><path d="M178.5,44.13a.39.39,0,0,1-.39-.4v-6.2a.36.36,0,0,1,.12-.28.36.36,0,0,1,.27-.12h4.35a.36.36,0,0,1,.26.11.33.33,0,0,1,.1.25.34.34,0,0,1-.36.36H178.9v2.39h3.5a.36.36,0,0,1,.36.36.34.34,0,0,1-.36.36h-3.5v2.45h4a.36.36,0,0,1,.26.11.33.33,0,0,1,.1.25.34.34,0,0,1-.36.36Z"/><path d="M184.81,37.53a.36.36,0,0,1,.12-.28.36.36,0,0,1,.27-.12h2.62a3.17,3.17,0,0,1,1.16.19,2.24,2.24,0,0,1,.83.51,1.87,1.87,0,0,1,.54,1.38v0a2,2,0,0,1-.52,1.37,2.1,2.1,0,0,1-.59.42,3.07,3.07,0,0,1-.76.24l1.74,2.24a.42.42,0,0,1,.13.29.38.38,0,0,1-.12.28.45.45,0,0,1-.28.11.37.37,0,0,1-.21-.06.75.75,0,0,1-.16-.15l-2-2.56h-2v2.37a.42.42,0,0,1-.11.29.44.44,0,0,1-.29.11.39.39,0,0,1-.39-.4Zm2.94,3.17a2.37,2.37,0,0,0,.72-.1,1.69,1.69,0,0,0,.57-.28,1.47,1.47,0,0,0,.38-.45,1.33,1.33,0,0,0,.13-.61v0a1.19,1.19,0,0,0-.47-1,2.12,2.12,0,0,0-1.32-.36H185.6V40.7Z"/><path d="M194,41.38l-2.6-3.64a.44.44,0,0,1-.09-.27.36.36,0,0,1,.12-.27.4.4,0,0,1,.29-.12.32.32,0,0,1,.22.07.88.88,0,0,1,.16.17l2.31,3.33,2.33-3.33a1.36,1.36,0,0,1,.16-.17.31.31,0,0,1,.21-.07.39.39,0,0,1,.39.39.41.41,0,0,1,0,.16l-.08.13-2.59,3.6v2.42a.38.38,0,0,1-.4.4.39.39,0,0,1-.28-.11.38.38,0,0,1-.12-.29Z"/><path d="M200.75,37.86h-2a.37.37,0,0,1-.26-.1.36.36,0,0,1-.11-.26.38.38,0,0,1,.37-.37h4.86a.36.36,0,0,1,.26.11.34.34,0,0,1,.11.26.33.33,0,0,1-.11.26.35.35,0,0,1-.26.1h-2v5.92a.38.38,0,0,1-.4.4.39.39,0,0,1-.28-.11.38.38,0,0,1-.12-.29Z"/><path d="M205.38,37.48a.36.36,0,0,1,.12-.28.36.36,0,0,1,.27-.12.38.38,0,0,1,.29.12.39.39,0,0,1,.11.28v2.76h4V37.48a.41.41,0,0,1,.4-.4.38.38,0,0,1,.28.12.39.39,0,0,1,.11.28v6.3a.42.42,0,0,1-.11.29.41.41,0,0,1-.28.11.39.39,0,0,1-.28-.11.38.38,0,0,1-.12-.29V41h-4v2.8a.38.38,0,0,1-.4.4.39.39,0,0,1-.39-.4Z"/><path d="M213.05,37.48a.36.36,0,0,1,.12-.28.36.36,0,0,1,.27-.12.38.38,0,0,1,.29.12.39.39,0,0,1,.11.28v6.3a.38.38,0,0,1-.4.4.39.39,0,0,1-.39-.4Z"/><path d="M215.89,37.49a.41.41,0,0,1,.39-.39h.11a.39.39,0,0,1,.23.06.69.69,0,0,1,.17.17L221,42.75V37.47a.39.39,0,0,1,.11-.27.38.38,0,0,1,.28-.12.34.34,0,0,1,.27.12.39.39,0,0,1,.11.27v6.32a.36.36,0,0,1-.1.27.33.33,0,0,1-.26.1h0a.4.4,0,0,1-.22-.06.8.8,0,0,1-.19-.18l-4.34-5.55v5.42a.37.37,0,0,1-.11.28.38.38,0,0,1-.28.11.4.4,0,0,1-.27-.11.41.41,0,0,1-.11-.28Z"/><path d="M227,44.25a3.65,3.65,0,0,1-1.48-.28,3.16,3.16,0,0,1-1.12-.77,3.28,3.28,0,0,1-.71-1.14,3.88,3.88,0,0,1-.25-1.41v0a3.71,3.71,0,0,1,.26-1.37,3.81,3.81,0,0,1,.71-1.16,3.4,3.4,0,0,1,1.11-.79A3.33,3.33,0,0,1,227,37a4.15,4.15,0,0,1,1.36.2,4.43,4.43,0,0,1,1,.55.49.49,0,0,1,.12.13.41.41,0,0,1,0,.19.42.42,0,0,1-.11.29.41.41,0,0,1-.28.11.4.4,0,0,1-.25-.1,3.53,3.53,0,0,0-.83-.46,3,3,0,0,0-1.11-.18,2.57,2.57,0,0,0-1.07.23,2.74,2.74,0,0,0-.84.62,3.07,3.07,0,0,0-.75,2v0a3.32,3.32,0,0,0,.2,1.16,2.65,2.65,0,0,0,.55.92,2.45,2.45,0,0,0,.87.61,2.84,2.84,0,0,0,1.15.22,3.24,3.24,0,0,0,1.13-.2,3.14,3.14,0,0,0,.89-.5V41.1h-1.88A.33.33,0,0,1,227,41a.34.34,0,0,1,0-.5.34.34,0,0,1,.24-.11h2.25a.38.38,0,0,1,.28.12.39.39,0,0,1,.11.28v2.13a.55.55,0,0,1-.27.48,4.41,4.41,0,0,1-1.12.6A3.78,3.78,0,0,1,227,44.25Z"/></svg>