<svg id="Layer_1" data-name="Layer 1" xmlns="http://www.w3.org/2000/svg" xmlns:xlink="http://www.w3.org/1999/xlink" viewBox="0 0 17.52 17.51"><defs><style>.cls-1{fill:none;}.cls-2{clip-path:url(#clip-path);}.cls-3{fill:url(#linear-gradient);}.cls-4{fill:#c4c4c4;}</style><clipPath id="clip-path"><rect class="cls-1" x="-956.98" y="-1665.13" width="1702" height="387"/></clipPath><linearGradient id="linear-gradient" x1="-1020.98" y1="-743.13" x2="713.02" y2="-743.13" gradientUnits="userSpaceOnUse"><stop offset="0" stop-color="#50d841"/><stop offset="0.06" stop-color="#40d344"/><stop offset="0.17" stop-color="#25cb4a"/><stop offset="0.29" stop-color="#11c54e"/><stop offset="0.41" stop-color="#06c150"/><stop offset="0.53" stop-color="#02c051"/><stop offset="0.65" stop-color="#02a063"/><stop offset="0.92" stop-color="#004e92"/><stop offset="1" stop-color="#0033a1"/></linearGradient></defs><title>icon-skype</title><g class="cls-2"><circle class="cls-3" cx="-153.98" cy="-743.13" r="867"/></g><path class="cls-4" d="M17,10.62A8.3,8.3,0,0,0,7.42.73,4.85,4.85,0,0,0,0,4.78,4.62,4.62,0,0,0,.67,7.19,8.3,8.3,0,0,0,10.38,17a4.88,4.88,0,0,0,2.29.56A4.78,4.78,0,0,0,17,10.62ZM8.83,14.51a5,5,0,0,1-4.37-1.83C3,10.6,4.93,9.56,5.88,10.35c.8.67.55,2.3,2.88,2.3,1,0,2.3-.44,2.3-1.46,0-2.06-4.55-1.09-6.36-3.33a2.73,2.73,0,0,1,0-3.31C6.15,2.71,10.33,2.6,12.12,4S13.33,7,12,7c-1.61,0-.77-2.11-3.37-2.11-1.88,0-2.62,1.34-1.3,2,1.77.88,6.39.61,6.39,4.09C13.71,13.4,11.35,14.51,8.83,14.51Z"/></svg>