<svg id="Layer_1" data-name="Layer 1" xmlns="http://www.w3.org/2000/svg" xmlns:xlink="http://www.w3.org/1999/xlink" viewBox="0 0 18.84 14.81"><defs><style>.cls-1{fill:none;}.cls-2{clip-path:url(#clip-path);}.cls-3{fill:url(#linear-gradient);}.cls-4{fill:#c4c4c4;}</style><clipPath id="clip-path"><rect class="cls-1" x="-956.53" y="-1554.26" width="1702" height="387"/></clipPath><linearGradient id="linear-gradient" x1="-1020.53" y1="-632.26" x2="713.47" y2="-632.26" gradientUnits="userSpaceOnUse"><stop offset="0" stop-color="#50d841"/><stop offset="0.06" stop-color="#40d344"/><stop offset="0.17" stop-color="#25cb4a"/><stop offset="0.29" stop-color="#11c54e"/><stop offset="0.41" stop-color="#06c150"/><stop offset="0.53" stop-color="#02c051"/><stop offset="0.65" stop-color="#02a063"/><stop offset="0.92" stop-color="#004e92"/><stop offset="1" stop-color="#0033a1"/></linearGradient></defs><title>icon-email</title><g class="cls-2"><circle class="cls-3" cx="-153.53" cy="-632.26" r="867"/></g><path class="cls-4" d="M17,0A1.73,1.73,0,0,1,18.3.55a1.73,1.73,0,0,1,.54,1.26V13a1.74,1.74,0,0,1-.54,1.26,1.77,1.77,0,0,1-1.26.55H1.81a1.74,1.74,0,0,1-1.26-.55A1.72,1.72,0,0,1,0,13V1.81A1.7,1.7,0,0,1,.55.55,1.7,1.7,0,0,1,1.81,0Zm-.21,3.83V2L9.42,6.94,2,2V3.83l7.4,4.92Z"/></svg>