<svg id="Layer_1" data-name="Layer 1" xmlns="http://www.w3.org/2000/svg" xmlns:xlink="http://www.w3.org/1999/xlink" viewBox="0 0 19.04 19.13"><defs><style>.cls-1{fill:none;}.cls-2{clip-path:url(#clip-path);}.cls-3{fill:url(#linear-gradient);}.cls-4{fill:#c6c6c6;}</style><clipPath id="clip-path"><rect class="cls-1" x="-956.33" y="-1500.81" width="1702" height="387"/></clipPath><linearGradient id="linear-gradient" x1="-1020.33" y1="-578.81" x2="713.67" y2="-578.81" gradientUnits="userSpaceOnUse"><stop offset="0" stop-color="#50d841"/><stop offset="0.06" stop-color="#40d344"/><stop offset="0.17" stop-color="#25cb4a"/><stop offset="0.29" stop-color="#11c54e"/><stop offset="0.41" stop-color="#06c150"/><stop offset="0.53" stop-color="#02c051"/><stop offset="0.65" stop-color="#02a063"/><stop offset="0.92" stop-color="#004e92"/><stop offset="1" stop-color="#0033a1"/></linearGradient></defs><title>icon-phone</title><g class="cls-2"><circle class="cls-3" cx="-153.33" cy="-578.81" r="867"/></g><path class="cls-4" d="M18.23,13.91c1.08,1.09,1.08,2.28,0,3.59A5.41,5.41,0,0,1,17,18.64a2.82,2.82,0,0,1-1,.43,8.57,8.57,0,0,1-1.17.06c-1.41,0-3.1-.73-5.05-2.18a31.31,31.31,0,0,1-4.24-3.64A29.47,29.47,0,0,1,1.16,7.5c-1.08-2-1.41-3.7-1-5A3.3,3.3,0,0,1,1.71.71L1.76.65A3.28,3.28,0,0,1,3.5,0,2.38,2.38,0,0,1,5.35,1L5.4,1A18.76,18.76,0,0,1,7.14,3.59a2.64,2.64,0,0,1,0,2.88,2.59,2.59,0,0,0-.65,1.25,3.15,3.15,0,0,0,.7,1l.06.06c.87,1,1.34,1.5,1.41,1.57a.17.17,0,0,1,.11.06l.11.11.11.11c.72.72,1.25,1.23,1.57,1.52l.06.05c.32.29.54.44.65.44a5.43,5.43,0,0,0,1.57-.82,1.59,1.59,0,0,1,.93-.27,4.83,4.83,0,0,1,2.36.82A10.51,10.51,0,0,1,18.23,13.91Z"/></svg>