<svg id="Layer_1" data-name="Layer 1" xmlns="http://www.w3.org/2000/svg" xmlns:xlink="http://www.w3.org/1999/xlink" viewBox="0 0 14.26 19.97"><defs><style>.cls-1{fill:none;}.cls-2{clip-path:url(#clip-path);}.cls-3{fill:url(#linear-gradient);}.cls-4{fill:#c6c6c6;}</style><clipPath id="clip-path"><rect class="cls-1" x="-958.26" y="-1605.37" width="1702" height="387"/></clipPath><linearGradient id="linear-gradient" x1="-1022.26" y1="-683.37" x2="711.74" y2="-683.37" gradientUnits="userSpaceOnUse"><stop offset="0" stop-color="#50d841"/><stop offset="0.06" stop-color="#40d344"/><stop offset="0.17" stop-color="#25cb4a"/><stop offset="0.29" stop-color="#11c54e"/><stop offset="0.41" stop-color="#06c150"/><stop offset="0.53" stop-color="#02c051"/><stop offset="0.65" stop-color="#02a063"/><stop offset="0.92" stop-color="#004e92"/><stop offset="1" stop-color="#0033a1"/></linearGradient></defs><title>icon-map</title><g class="cls-2"><circle class="cls-3" cx="-155.26" cy="-683.37" r="867"/></g><path class="cls-4" d="M2.09,2.05a6.94,6.94,0,0,1,5-2,6.94,6.94,0,0,1,5,2.05,6.7,6.7,0,0,1,2.09,5,12.1,12.1,0,0,1-1.78,5.57,32.16,32.16,0,0,1-3.57,5.35L7.13,20q-.32-.31-.78-.87C6,18.73,5.47,18,4.66,16.94A36.83,36.83,0,0,1,2.5,13.82,22.51,22.51,0,0,1,.78,10.38,9.1,9.1,0,0,1,0,7,6.7,6.7,0,0,1,2.09,2.05ZM5.33,8.76a2.44,2.44,0,0,0,1.8.73,2.47,2.47,0,0,0,1.81-.73A2.4,2.4,0,0,0,9.67,7a2.39,2.39,0,0,0-.73-1.76A2.47,2.47,0,0,0,7.13,4.5a2.45,2.45,0,0,0-1.8.74,2.46,2.46,0,0,0,0,3.52Z"/></svg>