<svg id="Layer_1" data-name="Layer 1" xmlns="http://www.w3.org/2000/svg" viewBox="0 0 100.9 35.01"><defs><style>.cls-1{fill:#c4c4c4;}.cls-2{isolation:isolate;}</style></defs><title>logo-connect</title><path class="cls-1" d="M14.61,22.31V23H4.8v-.64A5.79,5.79,0,0,0,7,21.93a1.38,1.38,0,0,0,.81-1,8.83,8.83,0,0,0,.17-2V2.18H6.15a10.37,10.37,0,0,0-2.93.31A2.67,2.67,0,0,0,1.71,3.7,9.26,9.26,0,0,0,.8,6.4H0L.19.7h19l.16,5.7h-.77a8.78,8.78,0,0,0-.89-2.78,2.63,2.63,0,0,0-1.52-1.19,9.91,9.91,0,0,0-2.92-.31H11.38V19.36a5.46,5.46,0,0,0,.21,1.75,1.51,1.51,0,0,0,.93.87A6.18,6.18,0,0,0,14.61,22.31Z"/><path class="cls-1" d="M43.37.7v.63a3.17,3.17,0,0,0-1.29.3,2.08,2.08,0,0,0-.89.87,12,12,0,0,0-.9,2L32.81,23.32h-.49L24,4.87A10,10,0,0,0,22.38,2a2.89,2.89,0,0,0-1.91-.68V.7h9v.63a7.92,7.92,0,0,0-2.06.27c-.33.13-.48.47-.48,1a3.41,3.41,0,0,0,.3,1.08c.19.49.55,1.29,1.08,2.57L33.4,17.57,38.29,5.19l.21-.58c.13-.37.23-.69.31-1a2.68,2.68,0,0,0,.13-.75,1.17,1.17,0,0,0-.61-1.19,5.26,5.26,0,0,0-1.84-.34V.7Z"/><path class="cls-1" d="M59.23.24,60,7.4h-.85a8,8,0,0,0-2-4,6.24,6.24,0,0,0-1.86-1.28,5.37,5.37,0,0,0-2.36-.51,3.75,3.75,0,0,0-2.36.83,2.77,2.77,0,0,0-1,2.29,3.31,3.31,0,0,0,1.28,2.69,32.6,32.6,0,0,0,4.12,2.77,20.44,20.44,0,0,1,4.33,3.23,5.43,5.43,0,0,1,1.49,3.86,5.73,5.73,0,0,1-.82,2.91,6.15,6.15,0,0,1-2.42,2.3,7.85,7.85,0,0,1-3.86.88,8,8,0,0,1-1.95-.19c-.58-.15-1.21-.35-1.89-.58a5.87,5.87,0,0,0-1.37-.35,1,1,0,0,0-.76.33,1.23,1.23,0,0,0-.27.78h-.76l-1-7.13h.73a21.48,21.48,0,0,0,1.29,2.64,7.65,7.65,0,0,0,2.13,2.26,5.65,5.65,0,0,0,3.49,1.06,4.37,4.37,0,0,0,2.2-.54A3.67,3.67,0,0,0,57.3,18.5a4.56,4.56,0,0,0-.36-1.83,5.83,5.83,0,0,0-1.57-1.78,26.15,26.15,0,0,0-3.53-2.36,26.25,26.25,0,0,1-2.91-1.88,6.54,6.54,0,0,1-1.73-2A5.51,5.51,0,0,1,46.57,6a5.53,5.53,0,0,1,.52-2.46,5.11,5.11,0,0,1,1.38-1.81,5.42,5.42,0,0,1,2-1.08A6.84,6.84,0,0,1,52.69.24a5.48,5.48,0,0,1,1.56.2C54.74.57,55.33.75,56,1a5.69,5.69,0,0,0,1.28.37c.65,0,1-.37,1.18-1.13Z"/><path class="cls-1" d="M63.5,23v-.64A7.18,7.18,0,0,0,65.67,22a1.53,1.53,0,0,0,.92-.89,5.72,5.72,0,0,0,.19-1.79v-15a5.85,5.85,0,0,0-.25-1.9,1.4,1.4,0,0,0-.86-.82,9.32,9.32,0,0,0-2.17-.31V.7h10v.63a8.24,8.24,0,0,0-2,.25,1.51,1.51,0,0,0-1,.83,4.91,4.91,0,0,0-.3,1.93v15a5.49,5.49,0,0,0,.17,1.56,1.74,1.74,0,0,0,.55.88,2.13,2.13,0,0,0,1,.43,9.63,9.63,0,0,0,1.61.14V23Z"/><path class="cls-1" d="M96,11.5,88.1,19.36,83.26,14.5l5.88-5.88L87.66,7.18l-7.35,7.36,7,7A9.69,9.69,0,0,1,78.87,15H76.69a11.81,11.81,0,0,0,23.18-3.13V11.5ZM88.84,21.55l8.88-8.87h0A9.75,9.75,0,0,1,88.84,21.55Z"/><path class="cls-1" d="M97.61,9.89l2-.41a11.81,11.81,0,0,0-23.39,2.37v.35h3.87l7.93-7.92,4.65,4.55-6.18,6.11L88,16.41l7.58-7.58L89,2.21A9.72,9.72,0,0,1,97.61,9.89Zm-19,.91h-.21a9.7,9.7,0,0,1,8.84-8.63Z"/><g class="cls-2"><path class="cls-1" d="M4.79,31.34l1.12.35a2.52,2.52,0,0,1-.85,1.4,2.48,2.48,0,0,1-1.53.45,2.45,2.45,0,0,1-1.87-.78,3,3,0,0,1-.74-2.13,3.12,3.12,0,0,1,.74-2.22,2.53,2.53,0,0,1,1.94-.8,2.37,2.37,0,0,1,1.71.63,2.21,2.21,0,0,1,.59,1.05l-1.15.28a1.25,1.25,0,0,0-.42-.71,1.25,1.25,0,0,0-.79-.26,1.31,1.31,0,0,0-1,.46,2.28,2.28,0,0,0-.4,1.48,2.41,2.41,0,0,0,.39,1.55,1.26,1.26,0,0,0,1,.46,1.17,1.17,0,0,0,.79-.29A1.62,1.62,0,0,0,4.79,31.34Z"/><path class="cls-1" d="M6.91,33.44V27.71H8.07V30h2.27V27.71h1.15v5.73H10.34v-2.5H8.07v2.5Z"/><path class="cls-1" d="M17.65,27.71h1.1v.79a3,3,0,0,1-.08.76,1.14,1.14,0,0,1-.31.48,2,2,0,0,1-1.11.46v.52a8.26,8.26,0,0,1-.09,1.46,1.61,1.61,0,0,1-.34.72,2.24,2.24,0,0,1-1.78.64,2.37,2.37,0,0,1-1.92-.68,1.55,1.55,0,0,1-.32-.64,6.5,6.5,0,0,1-.12-1.45V27.71h1.16v3.11a8,8,0,0,0,0,.95c.11.52.48.78,1.12.78s1-.23,1.05-.69a7.15,7.15,0,0,0,.05-1V27.71h1.15v2.05a1.19,1.19,0,0,0,.79-.41,1,1,0,0,0,.15-.54h-.54Zm-3.39-.33.54-1.17H16L15,27.38Z"/><path class="cls-1" d="M19.35,33.44V27.71h1.12l2.35,3.83V27.71h1.07v5.73H22.73l-2.31-3.73v3.73Z"/><path class="cls-1" d="M27.79,31.34v-1h2.49v2.28a2.89,2.89,0,0,1-1.05.62,3.83,3.83,0,0,1-1.4.27,3.07,3.07,0,0,1-1.57-.38,2.41,2.41,0,0,1-1-1.07,3.43,3.43,0,0,1-.34-1.53A3.17,3.17,0,0,1,25.3,29a2.5,2.5,0,0,1,1.09-1.07,3,3,0,0,1,1.38-.29,2.71,2.71,0,0,1,1.66.45,2.06,2.06,0,0,1,.78,1.24l-1.15.21a1.21,1.21,0,0,0-.46-.66,1.32,1.32,0,0,0-.83-.25,1.57,1.57,0,0,0-1.21.48,2,2,0,0,0-.45,1.43A2.2,2.2,0,0,0,26.57,32a1.49,1.49,0,0,0,1.18.51,1.86,1.86,0,0,0,.73-.14,2.35,2.35,0,0,0,.63-.35v-.72Z"/><path class="cls-1" d="M33.59,33.44V27.71h1.16v2.55l2.34-2.55h1.55l-2.16,2.23,2.28,3.5h-1.5l-1.57-2.69-.94,1v1.73Z"/><path class="cls-1" d="M39.36,33.44V27.71h1.16V30h2.27V27.71h1.15v5.73H42.79v-2.5H40.52v2.5Z"/><path class="cls-1" d="M44.91,30.61a3.58,3.58,0,0,1,.26-1.47,2.76,2.76,0,0,1,.53-.78,2.13,2.13,0,0,1,.74-.52,3.19,3.19,0,0,1,1.24-.23,2.73,2.73,0,0,1,2,.79,3,3,0,0,1,.76,2.19,3,3,0,0,1-.76,2.17,3,3,0,0,1-4.05,0A3,3,0,0,1,44.91,30.61Zm1.19,0a2.15,2.15,0,0,0,.45,1.48,1.55,1.55,0,0,0,2.28,0,2.21,2.21,0,0,0,.44-1.49,2.13,2.13,0,0,0-.43-1.47,1.45,1.45,0,0,0-1.15-.49,1.48,1.48,0,0,0-1.15.49A2.18,2.18,0,0,0,46.1,30.57Z"/><path class="cls-1" d="M56.54,33.44H55.28l-.5-1.3H52.49L52,33.44H50.79L53,27.71h1.22Zm-2.13-2.26-.79-2.13-.77,2.13ZM53,27.38l.54-1.17h1.24l-1.08,1.17Z"/><path class="cls-1" d="M57.17,33.44V27.71h1.12l2.35,3.83V27.71h1.07v5.73H60.55l-2.31-3.73v3.73Z"/><path class="cls-1" d="M66.45,33.44V28.68h-1.7v-1h4.56v1h-1.7v4.76Z"/><path class="cls-1" d="M75.23,33.44H74l-.5-1.3h-2.3l-.47,1.3H69.47l2.24-5.73h1.22ZM71,27.38l.82-1.15h1l.81,1.15h-.88l-.46-.58-.42.58Zm2.11,3.8-.79-2.13-.77,2.13Z"/><path class="cls-1" d="M75.85,33.44V27.71H77l2.34,3.83V27.71H80.4v5.73H79.24l-2.31-3.73v3.73Z"/><path class="cls-1" d="M85.31,33.44l-2-5.73h1.26L86,32l1.4-4.24H88.6l-2,5.73Z"/><path class="cls-1" d="M89.16,33.44V27.71h1.15v5.73Z"/><path class="cls-1" d="M91.42,33.44V27.71h4.25v1h-3.1V30h2.88v1H92.57v1.56h3.21v1Zm2.24-6.21-.43.29h-.77l.85-.51H94l.85.51h-.77ZM93.13,35v-1.1h1.1V35Z"/><path class="cls-1" d="M98.05,33.44V28.68h-1.7v-1h4.55v1H99.21v4.76Z"/></g></svg>