<svg id="Layer_1" data-name="Layer 1" xmlns="http://www.w3.org/2000/svg" viewBox="0 0 60.15 48.58"><defs><style>.cls-1{fill:#c4c4c4;}</style></defs><title>logo-connect</title><path class="cls-1" d="M3,37.6a2.7,2.7,0,0,1-1.6,0,2,2,0,0,1-1.06-1A4.25,4.25,0,0,1,0,34.67a12,12,0,0,1,.45-3,22,22,0,0,1,1.33-3.64,26.25,26.25,0,0,1,2.08-3.72,21.35,21.35,0,0,1,2-2.54,12.59,12.59,0,0,1,1.91-1.72,5.26,5.26,0,0,1,1.68-.84,2.15,2.15,0,0,1,1.12,0,1.17,1.17,0,0,1,.71.56,2.21,2.21,0,0,1,.24,1.1,5.62,5.62,0,0,1-1.7,3.74,7.67,7.67,0,0,1-1,.93,3.09,3.09,0,0,1-.83.48c-.16,0-.32,0-.49-.23a.89.89,0,0,1-.25-.57c0-.13.18-.32.55-.55a9.47,9.47,0,0,0,.84-.61,4.56,4.56,0,0,0,1.06-1.3A3,3,0,0,0,10,21.39c0-.63-.25-.88-.74-.75a2.68,2.68,0,0,0-1,.63A9.94,9.94,0,0,0,6.9,22.73,25.53,25.53,0,0,0,5.46,24.9,29.74,29.74,0,0,0,3,30.12a13,13,0,0,0-.86,4.08c0,1.18.42,1.67,1.25,1.45,1.12-.29,2.28-1.4,3.49-3.35a6,6,0,0,0,.33-.58c.11-.21.19-.36.25-.45a.36.36,0,0,1,.23-.17.5.5,0,0,1,.33,0,1,1,0,0,1,.32.23.46.46,0,0,1,.14.31,5.09,5.09,0,0,1-.88,1.72,14.85,14.85,0,0,1-2.34,2.85A5.47,5.47,0,0,1,3,37.6Z"/><path class="cls-1" d="M11,30.89A3.91,3.91,0,0,1,9,32.2L9.34,31a2.49,2.49,0,0,0,1-.64,4.15,4.15,0,0,0,.76-1.17,11.87,11.87,0,0,0,.66-1.84l1.72-5.78c.09-.31.22-.83.41-1.55a4.31,4.31,0,0,1,.49-1.36,1.5,1.5,0,0,1,.84-.44,3.1,3.1,0,0,1,.86-.15c.18,0,.26.09.26.24a1.23,1.23,0,0,1,0,.28c0,.13-.07.24-.1.34s-.08.22-.14.36l-.23.65L13.2,27.4c.39-.73.78-1.41,1.18-2a14.71,14.71,0,0,1,1.12-1.55,6.05,6.05,0,0,1,1.05-1,3,3,0,0,1,1.06-.53,1,1,0,0,1,.8.07.78.78,0,0,1,.29.69,3.65,3.65,0,0,1-.22,1.09c-.15.45-.46,1.33-.93,2.65a5.88,5.88,0,0,0-.45,1.64.32.32,0,0,0,.26.36,2.55,2.55,0,0,0,.89-.07l-.32,1.19-.19.05a3.91,3.91,0,0,1-2,.15.89.89,0,0,1-.63-1,12.44,12.44,0,0,1,1-3.18,9.53,9.53,0,0,0,.49-1.41c0-.18-.1-.24-.29-.19a1.5,1.5,0,0,0-.52.4,8.47,8.47,0,0,0-.84,1,13.53,13.53,0,0,0-1,1.59,17.59,17.59,0,0,0-.94,2c-.08.21-.18.5-.31.89a5.52,5.52,0,0,1-.31.78.84.84,0,0,1-.35.32,3.58,3.58,0,0,1-.71.24,1.14,1.14,0,0,1-.45.05.17.17,0,0,1-.14-.18A2.2,2.2,0,0,1,11,30.89Z"/><path class="cls-1" d="M21.13,28.26a14.54,14.54,0,0,1-1.62,1,9.61,9.61,0,0,1-1.59.64l.32-1.19a7.16,7.16,0,0,0,2-1,2.86,2.86,0,0,1-.62-2,4.8,4.8,0,0,1,.52-2.12,5.94,5.94,0,0,1,1.38-1.87,4.46,4.46,0,0,1,1.88-1,1.83,1.83,0,0,1,1,0,1.1,1.1,0,0,1,.64.5,1.84,1.84,0,0,1,.22,1,4,4,0,0,1-.29,1.39,8.21,8.21,0,0,1-.88,1.71A12.19,12.19,0,0,1,22.62,27a1.63,1.63,0,0,0,.78.25,3.11,3.11,0,0,0,1-.11l.12,0-.32,1.19-.22.05A3.78,3.78,0,0,1,21.13,28.26Zm.84-2a6.52,6.52,0,0,0,1.46-1.92A4.27,4.27,0,0,0,24,22.64c0-.48-.23-.66-.67-.55a1.76,1.76,0,0,0-.84.58,3.63,3.63,0,0,0-.64,1.13,4.11,4.11,0,0,0-.25,1.39A1.44,1.44,0,0,0,22,26.31Z"/><path class="cls-1" d="M27.37,26.65a14.54,14.54,0,0,1-1.62,1,8.81,8.81,0,0,1-1.59.64l.32-1.18a7.54,7.54,0,0,0,2-1,2.81,2.81,0,0,1-.63-2A5,5,0,0,1,26.36,22a5.94,5.94,0,0,1,1.38-1.87,4.46,4.46,0,0,1,1.88-1,1.83,1.83,0,0,1,1,0,1.07,1.07,0,0,1,.64.5,1.84,1.84,0,0,1,.22,1,4.17,4.17,0,0,1-.28,1.39,8.81,8.81,0,0,1-.89,1.71,11.68,11.68,0,0,1-1.43,1.77,1.63,1.63,0,0,0,.78.25,3.2,3.2,0,0,0,1-.11l.11,0-.32,1.19-.22,0A3.74,3.74,0,0,1,27.37,26.65Zm.84-1.95a6.36,6.36,0,0,0,1.46-1.92A4.08,4.08,0,0,0,30.22,21c0-.48-.23-.66-.67-.55a1.69,1.69,0,0,0-.83.58,3.56,3.56,0,0,0-.65,1.13,4.11,4.11,0,0,0-.24,1.39A1.42,1.42,0,0,0,28.21,24.7Z"/><path class="cls-1" d="M30.39,26.69l.32-1.19a3.45,3.45,0,0,0,1.36-1.12,10.06,10.06,0,0,0,1.19-2.1c.37-.87.79-2,1.26-3.35a1,1,0,0,1-.37-.84A1.9,1.9,0,0,1,34.47,17a1.4,1.4,0,0,1,.82-.59.8.8,0,0,1,.71.07.64.64,0,0,1,.26.58,1.93,1.93,0,0,1-.17.75c.31.12.69.24,1.15.37a2.89,2.89,0,0,1,.91.36.71.71,0,0,1,.23.59,2.61,2.61,0,0,1-.17.83c-.11.32-.27.74-.5,1.27s-.39.94-.49,1.23a2.53,2.53,0,0,0-.15.78.36.36,0,0,0,.12.31.77.77,0,0,0,.41.06,7.37,7.37,0,0,0,.86-.12l-.32,1.18-.25.07a5,5,0,0,1-2.1.21.85.85,0,0,1-.67-.94,2.78,2.78,0,0,1,.16-1c.11-.3.32-.83.62-1.6A5.45,5.45,0,0,0,36.36,20c0-.21-.31-.42-.94-.61A27.56,27.56,0,0,1,34,23a9.47,9.47,0,0,1-1.62,2.4A4.73,4.73,0,0,1,30.39,26.69Z"/><path class="cls-1" d="M41.64,23.79,42,22.6a5.3,5.3,0,0,0,1.83-1,2.11,2.11,0,0,1,0-.3,5.26,5.26,0,0,1,.13-1c.09-.39.23-.88.41-1.47L44.88,17l.27-.89c.1-.33.18-.58.25-.76a1.4,1.4,0,0,1,.23-.38.64.64,0,0,1,.3-.17,3.66,3.66,0,0,1,.74-.1,1.91,1.91,0,0,1,.63.09c.17.06.26.14.26.25a.94.94,0,0,1-.09.29c0,.14-.13.31-.21.51s-.2.47-.34.83-.29.73-.45,1.13a14.14,14.14,0,0,0-.92,3.07c0,.34.17.47.49.39a1.8,1.8,0,0,0,.82-.62,8,8,0,0,0,.92-1.38,19.86,19.86,0,0,0,.91-2,19.64,19.64,0,0,0,.61-1.88,7.74,7.74,0,0,1,.41-1.24.78.78,0,0,1,.56-.39,2.34,2.34,0,0,1,1-.07c.27,0,.4.16.4.33a10.46,10.46,0,0,1-.41,1.12c-.27.69-.48,1.23-.63,1.64a11.08,11.08,0,0,0-.79,3.09c0,.28.08.46.23.52a1.69,1.69,0,0,0,.85,0l-.32,1.18-.16,0a3.31,3.31,0,0,1-1.62.15c-.31-.09-.47-.37-.47-.84A8.33,8.33,0,0,1,48.7,19Q48,20.2,47.47,21a7,7,0,0,1-1.06,1.25,2.81,2.81,0,0,1-1.14.63c-.71.18-1.16.05-1.36-.38a4.77,4.77,0,0,1-1,.78A6.8,6.8,0,0,1,41.64,23.79Z"/><path class="cls-1" d="M53.64,20.18c-.17.52-.31,1-.43,1.43s-.23.9-.34,1.4-.2.93-.27,1.28a1.13,1.13,0,0,1-.4.69,3.2,3.2,0,0,1-1.08.43.8.8,0,0,1-.34,0c-.1,0-.15-.08-.15-.16a2.42,2.42,0,0,1,.11-.59c.07-.24.19-.63.36-1.15s.31-1,.43-1.37.26-.85.41-1.42a3.79,3.79,0,0,1-1.39.76l.32-1.19a2.47,2.47,0,0,0,1.23-.84,4.14,4.14,0,0,0,.67-1.4c.15-.54.37-1.48.65-2.81.09-.44.19-1,.31-1.66a9.91,9.91,0,0,1,.33-1.42,1.34,1.34,0,0,1,.41-.61,2,2,0,0,1,.78-.34c.49-.13.74-.07.74.17a2.49,2.49,0,0,1-.08.42c-.06.21-.16.54-.3,1s-.25.84-.35,1.16-.28.94-.55,1.87a20.83,20.83,0,0,1,1.2-2.13A6.48,6.48,0,0,1,57,12.38a2.72,2.72,0,0,1,1.18-.65,1.7,1.7,0,0,1,1,0,1.25,1.25,0,0,1,.69.57,2,2,0,0,1,.26,1,4.78,4.78,0,0,1-.27,1.51,8.09,8.09,0,0,1-.8,1.66,13.64,13.64,0,0,1-1.3,1.72,4.81,4.81,0,0,0,1.83-.18l-.32,1.18-.21.06a4.13,4.13,0,0,1-2.31,0,5,5,0,0,1-1.77.91A2.33,2.33,0,0,1,53.64,20.18Zm.5-1.4a3.92,3.92,0,0,1,1.24-.63,3.48,3.48,0,0,1,1.19,0,8.41,8.41,0,0,0,1.33-2,4.43,4.43,0,0,0,.45-1.76,1.07,1.07,0,0,0-.22-.75.57.57,0,0,0-.6-.14c-.48.13-1,.67-1.66,1.62A16.65,16.65,0,0,0,54.14,18.78Z"/><path class="cls-1" d="M30.37,46.18a21.86,21.86,0,0,1-11-3,22.08,22.08,0,0,1-7.83-7.8,1,1,0,0,1,1.75-1,19.82,19.82,0,0,0,36.56-6.45,1,1,0,0,1,2,.37A21.82,21.82,0,0,1,30.37,46.18Z"/><path class="cls-1" d="M11.06,17.53a1,1,0,0,1-.38-.07,1,1,0,0,1-.56-1.33,21.84,21.84,0,0,1,37.1-5.69,1,1,0,0,1-.13,1.43,1,1,0,0,1-1.44-.13A19.81,19.81,0,0,0,12,16.9,1,1,0,0,1,11.06,17.53Z"/><path class="cls-1" d="M28.26,48.49a.44.44,0,0,1,.08-.88,23.4,23.4,0,0,0,24.74-18,.44.44,0,1,1,.86.2,24.28,24.28,0,0,1-25.68,18.7Z"/><path class="cls-1" d="M8.54,14.85l-.15,0a.45.45,0,0,1-.22-.59A24.28,24.28,0,0,1,32.3.09a.44.44,0,0,1,.4.47.44.44,0,0,1-.47.41A23.38,23.38,0,0,0,9,14.59.46.46,0,0,1,8.54,14.85Z"/><path class="cls-1" d="M37.69,28.07a1.8,1.8,0,0,1-.11.66,2,2,0,0,1-.33.56,2.36,2.36,0,0,1-.54.44A2.87,2.87,0,0,1,36,30l-.37.11V31.5a.07.07,0,0,1,0,.06.16.16,0,0,1-.07.07l-.14.06a.73.73,0,0,1-.21.07l-.22.06H34.8a.1.1,0,0,1-.07,0s0,0,0-.06V28a.36.36,0,0,1,.08-.25.37.37,0,0,1,.22-.14l1-.3.29-.07.34-.05a1.7,1.7,0,0,1,.39,0,.83.83,0,0,1,.34.16.73.73,0,0,1,.22.3A1.22,1.22,0,0,1,37.69,28.07Zm-.92.33a.67.67,0,0,0-.08-.35.36.36,0,0,0-.2-.15.69.69,0,0,0-.25,0l-.27.06-.38.11v1.44l.4-.12a1.19,1.19,0,0,0,.36-.16,1,1,0,0,0,.23-.22.92.92,0,0,0,.14-.28A1.06,1.06,0,0,0,36.77,28.4Z"/><path class="cls-1" d="M40.76,30a.16.16,0,0,1,0,.09l-.11.06a1.17,1.17,0,0,1-.21.08l-.22.05a.15.15,0,0,1-.1,0,.06.06,0,0,1,0-.06V30a2.15,2.15,0,0,1-.42.43,1.74,1.74,0,0,1-.53.26,1.45,1.45,0,0,1-.44.06.65.65,0,0,1-.35-.08.51.51,0,0,1-.23-.23.86.86,0,0,1-.08-.38,1.29,1.29,0,0,1,.1-.48,1.4,1.4,0,0,1,.31-.39,2.14,2.14,0,0,1,.51-.33,3.79,3.79,0,0,1,.7-.26l.3-.09v-.18a.8.8,0,0,0,0-.23.24.24,0,0,0-.1-.14.29.29,0,0,0-.17-.05,1,1,0,0,0-.27,0,1.89,1.89,0,0,0-.38.16l-.3.18-.21.17a.42.42,0,0,1-.14.08h-.07a.1.1,0,0,1,0-.05.17.17,0,0,1,0-.1.53.53,0,0,1,0-.13.86.86,0,0,1,0-.17.75.75,0,0,1,.07-.12.8.8,0,0,1,.16-.15,2.26,2.26,0,0,1,.28-.19l.35-.18a2.46,2.46,0,0,1,.38-.14,2.26,2.26,0,0,1,.61-.11.83.83,0,0,1,.41.09.5.5,0,0,1,.24.29,1.37,1.37,0,0,1,.07.49Zm-.83-1-.33.09a2.34,2.34,0,0,0-.35.13,1,1,0,0,0-.23.16.49.49,0,0,0-.14.18.65.65,0,0,0,0,.2A.26.26,0,0,0,39,30a.41.41,0,0,0,.33,0,.77.77,0,0,0,.33-.18,2.25,2.25,0,0,0,.31-.35Z"/><path class="cls-1" d="M44.32,26.28a.55.55,0,0,1,0,.24.13.13,0,0,1-.09.1l-.35.1a.31.31,0,0,1,.1.15.45.45,0,0,1,0,.2,1.28,1.28,0,0,1-.09.48,1.41,1.41,0,0,1-.25.4,1.61,1.61,0,0,1-.4.32,2,2,0,0,1-.51.22,1.51,1.51,0,0,1-.28.05.53.53,0,0,1-.2,0,.54.54,0,0,0-.07.13.33.33,0,0,0,0,.14.14.14,0,0,0,.09.13.4.4,0,0,0,.24,0l.73-.18a2.08,2.08,0,0,1,.46-.06.71.71,0,0,1,.34.07.51.51,0,0,1,.21.2.67.67,0,0,1,.07.33,1,1,0,0,1-.1.44,1.34,1.34,0,0,1-.29.41,2.85,2.85,0,0,1-.49.37,3.67,3.67,0,0,1-.69.28,4.45,4.45,0,0,1-.66.13,1.16,1.16,0,0,1-.44,0,.44.44,0,0,1-.26-.17.58.58,0,0,1-.08-.3.76.76,0,0,1,0-.21.85.85,0,0,1,.09-.22,1.2,1.2,0,0,1,.13-.21l.19-.21a.39.39,0,0,1-.23-.14.42.42,0,0,1-.07-.26.81.81,0,0,1,.09-.37,1.69,1.69,0,0,1,.23-.36.59.59,0,0,1-.19-.22,1,1,0,0,1-.07-.38,1.12,1.12,0,0,1,.1-.48,1.33,1.33,0,0,1,.25-.41,1.6,1.6,0,0,1,.4-.33,2.05,2.05,0,0,1,.5-.22L43,26.3l.24,0,.95-.28a.07.07,0,0,1,.09.05A.41.41,0,0,1,44.32,26.28Zm-.89,3.27a.18.18,0,0,0-.12-.19.57.57,0,0,0-.34,0l-.6.16-.14.16-.08.13a.34.34,0,0,0,0,.11s0,.07,0,.11a.19.19,0,0,0,.17.2,1.11,1.11,0,0,0,.48-.06,1.26,1.26,0,0,0,.33-.13.72.72,0,0,0,.21-.16.48.48,0,0,0,.12-.17A.51.51,0,0,0,43.43,29.55Zm-.2-2.27A.37.37,0,0,0,43.1,27a.5.5,0,0,0-.39,0,.7.7,0,0,0-.21.11.46.46,0,0,0-.16.15.82.82,0,0,0-.09.19.76.76,0,0,0,0,.21.35.35,0,0,0,.13.31.42.42,0,0,0,.37,0l.23-.1a.75.75,0,0,0,.15-.16.46.46,0,0,0,.1-.18A.69.69,0,0,0,43.23,27.28Z"/><path class="cls-1" d="M47.59,26.5a.41.41,0,0,1-.07.25.35.35,0,0,1-.19.12l-1.83.53a1.15,1.15,0,0,0,0,.33.41.41,0,0,0,.15.21.47.47,0,0,0,.25.09,1.1,1.1,0,0,0,.38-.05,2.45,2.45,0,0,0,.39-.15l.29-.15.21-.13.13-.07h0l0,0a.15.15,0,0,1,0,.08.49.49,0,0,1,0,.13.53.53,0,0,1,0,.13.28.28,0,0,1,0,.09.14.14,0,0,1,0,.06l0,.06-.12.1-.25.15-.35.16a2.6,2.6,0,0,1-.42.15,2.07,2.07,0,0,1-.7.1.8.8,0,0,1-.5-.15.82.82,0,0,1-.31-.41,2.24,2.24,0,0,1-.1-.69,2.48,2.48,0,0,1,.11-.73,2,2,0,0,1,.79-1.09,2.22,2.22,0,0,1,.64-.3,1.71,1.71,0,0,1,.64-.07.76.76,0,0,1,.44.17.81.81,0,0,1,.26.38,1.8,1.8,0,0,1,.08.54Zm-.82,0a.72.72,0,0,0-.15-.51.46.46,0,0,0-.47-.06.82.82,0,0,0-.28.14.83.83,0,0,0-.2.22.66.66,0,0,0-.12.27,1,1,0,0,0,0,.3Z"/></svg>