<svg id="Layer_1" data-name="Layer 1" xmlns="http://www.w3.org/2000/svg" xmlns:xlink="http://www.w3.org/1999/xlink" viewBox="0 0 131.67 37.36"><defs><style>.cls-1,.cls-2,.cls-4{fill:#c4c4c4;}.cls-1{clip-rule:evenodd;}.cls-2{fill-rule:evenodd;}.cls-3{clip-path:url(#clip-path);}.cls-5{clip-path:url(#clip-path-2);}.cls-6{clip-path:url(#clip-path-3);}.cls-7{clip-path:url(#clip-path-4);}.cls-8{clip-path:url(#clip-path-5);}.cls-9{clip-path:url(#clip-path-6);}.cls-10{clip-path:url(#clip-path-7);}.cls-11{clip-path:url(#clip-path-8);}</style><clipPath id="clip-path"><path id="SVGID" class="cls-1" d="M31.57,0a4.66,4.66,0,0,0-3.49,1.4L14.73,14.75,9.32,9.34A4.68,4.68,0,0,0,5.81,8H1.74L13.18,19.42a2.21,2.21,0,0,0,3.11,0L35.71,0Z"/></clipPath><clipPath id="clip-path-2"><path id="SVGID-2" data-name="SVGID" class="cls-1" d="M1.74,8,13.18,19.42a2.21,2.21,0,0,0,3.11,0l4.65-4.65A5.2,5.2,0,0,1,17.74,16a4.38,4.38,0,0,1-3-1.26L9.32,9.34A4.68,4.68,0,0,0,5.81,8Z"/></clipPath><clipPath id="clip-path-3"><path id="SVGID-3" data-name="SVGID" class="cls-1" d="M18,21.15a2.15,2.15,0,0,0-.65,1.55A2.19,2.19,0,0,0,18,24.26L29.42,35.7V31.56A4.63,4.63,0,0,0,28,28.07L22.65,22.7l5.41-5.41a4.68,4.68,0,0,0,1.36-3.51V9.7Z"/></clipPath><clipPath id="clip-path-4"><path id="SVGID-4" data-name="SVGID" class="cls-1" d="M22.64,28.92h0ZM18,21.15a2.15,2.15,0,0,0-.65,1.55A2.19,2.19,0,0,0,18,24.26l4.66,4.65a4.84,4.84,0,0,1-1.33-3.2,4.12,4.12,0,0,1,1.34-3l5.41-5.41a4.68,4.68,0,0,0,1.36-3.51V9.7Z"/></clipPath><clipPath id="clip-path-5"><path id="SVGID-5" data-name="SVGID" class="cls-1" d="M13.15,25.92,1.71,37.36H5.85A4.62,4.62,0,0,0,9.34,36l5.37-5.36L20.12,36a4.68,4.68,0,0,0,3.51,1.36h4.08L16.27,25.92a2.2,2.2,0,0,0-3.12,0Z"/></clipPath><clipPath id="clip-path-6"><path id="SVGID-6" data-name="SVGID" class="cls-1" d="M8.49,30.58h0Zm4.66-4.66L8.5,30.57a4.9,4.9,0,0,1,3.2-1.32,4.12,4.12,0,0,1,3,1.34L20.12,36a4.68,4.68,0,0,0,3.51,1.36h4.08L16.27,25.92a2.2,2.2,0,0,0-3.12,0Z"/></clipPath><clipPath id="clip-path-7"><path id="SVGID-7" data-name="SVGID" class="cls-1" d="M0,9.7v4.14a4.63,4.63,0,0,0,1.4,3.49L6.77,22.7,1.36,28.11A4.68,4.68,0,0,0,0,31.62V35.7L11.44,24.26a2.22,2.22,0,0,0,0-3.12Z"/></clipPath><clipPath id="clip-path-8"><path id="SVGID-8" data-name="SVGID" class="cls-1" d="M6.78,16.49h0ZM0,31.62V35.7L11.44,24.26a2.22,2.22,0,0,0,0-3.12L6.78,16.49a4.89,4.89,0,0,1,1.33,3.2,4.12,4.12,0,0,1-1.34,3L1.36,28.11A4.68,4.68,0,0,0,0,31.62ZM6.78,16.48"/></clipPath></defs><title>logo-connect</title><path id="SVGID-9" data-name="SVGID" class="cls-2" d="M31.57,0a4.66,4.66,0,0,0-3.49,1.4L14.73,14.75,9.32,9.34A4.68,4.68,0,0,0,5.81,8H1.74L13.18,19.42a2.21,2.21,0,0,0,3.11,0L35.71,0Z"/><g class="cls-3"><rect class="cls-4" x="1.74" width="33.97" height="20.06"/></g><path id="SVGID-10" data-name="SVGID" class="cls-2" d="M1.74,8,13.18,19.42a2.21,2.21,0,0,0,3.11,0l4.65-4.65A5.2,5.2,0,0,1,17.74,16a4.38,4.38,0,0,1-3-1.26L9.32,9.34A4.68,4.68,0,0,0,5.81,8Z"/><g class="cls-5"><rect class="cls-4" x="1.74" y="7.98" width="19.2" height="12.08"/></g><path id="SVGID-11" data-name="SVGID" class="cls-2" d="M18,21.15a2.15,2.15,0,0,0-.65,1.55A2.19,2.19,0,0,0,18,24.26L29.42,35.7V31.56A4.63,4.63,0,0,0,28,28.07L22.65,22.7l5.41-5.41a4.68,4.68,0,0,0,1.36-3.51V9.7Z"/><g class="cls-6"><rect class="cls-4" x="17.33" y="9.7" width="12.08" height="25.99"/></g><path id="SVGID-12" data-name="SVGID" class="cls-2" d="M22.64,28.92h0ZM18,21.15a2.15,2.15,0,0,0-.65,1.55A2.19,2.19,0,0,0,18,24.26l4.66,4.65a4.84,4.84,0,0,1-1.33-3.2,4.12,4.12,0,0,1,1.34-3l5.41-5.41a4.68,4.68,0,0,0,1.36-3.51V9.7Z"/><g class="cls-7"><rect class="cls-4" x="17.33" y="9.7" width="12.08" height="19.21"/></g><path id="SVGID-13" data-name="SVGID" class="cls-2" d="M13.15,25.92,1.71,37.36H5.85A4.62,4.62,0,0,0,9.34,36l5.37-5.36L20.12,36a4.68,4.68,0,0,0,3.51,1.36h4.08L16.27,25.92a2.2,2.2,0,0,0-3.12,0Z"/><g class="cls-8"><rect class="cls-4" x="1.71" y="25.27" width="25.99" height="12.08"/></g><path id="SVGID-14" data-name="SVGID" class="cls-2" d="M8.49,30.58h0Zm4.66-4.66L8.5,30.57a4.9,4.9,0,0,1,3.2-1.32,4.12,4.12,0,0,1,3,1.34L20.12,36a4.68,4.68,0,0,0,3.51,1.36h4.08L16.27,25.92a2.2,2.2,0,0,0-3.12,0Z"/><g class="cls-9"><rect class="cls-4" x="8.49" y="25.27" width="19.21" height="12.08"/></g><path id="SVGID-15" data-name="SVGID" class="cls-2" d="M0,9.7v4.14a4.63,4.63,0,0,0,1.4,3.49L6.77,22.7,1.36,28.11A4.68,4.68,0,0,0,0,31.62V35.7L11.44,24.26a2.22,2.22,0,0,0,0-3.12Z"/><g class="cls-10"><rect class="cls-4" y="9.7" width="12.08" height="25.99"/></g><path id="SVGID-16" data-name="SVGID" class="cls-2" d="M6.78,16.49h0ZM0,31.62V35.7L11.44,24.26a2.22,2.22,0,0,0,0-3.12L6.78,16.49a4.89,4.89,0,0,1,1.33,3.2,4.12,4.12,0,0,1-1.34,3L1.36,28.11A4.68,4.68,0,0,0,0,31.62ZM6.78,16.48"/><g class="cls-11"><rect class="cls-4" y="16.48" width="12.08" height="19.21"/></g><path class="cls-4" d="M43.07,14.26l1.76,2,1.76-2H49.2l-2.8,3,2.8,3.13H46.67l-1.84-2.06L43,20.38H40.46l2.8-3.13-2.8-3Z"/><path class="cls-4" d="M52.5,14.27h3.23l3,6.11h-2.2l-.58-1H52.25l-.59,1H49.47Zm1.76,1.37H54l-1,2.13h2.32Z"/><path class="cls-4" d="M63.31,14.17a7,7,0,0,1,3.23.44c.35.25.53.92.53,2h-1.9c0-.35-.09-.58-.28-.67a4.24,4.24,0,0,0-1.58-.18,3.39,3.39,0,0,0-1.62.21c-.16.14-.23.59-.23,1.35s.07,1.2.23,1.35a3.39,3.39,0,0,0,1.62.21,4.75,4.75,0,0,0,1.56-.15c.21-.1.31-.34.31-.71h1.89c0,1.09-.17,1.76-.52,2a7,7,0,0,1-3.24.43c-1.76,0-2.82-.16-3.19-.48s-.55-1.21-.55-2.67.18-2.33.53-2.64S61.55,14.17,63.31,14.17Z"/><path class="cls-4" d="M72.91,15.84V14.26h7.28v1.58H77.5v4.54H75.61V15.84Z"/><path class="cls-4" d="M81.64,14.28h1.89v2.14h4.06V14.28h1.88v6.11H87.59V18H83.53v2.39H81.64Z"/><path class="cls-4" d="M99,14.27V18c0,1.11-.24,1.8-.73,2.09a7.71,7.71,0,0,1-3.16.39,7.71,7.71,0,0,1-3.16-.39c-.49-.29-.73-1-.73-2.09V14.27h1.88V18c0,.37.11.61.31.71a7.68,7.68,0,0,0,3.35,0,.71.71,0,0,0,.36-.72V14.27Z"/><path class="cls-4" d="M103.83,14.17a7,7,0,0,1,3.22.44c.36.25.53.92.53,2h-1.89c0-.35-.09-.58-.28-.67a4.24,4.24,0,0,0-1.58-.18,3.39,3.39,0,0,0-1.62.21q-.24.21-.24,1.35t.24,1.35a3.39,3.39,0,0,0,1.62.21,4.75,4.75,0,0,0,1.56-.15c.2-.1.31-.34.31-.71h1.88q0,1.64-.51,2a7.08,7.08,0,0,1-3.24.43c-1.76,0-2.82-.16-3.19-.48s-.55-1.21-.55-2.67.17-2.33.53-2.64S102.07,14.17,103.83,14.17Z"/><path class="cls-4" d="M117,19c.91,0,1.43,0,1.58,0s.21-.14.21-.34a.41.41,0,0,0-.3-.44,7.13,7.13,0,0,0-1.49-.09,7.68,7.68,0,0,1-3-.34c-.41-.23-.62-.79-.62-1.69s.27-1.37.81-1.6a8.49,8.49,0,0,1,2.74-.27,16.07,16.07,0,0,1,2.39.1c.8.16,1.19.83,1.19,2h-1.88q0-.48-.21-.57a7.39,7.39,0,0,0-1.49-.08,11.48,11.48,0,0,0-1.47.05c-.13,0-.19.15-.19.35a.4.4,0,0,0,.33.41,6.5,6.5,0,0,0,1.37.09,7.49,7.49,0,0,1,3,.37c.45.24.67.81.67,1.69s-.25,1.34-.75,1.57a9.14,9.14,0,0,1-2.93.29,17.86,17.86,0,0,1-2.27-.08,1.51,1.51,0,0,1-1.1-.56,3,3,0,0,1-.29-1.53h1.88c0,.35.08.55.22.6A7,7,0,0,0,117,19Z"/><path class="cls-4" d="M130.34,17.32q0,2.23-.54,2.67c-.39.31-1.55.47-3.5.47a16.14,16.14,0,0,1-2.81-.15,1.32,1.32,0,0,1-1.06-.86,7.77,7.77,0,0,1-.18-2.13q0-2.23.54-2.67t3.51-.48c1.94,0,3.11.16,3.49.47S130.34,15.83,130.34,17.32Zm-6.2,0c0,.78.09,1.24.27,1.37a9.5,9.5,0,0,0,3.78,0c.18-.13.27-.59.27-1.37s-.09-1.24-.27-1.37a9.5,9.5,0,0,0-3.78,0C124.23,16.08,124.14,16.53,124.14,17.32Z"/><path class="cls-4" d="M41.55,31.38V28.25h-.76v-.62h.76V24.49h2.38a6.1,6.1,0,0,1,1.22.1,2.45,2.45,0,0,1,1,.49A2.84,2.84,0,0,1,47,26.26a4.66,4.66,0,0,1,.28,1.64,4.5,4.5,0,0,1-.34,1.81,2.66,2.66,0,0,1-.8,1.11A3,3,0,0,1,45,31.3a4.28,4.28,0,0,1-1,.08Zm.91-.81h1.47A3.34,3.34,0,0,0,45,30.44a1.44,1.44,0,0,0,.61-.35,2.05,2.05,0,0,0,.51-.87,4.28,4.28,0,0,0,.18-1.33,3.77,3.77,0,0,0-.18-1.29,2.14,2.14,0,0,0-.47-.78,1.54,1.54,0,0,0-.65-.4,3.74,3.74,0,0,0-1.09-.11H42.46v2.32h1.9v.62h-1.9Z"/><path class="cls-4" d="M48.4,25.47v-1h.84v1Zm0,5.91v-5h.84v5Z"/><path class="cls-4" d="M54,29.78l.87.1a2.06,2.06,0,0,1-.76,1.19,2.27,2.27,0,0,1-1.43.43,2.3,2.3,0,0,1-1.74-.68,2.62,2.62,0,0,1-.64-1.89,2.79,2.79,0,0,1,.65-2,2.19,2.19,0,0,1,1.68-.69,2.16,2.16,0,0,1,1.64.68,2.73,2.73,0,0,1,.63,1.92v.22H51.12a1.9,1.9,0,0,0,.47,1.26,1.36,1.36,0,0,0,1,.44,1.33,1.33,0,0,0,.8-.24A1.7,1.7,0,0,0,54,29.78ZM52.56,25l-.53.8h-1l1-1.31H53L54,25.77h-1Zm-1.39,3.44H54a1.77,1.77,0,0,0-.32-.95,1.32,1.32,0,0,0-1-.49,1.34,1.34,0,0,0-1,.4A1.56,1.56,0,0,0,51.17,28.41Zm1.46-4.71c.16,0,.25-.11.25-.19a.21.21,0,0,0-.13-.19,1.39,1.39,0,0,0-.63-.11l-.44,0,0-.44a5,5,0,0,1,.68,0,2,2,0,0,1,.94.19.62.62,0,0,1,.42.51c0,.32-.28.51-.86.58v.24h-.53v-.53Z"/><path class="cls-4" d="M55.89,31.38v-5h.75v.7a1.88,1.88,0,0,1,.63-.59,1.73,1.73,0,0,1,.89-.22,1.68,1.68,0,0,1,.91.23,1.28,1.28,0,0,1,.5.64,1.79,1.79,0,0,1,1.54-.87,1.54,1.54,0,0,1,1.14.41,1.74,1.74,0,0,1,.4,1.27v3.42h-.84V28.24a2.48,2.48,0,0,0-.08-.73.75.75,0,0,0-.3-.36,1,1,0,0,0-.51-.14,1.18,1.18,0,0,0-.87.35,1.52,1.52,0,0,0-.35,1.12v2.9h-.85V28.14a1.5,1.5,0,0,0-.2-.85A.82.82,0,0,0,58,27a1.27,1.27,0,0,0-.66.19,1.1,1.1,0,0,0-.44.55,3.09,3.09,0,0,0-.14,1v2.59Z"/><path class="cls-4" d="M68.43,30.63l.12.74a2.6,2.6,0,0,1-.64.08,1.39,1.39,0,0,1-.71-.15.78.78,0,0,1-.36-.38,3,3,0,0,1-.1-1V27.05h-.63v-.66h.63V25.16l.84-.51v1.74h.85v.66h-.85V30a1.44,1.44,0,0,0,0,.46.35.35,0,0,0,.15.17.55.55,0,0,0,.29.06Z"/><path class="cls-4" d="M73.87,27.37v-1h.9v.78a2.15,2.15,0,0,1-.17,1,1.6,1.6,0,0,1-1.32.84v2.34h-.75v-.73a1.83,1.83,0,0,1-1.59.85,2.08,2.08,0,0,1-.82-.17,1.35,1.35,0,0,1-.57-.43,1.64,1.64,0,0,1-.26-.63,3.79,3.79,0,0,1-.05-.78v-3.1h.84v2.77a5.23,5.23,0,0,0,0,.89.89.89,0,0,0,1,.72,1.39,1.39,0,0,0,.72-.2A1.09,1.09,0,0,0,72.3,30a2.69,2.69,0,0,0,.14-1V26.39h.84v2.3a1.3,1.3,0,0,0,.9-.56,1.64,1.64,0,0,0,.13-.76Zm-3.25,5.54V32h1v1Z"/><path class="cls-4" d="M79,30.77a3.4,3.4,0,0,1-.91.56,2.6,2.6,0,0,1-.93.17,1.83,1.83,0,0,1-1.26-.4,1.33,1.33,0,0,1-.45-1,1.36,1.36,0,0,1,.17-.67,1.39,1.39,0,0,1,.44-.49,2.28,2.28,0,0,1,.61-.28,6.56,6.56,0,0,1,.75-.12,8,8,0,0,0,1.51-.29V28a.92.92,0,0,0-.24-.72,1.41,1.41,0,0,0-1-.29,1.48,1.48,0,0,0-.88.21,1.29,1.29,0,0,0-.42.74l-.83-.11a2,2,0,0,1,.37-.86,1.53,1.53,0,0,1,.75-.5,3.23,3.23,0,0,1,1.13-.18,3,3,0,0,1,1,.15,1.4,1.4,0,0,1,.59.38,1.36,1.36,0,0,1,.26.57,4.72,4.72,0,0,1,0,.78v1.13a10.63,10.63,0,0,0,.06,1.49,1.66,1.66,0,0,0,.21.6h-.88A1.61,1.61,0,0,1,79,30.77Zm-.07-1.89a6.76,6.76,0,0,1-1.38.32,2.79,2.79,0,0,0-.74.17.71.71,0,0,0-.34.27.8.8,0,0,0-.11.4.72.72,0,0,0,.25.57,1.1,1.1,0,0,0,.75.22,1.75,1.75,0,0,0,.87-.21,1.3,1.3,0,0,0,.56-.58,2.11,2.11,0,0,0,.14-.85Z"/><path class="cls-4" d="M87,29.56l.83.1a2.11,2.11,0,0,1-.7,1.35,2,2,0,0,1-1.38.49,2.18,2.18,0,0,1-1.65-.67,2.75,2.75,0,0,1-.62-1.92,3.49,3.49,0,0,1,.27-1.42,1.9,1.9,0,0,1,.81-.91,2.48,2.48,0,0,1,1.2-.3,2.11,2.11,0,0,1,1.33.41,1.9,1.9,0,0,1,.66,1.17l-.82.13a1.37,1.37,0,0,0-.42-.76,1.08,1.08,0,0,0-.72-.26,1.33,1.33,0,0,0-1,.46,2.17,2.17,0,0,0-.4,1.45,2.27,2.27,0,0,0,.39,1.47,1.24,1.24,0,0,0,1,.45,1.19,1.19,0,0,0,.83-.3A1.51,1.51,0,0,0,87,29.56Z"/><path class="cls-4" d="M91.82,31.38v-.73a1.83,1.83,0,0,1-1.59.85,2,2,0,0,1-.82-.17,1.3,1.3,0,0,1-.57-.43,1.5,1.5,0,0,1-.26-.63,3.57,3.57,0,0,1-.06-.78v-3.1h.85v2.77a5.4,5.4,0,0,0,0,.89.93.93,0,0,0,.34.53,1.1,1.1,0,0,0,.64.19,1.39,1.39,0,0,0,.71-.2,1.07,1.07,0,0,0,.48-.53,2.69,2.69,0,0,0,.14-1V26.39h.84v5Zm-1.19-6.22c.16-.06.25-.15.25-.27a.21.21,0,0,0-.13-.18,1.39,1.39,0,0,0-.63-.11l-.44,0-.05-.48a3.74,3.74,0,0,1,.68,0,2,2,0,0,1,.94.19.61.61,0,0,1,.41.55c0,.38-.27.61-.85.69v.23h-.53v-.56Z"/><path class="cls-4" d="M97.16,30.77a3.4,3.4,0,0,1-.91.56,2.6,2.6,0,0,1-.93.17,1.88,1.88,0,0,1-1.27-.4,1.42,1.42,0,0,1-.27-1.7,1.3,1.3,0,0,1,.44-.49,2.36,2.36,0,0,1,.6-.28,7.25,7.25,0,0,1,.76-.12,8,8,0,0,0,1.51-.29V28a.92.92,0,0,0-.24-.72,1.43,1.43,0,0,0-1-.29,1.52,1.52,0,0,0-.89.21,1.34,1.34,0,0,0-.42.74l-.82-.11a2,2,0,0,1,.37-.86,1.53,1.53,0,0,1,.75-.5A3.23,3.23,0,0,1,96,26.28a3.05,3.05,0,0,1,1,.15,1.36,1.36,0,0,1,.58.38,1.26,1.26,0,0,1,.27.57,4.72,4.72,0,0,1,0,.78v1.13a13.59,13.59,0,0,0,0,1.49,1.89,1.89,0,0,0,.22.6h-.89A1.82,1.82,0,0,1,97.16,30.77Zm-.07-1.89a6.72,6.72,0,0,1-1.39.32,3,3,0,0,0-.74.17.73.73,0,0,0-.33.27.72.72,0,0,0-.12.4.73.73,0,0,0,.26.57,1.1,1.1,0,0,0,.75.22,1.75,1.75,0,0,0,.87-.21A1.36,1.36,0,0,0,97,30a2.11,2.11,0,0,0,.14-.85Z"/><path class="cls-4" d="M101.91,31.38V24.49h.84v6.89Z"/><path class="cls-4" d="M103.75,28.89a2.6,2.6,0,0,1,.77-2.06,2.31,2.31,0,0,1,1.57-.55,2.25,2.25,0,0,1,1.69.67,2.59,2.59,0,0,1,.65,1.87,3.29,3.29,0,0,1-.29,1.51,2,2,0,0,1-.84.86,2.4,2.4,0,0,1-1.21.31,2.26,2.26,0,0,1-1.69-.67A2.71,2.71,0,0,1,103.75,28.89Zm.87,0a2.09,2.09,0,0,0,.42,1.43,1.39,1.39,0,0,0,2.1,0,2.16,2.16,0,0,0,.42-1.46,2,2,0,0,0-.42-1.4,1.34,1.34,0,0,0-1-.48,1.36,1.36,0,0,0-1,.47A2.13,2.13,0,0,0,104.62,28.89Zm2-3.12H106l-1.09-1.31H106Z"/><path class="cls-4" d="M109.42,31.38v-5h.76v.71a1.8,1.8,0,0,1,1.59-.82,2,2,0,0,1,.83.16,1.35,1.35,0,0,1,.57.43,1.66,1.66,0,0,1,.26.62,4.91,4.91,0,0,1,0,.82v3.07h-.85v-3a2.23,2.23,0,0,0-.1-.78.75.75,0,0,0-.35-.4,1,1,0,0,0-.59-.16,1.36,1.36,0,0,0-.93.35,1.68,1.68,0,0,0-.39,1.3v2.72Z"/><path class="cls-4" d="M114.62,31.8l.82.12a.78.78,0,0,0,.29.55,1.39,1.39,0,0,0,.86.24,1.51,1.51,0,0,0,.91-.24,1.16,1.16,0,0,0,.43-.65,6.18,6.18,0,0,0,.06-1.09,1.72,1.72,0,0,1-1.38.65,1.88,1.88,0,0,1-1.6-.74,2.89,2.89,0,0,1-.56-1.78,3.34,3.34,0,0,1,.26-1.32,2,2,0,0,1,.75-.93,2,2,0,0,1,1.15-.33,1.8,1.8,0,0,1,1.46.71v-.6h.78v4.32a4,4,0,0,1-.24,1.65,1.74,1.74,0,0,1-.75.77,2.57,2.57,0,0,1-1.27.28,2.38,2.38,0,0,1-1.44-.4A1.36,1.36,0,0,1,114.62,31.8Zm.7-3a2.16,2.16,0,0,0,.39,1.43,1.25,1.25,0,0,0,1,.45,1.26,1.26,0,0,0,1-.45,2.07,2.07,0,0,0,.39-1.4,2,2,0,0,0-.41-1.39,1.25,1.25,0,0,0-1.94,0A2,2,0,0,0,115.32,28.8Z"/><path class="cls-4" d="M124.65,30.63l.12.74a2.54,2.54,0,0,1-.64.08,1.41,1.41,0,0,1-.71-.15.78.78,0,0,1-.36-.38,3,3,0,0,1-.1-1V27.05h-.62v-.66H123V25.16l.84-.51v1.74h.85v.66h-.85V30a1.34,1.34,0,0,0,0,.46.33.33,0,0,0,.14.17.57.57,0,0,0,.29.06Z"/><path class="cls-4" d="M125.48,25.47v-1h.85v1Zm0,5.91v-5h.85v5Z"/><path class="cls-4" d="M127.62,31.38v-5h.76v.71a1.8,1.8,0,0,1,1.59-.82,2,2,0,0,1,.83.16,1.25,1.25,0,0,1,.56.43,1.52,1.52,0,0,1,.27.62,5.23,5.23,0,0,1,0,.82v3.07h-.84v-3a2.23,2.23,0,0,0-.1-.78.8.8,0,0,0-.35-.4,1,1,0,0,0-.59-.16,1.36,1.36,0,0,0-.93.35,1.64,1.64,0,0,0-.4,1.3v2.72Z"/></svg>