<svg id="Layer_1" data-name="Layer 1" xmlns="http://www.w3.org/2000/svg" viewBox="0 0 130 29.35"><defs><style>.cls-1{fill:#c4c4c4;}</style></defs><title>logo-connect</title><polygon class="cls-1" points="120.93 24.58 115.18 24.58 104.73 8.18 110.48 8.18 120.93 24.58"/><polygon class="cls-1" points="112.58 20.68 108.08 13.37 113.82 13.39 118.33 20.69 112.58 20.68"/><path class="cls-1" d="M0,8.18H11.32v4H4.2v2.24H8.29v4H4.2v6.23H0Z"/><path class="cls-1" d="M13.56,24.59V8.18h4V24.59Z"/><path class="cls-1" d="M37.27,24.59,45.18,8.2h1l7.92,16.39H49.7L48.48,22.1H42.83l-1.22,2.49Zm7.33-5.76h2.11l-1.05-2.22Z"/><path class="cls-1" d="M57.16,8.14l9.6,8.64V8.14H70.9V24.59H70L60.42,16.2v8.39H56.29V8.14Z"/><path class="cls-1" d="M82.73,8.1a9.16,9.16,0,0,1,5.94,2.52l.26.26-2.88,2.85-.27-.24a5,5,0,0,0-3.52-1.37,5.09,5.09,0,0,0-3.5,1.26,3.87,3.87,0,0,0-1.45,3,3.81,3.81,0,0,0,1.45,3,5.13,5.13,0,0,0,3.5,1.25,5,5,0,0,0,3.53-1.36l.27-.25,2.88,2.85-.26.26A8.75,8.75,0,0,1,85.87,24,10.09,10.09,0,0,1,75.7,22.28a7.86,7.86,0,0,1-2.55-5.88,8,8,0,0,1,2.54-5.9,9.59,9.59,0,0,1,6.56-2.45h.49Z"/><path class="cls-1" d="M91.17,8.14h11.32v4H95.38v2.24h4.08v4H95.38v2.24h7.11v4H91.17Z"/><path class="cls-1" d="M.35,29H1.48v.35H0V26.9H1.48v.35H.35v.69H1.46v.35H.35Z"/><path class="cls-1" d="M4.81,26.9l.66.91.66-.91h.43l-.88,1.22c.26.36.64.89.88,1.21H6.13l-.66-.91-.66.91H4.38l.87-1.21L4.38,26.9Z"/><path class="cls-1" d="M9.76,27.25a1.16,1.16,0,0,1,.84-.36,1.13,1.13,0,0,1,1.13.89h-.35a.79.79,0,0,0-.78-.55.84.84,0,0,0-.6.27.88.88,0,0,0-.25.62.91.91,0,0,0,.25.62.83.83,0,0,0,.6.26.81.81,0,0,0,.8-.58h.35a1.18,1.18,0,0,1-1.15.93A1.13,1.13,0,0,1,9.76,29a1.24,1.24,0,0,1-.35-.86A1.27,1.27,0,0,1,9.76,27.25Z"/><path class="cls-1" d="M15.21,27.93h1v-1h.36v2.43h-.36V28.27h-1v1.06h-.35V26.9h.35Z"/><path class="cls-1" d="M21.16,28.61h-.87c-.09.23-.22.52-.29.72h-.38l1-2.46h.25l1,2.46h-.38Zm-.74-.33H21l-.3-.85Z"/><path class="cls-1" d="M24.88,29.33V26.89h.27l1.18,1.71V26.9h.35v2.43H26.4l-1.17-1.7v1.7Z"/><path class="cls-1" d="M31.75,27.77a.76.76,0,0,0-.78-.54A.89.89,0,0,0,31,29a.79.79,0,0,0,.76-.49h-.89v-.35h1.3a1.57,1.57,0,0,1-.06.42h0a1.23,1.23,0,0,1-1.11.77,1.24,1.24,0,0,1,0-2.47,1.12,1.12,0,0,1,1.16.89Z"/><path class="cls-1" d="M35.62,29h1.13v.35H35.26V26.9h1.48v.35H35.62v.69h1.1v.35h-1.1Z"/><path class="cls-1" d="M44.36,29.33H44V26.9h.28l.81,1.18.8-1.18h.28v2.43h-.35V27.62l-.64.94H45l-.64-.94Z"/><path class="cls-1" d="M50.77,28.61H49.9c-.1.23-.22.52-.3.72h-.37l1-2.46h.26l1,2.46h-.37ZM50,28.28h.6l-.3-.85Z"/><path class="cls-1" d="M55.39,26.9a1.22,1.22,0,0,1,0,2.43h-.87V26.9Zm0,2.08a.87.87,0,0,0,0-1.73h-.52V29Z"/><path class="cls-1" d="M60.06,29h1.12v.35H59.7V26.9h1.48v.35H60.06v.69h1.1v.35h-1.1Z"/><path class="cls-1" d="M69.76,27.53a.45.45,0,0,0-.49-.31.56.56,0,0,0-.44.18.3.3,0,0,0-.06.23c0,.25.29.28.55.3s.75.13.84.52a.88.88,0,0,1,0,.16.92.92,0,0,1-1.78.08v-.06h.35v.05h0c0,.22.3.34.53.34s.54-.14.54-.39a.28.28,0,0,0,0-.09c0-.18-.29-.21-.53-.24s-.83-.12-.86-.63h0a.6.6,0,0,1,.13-.46.9.9,0,0,1,.73-.33.78.78,0,0,1,.83.64Z"/><path class="cls-1" d="M74.59,27.25h-.46V29h.46v.35H73.33V29h.45V27.25h-.45V26.9h1.26Z"/><path class="cls-1" d="M78,29.33h-.35V26.9H78l.81,1.18.8-1.18h.28v2.43h-.35V27.62l-.64.94h-.19L78,27.62Z"/><path class="cls-1" d="M84,26.9a.81.81,0,0,1,0,1.62h-.54v.81H83.1V26.9Zm0,1.27a.46.46,0,0,0,0-.92h-.54v.92Z"/><path class="cls-1" d="M88.23,29h1.14v.35H87.88V26.9h.35Z"/><path class="cls-1" d="M92.8,29h1.13v.35H92.44V26.9h1.48v.35H92.8v.69h1.1v.35H92.8Z"/><path class="cls-1" d="M21.28,8.14l9.61,8.64V8.14H35V24.59h-.9L24.54,16.2v8.39H20.41V8.14Z"/><polygon class="cls-1" points="130 6.16 128.96 0 116.52 6.24 120.55 6.16 99.73 29.33 106.05 29.33 127.15 5.66 130 6.16"/><polygon class="cls-1" points="130 6.16 128.96 0 128.96 0 102.83 29.33 106.05 29.33 126.7 6.16 130 6.16"/></svg>