<svg id="Layer_1" data-name="Layer 1" xmlns="http://www.w3.org/2000/svg" xmlns:xlink="http://www.w3.org/1999/xlink" viewBox="0 0 75.34 50.21"><defs><style>.cls-1{fill:#c4c4c4;}.cls-2{clip-path:url(#clip-path);}.cls-3{clip-path:url(#clip-path-2);}.cls-4{clip-path:url(#clip-path-3);}</style><clipPath id="clip-path"><path id="SVGID" class="cls-1" d="M38.16,8.29c0,.9-.26,1.79-.22,2.29a2.26,2.26,0,0,0,1.14,1.86,1.57,1.57,0,0,0,0,2.87h0c.26.13.56.24.72.32A5.42,5.42,0,0,1,43,20.55a5.61,5.61,0,0,1-11.22,0A5.43,5.43,0,0,1,35,15.63c.16-.08.46-.19.72-.32h0a1.59,1.59,0,0,0,.87-1c-.47.55-2.13-.21-3-.39a8.1,8.1,0,0,0-6.44,1.2,7.63,7.63,0,0,0-3.35,6.23,8.17,8.17,0,0,0,.1,1.31A13.49,13.49,0,0,0,37.4,33.69,13.4,13.4,0,0,0,51,20.52a12.76,12.76,0,0,0-1.74-6.45,2.75,2.75,0,0,0-3.39-1.15,2.66,2.66,0,0,0-1-3.44,14,14,0,0,0-7.27-2.14,1,1,0,0,1,.59.95"/></clipPath><clipPath id="clip-path-2"><path id="SVGID-2" data-name="SVGID" class="cls-1" d="M28.61,2.36c.75.71,1.53.89,3.1,1.21C29.47,4.74,27.82,2.24,27.65,2,27.16,1.37,26,.42,24.83.91a3.62,3.62,0,0,1,1.85,1.64c.49.72,1,1.23,1.56,1.26a3.6,3.6,0,0,1-2.23-1,4.62,4.62,0,0,0-1.57-1.21,2.76,2.76,0,0,0-2.7.65,3.71,3.71,0,0,1,3,1.07,4.05,4.05,0,0,0,2.17,1.29c-1.08.37-1.56-.29-2.73-.79a4.61,4.61,0,0,0-2.45-.47,3.19,3.19,0,0,0-2,1,8.43,8.43,0,0,1,4.06,1.06A4.78,4.78,0,0,0,29,5.5c.83-.51,1.24-.49,1.49-.33,1.21-1.06,1.89-.11,1.89-.11a1.52,1.52,0,0,0-1.87.67c0-.13-.38-.37-.91-.21a14.73,14.73,0,0,0-1.91,1.33,1.28,1.28,0,0,1-.74.21,1.55,1.55,0,0,1,.16.56.84.84,0,0,0,1.14.65c.18,0,.46-.13.4.16s-.71.21-.6,1.25a2,2,0,0,0,2.13,1.84,7.78,7.78,0,0,0,2.6-.27c.45-.12,1.06-.74,1.2-.48a.47.47,0,0,1-.32.69c-.37.15-.71.22-.64.7.72-.33,4.92-.25,3.23-2.69a1,1,0,0,0-.21-.88,1.76,1.76,0,0,1-1.31,1.52A1.37,1.37,0,0,1,33,9.37c-.64.15-2,.27-2.53-.71s.16-2.35.94-2.45c.22-.92.72-1,1.17-1A1.11,1.11,0,0,1,34,6.81a.66.66,0,0,1-.9.26.82.82,0,0,0,.79-.65.9.9,0,0,0-.78-1.09c-.71-.1-1.09.52-1.2,1.15-.45-.11-1,1.14-.47,1.82s1,.6,1.82.44c.16,1.54,1.77.86,2.22.41-.1.06-1.37.14-1-1.59S36,6.23,37.06,6.15a1.61,1.61,0,0,0,1.71-1.46c.17-.83-.44-1.58-1-1.48a1,1,0,0,0-.8,1.15.66.66,0,0,0,.86.53c-.46.26-.67.1-.94-.17-.22.42-.54.43-.72.25.23.17.74,0,.62-.62s-1-.38-1.4-.08-.87.72-1.5.43a.79.79,0,0,1-.13-1.46c-.41.56,0,1,.4,1a1,1,0,0,0,1-1.2c-.13-.78-1-1.07-2.39-.8S31.09,1.53,31,1.12c-.55-.12-.81.62-.54,1.13A2.45,2.45,0,0,1,28.73.46.77.77,0,0,0,28.06,0a1.93,1.93,0,0,0,.55,2.36"/></clipPath><clipPath id="clip-path-3"><path id="SVGID-3" data-name="SVGID" class="cls-1" d="M21.87,9.75a2.08,2.08,0,0,1,1.78-.36,2.1,2.1,0,0,0-.15.22,1,1,0,0,1-.63.33,2.43,2.43,0,0,0-1.67,1.37,5.24,5.24,0,0,0-.37,1,2.55,2.55,0,0,1,1.86-1.11l-.21.57a2.86,2.86,0,0,0-1.29,1.14,2.73,2.73,0,0,0-.38,1.19,2.76,2.76,0,0,1,1.34-1A15.74,15.74,0,0,0,22,14.8a14.43,14.43,0,0,0,1.27,7c-.51-5.59,2.73-9.59,5.36-10.39a1.44,1.44,0,0,1-1.23-1.26,2.69,2.69,0,0,1,0-1.29,1.08,1.08,0,0,1-1.17-.49A2.2,2.2,0,0,1,26,7.53h-.16c-.91,0-3.25.5-3.95,2.23"/></clipPath></defs><title>logo-connect</title><path id="SVGID-4" data-name="SVGID" class="cls-1" d="M38.16,8.29c0,.9-.26,1.79-.22,2.29a2.26,2.26,0,0,0,1.14,1.86,1.57,1.57,0,0,0,0,2.87h0c.26.13.56.24.72.32A5.42,5.42,0,0,1,43,20.55a5.61,5.61,0,0,1-11.22,0A5.43,5.43,0,0,1,35,15.63c.16-.08.46-.19.72-.32h0a1.59,1.59,0,0,0,.87-1c-.47.55-2.13-.21-3-.39a8.1,8.1,0,0,0-6.44,1.2,7.63,7.63,0,0,0-3.35,6.23,8.17,8.17,0,0,0,.1,1.31A13.49,13.49,0,0,0,37.4,33.69,13.4,13.4,0,0,0,51,20.52a12.76,12.76,0,0,0-1.74-6.45,2.75,2.75,0,0,0-3.39-1.15,2.66,2.66,0,0,0-1-3.44,14,14,0,0,0-7.27-2.14,1,1,0,0,1,.59.95"/><g class="cls-2"><rect id="SVGID-5" data-name="SVGID" class="cls-1" x="21.58" y="4.8" width="32.27" height="31.24"/></g><path id="SVGID-6" data-name="SVGID" class="cls-1" d="M28.61,2.36c.75.71,1.53.89,3.1,1.21C29.47,4.74,27.82,2.24,27.65,2,27.16,1.37,26,.42,24.83.91a3.62,3.62,0,0,1,1.85,1.64c.49.72,1,1.23,1.56,1.26a3.6,3.6,0,0,1-2.23-1,4.62,4.62,0,0,0-1.57-1.21,2.76,2.76,0,0,0-2.7.65,3.71,3.71,0,0,1,3,1.07,4.05,4.05,0,0,0,2.17,1.29c-1.08.37-1.56-.29-2.73-.79a4.61,4.61,0,0,0-2.45-.47,3.19,3.19,0,0,0-2,1,8.43,8.43,0,0,1,4.06,1.06A4.78,4.78,0,0,0,29,5.5c.83-.51,1.24-.49,1.49-.33,1.21-1.06,1.89-.11,1.89-.11a1.52,1.52,0,0,0-1.87.67c0-.13-.38-.37-.91-.21a14.73,14.73,0,0,0-1.91,1.33,1.28,1.28,0,0,1-.74.21,1.55,1.55,0,0,1,.16.56.84.84,0,0,0,1.14.65c.18,0,.46-.13.4.16s-.71.21-.6,1.25a2,2,0,0,0,2.13,1.84,7.78,7.78,0,0,0,2.6-.27c.45-.12,1.06-.74,1.2-.48a.47.47,0,0,1-.32.69c-.37.15-.71.22-.64.7.72-.33,4.92-.25,3.23-2.69a1,1,0,0,0-.21-.88,1.76,1.76,0,0,1-1.31,1.52A1.37,1.37,0,0,1,33,9.37c-.64.15-2,.27-2.53-.71s.16-2.35.94-2.45c.22-.92.72-1,1.17-1A1.11,1.11,0,0,1,34,6.81a.66.66,0,0,1-.9.26.82.82,0,0,0,.79-.65.9.9,0,0,0-.78-1.09c-.71-.1-1.09.52-1.2,1.15-.45-.11-1,1.14-.47,1.82s1,.6,1.82.44c.16,1.54,1.77.86,2.22.41-.1.06-1.37.14-1-1.59S36,6.23,37.06,6.15a1.61,1.61,0,0,0,1.71-1.46c.17-.83-.44-1.58-1-1.48a1,1,0,0,0-.8,1.15.66.66,0,0,0,.86.53c-.46.26-.67.1-.94-.17-.22.42-.54.43-.72.25.23.17.74,0,.62-.62s-1-.38-1.4-.08-.87.72-1.5.43a.79.79,0,0,1-.13-1.46c-.41.56,0,1,.4,1a1,1,0,0,0,1-1.2c-.13-.78-1-1.07-2.39-.8S31.09,1.53,31,1.12c-.55-.12-.81.62-.54,1.13A2.45,2.45,0,0,1,28.73.46.77.77,0,0,0,28.06,0a1.93,1.93,0,0,0,.55,2.36"/><g class="cls-3"><rect class="cls-1" x="19.72" width="19.22" height="12.16"/></g><path id="SVGID-7" data-name="SVGID" class="cls-1" d="M21.87,9.75a2.08,2.08,0,0,1,1.78-.36,2.1,2.1,0,0,0-.15.22,1,1,0,0,1-.63.33,2.43,2.43,0,0,0-1.67,1.37,5.24,5.24,0,0,0-.37,1,2.55,2.55,0,0,1,1.86-1.11l-.21.57a2.86,2.86,0,0,0-1.29,1.14,2.73,2.73,0,0,0-.38,1.19,2.76,2.76,0,0,1,1.34-1A15.74,15.74,0,0,0,22,14.8a14.43,14.43,0,0,0,1.27,7c-.51-5.59,2.73-9.59,5.36-10.39a1.44,1.44,0,0,1-1.23-1.26,2.69,2.69,0,0,1,0-1.29,1.08,1.08,0,0,1-1.17-.49A2.2,2.2,0,0,1,26,7.53h-.16c-.91,0-3.25.5-3.95,2.23"/><g class="cls-4"><rect class="cls-1" x="20.8" y="7.52" width="7.81" height="14.32"/></g><path class="cls-1" d="M5.58,37.88c.5.21.75.16.76-.14h.2l.17,2-.2,0a3.06,3.06,0,0,0-.63-1.33,1.71,1.71,0,0,0-1.43-.59,1.61,1.61,0,0,0-1,.34.85.85,0,0,0-.33.49,1.18,1.18,0,0,0,0,.62.92.92,0,0,0,.29.49,4.18,4.18,0,0,0,1.35.64A9.63,9.63,0,0,1,6.13,41a2.46,2.46,0,0,1,.86.75,2,2,0,0,1,.25,1.15,2.24,2.24,0,0,1-.81,1.63,2.79,2.79,0,0,1-2.06.63,3.38,3.38,0,0,1-1.48-.43,2.14,2.14,0,0,0-.47-.21.3.3,0,0,0-.31.07.7.7,0,0,0-.17.46H1.75V42.84h.19a3,3,0,0,0,.78,1.44,2.46,2.46,0,0,0,1.63.63,2.09,2.09,0,0,0,1.29-.31,1.08,1.08,0,0,0,.43-.54,1.48,1.48,0,0,0,.09-.68,1.19,1.19,0,0,0-.24-.57,1.94,1.94,0,0,0-.58-.44,8.49,8.49,0,0,0-1-.42,7.81,7.81,0,0,1-.84-.34c-1.08-.52-1.62-1.18-1.63-2a1.8,1.8,0,0,1,.63-1.41,2.81,2.81,0,0,1,1.86-.6,3,3,0,0,1,1.19.25"/><path class="cls-1" d="M12.2,40.66a2.35,2.35,0,0,1,.21,1.1V44.3q0,.47.27.54a1,1,0,0,0,.73-.2l.08.16a2.16,2.16,0,0,1-1.16.38c-.72,0-1.1-.25-1.14-.76a1.78,1.78,0,0,1-.66.56,2.08,2.08,0,0,1-1.06.23,1.84,1.84,0,0,1-1.15-.4,1.3,1.3,0,0,1-.45-1,1.51,1.51,0,0,1,1.24-1.46c1.37-.45,2.05-1,2-1.55s-.36-.66-1.07-.66a.94.94,0,0,0-.62.17,2,2,0,0,0-.24.46.76.76,0,0,1-.21.34.47.47,0,0,1-.28.16.41.41,0,0,1-.35-.07.4.4,0,0,1-.18-.3.63.63,0,0,1,.32-.56,2.56,2.56,0,0,1,1.56-.45c1.12,0,1.83.27,2.12.81M9.9,42.45a1.26,1.26,0,0,0-.58.51,1.54,1.54,0,0,0-.18.75,1.3,1.3,0,0,0,.24.73.74.74,0,0,0,.66.32.9.9,0,0,0,.82-.5A2.51,2.51,0,0,0,11.15,43V41.68a4.4,4.4,0,0,1-1.25.77"/><path class="cls-1" d="M15.59,40.48a2.59,2.59,0,0,1,1.62-.59,2.18,2.18,0,0,1,1.67.68,2.78,2.78,0,0,1,.62,1.91,2.84,2.84,0,0,1-.68,2,2.2,2.2,0,0,1-1.67.75,2.84,2.84,0,0,1-1.56-.51v1.91c0,.71.25,1.07.74,1.08v.17H13.58v-.17q.75,0,.75-1.08V41.09c0-.59-.26-.84-.77-.75v-.17l1.84-.28a.8.8,0,0,1,.19.59m2.26,3.75a3.1,3.1,0,0,0,.37-1.63,3.28,3.28,0,0,0-.41-1.71,1.2,1.2,0,0,0-1.08-.65,1.29,1.29,0,0,0-.78.37,1.39,1.39,0,0,0-.36.94v2.72a1.63,1.63,0,0,0,.51.39,1.32,1.32,0,0,0,.68.19,1.22,1.22,0,0,0,1.07-.62"/><path class="cls-1" d="M24.63,40.66a2.12,2.12,0,0,1,.22,1.1V44.3q0,.47.27.54a1,1,0,0,0,.73-.2l.08.16a2.16,2.16,0,0,1-1.16.38c-.72,0-1.1-.25-1.14-.76A1.78,1.78,0,0,1,23,45a2.05,2.05,0,0,1-1.06.23,1.86,1.86,0,0,1-1.15-.4,1.3,1.3,0,0,1-.45-1,1.51,1.51,0,0,1,1.24-1.46c1.37-.45,2.05-1,2-1.55s-.36-.66-1.07-.66a.94.94,0,0,0-.62.17,1.73,1.73,0,0,0-.23.46.87.87,0,0,1-.22.34.47.47,0,0,1-.28.16.41.41,0,0,1-.35-.07.48.48,0,0,1-.19-.3A.68.68,0,0,1,21,40.3a2.64,2.64,0,0,1,1.57-.45c1.13,0,1.83.27,2.11.81m-2.28,1.79a1.24,1.24,0,0,0-.59.51,1.54,1.54,0,0,0-.18.75,1.3,1.3,0,0,0,.24.73.74.74,0,0,0,.66.32.9.9,0,0,0,.82-.5A2.51,2.51,0,0,0,23.59,43V41.68a4.31,4.31,0,0,1-1.24.77"/><path class="cls-1" d="M28.87,49.94c-.29-.16-.43-.33-.43-.52a.4.4,0,0,1,.17-.33A.61.61,0,0,1,29,49a.76.76,0,0,1,.34.11,1.06,1.06,0,0,1,.27.33,3.79,3.79,0,0,0,.3.43.69.69,0,0,0,.55.07.81.81,0,0,0,.66-.92V38.87a.84.84,0,0,0-1-.93v-.2H33.4v.2a.84.84,0,0,0-1,.93v9.27a1.84,1.84,0,0,1-.62,1.48,2.51,2.51,0,0,1-1.68.59,2.6,2.6,0,0,1-1.27-.27"/><path class="cls-1" d="M38,40.66a2.48,2.48,0,0,1,.21,1.1V44.3q0,.47.27.54a1,1,0,0,0,.73-.2l.08.16a2.16,2.16,0,0,1-1.16.38c-.72,0-1.1-.25-1.14-.76a1.78,1.78,0,0,1-.66.56,2.08,2.08,0,0,1-1.06.23,1.86,1.86,0,0,1-1.15-.4,1.3,1.3,0,0,1-.45-1,1.51,1.51,0,0,1,1.24-1.46c1.37-.45,2-1,2-1.55s-.37-.66-1.07-.66a.94.94,0,0,0-.62.17,1.73,1.73,0,0,0-.23.46,1,1,0,0,1-.22.34.47.47,0,0,1-.28.16.43.43,0,0,1-.36-.07.43.43,0,0,1-.18-.3.67.67,0,0,1,.33-.56,2.56,2.56,0,0,1,1.56-.45c1.13,0,1.83.27,2.12.81m-2.3,1.79a1.19,1.19,0,0,0-.57.51,1.44,1.44,0,0,0-.19.75,1.3,1.3,0,0,0,.24.73.74.74,0,0,0,.66.32.9.9,0,0,0,.82-.5A2.51,2.51,0,0,0,36.9,43V41.68a4.25,4.25,0,0,1-1.25.77"/><path class="cls-1" d="M43.59,44.61a2.58,2.58,0,0,1-1.62.6,2.16,2.16,0,0,1-1.67-.69,2.76,2.76,0,0,1-.62-1.91,2.84,2.84,0,0,1,.68-2A2.13,2.13,0,0,1,42,39.89a2.73,2.73,0,0,1,1.56.5V38.66c0-.59-.25-.83-.74-.74v-.18l2-.31v6.45c0,.58.25.82.77.74v.17l-1.84.43a.9.9,0,0,1-.2-.61m-2.26-3.75A3.14,3.14,0,0,0,41,42.5a3,3,0,0,0,.42,1.7,1.18,1.18,0,0,0,1.07.65,1.24,1.24,0,0,0,.77-.37,1.27,1.27,0,0,0,.37-.94V40.83a1.65,1.65,0,0,0-.51-.4,1.44,1.44,0,0,0-.68-.18,1.19,1.19,0,0,0-1.07.61"/><path class="cls-1" d="M50.7,40.53a2.59,2.59,0,0,1,.72,1.8H47.57A2.41,2.41,0,0,0,48,44a1.51,1.51,0,0,0,1.32.67,1.62,1.62,0,0,0,1.14-.45,2.81,2.81,0,0,0,.7-1.18h.17a2.82,2.82,0,0,1-.92,1.6,2.55,2.55,0,0,1-1.66.57A2.44,2.44,0,0,1,47,44.44a2.56,2.56,0,0,1-.74-1.86A2.7,2.7,0,0,1,47,40.65a2.51,2.51,0,0,1,1.92-.8,2.44,2.44,0,0,1,1.82.68m-2.43-.22a1.32,1.32,0,0,0-.38.53,3.11,3.11,0,0,0-.21.63c0,.2-.07.41-.09.6h2.46a2.59,2.59,0,0,0-.08-.81,2.05,2.05,0,0,0-.4-.81.84.84,0,0,0-.73-.37.9.9,0,0,0-.57.23"/><path class="cls-1" d="M58.49,37.74v.2a.83.83,0,0,0-1,.93v2.27h3.8V38.87a.84.84,0,0,0-1-.93v-.2h3.28v.2a.82.82,0,0,0-1,.93V44a.81.81,0,0,0,1,.92v.2H60.36v-.2a.82.82,0,0,0,1-.92v-2.6h-3.8V44c0,.63.32.93,1,.92v.2h-3.3v-.2a.82.82,0,0,0,1-.92v-5.1c0-.62-.33-.93-1-.93v-.2Z"/><path class="cls-1" d="M64.24,40.17l2-.28v4c0,.66.25,1,.74,1v.17H64.24v-.17c.5,0,.74-.37.74-1V41.06c0-.56-.24-.8-.74-.71Zm2.11-1.86a.71.71,0,0,1-.22.52.72.72,0,0,1-.52.21.76.76,0,0,1-.54-.21.69.69,0,0,1,0-1,.76.76,0,0,1,.54-.21.73.73,0,0,1,.52.22.67.67,0,0,1,.22.5"/><path class="cls-1" d="M69.4,43.85c0,.71.24,1.07.74,1.07v.17h-2.8v-.17c.51,0,.77-.36.77-1.07V38.66c0-.59-.25-.83-.77-.74v-.18l2.06-.3v6.41Z"/><path class="cls-1" d="M72.79,43.85c0,.71.25,1.07.74,1.07v.17H70.74v-.17c.51,0,.76-.36.76-1.07V38.66c0-.59-.24-.83-.76-.74v-.18l2.05-.3v6.41Z"/><rect class="cls-1" y="33.48" width="25.3" height="0.43"/><rect class="cls-1" x="50.04" y="33.48" width="25.3" height="0.43"/></svg>