<svg id="Layer_1" data-name="Layer 1" xmlns="http://www.w3.org/2000/svg" viewBox="0 0 98.68 31.74"><defs><style>.cls-1{fill:#c4c4c4;}</style></defs><title>logo-connect</title><path class="cls-1" d="M23.28,14.38a6.39,6.39,0,0,1-2,4.77,6.64,6.64,0,0,1-4.83,1.9H.23V0H16.45a6.69,6.69,0,0,1,4.83,1.94,6.36,6.36,0,0,1,2,4.72ZM5.14,4.91V16.14H16.45c1.25,0,1.88-.59,1.88-1.76V6.66c0-1.17-.63-1.75-1.88-1.75Z"/><path class="cls-1" d="M47.26,21.05H42.38L29.75,6.86V21.05H24.84V0h4.91L42.38,14.06V0h4.88Z"/><path class="cls-1" d="M71.63,19.15a5.48,5.48,0,0,1-4.25,1.9H48.29V16.14H67.38c.68,0,1-.53,1-1.6s-.34-1.59-1-1.59H54.17a5.52,5.52,0,0,1-4.24-1.88A6.46,6.46,0,0,1,48.21,6.5,6.63,6.63,0,0,1,49.87,2,5.52,5.52,0,0,1,54.17,0H78.94c-3.29,0-4.7,4.91-4.7,4.91H54.17c-.67,0-1,.53-1,1.59s.34,1.56,1,1.56H67.38A5.5,5.5,0,0,1,71.63,10a6.73,6.73,0,0,1,1.66,4.59A6.73,6.73,0,0,1,71.63,19.15Z"/><path class="cls-1" d="M98.6,21.05H82.34a6.69,6.69,0,0,1-4.84-1.9,6.29,6.29,0,0,1-2-4.77V6.66a6.34,6.34,0,0,1,2-4.75A6.75,6.75,0,0,1,82.34,0H98.6V4.91H82.34c-1.3,0-2,.58-2,1.75v7.72c0,1.17.65,1.76,2,1.76H98.6Z"/><path class="cls-1" d="M.47,30.67V26.45H3.38a7.1,7.1,0,0,1,1.35.08,1.09,1.09,0,0,1,.75.51,1.54,1.54,0,0,1,.17.56,5.92,5.92,0,0,1,.06,1,4.31,4.31,0,0,1-.14,1.21,1.13,1.13,0,0,1-.94.84,8.54,8.54,0,0,1-1.21.06Zm.64-.55h3a1.24,1.24,0,0,0,.31-.05.66.66,0,0,0,.46-.42,3.36,3.36,0,0,0,.14-1.11,2.17,2.17,0,0,0-.25-1.28.48.48,0,0,0-.23-.16A1.29,1.29,0,0,0,4.16,27h-3Z"/><path class="cls-1" d="M6.78,28.64H6.21c0-.07,0-.12,0-.15a.64.64,0,0,1,.36-.64,3.32,3.32,0,0,1,1.31-.17A5.61,5.61,0,0,1,9,27.75a1,1,0,0,1,.52.26.73.73,0,0,1,.21.37,3.93,3.93,0,0,1,.05.73v1.56H9.18v-.34h.05a.79.79,0,0,1-.42.3,3.81,3.81,0,0,1-.92.07c-.51,0-.87,0-1.07,0a1.08,1.08,0,0,1-.47-.16.59.59,0,0,1-.22-.28,1.23,1.23,0,0,1-.06-.43,1.26,1.26,0,0,1,.09-.53A.63.63,0,0,1,6.49,29a3.52,3.52,0,0,1,1.11-.11,7.16,7.16,0,0,1,1.18.06.67.67,0,0,1,.43.25h0v-.28a.81.81,0,0,0-.13-.53.55.55,0,0,0-.35-.19,4.66,4.66,0,0,0-.79-.05,3.33,3.33,0,0,0-.93.08.32.32,0,0,0-.2.35Zm1.12.71a7.57,7.57,0,0,0-.78,0,.66.66,0,0,0-.3.07.37.37,0,0,0-.16.36.35.35,0,0,0,.19.36A3.93,3.93,0,0,0,8,30.24a3.07,3.07,0,0,0,.94-.09.34.34,0,0,0,.22-.36.35.35,0,0,0-.25-.35A3.51,3.51,0,0,0,7.9,29.35Z"/><path class="cls-1" d="M10.26,26.45h1l3.64,3.64H15V26.45h.64v4.22h-1L11,27h-.05v3.64h-.65Z"/><path class="cls-1" d="M16.76,28.64H16.2a1,1,0,0,1,0-.15.65.65,0,0,1,.35-.64,3.32,3.32,0,0,1,1.31-.17,5.54,5.54,0,0,1,1.08.07,1,1,0,0,1,.53.26.79.79,0,0,1,.2.37,3.93,3.93,0,0,1,.05.73v1.56h-.55v-.34h0a.8.8,0,0,1-.41.3,3.9,3.9,0,0,1-.93.07c-.51,0-.86,0-1.07,0a1,1,0,0,1-.46-.16.61.61,0,0,1-.23-.28,1.23,1.23,0,0,1-.06-.43,1.11,1.11,0,0,1,.1-.53.6.6,0,0,1,.32-.28,3.44,3.44,0,0,1,1.1-.11,7.16,7.16,0,0,1,1.18.06.69.69,0,0,1,.44.25h0v-.28a.81.81,0,0,0-.13-.53.52.52,0,0,0-.35-.19,4.57,4.57,0,0,0-.79-.05,3.33,3.33,0,0,0-.93.08.34.34,0,0,0-.2.35Zm1.12.71a7.24,7.24,0,0,0-.77,0,.67.67,0,0,0-.31.07.37.37,0,0,0-.16.36.35.35,0,0,0,.19.36,4,4,0,0,0,1.15.08,2.94,2.94,0,0,0,.93-.09.33.33,0,0,0,.22-.36.34.34,0,0,0-.25-.35A3.46,3.46,0,0,0,17.88,29.35Z"/><path class="cls-1" d="M20.19,27.71h.55v.44h0a.78.78,0,0,1,.46-.37,3.61,3.61,0,0,1,1-.1,4.42,4.42,0,0,1,.94.07.93.93,0,0,1,.49.26.78.78,0,0,1,.2.37,3.13,3.13,0,0,1,.05.62v1.67h-.55V29.2a3.45,3.45,0,0,0,0-.55.52.52,0,0,0-.46-.46,3.74,3.74,0,0,0-.69-.05,3.32,3.32,0,0,0-.81.08.78.78,0,0,0-.42.24.56.56,0,0,0-.13.28,3.43,3.43,0,0,0,0,.56v1.37h-.55Z"/><path class="cls-1" d="M27.58,27.71h.55v2.2a5.48,5.48,0,0,1-.07,1,.92.92,0,0,1-.36.55,1.11,1.11,0,0,1-.53.19,6.74,6.74,0,0,1-1,0,5,5,0,0,1-1.1-.09,1,1,0,0,1-.54-.34.9.9,0,0,1-.11-.22,1.4,1.4,0,0,1,0-.34h.56A.66.66,0,0,0,25,31a.38.38,0,0,0,.14.14,2.29,2.29,0,0,0,1,.13,6.51,6.51,0,0,0,.93-.05A.65.65,0,0,0,27.4,31a.8.8,0,0,0,.13-.28,4.92,4.92,0,0,0,0-.57h.05a.93.93,0,0,1-.46.3,4.36,4.36,0,0,1-1,.07,7.09,7.09,0,0,1-.92,0,1.16,1.16,0,0,1-.51-.19.94.94,0,0,1-.36-.47,2.18,2.18,0,0,1-.11-.74,1.26,1.26,0,0,1,.61-1.27,1.9,1.9,0,0,1,.5-.13c.21,0,.5,0,.88,0a5.81,5.81,0,0,1,.7,0,1,1,0,0,1,.37.11.69.69,0,0,1,.29.27h-.05Zm-1.31.43a2.77,2.77,0,0,0-1.09.14c-.22.1-.32.39-.32.85s.12.75.35.86a2.87,2.87,0,0,0,1,.11A2.52,2.52,0,0,0,27.28,30a.62.62,0,0,0,.23-.31,2,2,0,0,0,.07-.58,1.46,1.46,0,0,0-.08-.54.53.53,0,0,0-.26-.27A2.52,2.52,0,0,0,26.27,28.14Z"/><path class="cls-1" d="M30.13,29.31h.63c0,.06,0,.1,0,.12a2,2,0,0,0,0,.46.29.29,0,0,0,.18.16,5.62,5.62,0,0,0,1.49.1,6.65,6.65,0,0,0,1.32-.09c.25-.06.37-.25.37-.59a.93.93,0,0,0-.06-.39.35.35,0,0,0-.2-.18,1.9,1.9,0,0,0-.42-.06H31.68a2.78,2.78,0,0,1-.85-.1.89.89,0,0,1-.5-.32,1.18,1.18,0,0,1-.21-.77,1,1,0,0,1,.33-.83,1,1,0,0,1,.35-.2,2.52,2.52,0,0,1,.54-.11,12.43,12.43,0,0,1,1.31-.06,6.42,6.42,0,0,1,1.11.07,1.37,1.37,0,0,1,.61.25.7.7,0,0,1,.25.35,2.18,2.18,0,0,1,.08.63h-.65v-.1a.84.84,0,0,0-.06-.39.63.63,0,0,0-.4-.22,5.59,5.59,0,0,0-1-.06,11.21,11.21,0,0,0-1.2.05,1,1,0,0,0-.52.19.58.58,0,0,0-.13.43.73.73,0,0,0,.07.39.37.37,0,0,0,.23.16,4.53,4.53,0,0,0,1.08.1h1.35a2.93,2.93,0,0,1,.71.09.83.83,0,0,1,.41.3,1.23,1.23,0,0,1,.2.74,1.49,1.49,0,0,1-.16.73,1.08,1.08,0,0,1-.72.43,10.75,10.75,0,0,1-1.83.1,8.86,8.86,0,0,1-1,0,1.38,1.38,0,0,1-.53-.16.74.74,0,0,1-.34-.34,1.66,1.66,0,0,1-.09-.62Z"/><path class="cls-1" d="M38.43,29.71H39a.86.86,0,0,1-.38.78,2.77,2.77,0,0,1-1.27.21,10.11,10.11,0,0,1-1.11-.05,1.5,1.5,0,0,1-.59-.2,1.46,1.46,0,0,1-.45-1.25,2,2,0,0,1,.19-1,.94.94,0,0,1,.53-.43,4.3,4.3,0,0,1,1.14-.11,5.54,5.54,0,0,1,1.09.08,1,1,0,0,1,.55.32,1,1,0,0,1,.23.45,3,3,0,0,1,.07.79H35.78A1,1,0,0,0,36,30a.71.71,0,0,0,.4.17,6.25,6.25,0,0,0,.92,0,4,4,0,0,0,.7,0,.57.57,0,0,0,.32-.16A.67.67,0,0,0,38.43,29.71Zm0-.84a.68.68,0,0,0-.22-.54.88.88,0,0,0-.39-.15,6.5,6.5,0,0,0-.76,0,3.71,3.71,0,0,0-.66,0,.65.65,0,0,0-.58.69Z"/><path class="cls-1" d="M42.51,29.56h.56a1.17,1.17,0,0,1-.25.81.87.87,0,0,1-.47.26,3.83,3.83,0,0,1-.86.07,10,10,0,0,1-1.13-.05,1.36,1.36,0,0,1-.57-.21,1.47,1.47,0,0,1-.43-1.24,2.07,2.07,0,0,1,.18-1,1,1,0,0,1,.54-.44,4.26,4.26,0,0,1,1.13-.11,5.46,5.46,0,0,1,1,.07,1.06,1.06,0,0,1,.54.27.71.71,0,0,1,.18.3,1.55,1.55,0,0,1,.07.49h-.57a.57.57,0,0,0-.25-.55,2.73,2.73,0,0,0-1-.12,2.08,2.08,0,0,0-1,.15.59.59,0,0,0-.22.32,2.46,2.46,0,0,0-.07.62,1.55,1.55,0,0,0,.09.59.52.52,0,0,0,.26.3,3.14,3.14,0,0,0,1.12.12,2.08,2.08,0,0,0,.89-.12C42.43,30,42.5,29.85,42.51,29.56Z"/><path class="cls-1" d="M43.45,27.71H44v1.5a2.54,2.54,0,0,0,0,.57.46.46,0,0,0,.16.28.73.73,0,0,0,.32.14,3.24,3.24,0,0,0,.61,0,2.77,2.77,0,0,0,.79-.08.79.79,0,0,0,.41-.24.56.56,0,0,0,.12-.27,2,2,0,0,0,0-.48V27.71H47v3h-.55v-.44h0a.84.84,0,0,1-.48.37,3.31,3.31,0,0,1-1,.1,4.73,4.73,0,0,1-.85-.06,1.07,1.07,0,0,1-.49-.23.7.7,0,0,1-.23-.38,2.9,2.9,0,0,1-.06-.69Z"/><path class="cls-1" d="M47.54,27.71h.54v.39h0a.7.7,0,0,1,.33-.3,1,1,0,0,1,.36-.09,5.32,5.32,0,0,1,.65,0,2.69,2.69,0,0,1,.65.05.79.79,0,0,1,.38.18,1,1,0,0,1,.3.84v.33h-.56v-.24a1.6,1.6,0,0,0,0-.36.39.39,0,0,0-.1-.19,1.09,1.09,0,0,0-.69-.15,1.59,1.59,0,0,0-1,.21,1.33,1.33,0,0,0-.23.95v1.37h-.54Z"/><path class="cls-1" d="M51,26.66h.55v.6H51Zm0,1.05h.55v3H51Z"/><path class="cls-1" d="M52.51,27.41l.55-.41v.71h2l-.53.46H53.06v1.22a4.1,4.1,0,0,0,0,.5.44.44,0,0,0,.08.17.46.46,0,0,0,.24.14,2,2,0,0,0,.48,0,1.51,1.51,0,0,0,.43,0,.34.34,0,0,0,.19-.14.36.36,0,0,0,.07-.18c0-.07,0-.11,0-.12l.54-.46v.21a3.3,3.3,0,0,1,0,.51.77.77,0,0,1-.12.31.83.83,0,0,1-.41.29,2.73,2.73,0,0,1-.73.08,2.52,2.52,0,0,1-.75-.08.71.71,0,0,1-.41-.26.83.83,0,0,1-.14-.3,3.36,3.36,0,0,1,0-.52V28.17H51.8v-.46h.71Z"/><path class="cls-1" d="M55.48,26.66H56v.6h-.55Zm0,1.05H56v3h-.55Z"/><path class="cls-1" d="M59.72,29.71h.57a.84.84,0,0,1-.39.78,2.69,2.69,0,0,1-1.26.21,10.11,10.11,0,0,1-1.11-.05,1.5,1.5,0,0,1-.59-.2,1.46,1.46,0,0,1-.45-1.25,2,2,0,0,1,.19-1,.94.94,0,0,1,.53-.43,4.3,4.3,0,0,1,1.14-.11,5.54,5.54,0,0,1,1.09.08,1,1,0,0,1,.55.32,1.07,1.07,0,0,1,.23.45,3.53,3.53,0,0,1,.07.79H57.07a1,1,0,0,0,.21.7.71.71,0,0,0,.39.17,6.45,6.45,0,0,0,.92,0,4.07,4.07,0,0,0,.71,0,.57.57,0,0,0,.32-.16A.67.67,0,0,0,59.72,29.71Zm0-.84a.65.65,0,0,0-.21-.54.88.88,0,0,0-.39-.15,6.5,6.5,0,0,0-.76,0,3.71,3.71,0,0,0-.66,0,.8.8,0,0,0-.35.14.74.74,0,0,0-.23.55Z"/><path class="cls-1" d="M60.63,29.6h.58v.11a.82.82,0,0,0,0,.32.33.33,0,0,0,.18.14,4.69,4.69,0,0,0,1.12.07l.81,0a.62.62,0,0,0,.31-.1.35.35,0,0,0,.12-.3.34.34,0,0,0-.15-.33,1.23,1.23,0,0,0-.57-.09H61.75a3.11,3.11,0,0,1-.5-.05.84.84,0,0,1-.33-.15.75.75,0,0,1-.24-.63.77.77,0,0,1,.3-.67,1.14,1.14,0,0,1,.52-.16,6.78,6.78,0,0,1,1-.05,5.81,5.81,0,0,1,1.1.08.89.89,0,0,1,.52.3.36.36,0,0,1,.11.21,2,2,0,0,1,0,.4h-.57a.55.55,0,0,0-.08-.36.61.61,0,0,0-.34-.13,6.85,6.85,0,0,0-.77,0,2.81,2.81,0,0,0-1.11.12.34.34,0,0,0-.13.31.28.28,0,0,0,.15.29,1.69,1.69,0,0,0,.66.06c.34,0,.79,0,1.33,0a1.12,1.12,0,0,1,.74.22.82.82,0,0,1,.23.65,1.06,1.06,0,0,1-.08.43.69.69,0,0,1-.26.28,1.22,1.22,0,0,1-.5.13,8.41,8.41,0,0,1-1,0,9.75,9.75,0,0,1-1.08,0,1.18,1.18,0,0,1-.52-.16.58.58,0,0,1-.24-.28,1.06,1.06,0,0,1-.07-.44Z"/><path class="cls-1" d="M70.64,29.18h.63a4.2,4.2,0,0,1-.07.82.74.74,0,0,1-.65.59,8.39,8.39,0,0,1-1.51.09,11.12,11.12,0,0,1-1.89-.1.84.84,0,0,1-.66-.5,4.36,4.36,0,0,1-.17-1.46,5.64,5.64,0,0,1,.13-1.45.87.87,0,0,1,.79-.65A12.5,12.5,0,0,1,69,26.44a8.25,8.25,0,0,1,1.56.1,1,1,0,0,1,.42.22.7.7,0,0,1,.23.36,4.89,4.89,0,0,1,0,.76h-.61v-.17a1,1,0,0,0-.06-.42.35.35,0,0,0-.2-.17A5,5,0,0,0,68.93,27c-.54,0-1,0-1.22,0a1.15,1.15,0,0,0-.51.13.71.71,0,0,0-.17.39,5.87,5.87,0,0,0,0,.84c0,.17,0,.39,0,.66s0,.46,0,.56a.57.57,0,0,0,.15.33.54.54,0,0,0,.35.12c.31,0,.76.05,1.34.05l.7,0,.55,0a1.33,1.33,0,0,0,.32-.08.32.32,0,0,0,.14-.18A2.83,2.83,0,0,0,70.64,29.18Z"/><path class="cls-1" d="M73.43,27.68a8.66,8.66,0,0,1,1,0,1.54,1.54,0,0,1,.52.15,1,1,0,0,1,.41.49,2.33,2.33,0,0,1,.13.83,2.07,2.07,0,0,1-.15.89.93.93,0,0,1-.3.37,1.17,1.17,0,0,1-.49.2,6.57,6.57,0,0,1-.94.05,7.48,7.48,0,0,1-.94,0,1.76,1.76,0,0,1-.53-.15,1,1,0,0,1-.43-.47,2.5,2.5,0,0,1-.12-.86,2,2,0,0,1,.18-.94.92.92,0,0,1,.53-.44A3.6,3.6,0,0,1,73.43,27.68Zm.07.46a5.47,5.47,0,0,0-.67,0,.76.76,0,0,0-.35.12.57.57,0,0,0-.22.31,2,2,0,0,0-.07.6,1.73,1.73,0,0,0,.09.65.52.52,0,0,0,.31.29,3.16,3.16,0,0,0,1,.1,5.78,5.78,0,0,0,.71,0,1,1,0,0,0,.36-.13.58.58,0,0,0,.2-.31,1.86,1.86,0,0,0,.07-.59,1.68,1.68,0,0,0-.1-.66.59.59,0,0,0-.37-.3A3.94,3.94,0,0,0,73.5,28.14Z"/><path class="cls-1" d="M75.94,27.71h.55V28a.9.9,0,0,1,.37-.25,2.75,2.75,0,0,1,.77-.08,3.28,3.28,0,0,1,1,.11.78.78,0,0,1,.46.33.74.74,0,0,1,.41-.33,3.07,3.07,0,0,1,.94-.11,3.44,3.44,0,0,1,.9.08,1,1,0,0,1,.5.28.82.82,0,0,1,.19.37,3.85,3.85,0,0,1,0,.71v1.55h-.55V29a1,1,0,0,0-.15-.67,1.43,1.43,0,0,0-.93-.2,2.59,2.59,0,0,0-.65.06.59.59,0,0,0-.33.18.85.85,0,0,0-.15.36,4.6,4.6,0,0,0,0,.76v1.17h-.55V29a2.49,2.49,0,0,0,0-.45.57.57,0,0,0-.12-.22,1.52,1.52,0,0,0-1-.2,2.7,2.7,0,0,0-.65.06.69.69,0,0,0-.35.19.62.62,0,0,0-.13.33,4.57,4.57,0,0,0,0,.78v1.17h-.55Z"/><path class="cls-1" d="M82.59,31.71v-4h.55v.38h0a.76.76,0,0,1,.43-.33,4.22,4.22,0,0,1,1-.08,6.78,6.78,0,0,1,.9,0,1.7,1.7,0,0,1,.51.16,1,1,0,0,1,.42.5,2.22,2.22,0,0,1,.11.81,1.91,1.91,0,0,1-.2,1,1,1,0,0,1-.57.43,4.83,4.83,0,0,1-1.21.1,3.42,3.42,0,0,1-.92-.08.73.73,0,0,1-.44-.3h0v1.39Zm2-3.57a7.86,7.86,0,0,0-.81,0,1.13,1.13,0,0,0-.38.12.61.61,0,0,0-.22.31,2,2,0,0,0-.07.56,2,2,0,0,0,.08.64.52.52,0,0,0,.25.31,2.34,2.34,0,0,0,1,.13,7,7,0,0,0,.76,0,.94.94,0,0,0,.37-.12.55.55,0,0,0,.22-.31,1.79,1.79,0,0,0,.07-.58,1.91,1.91,0,0,0-.07-.62.56.56,0,0,0-.25-.31A2.26,2.26,0,0,0,84.6,28.14Z"/><path class="cls-1" d="M87.46,28.64h-.57v-.15a.63.63,0,0,1,.35-.64,3.32,3.32,0,0,1,1.31-.17,5.54,5.54,0,0,1,1.08.07.92.92,0,0,1,.52.26.73.73,0,0,1,.21.37,3.93,3.93,0,0,1,0,.73v1.56h-.55v-.34h0a.79.79,0,0,1-.42.3,3.75,3.75,0,0,1-.92.07c-.51,0-.86,0-1.07,0a1.08,1.08,0,0,1-.47-.16.66.66,0,0,1-.22-.28,1.23,1.23,0,0,1-.06-.43,1.26,1.26,0,0,1,.09-.53.63.63,0,0,1,.32-.28,3.56,3.56,0,0,1,1.11-.11,7.16,7.16,0,0,1,1.18.06.72.72,0,0,1,.44.25h0v-.28a.81.81,0,0,0-.13-.53.52.52,0,0,0-.35-.19,4.66,4.66,0,0,0-.79-.05,3.33,3.33,0,0,0-.93.08.34.34,0,0,0-.2.35Zm1.12.71a7.57,7.57,0,0,0-.78,0,.66.66,0,0,0-.3.07.37.37,0,0,0-.16.36.35.35,0,0,0,.19.36,4,4,0,0,0,1.15.08,3,3,0,0,0,.93-.09.33.33,0,0,0,.22-.36.34.34,0,0,0-.25-.35A3.46,3.46,0,0,0,88.58,29.35Z"/><path class="cls-1" d="M90.89,27.71h.54v.44h0a.75.75,0,0,1,.46-.37,3.57,3.57,0,0,1,1-.1,4.42,4.42,0,0,1,.94.07.93.93,0,0,1,.49.26.77.77,0,0,1,.19.37,2.43,2.43,0,0,1,.06.62v1.67H94V29.2a3.45,3.45,0,0,0,0-.55.65.65,0,0,0-.12-.28.73.73,0,0,0-.34-.18,3.74,3.74,0,0,0-.69-.05,3.32,3.32,0,0,0-.81.08.78.78,0,0,0-.42.24.56.56,0,0,0-.13.28,2.38,2.38,0,0,0,0,.56v1.37h-.54Z"/><path class="cls-1" d="M94.73,27.71h.63l1.4,2.52h0l1.3-2.52h.63l-1.43,2.73a6.91,6.91,0,0,1-.4.69,1.3,1.3,0,0,1-.32.34,1.28,1.28,0,0,1-.38.16,2.73,2.73,0,0,1-.56,0h-.31v-.48l.26,0a1.24,1.24,0,0,0,.61-.11,1.08,1.08,0,0,0,.36-.43h-.12Z"/></svg>