<svg id="Layer_1" data-name="Layer 1" xmlns="http://www.w3.org/2000/svg" viewBox="0 0 55.82 52.52"><defs><style>.cls-1{fill:#c4c4c4;}</style></defs><title>logo-connect</title><path class="cls-1" d="M21.87,21.06c2.19-.13,3.88-1.07,3.88-2.22s-1.69-2.09-3.88-2.23Z"/><path class="cls-1" d="M21.86,14.55a1.73,1.73,0,0,1,.86-1.38,3.36,3.36,0,0,1,1-.39,3.32,3.32,0,0,0,.94-.23,2.3,2.3,0,0,0,1-1.82,23.28,23.28,0,0,0,0-2.77V0H24.06c-.16,0-.18,0-.27.17V7.4c0,.06.12.17.12.23,0,1-.12,2-.12,3a.81.81,0,0,1-.12.57L22.33,12c-.55.32-.53.38-.52,1S21.84,14,21.86,14.55Z"/><path class="cls-1" d="M25.25,12.52c-.41.25-1.52.59-1.24,1.28.38.91,5.26,1.59,5.65,1.65,0-.19,0-.37,0-.56,0-.63,0-1.26.05-1.89s-.18-.81-.82-1.19a4.24,4.24,0,0,1-1-.61.76.76,0,0,1-.13-.57c0-1-.12-2-.12-3,0-.06.12-.17.12-.23V.18c-.08-.13-.1-.17-.26-.17H26.11V9.76C26.11,10.7,26.15,12,25.25,12.52Z"/><path class="cls-1" d="M55.82,36.55c-.62-.91-4.14-8.16-5-8.77a2,2,0,0,0-2.6.26,4.51,4.51,0,0,1-3.27,1.11c-1.23-.22-1.38-1.75-2-2.59a4.13,4.13,0,0,0-3-1.62A5.92,5.92,0,0,1,34.2,20.7a7,7,0,0,0-1.65-3.16,3.83,3.83,0,0,0-2.91-.64c0,.31,0,1.67,0,1.82A5.11,5.11,0,0,1,27,23.23a15.62,15.62,0,0,1-2.26.87l.1.07-.07,0c.24.17.48.34.74.5a14.86,14.86,0,0,0,3.26,1.56c2.44,1,4.84,1.63,6,2.09l.63.25c4.59,1.42,7.6,3.34,7.34,4.95s-3.4,2.39-7.86,2.38l-.82,0c-.13,0-9.48.09-12.56.24A96.48,96.48,0,0,0,33,34.48c1.08-.36,2.44-.71,3-1.79.85-1.5-1.41-2.46-2.46-2.93-1.47-.68-3-1.2-4.55-1.79-3.43-1.34-6.68-2.93-8.45-6.32-1-2-1.6-4.62-3.77-5.76a2.75,2.75,0,0,0-1.41-.33h-.11a3.78,3.78,0,0,0-3.07,1.86c-.87,1.2-1.65,2.46-2.41,3.74C8.23,23.84.3,36.55,0,36.55,17,36.73,55.82,36.55,55.82,36.55Z"/><path class="cls-1" d="M49.51,47.54c-.42-2.31-1.08-4.55-1.61-6.83H46.19v9.82h.27V41.45s0,0,0,0l2.14,9.08h1.18V40.71h-.28v6.83Z"/><polygon class="cls-1" points="53.81 45.31 52.56 45.31 52.56 40.71 50.88 40.71 50.88 50.53 52.56 50.53 52.56 45.56 53.81 45.56 53.81 50.53 55.49 50.53 55.49 40.71 53.81 40.71 53.81 45.31"/><path class="cls-1" d="M45.63,39.2v-.68a.42.42,0,0,0-.29-.38,1.64,1.64,0,0,0-.53-.08,1.69,1.69,0,0,0-.53.08.4.4,0,0,0-.29.38v.31h.65v-.31c0-.1.06-.15.17-.15s.17.05.17.15v.68c0,.1-.06.15-.17.15a1.44,1.44,0,0,0-.53.09.4.4,0,0,0-.29.38v.42h.65v-.42a.15.15,0,0,1,.17-.16,1.64,1.64,0,0,0,.53-.08A.42.42,0,0,0,45.63,39.2Z"/><path class="cls-1" d="M43.66,43.42l-.51.27v.17c0,.15,0,.31,0,.46s0,.45,0,.68l0,.84,0,.92,0,1c0,.3.08,2.51.08,2.63a.55.55,0,0,0,.06.18H45a.39.39,0,0,0,.06-.18c0-.12.07-2.33.08-2.63s0-.63,0-1l0-.92c0-.28,0-.56,0-.84l0-.68c0-.15,0-.31,0-.46a1,1,0,0,1,0-.17l-.52-.27a.16.16,0,0,1,0-.13c0-.25,0-.49,0-.73,0,0,0,0,0-.06V40.75s0,0-.07,0h-.91a.07.07,0,0,0-.07,0V42.5s0,0,0,.06c0,.24,0,.48,0,.73A.16.16,0,0,1,43.66,43.42Z"/><polygon class="cls-1" points="0.94 41.52 1.03 41.52 2.25 50.53 2.93 50.53 4.18 41.52 4.25 41.52 4.25 50.53 5.83 50.53 5.83 40.71 4.05 40.71 3.26 46.35 3.18 46.35 2.41 40.71 0.67 40.71 0.67 50.53 0.94 50.53 0.94 41.52"/><path class="cls-1" d="M7.21,50.53l.28-2h1.6l.23,2H11L9.6,40.71h-1L6.86,50.53Zm1.18-7.11h0l.63,4.88H7.53Z"/><path class="cls-1" d="M12.24,40.71v8c0,1.44.75,2,1.83,2s2-.49,2-2.28V40.71h-.28v7.81c0,1.37-.59,1.85-1.14,1.85s-.7-.21-.7-.6V40.71Z"/><path class="cls-1" d="M20.34,47.09v2.64a2.62,2.62,0,0,0,1.1.91,2,2,0,0,0,1.93-.55,2.29,2.29,0,0,0,.52-1.53c0-2.49-2.75-5-2.75-6.75,0-.41.11-.91.63-.91.33,0,.63.2.9,1v2.08h.44v-2.1l-.37-.58a1.38,1.38,0,0,0-1.12-.65c-.71,0-1.7.68-1.7,2.23,0,2.27,2.57,4.41,2.57,6.41,0,.94-.13,1.17-.72,1.17-.4,0-.63-.28-1-.73V47.09Z"/><path class="cls-1" d="M33.72,47.54c-.42-2.31-1.08-4.55-1.62-6.83H30.39v9.82h.28V41.45s0,0,0,0l2.13,9.08H34V40.71h-.27v6.83Z"/><path class="cls-1" d="M39.7,50.53c2,0,2.33-2.06,2.33-4V45.05c0-3.87-1.19-4.34-2.93-4.34H37.77v2.84H37v.58h.74v6.4Zm-.24-9.61c.63,0,.86.1.86,1v7.74c0,.44-.21.65-.86.65V44.13h.44v-.58h-.44Z"/><path class="cls-1" d="M10.46,38a1.14,1.14,0,0,1-.87.39,1,1,0,0,1-.44-.19.78.78,0,0,0-.42-.2,1.2,1.2,0,0,0-.87.39v.76a1.19,1.19,0,0,1,.87-.38.71.71,0,0,1,.42.2.92.92,0,0,0,.44.18,1.17,1.17,0,0,0,.87-.38Z"/><polygon class="cls-1" points="7.93 39.73 7.93 40.19 9.09 39.96 10.24 40.19 10.24 39.73 9.09 39.35 7.93 39.73"/><path class="cls-1" d="M28.94,42V40.18h-.73v1.06a1.65,1.65,0,0,0-1.38-.64c-1.57,0-2.21,1.51-2.21,5s.64,5,2.21,5,2.22-1.51,2.22-5a12.45,12.45,0,0,0-.33-3.3A.54.54,0,0,0,28.94,42Zm-1.6,7.62c0,.72-.14.89-.51.89s-.5-.17-.5-.89V41.82c0-.67.08-1,.5-1s.51.33.51,1Z"/><rect class="cls-1" x="0.86" y="52.25" width="54.49" height="0.27"/></svg>