<svg id="Layer_1" data-name="Layer 1" xmlns="http://www.w3.org/2000/svg" viewBox="0 0 117.23 27"><defs><style>.cls-1{fill:#c4c4c4;}</style></defs><title>logo-connect</title><path class="cls-1" d="M115,14.43l-10.5,0a2.75,2.75,0,0,0-2.67,1.37l-2,3.33h13.68c.79-.06,1-.33,1.42-1,.21-.37,1-1.59,1.56-2.6a3.94,3.94,0,0,0,.69-1.47c-.37.53-1,.39-2.23.39"/><path class="cls-1" d="M110.4,22.33l-10.58-.06a2.77,2.77,0,0,0-2.68,1.4L95.2,27s12.63,0,13.56,0a1.67,1.67,0,0,0,1.52-1c.22-.37,1-1.62,1.56-2.63a3.13,3.13,0,0,0,.54-1.44c-.38.53-.77.39-2,.39"/><path class="cls-1" d="M116.94,12.45c-.46-.79-3.61-6.13-6.8-11.58a1.43,1.43,0,0,0-1.33-.72h-4.29c-.59,0-1.17,0-1.55.41.82-.5,1.43,0,1.85.68.62,1,8.47,14.57,9.29,16,.41.71.44,1.66-.59,1.87.93-.09,1-.35,1.56-1.23l1.78-3a2.44,2.44,0,0,0,.08-2.46"/><path class="cls-1" d="M107.33,12.54c-1.93-3.38-3.74-6.66-6.7-11.61A1.44,1.44,0,0,0,99.16.15H95.3a2,2,0,0,0-1.57.51c.43-.27,1.06-.28,1.57.53.62,1,6.55,11.34,6.55,11.34Z"/><path class="cls-1" d="M97.81,9.33c-2.38,4.06-4.32,7.23-6.26,10.57a2.48,2.48,0,0,0-.08,2.82l2,3.39,7.11-12Z"/><path class="cls-1" d="M105.6,5.54l1.1-1.88s.44-.81,1-1.82S108.69.21,109.3.21a3.13,3.13,0,0,0-.89-.06c-1.12,0-3,0-3.49,0-1.17,0-1.68-.08-2.14.66l2.82,4.73"/><path class="cls-1" d="M100.25.46c-.26-.18-.39-.3-1.47-.3H95.07a1.74,1.74,0,0,0-1.67.94c-3,5.08-3.92,6.49-6.38,10.79a3.18,3.18,0,0,0-.15,3.1s1.76,3,1.93,3.24c.62-1.07,9.25-15.7,9.74-16.51.61-1,1.11-1.45,1.71-1.26"/><path class="cls-1" d="M112.14,21.06l-.11-.2h-5.39c.55,1,1.85,3.13,2.36,4,.68,1.18.66,1.89-.24,2.14a1.47,1.47,0,0,0,1.45-.9c.82-1.29,1.47-2.47,1.73-2.89a2,2,0,0,0,.2-2.15"/><path class="cls-1" d="M15.43,0V8.92h-.7A11.18,11.18,0,0,0,13.5,4.83,6.36,6.36,0,0,0,11,2.42a6.94,6.94,0,0,0-3.39-.9A4.58,4.58,0,0,0,4.32,2.73,3.68,3.68,0,0,0,3,5.48a3.28,3.28,0,0,0,.81,2.15Q5,9.06,9.46,11.43a39.27,39.27,0,0,1,4.93,3,7.22,7.22,0,0,1,2,2.45,6.38,6.38,0,0,1,.71,2.95,6.71,6.71,0,0,1-2.27,5.05A8.27,8.27,0,0,1,9,27a12.79,12.79,0,0,1-2.11-.17,21,21,0,0,1-2.45-.7,10.72,10.72,0,0,0-2.35-.59,1,1,0,0,0-.75.28A2.3,2.3,0,0,0,1,27H.25V18.13H1a12.51,12.51,0,0,0,1.33,4.16,6.4,6.4,0,0,0,2.56,2.29,7.94,7.94,0,0,0,3.78.92,5.38,5.38,0,0,0,3.76-1.26,3.9,3.9,0,0,0,1.38-3,4,4,0,0,0-.53-1.92,5.78,5.78,0,0,0-1.62-1.81,46.58,46.58,0,0,0-4.06-2.42,41.87,41.87,0,0,1-4.71-3A8,8,0,0,1,.72,9.72,6.05,6.05,0,0,1,0,6.79,6.35,6.35,0,0,1,2.13,2,7.59,7.59,0,0,1,7.55,0a10.92,10.92,0,0,1,4.36,1,4.36,4.36,0,0,0,1.5.47,1.12,1.12,0,0,0,.81-.29A2.37,2.37,0,0,0,14.73,0Z"/><path class="cls-1" d="M37.24,13.22a8.28,8.28,0,0,1,4,1.83,5.68,5.68,0,0,1,1.85,4.28A6.38,6.38,0,0,1,41.88,23a6.94,6.94,0,0,1-3.34,2.57,19.39,19.39,0,0,1-6.48.81H19.88v-.7h1a2.61,2.61,0,0,0,2.32-1,5.85,5.85,0,0,0,.44-2.84V5.16c0-1.6-.18-2.61-.55-3a2.79,2.79,0,0,0-2.21-.84h-1V.59H31a21.76,21.76,0,0,1,5,.46,8,8,0,0,1,4.35,2.42,5.93,5.93,0,0,1,1.51,4A5.58,5.58,0,0,1,40.72,11,6.92,6.92,0,0,1,37.24,13.22Zm-10-1c.46.08,1,.15,1.6.2s1.27.06,2,.06a11.13,11.13,0,0,0,4.18-.6A4.53,4.53,0,0,0,37.18,10a5.22,5.22,0,0,0,.74-2.7,5,5,0,0,0-1.84-3.87,8.07,8.07,0,0,0-5.39-1.6,12.81,12.81,0,0,0-3.42.42Zm0,12.33a19.26,19.26,0,0,0,4.35.51,7.85,7.85,0,0,0,5.25-1.55,4.84,4.84,0,0,0,1.81-3.84,5.59,5.59,0,0,0-.82-2.89,5.52,5.52,0,0,0-2.66-2.19,11.56,11.56,0,0,0-4.57-.79c-.78,0-1.46,0-2,0a9.7,9.7,0,0,0-1.35.14Z"/><path class="cls-1" d="M63.09,0V8.92h-.7a11.18,11.18,0,0,0-1.23-4.09,6.36,6.36,0,0,0-2.52-2.41,6.94,6.94,0,0,0-3.39-.9A4.58,4.58,0,0,0,52,2.73a3.68,3.68,0,0,0-1.29,2.75,3.23,3.23,0,0,0,.82,2.15q1.17,1.42,5.61,3.8a40.41,40.41,0,0,1,4.94,3,7.19,7.19,0,0,1,2,2.45,6.39,6.39,0,0,1,.72,2.95,6.68,6.68,0,0,1-2.28,5.05A8.23,8.23,0,0,1,56.68,27a12.79,12.79,0,0,1-2.11-.17,21.53,21.53,0,0,1-2.45-.7,10.58,10.58,0,0,0-2.35-.59,1,1,0,0,0-.75.28A2.3,2.3,0,0,0,48.61,27h-.7V18.13h.7A12.48,12.48,0,0,0,50,22.29a6.37,6.37,0,0,0,2.55,2.29,7.94,7.94,0,0,0,3.78.92A5.36,5.36,0,0,0,60,24.24a3.9,3.9,0,0,0,1.38-3,4.14,4.14,0,0,0-.52-1.92,5.82,5.82,0,0,0-1.63-1.81q-.75-.57-4.05-2.42a40,40,0,0,1-4.71-3,7.88,7.88,0,0,1-2.12-2.44,6,6,0,0,1-.73-2.93A6.35,6.35,0,0,1,49.79,2a7.59,7.59,0,0,1,5.43-2,10.87,10.87,0,0,1,4.35,1,4.34,4.34,0,0,0,1.51.47,1.08,1.08,0,0,0,.8-.29A2.37,2.37,0,0,0,62.39,0Z"/><path class="cls-1" d="M78.92,25.69v.7h-11v-.7h.91a2.72,2.72,0,0,0,2.32-.94,5.7,5.7,0,0,0,.46-2.93V5.16a8.36,8.36,0,0,0-.25-2.59,1.65,1.65,0,0,0-.78-.82,3.66,3.66,0,0,0-1.75-.46h-.91V.59h11v.7H78a2.71,2.71,0,0,0-2.3.94,5.53,5.53,0,0,0-.48,2.93V21.82a8.69,8.69,0,0,0,.25,2.59,1.7,1.7,0,0,0,.8.82,3.53,3.53,0,0,0,1.73.46Z"/></svg>